<svg width="25" height="24" viewBox="0 0 25 24" fill="none" xmlns="http://www.w3.org/2000/svg">
<path d="M3.92773 15.9032L3.61035 20.7059H13.9389L12.8189 17.7686L12.5014 15.6649L12.1045 12.8467L10.358 11.0606L8.53212 10.5842L5.35672 12.3308L3.92773 15.9032Z" fill="#B3D3EC"/>
<path fill-rule="evenodd" clip-rule="evenodd" d="M15.0526 3.54242C15.2602 3.18403 15.1381 2.72514 14.7797 2.51746C14.4213 2.30979 13.9624 2.43196 13.7547 2.79035L9.5955 9.96797C8.1818 9.69172 6.49304 10.1429 5.18238 11.6292C3.6885 13.3233 2.74622 16.2791 3.03841 20.8811C3.06349 21.276 3.39114 21.5835 3.78691 21.5835H14.4036C14.7193 21.5835 15.0012 21.3859 15.1087 21.0891C15.2163 20.7923 15.1265 20.4599 14.8841 20.2577C14.7239 20.1241 14.2972 19.6434 13.887 18.8511C13.4851 18.075 13.122 17.0427 13.0406 15.8231C13.023 15.5609 13.0083 15.3056 12.9943 15.0613C12.9716 14.6679 12.9506 14.3025 12.9221 13.9821C12.8748 13.4504 12.801 12.9484 12.6343 12.4833C12.3466 11.6807 11.8234 11.0979 10.9824 10.5664L15.0526 3.54242ZM6.30744 12.6213C7.40157 11.3805 8.73791 11.2123 9.65281 11.5336C10.7057 12.0815 11.0468 12.4998 11.2223 12.9894C11.3239 13.273 11.3843 13.6235 11.428 14.115C11.4549 14.4172 11.4732 14.7385 11.4944 15.1084C11.5085 15.3554 11.5239 15.624 11.5439 15.923C11.6413 17.3822 12.0752 18.6143 12.555 19.5409C12.6546 19.7333 12.7573 19.9145 12.8606 20.0835H11.1605C10.9126 19.6798 10.5462 18.8817 10.4429 17.7777C10.4043 17.3652 10.0387 17.0622 9.62628 17.1008C9.21386 17.1394 8.91082 17.505 8.94941 17.9174C9.02959 18.7742 9.24073 19.5065 9.48337 20.0835H7.85475C7.66703 19.3114 7.45461 18.0956 7.51528 17.0187C7.53858 16.6052 7.22221 16.251 6.80865 16.2277C6.3951 16.2044 6.04095 16.5208 6.01765 16.9344C5.95552 18.0372 6.12899 19.2181 6.31603 20.0835H4.50031C4.3577 16.1195 5.24372 13.8276 6.30744 12.6213Z" fill="#016BBF"/>
<path d="M15.5977 11.6875C15.1834 11.6875 14.8477 12.0233 14.8477 12.4375C14.8477 12.8517 15.1834 13.1875 15.5977 13.1875H19.5977C20.0119 13.1875 20.3477 12.8517 20.3477 12.4375C20.3477 12.0233 20.0119 11.6875 19.5977 11.6875H15.5977Z" fill="#016BBF"/>
<path d="M15.8477 15.8335C15.8477 15.4193 16.1834 15.0835 16.5977 15.0835H20.5977C21.0119 15.0835 21.3477 15.4193 21.3477 15.8335C21.3477 16.2477 21.0119 16.5835 20.5977 16.5835H16.5977C16.1834 16.5835 15.8477 16.2477 15.8477 15.8335Z" fill="#016BBF"/>
<path d="M17.5977 18.0835C17.1834 18.0835 16.8477 18.4193 16.8477 18.8335C16.8477 19.2477 17.1834 19.5835 17.5977 19.5835H21.5977C22.0119 19.5835 22.3477 19.2477 22.3477 18.8335C22.3477 18.4193 22.0119 18.0835 21.5977 18.0835H17.5977Z" fill="#016BBF"/>
</svg>
