<svg width="61" height="60" viewBox="0 0 61 60" fill="none" xmlns="http://www.w3.org/2000/svg">
<path d="M8.48877 39.7578L7.69531 51.7646H33.5167L30.7167 44.4214L29.9229 39.1621L28.9306 32.1167L24.5644 27.6513L19.9997 26.4604L12.0612 30.8269L8.48877 39.7578Z" fill="#B3D3EC"/>
<path fill-rule="evenodd" clip-rule="evenodd" d="M36.3009 8.85592C36.8201 7.95994 36.5146 6.81273 35.6186 6.29353C34.7227 5.77434 33.5754 6.07978 33.0563 6.97576L22.6582 24.9198C19.1239 24.2292 14.902 25.357 11.6254 29.0729C7.89068 33.3082 5.53499 40.6976 6.26546 52.2026C6.32816 53.19 7.14729 53.9587 8.1367 53.9587H34.6784C35.4676 53.9587 36.1723 53.4646 36.4412 52.7226C36.7101 51.9806 36.4856 51.1496 35.8796 50.644C35.4793 50.31 34.4124 49.1083 33.3868 47.1277C32.3822 45.1875 31.4743 42.6065 31.2708 39.5577C31.227 38.902 31.1903 38.2639 31.1551 37.6532C31.0985 36.6695 31.0459 35.7562 30.9747 34.9552C30.8565 33.6258 30.672 32.371 30.2551 31.2081C29.536 29.2018 28.228 27.7446 26.1254 26.4158L36.3009 8.85592ZM14.438 31.5531C17.1734 28.4512 20.5142 28.0306 22.8015 28.8338C25.4337 30.2036 26.2864 31.2495 26.7251 32.4734C26.9792 33.1823 27.1302 34.0587 27.2394 35.2874C27.3066 36.0428 27.3526 36.8461 27.4055 37.7709C27.4408 38.3883 27.4792 39.0599 27.5291 39.8075C27.7726 43.4555 28.8573 46.5356 30.0568 48.852C30.3059 49.3331 30.5626 49.7862 30.8211 50.2087H26.5707C25.951 49.1995 25.0349 47.2041 24.7767 44.444C24.6802 43.413 23.7662 42.6554 22.7351 42.7519C21.7041 42.8483 20.9465 43.7624 21.043 44.7934C21.2434 46.9354 21.7713 48.766 22.3779 50.2087H18.3063C17.837 48.2784 17.306 45.2389 17.4576 42.5467C17.5159 41.5128 16.725 40.6275 15.6911 40.5692C14.6572 40.511 13.7718 41.3019 13.7136 42.3358C13.5582 45.0929 13.9919 48.0451 14.4595 50.2087H9.9202C9.56369 40.2986 11.7787 34.5689 14.438 31.5531Z" fill="#016BBF"/>
<path d="M37.6636 29.2186C36.628 29.2186 35.7886 30.0581 35.7886 31.0936C35.7886 32.1292 36.628 32.9686 37.6636 32.9686H47.6636C48.6991 32.9686 49.5386 32.1292 49.5386 31.0936C49.5386 30.0581 48.6991 29.2186 47.6636 29.2186H37.6636Z" fill="#016BBF"/>
<path d="M38.2886 39.5836C38.2886 38.5481 39.128 37.7086 40.1636 37.7086H50.1636C51.1991 37.7086 52.0386 38.5481 52.0386 39.5836C52.0386 40.6192 51.1991 41.4586 50.1636 41.4586H40.1636C39.128 41.4586 38.2886 40.6192 38.2886 39.5836Z" fill="#016BBF"/>
<path d="M42.6636 45.2086C41.628 45.2086 40.7886 46.0481 40.7886 47.0836C40.7886 48.1192 41.628 48.9586 42.6636 48.9586H52.6636C53.6991 48.9586 54.5386 48.1192 54.5386 47.0836C54.5386 46.0481 53.6991 45.2086 52.6636 45.2086H42.6636Z" fill="#016BBF"/>
</svg>
