<svg width="25" height="24" viewBox="0 0 25 24" fill="none" xmlns="http://www.w3.org/2000/svg">
<path d="M14.6634 14.2506C15.0499 13.7866 15.7626 13.7866 16.1491 14.2506L16.4973 14.6686C16.6443 14.8451 16.8493 14.9634 17.0757 15.0025L17.6117 15.095C18.2068 15.1978 18.5632 15.8149 18.3546 16.3817L18.1667 16.8922C18.0873 17.1077 18.0873 17.3445 18.1667 17.5601L18.3546 18.0705C18.5632 18.6373 18.2068 19.2545 17.6117 19.3572L17.0757 19.4498C16.8493 19.4888 16.6443 19.6072 16.4973 19.7837L16.1491 20.2016C15.7626 20.6657 15.0499 20.6657 14.6634 20.2016L14.3152 19.7837C14.1682 19.6072 13.9632 19.4888 13.7368 19.4498L13.2008 19.3572C12.6057 19.2545 12.2494 18.6373 12.458 18.0705L12.6458 17.5601C12.7252 17.3445 12.7252 17.1077 12.6458 16.8922L12.458 16.3817C12.2494 15.8149 12.6057 15.1978 13.2008 15.095L13.7368 15.0025C13.9632 14.9634 14.1682 14.8451 14.3152 14.6686L14.6634 14.2506Z" fill="#B3D3EC"/>
<path fill-rule="evenodd" clip-rule="evenodd" d="M7.44526 3.34509C8.30651 2.48384 9.47461 2 10.6926 2C11.9106 2 13.0787 2.48384 13.94 3.34509C14.8012 4.20634 15.285 5.37445 15.285 6.59244C15.285 7.81043 14.8012 8.97854 13.94 9.83979C13.0787 10.701 11.9106 11.1849 10.6926 11.1849C9.47461 11.1849 8.30651 10.701 7.44526 9.83979C6.58401 8.97854 6.10016 7.81043 6.10016 6.59244C6.10016 5.37445 6.58401 4.20634 7.44526 3.34509ZM10.6926 3.45024C9.85924 3.45024 9.06001 3.7813 8.47074 4.37057C7.88146 4.95985 7.55041 5.75908 7.55041 6.59244C7.55041 7.4258 7.88146 8.22503 8.47074 8.81431C9.06001 9.40359 9.85924 9.73464 10.6926 9.73464C11.526 9.73464 12.3252 9.40359 12.9145 8.81431C13.5038 8.22503 13.8348 7.4258 13.8348 6.59244C13.8348 5.75908 13.5038 4.95985 12.9145 4.37057C12.3252 3.7813 11.526 3.45024 10.6926 3.45024Z" fill="#016BBF"/>
<path d="M8.75895 14.0854C7.92558 14.0854 7.12635 14.4164 6.53708 15.0057C5.9478 15.595 5.61675 16.3942 5.61675 17.2276V19.1612C5.61675 19.5617 5.2921 19.8864 4.89163 19.8864C4.49115 19.8864 4.1665 19.5617 4.1665 19.1612V17.2276C4.1665 16.0096 4.65035 14.8415 5.5116 13.9802C6.37285 13.119 7.54095 12.6351 8.75895 12.6351H10.6926C11.0931 12.6351 11.4177 12.9598 11.4177 13.3602C11.4177 13.7607 11.0931 14.0854 10.6926 14.0854H8.75895Z" fill="#016BBF"/>
<path d="M15.4871 15.072C15.8876 15.072 16.2122 15.3967 16.2122 15.7972V16.5223H16.9373C17.3378 16.5223 17.6625 16.8469 17.6625 17.2474C17.6625 17.6479 17.3378 17.9725 16.9373 17.9725H16.2122V18.6976C16.2122 19.0981 15.8876 19.4228 15.4871 19.4228C15.0866 19.4228 14.762 19.0981 14.762 18.6976V17.9725H14.0369C13.6364 17.9725 13.3117 17.6479 13.3117 17.2474C13.3117 16.8469 13.6364 16.5223 14.0369 16.5223H14.762V15.7972C14.762 15.3967 15.0866 15.072 15.4871 15.072Z" fill="#016BBF"/>
<path fill-rule="evenodd" clip-rule="evenodd" d="M17.8585 13.666L17.4978 13.6038L17.2635 13.3225C16.2972 12.1624 14.5156 12.1624 13.5492 13.3225L13.3149 13.6038L12.9542 13.666C11.4664 13.9228 10.5756 15.4658 11.0971 16.8827L11.2235 17.2262L11.0971 17.5697C10.5756 18.9867 11.4664 20.5296 12.9542 20.7864L13.3149 20.8487L13.5492 21.1299C14.5156 22.29 16.2972 22.29 17.2635 21.1299L17.4978 20.8487L17.8585 20.7864C19.3463 20.5296 20.2372 18.9867 19.7157 17.5697L19.5892 17.2262L19.7157 16.8827C20.2372 15.4658 19.3464 13.9228 17.8585 13.666ZM14.6635 14.2507C15.05 13.7867 15.7627 13.7867 16.1492 14.2507L16.4974 14.6687C16.6444 14.8451 16.8494 14.9635 17.0758 15.0026L17.6118 15.0951C18.2069 15.1979 18.5633 15.815 18.3547 16.3818L18.1668 16.8923C18.0874 17.1078 18.0874 17.3446 18.1668 17.5602L18.3547 18.0706C18.5633 18.6374 18.2069 19.2546 17.6118 19.3573L17.0758 19.4498C16.8494 19.4889 16.6444 19.6073 16.4974 19.7838L16.1492 20.2017C15.7627 20.6658 15.05 20.6658 14.6635 20.2017L14.3154 19.7838C14.1683 19.6073 13.9633 19.4889 13.737 19.4498L13.2009 19.3573C12.6058 19.2546 12.2495 18.6374 12.4581 18.0706L12.6459 17.5602C12.7253 17.3446 12.7253 17.1078 12.6459 16.8923L12.4581 16.3818C12.2495 15.815 12.6058 15.1979 13.2009 15.0951L13.737 15.0026C13.9633 14.9635 14.1683 14.8451 14.3154 14.6687L14.6635 14.2507Z" fill="#016BBF"/>
</svg>
