<svg width="25" height="24" viewBox="0 0 25 24" fill="none" xmlns="http://www.w3.org/2000/svg">
<path fill-rule="evenodd" clip-rule="evenodd" d="M7.39756 2.51342C7.84762 2.4692 8.30164 2.53666 8.7194 2.70981C9.13716 2.88296 9.50578 3.15646 9.7926 3.50609C10.0794 3.85572 10.2756 4.27069 10.3637 4.71424C10.4519 5.1578 10.4293 5.61624 10.2979 6.04897C10.2405 6.23805 10.1631 6.41968 10.0675 6.59094L12.6666 9.18933L15.2655 6.59096C15.1698 6.4197 15.0924 6.23807 15.0351 6.04897C14.9037 5.61624 14.8811 5.1578 14.9692 4.71424C15.0574 4.27069 15.2536 3.85572 15.5404 3.50609C15.8272 3.15646 16.1958 2.88296 16.6136 2.70981C17.0313 2.53666 17.4854 2.4692 17.9354 2.51342C18.3855 2.55764 18.8177 2.71217 19.1937 2.96332C19.5698 3.21446 19.8782 3.55448 20.0914 3.95325C20.1981 4.15271 20.2794 4.36378 20.334 4.58155C20.5519 4.63595 20.7631 4.71704 20.9628 4.8236C21.3619 5.03659 21.7022 5.34473 21.9537 5.72072C22.2052 6.0967 22.3601 6.52891 22.4046 6.97906C22.4491 7.4292 22.3819 7.88338 22.2089 8.30134C22.0359 8.71929 21.7625 9.08813 21.4129 9.37515C21.0633 9.66217 20.6482 9.85852 20.2046 9.9468C19.761 10.0351 19.3024 10.0125 18.8695 9.88122C18.6803 9.8238 18.4985 9.74636 18.3271 9.65063L16.4774 11.4998H19.6665C19.844 11.4998 20.0158 11.5627 20.1512 11.6774C21.2446 12.6035 21.7822 13.5654 22.0558 14.5413C22.2516 15.2397 22.3106 15.9676 22.3623 16.6056C22.3784 16.8041 22.3938 16.9942 22.4124 17.1716C22.4346 17.383 22.366 17.5938 22.2238 17.7517C22.0815 17.9096 21.879 17.9998 21.6665 17.9998H16.6665C16.2523 17.9998 15.9165 17.664 15.9165 17.2498C15.9165 16.8355 16.2523 16.4998 16.6665 16.4998H20.847C20.8015 15.9482 20.755 15.458 20.6115 14.9462C20.4331 14.3101 20.1023 13.6655 19.3827 12.9998H5.92972C5.09 13.7212 4.56256 14.8482 4.44266 16.4998H8.6665C9.08072 16.4998 9.4165 16.8355 9.4165 17.2498C9.4165 17.664 9.08072 17.9998 8.6665 17.9998H3.6665C3.25229 17.9998 2.9165 17.664 2.9165 17.2498C2.9165 14.7812 3.62659 12.8425 5.21643 11.6498C5.34627 11.5524 5.5042 11.4998 5.6665 11.4998H8.85553L7.00589 9.65063C6.83449 9.74636 6.6527 9.8238 6.46343 9.88122C6.03058 10.0125 5.57201 10.0351 5.12837 9.9468C4.68472 9.85852 4.2697 9.66217 3.92009 9.37515C3.57048 9.08812 3.29706 8.71929 3.12407 8.30134C2.95109 7.88338 2.88387 7.4292 2.92839 6.97906C2.9729 6.52891 3.12776 6.0967 3.37926 5.72072C3.63075 5.34473 3.97111 5.03659 4.37017 4.8236C4.56982 4.71704 4.78108 4.63594 4.99901 4.58154C5.0536 4.36378 5.13485 4.15271 5.24153 3.95325C5.45482 3.55448 5.76315 3.21446 6.13923 2.96332C6.5153 2.71217 6.94751 2.55764 7.39756 2.51342ZM12.4773 11.4998H14.3558L17.7232 8.13327C17.8639 7.99263 18.0547 7.91364 18.2536 7.91367C18.4525 7.9137 18.6433 7.99275 18.7839 8.13342C18.9293 8.27883 19.1083 8.38614 19.305 8.44583C19.5018 8.50552 19.7102 8.51576 19.9119 8.47564C20.1135 8.43551 20.3022 8.34626 20.4611 8.2158C20.62 8.08533 20.7443 7.91768 20.8229 7.7277C20.9015 7.53772 20.9321 7.33128 20.9119 7.12667C20.8916 6.92206 20.8212 6.72559 20.7069 6.55469C20.5926 6.38379 20.4379 6.24373 20.2565 6.14691C20.0751 6.0501 19.8726 5.99952 19.667 5.99967C19.4681 5.99981 19.2772 5.92089 19.1364 5.78027C18.9957 5.63965 18.9166 5.44885 18.9165 5.24989C18.9164 5.04433 18.8657 4.84196 18.7687 4.6607C18.6718 4.47944 18.5316 4.32489 18.3607 4.21073C18.1898 4.09657 17.9933 4.02633 17.7887 4.00624C17.5842 3.98614 17.3778 4.0168 17.1879 4.0955C16.998 4.1742 16.8305 4.29853 16.7001 4.45745C16.5697 4.61637 16.4805 4.80499 16.4405 5.00661C16.4004 5.20822 16.4107 5.41661 16.4704 5.6133C16.5301 5.81 16.6374 5.98893 16.7828 6.13426C16.9235 6.27491 17.0025 6.46571 17.0025 6.66465C17.0025 6.86359 16.9235 7.05439 16.7828 7.19505L12.4773 11.4998ZM8.55021 7.19508L11.6059 10.2499L10.6665 11.1892L7.60972 8.13327C7.46905 7.99263 7.27827 7.91364 7.07936 7.91367C6.88044 7.9137 6.68969 7.99275 6.54906 8.13342C6.40369 8.27883 6.2247 8.38614 6.02795 8.44583C5.83119 8.50552 5.62275 8.51576 5.4211 8.47564C5.21944 8.43551 5.0308 8.34626 4.87188 8.2158C4.71296 8.08533 4.58869 7.91768 4.51006 7.7277C4.43143 7.53772 4.40087 7.33128 4.42111 7.12667C4.44134 6.92205 4.51173 6.72559 4.62605 6.55469C4.74036 6.38379 4.89507 6.24373 5.07646 6.14691C5.25785 6.0501 5.46032 5.99952 5.66593 5.99967C5.8649 5.99981 6.05577 5.92089 6.19653 5.78027C6.33729 5.63965 6.41641 5.44885 6.41647 5.24989C6.41653 5.04433 6.46728 4.84196 6.56422 4.6607C6.66117 4.47944 6.80132 4.32489 6.97227 4.21073C7.14321 4.09657 7.33967 4.02634 7.54424 4.00624C7.74881 3.98614 7.95518 4.0168 8.14507 4.0955C8.33497 4.1742 8.50252 4.29852 8.63289 4.45745C8.76326 4.61637 8.85243 4.80499 8.89249 5.00661C8.93256 5.20822 8.92228 5.41661 8.86258 5.6133C8.80288 5.81 8.69559 5.98893 8.55022 6.13426C8.40952 6.27492 8.33047 6.46572 8.33047 6.66467C8.33046 6.86362 8.40951 7.05442 8.55021 7.19508Z" fill="#8A8A8A"/>
<path d="M13.4165 14.7498C13.4165 14.3355 13.0807 13.9998 12.6665 13.9998C12.2523 13.9998 11.9165 14.3355 11.9165 14.7498V14.7876C11.559 14.8606 11.2276 15.037 10.9657 15.2989C10.614 15.6506 10.4165 16.1275 10.4165 16.6248C10.4165 17.122 10.614 17.599 10.9657 17.9506C11.3173 18.3022 11.7942 18.4998 12.2915 18.4998H13.0415C13.141 18.4998 13.2363 18.5393 13.3067 18.6096C13.377 18.6799 13.4165 18.7753 13.4165 18.8748C13.4165 18.9742 13.377 19.0696 13.3067 19.1399C13.2363 19.2102 13.141 19.2498 13.0415 19.2498H11.1665C10.7523 19.2498 10.4165 19.5855 10.4165 19.9998C10.4165 20.414 10.7523 20.7498 11.1665 20.7498H11.9165C11.9165 21.164 12.2523 21.4998 12.6665 21.4998C13.0807 21.4998 13.4165 21.164 13.4165 20.7498V20.7119C13.774 20.6389 14.1054 20.4625 14.3673 20.2006C14.719 19.849 14.9165 19.372 14.9165 18.8748C14.9165 18.3775 14.719 17.9006 14.3673 17.5489C14.0157 17.1973 13.5388 16.9998 13.0415 16.9998H12.2915C12.192 16.9998 12.0967 16.9602 12.0263 16.8899C11.956 16.8196 11.9165 16.7242 11.9165 16.6248C11.9165 16.5253 11.956 16.4299 12.0263 16.3596C12.0967 16.2893 12.192 16.2498 12.2915 16.2498H14.1665C14.5807 16.2498 14.9165 15.914 14.9165 15.4998C14.9165 15.0855 14.5807 14.7498 14.1665 14.7498H13.4165Z" fill="#8A8A8A"/>
</svg>
