<svg width="25" height="24" viewBox="0 0 25 24" fill="none" xmlns="http://www.w3.org/2000/svg">
<path fill-rule="evenodd" clip-rule="evenodd" d="M12.206 2.40799C12.4769 2.19734 12.8561 2.19734 13.127 2.40799L22.127 9.40799C22.3096 9.55008 22.4165 9.76856 22.4165 10V19C22.4165 19.9665 21.633 20.75 20.6665 20.75H19.6665C19.2523 20.75 18.9165 20.4142 18.9165 20C18.9165 19.5858 19.2523 19.25 19.6665 19.25H20.6665C20.8046 19.25 20.9165 19.1381 20.9165 19V10.3668L12.6665 3.95015L4.4165 10.3668V20C4.4165 20.4142 4.08072 20.75 3.6665 20.75C3.25229 20.75 2.9165 20.4142 2.9165 20V10C2.9165 9.76856 3.02336 9.55008 3.20605 9.40799L12.206 2.40799Z" fill="#8A8A8A"/>
<path fill-rule="evenodd" clip-rule="evenodd" d="M13.0598 8.24976C13.474 8.24976 13.8098 8.58554 13.8098 8.99976C13.8098 9.44094 14.185 9.83731 14.696 9.83731H18.1665C18.5807 9.83731 18.9165 10.1731 18.9165 10.5873V10.9046C18.9165 11.7005 18.5903 12.4589 18.0174 13.0144C17.6276 13.3924 17.1454 13.6557 16.6248 13.7851V20.9998C16.6248 21.414 16.2891 21.7498 15.8748 21.7498H13.0792C12.8485 21.7498 12.6304 21.6436 12.4883 21.4618C12.3464 21.2805 12.2958 21.0442 12.3507 20.8207L12.351 20.8196L12.3547 20.8031C12.3582 20.788 12.3635 20.7636 12.3699 20.7312C12.3828 20.6664 12.3998 20.571 12.4151 20.4559C12.4462 20.2201 12.4663 19.9261 12.4387 19.6482C12.41 19.3596 12.3377 19.1674 12.2526 19.0603C12.1963 18.9894 12.0945 18.8982 11.8046 18.8982C11.3904 18.8982 11.0546 18.5624 11.0546 18.1482C11.0546 17.734 11.3904 17.3982 11.8046 17.3982C12.5056 17.3982 13.0586 17.6634 13.4271 18.1272C13.7668 18.5548 13.8891 19.0754 13.9313 19.4998C13.9575 19.7634 13.9558 20.0211 13.9415 20.2498H15.1239L15.1248 13.1269C15.1248 12.7127 15.4606 12.3769 15.8748 12.3769C16.291 12.3769 16.6857 12.2163 16.9732 11.9376C17.1495 11.7666 17.2766 11.5601 17.3484 11.3373H14.696C14.3846 11.3373 14.0851 11.2781 13.8098 11.17V11.4726C13.8098 12.3847 13.5547 13.262 13.0968 14.0206C13.0209 14.1725 12.9112 14.3097 12.8387 14.397C12.7362 14.5206 12.6136 14.6533 12.4916 14.7794C12.2466 15.0326 11.9737 15.2903 11.7956 15.452C11.7747 15.4709 11.7528 15.4887 11.7299 15.5052C11.6595 15.5559 11.5842 15.6084 11.5045 15.6603L11.5023 15.6617C11.0004 15.986 10.5913 16.4239 10.3093 16.9348C10.0274 17.4455 9.88078 18.0142 9.88092 18.5907V20.9998C9.88092 21.414 9.54513 21.7498 9.13092 21.7498H8.77067C7.49288 21.7498 6.4165 20.7387 6.4165 19.4442V17.8886C6.4165 17.4744 6.75229 17.1386 7.1665 17.1386C7.58072 17.1386 7.9165 17.4744 7.9165 17.8886V19.4442C7.9165 19.7446 8.09863 20.0247 8.38092 20.1618V18.591C8.38075 17.7591 8.59256 16.941 8.99606 16.2099C9.39929 15.4794 9.98085 14.8592 10.6871 14.4026C10.7302 14.3745 10.7738 14.3446 10.8191 14.3125C10.9798 14.1654 11.2105 13.9462 11.4136 13.7363C11.5225 13.6237 11.6161 13.5215 11.6845 13.439C11.7342 13.3792 11.7533 13.3501 11.7564 13.3464C11.7684 13.3207 11.7819 13.2957 11.7968 13.2716C12.1277 12.7338 12.3098 12.1137 12.3098 11.4726V8.99976C12.3098 8.58554 12.6455 8.24976 13.0598 8.24976Z" fill="#8A8A8A"/>
</svg>
