<svg width="25" height="24" viewBox="0 0 25 24" fill="none" xmlns="http://www.w3.org/2000/svg">
<path fill-rule="evenodd" clip-rule="evenodd" d="M8.13569 8.62365C9.96477 8.62365 11.4475 7.1409 11.4475 5.31183C11.4475 3.48275 9.96477 2 8.13569 2C6.30662 2 4.82387 3.48275 4.82387 5.31183C4.82387 7.1409 6.30662 8.62365 8.13569 8.62365ZM8.13569 7.13333C9.14168 7.13333 9.9572 6.31781 9.9572 5.31183C9.9572 4.30584 9.14168 3.49032 8.13569 3.49032C7.12971 3.49032 6.31419 4.30584 6.31419 5.31183C6.31419 6.31781 7.12971 7.13333 8.13569 7.13333Z" fill="#8A8A8A"/>
<path d="M16.9717 8.58711C17.3833 8.58711 17.7169 8.92072 17.7169 9.33227C17.7169 9.7706 18.0897 10.1644 18.5974 10.1644H22.0455C22.4571 10.1644 22.7907 10.498 22.7907 10.9096V11.2249C22.7907 12.0156 22.4665 12.7691 21.8974 13.321C21.5101 13.6966 21.031 13.9582 20.5138 14.0867V21.2548C20.5138 21.6664 20.1802 22 19.7686 22H16.9911C16.7619 22 16.5452 21.8945 16.4039 21.7139C16.263 21.5338 16.2127 21.299 16.2672 21.077L16.2675 21.0758L16.2713 21.0595C16.2747 21.0444 16.2799 21.0202 16.2863 20.988C16.2991 20.9236 16.316 20.8289 16.3312 20.7145C16.3622 20.4802 16.3821 20.1882 16.3547 19.912C16.3262 19.6253 16.2543 19.4343 16.1698 19.3279C16.1138 19.2575 16.0127 19.1668 15.7247 19.1668C15.3131 19.1668 14.9795 18.8332 14.9795 18.4217C14.9795 18.0101 15.3131 17.6765 15.7247 17.6765C16.4212 17.6765 16.9706 17.94 17.3367 18.4009C17.6742 18.8257 17.7958 19.3429 17.8377 19.7645C17.8637 20.0264 17.8619 20.2825 17.8478 20.5097H19.0225L19.0235 13.4327C19.0235 13.0212 19.3571 12.6876 19.7686 12.6876C20.1822 12.6876 20.5743 12.5281 20.8599 12.2511C21.0351 12.0813 21.1614 11.8761 21.2327 11.6547H18.5974C18.288 11.6547 17.9904 11.5959 17.7169 11.4885V11.7892C17.7169 12.6953 17.4635 13.567 17.0086 14.3207C16.9331 14.4716 16.8242 14.608 16.7521 14.6947C16.6502 14.8175 16.5284 14.9493 16.4072 15.0746C16.1638 15.3262 15.8927 15.5822 15.7157 15.7429C15.695 15.7617 15.6732 15.7793 15.6504 15.7957C15.5805 15.8461 15.5057 15.8983 15.4265 15.9499L15.4244 15.9512C14.9256 16.2734 14.5192 16.7085 14.239 17.2161C13.959 17.7235 13.8133 18.2885 13.8134 18.8613V21.2548C13.8134 21.6664 13.4798 22 13.0682 22H12.7103C11.4408 22 10.3713 20.9954 10.3713 19.7093V18.1638C10.3713 17.7523 10.705 17.4186 11.1165 17.4186C11.528 17.4186 11.8617 17.7523 11.8617 18.1638V19.7093C11.8617 20.0078 12.0426 20.2861 12.3231 20.4222V18.8617C12.3229 18.0351 12.5334 17.2223 12.9343 16.4959C13.3349 15.7701 13.9127 15.1539 14.6144 14.7002C14.6572 14.6723 14.7005 14.6426 14.7455 14.6107C14.9052 14.4646 15.1344 14.2468 15.3362 14.0382C15.4444 13.9264 15.5374 13.8248 15.6054 13.7429C15.6451 13.695 15.6652 13.667 15.6731 13.6559C15.675 13.6533 15.6762 13.6516 15.6767 13.6509C15.6887 13.6254 15.7021 13.6005 15.7169 13.5765C16.0457 13.0422 16.2266 12.4261 16.2266 11.7892V9.33227C16.2266 8.92072 16.5602 8.58711 16.9717 8.58711Z" fill="#8A8A8A"/>
<path d="M6.43263 9.86542C5.59238 9.86542 4.81465 10.2558 4.26105 10.9017C3.71049 11.544 3.4165 12.3937 3.4165 13.26V15.9097C3.4165 16.3212 3.75012 16.6548 4.16166 16.6548C5.20925 16.6548 5.57491 16.978 5.70413 17.1418C5.78047 17.2386 5.81698 17.3331 5.83448 17.3997C5.84319 17.4328 5.84666 17.4572 5.84791 17.4682L5.84798 21.2548C5.84798 21.6664 6.1816 22 6.59314 22C7.00468 22 7.3383 21.6664 7.3383 21.2548V17.451H6.59314C7.3383 17.451 7.3383 17.4504 7.3383 17.4499L7.33829 17.4487L7.33828 17.4461L7.33823 17.4406L7.33798 17.4277C7.33774 17.4182 7.33734 17.4072 7.33668 17.3946C7.33535 17.3695 7.333 17.3381 7.32886 17.3014C7.32061 17.2281 7.30509 17.1321 7.27581 17.0207C7.21732 16.7983 7.10187 16.5074 6.87427 16.2189C6.48832 15.7296 5.86089 15.3438 4.90683 15.2128V13.26C4.90683 12.7211 5.09136 12.223 5.39258 11.8715C5.69076 11.5237 6.06829 11.3557 6.43263 11.3557H9.83908C10.2034 11.3557 10.581 11.5237 10.8791 11.8715C11.1803 12.223 11.3649 12.7211 11.3649 13.26V13.9226C11.3649 14.3341 11.6985 14.6677 12.11 14.6677C12.5216 14.6677 12.8552 14.3341 12.8552 13.9226V13.26C12.8552 12.3937 12.5612 11.544 12.0107 10.9017C11.4571 10.2558 10.6793 9.86542 9.83908 9.86542H6.43263Z" fill="#8A8A8A"/>
</svg>
