<svg width="25" height="24" viewBox="0 0 25 24" fill="none" xmlns="http://www.w3.org/2000/svg">
<path fill-rule="evenodd" clip-rule="evenodd" d="M14.1886 2.25C14.6028 2.25 14.9386 2.58579 14.9386 3C14.9386 3.87045 15.6851 4.63133 16.6749 4.63133H21.9482C22.3624 4.63133 22.6982 4.96712 22.6982 5.38133V5.85733C22.6982 6.95113 22.244 7.99314 21.4469 8.75614C20.832 9.34475 20.0519 9.73086 19.2161 9.87605V10.2784C19.2162 10.2869 19.2162 10.2953 19.2161 10.3037V21C19.2161 21.4142 18.8803 21.75 18.4661 21.75H14.2185C13.9874 21.75 13.7685 21.6434 13.6264 21.4612C13.4845 21.2792 13.4343 21.0421 13.4902 20.8183L13.4905 20.8172L13.4916 20.8127L13.4979 20.7853C13.5038 20.7598 13.5125 20.7201 13.5229 20.6684C13.5437 20.5647 13.5711 20.4139 13.5954 20.2321C13.6449 19.863 13.6785 19.3917 13.6327 18.9365C13.5858 18.4711 13.4637 18.1017 13.2701 17.8612C13.1048 17.6558 12.8323 17.4727 12.2814 17.4727C11.8672 17.4727 11.5314 17.1369 11.5314 16.7227C11.5314 16.3085 11.8672 15.9727 12.2814 15.9727C13.2362 15.9727 13.9586 16.3242 14.4387 16.9208C14.8906 17.4823 15.0643 18.1822 15.1251 18.7862C15.1788 19.3186 15.1507 19.8389 15.1045 20.25H17.7161V11.0922C16.9422 11.0868 16.1718 10.935 15.5014 10.7408C14.9412 10.5785 14.4253 10.3791 14.0009 10.1869C13.9685 10.243 13.9353 10.2988 13.9013 10.3541C13.809 10.5416 13.6639 10.7245 13.5499 10.8601C13.4028 11.0351 13.224 11.2264 13.0419 11.4121C12.6768 11.7846 12.2685 12.1654 12.0023 12.4039C11.9813 12.4227 11.9594 12.4402 11.9364 12.4566C11.8327 12.5303 11.7236 12.6054 11.6091 12.679L11.607 12.6803C10.7909 13.2009 10.1252 13.904 9.66626 14.7249C9.20744 15.5455 8.9686 16.4597 8.96882 17.3865V21C8.96882 21.4142 8.63303 21.75 8.21882 21.75H7.67142C5.94292 21.75 4.48392 20.3994 4.48392 18.6667V16.3333C4.48392 15.9191 4.81971 15.5833 5.23392 15.5833C5.64814 15.5833 5.98392 15.9191 5.98392 16.3333V18.6667C5.98392 19.4496 6.60897 20.1437 7.46882 20.2389V17.3868C7.46856 16.201 7.7744 15.0349 8.357 13.9929C8.93928 12.9514 9.77915 12.0673 10.7992 11.4164C10.8766 11.3667 10.9539 11.314 11.0329 11.2584C11.282 11.034 11.6479 10.6914 11.9707 10.3621C12.1396 10.1898 12.2891 10.0288 12.4018 9.89476C12.4874 9.79296 12.5278 9.73435 12.5427 9.71271C12.5508 9.70097 12.5514 9.70011 12.5476 9.70915C12.5633 9.6715 12.582 9.63519 12.6036 9.60058C12.6364 9.5479 12.6684 9.49471 12.6994 9.44106C12.0727 9.00877 11.4732 8.52702 10.9029 8.06874C10.8664 8.03942 10.8301 8.01019 10.7938 7.98107C10.0019 7.34513 9.26588 6.76289 8.51421 6.33033C7.76995 5.90205 7.05492 5.64781 6.31808 5.63333C5.59072 5.61904 4.76767 5.83692 3.80083 6.4814C3.45617 6.71114 2.99052 6.61798 2.76078 6.27332C2.53104 5.92866 2.6242 5.46301 2.96886 5.23327C4.14531 4.44908 5.264 4.11233 6.34755 4.13362C7.4216 4.15473 8.38665 4.5263 9.26236 5.03023C10.1306 5.52988 10.9545 6.18626 11.733 6.81153C11.7608 6.83381 11.7885 6.85606 11.8161 6.87827C12.3136 7.27789 12.7947 7.66437 13.2781 8.01363C13.3837 7.59049 13.4386 7.15311 13.4386 6.70933V3C13.4386 2.58579 13.7744 2.25 14.1886 2.25ZM14.9386 5.64202V6.70933C14.9386 7.43356 14.8243 8.14252 14.6086 8.81549C14.9693 8.97935 15.4221 9.15616 15.9188 9.30003C16.5141 9.4725 17.1358 9.58686 17.7161 9.59219V9.19067C17.7161 8.77645 18.0519 8.44067 18.4661 8.44067C19.201 8.44067 19.8996 8.16089 20.4097 7.67258C20.8494 7.25169 21.1178 6.70662 21.1828 6.13133H16.6749C16.0412 6.13133 15.4437 5.95281 14.9386 5.64202Z" fill="#8A8A8A"/>
</svg>
