<svg width="25" height="24" viewBox="0 0 25 24" fill="none" xmlns="http://www.w3.org/2000/svg">
<path d="M13.5263 2.06272C13.7679 2.39922 13.6909 2.86782 13.3544 3.10935C13.1368 3.26553 12.9605 3.47233 12.8407 3.71189C12.7209 3.95145 12.6613 4.21657 12.6669 4.48435C12.6671 4.49482 12.6671 4.50529 12.6669 4.51576C12.6613 4.78354 12.7209 5.04866 12.8407 5.28822C12.9605 5.52778 13.1368 5.73458 13.3544 5.89076C13.6909 6.1323 13.7679 6.60089 13.5263 6.93739C13.2848 7.2739 12.8162 7.35088 12.4797 7.10935C12.0643 6.81119 11.7277 6.41639 11.4991 5.95904C11.2727 5.50638 11.1588 5.00593 11.1669 4.50006C11.1588 3.99419 11.2727 3.49373 11.4991 3.04107C11.7277 2.58373 12.0643 2.18893 12.4797 1.89076C12.8162 1.64923 13.2848 1.72622 13.5263 2.06272Z" fill="#8A8A8A"/>
<path d="M17.5263 3.06272C17.7679 3.39922 17.6909 3.86782 17.3544 4.10935C17.1368 4.26553 16.9605 4.47233 16.8407 4.71189C16.7209 4.95145 16.6613 5.21657 16.6669 5.48435C16.6671 5.49482 16.6671 5.50529 16.6669 5.51576C16.6613 5.78354 16.7209 6.04866 16.8407 6.28822C16.9605 6.52778 17.1368 6.73458 17.3544 6.89076C17.6909 7.1323 17.7679 7.60089 17.5263 7.93739C17.2848 8.2739 16.8162 8.35088 16.4797 8.10935C16.0643 7.81119 15.7277 7.41639 15.4991 6.95904C15.2727 6.50638 15.1588 6.00593 15.1669 5.50006C15.1588 4.99419 15.2727 4.49373 15.4991 4.04107C15.7277 3.58373 16.0643 3.18893 16.4797 2.89076C16.8162 2.64923 17.2848 2.72622 17.5263 3.06272Z" fill="#8A8A8A"/>
<path d="M9.35388 4.10935C9.69038 3.86782 9.76737 3.39922 9.52584 3.06272C9.2843 2.72622 8.81571 2.64923 8.47921 2.89076C8.06381 3.18893 7.72724 3.58373 7.49857 4.04107C7.27224 4.49373 7.15834 4.99419 7.16642 5.50006C7.15834 6.00593 7.27224 6.50638 7.49857 6.95904C7.72724 7.41639 8.06381 7.81119 8.47921 8.10935C8.81571 8.35088 9.2843 8.2739 9.52584 7.93739C9.76737 7.60089 9.69038 7.1323 9.35388 6.89076C9.13629 6.73458 8.95999 6.52778 8.84021 6.28822C8.72043 6.04866 8.66077 5.78354 8.66638 5.51576C8.6666 5.50529 8.6666 5.49482 8.66638 5.48435C8.66077 5.21657 8.72043 4.95145 8.84021 4.71189C8.95999 4.47233 9.13629 4.26553 9.35388 4.10935Z" fill="#8A8A8A"/>
<path fill-rule="evenodd" clip-rule="evenodd" d="M19.4224 16.5692C19.5043 16.5375 19.5846 16.5035 19.6628 16.4673C20.6934 15.9908 21.6665 15.0049 21.6665 13.6606C21.6665 12.2368 20.8376 11.2526 19.7607 10.8007C18.9295 10.452 17.9458 10.412 17.0395 10.6857C16.0882 9.31968 14.2788 8.74353 12.7074 8.75005C11.7797 8.75391 10.8383 8.95443 10.0602 9.38143C9.46578 9.70759 8.94794 10.1789 8.63322 10.8034C7.66091 10.7024 6.69494 10.7389 5.90352 11.0462C5.4095 11.2379 4.9614 11.5442 4.64093 12.0054C4.31962 12.4678 4.1665 13.0286 4.1665 13.6607C4.1665 14.4722 4.37869 15.1445 4.79324 15.6585C5.20455 16.1685 5.75684 16.4504 6.30816 16.5926C6.34646 16.6025 6.38494 16.6117 6.42358 16.6204L7.68896 21.6819C7.77243 22.0158 8.07242 22.25 8.41657 22.25H17.4166C17.7607 22.25 18.0607 22.0158 18.1442 21.6819L19.4224 16.5692ZM10.7818 10.6964C10.2731 10.9756 9.96278 11.3504 9.85682 11.7976C9.76641 12.1791 9.39733 12.4266 9.01001 12.3654C7.92226 12.1936 7.02975 12.218 6.44639 12.4445C6.17004 12.5518 5.98892 12.6941 5.87275 12.8613C5.75743 13.0273 5.6665 13.2746 5.6665 13.6607C5.6665 14.2065 5.80519 14.5239 5.96082 14.7168C6.11968 14.9138 6.35687 15.0561 6.68275 15.1401C7.36655 15.3165 8.26221 15.1875 8.89691 14.9829C9.17666 14.8927 9.48331 14.9742 9.68131 15.1914C10.9929 16.6303 12.3834 16.8895 13.5404 16.6919C14.7575 16.4841 15.7296 15.7677 16.0979 15.2576C16.2151 15.0952 16.3924 14.9864 16.5903 14.9555C16.7882 14.9247 16.9903 14.9742 17.1514 15.0932C17.4049 15.2803 17.7736 15.3678 18.1848 15.3348L18.189 15.3181L18.2365 15.33C18.4928 15.3033 18.7641 15.2302 19.0334 15.1058C19.7501 14.7744 20.1665 14.2139 20.1665 13.6606C20.1665 12.9126 19.7692 12.431 19.1803 12.1839C18.5574 11.9225 17.7353 11.9418 17.0464 12.2928C16.8611 12.3872 16.6449 12.4004 16.4494 12.3293C16.254 12.2581 16.0968 12.109 16.0156 11.9175C15.5793 10.8896 14.234 10.2437 12.7137 10.25C11.9815 10.2531 11.2973 10.4135 10.7818 10.6964ZM17.8095 16.8361C17.4906 16.8182 17.1743 16.7553 16.874 16.6378C16.171 17.3182 15.0643 17.9534 13.7929 18.1705C12.2562 18.4329 10.4863 18.0831 8.89878 16.539C8.62103 16.606 8.31198 16.6619 7.98814 16.694L9.00215 20.75H16.831L17.8095 16.8361Z" fill="#8A8A8A"/>
</svg>
