<svg width="25" height="24" viewBox="0 0 25 24" fill="none" xmlns="http://www.w3.org/2000/svg">
<path fill-rule="evenodd" clip-rule="evenodd" d="M13.0641 2.364C12.8209 2.212 12.5123 2.212 12.2691 2.364L4.26907 7.364C3.98534 7.54133 3.85339 7.88515 3.94563 8.20676C4.03787 8.52838 4.33198 8.75 4.66657 8.75H20.6666C21.0011 8.75 21.2953 8.52838 21.3875 8.20676C21.4797 7.88515 21.3478 7.54133 21.0641 7.364L13.0641 2.364ZM12.6666 3.88444L18.0515 7.25H7.28166L12.6666 3.88444Z" fill="#8A8A8A"/>
<path d="M7.4165 11C7.4165 10.5858 7.08072 10.25 6.6665 10.25C6.25229 10.25 5.9165 10.5858 5.9165 11V18C5.9165 18.4142 6.25229 18.75 6.6665 18.75C7.08072 18.75 7.4165 18.4142 7.4165 18V11Z" fill="#8A8A8A"/>
<path d="M3.6665 20.25C3.25229 20.25 2.9165 20.5858 2.9165 21C2.9165 21.4142 3.25229 21.75 3.6665 21.75H21.6665C22.0807 21.75 22.4165 21.4142 22.4165 21C22.4165 20.5858 22.0807 20.25 21.6665 20.25H3.6665Z" fill="#8A8A8A"/>
<path d="M10.6665 10.25C11.0807 10.25 11.4165 10.5858 11.4165 11V18C11.4165 18.4142 11.0807 18.75 10.6665 18.75C10.2523 18.75 9.9165 18.4142 9.9165 18V11C9.9165 10.5858 10.2523 10.25 10.6665 10.25Z" fill="#8A8A8A"/>
<path d="M15.4165 11C15.4165 10.5858 15.0807 10.25 14.6665 10.25C14.2523 10.25 13.9165 10.5858 13.9165 11V18C13.9165 18.4142 14.2523 18.75 14.6665 18.75C15.0807 18.75 15.4165 18.4142 15.4165 18V11Z" fill="#8A8A8A"/>
<path d="M18.6665 10.25C19.0807 10.25 19.4165 10.5858 19.4165 11V18C19.4165 18.4142 19.0807 18.75 18.6665 18.75C18.2523 18.75 17.9165 18.4142 17.9165 18V11C17.9165 10.5858 18.2523 10.25 18.6665 10.25Z" fill="#8A8A8A"/>
</svg>
