<svg width="25" height="24" viewBox="0 0 25 24" fill="none" xmlns="http://www.w3.org/2000/svg">
<path d="M13.1968 2.96967C12.9039 2.67678 12.4291 2.67678 12.1362 2.96967L3.13617 11.9697C2.84328 12.2626 2.84328 12.7374 3.13617 13.0303C3.42907 13.3232 3.90394 13.3232 4.19683 13.0303L12.6665 4.56066L21.1362 13.0303C21.4291 13.3232 21.9039 13.3232 22.1968 13.0303C22.4897 12.7374 22.4897 12.2626 22.1968 11.9697L13.1968 2.96967Z" fill="#8A8A8A"/>
<path d="M11.9165 12.761V12.771C11.9165 13.1852 12.2523 13.521 12.6665 13.521C13.0807 13.521 13.4165 13.1852 13.4165 12.771V12.761C13.4165 12.3468 13.0807 12.011 12.6665 12.011C12.2523 12.011 11.9165 12.3468 11.9165 12.761Z" fill="#8A8A8A"/>
<path d="M11.9165 15.0366V17.2393C11.9165 17.6535 12.2523 17.9893 12.6665 17.9893C13.0807 17.9893 13.4165 17.6535 13.4165 17.2393V15.0366C13.4165 14.6224 13.0807 14.2866 12.6665 14.2866C12.2523 14.2866 11.9165 14.6224 11.9165 15.0366Z" fill="#8A8A8A"/>
<path fill-rule="evenodd" clip-rule="evenodd" d="M7.1665 15C7.1665 11.9624 9.62894 9.5 12.6665 9.5C15.7041 9.5 18.1665 11.9624 18.1665 15C18.1665 18.0376 15.7041 20.5 12.6665 20.5C9.62894 20.5 7.1665 18.0376 7.1665 15ZM12.6665 11C10.4574 11 8.6665 12.7909 8.6665 15C8.6665 17.2091 10.4574 19 12.6665 19C14.8756 19 16.6665 17.2091 16.6665 15C16.6665 12.7909 14.8756 11 12.6665 11Z" fill="#8A8A8A"/>
<path d="M2.9165 16.5C2.9165 16.0858 3.25229 15.75 3.6665 15.75H4.8269C5.24112 15.75 5.5769 16.0858 5.5769 16.5C5.5769 16.9142 5.24112 17.25 4.8269 17.25H3.6665C3.25229 17.25 2.9165 16.9142 2.9165 16.5Z" fill="#8A8A8A"/>
<path d="M3.6665 19.75C3.25229 19.75 2.9165 20.0858 2.9165 20.5C2.9165 20.9142 3.25229 21.25 3.6665 21.25H7.10498C7.51919 21.25 7.85498 20.9142 7.85498 20.5C7.85498 20.0858 7.51919 19.75 7.10498 19.75H3.6665Z" fill="#8A8A8A"/>
<path d="M17.478 20.5C17.478 20.0858 17.8138 19.75 18.228 19.75H21.6665C22.0807 19.75 22.4165 20.0858 22.4165 20.5C22.4165 20.9142 22.0807 21.25 21.6665 21.25H18.228C17.8138 21.25 17.478 20.9142 17.478 20.5Z" fill="#8A8A8A"/>
<path d="M20.5061 15.75C20.0919 15.75 19.7561 16.0858 19.7561 16.5C19.7561 16.9142 20.0919 17.25 20.5061 17.25H21.6665C22.0807 17.25 22.4165 16.9142 22.4165 16.5C22.4165 16.0858 22.0807 15.75 21.6665 15.75H20.5061Z" fill="#8A8A8A"/>
</svg>
