<svg width="25" height="25" viewBox="0 0 25 25" fill="none" xmlns="http://www.w3.org/2000/svg">
<path d="M8.08033 9.378C8.08033 6.8451 10.1336 4.79179 12.6665 4.79179C15.1994 4.79179 17.2527 6.8451 17.2527 9.378H18.5631C18.5631 6.12142 15.9231 3.48145 12.6665 3.48145C9.40996 3.48145 6.76999 6.12142 6.76999 9.378H8.08033Z" fill="#8A8A8A"/>
<path d="M12.6665 7.41248C11.581 7.41248 10.701 8.29247 10.701 9.378H9.39068C9.39068 7.56879 10.8573 6.10213 12.6665 6.10213C14.4757 6.10213 15.9424 7.56879 15.9424 9.378H14.6321C14.6321 8.29247 13.7521 7.41248 12.6665 7.41248Z" fill="#8A8A8A"/>
<path fill-rule="evenodd" clip-rule="evenodd" d="M6.5516 14.6194C6.5516 13.6545 7.33381 12.8722 8.29872 12.8722H10.0459C11.0108 12.8722 11.793 13.6545 11.793 14.6194V18.1136C11.793 19.0785 11.0108 19.8608 10.0459 19.8608H8.29872C7.33381 19.8608 6.5516 19.0785 6.5516 18.1136V14.6194ZM8.29872 14.1826H10.0459C10.2871 14.1826 10.4826 14.3781 10.4826 14.6194V18.1136C10.4826 18.3549 10.2871 18.5504 10.0459 18.5504H8.29872C8.0575 18.5504 7.86194 18.3549 7.86194 18.1136V14.6194C7.86194 14.3781 8.0575 14.1826 8.29872 14.1826Z" fill="#8A8A8A"/>
<path fill-rule="evenodd" clip-rule="evenodd" d="M13.5401 14.6194C13.5401 13.6545 14.3223 12.8722 15.2872 12.8722H17.0344C17.9993 12.8722 18.7815 13.6545 18.7815 14.6194V18.1136C18.7815 19.0785 17.9993 19.8608 17.0344 19.8608H15.2872C14.3223 19.8608 13.5401 19.0785 13.5401 18.1136V14.6194ZM15.2872 14.1826H17.0344C17.2756 14.1826 17.4711 14.3781 17.4711 14.6194V18.1136C17.4711 18.3549 17.2756 18.5504 17.0344 18.5504H15.2872C15.046 18.5504 14.8504 18.3549 14.8504 18.1136V14.6194C14.8504 14.3781 15.046 14.1826 15.2872 14.1826Z" fill="#8A8A8A"/>
<path d="M13.9769 10.2516C13.9769 10.9752 13.3902 11.5619 12.6665 11.5619C11.9429 11.5619 11.3562 10.9752 11.3562 10.2516C11.3562 9.52788 11.9429 8.94122 12.6665 8.94122C13.3902 8.94122 13.9769 9.52788 13.9769 10.2516Z" fill="#8A8A8A"/>
<path d="M15.2872 10.2516C15.2872 10.7289 15.1596 11.1764 14.9366 11.5619H17.9079C19.1141 11.5619 20.0918 12.5397 20.0918 13.7458V18.9872C20.0918 20.1933 19.1141 21.1711 17.9079 21.1711H7.42516C6.21902 21.1711 5.24125 20.1933 5.24125 18.9872V13.7458C5.24125 12.5397 6.21902 11.5619 7.42516 11.5619H10.3965C10.1735 11.1764 10.0459 10.7289 10.0459 10.2516H7.42516C5.49534 10.2516 3.93091 11.816 3.93091 13.7458V18.9872C3.93091 20.917 5.49534 22.4814 7.42516 22.4814H17.9079C19.8377 22.4814 21.4022 20.917 21.4022 18.9872V13.7458C21.4022 11.816 19.8377 10.2516 17.9079 10.2516H15.2872Z" fill="#8A8A8A"/>
</svg>
