<svg width="25" height="24" viewBox="0 0 25 24" fill="none" xmlns="http://www.w3.org/2000/svg">
<rect x="7.46411" y="12.8821" width="3.51685" height="4.9856" fill="#B3D3EC"/>
<rect x="14.5247" y="12.8821" width="3.51685" height="4.9856" fill="#B3D3EC"/>
<path d="M8.08033 8.3968C8.08033 5.8639 10.1336 3.81059 12.6665 3.81059C15.1994 3.81059 17.2527 5.8639 17.2527 8.3968H18.5631C18.5631 5.14022 15.9231 2.50024 12.6665 2.50024C9.40996 2.50024 6.76999 5.14022 6.76999 8.3968H8.08033Z" fill="#016BBF"/>
<path d="M12.6665 6.43128C11.581 6.43128 10.701 7.31127 10.701 8.3968H9.39068C9.39068 6.58759 10.8573 5.12093 12.6665 5.12093C14.4757 5.12093 15.9424 6.58759 15.9424 8.3968H14.6321C14.6321 7.31127 13.7521 6.43128 12.6665 6.43128Z" fill="#016BBF"/>
<path fill-rule="evenodd" clip-rule="evenodd" d="M6.5516 13.6382C6.5516 12.6733 7.33381 11.891 8.29872 11.891H10.0459C11.0108 11.891 11.793 12.6733 11.793 13.6382V17.1324C11.793 18.0973 11.0108 18.8796 10.0459 18.8796H8.29872C7.33381 18.8796 6.5516 18.0973 6.5516 17.1324V13.6382ZM8.29872 13.2014H10.0459C10.2871 13.2014 10.4826 13.3969 10.4826 13.6382V17.1324C10.4826 17.3737 10.2871 17.5692 10.0459 17.5692H8.29872C8.0575 17.5692 7.86194 17.3737 7.86194 17.1324V13.6382C7.86194 13.3969 8.0575 13.2014 8.29872 13.2014Z" fill="#016BBF"/>
<path fill-rule="evenodd" clip-rule="evenodd" d="M13.5401 13.6382C13.5401 12.6733 14.3223 11.891 15.2872 11.891H17.0344C17.9993 11.891 18.7815 12.6733 18.7815 13.6382V17.1324C18.7815 18.0973 17.9993 18.8796 17.0344 18.8796H15.2872C14.3223 18.8796 13.5401 18.0973 13.5401 17.1324V13.6382ZM15.2872 13.2014H17.0344C17.2756 13.2014 17.4711 13.3969 17.4711 13.6382V17.1324C17.4711 17.3737 17.2756 17.5692 17.0344 17.5692H15.2872C15.046 17.5692 14.8504 17.3737 14.8504 17.1324V13.6382C14.8504 13.3969 15.046 13.2014 15.2872 13.2014Z" fill="#016BBF"/>
<path d="M13.9769 9.27036C13.9769 9.99404 13.3902 10.5807 12.6665 10.5807C11.9429 10.5807 11.3562 9.99404 11.3562 9.27036C11.3562 8.54668 11.9429 7.96001 12.6665 7.96001C13.3902 7.96001 13.9769 8.54668 13.9769 9.27036Z" fill="#016BBF"/>
<path d="M15.2872 9.27036C15.2872 9.7477 15.1596 10.1952 14.9366 10.5807H17.9079C19.1141 10.5807 20.0918 11.5585 20.0918 12.7646V18.006C20.0918 19.2121 19.1141 20.1899 17.9079 20.1899H7.42516C6.21902 20.1899 5.24125 19.2121 5.24125 18.006V12.7646C5.24125 11.5585 6.21902 10.5807 7.42516 10.5807H10.3965C10.1735 10.1952 10.0459 9.7477 10.0459 9.27036H7.42516C5.49534 9.27036 3.93091 10.8348 3.93091 12.7646V18.006C3.93091 19.9358 5.49534 21.5002 7.42516 21.5002H17.9079C19.8377 21.5002 21.4022 19.9358 21.4022 18.006V12.7646C21.4022 10.8348 19.8377 9.27036 17.9079 9.27036H15.2872Z" fill="#016BBF"/>
</svg>
