<svg width="25" height="24" viewBox="0 0 25 24" fill="none" xmlns="http://www.w3.org/2000/svg">
<path fill-rule="evenodd" clip-rule="evenodd" d="M15.9165 2.5C15.9165 2.08579 15.5807 1.75 15.1665 1.75C14.7523 1.75 14.4165 2.08579 14.4165 2.5V3.75H7.9165V2.5C7.9165 2.08579 7.58072 1.75 7.1665 1.75C6.75229 1.75 6.4165 2.08579 6.4165 2.5V3.75H5.1665C4.43716 3.75 3.73769 4.03973 3.22196 4.55546C2.70624 5.07118 2.4165 5.77065 2.4165 6.5V18.5C2.4165 19.2293 2.70624 19.9288 3.22196 20.4445C3.73768 20.9603 4.43716 21.25 5.1665 21.25H11.9615C12.3757 21.25 12.7115 20.9142 12.7115 20.5C12.7115 20.0858 12.3757 19.75 11.9615 19.75H5.1665C4.83498 19.75 4.51704 19.6183 4.28262 19.3839C4.0482 19.1495 3.9165 18.8315 3.9165 18.5V11.25H19.1665C19.5807 11.25 19.9165 10.9142 19.9165 10.5V6.5C19.9165 5.77065 19.6268 5.07118 19.111 4.55546C18.5953 4.03973 17.8958 3.75 17.1665 3.75H15.9165V2.5ZM18.4165 9.75V6.5C18.4165 6.16848 18.2848 5.85054 18.0504 5.61612C17.816 5.3817 17.498 5.25 17.1665 5.25H15.9165V6.5C15.9165 6.91421 15.5807 7.25 15.1665 7.25C14.7523 7.25 14.4165 6.91421 14.4165 6.5V5.25H7.9165V6.5C7.9165 6.91421 7.58072 7.25 7.1665 7.25C6.75229 7.25 6.4165 6.91421 6.4165 6.5V5.25H5.1665C4.83498 5.25 4.51704 5.3817 4.28262 5.61612C4.0482 5.85054 3.9165 6.16848 3.9165 6.5V9.75H18.4165Z" fill="#8A8A8A"/>
<path fill-rule="evenodd" clip-rule="evenodd" d="M21.5253 14.1412C20.6345 13.2504 19.4263 12.75 18.1665 12.75C16.9067 12.75 15.6985 13.2504 14.8077 14.1412C13.9169 15.032 13.4165 16.2402 13.4165 17.5C13.4165 18.7598 13.9169 19.968 14.8077 20.8588C15.6985 21.7496 16.9067 22.25 18.1665 22.25C19.4263 22.25 20.6345 21.7496 21.5253 20.8588C22.4161 19.968 22.9165 18.7598 22.9165 17.5C22.9165 16.2402 22.4161 15.032 21.5253 14.1412ZM20.4646 19.7981C20.894 19.3687 21.1909 18.8314 21.3288 18.25H18.1665C17.7523 18.25 17.4165 17.9142 17.4165 17.5V14.3377C16.8351 14.4756 16.2978 14.7725 15.8684 15.2019C15.2589 15.8114 14.9165 16.638 14.9165 17.5C14.9165 18.362 15.2589 19.1886 15.8684 19.7981C16.4779 20.4076 17.3046 20.75 18.1665 20.75C19.0285 20.75 19.8551 20.4076 20.4646 19.7981ZM18.9165 16.75H21.3288C21.1909 16.1686 20.894 15.6313 20.4646 15.2019C20.0352 14.7725 19.4979 14.4756 18.9165 14.3377V16.75Z" fill="#8A8A8A"/>
</svg>
