<svg width="25" height="24" viewBox="0 0 25 24" fill="none" xmlns="http://www.w3.org/2000/svg">
<path d="M4.78262 4.36612C5.01704 4.1317 5.33498 4 5.6665 4H19.6665C19.998 4 20.316 4.1317 20.5504 4.36612C20.7848 4.60054 20.9165 4.91848 20.9165 5.25V17.25C20.9165 17.5815 20.7848 17.8995 20.5504 18.1339C20.316 18.3683 19.998 18.5 19.6665 18.5C19.2523 18.5 18.9165 18.8358 18.9165 19.25C18.9165 19.6642 19.2523 20 19.6665 20C20.3958 20 21.0953 19.7103 21.611 19.1945C22.1268 18.6788 22.4165 17.9793 22.4165 17.25V5.25C22.4165 4.52065 22.1268 3.82118 21.611 3.30546C21.0953 2.78973 20.3958 2.5 19.6665 2.5H5.6665C4.93716 2.5 4.23769 2.78973 3.72196 3.30546C3.20624 3.82118 2.9165 4.52065 2.9165 5.25V17.25C2.9165 17.9793 3.20624 18.6788 3.72196 19.1945C4.23768 19.7103 4.93716 20 5.6665 20C6.08072 20 6.4165 19.6642 6.4165 19.25C6.4165 18.8358 6.08072 18.5 5.6665 18.5C5.33498 18.5 5.01704 18.3683 4.78262 18.1339C4.5482 17.8995 4.4165 17.5815 4.4165 17.25V5.25C4.4165 4.91848 4.5482 4.60054 4.78262 4.36612Z" fill="#8A8A8A"/>
<path d="M6.6665 5.5C6.25229 5.5 5.9165 5.83579 5.9165 6.25C5.9165 6.66421 6.25229 7 6.6665 7H18.6665C19.0807 7 19.4165 6.66421 19.4165 6.25C19.4165 5.83579 19.0807 5.5 18.6665 5.5H6.6665Z" fill="#8A8A8A"/>
<path d="M7.75879 9.25C7.75879 8.83579 8.09458 8.5 8.50879 8.5H16.8242C17.2384 8.5 17.5742 8.83579 17.5742 9.25C17.5742 9.66421 17.2384 10 16.8242 10H8.50879C8.09458 10 7.75879 9.66421 7.75879 9.25Z" fill="#8A8A8A"/>
<path d="M14.9244 15.8917C15.2173 15.5988 15.2173 15.1239 14.9244 14.831C14.6315 14.5381 14.1566 14.5381 13.8637 14.831L12.8281 15.8666L11.7925 14.831C11.4996 14.5381 11.0248 14.5381 10.7319 14.831C10.439 15.1239 10.439 15.5988 10.7319 15.8917L11.7675 16.9272L10.7319 17.9628C10.439 18.2557 10.439 18.7306 10.7319 19.0235C11.0248 19.3164 11.4996 19.3164 11.7925 19.0235L12.8281 17.9879L13.8637 19.0235C14.1566 19.3164 14.6315 19.3164 14.9244 19.0235C15.2173 18.7306 15.2173 18.2557 14.9244 17.9628L13.8888 16.9272L14.9244 15.8917Z" fill="#8A8A8A"/>
<path fill-rule="evenodd" clip-rule="evenodd" d="M12.6665 22.4272C15.7041 22.4272 18.1665 19.9648 18.1665 16.9272C18.1665 13.8897 15.7041 11.4272 12.6665 11.4272C9.62894 11.4272 7.1665 13.8897 7.1665 16.9272C7.1665 19.9648 9.62894 22.4272 12.6665 22.4272ZM16.6665 16.9272C16.6665 19.1364 14.8756 20.9272 12.6665 20.9272C10.4574 20.9272 8.6665 19.1364 8.6665 16.9272C8.6665 14.7181 10.4574 12.9272 12.6665 12.9272C14.8756 12.9272 16.6665 14.7181 16.6665 16.9272Z" fill="#8A8A8A"/>
</svg>
