<svg width="25" height="24" viewBox="0 0 25 24" fill="none" xmlns="http://www.w3.org/2000/svg">
<rect x="6.16333" y="5.37207" width="4.11621" height="4.521" fill="#B3D3EC"/>
<path d="M20.1616 2.25C19.7474 2.25 19.4116 2.58579 19.4116 3C19.4116 3.41421 19.7474 3.75 20.1616 3.75H20.1716C20.5858 3.75 20.9216 3.41421 20.9216 3C20.9216 2.58579 20.5858 2.25 20.1716 2.25H20.1616Z" fill="#016BBF"/>
<path fill-rule="evenodd" clip-rule="evenodd" d="M8.98424 13.425C8.61859 12.7916 7.70445 12.7916 7.3388 13.425L5.95316 15.825C5.5875 16.4583 6.04457 17.25 6.77588 17.25H9.54716C10.2785 17.25 10.7355 16.4583 10.3699 15.825L8.98424 13.425ZM7.72851 15.75L8.16152 15L8.59453 15.75H7.72851Z" fill="#016BBF"/>
<path fill-rule="evenodd" clip-rule="evenodd" d="M10.9116 6V6.25H11.1616C11.5758 6.25 11.9116 6.58579 11.9116 7C11.9116 7.41421 11.5758 7.75 11.1616 7.75H10.9116V9.35424C11.3592 9.48113 11.7714 9.72067 12.1062 10.0555C12.6219 10.5712 12.9116 11.2707 12.9116 12V19C12.9116 19.7293 12.6219 20.4288 12.1062 20.9445C11.5904 21.4603 10.891 21.75 10.1616 21.75H6.16162C5.43228 21.75 4.7328 21.4603 4.21708 20.9445C3.70135 20.4288 3.41162 19.7293 3.41162 19V12C3.41162 11.2707 3.70135 10.5712 4.21708 10.0555C4.55186 9.72067 4.96407 9.48113 5.41162 9.35424V6C5.41162 5.53587 5.596 5.09075 5.92418 4.76256C6.25237 4.43438 6.69749 4.25 7.16162 4.25H9.16162C9.62575 4.25 10.0709 4.43438 10.3991 4.76256C10.7272 5.09075 10.9116 5.53587 10.9116 6ZM6.98484 5.82322C7.03173 5.77634 7.09532 5.75 7.16162 5.75H9.16162C9.22792 5.75 9.29151 5.77634 9.3384 5.82322C9.38528 5.87011 9.41162 5.9337 9.41162 6V9.25H6.91162V6C6.91162 5.9337 6.93796 5.87011 6.98484 5.82322ZM10.1616 10.75C10.4931 10.75 10.8111 10.8817 11.0455 11.1161C11.2799 11.3505 11.4116 11.6685 11.4116 12V19C11.4116 19.3315 11.2799 19.6495 11.0455 19.8839C10.8111 20.1183 10.4931 20.25 10.1616 20.25H6.16162C5.8301 20.25 5.51216 20.1183 5.27774 19.8839C5.04332 19.6495 4.91162 19.3315 4.91162 19V12C4.91162 11.6685 5.04332 11.3505 5.27774 11.1161C5.51216 10.8817 5.8301 10.75 6.16162 10.75H10.1616Z" fill="#016BBF"/>
<path d="M13.4116 7C13.4116 6.58579 13.7474 6.25 14.1616 6.25H14.1716C14.5858 6.25 14.9216 6.58579 14.9216 7C14.9216 7.41421 14.5858 7.75 14.1716 7.75H14.1616C13.7474 7.75 13.4116 7.41421 13.4116 7Z" fill="#016BBF"/>
<path d="M17.1616 8.25C16.7474 8.25 16.4116 8.58579 16.4116 9C16.4116 9.41421 16.7474 9.75 17.1616 9.75H17.1716C17.5858 9.75 17.9216 9.41421 17.9216 9C17.9216 8.58579 17.5858 8.25 17.1716 8.25H17.1616Z" fill="#016BBF"/>
<path d="M16.4116 5C16.4116 4.58579 16.7474 4.25 17.1616 4.25H17.1716C17.5858 4.25 17.9216 4.58579 17.9216 5C17.9216 5.41421 17.5858 5.75 17.1716 5.75H17.1616C16.7474 5.75 16.4116 5.41421 16.4116 5Z" fill="#016BBF"/>
<path d="M19.4116 7C19.4116 6.58579 19.7474 6.25 20.1616 6.25H20.1716C20.5858 6.25 20.9216 6.58579 20.9216 7C20.9216 7.41421 20.5858 7.75 20.1716 7.75H20.1616C19.7474 7.75 19.4116 7.41421 19.4116 7Z" fill="#016BBF"/>
<path d="M20.1616 10.25C19.7474 10.25 19.4116 10.5858 19.4116 11C19.4116 11.4142 19.7474 11.75 20.1616 11.75H20.1716C20.5858 11.75 20.9216 11.4142 20.9216 11C20.9216 10.5858 20.5858 10.25 20.1716 10.25H20.1616Z" fill="#016BBF"/>
</svg>
