<svg width="25" height="24" viewBox="0 0 25 24" fill="none" xmlns="http://www.w3.org/2000/svg">
<path d="M9.06323 16.6703V18.8211L12.044 20.4498H13.7341L15.2091 20.0503C15.5471 19.5176 16.2232 18.4032 16.2232 18.2065C16.2232 18.0099 16.428 16.5267 16.5304 15.8096L15.67 14.2117L12.6893 12.6753L11.1528 13.5049L9.24759 14.5806L9.06323 16.6703Z" fill="#B3D3EC"/>
<path d="M5.6665 4C5.33498 4 5.01704 4.1317 4.78262 4.36612C4.5482 4.60054 4.4165 4.91848 4.4165 5.25V17.25C4.4165 17.5815 4.5482 17.8995 4.78262 18.1339C5.01704 18.3683 5.33498 18.5 5.6665 18.5C6.08072 18.5 6.4165 18.8358 6.4165 19.25C6.4165 19.6642 6.08072 20 5.6665 20C4.93716 20 4.23768 19.7103 3.72196 19.1945C3.20624 18.6788 2.9165 17.9793 2.9165 17.25V5.25C2.9165 4.52065 3.20624 3.82118 3.72196 3.30546C4.23769 2.78973 4.93716 2.5 5.6665 2.5H19.6665C20.3958 2.5 21.0953 2.78973 21.611 3.30546C22.1268 3.82118 22.4165 4.52065 22.4165 5.25V17.25C22.4165 17.9793 22.1268 18.6788 21.611 19.1945C21.0953 19.7103 20.3958 20 19.6665 20C19.2523 20 18.9165 19.6642 18.9165 19.25C18.9165 18.8358 19.2523 18.5 19.6665 18.5C19.998 18.5 20.316 18.3683 20.5504 18.1339C20.7848 17.8995 20.9165 17.5815 20.9165 17.25V5.25C20.9165 4.91848 20.7848 4.60054 20.5504 4.36612C20.316 4.1317 19.998 4 19.6665 4H5.6665Z" fill="#016BBF"/>
<path d="M5.9165 6.25C5.9165 5.83579 6.25229 5.5 6.6665 5.5H18.6665C19.0807 5.5 19.4165 5.83579 19.4165 6.25C19.4165 6.66421 19.0807 7 18.6665 7H6.6665C6.25229 7 5.9165 6.66421 5.9165 6.25Z" fill="#016BBF"/>
<path d="M8.50879 8.5C8.09458 8.5 7.75879 8.83579 7.75879 9.25C7.75879 9.66421 8.09458 10 8.50879 10H16.8242C17.2384 10 17.5742 9.66421 17.5742 9.25C17.5742 8.83579 17.2384 8.5 16.8242 8.5H8.50879Z" fill="#016BBF"/>
<path d="M14.4123 15.4114C14.7052 15.7043 14.7052 16.1792 14.4123 16.472L12.7958 18.0885C12.6552 18.2291 12.4644 18.3082 12.2655 18.3082C12.0666 18.3082 11.8758 18.2291 11.7352 18.0885L10.9269 17.2803C10.634 16.9874 10.634 16.5125 10.9269 16.2196C11.2198 15.9267 11.6947 15.9267 11.9876 16.2196L12.2655 16.4975L13.3516 15.4114C13.6445 15.1185 14.1194 15.1185 14.4123 15.4114Z" fill="#016BBF"/>
<path fill-rule="evenodd" clip-rule="evenodd" d="M15.2027 13.0677L14.8297 13.0033L14.5874 12.7124C13.5879 11.5125 11.7451 11.5125 10.7456 12.7124L10.5033 13.0033L10.1302 13.0677C8.59134 13.3334 7.66997 14.9292 8.20936 16.3948L8.34013 16.7501L8.20936 17.1053C7.66997 18.5709 8.59134 20.1668 10.1302 20.4324L10.5033 20.4968L10.7456 20.7877C11.7451 21.9876 13.5879 21.9876 14.5874 20.7877L14.8297 20.4968L15.2027 20.4324C16.7417 20.1668 17.663 18.5709 17.1236 17.1053L16.9929 16.7501L17.1236 16.3948C17.663 14.9292 16.7417 13.3334 15.2027 13.0677ZM11.8981 13.6725C12.2979 13.1925 13.035 13.1925 13.4348 13.6725L13.7949 14.1048C13.947 14.2873 14.1591 14.4097 14.3932 14.4502L14.9476 14.5459C15.5632 14.6521 15.9317 15.2905 15.7159 15.8767L15.5216 16.4047C15.4396 16.6276 15.4396 16.8725 15.5216 17.0955L15.7159 17.6234C15.9317 18.2097 15.5632 18.848 14.9476 18.9543L14.3932 19.05C14.1591 19.0904 13.947 19.2128 13.7949 19.3954L13.4348 19.8277C13.035 20.3076 12.2979 20.3076 11.8981 19.8277L11.5381 19.3954C11.386 19.2128 11.1739 19.0904 10.9398 19.05L10.3854 18.9543C9.76984 18.848 9.40129 18.2097 9.61705 17.6234L9.81137 17.0955C9.89343 16.8725 9.89343 16.6276 9.81137 16.4047L9.61705 15.8767C9.40129 15.2905 9.76984 14.6521 10.3854 14.5459L10.9398 14.4502C11.1739 14.4097 11.386 14.2873 11.5381 14.1048L11.8981 13.6725Z" fill="#016BBF"/>
</svg>
