<svg width="25" height="25" viewBox="0 0 25 25" fill="none" xmlns="http://www.w3.org/2000/svg">
<path d="M19.2495 11.4524H3.56567V17.2932L5.00795 17.5456L7.24333 15.3823L9.76713 17.2932L15.5719 17.5456L18.0236 15.3823L19.4658 17.5456L21.8814 17.2932L21.4488 12.4619L19.2495 11.4524Z" fill="#B3D3EC"/>
<path fill-rule="evenodd" clip-rule="evenodd" d="M5.6665 5.73169C5.35983 5.73169 5.08404 5.9184 4.97015 6.20315L2.97015 11.2031C2.93471 11.2917 2.9165 11.3863 2.9165 11.4817V17.4817C2.9165 17.8959 3.25229 18.2317 3.6665 18.2317H5.02075C5.14763 18.6792 5.38718 19.0915 5.72196 19.4262C6.23768 19.942 6.93716 20.2317 7.6665 20.2317C8.39585 20.2317 9.09532 19.942 9.61105 19.4262C9.94583 19.0915 10.1854 18.6792 10.3123 18.2317H15.0207C15.1476 18.6792 15.3872 19.0915 15.722 19.4262C16.2377 19.942 16.9372 20.2317 17.6665 20.2317C18.3958 20.2317 19.0953 19.942 19.611 19.4262C19.9458 19.0915 20.1854 18.6792 20.3123 18.2317H21.6665C22.0807 18.2317 22.4165 17.8959 22.4165 17.4817V13.4817C22.4165 12.7523 22.1268 12.0529 21.611 11.5371C21.0953 11.0214 20.3958 10.7317 19.6665 10.7317H19.027L15.2522 6.01317C15.1098 5.83526 14.8943 5.73169 14.6665 5.73169H5.6665ZM20.3123 16.7317H20.9165V13.4817C20.9165 13.1502 20.7848 12.8322 20.5504 12.5978C20.316 12.3634 19.998 12.2317 19.6665 12.2317H4.4165V16.7317H5.02075C5.14763 16.2841 5.38718 15.8719 5.72196 15.5371C6.23768 15.0214 6.93716 14.7317 7.6665 14.7317C8.39585 14.7317 9.09532 15.0214 9.61105 15.5371C9.94583 15.8719 10.1854 16.2841 10.3123 16.7317H15.0207C15.1476 16.2841 15.3872 15.8719 15.722 15.5371C16.2377 15.0214 16.9372 14.7317 17.6665 14.7317C18.3958 14.7317 19.0953 15.0214 19.611 15.5371C19.9458 15.8719 20.1854 16.2841 20.3123 16.7317ZM16.4165 17.4817C16.4165 17.8132 16.5482 18.1312 16.7826 18.3656C17.017 18.6 17.335 18.7317 17.6665 18.7317C17.998 18.7317 18.316 18.6 18.5504 18.3656C18.7848 18.1312 18.9165 17.8132 18.9165 17.4817C18.9165 17.1502 18.7848 16.8322 18.5504 16.5978C18.316 16.3634 17.998 16.2317 17.6665 16.2317C17.335 16.2317 17.017 16.3634 16.7826 16.5978C16.5482 16.8322 16.4165 17.1502 16.4165 17.4817ZM8.9165 17.4817C8.9165 17.1502 8.78481 16.8322 8.55039 16.5978C8.31597 16.3634 7.99802 16.2317 7.6665 16.2317C7.33498 16.2317 7.01704 16.3634 6.78262 16.5978C6.5482 16.8322 6.4165 17.1502 6.4165 17.4817C6.4165 17.8132 6.5482 18.1312 6.78262 18.3656C7.01704 18.6 7.33498 18.7317 7.6665 18.7317C7.99802 18.7317 8.31597 18.6 8.55039 18.3656C8.78481 18.1312 8.9165 17.8132 8.9165 17.4817ZM11.9165 10.7317H4.77428L6.17428 7.23169H11.9165V10.7317ZM13.4165 10.7317V7.23169H14.306L17.106 10.7317H13.4165Z" fill="#016BBF"/>
</svg>
