<svg width="25" height="24" viewBox="0 0 25 24" fill="none" xmlns="http://www.w3.org/2000/svg">
<path fill-rule="evenodd" clip-rule="evenodd" d="M19.9385 5.03033C19.6456 5.32322 19.1708 5.32322 18.8779 5.03033L18.4083 4.56078L16.6564 6.31273L18.001 7.6574C18.2939 7.9503 18.2939 8.42517 18.001 8.71806C17.7081 9.01096 17.2333 9.01096 16.9404 8.71806L16.8457 8.62339L13.3135 12.1556C13.1729 12.2962 12.9821 12.3752 12.7832 12.3752H10.5946L8.93853 14.0313C8.64564 14.3242 8.17077 14.3242 7.87787 14.0313C7.58498 13.7384 7.58498 13.2635 7.87787 12.9706L9.5332 11.3153V9.12523C9.5332 8.92632 9.61222 8.73555 9.75287 8.5949L13.285 5.06273L13.1904 4.96806C12.8975 4.67517 12.8975 4.2003 13.1904 3.9074C13.4833 3.61451 13.9581 3.61451 14.251 3.9074L15.5957 5.25207L17.3477 3.50012L16.8779 3.03033C16.585 2.73744 16.585 2.26256 16.8779 1.96967C17.1708 1.67678 17.6456 1.67678 17.9385 1.96967L19.9385 3.96967C20.2314 4.26256 20.2314 4.73744 19.9385 5.03033ZM15.785 7.56273L12.4725 10.8752H11.0332V9.43589L14.3457 6.12339L15.785 7.56273Z" fill="#8A8A8A"/>
<path d="M4.48973 12.3232C4.53661 12.2763 4.6002 12.25 4.6665 12.25H7.074C7.48821 12.25 7.824 11.9142 7.824 11.5C7.824 11.0858 7.48821 10.75 7.074 10.75H4.6665C4.20237 10.75 3.75726 10.9344 3.42907 11.2626C3.10088 11.5908 2.9165 12.0359 2.9165 12.5V13C2.9165 13.526 3.10814 14.1653 3.35964 14.783C3.62039 15.4235 3.98127 16.1256 4.39199 16.8052C5.09895 17.975 6.0207 19.1892 6.9165 19.8878V20.5C6.9165 20.9641 7.10088 21.4092 7.42907 21.7374C7.75726 22.0656 8.20238 22.25 8.6665 22.25H16.6665C17.1306 22.25 17.5758 22.0656 17.9039 21.7374C18.2321 21.4092 18.4165 20.9641 18.4165 20.5V19.8826C18.7797 19.5897 19.1475 19.201 19.4943 18.7832C19.9649 18.2161 20.4387 17.5438 20.8611 16.8584C21.2832 16.1736 21.6629 15.4614 21.9399 14.8124C22.2055 14.19 22.4165 13.5358 22.4165 13V12.5C22.4165 12.0359 22.2321 11.5908 21.9039 11.2626C21.5758 10.9344 21.1306 10.75 20.6665 10.75H16.4815C16.0673 10.75 15.7315 11.0858 15.7315 11.5C15.7315 11.9142 16.0673 12.25 16.4815 12.25H20.6665C20.7328 12.25 20.7964 12.2763 20.8433 12.3232C20.8902 12.3701 20.9165 12.4337 20.9165 12.5V13C20.9165 13.2142 20.8129 13.6317 20.5602 14.2237C20.3189 14.7892 19.9767 15.4345 19.5842 16.0713C19.192 16.7076 18.7584 17.3211 18.34 17.8253C17.9107 18.3426 17.5366 18.6967 17.269 18.864C17.0497 19.0011 16.9165 19.2414 16.9165 19.5V20.5C16.9165 20.5663 16.8902 20.6299 16.8433 20.6768C16.7964 20.7237 16.7328 20.75 16.6665 20.75H8.6665C8.6002 20.75 8.53661 20.7237 8.48973 20.6768C8.44284 20.6299 8.4165 20.5663 8.4165 20.5V19.5C8.4165 19.2414 8.28325 19.001 8.0639 18.8639C7.37839 18.4356 6.4538 17.3167 5.67576 16.0293C5.29736 15.4032 4.97456 14.7716 4.7489 14.2174C4.51399 13.6404 4.4165 13.224 4.4165 13V12.5C4.4165 12.4337 4.44284 12.3701 4.48973 12.3232Z" fill="#8A8A8A"/>
</svg>
