<svg width="25" height="25" viewBox="0 0 25 25" fill="none" xmlns="http://www.w3.org/2000/svg">
<path d="M13.7668 8.59814V21.9478H19.7581C19.8128 20.1733 19.8894 16.1926 19.7581 14.4661C19.6267 12.7395 18.0299 10.9942 17.248 10.3373L13.7668 8.59814Z" fill="#B3D3EC"/>
<path d="M9.6665 9.23169C10.0807 9.23169 10.4165 9.56748 10.4165 9.98169V9.99169C10.4165 10.4059 10.0807 10.7417 9.6665 10.7417C9.25229 10.7417 8.9165 10.4059 8.9165 9.99169V9.98169C8.9165 9.56748 9.25229 9.23169 9.6665 9.23169Z" fill="#016BBF"/>
<path d="M10.4165 12.9817C10.4165 12.5675 10.0807 12.2317 9.6665 12.2317C9.25229 12.2317 8.9165 12.5675 8.9165 12.9817V12.9917C8.9165 13.4059 9.25229 13.7417 9.6665 13.7417C10.0807 13.7417 10.4165 13.4059 10.4165 12.9917V12.9817Z" fill="#016BBF"/>
<path d="M9.6665 15.2317C10.0807 15.2317 10.4165 15.5675 10.4165 15.9817V15.9917C10.4165 16.4059 10.0807 16.7417 9.6665 16.7417C9.25229 16.7417 8.9165 16.4059 8.9165 15.9917V15.9817C8.9165 15.5675 9.25229 15.2317 9.6665 15.2317Z" fill="#016BBF"/>
<path d="M10.4165 18.9817C10.4165 18.5675 10.0807 18.2317 9.6665 18.2317C9.25229 18.2317 8.9165 18.5675 8.9165 18.9817V18.9917C8.9165 19.4059 9.25229 19.7417 9.6665 19.7417C10.0807 19.7417 10.4165 19.4059 10.4165 18.9917V18.9817Z" fill="#016BBF"/>
<path fill-rule="evenodd" clip-rule="evenodd" d="M14.0608 3.3437C14.2819 3.48036 14.4165 3.72176 14.4165 3.98169V7.58033L18.3014 10.1703C19.6229 11.0512 20.4166 12.5343 20.4166 14.1225V21.2317H21.6665C22.0807 21.2317 22.4165 21.5675 22.4165 21.9817C22.4165 22.3959 22.0807 22.7317 21.6665 22.7317H19.6777L19.6666 22.7318L19.6555 22.7317H3.6665C3.25229 22.7317 2.9165 22.3959 2.9165 21.9817C2.9165 21.5675 3.25229 21.2317 3.6665 21.2317H4.9165V10.4538C4.9165 8.65466 5.93302 7.00991 7.54224 6.2053L13.3311 3.31087C13.5636 3.19462 13.8397 3.20705 14.0608 3.3437ZM18.9166 21.2317V14.1225C18.9166 13.0359 18.3735 12.0211 17.4694 11.4183L14.4165 9.3831V21.2317H18.9166ZM12.9165 5.19522V21.2317H6.4165V10.4538C6.4165 9.22282 7.11201 8.09746 8.21306 7.54694L12.9165 5.19522Z" fill="#016BBF"/>
</svg>
