<svg width="25" height="25" viewBox="0 0 25 25" fill="none" xmlns="http://www.w3.org/2000/svg">
<path d="M9.6665 9.23145C10.0807 9.23145 10.4165 9.56723 10.4165 9.98145V9.99145C10.4165 10.4057 10.0807 10.7414 9.6665 10.7414C9.25229 10.7414 8.9165 10.4057 8.9165 9.99145V9.98145C8.9165 9.56723 9.25229 9.23145 9.6665 9.23145Z" fill="#8A8A8A"/>
<path d="M10.4165 12.9814C10.4165 12.5672 10.0807 12.2314 9.6665 12.2314C9.25229 12.2314 8.9165 12.5672 8.9165 12.9814V12.9914C8.9165 13.4057 9.25229 13.7414 9.6665 13.7414C10.0807 13.7414 10.4165 13.4057 10.4165 12.9914V12.9814Z" fill="#8A8A8A"/>
<path d="M9.6665 15.2314C10.0807 15.2314 10.4165 15.5672 10.4165 15.9814V15.9914C10.4165 16.4057 10.0807 16.7414 9.6665 16.7414C9.25229 16.7414 8.9165 16.4057 8.9165 15.9914V15.9814C8.9165 15.5672 9.25229 15.2314 9.6665 15.2314Z" fill="#8A8A8A"/>
<path d="M10.4165 18.9814C10.4165 18.5672 10.0807 18.2314 9.6665 18.2314C9.25229 18.2314 8.9165 18.5672 8.9165 18.9814V18.9914C8.9165 19.4057 9.25229 19.7414 9.6665 19.7414C10.0807 19.7414 10.4165 19.4057 10.4165 18.9914V18.9814Z" fill="#8A8A8A"/>
<path fill-rule="evenodd" clip-rule="evenodd" d="M14.0608 3.34346C14.2819 3.48011 14.4165 3.72151 14.4165 3.98145V7.58008L18.3014 10.17C19.6229 11.051 20.4166 12.5341 20.4166 14.1223V21.2314H21.6665C22.0807 21.2314 22.4165 21.5672 22.4165 21.9814C22.4165 22.3957 22.0807 22.7314 21.6665 22.7314H19.6777L19.6666 22.7315L19.6555 22.7314H3.6665C3.25229 22.7314 2.9165 22.3957 2.9165 21.9814C2.9165 21.5672 3.25229 21.2314 3.6665 21.2314H4.9165V10.4536C4.9165 8.65441 5.93302 7.00966 7.54224 6.20505L13.3311 3.31063C13.5636 3.19438 13.8397 3.2068 14.0608 3.34346ZM18.9166 21.2314V14.1223C18.9166 13.0356 18.3735 12.0209 17.4694 11.4181L14.4165 9.38286V21.2314H18.9166ZM12.9165 5.19497V21.2314H6.4165V10.4536C6.4165 9.22257 7.11201 8.09722 8.21306 7.54669L12.9165 5.19497Z" fill="#8A8A8A"/>
</svg>
