<svg width="25" height="25" viewBox="0 0 25 25" fill="none" xmlns="http://www.w3.org/2000/svg">
<path fill-rule="evenodd" clip-rule="evenodd" d="M14.722 4.03715C15.2377 3.52142 15.9372 3.23169 16.6665 3.23169C17.3958 3.23169 18.0953 3.52142 18.611 4.03715C19.1268 4.55287 19.4165 5.25234 19.4165 5.98169C19.4165 6.71104 19.1268 7.41051 18.611 7.92623C18.0953 8.44196 17.3958 8.73169 16.6665 8.73169C16.4769 8.73169 16.2893 8.71211 16.1064 8.67407L14.5626 10.9899C14.5789 11.0054 14.5951 11.0212 14.611 11.0371C14.9458 11.3719 15.1854 11.7841 15.3123 12.2317H18.0207C18.1476 11.7841 18.3872 11.3719 18.722 11.0371C19.2377 10.5214 19.9372 10.2317 20.6665 10.2317C21.3958 10.2317 22.0953 10.5214 22.611 11.0371C23.1268 11.5529 23.4165 12.2523 23.4165 12.9817C23.4165 13.711 23.1268 14.4105 22.611 14.9262C22.0953 15.442 21.3958 15.7317 20.6665 15.7317C19.9372 15.7317 19.2377 15.442 18.722 14.9262C18.3872 14.5915 18.1476 14.1792 18.0207 13.7317H15.3123C15.1854 14.1792 14.9458 14.5915 14.611 14.9262C14.595 14.9422 14.5789 14.958 14.5625 14.9736L16.1063 17.2893C16.2892 17.2513 16.4769 17.2317 16.6665 17.2317C17.3958 17.2317 18.0953 17.5214 18.611 18.0371C19.1268 18.5529 19.4165 19.2523 19.4165 19.9817C19.4165 20.711 19.1268 21.4105 18.611 21.9262C18.0953 22.442 17.3958 22.7317 16.6665 22.7317C15.9372 22.7317 15.2377 22.442 14.722 21.9262C14.2062 21.4105 13.9165 20.711 13.9165 19.9817C13.9165 19.2523 14.2062 18.5529 14.722 18.0371C14.738 18.0211 14.7542 18.0053 14.7705 17.9898L13.2267 15.674C13.0438 15.7121 12.8562 15.7317 12.6665 15.7317C12.4769 15.7317 12.2893 15.7121 12.1064 15.6741L10.5626 17.9899C10.5789 18.0054 10.5951 18.0212 10.611 18.0371C11.1268 18.5529 11.4165 19.2523 11.4165 19.9817C11.4165 20.711 11.1268 21.4105 10.611 21.9262C10.0953 22.442 9.39585 22.7317 8.6665 22.7317C7.93716 22.7317 7.23769 22.442 6.72196 21.9262C6.20623 21.4105 5.9165 20.711 5.9165 19.9817C5.9165 19.2523 6.20623 18.5529 6.72196 18.0371C7.23769 17.5214 7.93716 17.2317 8.6665 17.2317C8.85619 17.2317 9.04386 17.2513 9.2268 17.2894L10.7706 14.9737C10.7542 14.9581 10.738 14.9423 10.722 14.9262C10.3872 14.5915 10.1476 14.1792 10.0207 13.7317H7.31226C7.18538 14.1792 6.94583 14.5915 6.61105 14.9262C6.09532 15.442 5.39585 15.7317 4.6665 15.7317C3.93716 15.7317 3.23768 15.442 2.72196 14.9262C2.20624 14.4105 1.9165 13.711 1.9165 12.9817C1.9165 12.2523 2.20624 11.5529 2.72196 11.0371C3.23768 10.5214 3.93716 10.2317 4.6665 10.2317C5.39585 10.2317 6.09532 10.5214 6.61105 11.0371C6.94583 11.3719 7.18538 11.7841 7.31226 12.2317H10.0207C10.1476 11.7841 10.3872 11.3719 10.722 11.0371C10.738 11.0211 10.7542 11.0053 10.7705 10.9898L9.22671 8.67404C9.0438 8.7121 8.85616 8.73169 8.6665 8.73169C7.93716 8.73169 7.23769 8.44196 6.72196 7.92623C6.20623 7.41051 5.9165 6.71103 5.9165 5.98169C5.9165 5.25234 6.20623 4.55287 6.72196 4.03715C7.23769 3.52142 7.93716 3.23169 8.6665 3.23169C9.39585 3.23169 10.0953 3.52142 10.611 4.03715C11.1268 4.55287 11.4165 5.25234 11.4165 5.98169C11.4165 6.71104 11.1268 7.41051 10.611 7.92623C10.595 7.94224 10.5789 7.95802 10.5625 7.97358L12.1063 10.2893C12.2892 10.2513 12.4769 10.2317 12.6665 10.2317C12.8562 10.2317 13.0439 10.2513 13.2268 10.2894L14.7706 7.97368C14.7542 7.95808 14.738 7.94227 14.722 7.92623C14.2062 7.41051 13.9165 6.71104 13.9165 5.98169C13.9165 5.25234 14.2062 4.55287 14.722 4.03715ZM16.6665 4.73169C16.335 4.73169 16.017 4.86339 15.7826 5.09781C15.5482 5.33223 15.4165 5.65017 15.4165 5.98169C15.4165 6.31321 15.5482 6.63115 15.7826 6.86557C16.017 7.09999 16.335 7.23169 16.6665 7.23169C16.998 7.23169 17.316 7.09999 17.5504 6.86557C17.7848 6.63115 17.9165 6.31321 17.9165 5.98169C17.9165 5.65017 17.7848 5.33223 17.5504 5.09781C17.316 4.86339 16.998 4.73169 16.6665 4.73169ZM8.6665 18.7317C8.33498 18.7317 8.01704 18.8634 7.78262 19.0978C7.5482 19.3322 7.4165 19.6502 7.4165 19.9817C7.4165 20.3132 7.5482 20.6312 7.78262 20.8656C8.01704 21.1 8.33498 21.2317 8.6665 21.2317C8.99802 21.2317 9.31597 21.1 9.55039 20.8656C9.78481 20.6312 9.9165 20.3132 9.9165 19.9817C9.9165 19.6502 9.78481 19.3322 9.55039 19.0978C9.31597 18.8634 8.99802 18.7317 8.6665 18.7317ZM7.78262 5.09781C8.01704 4.86339 8.33498 4.73169 8.6665 4.73169C8.99802 4.73169 9.31597 4.86339 9.55039 5.09781C9.78481 5.33223 9.9165 5.65017 9.9165 5.98169C9.9165 6.31321 9.78481 6.63115 9.55039 6.86557C9.31597 7.09999 8.99802 7.23169 8.6665 7.23169C8.33498 7.23169 8.01704 7.09999 7.78262 6.86557C7.5482 6.63115 7.4165 6.31321 7.4165 5.98169C7.4165 5.65017 7.5482 5.33223 7.78262 5.09781ZM13.9165 12.9817C13.9165 12.6502 13.7848 12.3322 13.5504 12.0978C13.316 11.8634 12.998 11.7317 12.6665 11.7317C12.335 11.7317 12.017 11.8634 11.7826 12.0978C11.5482 12.3322 11.4165 12.6502 11.4165 12.9817C11.4165 13.3132 11.5482 13.6312 11.7826 13.8656C12.017 14.1 12.335 14.2317 12.6665 14.2317C12.998 14.2317 13.316 14.1 13.5504 13.8656C13.7848 13.6312 13.9165 13.3132 13.9165 12.9817ZM19.4165 12.9817C19.4165 13.3132 19.5482 13.6312 19.7826 13.8656C20.017 14.1 20.335 14.2317 20.6665 14.2317C20.998 14.2317 21.316 14.1 21.5504 13.8656C21.7848 13.6312 21.9165 13.3132 21.9165 12.9817C21.9165 12.6502 21.7848 12.3322 21.5504 12.0978C21.316 11.8634 20.998 11.7317 20.6665 11.7317C20.335 11.7317 20.017 11.8634 19.7826 12.0978C19.5482 12.3322 19.4165 12.6502 19.4165 12.9817ZM5.55039 12.0978C5.78481 12.3322 5.9165 12.6502 5.9165 12.9817C5.9165 13.3132 5.78481 13.6312 5.55039 13.8656C5.31597 14.1 4.99802 14.2317 4.6665 14.2317C4.33498 14.2317 4.01704 14.1 3.78262 13.8656C3.5482 13.6312 3.4165 13.3132 3.4165 12.9817C3.4165 12.6502 3.5482 12.3322 3.78262 12.0978C4.01704 11.8634 4.33498 11.7317 4.6665 11.7317C4.99802 11.7317 5.31597 11.8634 5.55039 12.0978ZM15.7826 19.0978C16.017 18.8634 16.335 18.7317 16.6665 18.7317C16.998 18.7317 17.316 18.8634 17.5504 19.0978C17.7848 19.3322 17.9165 19.6502 17.9165 19.9817C17.9165 20.3132 17.7848 20.6312 17.5504 20.8656C17.316 21.1 16.998 21.2317 16.6665 21.2317C16.335 21.2317 16.017 21.1 15.7826 20.8656C15.5482 20.6312 15.4165 20.3132 15.4165 19.9817C15.4165 19.6502 15.5482 19.3322 15.7826 19.0978Z" fill="#8A8A8A"/>
</svg>
