<svg width="25" height="24" viewBox="0 0 25 24" fill="none" xmlns="http://www.w3.org/2000/svg">
<rect x="3.18774" y="9.63354" width="18.0947" height="10.7549" rx="1" fill="#B3D3EC"/>
<path d="M8.1665 2.625C7.75229 2.625 7.4165 2.96079 7.4165 3.375C7.4165 3.78921 7.75229 4.125 8.1665 4.125H16.1665C16.5807 4.125 16.9165 3.78921 16.9165 3.375C16.9165 2.96079 16.5807 2.625 16.1665 2.625H8.1665Z" fill="#016BBF"/>
<path d="M5.4165 6.375C5.4165 5.96079 5.75229 5.625 6.1665 5.625H18.1665C18.5807 5.625 18.9165 5.96079 18.9165 6.375C18.9165 6.78921 18.5807 7.125 18.1665 7.125H6.1665C5.75229 7.125 5.4165 6.78921 5.4165 6.375Z" fill="#016BBF"/>
<path d="M5.1665 12.125C5.1665 12.3239 5.24552 12.5147 5.38617 12.6553C5.52683 12.796 5.71759 12.875 5.9165 12.875C6.11542 12.875 6.30618 12.796 6.44683 12.6553C6.58749 12.5147 6.6665 12.3239 6.6665 12.125C6.6665 11.9261 6.58749 11.7353 6.44683 11.5947C6.30618 11.454 6.11542 11.375 5.9165 11.375C5.71759 11.375 5.52683 11.454 5.38617 11.5947C5.24552 11.7353 5.1665 11.9261 5.1665 12.125Z" fill="#016BBF"/>
<path d="M17.8862 12.6553C17.7455 12.5147 17.6665 12.3239 17.6665 12.125C17.6665 11.9261 17.7455 11.7353 17.8862 11.5947C18.0268 11.454 18.2176 11.375 18.4165 11.375C18.6154 11.375 18.8062 11.454 18.9468 11.5947C19.0875 11.7353 19.1665 11.9261 19.1665 12.125C19.1665 12.3239 19.0875 12.5147 18.9468 12.6553C18.8062 12.796 18.6154 12.875 18.4165 12.875C18.2176 12.875 18.0268 12.796 17.8862 12.6553Z" fill="#016BBF"/>
<path d="M5.1665 17.625C5.1665 17.8239 5.24552 18.0147 5.38617 18.1553C5.52683 18.296 5.71759 18.375 5.9165 18.375C6.11542 18.375 6.30618 18.296 6.44683 18.1553C6.58749 18.0147 6.6665 17.8239 6.6665 17.625C6.6665 17.4261 6.58749 17.2353 6.44683 17.0947C6.30618 16.954 6.11542 16.875 5.9165 16.875C5.71759 16.875 5.52683 16.954 5.38617 17.0947C5.24552 17.2353 5.1665 17.4261 5.1665 17.625Z" fill="#016BBF"/>
<path d="M17.8862 18.1553C17.7455 18.0147 17.6665 17.8239 17.6665 17.625C17.6665 17.4261 17.7455 17.2353 17.8862 17.0947C18.0268 16.954 18.2176 16.875 18.4165 16.875C18.6154 16.875 18.8062 16.954 18.9468 17.0947C19.0875 17.2353 19.1665 17.4261 19.1665 17.625C19.1665 17.8239 19.0875 18.0147 18.9468 18.1553C18.8062 18.296 18.6154 18.375 18.4165 18.375C18.2176 18.375 18.0268 18.296 17.8862 18.1553Z" fill="#016BBF"/>
<path fill-rule="evenodd" clip-rule="evenodd" d="M5.1665 8.375C3.50965 8.375 2.1665 9.71815 2.1665 11.375V18.375C2.1665 20.0319 3.50965 21.375 5.1665 21.375H19.1665C20.8234 21.375 22.1665 20.0319 22.1665 18.375V11.375C22.1665 9.71815 20.8234 8.375 19.1665 8.375H5.1665ZM19.1665 9.875H5.1665C4.33808 9.875 3.6665 10.5466 3.6665 11.375V18.375C3.6665 19.2034 4.33808 19.875 5.1665 19.875H19.1665C19.9949 19.875 20.6665 19.2034 20.6665 18.375V11.375C20.6665 10.5466 19.9949 9.875 19.1665 9.875Z" fill="#016BBF"/>
</svg>
