<svg width="25" height="24" viewBox="0 0 25 24" fill="none" xmlns="http://www.w3.org/2000/svg">
<path d="M21.4868 9.24463H3.99731V16.7561L5.67897 18.9984H19.1884L21.9352 16.7561L21.4868 9.24463Z" fill="#B3D3EC"/>
<path fill-rule="evenodd" clip-rule="evenodd" d="M6.9165 2.25C6.50229 2.25 6.1665 2.58579 6.1665 3V6V8.25H4.9165C3.95001 8.25 3.1665 9.0335 3.1665 10V16C3.1665 17.8142 4.45482 19.3275 6.1665 19.675V21C6.1665 21.4142 6.50229 21.75 6.9165 21.75C7.33072 21.75 7.6665 21.4142 7.6665 21V19.75H18.1665V21C18.1665 21.4142 18.5023 21.75 18.9165 21.75C19.3307 21.75 19.6665 21.4142 19.6665 21V19.675C21.3782 19.3275 22.6665 17.8142 22.6665 16V10C22.6665 9.0335 21.883 8.25 20.9165 8.25H19.6665V6V3.75L21.9165 3.75C22.3307 3.75 22.6665 3.41421 22.6665 3C22.6665 2.58579 22.3307 2.25 21.9165 2.25H18.9165H18.2078H15.9165H12.9165H9.9165H6.9165ZM21.1665 16C21.1665 17.2426 20.1591 18.25 18.9165 18.25H6.9165C5.67386 18.25 4.6665 17.2426 4.6665 16V10C4.6665 9.86193 4.77843 9.75 4.9165 9.75H6.9165H9.9165H12.9165H15.9165H18.9165H20.9165C21.0546 9.75 21.1665 9.86193 21.1665 10V16ZM13.6665 3.75H15.1665V5.25H13.6665V3.75ZM16.6665 3.75V5.25H18.1665V3.75H16.6665ZM13.6665 6.75H15.1665V8.25H13.6665V6.75ZM16.6665 6.75V8.25H18.1665V6.75H16.6665ZM12.1665 3.75H10.6665V5.25H12.1665V3.75ZM12.1665 6.75H10.6665V8.25H12.1665V6.75ZM7.6665 8.25V6.75H9.1665V8.25H7.6665ZM7.6665 5.25H9.1665V3.75H7.6665V5.25ZM15.6665 14C15.6665 13.3096 16.2261 12.75 16.9165 12.75C17.6069 12.75 18.1665 13.3096 18.1665 14C18.1665 14.6904 17.6069 15.25 16.9165 15.25C16.2261 15.25 15.6665 14.6904 15.6665 14ZM16.9165 11.25C15.3977 11.25 14.1665 12.4812 14.1665 14C14.1665 15.5188 15.3977 16.75 16.9165 16.75C18.4353 16.75 19.6665 15.5188 19.6665 14C19.6665 12.4812 18.4353 11.25 16.9165 11.25Z" fill="#016BBF"/>
</svg>
