<svg width="25" height="24" viewBox="0 0 25 24" fill="none" xmlns="http://www.w3.org/2000/svg">
<path fill-rule="evenodd" clip-rule="evenodd" d="M10.0149 4.49386C10.7181 3.7906 11.6719 3.39551 12.6665 3.39551C13.6611 3.39551 14.6149 3.7906 15.3182 4.49386C16.0214 5.19712 16.4165 6.15095 16.4165 7.14551C16.4165 8.14007 16.0214 9.0939 15.3182 9.79716C14.6149 10.5004 13.6611 10.8955 12.6665 10.8955C11.6719 10.8955 10.7181 10.5004 10.0149 9.79716C9.31159 9.0939 8.9165 8.14007 8.9165 7.14551C8.9165 6.15095 9.31159 5.19712 10.0149 4.49386ZM12.6665 4.89551C12.0698 4.89551 11.4975 5.13256 11.0755 5.55452C10.6536 5.97648 10.4165 6.54877 10.4165 7.14551C10.4165 7.74224 10.6536 8.31454 11.0755 8.7365C11.4975 9.15845 12.0698 9.39551 12.6665 9.39551C13.2632 9.39551 13.8355 9.15845 14.2575 8.7365C14.6795 8.31454 14.9165 7.74224 14.9165 7.14551C14.9165 6.54877 14.6795 5.97648 14.2575 5.55452C13.8355 5.13256 13.2632 4.89551 12.6665 4.89551Z" fill="#8A8A8A"/>
<path d="M18.354 13.5859C18.354 13.1717 18.6898 12.8359 19.104 12.8359H20.104C20.8333 12.8359 21.5328 13.1257 22.0485 13.6414C22.5643 14.1571 22.854 14.8566 22.854 15.5859V17.5859C22.854 18.0002 22.5182 18.3359 22.104 18.3359C21.6898 18.3359 21.354 18.0002 21.354 17.5859V15.5859C21.354 15.2544 21.2223 14.9365 20.9879 14.7021C20.7535 14.4676 20.4355 14.3359 20.104 14.3359H19.104C18.6898 14.3359 18.354 14.0002 18.354 13.5859Z" fill="#8A8A8A"/>
<path d="M7.25732 4.29932C6.32421 4.29932 5.42931 4.66999 4.7695 5.32981C4.10969 5.98962 3.73901 6.88451 3.73901 7.81763C3.73901 8.75074 4.10969 9.64564 4.7695 10.3054C5.42931 10.9653 6.32421 11.3359 7.25732 11.3359C7.67154 11.3359 8.00732 11.0002 8.00732 10.5859C8.00732 10.1717 7.67154 9.83594 7.25732 9.83594C6.72203 9.83594 6.20867 9.62329 5.83016 9.24479C5.45166 8.86628 5.23901 8.35292 5.23901 7.81763C5.23901 7.28234 5.45166 6.76897 5.83016 6.39047C6.20867 6.01196 6.72203 5.79932 7.25732 5.79932C7.67154 5.79932 8.00732 5.46353 8.00732 5.04932C8.00732 4.6351 7.67154 4.29932 7.25732 4.29932Z" fill="#8A8A8A"/>
<path d="M20.5633 5.32981C19.9035 4.66999 19.0086 4.29932 18.0754 4.29932C17.6612 4.29932 17.3254 4.6351 17.3254 5.04932C17.3254 5.46353 17.6612 5.79932 18.0754 5.79932C18.6107 5.79932 19.1241 6.01196 19.5026 6.39047C19.8811 6.76897 20.0938 7.28234 20.0938 7.81763C20.0938 8.35292 19.8811 8.86628 19.5026 9.24479C19.1241 9.62329 18.6107 9.83594 18.0754 9.83594C17.6612 9.83594 17.3254 10.1717 17.3254 10.5859C17.3254 11.0002 17.6612 11.3359 18.0754 11.3359C19.0086 11.3359 19.9035 10.9653 20.5633 10.3054C21.2231 9.64564 21.5938 8.75074 21.5938 7.81763C21.5938 6.88451 21.2231 5.98962 20.5633 5.32981Z" fill="#8A8A8A"/>
<path d="M4.34512 14.7021C4.57954 14.4676 4.89748 14.3359 5.229 14.3359H6.229C6.64322 14.3359 6.979 14.0002 6.979 13.5859C6.979 13.1717 6.64322 12.8359 6.229 12.8359H5.229C4.49966 12.8359 3.80018 13.1257 3.28446 13.6414C2.76874 14.1571 2.479 14.8566 2.479 15.5859V17.5859C2.479 18.0002 2.81479 18.3359 3.229 18.3359C3.64322 18.3359 3.979 18.0002 3.979 17.5859V15.5859C3.979 15.2544 4.1107 14.9365 4.34512 14.7021Z" fill="#8A8A8A"/>
<path fill-rule="evenodd" clip-rule="evenodd" d="M7.479 15.9209C7.479 13.8498 9.15794 12.1709 11.229 12.1709H14.104C16.1751 12.1709 17.854 13.8498 17.854 15.9209V19.8547C17.854 20.269 17.5182 20.6047 17.104 20.6047C16.6898 20.6047 16.354 20.269 16.354 19.8547V15.9209C16.354 14.8802 15.6474 14.0045 14.6878 13.7474V15.4998C14.6878 15.8513 14.582 16.1947 14.3841 16.4852L13.2627 18.131L12.016 18.1204L10.9321 16.4696C10.7448 16.1843 10.645 15.8505 10.645 15.5092V13.7474C9.6855 14.0046 8.979 14.8802 8.979 15.9209V19.8547C8.979 20.269 8.64322 20.6047 8.229 20.6047C7.81479 20.6047 7.479 20.269 7.479 19.8547V15.9209ZM12.145 13.6709V15.5092C12.145 15.5579 12.1593 15.6056 12.186 15.6464L12.6544 16.3598L13.1445 15.6406C13.1727 15.5991 13.1878 15.55 13.1878 15.4998V13.6709H12.145Z" fill="#8A8A8A"/>
</svg>
