<svg width="25" height="24" viewBox="0 0 25 24" fill="none" xmlns="http://www.w3.org/2000/svg">
<path fill-rule="evenodd" clip-rule="evenodd" d="M12.6665 2.25C8.51554 2.25 5.14126 5.63711 4.92728 9.60063C4.92019 9.64204 4.9165 9.6846 4.9165 9.72803C4.9165 9.75027 4.91747 9.77229 4.91937 9.79404C4.91746 9.86254 4.9165 9.9312 4.9165 10V20C4.9165 20.4641 5.10088 20.9092 5.42907 21.2374C5.75726 21.5656 6.20238 21.75 6.6665 21.75H18.6665C19.1306 21.75 19.5758 21.5656 19.9039 21.2374C20.2321 20.9092 20.4165 20.4641 20.4165 20V10C20.4165 9.9312 20.4155 9.86254 20.4136 9.79404C20.4155 9.77229 20.4165 9.75027 20.4165 9.72803C20.4165 9.6846 20.4128 9.64204 20.4057 9.60063C20.1917 5.63711 16.8175 2.25 12.6665 2.25ZM11.9165 3.79669C9.17289 4.14014 6.96651 6.33597 6.5053 8.97803H11.9165V3.79669ZM13.4165 8.97803V3.79669C16.1601 4.14014 18.3665 6.33597 18.8277 8.97803H13.4165ZM6.4165 10.478V15.1296H18.9165V10.478H6.4165ZM18.9165 16.6296V20C18.9165 20.0663 18.8902 20.1299 18.8433 20.1768C18.7964 20.2237 18.7328 20.25 18.6665 20.25H6.6665C6.6002 20.25 6.53661 20.2237 6.48973 20.1768C6.44284 20.1299 6.4165 20.0663 6.4165 20V16.6296H18.9165Z" fill="#8A8A8A"/>
</svg>
