<svg width="25" height="24" viewBox="0 0 25 24" fill="none" xmlns="http://www.w3.org/2000/svg">
<path fill-rule="evenodd" clip-rule="evenodd" d="M12.6665 3.39551C11.6719 3.39551 10.7181 3.7906 10.0149 4.49386C9.31159 5.19712 8.9165 6.15095 8.9165 7.14551C8.9165 8.14007 9.31159 9.0939 10.0149 9.79716C10.7181 10.5004 11.6719 10.8955 12.6665 10.8955C13.6611 10.8955 14.6149 10.5004 15.3182 9.79716C16.0214 9.0939 16.4165 8.14007 16.4165 7.14551C16.4165 6.15095 16.0214 5.19712 15.3182 4.49386C14.6149 3.7906 13.6611 3.39551 12.6665 3.39551ZM11.0755 5.55452C11.4975 5.13256 12.0698 4.89551 12.6665 4.89551C13.2632 4.89551 13.8355 5.13256 14.2575 5.55452C14.6795 5.97648 14.9165 6.54877 14.9165 7.14551C14.9165 7.74224 14.6795 8.31454 14.2575 8.7365C13.8355 9.15845 13.2632 9.39551 12.6665 9.39551C12.0698 9.39551 11.4975 9.15845 11.0755 8.7365C10.6536 8.31454 10.4165 7.74224 10.4165 7.14551C10.4165 6.54877 10.6536 5.97648 11.0755 5.55452ZM19.104 12.8359C18.6898 12.8359 18.354 13.1717 18.354 13.5859C18.354 14.0002 18.6898 14.3359 19.104 14.3359H20.104C20.4355 14.3359 20.7535 14.4676 20.9879 14.7021C21.2223 14.9365 21.354 15.2544 21.354 15.5859V17.5859C21.354 18.0002 21.6898 18.3359 22.104 18.3359C22.5182 18.3359 22.854 18.0002 22.854 17.5859V15.5859C22.854 14.8566 22.5643 14.1571 22.0485 13.6414C21.5328 13.1257 20.8333 12.8359 20.104 12.8359H19.104ZM4.7695 5.32981C5.42931 4.66999 6.32421 4.29932 7.25732 4.29932C7.67154 4.29932 8.00732 4.6351 8.00732 5.04932C8.00732 5.46353 7.67154 5.79932 7.25732 5.79932C6.72203 5.79932 6.20867 6.01196 5.83016 6.39047C5.45166 6.76897 5.23901 7.28234 5.23901 7.81763C5.23901 8.35292 5.45166 8.86628 5.83016 9.24479C6.20867 9.62329 6.72203 9.83594 7.25732 9.83594C7.67154 9.83594 8.00732 10.1717 8.00732 10.5859C8.00732 11.0002 7.67154 11.3359 7.25732 11.3359C6.32421 11.3359 5.42931 10.9653 4.7695 10.3054C4.10969 9.64564 3.73901 8.75074 3.73901 7.81763C3.73901 6.88451 4.10969 5.98962 4.7695 5.32981ZM18.0754 4.29932C19.0086 4.29932 19.9035 4.66999 20.5633 5.32981C21.2231 5.98962 21.5938 6.88451 21.5938 7.81763C21.5938 8.75074 21.2231 9.64564 20.5633 10.3054C19.9035 10.9653 19.0086 11.3359 18.0754 11.3359C17.6612 11.3359 17.3254 11.0002 17.3254 10.5859C17.3254 10.1717 17.6612 9.83594 18.0754 9.83594C18.6107 9.83594 19.1241 9.62329 19.5026 9.24479C19.8811 8.86628 20.0938 8.35292 20.0938 7.81763C20.0938 7.28234 19.8811 6.76897 19.5026 6.39047C19.1241 6.01196 18.6107 5.79932 18.0754 5.79932C17.6612 5.79932 17.3254 5.46353 17.3254 5.04932C17.3254 4.6351 17.6612 4.29932 18.0754 4.29932ZM5.229 14.3359C4.89748 14.3359 4.57954 14.4676 4.34512 14.7021C4.1107 14.9365 3.979 15.2544 3.979 15.5859V17.5859C3.979 18.0002 3.64322 18.3359 3.229 18.3359C2.81479 18.3359 2.479 18.0002 2.479 17.5859V15.5859C2.479 14.8566 2.76874 14.1571 3.28446 13.6414C3.80018 13.1257 4.49966 12.8359 5.229 12.8359H6.229C6.64322 12.8359 6.979 13.1717 6.979 13.5859C6.979 14.0002 6.64322 14.3359 6.229 14.3359H5.229ZM11.229 12.1709C9.15794 12.1709 7.479 13.8498 7.479 15.9209V19.8547C7.479 20.269 7.81479 20.6047 8.229 20.6047C8.64322 20.6047 8.979 20.269 8.979 19.8547V15.9209C8.979 14.6783 9.98636 13.6709 11.229 13.6709H14.104C15.3466 13.6709 16.354 14.6783 16.354 15.9209V19.8547C16.354 20.269 16.6898 20.6047 17.104 20.6047C17.5182 20.6047 17.854 20.269 17.854 19.8547V15.9209C17.854 13.8498 16.1751 12.1709 14.104 12.1709H11.229Z" fill="#8A8A8A"/>
</svg>
