<svg width="25" height="24" viewBox="0 0 25 24" fill="none" xmlns="http://www.w3.org/2000/svg">
<path d="M15.9227 7.06854H8.36195C7.74888 7.06854 7.28211 6.51982 7.48239 5.94039C8.06218 4.26296 9.46393 2.15942 12.1655 2.15942C14.8725 2.15942 16.2484 4.27149 16.8054 5.95057C16.9969 6.52784 16.5309 7.06854 15.9227 7.06854Z" fill="#B3D3EC"/>
<path fill-rule="evenodd" clip-rule="evenodd" d="M12.1665 1.35791C8.99087 1.35791 6.4165 3.93227 6.4165 7.10791V7.85791H7.41689C7.41663 7.86602 7.4165 7.87416 7.4165 7.88232C7.4165 9.1421 7.91695 10.3503 8.80775 11.2411C9.69854 12.1319 10.9067 12.6323 12.1665 12.6323C13.4263 12.6323 14.6345 12.1319 15.5253 11.2411C16.4161 10.3503 16.9165 9.1421 16.9165 7.88232C16.9165 7.87416 16.9164 7.86602 16.9161 7.85791H17.9165V7.10791C17.9165 3.93227 15.3421 1.35791 12.1665 1.35791ZM14.4165 3.50169C15.4155 4.12629 16.1363 5.15447 16.3505 6.35791H7.98247C8.19674 5.15447 8.91752 4.12629 9.9165 3.50169V4.74194C9.9165 5.15616 10.2523 5.49194 10.6665 5.49194C11.0807 5.49194 11.4165 5.15616 11.4165 4.74194V2.92388C11.66 2.88053 11.9106 2.85791 12.1665 2.85791C12.4224 2.85791 12.673 2.88053 12.9165 2.92388L12.9165 4.74194C12.9165 5.15616 13.2523 5.49194 13.6665 5.49194C14.0807 5.49194 14.4165 5.15616 14.4165 4.74194V3.50169ZM8.91611 7.85791C8.91637 7.86602 8.9165 7.87416 8.9165 7.88232C8.9165 8.74428 9.25891 9.57093 9.86841 10.1804C10.4779 10.7899 11.3046 11.1323 12.1665 11.1323C13.0285 11.1323 13.8551 10.7899 14.4646 10.1804C15.0741 9.57093 15.4165 8.74428 15.4165 7.88232L15.4165 7.87432L15.4169 7.85791H8.91611Z" fill="#016BBF"/>
<path d="M10.1665 15.6323C9.30455 15.6323 8.4779 15.9747 7.86841 16.5842C7.25891 17.1937 6.9165 18.0204 6.9165 18.8823V20.8823C6.9165 21.2965 6.58072 21.6323 6.1665 21.6323C5.75229 21.6323 5.4165 21.2965 5.4165 20.8823V18.8823C5.4165 17.6225 5.91695 16.4144 6.80775 15.5236C7.69854 14.6328 8.90673 14.1323 10.1665 14.1323H14.1665C14.5794 14.1323 14.9802 14.1857 15.3617 14.2841C15.7628 14.3875 16.0042 14.7964 15.9008 15.1975C15.7974 15.5986 15.3884 15.84 14.9873 15.7366C14.7248 15.6689 14.4497 15.6323 14.1665 15.6323H10.1665Z" fill="#016BBF"/>
<path d="M19.1665 15.1323C19.5807 15.1323 19.9165 15.4681 19.9165 15.8823V18.8823C19.9165 19.2965 19.5807 19.6323 19.1665 19.6323C18.7523 19.6323 18.4165 19.2965 18.4165 18.8823V15.8823C18.4165 15.4681 18.7523 15.1323 19.1665 15.1323Z" fill="#016BBF"/>
<path d="M19.9165 21.8823C19.9165 21.4681 19.5807 21.1323 19.1665 21.1323C18.7523 21.1323 18.4165 21.4681 18.4165 21.8823V21.8923C18.4165 22.3065 18.7523 22.6423 19.1665 22.6423C19.5807 22.6423 19.9165 22.3065 19.9165 21.8923V21.8823Z" fill="#016BBF"/>
</svg>
