<svg width="25" height="24" viewBox="0 0 25 24" fill="none" xmlns="http://www.w3.org/2000/svg">
<path d="M4.03746 3.45605L2.11328 11.6989L3.18149 12.6709L10.2311 4.61428L4.03746 3.45605Z" fill="#B3D3EC"/>
<path d="M20.2494 3.45605L22.1736 11.6989L21.1054 12.6709L14.0558 4.61428L20.2494 3.45605Z" fill="#B3D3EC"/>
<path d="M11.4616 9.40351C11.7545 9.6964 11.7545 10.1713 11.4616 10.4642L10.9269 10.9988L11.4616 11.5335C11.7545 11.8264 11.7545 12.3013 11.4616 12.5942C11.1687 12.8871 10.6938 12.8871 10.4009 12.5942L9.86627 12.0595L9.3316 12.5942C9.03871 12.8871 8.56383 12.8871 8.27094 12.5942C7.97805 12.3013 7.97805 11.8264 8.27094 11.5335L8.80561 10.9988L8.27094 10.4642C7.97805 10.1713 7.97805 9.6964 8.27094 9.40351C8.56383 9.11061 9.03871 9.11061 9.3316 9.40351L9.86627 9.93818L10.4009 9.40351C10.6938 9.11061 11.1687 9.11061 11.4616 9.40351Z" fill="#016BBF"/>
<path d="M16.0622 9.40351C16.3551 9.6964 16.3551 10.1713 16.0622 10.4642L15.5275 10.9988L16.0622 11.5335C16.3551 11.8264 16.3551 12.3013 16.0622 12.5942C15.7693 12.8871 15.2944 12.8871 15.0015 12.5942L14.4669 12.0595L13.9322 12.5942C13.6393 12.8871 13.1644 12.8871 12.8715 12.5942C12.5786 12.3013 12.5786 11.8264 12.8715 11.5335L13.4062 10.9988L12.8715 10.4642C12.5786 10.1713 12.5786 9.6964 12.8715 9.40351C13.1644 9.11061 13.6393 9.11061 13.9322 9.40351L14.4669 9.93818L15.0015 9.40351C15.2944 9.11061 15.7693 9.11061 16.0622 9.40351Z" fill="#016BBF"/>
<path fill-rule="evenodd" clip-rule="evenodd" d="M20.8925 3.33951C20.7941 2.95959 20.4193 2.71984 20.0331 2.78965L14.0331 3.8742C14.003 3.87964 13.9736 3.88686 13.9448 3.89575H10.3882C10.3595 3.88686 10.33 3.87964 10.2999 3.8742L4.29992 2.78965C3.9137 2.71984 3.53898 2.95959 3.4405 3.33951L1.4655 10.9593C1.46239 10.9713 1.45958 10.9834 1.45707 10.9956C1.3915 11.3125 1.40646 11.6432 1.50142 11.953C1.59628 12.2624 1.76994 12.5467 2.0128 12.768C2.36326 13.0887 2.82849 13.2589 3.31161 13.2164C3.48323 13.2013 3.64794 13.1602 3.80216 13.0969C4.19739 15.4662 4.81495 17.3557 5.69065 18.7163C6.73142 20.3333 8.15707 21.2225 9.93982 21.2225H14.3934C16.1761 21.2225 17.6018 20.3333 18.6425 18.7163C19.5182 17.3558 20.1358 15.4662 20.531 13.097C21.116 13.3353 21.8081 13.2388 22.321 12.7673C22.5635 12.5461 22.7369 12.2621 22.8316 11.953C22.9266 11.6432 22.9415 11.3125 22.876 10.9956C22.8734 10.9834 22.8706 10.9713 22.8675 10.9593L20.8925 3.33951ZM19.2043 11.8221L13.8434 5.39575H10.4896L5.12888 11.8219C5.49628 14.612 6.12185 16.6147 6.95197 17.9045C7.76666 19.1702 8.75316 19.7225 9.93982 19.7225H11.4165V18.0946C11.2249 18.0209 11.044 17.9108 10.886 17.7529C10.529 17.3958 10.4165 16.9212 10.4165 16.4724C10.4165 16.0582 10.7523 15.7224 11.1665 15.7224H13.1665C13.5807 15.7224 13.9165 16.0582 13.9165 16.4724C13.9165 16.9212 13.804 17.3958 13.447 17.7529C13.289 17.9108 13.1081 18.0209 12.9165 18.0946V19.7225H14.3934C15.58 19.7225 16.5665 19.1702 17.3812 17.9045C18.2113 16.6148 18.8369 14.6121 19.2043 11.8221ZM20.9804 11.6096L15.5677 5.12112L19.6151 4.38952L21.4097 11.3132C21.4213 11.3805 21.4168 11.4503 21.3975 11.5133C21.3769 11.5806 21.343 11.6292 21.3098 11.6594L21.3063 11.6627C21.2513 11.7133 21.1968 11.7256 21.1518 11.7216C21.1061 11.7176 21.0474 11.6945 20.9945 11.627C20.9899 11.6212 20.9852 11.6154 20.9804 11.6096ZM4.71792 4.38952L2.92335 11.3132C2.91171 11.3805 2.91621 11.4503 2.93554 11.5133C2.95616 11.5806 2.99005 11.6292 3.02322 11.6594L3.02522 11.6612C3.08243 11.7137 3.13804 11.7259 3.18008 11.7222C3.22337 11.7184 3.28485 11.6944 3.34164 11.6231L3.35259 11.6096L8.76531 5.12112L4.71792 4.38952Z" fill="#016BBF"/>
</svg>
