<svg width="25" height="24" viewBox="0 0 25 24" fill="none" xmlns="http://www.w3.org/2000/svg">
<path d="M12.2116 9.40351C12.5045 9.6964 12.5045 10.1713 12.2116 10.4642L11.6769 10.9988L12.2116 11.5335C12.5045 11.8264 12.5045 12.3013 12.2116 12.5942C11.9187 12.8871 11.4438 12.8871 11.1509 12.5942L10.6163 12.0595L10.0816 12.5942C9.78871 12.8871 9.31383 12.8871 9.02094 12.5942C8.72805 12.3013 8.72805 11.8264 9.02094 11.5335L9.55561 10.9988L9.02094 10.4642C8.72805 10.1713 8.72805 9.6964 9.02094 9.40351C9.31383 9.11061 9.78871 9.11061 10.0816 9.40351L10.6163 9.93818L11.1509 9.40351C11.4438 9.11061 11.9187 9.11061 12.2116 9.40351Z" fill="#8A8A8A"/>
<path d="M16.8122 9.40351C17.1051 9.6964 17.1051 10.1713 16.8122 10.4642L16.2775 10.9988L16.8122 11.5335C17.1051 11.8264 17.1051 12.3013 16.8122 12.5942C16.5193 12.8871 16.0444 12.8871 15.7515 12.5942L15.2169 12.0595L14.6822 12.5942C14.3893 12.8871 13.9144 12.8871 13.6215 12.5942C13.3286 12.3013 13.3286 11.8264 13.6215 11.5335L14.1562 10.9988L13.6215 10.4642C13.3286 10.1713 13.3286 9.6964 13.6215 9.40351C13.9144 9.11061 14.3893 9.11061 14.6822 9.40351L15.2169 9.93818L15.7515 9.40351C16.0444 9.11061 16.5193 9.11061 16.8122 9.40351Z" fill="#8A8A8A"/>
<path fill-rule="evenodd" clip-rule="evenodd" d="M21.6425 3.33951C21.5441 2.95959 21.1693 2.71984 20.7831 2.78965L14.7831 3.8742C14.753 3.87964 14.7236 3.88686 14.6948 3.89575H11.1382C11.1095 3.88686 11.08 3.87964 11.0499 3.8742L5.04992 2.78965C4.6637 2.71984 4.28898 2.95959 4.1905 3.33951L2.2155 10.9593C2.21239 10.9713 2.20958 10.9834 2.20707 10.9956C2.1415 11.3125 2.15646 11.6432 2.25142 11.953C2.34628 12.2624 2.51994 12.5467 2.7628 12.768C3.11326 13.0887 3.57849 13.2589 4.06161 13.2164C4.23323 13.2013 4.39794 13.1602 4.55216 13.0969C4.94739 15.4662 5.56495 17.3557 6.44065 18.7163C7.48142 20.3333 8.90707 21.2225 10.6898 21.2225H15.1434C16.9261 21.2225 18.3518 20.3333 19.3925 18.7163C20.2682 17.3558 20.8858 15.4662 21.281 13.097C21.866 13.3353 22.5581 13.2388 23.071 12.7673C23.3135 12.5461 23.4869 12.2621 23.5816 11.953C23.6766 11.6432 23.6915 11.3125 23.626 10.9956C23.6234 10.9834 23.6206 10.9713 23.6175 10.9593L21.6425 3.33951ZM19.9543 11.8221L14.5934 5.39575H11.2396L5.87888 11.8219C6.24628 14.612 6.87185 16.6147 7.70197 17.9045C8.51666 19.1702 9.50316 19.7225 10.6898 19.7225H12.1665V18.0946C11.9749 18.0209 11.794 17.9108 11.636 17.7529C11.279 17.3958 11.1665 16.9212 11.1665 16.4724C11.1665 16.0582 11.5023 15.7224 11.9165 15.7224H13.9165C14.3307 15.7224 14.6665 16.0582 14.6665 16.4724C14.6665 16.9212 14.554 17.3958 14.197 17.7529C14.039 17.9108 13.8581 18.0209 13.6665 18.0946V19.7225H15.1434C16.33 19.7225 17.3165 19.1702 18.1312 17.9045C18.9613 16.6148 19.5869 14.6121 19.9543 11.8221ZM21.7304 11.6096L16.3177 5.12112L20.3651 4.38952L22.1597 11.3132C22.1713 11.3805 22.1668 11.4503 22.1475 11.5133C22.1269 11.5806 22.093 11.6292 22.0598 11.6594L22.0563 11.6627C22.0013 11.7133 21.9468 11.7256 21.9018 11.7216C21.8561 11.7176 21.7974 11.6945 21.7445 11.627C21.7399 11.6212 21.7352 11.6154 21.7304 11.6096ZM5.46792 4.38952L3.67335 11.3132C3.66171 11.3805 3.66621 11.4503 3.68554 11.5133C3.70616 11.5806 3.74005 11.6292 3.77322 11.6594L3.77522 11.6612C3.83243 11.7137 3.88804 11.7259 3.93008 11.7222C3.97337 11.7184 4.03485 11.6944 4.09164 11.6231L4.10259 11.6096L9.51531 5.12112L5.46792 4.38952Z" fill="#8A8A8A"/>
</svg>
