<svg width="25" height="24" viewBox="0 0 25 24" fill="none" xmlns="http://www.w3.org/2000/svg">
<path fill-rule="evenodd" clip-rule="evenodd" d="M7.6665 1.75C7.20237 1.75 6.75726 1.93437 6.42907 2.26256C6.10088 2.59075 5.9165 3.03587 5.9165 3.5V11.5C5.9165 11.9641 6.10088 12.4092 6.42907 12.7374C6.75726 13.0656 7.20237 13.25 7.6665 13.25H10.3558L12.1362 15.0303C12.4291 15.3232 12.9039 15.3232 13.1968 15.0303L14.9772 13.25H17.6665C18.1306 13.25 18.5758 13.0656 18.9039 12.7374C19.2321 12.4092 19.4165 11.9641 19.4165 11.5V3.5C19.4165 3.03587 19.2321 2.59075 18.9039 2.26256C18.5758 1.93437 18.1306 1.75 17.6665 1.75H7.6665ZM7.48973 3.32322C7.53661 3.27634 7.6002 3.25 7.6665 3.25H17.6665C17.7328 3.25 17.7964 3.27634 17.8433 3.32322C17.8902 3.37011 17.9165 3.43369 17.9165 3.5V11.5C17.9165 11.5663 17.8902 11.6299 17.8433 11.6768C17.7964 11.7237 17.7328 11.75 17.6665 11.75H14.6665C14.4676 11.75 14.2768 11.829 14.1362 11.9697L12.6665 13.4393L11.1968 11.9697C11.0562 11.829 10.8654 11.75 10.6665 11.75H7.6665C7.6002 11.75 7.53661 11.7237 7.48973 11.6768C7.44284 11.6299 7.4165 11.5663 7.4165 11.5V3.5C7.4165 3.4337 7.44284 3.37011 7.48973 3.32322Z" fill="#8A8A8A"/>
<path fill-rule="evenodd" clip-rule="evenodd" d="M12.6665 16.75C11.9372 16.75 11.2377 17.0397 10.722 17.5555C10.3872 17.8902 10.1476 18.3025 10.0207 18.75H4.6665C4.25229 18.75 3.9165 19.0858 3.9165 19.5C3.9165 19.9142 4.25229 20.25 4.6665 20.25H10.0207C10.1476 20.6975 10.3872 21.1098 10.722 21.4445C11.2377 21.9603 11.9372 22.25 12.6665 22.25C13.3958 22.25 14.0953 21.9603 14.611 21.4445C14.9458 21.1098 15.1854 20.6975 15.3123 20.25H20.6665C21.0807 20.25 21.4165 19.9142 21.4165 19.5C21.4165 19.0858 21.0807 18.75 20.6665 18.75H15.3123C15.1854 18.3025 14.9458 17.8902 14.611 17.5555C14.0953 17.0397 13.3958 16.75 12.6665 16.75ZM13.5504 18.6161C13.7848 18.8505 13.9165 19.1685 13.9165 19.5C13.9165 19.8315 13.7848 20.1495 13.5504 20.3839C13.316 20.6183 12.998 20.75 12.6665 20.75C12.335 20.75 12.017 20.6183 11.7826 20.3839C11.5482 20.1495 11.4165 19.8315 11.4165 19.5C11.4165 19.1685 11.5482 18.8505 11.7826 18.6161C12.017 18.3817 12.335 18.25 12.6665 18.25C12.998 18.25 13.316 18.3817 13.5504 18.6161Z" fill="#8A8A8A"/>
</svg>
