<svg width="25" height="24" viewBox="0 0 25 24" fill="none" xmlns="http://www.w3.org/2000/svg">
<path fill-rule="evenodd" clip-rule="evenodd" d="M8.76394 5.70292L8.76516 5.70184L8.77779 5.69081C8.78994 5.68029 8.80945 5.6636 8.83588 5.64161C8.8888 5.59761 8.96923 5.53263 9.07375 5.45364C9.28339 5.2952 9.58674 5.08285 9.95677 4.87081C10.709 4.43978 11.677 4.04452 12.6665 4.04452C13.0518 4.04452 13.3642 3.73216 13.3642 3.34684C13.3642 2.96153 13.0518 2.64917 12.6665 2.64917C11.3304 2.64917 10.1139 3.17254 9.26302 3.66014C8.89697 3.8699 8.58752 4.07943 8.35178 4.25175L7.80414 3.70412C6.80513 2.7051 5.1854 2.7051 4.18639 3.70412C3.18737 4.70313 3.18737 6.32286 4.18639 7.32187L5.62097 8.75646C4.25118 9.96457 2.6665 11.8599 2.6665 14.9748C2.6665 15.2569 2.83649 15.5113 3.09719 15.6193C3.35789 15.7273 3.65798 15.6676 3.85751 15.4681C4.18449 15.1411 4.51073 14.8774 4.84193 14.6499C4.76507 14.88 4.68991 15.1222 4.62151 15.3717C4.32717 16.4455 4.11508 17.8006 4.57677 18.9548C4.66125 19.166 4.84338 19.3227 5.0648 19.3748C5.28622 19.4269 5.51913 19.3678 5.68889 19.2164L7.1394 17.9229L8.34365 19.9786C8.36068 20.0076 8.37979 20.0354 8.40084 20.0617C8.69849 20.4338 9.17894 20.8649 9.78366 21.1228C10.4059 21.3882 11.1829 21.4757 11.9812 21.0892C13.1351 20.5304 13.3642 19.2056 13.3642 18.3207V17.3003C13.3642 16.915 13.0518 16.6027 12.6665 16.6027C12.2812 16.6027 11.9688 16.915 11.9688 17.3003V18.3207C11.9688 19.1256 11.74 19.6556 11.373 19.8333C11.0103 20.009 10.6633 19.981 10.331 19.8393C9.99914 19.6978 9.70783 19.4497 9.52006 19.2262L7.9128 16.4826C7.80709 16.3021 7.62601 16.1786 7.41943 16.146C7.21284 16.1135 7.00255 16.1753 6.84647 16.3145L5.70418 17.3332C5.71598 16.8403 5.81451 16.2977 5.96722 15.7406C6.10219 15.2481 6.2698 14.7774 6.42637 14.3646C6.4774 14.2301 6.52982 14.0955 6.58 13.9665C6.67518 13.7221 6.76232 13.4982 6.81675 13.3349C6.90598 13.0672 6.82517 12.7721 6.61198 12.5872C6.3988 12.4023 6.09523 12.3641 5.84284 12.4903L5.82083 12.5013C5.31766 12.7529 4.78757 13.0179 4.24604 13.3702C4.71663 11.4224 6.00268 10.2174 7.08942 9.34622C7.24416 9.22217 7.3388 9.03813 7.34967 8.8401C7.36054 8.64207 7.28661 8.44877 7.14637 8.30853L5.17305 6.33521C4.71895 5.88112 4.71895 5.14488 5.17305 4.69078C5.62715 4.23668 6.36339 4.23668 6.81748 4.69078L7.80414 5.67744C8.06635 5.93964 8.4881 5.95068 8.76394 5.70292Z" fill="#8A8A8A"/>
<path fill-rule="evenodd" clip-rule="evenodd" d="M16.5691 5.70292L16.5678 5.70184L16.5552 5.69081C16.5431 5.68029 16.5236 5.6636 16.4971 5.64161C16.4442 5.59761 16.3638 5.53263 16.2593 5.45364C16.0496 5.2952 15.7463 5.08285 15.3762 4.87081C14.624 4.43978 13.656 4.04452 12.6665 4.04452C12.2812 4.04452 11.9688 3.73216 11.9688 3.34684C11.9688 2.96153 12.2812 2.64917 12.6665 2.64917C14.0026 2.64917 15.2191 3.17254 16.07 3.66014C16.436 3.8699 16.7455 4.07943 16.9812 4.25175L17.5289 3.70412C18.5279 2.7051 20.1476 2.7051 21.1466 3.70412C22.1456 4.70313 22.1456 6.32286 21.1466 7.32187L19.712 8.75646C21.0818 9.96457 22.6665 11.8599 22.6665 14.9748C22.6665 15.2569 22.4965 15.5113 22.2358 15.6193C21.9751 15.7273 21.675 15.6676 21.4755 15.4681C21.1485 15.1411 20.8223 14.8774 20.4911 14.6499C20.5679 14.88 20.6431 15.1222 20.7115 15.3717C21.0058 16.4455 21.2179 17.8006 20.7562 18.9548C20.6718 19.166 20.4896 19.3227 20.2682 19.3748C20.0468 19.4269 19.8139 19.3678 19.6441 19.2164L18.1936 17.9229L16.9894 19.9786C16.9723 20.0076 16.9532 20.0354 16.9322 20.0617C16.6345 20.4338 16.1541 20.8649 15.5494 21.1228C14.9271 21.3882 14.1501 21.4757 13.3519 21.0892C12.198 20.5304 11.9688 19.2056 11.9688 18.3207V17.3003C11.9688 16.915 12.2812 16.6027 12.6665 16.6027C13.0518 16.6027 13.3642 16.915 13.3642 17.3003V18.3207C13.3642 19.1256 13.593 19.6556 13.96 19.8333C14.3227 20.009 14.6697 19.981 15.002 19.8393C15.3339 19.6978 15.6252 19.4497 15.813 19.2262L17.4202 16.4826C17.5259 16.3021 17.707 16.1786 17.9136 16.146C18.1202 16.1135 18.3305 16.1753 18.4865 16.3145L19.6288 17.3332C19.617 16.8403 19.5185 16.2977 19.3658 15.7406C19.2308 15.2481 19.0632 14.7774 18.9066 14.3646C18.8556 14.2301 18.8032 14.0955 18.753 13.9665C18.6578 13.7221 18.5707 13.4982 18.5163 13.3349C18.427 13.0672 18.5078 12.7721 18.721 12.5872C18.9342 12.4023 19.2378 12.3641 19.4902 12.4903L19.5122 12.5013C20.0154 12.7529 20.5454 13.0179 21.087 13.3702C20.6164 11.4224 19.3303 10.2174 18.2436 9.34622C18.0888 9.22217 17.9942 9.03813 17.9833 8.8401C17.9725 8.64207 18.0464 8.44877 18.1866 8.30853L20.16 6.33521C20.6141 5.88112 20.6141 5.14488 20.16 4.69078C19.7059 4.23668 18.9696 4.23668 18.5155 4.69078L17.5289 5.67744C17.2667 5.93964 16.8449 5.95068 16.5691 5.70292Z" fill="#8A8A8A"/>
<path fill-rule="evenodd" clip-rule="evenodd" d="M12.1097 15.6724L12.6665 16.5077L13.2234 15.6724H12.1097ZM10.4184 15.651C10.0268 15.0637 10.4478 14.2771 11.1537 14.2771H14.1793C14.8852 14.2771 15.3062 15.0637 14.9146 15.651L13.4018 17.9202C13.052 18.4449 12.281 18.4449 11.9312 17.9202L10.4184 15.651Z" fill="#8A8A8A"/>
<path fill-rule="evenodd" clip-rule="evenodd" d="M9.08372 8.46555C9.4559 8.56528 9.67678 8.94784 9.57705 9.32002C9.47732 9.69221 9.69819 10.0748 10.0704 10.1745C10.4426 10.2742 10.8251 10.0534 10.9249 9.68116C11.0246 9.30898 11.4071 9.08811 11.7793 9.18783C12.1515 9.28756 12.3724 9.67012 12.2727 10.0423C11.9735 11.1589 10.8258 11.8215 9.70924 11.5223C8.59268 11.2231 7.93006 10.0754 8.22925 8.95888C8.32897 8.58669 8.71153 8.36582 9.08372 8.46555Z" fill="#8A8A8A"/>
<path fill-rule="evenodd" clip-rule="evenodd" d="M16.2494 8.46555C15.8772 8.56528 15.6563 8.94784 15.756 9.32002C15.8558 9.69221 15.6349 10.0748 15.2627 10.1745C14.8905 10.2742 14.508 10.0534 14.4082 9.68116C14.3085 9.30898 13.926 9.08811 13.5538 9.18783C13.1816 9.28756 12.9607 9.67012 13.0604 10.0423C13.3596 11.1589 14.5073 11.8215 15.6239 11.5223C16.7404 11.2231 17.403 10.0754 17.1038 8.95888C17.0041 8.58669 16.6216 8.36582 16.2494 8.46555Z" fill="#8A8A8A"/>
<path fill-rule="evenodd" clip-rule="evenodd" d="M12.8991 3.37682C13.2844 3.37682 13.5967 3.68918 13.5967 4.0745V7.26808C13.5967 7.6534 13.2844 7.96576 12.8991 7.96576C12.5137 7.96576 12.2014 7.6534 12.2014 7.26808V4.0745C12.2014 3.68918 12.5137 3.37682 12.8991 3.37682Z" fill="#8A8A8A"/>
</svg>
