<svg width="25" height="24" viewBox="0 0 25 24" fill="none" xmlns="http://www.w3.org/2000/svg">
<path fill-rule="evenodd" clip-rule="evenodd" d="M20.4936 6.19083C18.0226 3.12327 14.7531 1.67562 12.0578 1.43688C10.7171 1.31813 9.46422 1.4944 8.51306 1.97711C7.70066 2.38939 7.07171 3.05452 6.88914 3.94189C6.25449 4.16721 5.45067 4.49622 4.78294 5.13328C3.92533 5.9515 3.36914 7.18679 3.36914 9.0865C3.36914 10.033 3.77142 11.075 4.11719 11.8123C4.29694 12.1956 4.47606 12.5264 4.61029 12.7617C4.67758 12.8796 4.73406 12.9744 4.77432 13.0406C4.79446 13.0737 4.81058 13.0997 4.822 13.118L4.83553 13.1395L4.83951 13.1458L4.84155 13.149C4.99893 13.395 5.28477 13.5272 5.57413 13.488C5.86347 13.4487 6.10386 13.2447 6.19004 12.9657L6.19072 12.9635L6.19376 12.9537L6.20636 12.9136C6.2176 12.878 6.23445 12.825 6.25643 12.757C6.30041 12.6211 6.36487 12.4252 6.44614 12.188C6.60898 11.7127 6.8378 11.0755 7.10314 10.4226C7.37008 9.76575 7.66636 9.112 7.96206 8.59512C8.10657 8.34252 8.2423 8.13796 8.36477 7.98681C8.84891 8.37013 9.40505 8.64426 9.97052 8.86397C10.563 9.09416 11.2269 9.28545 11.8746 9.47204C12.1084 9.53941 12.3401 9.60617 12.5656 9.67392C13.4455 9.93836 14.2923 10.2334 15.0612 10.6722C16.3999 11.4362 17.3114 12.4387 17.8033 13.6132C17.8024 13.6288 17.8019 13.6445 17.8019 13.6603C17.8019 15.9667 16.8424 17.8371 15.6299 19.1366C15.0228 19.7872 14.3601 20.2858 13.7391 20.6183C13.1075 20.9564 12.5652 21.0987 12.1929 21.0987C11.2394 21.0987 10.2715 20.7999 9.41112 20.1971C9.07188 19.9594 8.6042 20.0417 8.36651 20.381C8.12883 20.7202 8.21115 21.1879 8.55038 21.4256C9.65558 22.1999 10.9225 22.5987 12.1929 22.5987C12.8951 22.5987 13.6849 22.3487 14.4471 21.9406C15.2199 21.5269 16.0126 20.9252 16.7266 20.1599C17.0161 19.8497 17.294 19.511 17.5531 19.1454C17.5337 19.1943 17.514 19.2432 17.4938 19.2924C17.355 19.6297 17.4791 20.018 17.7878 20.2123C18.0965 20.4066 18.5002 20.3507 18.7445 20.0798C19.8721 18.8288 21.3087 16.6603 21.9779 14.1697C22.6524 11.6594 22.5585 8.75415 20.4936 6.19083ZM7.37826 6.83807C7.16448 6.45413 7.01207 6.02179 6.92414 5.53532C6.51668 5.70538 6.14126 5.91052 5.81838 6.21857C5.3192 6.69482 4.86914 7.50287 4.86914 9.0865C4.86914 9.59192 5.06718 10.2355 5.3297 10.8506C5.44511 10.5376 5.57428 10.2005 5.71351 9.85785C5.99109 9.17481 6.31635 8.45107 6.66007 7.85026C6.83179 7.5501 7.0172 7.26449 7.2137 7.02485C7.26467 6.9627 7.31951 6.89972 7.37826 6.83807ZM8.33521 4.48167C8.3352 4.03132 8.58221 3.62412 9.19188 3.31472C9.81998 2.99597 10.7703 2.82872 11.9255 2.93103C14.2218 3.13443 17.1146 4.38728 19.3255 7.13183C21.0062 9.2182 21.1186 11.5871 20.5293 13.7805C20.3316 14.5164 20.0562 15.2248 19.7396 15.8837C19.7404 15.14 19.6408 14.4246 19.4398 13.7447C18.8967 11.9072 17.6376 10.4155 15.8047 9.36944C14.8843 8.84418 13.9056 8.51036 12.9973 8.23739C12.7305 8.1572 12.4739 8.08326 12.2264 8.01195C11.6036 7.8325 11.0385 7.66969 10.5138 7.4658C9.79567 7.18678 9.26903 6.87035 8.91543 6.44069C8.57563 6.02782 8.33521 5.43605 8.33521 4.48167Z" fill="#8A8A8A"/>
<path fill-rule="evenodd" clip-rule="evenodd" d="M6.23047 14.135C6.64468 14.135 6.98047 14.4708 6.98047 14.885C6.98047 15.3491 7.16484 15.7943 7.49303 16.1224C7.82122 16.4506 8.26634 16.635 8.73047 16.635C9.14468 16.635 9.48047 16.9708 9.48047 17.385C9.48047 17.7992 9.14468 18.135 8.73047 18.135C8.26634 18.135 7.82122 18.3194 7.49303 18.6476C7.16484 18.9758 6.98047 19.4209 6.98047 19.885C6.98047 20.2992 6.64468 20.635 6.23047 20.635C5.81626 20.635 5.48047 20.2992 5.48047 19.885C5.48047 19.4209 5.29609 18.9758 4.96791 18.6476C4.63972 18.3194 4.1946 18.135 3.73047 18.135C3.31626 18.135 2.98047 17.7992 2.98047 17.385C2.98047 16.9708 3.31626 16.635 3.73047 16.635C4.1946 16.635 4.63972 16.4506 4.96791 16.1224C5.29609 15.7943 5.48047 15.3491 5.48047 14.885C5.48047 14.4708 5.81626 14.135 6.23047 14.135ZM6.23047 16.9617C6.16687 17.0382 6.09953 17.1121 6.02857 17.1831C5.9576 17.2541 5.8837 17.3214 5.80714 17.385C5.8837 17.4486 5.9576 17.516 6.02857 17.5869C6.09953 17.6579 6.16687 17.7318 6.23047 17.8083C6.29407 17.7318 6.36141 17.6579 6.43237 17.5869C6.50333 17.516 6.57724 17.4486 6.6538 17.385C6.57724 17.3214 6.50333 17.2541 6.43237 17.1831C6.36141 17.1121 6.29407 17.0382 6.23047 16.9617Z" fill="#8A8A8A"/>
</svg>
