<svg width="25" height="24" viewBox="0 0 25 24" fill="none" xmlns="http://www.w3.org/2000/svg">
<path d="M17.4466 2.73809C17.7395 2.4452 17.7395 1.97033 17.4466 1.67743C17.1537 1.38454 16.6788 1.38454 16.3859 1.67743L15.9719 2.09151C15.8558 2.20763 15.7179 2.29974 15.5663 2.36259C15.4146 2.42543 15.252 2.45777 15.0878 2.45776H14.7448C14.3835 2.45775 14.0259 2.52891 13.6922 2.66716C13.3585 2.80539 13.0552 3.00809 12.7998 3.26351L12.3859 3.67743C12.093 3.97033 12.093 4.4452 12.3859 4.73809C12.6788 5.03099 13.1537 5.03099 13.4466 4.73809L13.8607 4.32401C13.9768 4.2079 14.1146 4.11578 14.2663 4.05294C14.418 3.9901 14.5806 3.95776 14.7448 3.95776H15.0878C15.449 3.95777 15.8066 3.88662 16.1404 3.74837C16.4741 3.61012 16.7773 3.40747 17.0327 3.15201L17.4466 2.73809Z" fill="#8A8A8A"/>
<path fill-rule="evenodd" clip-rule="evenodd" d="M7.41626 6.04248C7.00205 6.04248 6.66626 6.37827 6.66626 6.79248C6.66626 7.20669 7.00205 7.54248 7.41626 7.54248H8.05973L8.05713 7.56119L6.25963 21.0425H2.91626C2.50205 21.0425 2.16626 21.3783 2.16626 21.7925C2.16626 22.2067 2.50205 22.5425 2.91626 22.5425H22.9163C23.3305 22.5425 23.6663 22.2067 23.6663 21.7925C23.6663 21.3783 23.3305 21.0425 22.9163 21.0425H19.5729L17.7754 7.56119L17.7728 7.54248H18.4163C18.8305 7.54248 19.1663 7.20669 19.1663 6.79248C19.1663 6.37827 18.8305 6.04248 18.4163 6.04248H7.41626ZM16.0407 7.54248H9.79178C9.66648 7.54248 9.56053 7.63524 9.54397 7.75944L9.10624 11.0425H16.7263L16.2886 7.75944C16.272 7.63524 16.166 7.54248 16.0407 7.54248ZM8.43957 16.0425L8.90624 12.5425H16.9263L17.393 16.0425H8.43957ZM8.23957 17.5425H17.593L18.0596 21.0425H7.7729L8.23957 17.5425Z" fill="#8A8A8A"/>
</svg>
