<svg width="25" height="24" viewBox="0 0 25 24" fill="none" xmlns="http://www.w3.org/2000/svg">
<circle cx="11.3964" cy="8.00671" r="1.79602" fill="#B3D3EC"/>
<path fill-rule="evenodd" clip-rule="evenodd" d="M14.3132 8C14.3132 9.65685 12.9521 11 11.2732 11C9.59422 11 8.23317 9.65685 8.23317 8C8.23317 6.34315 9.59422 5 11.2732 5C12.9521 5 14.3132 6.34315 14.3132 8ZM12.7932 8C12.7932 8.82843 12.1126 9.5 11.2732 9.5C10.4337 9.5 9.75317 8.82843 9.75317 8C9.75317 7.17157 10.4337 6.5 11.2732 6.5C12.1126 6.5 12.7932 7.17157 12.7932 8Z" fill="#016BBF"/>
<path fill-rule="evenodd" clip-rule="evenodd" d="M17.3532 8C17.3532 11.3137 14.6311 14 11.2732 14C7.91528 14 5.19317 11.3137 5.19317 8C5.19317 4.68629 7.91528 2 11.2732 2C14.6311 2 17.3532 4.68629 17.3532 8ZM15.8332 8C15.8332 10.4853 13.7916 12.5 11.2732 12.5C8.75475 12.5 6.71317 10.4853 6.71317 8C6.71317 5.51472 8.75475 3.5 11.2732 3.5C13.7916 3.5 15.8332 5.51472 15.8332 8Z" fill="#016BBF"/>
<path fill-rule="evenodd" clip-rule="evenodd" d="M19.3798 17.25V16C19.3798 14.8954 18.4725 14 17.3532 14H11.2732H5.19317C4.07387 14 3.1665 14.8954 3.1665 16V20C3.1665 21.1046 4.07387 22 5.19317 22H17.3532C18.4725 22 19.3798 21.1046 19.3798 20V18.75C20.9189 18.75 22.1665 17.5188 22.1665 16V13C22.1665 12.0335 21.3726 11.25 20.3932 11.25C19.9734 11.25 19.6332 11.5858 19.6332 12C19.6332 12.4142 19.9734 12.75 20.3932 12.75C20.5331 12.75 20.6465 12.8619 20.6465 13V16C20.6465 16.6904 20.0794 17.25 19.3798 17.25ZM17.8598 16C17.8598 15.7239 17.633 15.5 17.3532 15.5H5.19317C4.91335 15.5 4.6865 15.7239 4.6865 16V20C4.6865 20.2761 4.91335 20.5 5.19317 20.5H17.3532C17.633 20.5 17.8598 20.2761 17.8598 20V16Z" fill="#016BBF"/>
</svg>
