<svg width="25" height="24" viewBox="0 0 25 24" fill="none" xmlns="http://www.w3.org/2000/svg">
<path d="M12.1665 7C13.2274 7 14.2448 7.42143 14.9949 8.17157C15.7451 8.92172 16.1665 9.93913 16.1665 11V20C16.1665 20.2652 16.0611 20.5196 15.8736 20.7071C15.6861 20.8946 15.4317 21 15.1665 21H9.1665C8.90129 21 8.64693 20.8946 8.4594 20.7071C8.27186 20.5196 8.1665 20.2652 8.1665 20V11C8.1665 9.93913 8.58793 8.92172 9.33808 8.17157C10.0882 7.42143 11.1056 7 12.1665 7Z" fill="#B3D3EC"/>
<path fill-rule="evenodd" clip-rule="evenodd" d="M16.3484 3.72754L15.2588 3.99993L16.3484 4.27233C16.7503 4.37279 16.9946 4.77999 16.8941 5.18183C16.7936 5.58368 16.3864 5.828 15.9846 5.72754L12.9165 4.96052V6.3095C13.8984 6.4665 14.8132 6.92913 15.5253 7.64118C16.4161 8.53197 16.9165 9.74016 16.9165 10.9999V19.9999C16.9165 20.4641 16.7321 20.9092 16.4039 21.2374C16.0758 21.5656 15.6306 21.7499 15.1665 21.7499H9.1665C8.70238 21.7499 8.25726 21.5656 7.92907 21.2374C7.60088 20.9092 7.4165 20.4641 7.4165 19.9999V10.9999C7.4165 9.74016 7.91695 8.53197 8.80775 7.64118C9.51979 6.92913 10.4346 6.4665 11.4165 6.3095V4.74993H9.1665C8.56977 4.74993 7.99747 4.98699 7.57551 5.40894C7.15356 5.8309 6.9165 6.4032 6.9165 6.99993C6.9165 7.41415 6.58072 7.74993 6.1665 7.74993C5.75229 7.74993 5.4165 7.41415 5.4165 6.99993C5.4165 6.00537 5.81159 5.05154 6.51485 4.34828C7.21811 3.64502 8.17194 3.24993 9.1665 3.24993H12.0742L15.9846 2.27233C16.3864 2.17186 16.7936 2.41619 16.8941 2.81803C16.9946 3.21988 16.7503 3.62708 16.3484 3.72754ZM12.1665 7.74993C11.3046 7.74993 10.4779 8.09234 9.86841 8.70184C9.25891 9.31133 8.9165 10.138 8.9165 10.9999V15.2926C8.9947 15.265 9.07885 15.2499 9.1665 15.2499H15.1665C15.2542 15.2499 15.3383 15.265 15.4165 15.2926V10.9999C15.4165 10.138 15.0741 9.31133 14.4646 8.70184C13.8551 8.09234 13.0285 7.74993 12.1665 7.74993ZM8.9165 19.9999V16.7073C8.9947 16.7349 9.07885 16.7499 9.1665 16.7499H15.1665C15.2542 16.7499 15.3383 16.7349 15.4165 16.7073V19.9999C15.4165 20.0662 15.3902 20.1298 15.3433 20.1767C15.2964 20.2236 15.2328 20.2499 15.1665 20.2499H9.1665C9.1002 20.2499 9.03661 20.2236 8.98973 20.1767C8.94284 20.1298 8.9165 20.0662 8.9165 19.9999Z" fill="#016BBF"/>
</svg>
