<svg width="25" height="25" viewBox="0 0 25 25" fill="none" xmlns="http://www.w3.org/2000/svg">
<path fill-rule="evenodd" clip-rule="evenodd" d="M14.3132 8.98145C14.3132 10.6383 12.9521 11.9814 11.2732 11.9814C9.59422 11.9814 8.23317 10.6383 8.23317 8.98145C8.23317 7.32459 9.59422 5.98145 11.2732 5.98145C12.9521 5.98145 14.3132 7.32459 14.3132 8.98145ZM12.7932 8.98145C12.7932 9.80987 12.1126 10.4814 11.2732 10.4814C10.4337 10.4814 9.75317 9.80987 9.75317 8.98145C9.75317 8.15302 10.4337 7.48145 11.2732 7.48145C12.1126 7.48145 12.7932 8.15302 12.7932 8.98145Z" fill="#8A8A8A"/>
<path fill-rule="evenodd" clip-rule="evenodd" d="M17.3532 8.98145C17.3532 12.2952 14.6311 14.9814 11.2732 14.9814C7.91528 14.9814 5.19317 12.2952 5.19317 8.98145C5.19317 5.66774 7.91528 2.98145 11.2732 2.98145C14.6311 2.98145 17.3532 5.66774 17.3532 8.98145ZM15.8332 8.98145C15.8332 11.4667 13.7916 13.4814 11.2732 13.4814C8.75475 13.4814 6.71317 11.4667 6.71317 8.98145C6.71317 6.49616 8.75475 4.48145 11.2732 4.48145C13.7916 4.48145 15.8332 6.49616 15.8332 8.98145Z" fill="#8A8A8A"/>
<path fill-rule="evenodd" clip-rule="evenodd" d="M19.3798 18.2314V16.9814C19.3798 15.8769 18.4725 14.9814 17.3532 14.9814H11.2732H5.19317C4.07387 14.9814 3.1665 15.8769 3.1665 16.9814V20.9814C3.1665 22.086 4.07387 22.9814 5.19317 22.9814H17.3532C18.4725 22.9814 19.3798 22.086 19.3798 20.9814V19.7314C20.9189 19.7314 22.1665 18.5002 22.1665 16.9814V13.9814C22.1665 13.0149 21.3726 12.2314 20.3932 12.2314C19.9734 12.2314 19.6332 12.5672 19.6332 12.9814C19.6332 13.3957 19.9734 13.7314 20.3932 13.7314C20.5331 13.7314 20.6465 13.8434 20.6465 13.9814V16.9814C20.6465 17.6718 20.0794 18.2314 19.3798 18.2314ZM17.8598 16.9814C17.8598 16.7053 17.633 16.4814 17.3532 16.4814H5.19317C4.91335 16.4814 4.6865 16.7053 4.6865 16.9814V20.9814C4.6865 21.2576 4.91335 21.4814 5.19317 21.4814H17.3532C17.633 21.4814 17.8598 21.2576 17.8598 20.9814V16.9814Z" fill="#8A8A8A"/>
</svg>
