<svg width="25" height="24" viewBox="0 0 25 24" fill="none" xmlns="http://www.w3.org/2000/svg">
<path fill-rule="evenodd" clip-rule="evenodd" d="M5.31641 4C5.31641 3.0335 6.09991 2.25 7.06641 2.25H12.2664C13.2329 2.25 14.0164 3.0335 14.0164 4V5.59999C14.0164 5.63687 14.0152 5.67349 14.013 5.70981L15.4939 7.19067C16.0846 7.78141 16.4165 8.58262 16.4165 9.41805V10.227C16.4165 10.6413 16.0807 10.977 15.6665 10.977C15.2523 10.977 14.9165 10.6413 14.9165 10.227V9.41805C14.9165 8.98045 14.7426 8.56076 14.4332 8.25133L13.2377 7.05588C12.9598 7.24166 12.6258 7.34999 12.2664 7.34999H7.06641C6.70707 7.34999 6.37303 7.24169 6.09514 7.05594L4.89978 8.25131C4.59034 8.56074 4.4165 8.98042 4.4165 9.41803V18.5999C4.4165 19.0375 4.59034 19.4572 4.89978 19.7666C5.20921 20.076 5.62889 20.2499 6.0665 20.2499L13.2665 20.2499C13.7041 20.2499 14.1238 20.0761 14.4332 19.7666C14.7426 19.4572 14.9165 19.0375 14.9165 18.5999C14.9165 18.1857 15.2523 17.8499 15.6665 17.8499C16.0807 17.8499 16.4165 18.1857 16.4165 18.5999C16.4165 19.4353 16.0846 20.2366 15.4939 20.8273C14.9031 21.418 14.1019 21.7499 13.2665 21.7499L6.0665 21.7499C5.23107 21.7499 4.42985 21.418 3.83912 20.8273C3.24838 20.2365 2.9165 19.4353 2.9165 18.5999V9.41803C2.9165 8.5826 3.24838 7.78139 3.83912 7.19065L5.31981 5.70996C5.31755 5.67359 5.31641 5.63692 5.31641 5.59999V4ZM7.06641 3.75C6.92834 3.75 6.81641 3.86193 6.81641 4V5.59999C6.81641 5.73806 6.92834 5.84999 7.06641 5.84999H12.2664C12.4045 5.84999 12.5164 5.73806 12.5164 5.59999V4C12.5164 3.86193 12.4045 3.75 12.2664 3.75H7.06641Z" fill="#8A8A8A"/>
<path fill-rule="evenodd" clip-rule="evenodd" d="M15.6221 13.149L16.9628 11.8083L18.3038 10.4674C18.7556 10.0155 19.3684 9.76172 20.0073 9.76172C20.6463 9.76172 21.259 10.0155 21.7109 10.4674C22.1627 10.9192 22.4165 11.5319 22.4165 12.1709C22.4165 12.8098 22.1627 13.4226 21.7109 13.8744L19.0292 16.5561C18.5774 17.0079 17.9646 17.2617 17.3257 17.2617C16.6867 17.2617 16.0739 17.0079 15.6221 16.5561C15.1703 16.1043 14.9165 15.4915 14.9165 14.8525C14.9165 14.2136 15.1703 13.6008 15.6221 13.149ZM19.3644 11.528C19.5349 11.3575 19.7662 11.2617 20.0073 11.2617C20.2484 11.2617 20.4797 11.3575 20.6502 11.528C20.8207 11.6985 20.9165 11.9298 20.9165 12.1709C20.9165 12.412 20.8207 12.6433 20.6502 12.8138L19.8396 13.6244L18.5538 12.3386L19.3644 11.528ZM17.4931 13.3993L18.7789 14.6851L17.9686 15.4954C17.7981 15.6659 17.5668 15.7617 17.3257 15.7617C17.0846 15.7617 16.8533 15.6659 16.6828 15.4954C16.5123 15.3249 16.4165 15.0937 16.4165 14.8525C16.4165 14.6114 16.5123 14.3801 16.6828 14.2096L17.4931 13.3993Z" fill="#8A8A8A"/>
<path fill-rule="evenodd" clip-rule="evenodd" d="M9.6665 10.7617C8.93716 10.7617 8.23769 11.0514 7.72196 11.5672C7.20623 12.0829 6.9165 12.7824 6.9165 13.5117C6.9165 14.2411 7.20623 14.9405 7.72196 15.4563C8.23769 15.972 8.93716 16.2617 9.6665 16.2617C10.3958 16.2617 11.0953 15.972 11.611 15.4563C12.1268 14.9405 12.4165 14.2411 12.4165 13.5117C12.4165 12.7824 12.1268 12.0829 11.611 11.5672C11.0953 11.0514 10.3958 10.7617 9.6665 10.7617ZM8.78262 12.6278C9.01704 12.3934 9.33498 12.2617 9.6665 12.2617C9.99802 12.2617 10.316 12.3934 10.5504 12.6278C10.7848 12.8623 10.9165 13.1802 10.9165 13.5117C10.9165 13.8432 10.7848 14.1612 10.5504 14.3956C10.316 14.63 9.99802 14.7617 9.6665 14.7617C9.33498 14.7617 9.01704 14.63 8.78262 14.3956C8.5482 14.1612 8.4165 13.8432 8.4165 13.5117C8.4165 13.1802 8.5482 12.8623 8.78262 12.6278Z" fill="#8A8A8A"/>
</svg>
