<svg width="25" height="25" viewBox="0 0 25 25" fill="none" xmlns="http://www.w3.org/2000/svg">
<path d="M9.74726 15.5773L12.6357 18.029L15.121 16.4171L15.5576 13.4615L12.6357 12.2188L9.51221 13.4615L9.74726 15.5773Z" fill="#B3D3EC"/>
<path fill-rule="evenodd" clip-rule="evenodd" d="M7.6665 3.23169C6.14772 3.23169 4.9165 4.46291 4.9165 5.98169V21.2317H3.6665C3.25229 21.2317 2.9165 21.5675 2.9165 21.9817C2.9165 22.3959 3.25229 22.7317 3.6665 22.7317H7.6665C8.08072 22.7317 8.4165 22.3959 8.4165 21.9817C8.4165 21.5675 8.08072 21.2317 7.6665 21.2317H6.4165V8.98169H18.9165V21.2317H17.6665C17.2523 21.2317 16.9165 21.5675 16.9165 21.9817C16.9165 22.3959 17.2523 22.7317 17.6665 22.7317H21.6665C22.0807 22.7317 22.4165 22.3959 22.4165 21.9817C22.4165 21.5675 22.0807 21.2317 21.6665 21.2317H20.4165V5.98169C20.4165 4.46291 19.1853 3.23169 17.6665 3.23169H7.6665ZM18.9165 7.48169H6.4165V5.98169C6.4165 5.29133 6.97615 4.73169 7.6665 4.73169H17.6665C18.3569 4.73169 18.9165 5.29133 18.9165 5.98169V7.48169Z" fill="#016BBF"/>
<path fill-rule="evenodd" clip-rule="evenodd" d="M13.1636 11.4764C12.8798 11.2253 12.4534 11.2253 12.1696 11.4764C11.537 12.0361 10.7114 12.3275 9.86756 12.2889C9.52243 12.2731 9.21116 12.4951 9.11372 12.8266C8.93418 13.4373 8.87924 14.078 8.95218 14.7104C9.02511 15.3428 9.22443 15.9541 9.53829 16.508C9.85216 17.0619 10.2742 17.547 10.7792 17.9346C11.2843 18.3221 11.8621 18.6042 12.4783 18.7641C12.6018 18.7961 12.7314 18.7961 12.8549 18.7641C13.4711 18.6042 14.049 18.3221 14.554 17.9346C15.0591 17.547 15.4811 17.0619 15.7949 16.508C16.1088 15.9541 16.3081 15.3428 16.381 14.7104C16.454 14.078 16.399 13.4373 16.2195 12.8266C16.1221 12.4951 15.8108 12.2731 15.4657 12.2889C14.6219 12.3275 13.7962 12.0361 13.1636 11.4764ZM10.4423 14.5386C10.4129 14.2835 10.4139 14.0265 10.4448 13.7729C11.2397 13.7009 12.0041 13.4295 12.6666 12.984C13.3291 13.4295 14.0935 13.7009 14.8884 13.7729C14.9194 14.0265 14.9203 14.2835 14.8909 14.5386C14.841 14.9713 14.7046 15.3895 14.4899 15.7685C14.2751 16.1475 13.9864 16.4794 13.6408 16.7446C13.3472 16.9699 13.0177 17.1431 12.6666 17.2572C12.3155 17.1431 11.986 16.9699 11.6924 16.7446C11.3468 16.4794 11.0581 16.1475 10.8433 15.7685C10.6286 15.3895 10.4922 14.9713 10.4423 14.5386Z" fill="#016BBF"/>
</svg>
