<svg width="25" height="25" viewBox="0 0 25 25" fill="none" xmlns="http://www.w3.org/2000/svg">
<path fill-rule="evenodd" clip-rule="evenodd" d="M7.6665 3.23145C6.14772 3.23145 4.9165 4.46266 4.9165 5.98145V21.2314H3.6665C3.25229 21.2314 2.9165 21.5672 2.9165 21.9814C2.9165 22.3957 3.25229 22.7314 3.6665 22.7314H7.6665C8.08072 22.7314 8.4165 22.3957 8.4165 21.9814C8.4165 21.5672 8.08072 21.2314 7.6665 21.2314H6.4165V8.98145H18.9165V21.2314H17.6665C17.2523 21.2314 16.9165 21.5672 16.9165 21.9814C16.9165 22.3957 17.2523 22.7314 17.6665 22.7314H21.6665C22.0807 22.7314 22.4165 22.3957 22.4165 21.9814C22.4165 21.5672 22.0807 21.2314 21.6665 21.2314H20.4165V5.98145C20.4165 4.46266 19.1853 3.23145 17.6665 3.23145H7.6665ZM18.9165 7.48145V5.98145C18.9165 5.29109 18.3569 4.73145 17.6665 4.73145H7.6665C6.97615 4.73145 6.4165 5.29109 6.4165 5.98145V7.48145H18.9165Z" fill="#8A8A8A"/>
<path fill-rule="evenodd" clip-rule="evenodd" d="M12.6665 14.9814C14.0472 14.9814 15.1665 13.8622 15.1665 12.4814C15.1665 11.1007 14.0472 9.98145 12.6665 9.98145C11.2858 9.98145 10.1665 11.1007 10.1665 12.4814C10.1665 13.8622 11.2858 14.9814 12.6665 14.9814ZM12.6665 13.4814C13.2188 13.4814 13.6665 13.0337 13.6665 12.4814C13.6665 11.9292 13.2188 11.4814 12.6665 11.4814C12.1142 11.4814 11.6665 11.9292 11.6665 12.4814C11.6665 13.0337 12.1142 13.4814 12.6665 13.4814Z" fill="#8A8A8A"/>
<path d="M11.3808 15.7314C10.6866 15.7314 10.0492 16.0541 9.59916 16.5791C9.15219 17.1006 8.9165 17.7863 8.9165 18.4814V19.4814C8.9165 19.8957 9.25229 20.2314 9.6665 20.2314C10.0807 20.2314 10.4165 19.8957 10.4165 19.4814V18.4814C10.4165 18.1158 10.542 17.784 10.738 17.5553C10.931 17.3302 11.1656 17.2314 11.3808 17.2314H13.9522C14.1674 17.2314 14.402 17.3302 14.595 17.5553C14.791 17.784 14.9165 18.1158 14.9165 18.4814V19.4814C14.9165 19.8957 15.2523 20.2314 15.6665 20.2314C16.0807 20.2314 16.4165 19.8957 16.4165 19.4814V18.4814C16.4165 17.7863 16.1808 17.1006 15.7338 16.5791C15.2838 16.0541 14.6464 15.7314 13.9522 15.7314H11.3808Z" fill="#8A8A8A"/>
</svg>
