<svg width="25" height="25" viewBox="0 0 25 25" fill="none" xmlns="http://www.w3.org/2000/svg">
<path fill-rule="evenodd" clip-rule="evenodd" d="M7.6665 3.23145C6.14772 3.23145 4.9165 4.46266 4.9165 5.98145V21.2314H3.6665C3.25229 21.2314 2.9165 21.5672 2.9165 21.9814C2.9165 22.3957 3.25229 22.7314 3.6665 22.7314H7.6665C8.08072 22.7314 8.4165 22.3957 8.4165 21.9814C8.4165 21.5672 8.08072 21.2314 7.6665 21.2314H6.4165V8.98145H18.9165V21.2314H17.6665C17.2523 21.2314 16.9165 21.5672 16.9165 21.9814C16.9165 22.3957 17.2523 22.7314 17.6665 22.7314H21.6665C22.0807 22.7314 22.4165 22.3957 22.4165 21.9814C22.4165 21.5672 22.0807 21.2314 21.6665 21.2314H20.4165V5.98145C20.4165 4.46266 19.1853 3.23145 17.6665 3.23145H7.6665ZM18.9165 7.48145H6.4165V5.98145C6.4165 5.29109 6.97615 4.73145 7.6665 4.73145H17.6665C18.3569 4.73145 18.9165 5.29109 18.9165 5.98145V7.48145Z" fill="#8A8A8A"/>
<path fill-rule="evenodd" clip-rule="evenodd" d="M13.1636 11.4761C12.8798 11.2251 12.4534 11.2251 12.1696 11.4761C11.537 12.0358 10.7114 12.3272 9.86756 12.2886C9.52243 12.2728 9.21116 12.4949 9.11372 12.8263C8.93418 13.4371 8.87924 14.0777 8.95218 14.7102C9.02511 15.3426 9.22443 15.9539 9.53829 16.5078C9.85216 17.0617 10.2742 17.5468 10.7792 17.9343C11.2843 18.3219 11.8621 18.604 12.4783 18.7638C12.6018 18.7958 12.7314 18.7958 12.8549 18.7638C13.4711 18.604 14.049 18.3219 14.554 17.9343C15.0591 17.5468 15.4811 17.0617 15.7949 16.5078C16.1088 15.9539 16.3081 15.3426 16.381 14.7102C16.454 14.0777 16.399 13.4371 16.2195 12.8263C16.1221 12.4949 15.8108 12.2728 15.4657 12.2886C14.6219 12.3272 13.7962 12.0358 13.1636 11.4761ZM10.4423 14.5383C10.4129 14.2833 10.4139 14.0263 10.4448 13.7727C11.2397 13.7006 12.0041 13.4293 12.6666 12.9838C13.3291 13.4293 14.0935 13.7006 14.8884 13.7727C14.9194 14.0263 14.9203 14.2833 14.8909 14.5383C14.841 14.971 14.7046 15.3893 14.4899 15.7683C14.2751 16.1472 13.9864 16.4792 13.6408 16.7443C13.3472 16.9696 13.0177 17.1428 12.6666 17.2569C12.3155 17.1428 11.986 16.9696 11.6924 16.7443C11.3468 16.4792 11.0581 16.1472 10.8433 15.7683C10.6286 15.3893 10.4922 14.971 10.4423 14.5383Z" fill="#8A8A8A"/>
</svg>
