<svg width="25" height="25" viewBox="0 0 25 25" fill="none" xmlns="http://www.w3.org/2000/svg">
<circle cx="12.7271" cy="12.4331" r="1.33789" fill="#B3D3EC"/>
<path fill-rule="evenodd" clip-rule="evenodd" d="M7.6665 3.23169C6.14772 3.23169 4.9165 4.46291 4.9165 5.98169V21.2317H3.6665C3.25229 21.2317 2.9165 21.5675 2.9165 21.9817C2.9165 22.3959 3.25229 22.7317 3.6665 22.7317H7.6665C8.08072 22.7317 8.4165 22.3959 8.4165 21.9817C8.4165 21.5675 8.08072 21.2317 7.6665 21.2317H6.4165V8.98169H18.9165V21.2317H17.6665C17.2523 21.2317 16.9165 21.5675 16.9165 21.9817C16.9165 22.3959 17.2523 22.7317 17.6665 22.7317H21.6665C22.0807 22.7317 22.4165 22.3959 22.4165 21.9817C22.4165 21.5675 22.0807 21.2317 21.6665 21.2317H20.4165V5.98169C20.4165 4.46291 19.1853 3.23169 17.6665 3.23169H7.6665ZM18.9165 7.48169V5.98169C18.9165 5.29133 18.3569 4.73169 17.6665 4.73169H7.6665C6.97615 4.73169 6.4165 5.29133 6.4165 5.98169V7.48169H18.9165Z" fill="#016BBF"/>
<path fill-rule="evenodd" clip-rule="evenodd" d="M12.6665 14.9817C14.0472 14.9817 15.1665 13.8624 15.1665 12.4817C15.1665 11.101 14.0472 9.98169 12.6665 9.98169C11.2858 9.98169 10.1665 11.101 10.1665 12.4817C10.1665 13.8624 11.2858 14.9817 12.6665 14.9817ZM12.6665 13.4817C13.2188 13.4817 13.6665 13.034 13.6665 12.4817C13.6665 11.9294 13.2188 11.4817 12.6665 11.4817C12.1142 11.4817 11.6665 11.9294 11.6665 12.4817C11.6665 13.034 12.1142 13.4817 12.6665 13.4817Z" fill="#016BBF"/>
<path d="M11.3808 15.7317C10.6866 15.7317 10.0492 16.0543 9.59916 16.5794C9.15219 17.1008 8.9165 17.7865 8.9165 18.4817V19.4817C8.9165 19.8959 9.25229 20.2317 9.6665 20.2317C10.0807 20.2317 10.4165 19.8959 10.4165 19.4817V18.4817C10.4165 18.116 10.542 17.7843 10.738 17.5556C10.931 17.3305 11.1656 17.2317 11.3808 17.2317H13.9522C14.1674 17.2317 14.402 17.3305 14.595 17.5556C14.791 17.7843 14.9165 18.116 14.9165 18.4817V19.4817C14.9165 19.8959 15.2523 20.2317 15.6665 20.2317C16.0807 20.2317 16.4165 19.8959 16.4165 19.4817V18.4817C16.4165 17.7865 16.1808 17.1008 15.7338 16.5794C15.2838 16.0543 14.6464 15.7317 13.9522 15.7317H11.3808Z" fill="#016BBF"/>
</svg>
