<svg width="25" height="25" viewBox="0 0 25 25" fill="none" xmlns="http://www.w3.org/2000/svg">
<path d="M12.5935 18.3246L12.2278 20.415L16.3559 22.7143L19.7003 20.8854L20.0138 16.7571L16.0424 14.092L12.2278 16.339L12.5935 18.3246Z" fill="#B3D3EC"/>
<path fill-rule="evenodd" clip-rule="evenodd" d="M11.2976 2.63867C10.0378 2.63867 8.82965 3.13912 7.93885 4.02991C7.04805 4.92071 6.54761 6.12889 6.54761 7.38867C6.54761 8.64845 7.04805 9.85663 7.93885 10.7474C8.82965 11.6382 10.0378 12.1387 11.2976 12.1387C12.5574 12.1387 13.7656 11.6382 14.6564 10.7474C15.5472 9.85663 16.0476 8.64845 16.0476 7.38867C16.0476 6.12889 15.5472 4.92071 14.6564 4.02991C13.7656 3.13912 12.5574 2.63867 11.2976 2.63867ZM8.99951 5.09057C9.609 4.48108 10.4357 4.13867 11.2976 4.13867C12.1596 4.13867 12.9862 4.48108 13.5957 5.09057C14.2052 5.70007 14.5476 6.52672 14.5476 7.38867C14.5476 8.25063 14.2052 9.07728 13.5957 9.68677C12.9862 10.2963 12.1596 10.6387 11.2976 10.6387C10.4357 10.6387 9.609 10.2963 8.99951 9.68677C8.39002 9.07728 8.04761 8.25063 8.04761 7.38867C8.04761 6.52672 8.39002 5.70007 8.99951 5.09057Z" fill="#016BBF"/>
<path d="M6.99951 16.0906C7.609 15.4811 8.43565 15.1387 9.29761 15.1387H11.2976C11.7118 15.1387 12.0476 14.8029 12.0476 14.3887C12.0476 13.9745 11.7118 13.6387 11.2976 13.6387H9.29761C8.03783 13.6387 6.82965 14.1391 5.93885 15.0299C5.04805 15.9207 4.54761 17.1289 4.54761 18.3887V20.3887C4.54761 20.8029 4.88339 21.1387 5.29761 21.1387C5.71182 21.1387 6.04761 20.8029 6.04761 20.3887V18.3887C6.04761 17.5267 6.39002 16.7001 6.99951 16.0906Z" fill="#016BBF"/>
<path d="M17.9189 17.0485C18.2118 17.3414 18.2118 17.8163 17.9189 18.1092L16.3024 19.7256C16.1618 19.8663 15.971 19.9453 15.7721 19.9453C15.5732 19.9453 15.3824 19.8663 15.2418 19.7256L14.4335 18.9174C14.1406 18.6245 14.1406 18.1496 14.4335 17.8568C14.7264 17.5639 15.2013 17.5639 15.4942 17.8568L15.7721 18.1346L16.8582 17.0485C17.1511 16.7556 17.626 16.7556 17.9189 17.0485Z" fill="#016BBF"/>
<path fill-rule="evenodd" clip-rule="evenodd" d="M18.7093 14.7047L18.3363 14.6403L18.094 14.3494C17.0945 13.1495 15.2517 13.1495 14.2522 14.3494L14.0099 14.6403L13.6368 14.7047C12.0979 14.9703 11.1766 16.5662 11.716 18.0317L11.8467 18.387L11.716 18.7423C11.1766 20.2079 12.0979 21.8037 13.6368 22.0694L14.0099 22.1338L14.2522 22.4247C15.2517 23.6246 17.0945 23.6246 18.094 22.4247L18.3363 22.1338L18.7093 22.0694C20.2482 21.8037 21.1696 20.2079 20.6302 18.7423L20.4995 18.387L20.6302 18.0317C21.1696 16.5662 20.2482 14.9703 18.7093 14.7047ZM15.4047 15.3094C15.8045 14.8295 16.5416 14.8295 16.9414 15.3094L17.3015 15.7417C17.4536 15.9243 17.6657 16.0467 17.8998 16.0871L18.4542 16.1828C19.0697 16.2891 19.4383 16.9274 19.2225 17.5136L19.0282 18.0416C18.9462 18.2646 18.9462 18.5095 19.0282 18.7324L19.2225 19.2604C19.4383 19.8466 19.0697 20.485 18.4542 20.5912L17.8998 20.6869C17.6657 20.7274 17.4536 20.8498 17.3015 21.0323L16.9414 21.4646C16.5416 21.9446 15.8045 21.9446 15.4047 21.4646L15.0447 21.0323C14.8926 20.8498 14.6805 20.7274 14.4464 20.6869L13.892 20.5912C13.2764 20.485 12.9079 19.8466 13.1236 19.2604L13.318 18.7324C13.4 18.5095 13.4 18.2646 13.318 18.0416L13.1236 17.5136C12.9079 16.9274 13.2764 16.2891 13.892 16.1828L14.4464 16.0871C14.6805 16.0467 14.8926 15.9243 15.0447 15.7417L15.4047 15.3094Z" fill="#016BBF"/>
</svg>
