<svg width="25" height="24" viewBox="0 0 25 24" fill="none" xmlns="http://www.w3.org/2000/svg">
<path d="M15.1933 10.4197C14.8207 11.3002 13.4012 11.3512 12.738 11.2666C12.3993 10.9843 11.5439 10.4197 10.8327 10.4197C10.1214 10.4197 10.113 8.5287 10.1976 7.58322L11.2985 6.6941L13.373 5.42407L13.9657 6.6941L15.5321 7.37153C15.5744 8.02069 15.566 9.53914 15.1933 10.4197Z" fill="#B3D3EC"/>
<path fill-rule="evenodd" clip-rule="evenodd" d="M16.0541 5.17115C16.0201 5.47495 16.0827 5.91151 16.1733 6.36937C16.1903 6.45513 16.2083 6.54165 16.2268 6.62818C16.2373 6.67757 16.248 6.72696 16.2589 6.77622C16.2833 6.8873 16.3081 6.99771 16.3325 7.10589C16.3937 7.37775 16.4518 7.63553 16.4914 7.85443C16.7593 9.33383 16.2727 12.0013 12.9929 12.0013C11.0995 12.0013 8.27612 9.90345 9.63629 6.40565C9.73805 6.14398 9.86322 5.87447 10.0139 5.59741C10.0863 5.46442 10.1645 5.32969 10.2489 5.19325C10.3525 5.02579 10.4652 4.85576 10.5877 4.68322C10.6098 4.65202 10.6307 4.62214 10.6505 4.59376L10.676 4.55718C10.8733 4.27369 10.9493 4.16455 10.9872 4.4506C11.0022 4.56382 11.0112 4.73894 11.0195 4.98965C11.0214 5.04622 11.0232 5.10665 11.025 5.17108C11.0347 5.51169 11.0783 5.73619 11.1467 5.86572C11.2953 6.14708 11.5615 5.98037 11.8544 5.58216C11.8632 5.57024 11.872 5.55811 11.8808 5.54578C11.9656 5.42721 12.0523 5.28998 12.1389 5.13928C12.2 5.03282 12.2611 4.91964 12.3213 4.80155C12.4088 4.62993 12.4945 4.44796 12.576 4.26121L12.5984 4.20956C12.9453 3.40396 13.2116 2.51984 13.2116 2C13.5254 2.43766 13.9829 3.2381 14.2838 4.15788C14.2926 4.18468 14.3012 4.21158 14.3097 4.23858C14.3873 4.48504 14.4532 4.73945 14.5017 4.99721C14.5916 5.47464 14.622 5.96359 14.5571 6.43495C14.5478 6.50194 14.5367 6.56857 14.5235 6.63476C14.5391 6.59998 14.5559 6.56362 14.5738 6.52601C14.8141 6.02146 15.255 5.29152 15.6706 5.12818C15.8035 5.07596 15.9338 5.08165 16.0541 5.17115ZM14.6914 9.67491C14.9389 9.25169 14.9993 8.65247 14.9246 8.18377C14.6408 8.25741 14.3343 8.2539 14.037 8.15898C13.4164 7.96089 12.994 7.41518 12.9314 6.79594C12.7546 6.99986 12.3851 7.38039 11.8342 7.53629C11.5781 7.60877 11.2695 7.63494 10.9486 7.56331C10.7794 8.33809 10.9495 8.88448 11.1535 9.23828C11.5946 10.0034 12.4671 10.4013 12.9929 10.4013C14.122 10.4013 14.5082 9.9882 14.6914 9.67491ZM5.4499 7.59997C5.23773 7.59997 5.03424 7.68426 4.88422 7.83429C4.73419 7.98432 4.6499 8.1878 4.6499 8.39997C4.6499 10.3095 5.40847 12.1409 6.75872 13.4911C7.34811 14.0805 8.02916 14.5572 8.76837 14.9072L6.87171 18.7005L6.8629 18.7181L5.80094 20.8421C5.60335 21.2372 5.76353 21.7178 6.15871 21.9154C6.55389 22.113 7.03442 21.9528 7.23201 21.5576L8.07752 19.8666H15.4277C15.5631 20.344 15.8186 20.7837 16.1757 21.1408C16.7258 21.6909 17.4719 21.9999 18.2498 21.9999C19.0278 21.9999 19.7739 21.6909 20.324 21.1408C20.8741 20.5907 21.1832 19.8446 21.1832 19.0666C21.1832 18.2886 20.8741 17.5425 20.324 16.9924C19.7739 16.4423 19.0278 16.1333 18.2498 16.1333C18.0651 16.1333 17.8822 16.1507 17.7032 16.1846L17.0654 14.909C17.7651 14.5782 18.413 14.1338 18.9806 13.5875C20.3234 12.2951 21.1127 10.5323 21.1826 8.66997C21.183 8.65997 21.1832 8.64997 21.1832 8.63997V8.39997C21.1832 7.95814 20.825 7.59997 20.3832 7.59997H18.2498C17.808 7.59997 17.4498 7.95814 17.4498 8.39997C17.4498 8.8418 17.808 9.19997 18.2498 9.19997H19.5302C19.3532 10.4271 18.7724 11.5671 17.8711 12.4347C16.8267 13.4399 15.4327 14.001 13.9832 13.9999H11.8499C10.3647 13.9999 8.94029 13.4099 7.89009 12.3597C7.03031 11.5 6.47897 10.3894 6.30731 9.19997H7.58322C8.02505 9.19997 8.38322 8.8418 8.38322 8.39997C8.38322 7.95814 8.02505 7.59997 7.58322 7.59997H5.4499ZM15.4277 18.2666H8.87752L10.2957 15.4302C10.8022 15.5422 11.323 15.5999 11.8499 15.5999H13.9826C14.5096 15.6003 15.0308 15.5429 15.5377 15.4312L16.2722 16.9002C16.2394 16.9301 16.2072 16.9609 16.1757 16.9924C15.8186 17.3495 15.5631 17.7892 15.4277 18.2666ZM17.307 20.0094C17.057 19.7593 16.9165 19.4202 16.9165 19.0666C16.9165 18.713 17.057 18.3738 17.307 18.1238C17.5571 17.8737 17.8962 17.7333 18.2498 17.7333C18.6035 17.7333 18.9426 17.8737 19.1926 18.1238C19.4427 18.3738 19.5832 18.713 19.5832 19.0666C19.5832 19.4202 19.4427 19.7593 19.1926 20.0094C18.9426 20.2594 18.6035 20.3999 18.2498 20.3999C17.8962 20.3999 17.5571 20.2594 17.307 20.0094Z" fill="#016BBF"/>
</svg>
