<svg width="25" height="24" viewBox="0 0 25 24" fill="none" xmlns="http://www.w3.org/2000/svg">
<circle cx="12.1665" cy="15.5625" r="4.97021" fill="#B3D3EC"/>
<path fill-rule="evenodd" clip-rule="evenodd" d="M5.1665 6.75H7.4165V5.5C7.4165 4.77065 7.70624 4.07118 8.22196 3.55546C8.73769 3.03973 9.43716 2.75 10.1665 2.75H14.1665C14.8958 2.75 15.5953 3.03973 16.111 3.55546C16.6268 4.07118 16.9165 4.77065 16.9165 5.5V6.75H19.1665C19.8958 6.75 20.5953 7.03973 21.111 7.55546C21.6268 8.07118 21.9165 8.77065 21.9165 9.5V18.5C21.9165 19.2293 21.6268 19.9288 21.111 20.4445C20.5953 20.9603 19.8958 21.25 19.1665 21.25C18.7523 21.25 18.4165 20.9142 18.4165 20.5C18.4165 20.0858 18.7523 19.75 19.1665 19.75C19.498 19.75 19.816 19.6183 20.0504 19.3839C20.2848 19.1495 20.4165 18.8315 20.4165 18.5V9.5C20.4165 9.16848 20.2848 8.85054 20.0504 8.61612C19.816 8.3817 19.498 8.25 19.1665 8.25H5.1665C4.83498 8.25 4.51704 8.3817 4.28262 8.61612C4.0482 8.85054 3.9165 9.16848 3.9165 9.5V18.5C3.9165 18.8315 4.0482 19.1495 4.28262 19.3839C4.51704 19.6183 4.83498 19.75 5.1665 19.75C5.58072 19.75 5.9165 20.0858 5.9165 20.5C5.9165 20.9142 5.58072 21.25 5.1665 21.25C4.43716 21.25 3.73768 20.9603 3.22196 20.4445C2.70624 19.9288 2.4165 19.2293 2.4165 18.5V9.5C2.4165 8.77065 2.70624 8.07118 3.22196 7.55546C3.73769 7.03973 4.43716 6.75 5.1665 6.75ZM10.1665 4.25C9.83498 4.25 9.51704 4.3817 9.28262 4.61612C9.0482 4.85054 8.9165 5.16848 8.9165 5.5V6.75H15.4165V5.5C15.4165 5.16848 15.2848 4.85054 15.0504 4.61612C14.816 4.3817 14.498 4.25 14.1665 4.25H10.1665Z" fill="#016BBF"/>
<path fill-rule="evenodd" clip-rule="evenodd" d="M11.6665 13.5C11.6665 13.2239 11.4426 13 11.1665 13C10.8904 13 10.6665 13.2239 10.6665 13.5V14H10.1665C9.89036 14 9.6665 14.2239 9.6665 14.5C9.6665 14.7761 9.89036 15 10.1665 15H10.6665V16H10.1665C9.89036 16 9.6665 16.2239 9.6665 16.5C9.6665 16.7761 9.89036 17 10.1665 17H10.6665V17.5C10.6665 17.7761 10.8904 18 11.1665 18C11.4426 18 11.6665 17.7761 11.6665 17.5V17H12.6665V17.5C12.6665 17.7761 12.8904 18 13.1665 18C13.4426 18 13.6665 17.7761 13.6665 17.5V17H14.1665C14.4426 17 14.6665 16.7761 14.6665 16.5C14.6665 16.2239 14.4426 16 14.1665 16H13.6665V15H14.1665C14.4426 15 14.6665 14.7761 14.6665 14.5C14.6665 14.2239 14.4426 14 14.1665 14H13.6665V13.5C13.6665 13.2239 13.4426 13 13.1665 13C12.8904 13 12.6665 13.2239 12.6665 13.5V14H11.6665V13.5ZM12.6665 16H11.6665V15H12.6665V16Z" fill="#016BBF"/>
<path fill-rule="evenodd" clip-rule="evenodd" d="M12.1665 9.75C8.99087 9.75 6.4165 12.3244 6.4165 15.5C6.4165 18.6756 8.99087 21.25 12.1665 21.25C15.3421 21.25 17.9165 18.6756 17.9165 15.5C17.9165 12.3244 15.3421 9.75 12.1665 9.75ZM7.9165 15.5C7.9165 13.1528 9.81929 11.25 12.1665 11.25C14.5137 11.25 16.4165 13.1528 16.4165 15.5C16.4165 17.8472 14.5137 19.75 12.1665 19.75C9.81929 19.75 7.9165 17.8472 7.9165 15.5Z" fill="#016BBF"/>
</svg>
