<svg width="25" height="24" viewBox="0 0 25 24" fill="none" xmlns="http://www.w3.org/2000/svg">
<path fill-rule="evenodd" clip-rule="evenodd" d="M3.56177 10.2791C3.56177 8.60942 4.91533 7.25586 6.58502 7.25586C8.25472 7.25586 9.60828 8.60942 9.60828 10.2791C9.60828 11.9488 8.25472 13.3024 6.58502 13.3024C4.91533 13.3024 3.56177 11.9488 3.56177 10.2791Z" fill="#B3D3EC"/>
<path d="M21.0572 4.23096C21.3149 4.51736 21.2917 4.9585 21.0053 5.21626L17.9045 8.00696C17.6392 8.24575 17.2364 8.24575 16.9711 8.00696L15.4207 6.61161C15.1343 6.35384 15.1111 5.91271 15.3689 5.62631C15.6266 5.33991 16.0678 5.31669 16.3542 5.57445L17.4378 6.54975L20.0719 4.1791C20.3583 3.92134 20.7994 3.94456 21.0572 4.23096Z" fill="#016BBF"/>
<path fill-rule="evenodd" clip-rule="evenodd" d="M5.65488 7.95349C5.91175 7.95349 6.11999 8.16173 6.11999 8.4186V8.88372H7.05022V8.4186C7.05022 8.16173 7.25846 7.95349 7.51534 7.95349C7.77222 7.95349 7.98046 8.16173 7.98046 8.4186V8.88372H8.44557C8.70245 8.88372 8.91069 9.09196 8.91069 9.34884C8.91069 9.60571 8.70245 9.81395 8.44557 9.81395H7.98046V10.7442H8.44557C8.70245 10.7442 8.91069 10.9524 8.91069 11.2093C8.91069 11.4662 8.70245 11.6744 8.44557 11.6744H7.98046V12.1395C7.98046 12.3964 7.77222 12.6047 7.51534 12.6047C7.25846 12.6047 7.05022 12.3964 7.05022 12.1395V11.6744H6.11999V12.1395C6.11999 12.3964 5.91175 12.6047 5.65488 12.6047C5.398 12.6047 5.18976 12.3964 5.18976 12.1395V11.6744H4.72464C4.46777 11.6744 4.25953 11.4662 4.25953 11.2093C4.25953 10.9524 4.46777 10.7442 4.72464 10.7442H5.18976V9.81395H4.72464C4.46777 9.81395 4.25953 9.60571 4.25953 9.34884C4.25953 9.09196 4.46777 8.88372 4.72464 8.88372H5.18976V8.4186C5.18976 8.16173 5.398 7.95349 5.65488 7.95349ZM6.11999 10.7442H7.05022V9.81395H6.11999V10.7442Z" fill="#016BBF"/>
<path fill-rule="evenodd" clip-rule="evenodd" d="M4.03582 13.8886C2.90485 13.0883 2.1665 11.7699 2.1665 10.2791C2.1665 7.83874 4.14478 5.86047 6.58511 5.86047C7.60974 5.86047 8.55292 6.20923 9.3024 6.79451C9.32653 6.79199 9.35101 6.7907 9.37581 6.7907H14.027C14.4123 6.7907 14.7246 7.10306 14.7246 7.48837V9.11628H18.6781C18.8977 9.11628 19.1045 9.21967 19.2363 9.39535L22.027 13.1163C22.1175 13.237 22.1665 13.3839 22.1665 13.5349V17.7209C22.1665 18.1062 21.8541 18.4186 21.4688 18.4186H20.2091C20.091 18.8349 19.8682 19.2184 19.5568 19.5298C19.077 20.0096 18.4264 20.2791 17.7479 20.2791C17.0694 20.2791 16.4188 20.0096 15.939 19.5298C15.6276 19.2184 15.4048 18.8349 15.2867 18.4186H10.9067C10.7887 18.8349 10.5659 19.2184 10.2545 19.5298C9.77471 20.0096 9.12403 20.2791 8.44557 20.2791C7.76711 20.2791 7.11644 20.0096 6.6367 19.5298C6.32527 19.2184 6.10243 18.8349 5.9844 18.4186H4.72464C4.33933 18.4186 4.02697 18.1062 4.02697 17.7209V14C4.02697 13.9621 4.03 13.9248 4.03582 13.8886ZM10.4775 8.18605C10.8132 8.80902 11.0037 9.5218 11.0037 10.2791C11.0037 12.7194 9.02544 14.6977 6.58511 14.6977C6.18268 14.6977 5.79282 14.6439 5.42232 14.5431V17.0233H5.9844C6.10243 16.6069 6.32527 16.2235 6.6367 15.9121C7.11644 15.4323 7.76711 15.1628 8.44557 15.1628C9.12403 15.1628 9.77471 15.4323 10.2545 15.9121C10.5659 16.2235 10.7887 16.6069 10.9067 17.0233H13.3293V8.18605H10.4775ZM20.2091 17.0233H20.7712V14.2326H14.7246V17.0233H15.2867C15.4048 16.6069 15.6276 16.2235 15.939 15.9121C16.4188 15.4323 17.0694 15.1628 17.7479 15.1628C18.4264 15.1628 19.077 15.4323 19.5568 15.9121C19.8682 16.2235 20.091 16.6069 20.2091 17.0233ZM16.5851 17.7222C16.5855 18.0302 16.7079 18.3254 16.9257 18.5431C17.1437 18.7612 17.4395 18.8837 17.7479 18.8837C18.0563 18.8837 18.352 18.7612 18.5701 18.5431C18.7882 18.3251 18.9107 18.0293 18.9107 17.7209C18.9107 17.4125 18.7882 17.1168 18.5701 16.8987C18.352 16.6806 18.0563 16.5581 17.7479 16.5581C17.4395 16.5581 17.1437 16.6806 16.9257 16.8987C16.7076 17.1168 16.5851 17.4125 16.5851 17.7209L16.5851 17.7222ZM7.28278 17.7209C7.28278 18.0293 7.40529 18.3251 7.62336 18.5431C7.84142 18.7612 8.13718 18.8837 8.44557 18.8837C8.75396 18.8837 9.04972 18.7612 9.26779 18.5431C9.48586 18.3251 9.60836 18.0293 9.60836 17.7209C9.60836 17.4125 9.48586 17.1168 9.26779 16.8987C9.04972 16.6806 8.75396 16.5581 8.44557 16.5581C8.13718 16.5581 7.84142 16.6806 7.62336 16.8987C7.40529 17.1168 7.28278 17.4125 7.28278 17.7209ZM20.0735 12.8372H14.7246V10.5116H18.3293L20.0735 12.8372ZM3.56185 10.2791C3.56185 8.60937 4.91541 7.25581 6.58511 7.25581C8.25481 7.25581 9.60836 8.60937 9.60836 10.2791C9.60836 11.9488 8.25481 13.3023 6.58511 13.3023C4.91541 13.3023 3.56185 11.9488 3.56185 10.2791Z" fill="#016BBF"/>
</svg>
