<svg width="25" height="24" viewBox="0 0 25 24" fill="none" xmlns="http://www.w3.org/2000/svg">
<path fill-rule="evenodd" clip-rule="evenodd" d="M3.9719 13.1649C4.1987 13.3917 4.50631 13.5191 4.82706 13.5191C5.1478 13.5191 5.45541 13.3917 5.68222 13.1649C5.90902 12.9381 6.03644 12.6305 6.03644 12.3097C6.03644 11.989 5.90902 11.6814 5.68222 11.4546C5.45541 11.2278 5.1478 11.1003 4.82706 11.1003C4.50631 11.1003 4.1987 11.2278 3.9719 11.4546C3.74509 11.6814 3.61768 11.989 3.61768 12.3097C3.61768 12.6305 3.74509 12.9381 3.9719 13.1649Z" fill="#B3D3EC"/>
<path fill-rule="evenodd" clip-rule="evenodd" d="M18.1029 18.077L18.103 18.068C18.0981 17.5112 17.6451 17.0613 17.0871 17.0613C16.5261 17.0613 16.0712 17.5161 16.0712 18.0771C16.0712 18.6382 16.5261 19.093 17.0871 19.093C17.6452 19.093 18.0982 18.643 18.103 18.0861L18.1029 18.077ZM9.39529 18.059L9.39507 18.077L9.39529 18.0951C9.38571 18.6479 8.93463 19.093 8.37957 19.093C7.81851 19.093 7.36369 18.6382 7.36369 18.0771C7.36369 17.5161 7.81851 17.0613 8.37957 17.0613C8.93455 17.0613 9.38559 17.5063 9.39529 18.059Z" fill="#B3D3EC"/>
<path fill-rule="evenodd" clip-rule="evenodd" d="M5.58206 8.35377V9.75847C6.00376 9.88327 6.39191 10.1118 6.7085 10.4284C7.20746 10.9274 7.48778 11.6041 7.48778 12.3098C7.48778 13.0154 7.20746 13.6922 6.7085 14.1911C6.20953 14.6901 5.53279 14.9704 4.82714 14.9704C4.1215 14.9704 3.44475 14.6901 2.94579 14.1911C2.44682 13.6922 2.1665 13.0154 2.1665 12.3098C2.1665 11.6041 2.44682 10.9274 2.94579 10.4284C3.27698 10.0972 3.6865 9.86236 4.1308 9.74187V4.72563C4.1308 4.32487 4.45568 4 4.85643 4H6.92821C7.32896 4 7.65383 4.32487 7.65383 4.72563C7.65383 5.12638 7.32896 5.45126 6.92821 5.45126H5.58206V6.90252H6.44445C6.84521 6.90252 7.17008 7.22739 7.17008 7.62814C7.17008 8.0289 6.84521 8.35377 6.44445 8.35377H5.58206ZM3.97198 13.1649C4.19878 13.3917 4.5064 13.5192 4.82714 13.5192C5.14789 13.5192 5.4555 13.3917 5.6823 13.1649C5.90911 12.9381 6.03652 12.6305 6.03652 12.3098C6.03652 11.989 5.90911 11.6814 5.6823 11.4546C5.4555 11.2278 5.14789 11.1004 4.82714 11.1004C4.5064 11.1004 4.19878 11.2278 3.97198 11.4546C3.74518 11.6814 3.61776 11.989 3.61776 12.3098C3.61776 12.6305 3.74518 12.9381 3.97198 13.1649Z" fill="#016BBF"/>
<path fill-rule="evenodd" clip-rule="evenodd" d="M8.13759 7.62814C8.13759 7.22739 8.46246 6.90252 8.86322 6.90252H16.2163C16.617 6.90252 16.9419 7.22739 16.9419 7.62814V8.64384H18.5384C20.5421 8.64384 22.1665 10.2682 22.1665 12.272V17.1095C22.1665 18.0446 21.4085 18.8026 20.4734 18.8026H19.446C19.1362 19.8112 18.1973 20.5443 17.0872 20.5443C15.9771 20.5443 15.0382 19.8112 14.7284 18.8026H10.7384C10.4286 19.8112 9.48975 20.5443 8.37965 20.5443C7.01709 20.5443 5.91251 19.4398 5.91251 18.0772C5.91251 16.7146 7.01709 15.6101 8.37965 15.6101C9.48961 15.6101 10.4284 16.343 10.7383 17.3514H14.7286C15.0385 16.343 15.9772 15.6101 17.0872 15.6101C18.1972 15.6101 19.1359 16.343 19.4458 17.3514H20.4734C20.607 17.3514 20.7152 17.2431 20.7152 17.1095V13.5784H18.8283C18.4276 13.5784 18.1027 13.2536 18.1027 12.8528C18.1027 12.4521 18.4276 12.1272 18.8283 12.1272H20.7105C20.636 10.9924 19.692 10.0951 18.5384 10.0951H16.9419V13.7234C16.9419 14.1242 16.617 14.4491 16.2163 14.4491C15.8155 14.4491 15.4906 14.1242 15.4906 13.7234V8.35377H8.86322C8.46246 8.35377 8.13759 8.0289 8.13759 7.62814ZM18.103 18.077L18.103 18.0681C18.0981 17.5112 17.6452 17.0613 17.0872 17.0613C16.5261 17.0613 16.0713 17.5161 16.0713 18.0772C16.0713 18.6383 16.5261 19.0931 17.0872 19.0931C17.6453 19.0931 18.0983 18.6431 18.103 18.0861L18.103 18.077ZM9.39537 18.059L9.39515 18.077L9.39538 18.0952C9.3858 18.6479 8.93471 19.0931 8.37965 19.0931C7.8186 19.0931 7.36377 18.6383 7.36377 18.0772C7.36377 17.5161 7.8186 17.0613 8.37965 17.0613C8.93464 17.0613 9.38568 17.5064 9.39537 18.059Z" fill="#016BBF"/>
<path d="M4.02569 16.0938C4.42645 16.0938 4.75132 16.4187 4.75132 16.8194V18.1739C4.75132 18.5747 4.42645 18.8996 4.02569 18.8996C3.62494 18.8996 3.30006 18.5747 3.30006 18.1739V16.8194C3.30006 16.4187 3.62494 16.0938 4.02569 16.0938Z" fill="#016BBF"/>
</svg>
