<svg width="25" height="25" viewBox="0 0 25 25" fill="none" xmlns="http://www.w3.org/2000/svg">
<path fill-rule="evenodd" clip-rule="evenodd" d="M14.2864 3.28034C13.5247 2.8969 12.6326 2.88165 11.8585 3.23885L4.31605 6.71929C3.31121 7.18297 2.6665 8.19706 2.6665 9.31392V20.1294C2.6665 21.7045 3.92929 22.9814 5.48702 22.9814H19.846C21.4037 22.9814 22.6665 21.7045 22.6665 20.1294V9.26492C22.6665 8.18287 22.0609 7.19401 21.103 6.71178L14.2864 3.28034ZM12.4972 4.6541C12.849 4.49174 13.2546 4.49867 13.6008 4.67296L20.4174 8.1044C20.8528 8.32359 21.128 8.77308 21.128 9.26492V20.1294C21.128 20.8454 20.554 21.4258 19.846 21.4258H16.5124V17.1477C16.5124 14.9998 14.7904 13.2585 12.6663 13.2585C10.5421 13.2585 8.8201 14.9998 8.8201 17.1477V21.4258H5.48702C4.77896 21.4258 4.20497 20.8454 4.20497 20.1294V9.31392C4.20497 8.80626 4.49802 8.34531 4.95476 8.13454L12.4972 4.6541ZM10.3586 21.4258H14.9739V17.1477C14.9739 15.8589 13.9408 14.8142 12.6663 14.8142C11.3918 14.8142 10.3586 15.8589 10.3586 17.1477V21.4258Z" fill="#8A8A8A"/>
</svg>
