<svg width="25" height="25" viewBox="0 0 25 25" fill="none" xmlns="http://www.w3.org/2000/svg">
<path d="M9.6665 15.4817V21.4817H15.6665V15.4817L12.6665 13.9817L9.6665 15.4817Z" fill="#B3D3EC"/>
<path fill-rule="evenodd" clip-rule="evenodd" d="M14.2864 3.28058C13.5247 2.89714 12.6326 2.88189 11.8585 3.23909L4.31605 6.71954C3.31121 7.18321 2.6665 8.1973 2.6665 9.31416V20.1297C2.6665 21.7048 3.92929 22.9817 5.48702 22.9817H19.846C21.4037 22.9817 22.6665 21.7048 22.6665 20.1297V9.26516C22.6665 8.18311 22.0609 7.19425 21.103 6.71202L14.2864 3.28058ZM12.4972 4.65434C12.849 4.49198 13.2546 4.49891 13.6008 4.6732L20.4174 8.10464C20.8528 8.32384 21.128 8.77332 21.128 9.26516V20.1297C21.128 20.8456 20.554 21.426 19.846 21.426H16.5124V17.1479C16.5124 15 14.7904 13.2588 12.6663 13.2588C10.5421 13.2588 8.8201 15 8.8201 17.1479V21.426H5.48702C4.77896 21.426 4.20497 20.8456 4.20497 20.1297V9.31416C4.20497 8.8065 4.49802 8.34555 4.95476 8.13479L12.4972 4.65434ZM10.3586 21.426H14.9739V17.1479C14.9739 15.8592 13.9408 14.8144 12.6663 14.8144C11.3918 14.8144 10.3586 15.8592 10.3586 17.1479V21.426Z" fill="#016BBF"/>
</svg>
