<svg width="61" height="60" viewBox="0 0 61 60" fill="none" xmlns="http://www.w3.org/2000/svg">
<path d="M22.2383 40.3242V52.0863H38.2778V40.3242L35.0699 37.7102H26.3968L22.2383 40.3242Z" fill="#B3D3EC"/>
<path d="M23.4609 22.5C23.4609 21.4645 24.3004 20.625 25.3359 20.625H28.4609V17.5C28.4609 16.4645 29.3004 15.625 30.3359 15.625C31.3715 15.625 32.2109 16.4645 32.2109 17.5V20.625H35.3359C36.3715 20.625 37.2109 21.4645 37.2109 22.5C37.2109 23.5355 36.3715 24.375 35.3359 24.375H32.2109V27.5C32.2109 28.5355 31.3715 29.375 30.3359 29.375C29.3004 29.375 28.4609 28.5355 28.4609 27.5V24.375H25.3359C24.3004 24.375 23.4609 23.5355 23.4609 22.5Z" fill="#016BBF"/>
<path fill-rule="evenodd" clip-rule="evenodd" d="M52.8359 54.375C53.8715 54.375 54.7109 53.5355 54.7109 52.5C54.7109 51.4645 53.8715 50.625 52.8359 50.625H49.7109V12.5C49.7109 10.6766 48.9866 8.92795 47.6973 7.63864C46.408 6.34933 44.6593 5.625 42.8359 5.625H17.8359C16.0126 5.625 14.2639 6.34933 12.9746 7.63864C11.6853 8.92795 10.9609 10.6766 10.9609 12.5V50.625H7.83594C6.8004 50.625 5.96094 51.4645 5.96094 52.5C5.96094 53.5355 6.8004 54.375 7.83594 54.375H52.8359ZM17.8359 9.375C17.0071 9.375 16.2123 9.70424 15.6262 10.2903C15.0402 10.8763 14.7109 11.6712 14.7109 12.5V50.625H20.9609V42.5C20.9609 40.6766 21.6853 38.928 22.9746 37.6386C24.2639 36.3493 26.0126 35.625 27.8359 35.625H32.8359C34.6593 35.625 36.408 36.3493 37.6973 37.6386C38.9866 38.928 39.7109 40.6766 39.7109 42.5V50.625H45.9609V12.5C45.9609 11.6712 45.6317 10.8763 45.0456 10.2903C44.4596 9.70424 43.6647 9.375 42.8359 9.375H17.8359ZM35.9609 50.625V42.5C35.9609 41.6712 35.6317 40.8763 35.0456 40.2903C34.4596 39.7042 33.6647 39.375 32.8359 39.375H27.8359C27.0071 39.375 26.2123 39.7042 25.6262 40.2903C25.0402 40.8763 24.7109 41.6712 24.7109 42.5V50.625H35.9609Z" fill="#016BBF"/>
</svg>
