<svg width="25" height="24" viewBox="0 0 25 24" fill="none" xmlns="http://www.w3.org/2000/svg">
<path d="M9.9165 9C9.9165 8.58579 10.2523 8.25 10.6665 8.25H11.9165V7C11.9165 6.58579 12.2523 6.25 12.6665 6.25C13.0807 6.25 13.4165 6.58579 13.4165 7V8.25H14.6665C15.0807 8.25 15.4165 8.58579 15.4165 9C15.4165 9.41421 15.0807 9.75 14.6665 9.75H13.4165V11C13.4165 11.4142 13.0807 11.75 12.6665 11.75C12.2523 11.75 11.9165 11.4142 11.9165 11V9.75H10.6665C10.2523 9.75 9.9165 9.41421 9.9165 9Z" fill="#8A8A8A"/>
<path fill-rule="evenodd" clip-rule="evenodd" d="M21.6665 21.75C22.0807 21.75 22.4165 21.4142 22.4165 21C22.4165 20.5858 22.0807 20.25 21.6665 20.25H20.4165V5C20.4165 4.27065 20.1268 3.57118 19.611 3.05546C19.0953 2.53973 18.3958 2.25 17.6665 2.25H7.6665C6.93716 2.25 6.23769 2.53973 5.72196 3.05546C5.20623 3.57118 4.9165 4.27065 4.9165 5V20.25H3.6665C3.25229 20.25 2.9165 20.5858 2.9165 21C2.9165 21.4142 3.25229 21.75 3.6665 21.75H21.6665ZM7.6665 3.75C7.33498 3.75 7.01704 3.8817 6.78262 4.11612C6.5482 4.35054 6.4165 4.66848 6.4165 5V20.25H8.9165V17C8.9165 16.2707 9.20624 15.5712 9.72196 15.0555C10.2377 14.5397 10.9372 14.25 11.6665 14.25H13.6665C14.3958 14.25 15.0953 14.5397 15.611 15.0555C16.1268 15.5712 16.4165 16.2707 16.4165 17V20.25H18.9165V5C18.9165 4.66848 18.7848 4.35054 18.5504 4.11612C18.316 3.8817 17.998 3.75 17.6665 3.75H7.6665ZM14.9165 20.25V17C14.9165 16.6685 14.7848 16.3505 14.5504 16.1161C14.316 15.8817 13.998 15.75 13.6665 15.75H11.6665C11.335 15.75 11.017 15.8817 10.7826 16.1161C10.5482 16.3505 10.4165 16.6685 10.4165 17V20.25H14.9165Z" fill="#8A8A8A"/>
</svg>
