<svg width="25" height="24" viewBox="0 0 25 24" fill="none" xmlns="http://www.w3.org/2000/svg">
<path d="M2.94319 12.0835L6.31257 14.7041L7.38214 14.2228V12.0835L7.11473 8.71417L8.29134 5.66565L7.11473 4.54255L5.29633 3.90088L2.94319 5.66565L1.87354 9.24899L2.94319 12.0835Z" fill="#B3D3EC"/>
<path d="M17.6507 12.0835L18.0786 14.2228L18.9343 15.132L21.7154 13.4741L23.5873 9.67685L22.5711 6.52139L21.0736 4.54255L18.9343 3.90088L17.0624 5.66565L17.6507 7.75149L18.0786 9.67685L17.6507 12.0835Z" fill="#B3D3EC"/>
<path fill-rule="evenodd" clip-rule="evenodd" d="M3.18725 7.87201C3.91403 5.90704 4.72605 5.06623 5.32495 4.73649C5.90593 4.41661 6.35635 4.5344 6.55748 4.65497L6.55743 4.65505L6.56733 4.66078C6.78318 4.78574 7.09286 5.05265 7.2719 5.40117C7.43321 5.71516 7.49956 6.10659 7.25669 6.60776C6.77209 7.60773 6.57251 8.46026 6.54145 9.23483C6.51071 10.0014 6.64782 10.6523 6.77717 11.2128C6.89581 11.7269 7.00491 12.561 6.87907 13.1972C6.81715 13.5103 6.71491 13.6896 6.61551 13.7809C6.54743 13.8434 6.41954 13.9233 6.12898 13.9068C5.34639 13.6122 4.29166 12.9704 3.59182 11.9946C2.89519 11.0234 2.51726 9.68342 3.18725 7.87201ZM4.6015 3.42248C5.65426 2.84286 6.67127 2.97675 7.32369 3.36543C7.7333 3.60372 8.27083 4.06302 8.60614 4.71574C8.96051 5.40555 9.07538 6.29445 8.60653 7.26192C8.20148 8.09774 8.06213 8.74915 8.04024 9.29494C8.01803 9.84876 8.11392 10.3346 8.23876 10.8755C8.37431 11.4629 8.53761 12.5426 8.35056 13.4883C8.25602 13.9662 8.05548 14.4949 7.63036 14.8855C7.18002 15.2992 6.57896 15.4664 5.88491 15.3912L5.79832 15.3818L5.71619 15.3528C4.71228 14.9985 3.3194 14.1885 2.37294 12.8689C1.39719 11.5085 0.931008 9.64811 1.7804 7.35166C2.57299 5.20876 3.56394 3.99373 4.6015 3.42248ZM22.1458 7.87201C21.419 5.90704 20.607 5.06623 20.0081 4.73649C19.4271 4.41661 18.9767 4.5344 18.7755 4.65497L18.7756 4.65505L18.7657 4.66078C18.5498 4.78574 18.2401 5.05265 18.0611 5.40117C17.8998 5.71516 17.8334 6.10659 18.0763 6.60776C18.5609 7.60773 18.7605 8.46026 18.7916 9.23483C18.8223 10.0014 18.6852 10.6523 18.5558 11.2128C18.4372 11.7269 18.3281 12.561 18.4539 13.1972C18.5159 13.5103 18.6181 13.6896 18.7175 13.7809C18.7856 13.8434 18.9135 13.9233 19.204 13.9068C19.9866 13.6122 21.0413 12.9704 21.7412 11.9946C22.4378 11.0234 22.8157 9.68342 22.1458 7.87201ZM20.7315 3.42248C19.6787 2.84286 18.6617 2.97675 18.0093 3.36543C17.5997 3.60372 17.0622 4.06302 16.7269 4.71574C16.3725 5.40555 16.2576 6.29445 16.7265 7.26192C17.1315 8.09774 17.2709 8.74915 17.2928 9.29494C17.315 9.84876 17.2191 10.3346 17.0942 10.8755C16.9587 11.4629 16.7954 12.5426 16.9825 13.4883C17.077 13.9662 17.2775 14.4949 17.7027 14.8855C18.153 15.2992 18.754 15.4664 19.4481 15.3912L19.5347 15.3818L19.6168 15.3528C20.6207 14.9985 22.0136 14.1885 22.9601 12.8689C23.9358 11.5085 24.402 9.64811 23.5526 7.35166C22.76 5.20876 21.7691 3.99373 20.7315 3.42248ZM11.1664 20.9697C11.5806 20.9697 11.9164 20.6339 11.9164 20.2197V12.0738C11.9164 10.6534 11.1139 9.35495 9.84348 8.71973L9.50183 8.54891C9.13135 8.36366 8.68085 8.51383 8.4956 8.88432C8.31036 9.2548 8.46053 9.70531 8.83101 9.89055L9.17266 10.0614C9.93492 10.4425 10.4164 11.2216 10.4164 12.0738V20.2197C10.4164 20.6339 10.7522 20.9697 11.1664 20.9697ZM13.4166 20.2197C13.4166 20.6339 13.7524 20.9697 14.1666 20.9697C14.5808 20.9697 14.9166 20.6339 14.9166 20.2197V12.0738C14.9166 11.2216 15.3981 10.4425 16.1604 10.0614L16.502 9.89055C16.8725 9.70531 17.0226 9.2548 16.8374 8.88432C16.6522 8.51383 16.2017 8.36366 15.8312 8.54891L15.4895 8.71973C14.2191 9.35495 13.4166 10.6534 13.4166 12.0738V20.2197Z" fill="#016BBF"/>
</svg>
