<svg width="24" height="24" viewBox="0 0 24 24" fill="none" xmlns="http://www.w3.org/2000/svg">
<circle cx="16.3206" cy="15.4565" r="2.88867" fill="#B3D3EC"/>
<path fill-rule="evenodd" clip-rule="evenodd" d="M10.7666 1.38574C9.50682 1.38574 8.29864 1.88619 7.40784 2.77698C6.51705 3.66778 6.0166 4.87596 6.0166 6.13574C6.0166 7.39552 6.51705 8.6037 7.40784 9.4945C8.29864 10.3853 9.50682 10.8857 10.7666 10.8857C12.0264 10.8857 13.2346 10.3853 14.1254 9.4945C15.0162 8.6037 15.5166 7.39552 15.5166 6.13574C15.5166 4.87596 15.0162 3.66778 14.1254 2.77698C13.2346 1.88619 12.0264 1.38574 10.7666 1.38574ZM8.4685 3.83765C9.078 3.22815 9.90465 2.88574 10.7666 2.88574C11.6286 2.88574 12.4552 3.22815 13.0647 3.83765C13.6742 4.44714 14.0166 5.27379 14.0166 6.13574C14.0166 6.9977 13.6742 7.82435 13.0647 8.43384C12.4552 9.04333 11.6286 9.38574 10.7666 9.38574C9.90465 9.38574 9.078 9.04333 8.4685 8.43384C7.85901 7.82435 7.5166 6.9977 7.5166 6.13574C7.5166 5.27379 7.85901 4.44714 8.4685 3.83765Z" fill="#016BBF"/>
<path d="M6.4685 14.8376C7.078 14.2282 7.90465 13.8857 8.7666 13.8857H10.7666C11.1808 13.8857 11.5166 13.55 11.5166 13.1357C11.5166 12.7215 11.1808 12.3857 10.7666 12.3857H8.7666C7.50682 12.3857 6.29864 12.8862 5.40784 13.777C4.51705 14.6678 4.0166 15.876 4.0166 17.1357V19.1357C4.0166 19.55 4.35239 19.8857 4.7666 19.8857C5.18082 19.8857 5.5166 19.55 5.5166 19.1357V17.1357C5.5166 16.2738 5.85901 15.4471 6.4685 14.8376Z" fill="#016BBF"/>
<path fill-rule="evenodd" clip-rule="evenodd" d="M13.5739 12.7551C14.2772 12.0518 15.231 11.6567 16.2256 11.6567C17.2201 11.6567 18.174 12.0518 18.8772 12.7551C19.5805 13.4583 19.9756 14.4122 19.9756 15.4067C19.9756 16.3539 19.6172 17.2642 18.9756 17.9563V21.8643C18.9756 22.1242 18.841 22.3656 18.6199 22.5022C18.3988 22.6389 18.1227 22.6513 17.8902 22.5351L16.2256 21.7028L14.561 22.5351C14.3285 22.6513 14.0524 22.6389 13.8313 22.5022C13.6102 22.3656 13.4756 22.1242 13.4756 21.8643V17.9563C12.8339 17.2642 12.4756 16.3539 12.4756 15.4067C12.4756 14.4122 12.8707 13.4583 13.5739 12.7551ZM14.9756 18.9423V20.6507L15.8902 20.1934C16.1013 20.0879 16.3499 20.0879 16.561 20.1934L17.4756 20.6507V18.9423C17.0778 19.0829 16.6555 19.1567 16.2256 19.1567C15.7957 19.1567 15.3733 19.0829 14.9756 18.9423ZM16.2256 13.1567C15.6288 13.1567 15.0566 13.3938 14.6346 13.8157C14.2126 14.2377 13.9756 14.81 13.9756 15.4067C13.9756 16.0035 14.2126 16.5758 14.6346 16.9977C15.0566 17.4197 15.6288 17.6567 16.2256 17.6567C16.8223 17.6567 17.3946 17.4197 17.8166 16.9977C18.2385 16.5758 18.4756 16.0035 18.4756 15.4067C18.4756 14.81 18.2385 14.2377 17.8166 13.8157C17.3946 13.3938 16.8223 13.1567 16.2256 13.1567Z" fill="#016BBF"/>
</svg>
