<svg width="25" height="24" viewBox="0 0 25 24" fill="none" xmlns="http://www.w3.org/2000/svg">
<path fill-rule="evenodd" clip-rule="evenodd" d="M7.03153 12.4971C7.07533 12.4854 7.11919 12.474 7.1631 12.4631C7.13048 12.4316 7.09811 12.3997 7.06598 12.3676C5.58063 10.8823 4.74615 8.86771 4.74611 6.76715C4.74611 6.56823 4.82512 6.37747 4.96577 6.23682C5.10642 6.09617 5.29719 6.01716 5.4961 6.01716C7.10182 6.01719 8.65727 6.50482 9.9645 7.39805C10.2652 5.86506 11.0154 4.44298 12.1361 3.32221C12.2768 3.18156 12.4675 3.10254 12.6665 3.10254C12.8654 3.10254 13.0561 3.18156 13.1968 3.32221C14.3175 4.443 15.0677 5.86511 15.3684 7.39814C16.6757 6.50485 18.2312 6.01719 19.837 6.01716C20.0359 6.01716 20.2266 6.09617 20.3673 6.23682C20.5079 6.37747 20.587 6.56823 20.5869 6.76715C20.5869 8.86771 19.7524 10.8823 18.2671 12.3676C18.235 12.3997 18.2026 12.4316 18.17 12.4631C18.2139 12.474 18.2577 12.4854 18.3015 12.4971C20.3305 13.0408 22.0605 14.3683 23.1108 16.1874C23.2102 16.3597 23.2372 16.5644 23.1857 16.7565C23.1342 16.9487 23.0085 17.1125 22.8362 17.2119C21.017 18.2621 18.8552 18.5467 16.8261 18.003C15.5361 17.6573 14.367 16.9948 13.4165 16.0905V20.1472C13.4165 20.5614 13.0807 20.8972 12.6665 20.8972C12.2523 20.8972 11.9165 20.5614 11.9165 20.1472V16.0905C10.9661 16.9948 9.79697 17.6573 8.50692 18.003C6.47791 18.5467 4.31602 18.2621 2.49684 17.2119C2.32457 17.1125 2.19887 16.9487 2.14739 16.7565C2.0959 16.5644 2.12285 16.3597 2.22231 16.1874C3.27259 14.3683 5.00252 13.0408 7.03153 12.4971ZM11.8664 13.1374C11.7004 11.8157 11.1263 10.5729 10.2175 9.58682C10.0808 9.51484 9.96903 9.4019 9.89852 9.26431C8.90431 8.32764 7.64115 7.7361 6.29614 7.56719C6.47293 8.97496 7.11271 10.2931 8.12662 11.307C9.14053 12.3209 10.4586 12.9606 11.8664 13.1374ZM11.3257 8.57598C11.3965 7.26668 11.8664 6.01382 12.6665 4.98396C13.4665 6.01386 13.9364 7.26679 14.0072 8.57614C13.457 9.1743 13.0066 9.84879 12.6665 10.5736C12.3265 9.84872 11.8759 9.17418 11.3257 8.57598ZM8.89155 13.73C9.64178 14.1367 10.4547 14.4205 11.2991 14.5686C10.4662 15.5251 9.36165 16.221 8.11868 16.5541C6.73366 16.9253 5.27226 16.8203 3.96469 16.2695C4.82167 15.1388 6.03477 14.3171 7.41978 13.946C7.90435 13.8161 8.39821 13.7446 8.89155 13.73ZM17.2144 16.5541C15.9714 16.221 14.8669 15.5251 14.034 14.5686C14.8783 14.4205 15.6913 14.1367 16.4415 13.73C16.9348 13.7446 17.4287 13.8161 17.9133 13.946C19.2983 14.3171 20.5114 15.1388 21.3684 16.2695C20.0608 16.8203 18.5994 16.9253 17.2144 16.5541ZM15.1157 9.58666C15.2522 9.51473 15.3638 9.40195 15.4342 9.26459C16.4285 8.32776 17.6918 7.73612 19.0369 7.56719C18.8601 8.97496 18.2203 10.2931 17.2064 11.307C16.1925 12.3209 14.8744 12.9606 13.4667 13.1374C13.6327 11.8156 14.2069 10.5728 15.1157 9.58666Z" fill="#8A8A8A"/>
</svg>
