<svg width="25" height="24" viewBox="0 0 25 24" fill="none" xmlns="http://www.w3.org/2000/svg">
<path d="M8.41658 10.7498C8.27354 10.7498 8.05534 10.8087 7.58275 11.1239C7.23816 11.3538 6.77249 11.2608 6.54264 10.9162C6.3128 10.5716 6.40582 10.1059 6.75041 9.87606C7.27782 9.52428 7.80963 9.24976 8.41658 9.24976C9.00041 9.24976 9.51471 9.50376 10.0224 9.8362C10.1152 9.87595 10.2054 9.91675 10.2888 9.95457L10.3076 9.96313C10.4068 10.0081 10.4964 10.0487 10.585 10.0864C10.7759 10.1676 10.9217 10.217 11.0449 10.2384C11.1593 10.2583 11.2369 10.2508 11.3012 10.229C11.3659 10.2072 11.47 10.153 11.609 9.99842C11.886 9.69047 12.3602 9.66539 12.6682 9.94242C12.9761 10.2194 13.0012 10.6936 12.7242 11.0016C12.4467 11.3101 12.1341 11.5307 11.7821 11.6499C11.4298 11.7691 11.0906 11.7688 10.7883 11.7163C10.4947 11.6653 10.2237 11.5628 9.99796 11.4668C9.89223 11.4218 9.78732 11.3742 9.69175 11.3309L9.66924 11.3207C9.56444 11.2731 9.47017 11.2307 9.37818 11.1923C9.33348 11.1737 9.2907 11.1508 9.25041 11.1239C8.77782 10.8087 8.55963 10.7498 8.41658 10.7498Z" fill="#8A8A8A"/>
<path d="M7.58275 14.1239C8.05534 13.8087 8.27354 13.7498 8.41658 13.7498C8.55963 13.7498 8.77782 13.8087 9.25041 14.1239C9.2907 14.1508 9.33348 14.1737 9.37818 14.1923C9.47017 14.2307 9.56444 14.2731 9.66924 14.3207L9.69161 14.3308C9.78719 14.3742 9.89221 14.4218 9.99796 14.4668C10.2237 14.5628 10.4947 14.6653 10.7883 14.7163C11.0906 14.7688 11.4298 14.7691 11.7821 14.6499C12.1341 14.5307 12.4467 14.3101 12.7242 14.0016C13.0012 13.6936 12.9761 13.2194 12.6682 12.9424C12.3602 12.6654 11.886 12.6905 11.609 12.9984C11.47 13.153 11.3659 13.2072 11.3012 13.229C11.2369 13.2508 11.1593 13.2583 11.0449 13.2384C10.9217 13.217 10.7759 13.1676 10.585 13.0864C10.4964 13.0487 10.4069 13.0082 10.3077 12.9632L10.2888 12.9546C10.2054 12.9168 10.1152 12.876 10.0224 12.8362C9.51471 12.5038 9.00041 12.2498 8.41658 12.2498C7.80963 12.2498 7.27782 12.5243 6.75041 12.8761C6.40582 13.1059 6.3128 13.5716 6.54264 13.9162C6.77249 14.2608 7.23816 14.3538 7.58275 14.1239Z" fill="#8A8A8A"/>
<path d="M18.6665 11.25C18.2523 11.25 17.9165 11.5858 17.9165 12C17.9165 12.4142 18.2523 12.75 18.6665 12.75H18.6765C19.0907 12.75 19.4265 12.4142 19.4265 12C19.4265 11.5858 19.0907 11.25 18.6765 11.25H18.6665Z" fill="#8A8A8A"/>
<path d="M17.9165 15C17.9165 14.5858 18.2523 14.25 18.6665 14.25H18.6765C19.0907 14.25 19.4265 14.5858 19.4265 15C19.4265 15.4142 19.0907 15.75 18.6765 15.75H18.6665C18.2523 15.75 17.9165 15.4142 17.9165 15Z" fill="#8A8A8A"/>
<path d="M18.6665 8.25C18.2523 8.25 17.9165 8.58579 17.9165 9C17.9165 9.41421 18.2523 9.75 18.6665 9.75H18.6765C19.0907 9.75 19.4265 9.41421 19.4265 9C19.4265 8.58579 19.0907 8.25 18.6765 8.25H18.6665Z" fill="#8A8A8A"/>
<path fill-rule="evenodd" clip-rule="evenodd" d="M4.6665 18.75H20.6665C21.1306 18.75 21.5758 18.5656 21.9039 18.2374C22.2321 17.9092 22.4165 17.4641 22.4165 17V7C22.4165 6.53587 22.2321 6.09075 21.9039 5.76256C21.5758 5.43437 21.1306 5.25 20.6665 5.25H4.6665C4.20237 5.25 3.75726 5.43437 3.42907 5.76256C3.10088 6.09075 2.9165 6.53587 2.9165 7V17C2.9165 17.4641 3.10088 17.9092 3.42907 18.2374C3.75726 18.5656 4.20238 18.75 4.6665 18.75ZM4.6665 6.75C4.6002 6.75 4.53661 6.77634 4.48973 6.82322C4.44284 6.87011 4.4165 6.9337 4.4165 7V17C4.4165 17.0663 4.44284 17.1299 4.48973 17.1768C4.53661 17.2237 4.6002 17.25 4.6665 17.25H14.9165V6.75H4.6665ZM16.4165 6.75V17.25H20.6665C20.7328 17.25 20.7964 17.2237 20.8433 17.1768C20.8902 17.1299 20.9165 17.0663 20.9165 17V7C20.9165 6.93369 20.8902 6.87011 20.8433 6.82322C20.7964 6.77634 20.7328 6.75 20.6665 6.75H16.4165Z" fill="#8A8A8A"/>
</svg>
