<svg width="25" height="24" viewBox="0 0 25 24" fill="none" xmlns="http://www.w3.org/2000/svg">
<path fill-rule="evenodd" clip-rule="evenodd" d="M4.99568 1.66459C5.12273 1.4105 5.38242 1.25 5.6665 1.25H19.6665C19.9506 1.25 20.2103 1.4105 20.3373 1.66459L22.3373 5.66459C22.3894 5.76873 22.4165 5.88357 22.4165 6V7C22.4165 7.99456 22.0214 8.94839 21.3182 9.65165C21.0501 9.91968 20.7457 10.1429 20.4165 10.3166V17.8786C20.8413 18.2294 21.1589 18.7054 21.313 19.25H21.6665C22.0807 19.25 22.4165 19.5858 22.4165 20C22.4165 20.4142 22.0807 20.75 21.6665 20.75H21.313C20.9865 21.9043 19.9253 22.75 18.6665 22.75C17.4077 22.75 16.3465 21.9043 16.02 20.75H9.31299C8.98652 21.9043 7.92528 22.75 6.6665 22.75C5.40773 22.75 4.34648 21.9043 4.02002 20.75H3.6665C3.25229 20.75 2.9165 20.4142 2.9165 20C2.9165 19.5858 3.25229 19.25 3.6665 19.25H4.02002C4.17406 18.7054 4.49171 18.2294 4.9165 17.8786V10.3166C4.5873 10.1429 4.28288 9.91968 4.01485 9.65165C3.31159 8.94839 2.9165 7.99456 2.9165 7V6C2.9165 5.88357 2.94361 5.76873 2.99568 5.66459L4.99568 1.66459ZM9.9165 19.25H9.31299C8.98652 18.0957 7.92528 17.25 6.6665 17.25C6.58223 17.25 6.49884 17.2538 6.4165 17.2612V10.7417C6.49947 10.7472 6.58284 10.75 6.6665 10.75C7.66107 10.75 8.61489 10.3549 9.31815 9.65165C9.44436 9.52544 9.56065 9.39116 9.6665 9.25003C9.77236 9.39116 9.88864 9.52544 10.0149 9.65165C10.7181 10.3549 11.6719 10.75 12.6665 10.75C13.6611 10.75 14.6149 10.3549 15.3182 9.65165C15.4444 9.52544 15.5606 9.39116 15.6665 9.25002C15.7724 9.39116 15.8886 9.52544 16.0149 9.65165C16.7181 10.3549 17.6719 10.75 18.6665 10.75C18.7502 10.75 18.8335 10.7472 18.9165 10.7417V17.2612C18.8342 17.2538 18.7508 17.25 18.6665 17.25C17.4077 17.25 16.3465 18.0957 16.02 19.25H15.4165V15.1001C15.4165 13.5813 14.1853 12.3501 12.6665 12.3501C11.1477 12.3501 9.9165 13.5813 9.9165 15.1001V19.25ZM11.4165 19.25H13.9165V15.1001C13.9165 14.4097 13.3569 13.8501 12.6665 13.8501C11.9761 13.8501 11.4165 14.4097 11.4165 15.1001V19.25ZM6.6665 18.75C5.97615 18.75 5.4165 19.3096 5.4165 20C5.4165 20.6904 5.97615 21.25 6.6665 21.25C7.35686 21.25 7.9165 20.6904 7.9165 20C7.9165 19.3096 7.35686 18.75 6.6665 18.75ZM17.4165 20C17.4165 20.6904 17.9761 21.25 18.6665 21.25C19.3569 21.25 19.9165 20.6904 19.9165 20C19.9165 19.3096 19.3569 18.75 18.6665 18.75C17.9761 18.75 17.4165 19.3096 17.4165 20ZM10.4165 7C10.4165 7.59674 10.6536 8.16903 11.0755 8.59099C11.4975 9.01295 12.0698 9.25 12.6665 9.25C13.2632 9.25 13.8355 9.01295 14.2575 8.59099C14.6795 8.16903 14.9165 7.59674 14.9165 7V6.75H10.4165V7ZM8.9165 6.75V7C8.9165 7.59674 8.67945 8.16903 8.25749 8.59099C7.83554 9.01295 7.26324 9.25 6.6665 9.25C6.06977 9.25 5.49747 9.01295 5.07551 8.59099C4.65356 8.16903 4.4165 7.59674 4.4165 7V6.75H8.9165ZM20.453 5.25L19.203 2.75H6.13003L4.88003 5.25H20.453ZM20.9165 6.75H16.4165V7C16.4165 7.59674 16.6536 8.16903 17.0755 8.59099C17.4975 9.01295 18.0698 9.25 18.6665 9.25C19.2632 9.25 19.8355 9.01295 20.2575 8.59099C20.6795 8.16903 20.9165 7.59674 20.9165 7V6.75Z" fill="#8A8A8A"/>
</svg>
