<svg width="25" height="24" viewBox="0 0 25 24" fill="none" xmlns="http://www.w3.org/2000/svg">
<path d="M5.66626 4.62477C5.66614 4.21066 5.3304 3.875 4.91626 3.875C4.50205 3.875 4.16626 4.21079 4.16626 4.625V4.66265C3.80872 4.73564 3.47733 4.91205 3.21544 5.17395C2.86381 5.52558 2.66626 6.00249 2.66626 6.49977C2.66626 6.99706 2.86381 7.47397 3.21544 7.8256C3.56706 8.17723 4.04398 8.37477 4.54126 8.37477H5.29126C5.39071 8.37477 5.4861 8.41428 5.55642 8.48461C5.62675 8.55494 5.66626 8.65032 5.66626 8.74977C5.66626 8.84923 5.62675 8.94461 5.55642 9.01494C5.4861 9.08527 5.39071 9.12477 5.29126 9.12477H3.41626C3.00205 9.12477 2.66626 9.46056 2.66626 9.87477C2.66626 10.289 3.00205 10.6248 3.41626 10.6248H4.16626C4.16626 11.039 4.50205 11.375 4.91626 11.375C5.33047 11.375 5.66626 11.0392 5.66626 10.625V10.5869C6.0238 10.5139 6.35519 10.3375 6.61708 10.0756C6.96871 9.72397 7.16626 9.24706 7.16626 8.74977C7.16626 8.25249 6.96871 7.77558 6.61708 7.42395C6.26545 7.07232 5.78854 6.87477 5.29126 6.87477H4.54126C4.44181 6.87477 4.34642 6.83526 4.2761 6.76494C4.20577 6.69461 4.16626 6.59923 4.16626 6.49977C4.16626 6.40032 4.20577 6.30493 4.2761 6.23461C4.34642 6.16428 4.4418 6.12477 4.54126 6.12477H4.89764C4.90383 6.12492 4.91004 6.125 4.91626 6.125C4.92248 6.125 4.92869 6.12492 4.93487 6.12477H6.41626C6.83047 6.12477 7.16626 5.78899 7.16626 5.37477C7.16626 4.96056 6.83047 4.62477 6.41626 4.62477H5.66626Z" fill="#8A8A8A"/>
<path fill-rule="evenodd" clip-rule="evenodd" d="M9.41626 4.625C9.00205 4.625 8.66626 4.96079 8.66626 5.375C8.66626 5.78921 9.00205 6.125 9.41626 6.125H13.6663V9.10452H9.41626C9.00205 9.10452 8.66626 9.44031 8.66626 9.85452C8.66626 10.2687 9.00205 10.6045 9.41626 10.6045H13.6663V16.625H11.062C10.9351 16.1775 10.6956 15.7652 10.3608 15.4305C9.84508 14.9147 9.14561 14.625 8.41626 14.625C7.68691 14.625 6.98744 14.9147 6.47172 15.4305C6.13693 15.7652 5.89738 16.1775 5.7705 16.625H4.41626C4.27819 16.625 4.16626 16.5131 4.16626 16.375V13.375C4.16626 12.9608 3.83047 12.625 3.41626 12.625C3.00205 12.625 2.66626 12.9608 2.66626 13.375V16.375C2.66626 17.3415 3.44976 18.125 4.41626 18.125H5.7705C5.89738 18.5725 6.13693 18.9848 6.47172 19.3195C6.98744 19.8353 7.68691 20.125 8.41626 20.125C9.14561 20.125 9.84508 19.8353 10.3608 19.3195C10.6956 18.9848 10.9351 18.5725 11.062 18.125H15.7705C15.8974 18.5725 16.1369 18.9848 16.4717 19.3195C16.9874 19.8353 17.6869 20.125 18.4163 20.125C19.1456 20.125 19.8451 19.8353 20.3608 19.3195C20.6956 18.9848 20.9351 18.5725 21.062 18.125H22.4163C22.8305 18.125 23.1663 17.7892 23.1663 17.375V11.375C23.1663 11.2391 23.1293 11.1057 23.0594 10.9891L20.0594 5.98913C19.9238 5.76322 19.6797 5.625 19.4163 5.625H15.1663V5.375C15.1663 4.96079 14.8305 4.625 14.4163 4.625H9.41626ZM21.062 16.625H21.6663V12.125H15.1663V16.625H15.7705C15.8974 16.1775 16.1369 15.7652 16.4717 15.4305C16.9874 14.9147 17.6869 14.625 18.4163 14.625C19.1456 14.625 19.8451 14.9147 20.3608 15.4305C20.6956 15.7652 20.9351 16.1775 21.062 16.625ZM17.1663 17.375C17.1663 17.7065 17.298 18.0245 17.5324 18.2589C17.7668 18.4933 18.0847 18.625 18.4163 18.625C18.7478 18.625 19.0657 18.4933 19.3001 18.2589C19.5346 18.0245 19.6663 17.7065 19.6663 17.375C19.6663 17.0435 19.5346 16.7255 19.3001 16.4911C19.0657 16.2567 18.7478 16.125 18.4163 16.125C18.0847 16.125 17.7668 16.2567 17.5324 16.4911C17.298 16.7255 17.1663 17.0435 17.1663 17.375ZM7.16626 17.375C7.16626 17.7065 7.29796 18.0245 7.53238 18.2589C7.7668 18.4933 8.08474 18.625 8.41626 18.625C8.74778 18.625 9.06572 18.4933 9.30014 18.2589C9.53456 18.0245 9.66626 17.7065 9.66626 17.375C9.66626 17.0435 9.53456 16.7255 9.30014 16.4911C9.06572 16.2567 8.74778 16.125 8.41626 16.125C8.08474 16.125 7.7668 16.2567 7.53238 16.4911C7.29796 16.7255 7.16626 17.0435 7.16626 17.375ZM15.1663 10.625V7.125H18.9916L21.0916 10.625H15.1663Z" fill="#8A8A8A"/>
</svg>
