<svg width="25" height="24" viewBox="0 0 25 24" fill="none" xmlns="http://www.w3.org/2000/svg">
<path d="M12.2937 8.99268V13.2417H18.7543L16.5425 8.99268H12.2937Z" fill="#B3D3EC"/>
<path d="M6.91626 3.35547C6.50205 3.35547 6.16626 3.69126 6.16626 4.10547V5.94757C6.16626 6.36179 6.50205 6.69757 6.91626 6.69757C7.33047 6.69757 7.66626 6.36179 7.66626 5.94757V4.85547H15.4294V6.51306C15.4294 6.92728 15.7652 7.26306 16.1794 7.26306C16.5936 7.26306 16.9294 6.92728 16.9294 6.51306V5.69757H19.9653L21.5916 8.4081H19.3701C18.9559 8.4081 18.6201 8.74389 18.6201 9.1581C18.6201 9.57231 18.9559 9.9081 19.3701 9.9081H22.1663V13.4607H21.472C21.0577 13.4607 20.722 13.7965 20.722 14.2107C20.722 14.6249 21.0577 14.9607 21.472 14.9607H22.9163C23.3305 14.9607 23.6663 14.6249 23.6663 14.2107V9.1581C23.6663 9.02217 23.6293 8.88879 23.5594 8.77223L21.0331 4.5617C20.8975 4.3358 20.6534 4.19757 20.3899 4.19757H16.9294V4.10547C16.9294 3.69126 16.5936 3.35547 16.1794 3.35547H6.91626Z" fill="#016BBF"/>
<path fill-rule="evenodd" clip-rule="evenodd" d="M2.16626 8.10547C2.16626 7.69126 2.50205 7.35547 2.91626 7.35547H12.1794C12.5936 7.35547 12.9294 7.69126 12.9294 8.10547V8.19757H16.3899C16.6534 8.19757 16.8975 8.3358 17.0331 8.5617L19.5594 12.7722C19.6293 12.8888 19.6663 13.0222 19.6663 13.1581V18.2107C19.6663 18.6249 19.3305 18.9607 18.9163 18.9607H17.8635C17.7459 19.3235 17.5437 19.6571 17.269 19.9318C16.8125 20.3883 16.1933 20.6448 15.5477 20.6448C14.9021 20.6448 14.283 20.3883 13.8265 19.9318C13.5518 19.6571 13.3495 19.3235 13.232 18.9607H9.44234C9.3248 19.3235 9.12254 19.6571 8.84784 19.9318C8.39134 20.3883 7.77219 20.6448 7.12659 20.6448C6.481 20.6448 5.86185 20.3883 5.40535 19.9318C5.13065 19.6571 4.92839 19.3235 4.81085 18.9607H3.91626C2.94976 18.9607 2.16626 18.1772 2.16626 17.2107V8.10547ZM18.1663 17.4607H17.8636C17.7461 17.0978 17.5438 16.7641 17.269 16.4893C16.8125 16.0328 16.1933 15.7764 15.5477 15.7764C14.9021 15.7764 14.283 16.0328 13.8265 16.4893C13.5517 16.7641 13.3494 17.0978 13.2319 17.4607H12.9294V13.9081H18.1663V17.4607ZM14.6136 18.2107L14.6136 18.22C14.616 18.4643 14.7142 18.6982 14.8871 18.8712C15.0623 19.0464 15.3 19.1448 15.5477 19.1448C15.7955 19.1448 16.0331 19.0464 16.2083 18.8712C16.3835 18.696 16.4819 18.4583 16.4819 18.2106C16.4819 17.9628 16.3835 17.7252 16.2083 17.55C16.0331 17.3748 15.7955 17.2764 15.5477 17.2764C15.3 17.2764 15.0623 17.3748 14.8871 17.55C14.7141 17.723 14.616 17.9569 14.6136 18.2013L14.6136 18.2107ZM11.4294 17.4607H9.44244C9.32491 17.0978 9.12261 16.7641 8.84784 16.4893C8.39134 16.0328 7.77219 15.7764 7.12659 15.7764C6.481 15.7764 5.86185 16.0328 5.40535 16.4893C5.13057 16.7641 4.92827 17.0978 4.81075 17.4607H3.91626C3.77819 17.4607 3.66626 17.3488 3.66626 17.2107V8.85547H11.4294V11.1277H7.96889C7.55468 11.1277 7.21889 11.4635 7.21889 11.8777C7.21889 12.2919 7.55468 12.6277 7.96889 12.6277H11.4294V17.4607ZM6.19258 18.2107L6.19247 18.2234C6.1958 18.4665 6.29383 18.699 6.46601 18.8712C6.64121 19.0464 6.87883 19.1448 7.12659 19.1448C7.37436 19.1448 7.61198 19.0464 7.78718 18.8712C7.96238 18.696 8.0608 18.4583 8.0608 18.2106C8.0608 17.9628 7.96238 17.7252 7.78718 17.55C7.61198 17.3748 7.37436 17.2764 7.12659 17.2764C6.87883 17.2764 6.64121 17.3748 6.46601 17.55C6.29379 17.7222 6.19576 17.9547 6.19247 18.1979L6.19258 18.2107ZM12.9294 9.69757V12.4081H17.5916L15.9653 9.69757H12.9294Z" fill="#016BBF"/>
</svg>
