<svg width="25" height="24" viewBox="0 0 25 24" fill="none" xmlns="http://www.w3.org/2000/svg">
<path d="M4.78262 4.36612C5.01704 4.1317 5.33498 4 5.6665 4H19.6665C19.998 4 20.316 4.1317 20.5504 4.36612C20.7848 4.60054 20.9165 4.91848 20.9165 5.25V17.25C20.9165 17.5815 20.7848 17.8995 20.5504 18.1339C20.316 18.3683 19.998 18.5 19.6665 18.5C19.2523 18.5 18.9165 18.8358 18.9165 19.25C18.9165 19.6642 19.2523 20 19.6665 20C20.3958 20 21.0953 19.7103 21.611 19.1945C22.1268 18.6788 22.4165 17.9793 22.4165 17.25V5.25C22.4165 4.52065 22.1268 3.82118 21.611 3.30546C21.0953 2.78973 20.3958 2.5 19.6665 2.5H5.6665C4.93716 2.5 4.23769 2.78973 3.72196 3.30546C3.20624 3.82118 2.9165 4.52065 2.9165 5.25V17.25C2.9165 17.9793 3.20624 18.6788 3.72196 19.1945C4.23768 19.7103 4.93716 20 5.6665 20C6.08072 20 6.4165 19.6642 6.4165 19.25C6.4165 18.8358 6.08072 18.5 5.6665 18.5C5.33498 18.5 5.01704 18.3683 4.78262 18.1339C4.5482 17.8995 4.4165 17.5815 4.4165 17.25V5.25C4.4165 4.91848 4.5482 4.60054 4.78262 4.36612Z" fill="#8A8A8A"/>
<path d="M6.6665 5.5C6.25229 5.5 5.9165 5.83579 5.9165 6.25C5.9165 6.66421 6.25229 7 6.6665 7H18.6665C19.0807 7 19.4165 6.66421 19.4165 6.25C19.4165 5.83579 19.0807 5.5 18.6665 5.5H6.6665Z" fill="#8A8A8A"/>
<path d="M7.75879 9.25C7.75879 8.83579 8.09458 8.5 8.50879 8.5H16.8242C17.2384 8.5 17.5742 8.83579 17.5742 9.25C17.5742 9.66421 17.2384 10 16.8242 10H8.50879C8.09458 10 7.75879 9.66421 7.75879 9.25Z" fill="#8A8A8A"/>
<path d="M14.0927 12.3735C13.694 12.2612 13.2798 12.4933 13.1674 12.892C13.0551 13.2907 13.2873 13.705 13.686 13.8173C15.2622 14.2614 16.4165 15.7105 16.4165 17.4273C16.4165 17.7396 16.3785 18.042 16.3072 18.3306L16.1364 18.8758C16.0126 19.2711 16.2326 19.6919 16.6279 19.8157C17.0232 19.9395 17.444 19.7195 17.5678 19.3242L17.7514 18.738L17.7565 18.7177C17.8611 18.3041 17.9165 17.8716 17.9165 17.4273C17.9165 15.0212 16.2986 12.9949 14.0927 12.3735Z" fill="#8A8A8A"/>
<path fill-rule="evenodd" clip-rule="evenodd" d="M7.97846 14.4576L8.19535 14.6745C8.18236 14.6955 8.16951 14.7167 8.15681 14.738C7.68654 15.5251 7.4165 16.4458 7.4165 17.4273C7.4165 20.3268 9.76701 22.6773 12.6665 22.6773C13.6511 22.6773 14.5744 22.4055 15.3632 21.9325C15.382 21.9213 15.4007 21.9099 15.4193 21.8984L15.9785 22.4576C16.2714 22.7505 16.7462 22.7505 17.0391 22.4576C17.332 22.1647 17.332 21.6898 17.0391 21.3969L9.03912 13.3969C8.74623 13.104 8.27135 13.104 7.97846 13.3969C7.68557 13.6898 7.68557 14.1647 7.97846 14.4576ZM12.6665 21.1773C13.2597 21.1773 13.8193 21.04 14.3167 20.7958L9.29797 15.7771C9.05375 16.2745 8.9165 16.834 8.9165 17.4273C8.9165 19.4983 10.5954 21.1773 12.6665 21.1773Z" fill="#8A8A8A"/>
<path d="M11.778 14.5517C12.0719 14.8436 12.5467 14.8421 12.8387 14.5483C13.1306 14.2545 13.1291 13.7796 12.8353 13.4876L12.3033 12.959L12.8319 12.427C13.1239 12.1332 13.1223 11.6583 12.8285 11.3663C12.5347 11.0744 12.0598 11.0759 11.7679 11.3697L10.7106 12.4338C10.4186 12.7276 10.4202 13.2025 10.714 13.4944L11.778 14.5517Z" fill="#8A8A8A"/>
</svg>
