<svg width="25" height="24" viewBox="0 0 25 24" fill="none" xmlns="http://www.w3.org/2000/svg">
<path d="M13.5716 10.0991L12.1692 14.0011L9.60831 17.1838L9.12891 21.1797H16.5909V15.3441V13.3095L18.8626 10.8552L14.7218 10.3827L13.5716 10.0991Z" fill="url(#paint0_linear_980_2970)"/>
<path d="M13.3772 2.40847C13.1064 2.19783 12.7271 2.19783 12.4563 2.40847L9.55927 4.66172C9.23231 4.91602 9.17341 5.38723 9.42771 5.71419C9.68201 6.04115 10.1532 6.10005 10.4802 5.84574L12.9167 3.95063L21.1667 10.3673V19.0005C21.1667 19.1386 21.0548 19.2505 20.9167 19.2505H19.9167C19.5025 19.2505 19.1667 19.5863 19.1667 20.0005C19.1667 20.4147 19.5025 20.7505 19.9167 20.7505H20.9167C21.8832 20.7505 22.6667 19.967 22.6667 19.0005V10.0005C22.6667 9.76905 22.5599 9.55057 22.3772 9.40847L13.3772 2.40847Z" fill="#016BBF"/>
<path d="M4.70099 10.3407C5.02795 10.0864 5.08685 9.61516 4.83255 9.2882C4.57825 8.96124 4.10704 8.90234 3.78008 9.15664L3.45629 9.40847C3.2736 9.55057 3.16675 9.76905 3.16675 10.0005V20.0005C3.16675 20.4147 3.50253 20.7505 3.91675 20.7505C4.33096 20.7505 4.66675 20.4147 4.66675 20.0005V10.3673L4.70099 10.3407Z" fill="#016BBF"/>
<path d="M14.06 9C14.06 8.58579 13.7242 8.25 13.31 8.25C12.8958 8.25 12.56 8.58579 12.56 9V11.4729C12.56 12.114 12.378 12.734 12.047 13.2718C12.0321 13.296 12.0186 13.321 12.0066 13.3467L12.0029 13.3517C11.9949 13.3629 11.9747 13.3911 11.9348 13.4393C11.8663 13.5217 11.7728 13.624 11.6639 13.7365C11.4608 13.9464 11.23 14.1657 11.0693 14.3127C11.0241 14.3448 10.9804 14.3748 10.9374 14.4028C10.2311 14.8594 9.64953 15.4796 9.24631 16.2102C8.84281 16.9412 8.631 17.7594 8.63116 18.5913V20.162C8.34888 20.0249 8.16675 19.7448 8.16675 19.4444V17.8889C8.16675 17.4747 7.83096 17.1389 7.41675 17.1389C7.00253 17.1389 6.66675 17.4747 6.66675 17.8889V19.4444C6.66675 20.7389 7.74312 21.75 9.02091 21.75H9.38116C9.79538 21.75 10.1312 21.4142 10.1312 21V18.5909C10.131 18.0144 10.2777 17.4457 10.5596 16.935C10.8415 16.4242 11.2506 15.9863 11.7526 15.662L11.7547 15.6606C11.8345 15.6087 11.9097 15.5562 11.9801 15.5054C12.003 15.4889 12.025 15.4712 12.0458 15.4522C12.2239 15.2906 12.4968 15.0328 12.7418 14.7796C12.8638 14.6535 12.9864 14.5209 13.089 14.3973C13.1615 14.31 13.2711 14.1727 13.3471 14.0209C13.8049 13.2622 14.06 12.3849 14.06 11.4729V11.1703C14.3353 11.2784 14.6348 11.3376 14.9462 11.3376H17.5986C17.5269 11.5603 17.3997 11.7668 17.2234 11.9378C16.936 12.2166 16.5413 12.3771 16.1251 12.3771C15.7109 12.3771 15.3751 12.7129 15.3751 13.1271L15.3741 20.25H14.1917C14.206 20.0213 14.2078 19.7636 14.1816 19.5C14.1394 19.0757 14.017 18.5551 13.6773 18.1275C13.3089 17.6637 12.7559 17.3984 12.0548 17.3984C11.6406 17.3984 11.3048 17.7342 11.3048 18.1484C11.3048 18.5627 11.6406 18.8984 12.0548 18.8984C12.3447 18.8984 12.4465 18.9897 12.5028 19.0605C12.5879 19.1676 12.6602 19.3599 12.6889 19.6484C12.7166 19.9264 12.6965 20.2203 12.6653 20.4561C12.6501 20.5713 12.633 20.6666 12.6201 20.7315C12.6137 20.7638 12.6084 20.7882 12.605 20.8034L12.6012 20.8198L12.6009 20.821C12.546 21.0444 12.5967 21.2808 12.7385 21.4621C12.8807 21.6438 13.0988 21.75 13.3295 21.75H16.1251C16.5393 21.75 16.8751 21.4142 16.8751 21V13.7853C17.3957 13.6559 17.8779 13.3926 18.2676 13.0147C18.8405 12.4592 19.1667 11.7007 19.1667 10.9049V10.5876C19.1667 10.1733 18.831 9.83756 18.4167 9.83756H14.9462C14.4353 9.83756 14.06 9.44118 14.06 9Z" fill="#016BBF"/>
<path d="M5.18494 8.7729C5.05595 8.37929 5.27047 7.95563 5.66409 7.82664L9.05254 6.71623C9.34665 6.61984 9.66976 6.71403 9.86602 6.95335C10.0623 7.19266 10.0914 7.52796 9.93928 7.79751L8.34752 10.6183L10.1389 10.0313C10.5325 9.90231 10.9562 10.1168 11.0852 10.5105C11.2142 10.9041 10.9996 11.3277 10.606 11.4567L6.97813 12.6456C6.68402 12.742 6.36091 12.6478 6.16465 12.4085C5.96839 12.1692 5.93929 11.8339 6.09139 11.5643L7.68315 8.74347L6.13121 9.25205C5.73759 9.38104 5.31393 9.16652 5.18494 8.7729Z" fill="#016BBF"/>
<path d="M3.81322 3.19179C3.42345 3.33199 3.22114 3.76161 3.36133 4.15137C3.50153 4.54114 3.93115 4.74346 4.32091 4.60326L4.74333 4.45132L4.05651 5.90567C3.9269 6.1801 3.97547 6.50559 4.17954 6.73023C4.3836 6.95488 4.70295 7.0344 4.98853 6.93168L7.26781 6.11184C7.65758 5.97164 7.8599 5.54202 7.7197 5.15225C7.5795 4.76249 7.14989 4.56017 6.76012 4.70037L6.18727 4.90642L6.87409 3.45207C7.0037 3.17764 6.95513 2.85215 6.75106 2.6275C6.547 2.40286 6.22765 2.32334 5.94207 2.42606L3.81322 3.19179Z" fill="#016BBF"/>
<defs>
<linearGradient id="paint0_linear_980_2970" x1="14.4044" y1="10.0991" x2="14.4044" y2="20.6386" gradientUnits="userSpaceOnUse">
<stop offset="0.442112" stop-color="#B3D3EC"/>
<stop offset="1" stop-color="#B3D3EC" stop-opacity="0"/>
</linearGradient>
</defs>
</svg>
