<svg width="25" height="24" viewBox="0 0 25 24" fill="none" xmlns="http://www.w3.org/2000/svg">
<path d="M4.1936 14.9594L5.25195 17.6737L6.12595 19.6521L8.24225 18.7319L14.2691 20.9862L21.4001 16.8917V14.9594L19.6058 14.2233L15.0972 15.8335V14.2233L10.7726 12.429L4.1936 14.9594Z" fill="#B3D3EC"/>
<path fill-rule="evenodd" clip-rule="evenodd" d="M10.788 3.29413C11.3454 2.73673 12.1014 2.42358 12.8897 2.42358C13.678 2.42358 14.434 2.73673 14.9914 3.29413C15.5488 3.85153 15.8619 4.60752 15.8619 5.39581C15.8619 6.18409 15.5488 6.94009 14.9914 7.49749C14.434 8.05488 13.678 8.36803 12.8897 8.36803C12.1014 8.36803 11.3454 8.05488 10.788 7.49749C10.2306 6.94009 9.91748 6.18409 9.91748 5.39581C9.91748 4.60752 10.2306 3.85153 10.788 3.29413ZM12.8897 3.92358C12.4992 3.92358 12.1248 4.07869 11.8487 4.35479C11.5726 4.63088 11.4175 5.00535 11.4175 5.39581C11.4175 5.78626 11.5726 6.16073 11.8487 6.43682C12.1248 6.71292 12.4992 6.86803 12.8897 6.86803C13.2802 6.86803 13.6546 6.71292 13.9307 6.43682C14.2068 6.16073 14.3619 5.78626 14.3619 5.39581C14.3619 5.00535 14.2068 4.63088 13.9307 4.35479C13.6546 4.07869 13.2802 3.92358 12.8897 3.92358ZM10.3332 13.3412C10.7856 13.1626 11.2904 13.171 11.7366 13.3644L13.9171 14.3123C14.1538 14.4152 14.3399 14.608 14.4345 14.8481C14.5291 15.0882 14.5245 15.3561 14.4216 15.5928C14.337 15.7873 14.1918 15.9477 14.0095 16.0512L13.9316 16.0893C13.9238 16.093 13.9162 16.0969 13.9087 16.1009L13.8973 16.1057L13.8858 16.1103C13.6457 16.2049 13.3778 16.2002 13.1411 16.0973L11.1657 15.2385C10.7859 15.0734 10.344 15.2475 10.1789 15.6273C10.0137 16.0072 10.1878 16.449 10.5677 16.6142L12.5431 17.4729C13.1446 17.7344 13.8254 17.7463 14.4357 17.5058C14.5267 17.47 14.615 17.4289 14.7003 17.3831L19.554 15.0108C19.7546 14.922 19.9815 14.9123 20.1891 14.9838C20.3995 15.0562 20.5741 15.2065 20.677 15.4038C20.78 15.6011 20.8034 15.8303 20.7425 16.0443C20.6816 16.2583 20.541 16.4408 20.3496 16.5543L14.9836 19.8093C14.7344 19.9608 14.4526 20.0506 14.1617 20.0715C13.8717 20.0922 13.5808 20.0438 13.3131 19.93L9.2628 18.1692C8.96362 18.0389 8.64162 17.969 8.31533 17.9637C7.98943 17.9584 7.6657 18.0176 7.36275 18.1378L7.36161 18.1383L6.46312 18.4923L5.22638 15.3532L10.3332 13.3412ZM3.55129 15.1937L3.55577 15.2053L3.56044 15.2169L5.33789 19.7283L5.34236 19.7399L5.34702 19.7515L5.78918 20.8737C5.94101 21.2591 6.37651 21.4484 6.76189 21.2966C7.14728 21.1448 7.3366 20.7093 7.18477 20.3239L7.01297 19.8878L7.91353 19.533L7.91561 19.5322C8.03494 19.4848 8.16249 19.4614 8.29089 19.4635C8.41928 19.4656 8.54655 19.4933 8.66427 19.5446L12.7177 21.3068L12.7226 21.3089C13.2101 21.5168 13.7402 21.6055 14.2689 21.5676C14.7976 21.5298 15.3097 21.3664 15.7626 21.0911L21.1181 17.8425C21.6378 17.5331 22.0196 17.0367 22.1852 16.4549C22.3512 15.8718 22.2873 15.2473 22.0069 14.7098C21.7264 14.1723 21.2506 13.7628 20.6773 13.5655C20.1041 13.3681 19.477 13.398 18.9251 13.6489L18.9062 13.6578L15.9991 15.0787C15.9855 14.8136 15.9293 14.5499 15.8301 14.2982C15.5897 13.688 15.1167 13.1982 14.5151 12.9367L12.3337 11.9884C11.5227 11.6367 10.6048 11.6215 9.78252 11.9459L4.67653 13.9576L4.50488 13.522C4.35304 13.1366 3.91754 12.9473 3.53216 13.0991C3.14678 13.2509 2.95745 13.6864 3.10929 14.0718L3.55129 15.1937ZM10.7376 11.0018C11.0137 10.7257 11.3882 10.5706 11.7786 10.5706H14.0008C14.3913 10.5706 14.7658 10.7257 15.0419 11.0018C15.318 11.2779 15.4731 11.6523 15.4731 12.0428C15.4731 12.457 15.8089 12.7928 16.2231 12.7928C16.6373 12.7928 16.9731 12.457 16.9731 12.0428C16.9731 11.2545 16.6599 10.4985 16.1025 9.9411C15.5451 9.3837 14.7891 9.07056 14.0008 9.07056H11.7786C10.9903 9.07056 10.2343 9.3837 9.67695 9.9411C9.38405 10.234 9.38405 10.7089 9.67695 11.0018C9.96984 11.2947 10.4447 11.2947 10.7376 11.0018Z" fill="#016BBF"/>
</svg>
