<svg width="25" height="24" viewBox="0 0 25 24" fill="none" xmlns="http://www.w3.org/2000/svg">
<rect x="4.16577" y="9.4563" width="7.58105" height="10.3259" fill="#B3D3EC"/>
<path fill-rule="evenodd" clip-rule="evenodd" d="M7.9165 12.3179C6.67386 12.3179 5.6665 13.3252 5.6665 14.5679C5.6665 15.8105 6.67386 16.8179 7.9165 16.8179C9.15914 16.8179 10.1665 15.8105 10.1665 14.5679C10.1665 13.3252 9.15914 12.3179 7.9165 12.3179ZM7.1665 14.5679C7.1665 14.1537 7.50229 13.8179 7.9165 13.8179C8.33072 13.8179 8.6665 14.1537 8.6665 14.5679C8.6665 14.9821 8.33072 15.3179 7.9165 15.3179C7.50229 15.3179 7.1665 14.9821 7.1665 14.5679Z" fill="#016BBF"/>
<path fill-rule="evenodd" clip-rule="evenodd" d="M16.1665 5.43213C16.1665 5.29406 16.2784 5.18213 16.4165 5.18213H17.9165C18.0546 5.18213 18.1665 5.29406 18.1665 5.43213V13.4321C18.1665 13.8463 18.5023 14.1821 18.9165 14.1821C19.3307 14.1821 19.6665 13.8463 19.6665 13.4321V5.43213C19.6665 4.46563 18.883 3.68213 17.9165 3.68213H16.4165C15.45 3.68213 14.6665 4.46563 14.6665 5.43213V15.4321C14.6665 15.5702 14.5546 15.6821 14.4165 15.6821H12.6665V11.5679C12.6665 10.8385 12.3768 10.1391 11.861 9.62333C11.5263 9.28855 11.1141 9.049 10.6665 8.92211V8.01372C11.2577 7.73285 11.6665 7.13023 11.6665 6.43213V5.43213C11.6665 4.46563 10.883 3.68213 9.9165 3.68213H5.9165C4.95001 3.68213 4.1665 4.46563 4.1665 5.43213V6.43213C4.1665 7.13023 4.57527 7.73285 5.1665 8.01372V8.92211C4.71895 9.049 4.30674 9.28855 3.97196 9.62333C3.45624 10.1391 3.1665 10.8385 3.1665 11.5679V17.5679C3.1665 18.2972 3.45624 18.9967 3.97196 19.5124C4.48768 20.0281 5.18716 20.3179 5.9165 20.3179H9.9165C10.6458 20.3179 11.3453 20.0281 11.861 19.5124C12.3768 18.9967 12.6665 18.2972 12.6665 17.5679V17.1821H14.4165C15.383 17.1821 16.1665 16.3986 16.1665 15.4321V5.43213ZM6.6665 8.18213V8.81787H9.1665V8.18213H6.6665ZM9.9165 6.68213H5.9165C5.77843 6.68213 5.6665 6.5702 5.6665 6.43213V5.43213C5.6665 5.29406 5.77843 5.18213 5.9165 5.18213H9.9165C10.0546 5.18213 10.1665 5.29406 10.1665 5.43213V6.43213C10.1665 6.5702 10.0546 6.68213 9.9165 6.68213ZM11.1665 11.5679C11.1665 11.2364 11.0348 10.9184 10.8004 10.684C10.566 10.4496 10.248 10.3179 9.9165 10.3179H5.9165C5.58498 10.3179 5.26704 10.4496 5.03262 10.684C4.7982 10.9184 4.6665 11.2364 4.6665 11.5679V17.5679C4.6665 17.8994 4.7982 18.2173 5.03262 18.4518C5.26704 18.6862 5.58498 18.8179 5.9165 18.8179H9.9165C10.248 18.8179 10.566 18.6862 10.8004 18.4518C11.0348 18.2173 11.1665 17.8994 11.1665 17.5679V11.5679Z" fill="#016BBF"/>
<path d="M18.9165 15.3179C19.3307 15.3179 19.6665 15.6537 19.6665 16.0679V16.0779C19.6665 16.4921 19.3307 16.8279 18.9165 16.8279C18.5023 16.8279 18.1665 16.4921 18.1665 16.0779V16.0679C18.1665 15.6537 18.5023 15.3179 18.9165 15.3179Z" fill="#016BBF"/>
<path d="M18.1665 18.0679C18.1665 17.6537 17.8307 17.3179 17.4165 17.3179C17.0023 17.3179 16.6665 17.6537 16.6665 18.0679V18.0779C16.6665 18.4921 17.0023 18.8279 17.4165 18.8279C17.8307 18.8279 18.1665 18.4921 18.1665 18.0779V18.0679Z" fill="#016BBF"/>
<path d="M20.4165 17.3179C20.8307 17.3179 21.1665 17.6537 21.1665 18.0679V18.0779C21.1665 18.4921 20.8307 18.8279 20.4165 18.8279C20.0023 18.8279 19.6665 18.4921 19.6665 18.0779V18.0679C19.6665 17.6537 20.0023 17.3179 20.4165 17.3179Z" fill="#016BBF"/>
</svg>
