<svg width="25" height="24" viewBox="0 0 25 24" fill="none" xmlns="http://www.w3.org/2000/svg">
<path d="M4.6936 15.3354L5.75195 18.0497L6.62595 20.028L8.74225 19.1079L14.7691 21.3622L21.9001 17.2676V15.3354L20.1058 14.5993L15.5972 16.2095V14.5993L11.2726 12.8049L4.6936 15.3354Z" fill="#B3D3EC"/>
<path d="M14.0599 2.48535C14.0599 2.07114 13.7241 1.73535 13.3099 1.73535C12.8957 1.73535 12.5599 2.07114 12.5599 2.48535V4.95824C12.5599 5.59933 12.3779 6.21937 12.0469 6.75717C12.032 6.78134 12.0185 6.80633 12.0065 6.83201C12.0065 6.83201 12.0047 6.83441 12.0028 6.83709C11.9949 6.84819 11.9747 6.87644 11.9347 6.92463C11.8662 7.0071 11.7727 7.10932 11.6638 7.22189C11.457 7.43557 11.2216 7.65897 11.0606 7.80596L11.026 7.83233C10.9896 7.86012 10.9405 7.89749 10.8895 7.93607C10.8382 7.97486 10.7863 8.01395 10.7438 8.04549C10.7142 8.06741 10.6964 8.08034 10.6878 8.08654C10.6835 8.08967 10.6817 8.09108 10.6817 8.09108L10.6831 8.09017C10.6651 8.10188 10.6476 8.11435 10.6307 8.12755C10.3274 8.36436 10.0737 8.57619 9.84814 8.82539C9.6171 9.08061 9.43571 9.3522 9.24621 9.69552C9.06774 10.0189 8.92672 10.3593 8.82498 10.7106C8.70973 11.1084 8.93882 11.5244 9.33668 11.6396C9.73454 11.7549 10.1505 11.5258 10.2657 11.1279C10.3365 10.8837 10.4347 10.6464 10.5595 10.4204C10.7127 10.1428 10.8301 9.97573 10.9602 9.83206C11.093 9.68537 11.2586 9.54096 11.5365 9.32339C11.6072 9.2739 11.7191 9.18934 11.7946 9.13225C11.8476 9.09215 11.8983 9.05356 11.9356 9.02506L11.9977 8.97767C12.0143 8.96498 12.0303 8.9516 12.0457 8.93757C12.2238 8.77591 12.4967 8.51817 12.7417 8.26496C12.8637 8.13887 12.9863 8.00623 13.0889 7.88264C13.1614 7.79531 13.2711 7.65808 13.347 7.50623C13.8048 6.74757 14.0599 5.87026 14.0599 4.95824V4.65562C14.3352 4.76373 14.6347 4.82291 14.9462 4.82291H17.5985C17.5268 5.04566 17.3996 5.2522 17.2233 5.42316C16.9359 5.70192 16.5412 5.86246 16.125 5.86246C15.7108 5.86246 15.375 6.19825 15.375 6.61246V12.4854C15.375 12.8996 15.7108 13.2354 16.125 13.2354C16.5392 13.2354 16.875 12.8996 16.875 12.4854V7.2707C17.3956 7.14129 17.8778 6.87799 18.2675 6.50001C18.8404 5.94452 19.1667 5.1861 19.1667 4.39024V4.07291C19.1667 3.65869 18.8309 3.32291 18.4167 3.32291H14.9462C14.4352 3.32291 14.0599 2.92653 14.0599 2.48535Z" fill="#016BBF"/>
<path fill-rule="evenodd" clip-rule="evenodd" d="M3.80582 15.8935L3.80207 15.8838L3.35929 14.76C3.20745 14.3746 3.39678 13.9391 3.78216 13.7873C4.16754 13.6354 4.60304 13.8248 4.75488 14.2101L4.92656 14.6459L10.0326 12.6342C10.8549 12.3097 11.7727 12.3249 12.5837 12.6766L14.7652 13.6249C15.3667 13.8864 15.8397 14.3762 16.0802 14.9865C16.1793 15.2381 16.2356 15.5018 16.2491 15.767L19.1563 14.3461L19.1752 14.3371C19.7271 14.0862 20.3542 14.0564 20.9274 14.2537C21.5006 14.451 21.9764 14.8606 22.2569 15.398C22.5374 15.9355 22.6012 16.56 22.4353 17.1431C22.2697 17.7249 21.8879 18.2214 21.3682 18.5307L16.0127 21.7794C15.5597 22.0546 15.0476 22.218 14.519 22.2559C13.9903 22.2937 13.4602 22.205 12.9726 21.9971L12.9678 21.9951L8.91433 20.2329C8.7966 20.1816 8.66934 20.1539 8.54094 20.1518C8.41254 20.1497 8.285 20.173 8.16566 20.2204L8.16359 20.2213L7.26299 20.5761L7.43477 21.0121C7.5866 21.3974 7.39728 21.833 7.01189 21.9848C6.62651 22.1366 6.19101 21.9473 6.03918 21.5619L5.59629 20.4378L5.59241 20.4282L5.58867 20.4185L3.80971 15.9032L3.80582 15.8935ZM11.9867 14.0526C11.5404 13.8592 11.0357 13.8508 10.5833 14.0294L5.4764 16.0415L6.71315 19.1805L7.61166 18.8265L7.61281 18.826C7.91575 18.7058 8.23948 18.6467 8.56538 18.652C8.89167 18.6573 9.21368 18.7271 9.51285 18.8575L13.5632 20.6183C13.8308 20.732 14.1217 20.7805 14.4118 20.7597C14.7027 20.7389 14.9844 20.649 15.2336 20.4975L20.5996 17.2425C20.791 17.129 20.9317 16.9465 20.9926 16.7325C21.0535 16.5185 21.03 16.2893 20.9271 16.092C20.8242 15.8947 20.6495 15.7444 20.4391 15.672C20.2315 15.6005 20.0047 15.6103 19.8041 15.699L14.9504 18.0713C14.8651 18.1172 14.7767 18.1582 14.6857 18.1941C14.0755 18.4345 13.3947 18.4227 12.7931 18.1612L10.8177 17.3024C10.4379 17.1373 10.2638 16.6955 10.4289 16.3156C10.5941 15.9357 11.0359 15.7616 11.4158 15.9268L13.3912 16.7855C13.6279 16.8884 13.8957 16.8931 14.1359 16.7985C14.1435 16.7955 14.1512 16.7924 14.1587 16.7891C14.1663 16.7851 14.1739 16.7813 14.1816 16.7775L14.2596 16.7394C14.4419 16.6359 14.5871 16.4755 14.6716 16.281C14.7745 16.0443 14.7792 15.7765 14.6846 15.5363C14.59 15.2962 14.4038 15.1035 14.1671 15.0006L11.9867 14.0526Z" fill="#016BBF"/>
</svg>
