<svg width="25" height="24" viewBox="0 0 25 24" fill="none" xmlns="http://www.w3.org/2000/svg">
<path d="M13.8718 4.93164L13.4524 8.62272L12.9165 9.5874L16.7588 10.4777L18.2759 9.5874L21.2119 7.57413L21.5893 5.60281L15.5496 5.18338L13.8718 4.93164Z" fill="#B3D3EC"/>
<path fill-rule="evenodd" clip-rule="evenodd" d="M13.514 2.25C13.9282 2.25 14.264 2.58579 14.264 3C14.264 3.87045 15.0105 4.63133 16.0003 4.63133H21.2736C21.6878 4.63133 22.0236 4.96712 22.0236 5.38133V5.85733C22.0236 6.95113 21.5694 7.99314 20.7723 8.75614C20.1575 9.34475 19.3773 9.73086 18.5415 9.87605V10.2784C18.5416 10.2869 18.5416 10.2953 18.5415 10.3037V21C18.5415 21.4142 18.2057 21.75 17.7915 21.75H13.5439C13.3128 21.75 13.0939 21.6434 12.9518 21.4612C12.8099 21.2792 12.7597 21.0421 12.8156 20.8183L12.8159 20.8172M12.8159 20.8172L12.817 20.8127L12.8233 20.7853C12.8292 20.7598 12.8379 20.7201 12.8483 20.6684C12.8691 20.5647 12.8965 20.4139 12.9208 20.2321C12.9703 19.863 13.0039 19.3917 12.9581 18.9365C12.9112 18.4711 12.7891 18.1017 12.5955 17.8612C12.4302 17.6558 12.1577 17.4727 11.6068 17.4727C11.1926 17.4727 10.8568 17.1369 10.8568 16.7227C10.8568 16.3085 11.1926 15.9727 11.6068 15.9727C12.5616 15.9727 13.284 16.3242 13.7641 16.9208C14.216 17.4823 14.3897 18.1822 14.4505 18.7862C14.5042 19.3186 14.4761 19.8389 14.4299 20.25H17.0415V11.0922C16.2676 11.0868 15.4972 10.935 14.8268 10.7408C14.2666 10.5785 13.7507 10.3791 13.3263 10.1869C13.2939 10.243 13.2607 10.2988 13.2267 10.3541C13.1344 10.5416 12.9893 10.7245 12.8753 10.8601C12.7282 11.0351 12.5494 11.2264 12.3673 11.4121C12.0022 11.7846 11.5939 12.1654 11.3277 12.4039C11.3068 12.4227 11.2848 12.4402 11.2618 12.4566C11.1581 12.5303 11.0491 12.6054 10.9345 12.679L10.9324 12.6803C10.1163 13.2009 9.45061 13.904 8.99166 14.7249C8.53284 15.5455 8.294 16.4597 8.29422 17.3865V21C8.29422 21.4142 7.95843 21.75 7.54422 21.75H6.99683C5.26832 21.75 3.80933 20.3994 3.80933 18.6667V16.3333C3.80933 15.9191 4.14511 15.5833 4.55933 15.5833C4.97354 15.5833 5.30933 15.9191 5.30933 16.3333V18.6667C5.30933 19.4496 5.93438 20.1437 6.79422 20.2389V17.3868C6.79397 16.201 7.0998 15.0349 7.68241 13.9929C8.26472 12.9514 9.10466 12.0672 10.1248 11.4163C10.2021 11.3666 10.2794 11.314 10.3583 11.2584C10.6074 11.034 10.9733 10.6914 11.2961 10.3621C11.465 10.1898 11.6145 10.0288 11.7272 9.89476C11.8128 9.79296 11.8532 9.73435 11.8681 9.71271C11.8762 9.70097 11.8768 9.70011 11.873 9.70915C11.8887 9.6715 11.9074 9.63519 11.929 9.60058C12.0713 9.37237 12.1966 9.13489 12.3041 8.88994C12.3067 8.88384 12.3094 8.87775 12.3121 8.87169C12.6063 8.19468 12.764 7.46118 12.764 6.70933V3C12.764 2.58579 13.0998 2.25 13.514 2.25M14.264 5.64203V6.70933C14.264 7.43356 14.1497 8.14252 13.934 8.81549C14.2947 8.97935 14.7475 9.15616 15.2442 9.30003C15.8395 9.4725 16.4612 9.58686 17.0415 9.59219V9.19067C17.0415 8.77645 17.3773 8.44067 17.7915 8.44067C18.5264 8.44067 19.225 8.16089 19.7351 7.67258C20.1748 7.25169 20.4432 6.70662 20.5082 6.13133H16.0003C15.3666 6.13133 14.7691 5.95281 14.264 5.64203Z" fill="#016BBF"/>
</svg>
