<svg width="25" height="24" viewBox="0 0 25 24" fill="none" xmlns="http://www.w3.org/2000/svg">
<path d="M16.0164 7.49561H13.9444H9.20887C9.43906 8.33423 9.57385 10.6528 8.27157 13.2179C6.96929 15.783 6.77541 18.1343 6.84125 18.9893C8.58417 18.9565 12.2476 18.9104 12.9579 18.9893C13.8458 19.088 17.3975 17.8055 18.4828 14.3524C19.3509 11.59 17.2003 8.63021 16.0164 7.49561Z" fill="url(#paint0_radial_979_2126)"/>
<path d="M14.5207 2.54544C14.1746 2.31795 13.7096 2.41415 13.4821 2.7603C13.2546 3.10645 13.3508 3.57148 13.6969 3.79897L16.4408 5.6022C16.3139 5.88626 16.1286 6.18357 15.8855 6.41334C15.536 6.74379 15.054 6.95719 14.312 6.74838C13.9133 6.63616 13.4991 6.86841 13.3869 7.26714C13.2747 7.66586 13.5069 8.08006 13.9056 8.19228C14.5349 8.36939 15.099 8.36745 15.5927 8.24278C16.9307 9.77478 17.5703 11.1396 17.7761 12.301C17.9875 13.4934 17.7514 14.522 17.268 15.3749C16.2718 17.1324 14.2264 18.1422 12.8408 18.1422C12.4266 18.1422 12.0908 18.478 12.0908 18.8922C12.0908 19.2433 12.332 19.538 12.6577 19.6197L12.517 20.7336C12.4651 21.1445 12.7561 21.5197 13.167 21.5717C13.578 21.6236 13.9532 21.3326 14.0051 20.9216L14.1905 19.455C15.8311 19.0207 17.5905 17.8479 18.573 16.1146C19.2185 14.9757 19.5288 13.5946 19.2531 12.0392C19.0008 10.6156 18.266 9.09018 16.926 7.4938C17.5781 6.87234 17.9298 6.04438 18.0663 5.46552C18.1387 5.15882 18.0116 4.8396 17.7483 4.66653L14.5207 2.54544Z" fill="#016BBF"/>
<path d="M8.04997 2.71766C8.45005 2.6104 8.86134 2.84779 8.96859 3.24788C9.27573 4.39358 9.74693 6.18859 9.95981 7.967C10.0663 8.85691 10.1115 9.76713 10.0312 10.6059C9.9516 11.4373 9.74348 12.2576 9.29497 12.9181C8.13517 14.6259 7.55768 16.1034 7.48653 17.3193C7.41782 18.4934 7.81577 19.4671 8.73438 20.2604C9.04787 20.5311 9.08253 21.0047 8.81179 21.3182C8.54106 21.6317 8.06745 21.6664 7.75396 21.3956C6.47871 20.2943 5.89339 18.8671 5.98909 17.2317C6.08234 15.638 6.81695 13.8971 8.05405 12.0754C8.30581 11.7046 8.47088 11.1642 8.538 10.463C8.60442 9.769 8.56971 8.97453 8.47044 8.14529C8.27175 6.4854 7.82751 4.78429 7.51975 3.63628C7.41249 3.2362 7.64988 2.82492 8.04997 2.71766Z" fill="#016BBF"/>
<path d="M14.4799 10.1691C14.8093 9.91789 15.2799 9.98121 15.5311 10.3105C15.9121 10.81 16.3094 11.6584 16.3349 12.6612C16.3612 13.6971 15.988 14.8511 14.8935 15.89C14.5931 16.1751 14.1184 16.1627 13.8332 15.8623C13.5481 15.5619 13.5604 15.0872 13.8609 14.802C14.6465 14.0563 14.8509 13.3118 14.8354 12.6993C14.819 12.0538 14.555 11.5041 14.3385 11.2203C14.0873 10.891 14.1506 10.4203 14.4799 10.1691Z" fill="#016BBF"/>
<defs>
<radialGradient id="paint0_radial_979_2126" cx="0" cy="0" r="1" gradientUnits="userSpaceOnUse" gradientTransform="translate(17.6616 13.2451) rotate(180) scale(9.51614 6.50746)">
<stop offset="0.446852" stop-color="#B3D3EC"/>
<stop offset="1" stop-color="#B3D3EC" stop-opacity="0"/>
</radialGradient>
</defs>
</svg>
