<svg width="25" height="25" viewBox="0 0 25 25" fill="none" xmlns="http://www.w3.org/2000/svg">
<path d="M12.6665 12.7317C13.0807 12.7317 13.4165 13.0675 13.4165 13.4817V13.4917C13.4165 13.9059 13.0807 14.2417 12.6665 14.2417C12.2523 14.2417 11.9165 13.9059 11.9165 13.4917V13.4817C11.9165 13.0675 12.2523 12.7317 12.6665 12.7317Z" fill="#8A8A8A"/>
<path fill-rule="evenodd" clip-rule="evenodd" d="M7.9165 7.73169V6.48169C7.9165 5.75234 8.20624 5.05287 8.72196 4.53715C9.23769 4.02142 9.93716 3.73169 10.6665 3.73169H14.6665C15.3958 3.73169 16.0953 4.02142 16.611 4.53715C17.1268 5.05287 17.4165 5.75234 17.4165 6.48169V7.73169H19.6665C20.3958 7.73169 21.0953 8.02142 21.611 8.53715C22.1268 9.05287 22.4165 9.75234 22.4165 10.4817V14.4701C22.4166 14.4774 22.4166 14.4847 22.4165 14.492V19.4817C22.4165 20.211 22.1268 20.9105 21.611 21.4262C21.0953 21.942 20.3958 22.2317 19.6665 22.2317H5.6665C4.93716 22.2317 4.23768 21.942 3.72196 21.4262C3.20624 20.9105 2.9165 20.211 2.9165 19.4817V14.5001C2.91618 14.4874 2.91618 14.4747 2.9165 14.4619V10.4817C2.9165 9.75234 3.20624 9.05287 3.72196 8.53715C4.23769 8.02142 4.93716 7.73169 5.6665 7.73169H7.9165ZM9.78262 5.59781C10.017 5.36339 10.335 5.23169 10.6665 5.23169H14.6665C14.998 5.23169 15.316 5.36339 15.5504 5.59781C15.7848 5.83223 15.9165 6.15017 15.9165 6.48169V7.73169H9.4165V6.48169C9.4165 6.15017 9.5482 5.83223 9.78262 5.59781ZM4.4165 15.6605V19.4817C4.4165 19.8132 4.5482 20.1312 4.78262 20.3656C5.01704 20.6 5.33498 20.7317 5.6665 20.7317H19.6665C19.998 20.7317 20.316 20.6 20.5504 20.3656C20.7848 20.1312 20.9165 19.8132 20.9165 19.4817V15.6604C18.3163 16.7872 15.5087 17.371 12.6664 17.371C9.8242 17.371 7.01665 16.7872 4.4165 15.6605ZM20.9165 14.0135C18.3399 15.2357 15.522 15.871 12.6664 15.871C9.81087 15.871 6.99306 15.2358 4.4165 14.0136V10.4817C4.4165 10.1502 4.5482 9.83223 4.78262 9.59781C5.01704 9.36339 5.33498 9.23169 5.6665 9.23169H19.6665C19.998 9.23169 20.316 9.36339 20.5504 9.59781C20.7848 9.83223 20.9165 10.1502 20.9165 10.4817V14.0135Z" fill="#8A8A8A"/>
</svg>
