<svg width="25" height="25" viewBox="0 0 25 25" fill="none" xmlns="http://www.w3.org/2000/svg">
<path fill-rule="evenodd" clip-rule="evenodd" d="M5.01485 4.83004C5.71811 4.12678 6.67194 3.73169 7.6665 3.73169H11.6665C12.6611 3.73169 13.6149 4.12678 14.3182 4.83004C15.0214 5.5333 15.4165 6.48713 15.4165 7.48169V20.7317H18.9165V18.1274C18.469 18.0006 18.0567 17.761 17.722 17.4262C17.2062 16.9105 16.9165 16.211 16.9165 15.4817V13.4817C16.9165 12.7523 17.2062 12.0529 17.722 11.5371C18.2377 11.0214 18.9372 10.7317 19.6665 10.7317C20.3958 10.7317 21.0953 11.0214 21.611 11.5371C22.1268 12.0529 22.4165 12.7523 22.4165 13.4817V15.4817C22.4165 16.211 22.1268 16.9105 21.611 17.4262C21.2763 17.761 20.8641 18.0006 20.4165 18.1274V20.7317H21.6665C22.0807 20.7317 22.4165 21.0675 22.4165 21.4817C22.4165 21.8959 22.0807 22.2317 21.6665 22.2317H19.6665H14.6665H9.6665H4.6665H3.6665C3.25229 22.2317 2.9165 21.8959 2.9165 21.4817C2.9165 21.0675 3.25229 20.7317 3.6665 20.7317H3.9165V7.48169C3.9165 6.48713 4.31159 5.5333 5.01485 4.83004ZM10.4165 20.7317V17.4817C10.4165 17.0675 10.0807 16.7317 9.6665 16.7317C9.25229 16.7317 8.9165 17.0675 8.9165 17.4817V20.7317H5.4165V7.48169C5.4165 6.88495 5.65356 6.31266 6.07551 5.8907C6.49747 5.46874 7.06977 5.23169 7.6665 5.23169H11.6665C12.2632 5.23169 12.8355 5.46874 13.2575 5.8907C13.6795 6.31266 13.9165 6.88495 13.9165 7.48169V20.7317H10.4165ZM19.6665 16.7317C19.998 16.7317 20.316 16.6 20.5504 16.3656C20.7848 16.1312 20.9165 15.8132 20.9165 15.4817V13.4817C20.9165 13.1502 20.7848 12.8322 20.5504 12.5978C20.316 12.3634 19.998 12.2317 19.6665 12.2317C19.335 12.2317 19.017 12.3634 18.7826 12.5978C18.5482 12.8322 18.4165 13.1502 18.4165 13.4817V15.4817C18.4165 15.8132 18.5482 16.1312 18.7826 16.3656C19.017 16.6 19.335 16.7317 19.6665 16.7317ZM7.9165 13.4817C7.9165 13.0675 8.25229 12.7317 8.6665 12.7317H10.6665C11.0807 12.7317 11.4165 13.0675 11.4165 13.4817C11.4165 13.8959 11.0807 14.2317 10.6665 14.2317H8.6665C8.25229 14.2317 7.9165 13.8959 7.9165 13.4817ZM8.6665 8.73169C8.25229 8.73169 7.9165 9.06748 7.9165 9.48169C7.9165 9.8959 8.25229 10.2317 8.6665 10.2317H10.6665C11.0807 10.2317 11.4165 9.8959 11.4165 9.48169C11.4165 9.06748 11.0807 8.73169 10.6665 8.73169H8.6665Z" fill="#8A8A8A"/>
</svg>
