<svg width="25" height="24" viewBox="0 0 25 24" fill="none" xmlns="http://www.w3.org/2000/svg">
<path fill-rule="evenodd" clip-rule="evenodd" d="M6.42473 6.88287V8.43682C6.87228 8.5637 7.28449 8.80325 7.61928 9.13803C8.135 9.65376 8.42473 10.3532 8.42473 11.0826C8.42473 11.8119 8.135 12.5114 7.61928 13.0271C7.10355 13.5428 6.40408 13.8326 5.67473 13.8326C4.94539 13.8326 4.24591 13.5428 3.73019 13.0271C3.21446 12.5114 2.92473 11.8119 2.92473 11.0826C2.92473 10.3532 3.21446 9.65376 3.73019 9.13803C4.06497 8.80325 4.47718 8.5637 4.92473 8.43682V3.30444C4.92473 2.89023 5.26052 2.55444 5.67473 2.55444H7.79605C8.21027 2.55444 8.54605 2.89023 8.54605 3.30444C8.54605 3.71866 8.21027 4.05444 7.79605 4.05444L6.42473 4.05444V5.38287H7.79624C8.21045 5.38287 8.54624 5.71866 8.54624 6.13287C8.54624 6.54708 8.21045 6.88287 7.79624 6.88287L6.42473 6.88287ZM4.42473 11.0826C4.42473 11.4141 4.55643 11.732 4.79085 11.9665C5.02527 12.2009 5.34321 12.3326 5.67473 12.3326C6.00625 12.3326 6.3242 12.2009 6.55862 11.9665C6.79304 11.732 6.92473 11.4141 6.92473 11.0826C6.92473 10.7511 6.79304 10.4331 6.55862 10.1987C6.3242 9.96427 6.00625 9.83258 5.67473 9.83258C5.34321 9.83258 5.02527 9.96427 4.79085 10.1987C4.55643 10.4331 4.42473 10.7511 4.42473 11.0826Z" fill="#8A8A8A"/>
<path fill-rule="evenodd" clip-rule="evenodd" d="M8.9165 7.69537C8.9165 7.28116 9.25229 6.94537 9.6665 6.94537H14.6665C14.8943 6.94537 15.1098 7.04894 15.2522 7.22685L19.027 11.9454H19.6665C20.3958 11.9454 21.0953 12.2351 21.611 12.7508C22.1268 13.2666 22.4165 13.966 22.4165 14.6954V18.6954C22.4165 19.1096 22.0807 19.4454 21.6665 19.4454H20.3123C20.1854 19.8929 19.9458 20.3051 19.611 20.6399C19.0953 21.1556 18.3958 21.4454 17.6665 21.4454C16.9372 21.4454 16.2377 21.1556 15.722 20.6399C15.3872 20.3051 15.1476 19.8929 15.0207 19.4454H10.3123C10.1854 19.8929 9.94583 20.3051 9.61105 20.6399C9.09532 21.1556 8.39585 21.4454 7.6665 21.4454C6.93716 21.4454 6.23768 21.1556 5.72196 20.6399C5.38718 20.3051 5.14763 19.8929 5.02075 19.4454H3.6665C3.25229 19.4454 2.9165 19.1096 2.9165 18.6954V15.6954C2.9165 15.2812 3.25229 14.9454 3.6665 14.9454C4.08072 14.9454 4.4165 15.2812 4.4165 15.6954V17.9454H5.02075C5.14763 17.4978 5.38718 17.0856 5.72196 16.7508C6.23768 16.2351 6.93716 15.9454 7.6665 15.9454C8.39585 15.9454 9.09532 16.2351 9.61105 16.7508C9.94583 17.0856 10.1854 17.4978 10.3123 17.9454H15.0207C15.1476 17.4978 15.3872 17.0856 15.722 16.7508C16.2377 16.2351 16.9372 15.9454 17.6665 15.9454C18.3958 15.9454 19.0953 16.2351 19.611 16.7508C19.9458 17.0856 20.1854 17.4978 20.3123 17.9454H20.9165V14.6954C20.9165 14.3639 20.7848 14.0459 20.5504 13.8115C20.316 13.5771 19.998 13.4454 19.6665 13.4454H9.6665C9.25229 13.4454 8.9165 13.1096 8.9165 12.6954C8.9165 12.2812 9.25229 11.9454 9.6665 11.9454H11.9165V8.44537H9.6665C9.25229 8.44537 8.9165 8.10958 8.9165 7.69537ZM16.7826 19.5793C16.5482 19.3448 16.4165 19.0269 16.4165 18.6954C16.4165 18.3639 16.5482 18.0459 16.7826 17.8115C17.017 17.5771 17.335 17.4454 17.6665 17.4454C17.998 17.4454 18.316 17.5771 18.5504 17.8115C18.7848 18.0459 18.9165 18.3639 18.9165 18.6954C18.9165 19.0269 18.7848 19.3448 18.5504 19.5793C18.316 19.8137 17.998 19.9454 17.6665 19.9454C17.335 19.9454 17.017 19.8137 16.7826 19.5793ZM8.55039 17.8115C8.78481 18.0459 8.9165 18.3639 8.9165 18.6954C8.9165 19.0269 8.78481 19.3448 8.55039 19.5793C8.31597 19.8137 7.99802 19.9454 7.6665 19.9454C7.33498 19.9454 7.01704 19.8137 6.78262 19.5793C6.5482 19.3448 6.4165 19.0269 6.4165 18.6954C6.4165 18.3638 6.5482 18.0459 6.78262 17.8115C7.01704 17.5771 7.33498 17.4454 7.6665 17.4454C7.99802 17.4454 8.31597 17.5771 8.55039 17.8115ZM13.4165 8.44537V11.9454H17.106L14.306 8.44537H13.4165Z" fill="#8A8A8A"/>
</svg>
