<svg width="25" height="24" viewBox="0 0 25 24" fill="none" xmlns="http://www.w3.org/2000/svg">
<path fill-rule="evenodd" clip-rule="evenodd" d="M16.6011 4.32127C16.0629 4.22561 15.5091 4.22572 14.9654 4.32478C14.042 4.49302 13.1919 4.93865 12.5282 5.6023C11.8646 6.26594 11.419 7.11608 11.2507 8.03942C11.0825 8.96275 11.1997 9.91543 11.5866 10.7705C11.7153 11.0549 11.6544 11.3893 11.4336 11.61L5.25261 17.791C5.0374 18.0063 4.9165 18.2981 4.9165 18.6025C4.9165 18.9068 5.0374 19.1987 5.25261 19.4139C5.46781 19.6291 5.75969 19.75 6.06403 19.75C6.36837 19.75 6.66025 19.6291 6.87546 19.4139L13.0565 13.2329C13.2772 13.0121 13.6116 12.9512 13.896 13.0799C14.7511 13.4669 15.7038 13.584 16.6271 13.4158C17.5504 13.2475 18.4006 12.8019 19.0642 12.1383C19.7279 11.4746 20.1735 10.6245 20.3417 9.70114C20.4408 9.15744 20.4409 8.60357 20.3452 8.06544L17.8419 10.5688C17.5345 10.8701 17.1212 11.0388 16.6907 11.0388C16.2603 11.0388 15.847 10.8701 15.5396 10.5687L15.5342 10.5635L14.0977 9.12695C13.7964 8.81955 13.6277 8.40623 13.6277 7.97577C13.6277 7.54532 13.7965 7.13203 14.0978 6.82462L14.103 6.81927L16.6011 4.32127ZM14.6965 2.84908C15.9198 2.62619 17.182 2.78141 18.3149 3.29405C18.5392 3.39555 18.6994 3.60069 18.7435 3.84291C18.7876 4.08513 18.7101 4.33358 18.536 4.50767L15.1675 7.87618C15.1419 7.90302 15.1277 7.93867 15.1277 7.97577C15.1277 8.01288 15.1419 8.04854 15.1675 8.07538L16.5911 9.49901C16.618 9.52456 16.6536 9.53883 16.6907 9.53883C16.7278 9.53883 16.7635 9.52456 16.7903 9.49902L20.1588 6.13052C20.3329 5.95643 20.5814 5.87887 20.8236 5.923C21.0658 5.96714 21.271 6.12734 21.3725 6.35165C21.8851 7.48451 22.0403 8.7467 21.8174 9.97002C21.5945 11.1933 21.0041 12.3197 20.1249 13.1989C19.2456 14.0782 18.1193 14.6686 16.896 14.8915C15.8463 15.0827 14.7681 14.9956 13.7675 14.6432L7.93612 20.4746C7.43961 20.9711 6.7662 21.25 6.06403 21.25C5.36186 21.25 4.68845 20.9711 4.19195 20.4746C3.69544 19.978 3.4165 19.3046 3.4165 18.6025C3.4165 17.9003 3.69544 17.2269 4.19195 16.7304L10.0233 10.899C9.6709 9.89841 9.58379 8.82016 9.77503 7.77054C9.99792 6.54723 10.5883 5.42089 11.4676 4.54164C12.3468 3.66238 13.4732 3.07197 14.6965 2.84908Z" fill="#8A8A8A"/>
</svg>
