<svg width="25" height="24" viewBox="0 0 25 24" fill="none" xmlns="http://www.w3.org/2000/svg">
<path fill-rule="evenodd" clip-rule="evenodd" d="M12.0962 3C12.0962 2.74007 11.9616 2.49867 11.7405 2.36201C11.5194 2.22536 11.2433 2.21293 11.0108 2.32918L5.22193 5.22361C3.6127 6.02822 2.59619 7.67297 2.59619 9.47214V21C2.59619 21.4142 2.93198 21.75 3.34619 21.75H12.8289L12.8402 21.7499H20.9868C21.9533 21.7499 22.7368 20.9664 22.7368 19.9999V13.512C22.7368 12.8481 22.3611 12.2413 21.7667 11.9454L17.659 9.90044C17.1864 9.66516 16.6329 9.65581 16.1526 9.87498L11.6197 11.9436C10.9962 12.2281 10.5962 12.8503 10.5962 13.5356V19.9999C10.5962 20.0848 10.6022 20.1683 10.6139 20.25H4.09619V9.47214C4.09619 8.24113 4.7917 7.11577 5.89275 6.56525L10.5962 4.21353V8.99679C10.5962 9.411 10.932 9.74679 11.3462 9.74679C11.7604 9.74679 12.0962 9.411 12.0962 8.99679V3ZM16.9905 11.2432C16.923 11.2096 16.8439 11.2083 16.7753 11.2396L12.2424 13.3082C12.1533 13.3488 12.0962 13.4377 12.0962 13.5356V19.9999C12.0962 20.138 12.2081 20.2499 12.3462 20.2499H14.2302V17.7349C14.2302 16.3893 15.321 15.2986 16.6665 15.2986C18.012 15.2986 19.1028 16.3893 19.1028 17.7349V20.2499H20.9868C21.1249 20.2499 21.2368 20.138 21.2368 19.9999V13.512C21.2368 13.4172 21.1831 13.3305 21.0982 13.2882L16.9905 11.2432ZM17.6028 20.2499V17.7349C17.6028 17.2178 17.1836 16.7986 16.6665 16.7986C16.1494 16.7986 15.7302 17.2178 15.7302 17.7349V20.2499H17.6028Z" fill="#8A8A8A"/>
<path d="M7.34619 8.25C7.76041 8.25 8.09619 8.58579 8.09619 9V9.01C8.09619 9.42421 7.76041 9.76 7.34619 9.76C6.93198 9.76 6.59619 9.42421 6.59619 9.01V9C6.59619 8.58579 6.93198 8.25 7.34619 8.25Z" fill="#8A8A8A"/>
<path d="M8.09619 12C8.09619 11.5858 7.76041 11.25 7.34619 11.25C6.93198 11.25 6.59619 11.5858 6.59619 12V12.01C6.59619 12.4242 6.93198 12.76 7.34619 12.76C7.76041 12.76 8.09619 12.4242 8.09619 12.01V12Z" fill="#8A8A8A"/>
<path d="M7.34619 14.25C7.76041 14.25 8.09619 14.5858 8.09619 15V15.01C8.09619 15.4242 7.76041 15.76 7.34619 15.76C6.93198 15.76 6.59619 15.4242 6.59619 15.01V15C6.59619 14.5858 6.93198 14.25 7.34619 14.25Z" fill="#8A8A8A"/>
<path d="M8.09619 18C8.09619 17.5858 7.76041 17.25 7.34619 17.25C6.93198 17.25 6.59619 17.5858 6.59619 18V18.01C6.59619 18.4242 6.93198 18.76 7.34619 18.76C7.76041 18.76 8.09619 18.4242 8.09619 18.01V18Z" fill="#8A8A8A"/>
</svg>
