<svg width="25" height="24" viewBox="0 0 25 24" fill="none" xmlns="http://www.w3.org/2000/svg">
<path d="M19.76 14.8848H14.6147L14.9959 10.0731L17.0445 5.88059L19.76 3.21265V14.8848Z" fill="#B3D3EC"/>
<path fill-rule="evenodd" clip-rule="evenodd" d="M19.9617 2.31054C20.2376 2.42866 20.4165 2.69989 20.4165 3.00002V21C20.4165 21.4142 20.0807 21.75 19.6665 21.75H18.6665C18.2523 21.75 17.9165 21.4142 17.9165 21V18C17.9165 17.5858 18.2523 17.25 18.6665 17.25C18.7542 17.25 18.8383 17.2651 18.9165 17.2927V15.75H14.6665C14.2541 15.75 13.9191 15.4171 13.9165 15.0047C13.905 13.1539 13.9478 11.1968 14.6399 9.10664C15.3356 7.00557 16.6674 4.8244 19.1488 2.45733C19.366 2.25017 19.6858 2.19242 19.9617 2.31054ZM18.9165 14.25V4.85082C17.4004 6.55565 16.5486 8.11429 16.0639 9.57815C15.5374 11.1679 15.4289 12.6867 15.4165 14.25H18.9165ZM5.6665 3.25002C6.08072 3.25002 6.4165 3.5858 6.4165 4.00002V7.00002C6.4165 7.59676 6.65356 8.16905 7.07551 8.59101C7.31507 8.83056 7.60308 9.01052 7.9165 9.12134V4.00002C7.9165 3.5858 8.25229 3.25002 8.6665 3.25002C9.08072 3.25002 9.4165 3.5858 9.4165 4.00002V9.12134C9.72993 9.01052 10.0179 8.83056 10.2575 8.59101C10.6795 8.16905 10.9165 7.59676 10.9165 7.00002V4.00002C10.9165 3.5858 11.2523 3.25002 11.6665 3.25002C12.0807 3.25002 12.4165 3.5858 12.4165 4.00002V7.00002C12.4165 7.99458 12.0214 8.94841 11.3182 9.65167C10.7944 10.1755 10.1316 10.5283 9.4165 10.6743V21C9.4165 21.4142 9.08072 21.75 8.6665 21.75C8.25229 21.75 7.9165 21.4142 7.9165 21V10.6743C7.20142 10.5283 6.53864 10.1755 6.01485 9.65167C5.31159 8.94841 4.9165 7.99458 4.9165 7.00002V4.00002C4.9165 3.5858 5.25229 3.25002 5.6665 3.25002Z" fill="#016BBF"/>
</svg>
