<svg width="25" height="24" viewBox="0 0 25 24" fill="none" xmlns="http://www.w3.org/2000/svg">
<path fill-rule="evenodd" clip-rule="evenodd" d="M12.6665 6.75C11.1477 6.75 9.9165 7.98122 9.9165 9.5C9.9165 11.0188 11.1477 12.25 12.6665 12.25C14.1853 12.25 15.4165 11.0188 15.4165 9.5C15.4165 7.98122 14.1853 6.75 12.6665 6.75ZM11.4165 9.5C11.4165 8.80964 11.9761 8.25 12.6665 8.25C13.3569 8.25 13.9165 8.80964 13.9165 9.5C13.9165 10.1904 13.3569 10.75 12.6665 10.75C11.9761 10.75 11.4165 10.1904 11.4165 9.5Z" fill="#8A8A8A"/>
<path fill-rule="evenodd" clip-rule="evenodd" d="M12.331 1.82918C12.5422 1.72361 12.7907 1.72361 13.0018 1.82918L21.0018 5.82918C21.3723 6.01442 21.5225 6.46493 21.3372 6.83541C21.152 7.20589 20.7015 7.35606 20.331 7.17082L19.4165 6.71356V12.2623L21.9088 13.1129C22.2124 13.2166 22.4165 13.5019 22.4165 13.8227V19.5C22.4165 21.0187 21.1853 22.25 19.6665 22.25H18.6743L18.6665 22.25L18.6587 22.25H15.6743L15.6665 22.25L15.6587 22.25H9.67434L9.6665 22.25L9.65867 22.25H6.67434L6.6665 22.25L6.65867 22.25H5.6665C4.14772 22.25 2.9165 21.0187 2.9165 19.5V13.8227C2.9165 13.5019 3.1206 13.2166 3.42424 13.1129L5.9165 12.2623V6.71349L5.00183 7.17082C4.63135 7.35606 4.18085 7.20589 3.9956 6.83541C3.81036 6.46493 3.96053 6.01442 4.33101 5.82918L12.331 1.82918ZM12.6664 3.33853L17.9363 5.97345C17.9233 6.02863 17.9165 6.08615 17.9165 6.14526V12.7814C17.9162 12.7931 17.9162 12.8047 17.9165 12.8163V20.75H16.4165V17.5C16.4165 16.7707 16.1268 16.0712 15.611 15.5555C15.0953 15.0397 14.3958 14.75 13.6665 14.75H11.6665C10.9372 14.75 10.2377 15.0397 9.72196 15.5555C9.20624 16.0712 8.9165 16.7707 8.9165 17.5V20.75H7.4165V12.8163C7.41678 12.8047 7.41678 12.7931 7.4165 12.7814V6.14526C7.4165 6.08612 7.40966 6.02858 7.39672 5.97338L12.6664 3.33853ZM10.4165 17.5V20.75H14.9165V17.5C14.9165 17.1685 14.7848 16.8505 14.5504 16.6161C14.316 16.3817 13.998 16.25 13.6665 16.25H11.6665C11.335 16.25 11.017 16.3817 10.7826 16.6161C10.5482 16.8505 10.4165 17.1685 10.4165 17.5ZM4.4165 14.3592L5.9165 13.8473V20.75H5.6665C4.97615 20.75 4.4165 20.1903 4.4165 19.5V14.3592ZM19.6665 20.75H19.4165V13.8473L20.9165 14.3592V19.5C20.9165 20.1903 20.3569 20.75 19.6665 20.75Z" fill="#8A8A8A"/>
</svg>
