<svg width="61" height="60" viewBox="0 0 61 60" fill="none" xmlns="http://www.w3.org/2000/svg">
<path d="M22.2383 40.3239V52.086H38.2778V40.3239L35.0699 37.71H26.3968L22.2383 40.3239Z" fill="#B3D3EC"/>
<path fill-rule="evenodd" clip-rule="evenodd" d="M30.3359 16.875C26.539 16.875 23.4609 19.953 23.4609 23.75C23.4609 27.547 26.539 30.625 30.3359 30.625C34.1329 30.625 37.2109 27.547 37.2109 23.75C37.2109 19.953 34.1329 16.875 30.3359 16.875ZM27.2109 23.75C27.2109 22.0241 28.61 20.625 30.3359 20.625C32.0618 20.625 33.4609 22.0241 33.4609 23.75C33.4609 25.4759 32.0618 26.875 30.3359 26.875C28.61 26.875 27.2109 25.4759 27.2109 23.75Z" fill="#016BBF"/>
<path fill-rule="evenodd" clip-rule="evenodd" d="M29.4972 4.57295C30.0251 4.30902 30.6464 4.30902 31.1743 4.57295L51.1743 14.5729C52.1005 15.0361 52.4759 16.1623 52.0128 17.0885C51.5497 18.0147 50.4234 18.3902 49.4972 17.9271L47.2109 16.7839V30.6557L53.4416 32.7823C54.2007 33.0414 54.7109 33.7547 54.7109 34.5568V48.7499C54.7109 52.5469 51.6329 55.6249 47.8359 55.6249H45.3555L45.3359 55.625L45.3164 55.6249H37.8555L37.8359 55.625L37.8164 55.6249H22.8555L22.8359 55.625L22.8164 55.6249H15.3555L15.3359 55.625L15.3164 55.6249H12.8359C9.03898 55.6249 5.96094 52.5469 5.96094 48.7499V34.5568C5.96094 33.7547 6.47117 33.0414 7.23029 32.7823L13.4609 30.6557V16.7837L11.1743 17.9271C10.2481 18.3902 9.12179 18.0147 8.65869 17.0885C8.19558 16.1623 8.571 15.0361 9.49721 14.5729L29.4972 4.57295ZM30.3357 8.34631L43.5104 14.9336C43.478 15.0716 43.4609 15.2154 43.4609 15.3632V31.9535C43.4603 31.9827 43.4603 32.0117 43.4609 32.0407V51.8749H39.7109V43.75C39.7109 41.9266 38.9866 40.178 37.6973 38.8886C36.408 37.5993 34.6593 36.875 32.8359 36.875H27.8359C26.0126 36.875 24.2639 37.5993 22.9746 38.8886C21.6853 40.178 20.9609 41.9266 20.9609 43.75V51.8749H17.2109V32.0407C17.2116 32.0117 17.2116 31.9827 17.2109 31.9536V15.3632C17.2109 15.2153 17.1938 15.0714 17.1615 14.9334L30.3357 8.34631ZM24.7109 43.75V51.8749H35.9609V43.75C35.9609 42.9212 35.6317 42.1263 35.0456 41.5403C34.4596 40.9542 33.6647 40.625 32.8359 40.625H27.8359C27.0071 40.625 26.2123 40.9542 25.6262 41.5403C25.0402 42.1263 24.7109 42.9212 24.7109 43.75ZM9.71094 35.898L13.4609 34.6181V51.8749H12.8359C11.11 51.8749 9.71094 50.4758 9.71094 48.7499V35.898ZM47.8359 51.8749H47.2109V34.6181L50.9609 35.898V48.7499C50.9609 50.4758 49.5618 51.8749 47.8359 51.8749Z" fill="#016BBF"/>
</svg>
