<svg width="25" height="24" viewBox="0 0 25 24" fill="none" xmlns="http://www.w3.org/2000/svg">
<path fill-rule="evenodd" clip-rule="evenodd" d="M19.1405 3.41884C19.4615 3.68065 19.5094 4.1531 19.2476 4.47408L13.6343 11.3559L15.656 13.8345C16.2524 13.4557 16.9489 13.25 17.6665 13.25C18.6611 13.25 19.6149 13.6451 20.3182 14.3483C21.0214 15.0516 21.4165 16.0054 21.4165 17C21.4165 17.9946 21.0214 18.9484 20.3182 19.6517C19.6149 20.3549 18.6611 20.75 17.6665 20.75C16.6719 20.75 15.7181 20.3549 15.0149 19.6517C14.3116 18.9484 13.9165 17.9946 13.9165 17C13.9165 16.238 14.1484 15.4999 14.5732 14.8801L12.6665 12.5425L10.7598 14.8801C10.9066 15.0943 11.0312 15.3238 11.1311 15.5649C11.3195 16.0199 11.4165 16.5075 11.4165 17C11.4165 17.4925 11.3195 17.9801 11.1311 18.4351C10.9426 18.89 10.6664 19.3034 10.3182 19.6517C9.96993 19.9999 9.55654 20.2761 9.10157 20.4645C8.6466 20.653 8.15896 20.75 7.6665 20.75C7.17405 20.75 6.68641 20.653 6.23144 20.4645C5.77647 20.2761 5.36307 19.9999 5.01485 19.6517C4.66663 19.3034 4.39041 18.89 4.20196 18.4351C4.0135 17.9801 3.9165 17.4925 3.9165 17C3.9165 16.5075 4.0135 16.0199 4.20196 15.5649C4.39041 15.11 4.66663 14.6966 5.01485 14.3483C5.36307 14.0001 5.77647 13.7239 6.23144 13.5355C6.68641 13.347 7.17405 13.25 7.6665 13.25C8.15896 13.25 8.6466 13.347 9.10157 13.5355C9.30211 13.6185 9.49457 13.7186 9.67694 13.8345L11.6986 11.3559L6.08534 4.47408C5.82353 4.1531 5.8715 3.68065 6.19247 3.41884C6.51345 3.15703 6.9859 3.20499 7.24771 3.52597L12.6665 10.1693L18.0852 3.52597C18.3471 3.20499 18.8195 3.15703 19.1405 3.41884ZM6.80547 14.9213C7.07845 14.8082 7.37103 14.75 7.6665 14.75C7.96198 14.75 8.25456 14.8082 8.52754 14.9213C8.80052 15.0343 9.04856 15.2001 9.25749 15.409C9.46643 15.6179 9.63216 15.866 9.74523 16.139C9.85831 16.4119 9.9165 16.7045 9.9165 17C9.9165 17.2955 9.85831 17.5881 9.74523 17.861C9.63216 18.134 9.46643 18.3821 9.25749 18.591C9.04856 18.7999 8.80052 18.9657 8.52754 19.0787C8.25456 19.1918 7.96198 19.25 7.6665 19.25C7.37103 19.25 7.07845 19.1918 6.80547 19.0787C6.53248 18.9657 6.28445 18.7999 6.07551 18.591C5.86658 18.3821 5.70085 18.134 5.58778 17.861C5.4747 17.5881 5.4165 17.2955 5.4165 17C5.4165 16.7045 5.4747 16.4119 5.58778 16.139C5.70085 15.866 5.86658 15.6179 6.07551 15.409C6.28445 15.2001 6.53248 15.0343 6.80547 14.9213ZM16.0755 15.409C16.4975 14.9871 17.0698 14.75 17.6665 14.75C18.2632 14.75 18.8355 14.9871 19.2575 15.409C19.6795 15.831 19.9165 16.4033 19.9165 17C19.9165 17.5967 19.6795 18.169 19.2575 18.591C18.8355 19.0129 18.2632 19.25 17.6665 19.25C17.0698 19.25 16.4975 19.0129 16.0755 18.591C15.6536 18.169 15.4165 17.5967 15.4165 17C15.4165 16.4033 15.6536 15.831 16.0755 15.409Z" fill="#8A8A8A"/>
</svg>
