<svg width="25" height="24" viewBox="0 0 25 24" fill="none" xmlns="http://www.w3.org/2000/svg">
<path fill-rule="evenodd" clip-rule="evenodd" d="M11.0112 2.25C9.75145 2.25 8.54327 2.75044 7.65247 3.64124C6.76168 4.53204 6.26123 5.74022 6.26123 7C6.26123 8.25978 6.76168 9.46796 7.65247 10.3588C8.54327 11.2496 9.75145 11.75 11.0112 11.75C12.271 11.75 13.4792 11.2496 14.37 10.3588C15.2608 9.46796 15.7612 8.25978 15.7612 7C15.7612 5.74022 15.2608 4.53204 14.37 3.64124C13.4792 2.75044 12.271 2.25 11.0112 2.25ZM8.71313 4.7019C9.32263 4.09241 10.1493 3.75 11.0112 3.75C11.8732 3.75 12.6998 4.09241 13.3093 4.7019C13.9188 5.3114 14.2612 6.13805 14.2612 7C14.2612 7.86195 13.9188 8.6886 13.3093 9.2981C12.6998 9.90759 11.8732 10.25 11.0112 10.25C10.1493 10.25 9.32263 9.90759 8.71313 9.2981C8.10364 8.6886 7.76123 7.86195 7.76123 7C7.76123 6.13805 8.10364 5.3114 8.71313 4.7019Z" fill="#8A8A8A"/>
<path d="M6.71313 15.7019C7.32263 15.0924 8.14928 14.75 9.01123 14.75H11.0112C11.4254 14.75 11.7612 14.4142 11.7612 14C11.7612 13.5858 11.4254 13.25 11.0112 13.25H9.01123C7.75145 13.25 6.54327 13.7504 5.65247 14.6412C4.76168 15.532 4.26123 16.7402 4.26123 18V20C4.26123 20.4142 4.59702 20.75 5.01123 20.75C5.42544 20.75 5.76123 20.4142 5.76123 20V18C5.76123 17.138 6.10364 16.3114 6.71313 15.7019Z" fill="#8A8A8A"/>
<path fill-rule="evenodd" clip-rule="evenodd" d="M13.6701 14.3483C14.3734 13.6451 15.3272 13.25 16.3218 13.25C17.3163 13.25 18.2702 13.6451 18.9734 14.3483C19.6767 15.0516 20.0718 16.0054 20.0718 17C20.0718 17.7408 19.8526 18.459 19.4501 19.0679L20.8521 20.4699C21.145 20.7628 21.145 21.2376 20.8521 21.5305C20.5592 21.8234 20.0843 21.8234 19.7914 21.5305L18.3894 20.1285C17.7806 20.5309 17.0625 20.75 16.3218 20.75C15.3272 20.75 14.3734 20.3549 13.6701 19.6517C12.9669 18.9484 12.5718 17.9946 12.5718 17C12.5718 16.0054 12.9669 15.0516 13.6701 14.3483ZM16.3218 14.75C15.725 14.75 15.1527 14.9871 14.7308 15.409C14.3088 15.831 14.0718 16.4033 14.0718 17C14.0718 17.5967 14.3088 18.169 14.7308 18.591C15.1527 19.0129 15.725 19.25 16.3218 19.25C16.9185 19.25 17.4908 19.0129 17.9128 18.591C18.3347 18.169 18.5718 17.5967 18.5718 17C18.5718 16.4033 18.3347 15.831 17.9128 15.409C17.4908 14.9871 16.9185 14.75 16.3218 14.75Z" fill="#8A8A8A"/>
</svg>
