<svg width="24" height="24" viewBox="0 0 24 24" fill="none" xmlns="http://www.w3.org/2000/svg">
<path d="M11.9962 3.5C14.2022 5.45177 17.0815 6.46798 20.0239 6.33333C20.4523 7.79063 20.5834 9.31916 20.4094 10.8281C20.2354 12.3371 19.7598 13.7956 19.0109 15.1172C18.2621 16.4387 17.2552 17.5962 16.0501 18.5209C14.8451 19.4456 13.4665 20.1186 11.9962 20.5C10.5259 20.1186 9.14722 19.4456 7.94217 18.5209C6.73712 17.5962 5.73025 16.4387 4.98138 15.1172C4.23252 13.7956 3.75695 12.3371 3.58293 10.8281C3.4089 9.31916 3.53998 7.79063 3.96838 6.33333C6.91082 6.46798 9.79009 5.45177 11.9962 3.5Z" fill="#B3D3EC"/>
<path fill-rule="evenodd" clip-rule="evenodd" d="M12.4554 3.16231C12.1932 2.93027 11.799 2.93027 11.5367 3.16231C9.51269 4.95306 6.87096 5.88543 4.17127 5.76189C3.85226 5.7473 3.56456 5.95251 3.4745 6.25888C3.02904 7.77422 2.89274 9.36365 3.07369 10.9327C3.25464 12.5018 3.74916 14.0184 4.52785 15.3926C5.30655 16.7668 6.35353 17.9704 7.60658 18.9319C8.85963 19.8935 10.2932 20.5933 11.822 20.9899C11.9362 21.0195 12.056 21.0195 12.1701 20.9899C13.699 20.5933 15.1326 19.8935 16.3856 18.9319C17.6387 17.9704 18.6856 16.7668 19.4643 15.3926C20.243 14.0184 20.7375 12.5018 20.9185 10.9327C21.0995 9.36365 20.9631 7.77422 20.5177 6.25888C20.4276 5.95251 20.1399 5.7473 19.8209 5.76189C17.1212 5.88543 14.4795 4.95306 12.4554 3.16231ZM4.45101 10.7739C4.3115 9.56416 4.3857 8.34074 4.66887 7.1592C7.33183 7.15426 9.91508 6.24706 11.9961 4.58671C14.0771 6.24705 16.6604 7.15426 19.3233 7.1592C19.6065 8.34075 19.6807 9.56416 19.5412 10.7739C19.3815 12.1583 18.9452 13.4966 18.2581 14.7091C17.571 15.9216 16.6472 16.9836 15.5416 17.832C14.4836 18.6438 13.2798 19.2442 11.9961 19.6011C10.7123 19.2442 9.50856 18.6438 8.45061 17.832C7.34498 16.9836 6.42117 15.9216 5.73409 14.7091C5.04701 13.4966 4.61067 12.1583 4.45101 10.7739ZM15.2591 10.6418C15.5298 10.371 15.5298 9.93211 15.2591 9.66139C14.9884 9.39067 14.5494 9.39067 14.2787 9.66139L11.0717 12.8684L9.71332 11.51C9.4426 11.2393 9.00367 11.2393 8.73295 11.51C8.46223 11.7807 8.46223 12.2196 8.73295 12.4904L10.5815 14.3389C10.8523 14.6097 11.2912 14.6097 11.5619 14.3389L15.2591 10.6418Z" fill="#016BBF"/>
</svg>
