<svg width="25" height="24" viewBox="0 0 25 24" fill="none" xmlns="http://www.w3.org/2000/svg">
<path d="M6.4165 4.5C6.4165 4.08579 6.08072 3.75 5.6665 3.75C5.25229 3.75 4.9165 4.08579 4.9165 4.5V4.76392C4.41175 4.82034 3.93812 5.0464 3.57551 5.40901C3.15356 5.83097 2.9165 6.40326 2.9165 7C2.9165 7.59674 3.15356 8.16903 3.57551 8.59099C3.99747 9.01295 4.56977 9.25 5.1665 9.25H6.1665C6.36541 9.25 6.55618 9.32902 6.69683 9.46967C6.83749 9.61032 6.9165 9.80109 6.9165 10C6.9165 10.1989 6.83749 10.3897 6.69683 10.5303C6.55618 10.671 6.36541 10.75 6.1665 10.75H3.6665C3.25229 10.75 2.9165 11.0858 2.9165 11.5C2.9165 11.9142 3.25229 12.25 3.6665 12.25H4.9165V12.5C4.9165 12.9142 5.25229 13.25 5.6665 13.25C6.08072 13.25 6.4165 12.9142 6.4165 12.5V12.2361C6.92126 12.1797 7.39489 11.9536 7.75749 11.591C8.17945 11.169 8.4165 10.5967 8.4165 10C8.4165 9.40326 8.17945 8.83097 7.75749 8.40901C7.33554 7.98705 6.76324 7.75 6.1665 7.75H5.1665C4.96759 7.75 4.77683 7.67098 4.63617 7.53033C4.49552 7.38968 4.4165 7.19891 4.4165 7C4.4165 6.80109 4.49552 6.61032 4.63617 6.46967C4.77683 6.32902 4.96759 6.25 5.1665 6.25H7.6665C8.08072 6.25 8.4165 5.91421 8.4165 5.5C8.4165 5.08579 8.08072 4.75 7.6665 4.75H6.4165V4.5Z" fill="#8A8A8A"/>
<path fill-rule="evenodd" clip-rule="evenodd" d="M9.6665 5.75C9.25229 5.75 8.9165 6.08579 8.9165 6.5C8.9165 6.91421 9.25229 7.25 9.6665 7.25H11.9165V10.75H9.6665C9.25229 10.75 8.9165 11.0858 8.9165 11.5C8.9165 11.9142 9.25229 12.25 9.6665 12.25H19.6665C19.998 12.25 20.316 12.3817 20.5504 12.6161C20.7848 12.8505 20.9165 13.1685 20.9165 13.5V16.75H20.3123C20.1854 16.3025 19.9458 15.8902 19.611 15.5555C19.0953 15.0397 18.3958 14.75 17.6665 14.75C16.9372 14.75 16.2377 15.0397 15.722 15.5555C15.3872 15.8902 15.1476 16.3025 15.0207 16.75H10.3123C10.1854 16.3025 9.94583 15.8902 9.61105 15.5555C9.09532 15.0397 8.39585 14.75 7.6665 14.75C6.93716 14.75 6.23768 15.0397 5.72196 15.5555C5.38718 15.8902 5.14763 16.3025 5.02075 16.75H4.4165V14.5C4.4165 14.0858 4.08072 13.75 3.6665 13.75C3.25229 13.75 2.9165 14.0858 2.9165 14.5V17.5C2.9165 17.9142 3.25229 18.25 3.6665 18.25H5.02075C5.14763 18.6975 5.38718 19.1098 5.72196 19.4445C6.23768 19.9603 6.93716 20.25 7.6665 20.25C8.39585 20.25 9.09532 19.9603 9.61105 19.4445C9.94583 19.1098 10.1854 18.6975 10.3123 18.25H15.0207C15.1476 18.6975 15.3872 19.1098 15.722 19.4445C16.2377 19.9603 16.9372 20.25 17.6665 20.25C18.3958 20.25 19.0953 19.9603 19.611 19.4445C19.9458 19.1098 20.1854 18.6975 20.3123 18.25H21.6665C22.0807 18.25 22.4165 17.9142 22.4165 17.5V13.5C22.4165 12.7707 22.1268 12.0712 21.611 11.5555C21.0953 11.0397 20.3958 10.75 19.6665 10.75H19.027L15.2522 6.03148C15.1098 5.85357 14.8943 5.75 14.6665 5.75H9.6665ZM16.4165 17.5C16.4165 17.8315 16.5482 18.1495 16.7826 18.3839C17.017 18.6183 17.335 18.75 17.6665 18.75C17.998 18.75 18.316 18.6183 18.5504 18.3839C18.7848 18.1495 18.9165 17.8315 18.9165 17.5C18.9165 17.1685 18.7848 16.8505 18.5504 16.6161C18.316 16.3817 17.998 16.25 17.6665 16.25C17.335 16.25 17.017 16.3817 16.7826 16.6161C16.5482 16.8505 16.4165 17.1685 16.4165 17.5ZM8.9165 17.5C8.9165 17.1685 8.78481 16.8505 8.55039 16.6161C8.31597 16.3817 7.99802 16.25 7.6665 16.25C7.33498 16.25 7.01704 16.3817 6.78262 16.6161C6.5482 16.8505 6.4165 17.1685 6.4165 17.5C6.4165 17.8315 6.5482 18.1495 6.78262 18.3839C7.01704 18.6183 7.33498 18.75 7.6665 18.75C7.99802 18.75 8.31597 18.6183 8.55039 18.3839C8.78481 18.1495 8.9165 17.8315 8.9165 17.5ZM13.4165 10.75V7.25H14.306L17.106 10.75H13.4165Z" fill="#8A8A8A"/>
</svg>
