<svg width="25" height="24" viewBox="0 0 25 24" fill="none" xmlns="http://www.w3.org/2000/svg">
<ellipse cx="20.3068" cy="10.1133" rx="1.58557" ry="1.979" fill="#B3D3EC"/>
<ellipse cx="5.68958" cy="10.287" rx="1.64343" ry="2.15271" fill="#B3D3EC"/>
<ellipse cx="10.2841" cy="6.29419" rx="1.58557" ry="2.11792" fill="#B3D3EC"/>
<ellipse cx="16.0474" cy="6.13228" rx="1.42346" ry="2.27991" transform="rotate(23.0845 16.0474 6.13228)" fill="#B3D3EC"/>
<path fill-rule="evenodd" clip-rule="evenodd" d="M7.97527 4.28879C8.29395 3.64195 8.85933 3.08793 9.6452 2.96677C10.4311 2.84562 11.1371 3.20364 11.6358 3.72446C12.1364 4.24737 12.4854 4.98218 12.6112 5.79791C12.737 6.61363 12.6255 7.41943 12.3055 8.06886C11.9868 8.7157 11.4215 9.26972 10.6356 9.39088C9.84972 9.51203 9.14373 9.15402 8.64504 8.63319C8.14435 8.11028 7.79535 7.37547 7.66959 6.55975C7.54383 5.74402 7.65532 4.93822 7.97527 4.28879ZM9.32084 4.9517C9.15268 5.29304 9.06746 5.78233 9.15207 6.33119C9.23669 6.88006 9.46532 7.32097 9.72848 7.5958C9.99363 7.87273 10.2377 7.9345 10.407 7.90839C10.5764 7.88229 10.7905 7.74988 10.96 7.40595C11.1281 7.06462 11.2133 6.57532 11.1287 6.02646C11.0441 5.4776 10.8155 5.03668 10.5523 4.76185C10.2872 4.48492 10.0431 4.42315 9.87375 4.44926C9.70441 4.47537 9.49028 4.60777 9.32084 4.9517Z" fill="#016BBF"/>
<path d="M10.8143 13.6389C10.5564 14.0745 10.2271 14.5394 9.75044 14.9335C9.3808 15.2392 9.02338 15.4907 8.71701 15.7063L8.61704 15.7767C8.27737 16.0164 8.02434 16.2024 7.82513 16.3987C7.63693 16.5841 7.51201 16.765 7.43314 16.9818C7.35251 17.2034 7.30337 17.5087 7.33491 17.9633C7.35531 18.2572 7.43927 18.4269 7.52271 18.5312C7.6092 18.6393 7.73438 18.7255 7.90767 18.7871C8.27861 18.9189 8.7643 18.898 9.10262 18.8194C9.50607 18.7255 9.90918 18.9765 10.003 19.38C10.0968 19.7834 9.84583 20.1865 9.44238 20.2804C8.93459 20.3985 8.13638 20.4602 7.40544 20.2005C7.0278 20.0663 6.64755 19.8383 6.35159 19.4685C6.05259 19.0949 5.8771 18.6232 5.83851 18.0671C5.79632 17.4592 5.85418 16.9345 6.02351 16.469C6.19459 15.9987 6.46257 15.6354 6.77241 15.3301C7.07123 15.0357 7.42138 14.7846 7.75222 14.5511L7.85178 14.481C8.16181 14.2626 8.4723 14.044 8.79456 13.7775C9.08533 13.5371 9.31076 13.2341 9.52362 12.8746C9.63063 12.6939 9.7299 12.5071 9.83504 12.3075L9.85646 12.2668C9.95269 12.084 10.0558 11.8881 10.1651 11.7001C10.3988 11.2978 10.6993 10.8606 11.148 10.5307C11.6149 10.1874 12.1862 10 12.8913 10C13.5964 10 14.1677 10.1874 14.6346 10.5307C15.0834 10.8606 15.3839 11.2977 15.6176 11.7001C15.7269 11.8881 15.83 12.0839 15.9263 12.2667L15.9477 12.3075C16.0529 12.5071 16.1522 12.6939 16.2592 12.8746C16.4721 13.2341 16.6975 13.5371 16.9883 13.7776C17.3105 14.044 17.621 14.2627 17.931 14.481L18.0306 14.5511C18.3615 14.7846 18.7116 15.0358 19.0104 15.3302C19.3203 15.6354 19.5882 15.9987 19.7593 16.469C19.9287 16.9345 19.9865 17.4592 19.9443 18.0671C19.9057 18.6232 19.7302 19.0949 19.4312 19.4685C19.1353 19.8383 18.755 20.0664 18.3774 20.2005C17.6465 20.4603 16.8482 20.3985 16.3405 20.2804C15.937 20.1866 15.686 19.7835 15.7798 19.38C15.8737 18.9766 16.2768 18.7256 16.6802 18.8194C17.0185 18.8981 17.5042 18.9189 17.8752 18.7871C18.0485 18.7255 18.1736 18.6393 18.2601 18.5312C18.3436 18.427 18.4275 18.2572 18.4479 17.9633C18.4795 17.5088 18.4303 17.2034 18.3497 16.9818C18.2708 16.765 18.1459 16.5841 17.9577 16.3987C17.7585 16.2024 17.5055 16.0164 17.1658 15.7767L17.0658 15.7063C16.7595 15.4907 16.402 15.2392 16.0324 14.9335C15.5558 14.5394 15.2265 14.0745 14.9685 13.639C14.8401 13.4222 14.725 13.2047 14.6206 13.0066L14.6028 12.9729C14.5029 12.7831 14.4136 12.6136 14.3207 12.4537C14.1229 12.1133 13.9471 11.887 13.7461 11.7392C13.5633 11.6048 13.3114 11.5 12.8913 11.5C12.4713 11.5 12.2194 11.6048 12.0366 11.7392C11.8357 11.8869 11.6598 12.1132 11.462 12.4537C11.3692 12.6135 11.2799 12.783 11.18 12.9727L11.1622 13.0066C11.0578 13.2047 10.9427 13.4221 10.8143 13.6389Z" fill="#016BBF"/>
<path d="M13.6407 14.3067C13.6407 13.8925 13.3049 13.5567 12.8907 13.5567C12.4765 13.5567 12.1407 13.8925 12.1407 14.3067V14.3446C11.7832 14.4175 11.4518 14.594 11.1899 14.8559C10.8382 15.2075 10.6407 15.6844 10.6407 16.1817C10.6407 16.679 10.8382 17.1559 11.1899 17.5075C11.5415 17.8591 12.0184 18.0567 12.5157 18.0567H13.2657C13.3652 18.0567 13.4605 18.0962 13.5309 18.1665C13.6012 18.2368 13.6407 18.3322 13.6407 18.4317C13.6407 18.5311 13.6012 18.6265 13.5309 18.6968C13.4605 18.7672 13.3652 18.8067 13.2657 18.8067H11.3907C10.9765 18.8067 10.6407 19.1425 10.6407 19.5567C10.6407 19.9709 10.9765 20.3067 11.3907 20.3067H12.1407C12.1407 20.7209 12.4765 21.0567 12.8907 21.0567C13.3049 21.0567 13.6407 20.7209 13.6407 20.3067V20.2688C13.9982 20.1958 14.3296 20.0194 14.5915 19.7575C14.9432 19.4059 15.1407 18.929 15.1407 18.4317C15.1407 17.9344 14.9432 17.4575 14.5915 17.1059C14.2399 16.7542 13.763 16.5567 13.2657 16.5567H12.5157C12.4162 16.5567 12.3209 16.5172 12.2505 16.4468C12.1802 16.3765 12.1407 16.2811 12.1407 16.1817C12.1407 16.0822 12.1802 15.9868 12.2505 15.9165C12.3209 15.8462 12.4162 15.8067 12.5157 15.8067H14.3907C14.8049 15.8067 15.1407 15.4709 15.1407 15.0567C15.1407 14.6425 14.8049 14.3067 14.3907 14.3067H13.6407Z" fill="#016BBF"/>
<path fill-rule="evenodd" clip-rule="evenodd" d="M16.7464 3.03966C15.9784 2.83386 15.2377 3.11308 14.6854 3.57665C14.1308 4.04209 13.7041 4.73463 13.4905 5.53187C13.2768 6.32912 13.3001 7.14226 13.5477 7.8226C13.7942 8.50022 14.296 9.11238 15.0641 9.31818C15.8322 9.52398 16.5729 9.24477 17.1252 8.78119C17.6797 8.31576 18.1065 7.62321 18.3201 6.82597C18.5337 6.02873 18.5104 5.21559 18.2629 4.53525C18.0164 3.85762 17.5145 3.24546 16.7464 3.03966ZM14.9393 5.9201C15.0831 5.38368 15.3582 4.97021 15.6497 4.72558C15.9434 4.4791 16.1927 4.4442 16.3582 4.48855C16.5237 4.5329 16.7222 4.68778 16.8533 5.04808C16.9834 5.40566 17.0149 5.90132 16.8712 6.43774C16.7275 6.97416 16.4523 7.38763 16.1608 7.63226C15.8672 7.87875 15.6178 7.91364 15.4523 7.86929C15.2868 7.82495 15.0884 7.67006 14.9573 7.30976C14.8272 6.95218 14.7956 6.45653 14.9393 5.9201Z" fill="#016BBF"/>
<path fill-rule="evenodd" clip-rule="evenodd" d="M6.91245 7.57665C6.36014 7.11308 5.61943 6.83386 4.85137 7.03966C4.08331 7.24546 3.58145 7.85762 3.33493 8.53525C3.08741 9.21559 3.0641 10.0287 3.27772 10.826C3.49134 11.6232 3.9181 12.3158 4.47262 12.7812C5.02494 13.2448 5.76564 13.524 6.5337 13.3182C7.30176 13.1124 7.80362 12.5002 8.05014 11.8226C8.29766 11.1423 8.32097 10.3291 8.10735 9.53187C7.89373 8.73463 7.46697 8.04209 6.91245 7.57665ZM5.94811 8.72558C6.23956 8.97021 6.51473 9.38368 6.65846 9.9201C6.8022 10.4565 6.77063 10.9522 6.64053 11.3098C6.50945 11.6701 6.31097 11.8249 6.14547 11.8693C5.97996 11.9136 5.73063 11.8787 5.43697 11.6323C5.14551 11.3876 4.87034 10.9742 4.72661 10.4377C4.58288 9.90132 4.61444 9.40566 4.74454 9.04808C4.87562 8.68778 5.0741 8.5329 5.2396 8.48855C5.40511 8.4442 5.65444 8.4791 5.94811 8.72558Z" fill="#016BBF"/>
<path fill-rule="evenodd" clip-rule="evenodd" d="M20.9815 7.03942C20.2135 6.83362 19.4728 7.11283 18.9205 7.57641C18.3659 8.04184 17.9392 8.73439 17.7256 9.53163C17.5119 10.3289 17.5353 11.142 17.7828 11.8224C18.0293 12.5 18.5312 13.1121 19.2992 13.3179C20.0673 13.5237 20.808 13.2445 21.3603 12.7809C21.9148 12.3155 22.3416 11.623 22.5552 10.8257C22.7688 10.0285 22.7455 9.21534 22.498 8.535C22.2515 7.85738 21.7496 7.24522 20.9815 7.03942ZM19.1745 9.91986C19.3182 9.38344 19.5934 8.96997 19.8848 8.72534C20.1785 8.47885 20.4278 8.44396 20.5933 8.48831C20.7588 8.53265 20.9573 8.68754 21.0884 9.04784C21.2185 9.40542 21.25 9.90107 21.1063 10.4375C20.9626 10.9739 20.6874 11.3874 20.3959 11.632C20.1023 11.8785 19.8529 11.9134 19.6874 11.869C19.5219 11.8247 19.3235 11.6698 19.1924 11.3095C19.0623 10.9519 19.0307 10.4563 19.1745 9.91986Z" fill="#016BBF"/>
</svg>
