<svg width="25" height="24" viewBox="0 0 25 24" fill="none" xmlns="http://www.w3.org/2000/svg">
<circle cx="18.1727" cy="18.2001" r="1.80847" fill="#B3D3EC"/>
<path fill-rule="evenodd" clip-rule="evenodd" d="M3.40015 4.5C3.40015 2.98122 4.63136 1.75 6.15015 1.75H18.1501C19.6689 1.75 20.9001 2.98122 20.9001 4.5V6.5C20.9001 6.52517 20.8989 6.55005 20.8965 6.57459V11.5158C20.8965 11.93 20.5607 12.2658 20.1465 12.2658C19.7323 12.2658 19.3965 11.93 19.3965 11.5158V7.25H4.90015V19C4.90015 19.6904 5.45979 20.25 6.15015 20.25H8.40015V12.5C8.40015 11.7707 8.68988 11.0712 9.2056 10.5555C9.72133 10.0397 10.4208 9.75 11.1501 9.75H13.1501C13.8795 9.75 14.579 10.0397 15.0947 10.5555C15.6104 11.0712 15.9001 11.7707 15.9001 12.5C15.9001 12.9142 15.5644 13.25 15.1501 13.25C14.7359 13.25 14.4001 12.9142 14.4001 12.5C14.4001 12.1685 14.2685 11.8505 14.034 11.6161C13.7996 11.3817 13.4817 11.25 13.1501 11.25H11.1501C10.8186 11.25 10.5007 11.3817 10.2663 11.6161C10.0318 11.8505 9.90015 12.1685 9.90015 12.5V20.25H12.1501C12.5644 20.25 12.9001 20.5858 12.9001 21C12.9001 21.4142 12.5644 21.75 12.1501 21.75H6.15015C4.63136 21.75 3.40015 20.5188 3.40015 19V4.5ZM19.4001 5.6593C19.3977 5.68384 19.3965 5.70872 19.3965 5.73389V5.75H4.90015V4.5C4.90015 3.80964 5.45979 3.25 6.15015 3.25H18.1501C18.8405 3.25 19.4001 3.80964 19.4001 4.5V5.6593Z" fill="#016BBF"/>
<path fill-rule="evenodd" clip-rule="evenodd" d="M18.1501 13.75C18.5644 13.75 18.9001 14.0858 18.9001 14.5V15.3542C19.3353 15.4776 19.737 15.7075 20.0666 16.0278L20.8069 15.6004C21.1656 15.3933 21.6243 15.5162 21.8315 15.8749C22.0386 16.2336 21.9157 16.6923 21.5569 16.8994L20.8165 17.3269C20.8716 17.5452 20.9001 17.7711 20.9001 18C20.9001 18.2287 20.8716 18.4546 20.8166 18.6727L21.5577 19.1002C21.9165 19.3072 22.0396 19.7659 21.8326 20.1247C21.6256 20.4835 21.1669 20.6065 20.8081 20.3995L20.0669 19.9719C19.7372 20.2924 19.3354 20.5224 18.9001 20.6458V21.5C18.9001 21.9142 18.5644 22.25 18.1501 22.25C17.7359 22.25 17.4001 21.9142 17.4001 21.5V20.6458C16.9653 20.5225 16.5638 20.2929 16.2343 19.9729L15.4948 20.3995C15.136 20.6065 14.6774 20.4835 14.4704 20.1247C14.2634 19.7659 14.3864 19.3072 14.7452 19.1002L15.484 18.674C15.4288 18.4555 15.4001 18.2292 15.4001 18C15.4001 17.7707 15.4288 17.5444 15.4841 17.3258L14.7452 16.8995C14.3864 16.6925 14.2634 16.2339 14.4704 15.8751C14.6774 15.5163 15.136 15.3933 15.4948 15.6002L16.2345 16.027C16.564 15.7071 16.9654 15.4775 17.4001 15.3542V14.5C17.4001 14.0858 17.7359 13.75 18.1501 13.75ZM16.9001 18C16.9001 17.7916 16.9522 17.5886 17.049 17.4083C17.0562 17.3974 17.063 17.3861 17.0696 17.3747C17.076 17.3636 17.0821 17.3524 17.0879 17.3411C17.1381 17.2601 17.1978 17.1846 17.2663 17.1161C17.5007 16.8817 17.8186 16.75 18.1501 16.75C18.4817 16.75 18.7996 16.8817 19.034 17.1161C19.2685 17.3505 19.4001 17.6685 19.4001 18C19.4001 18.3315 19.2685 18.6495 19.034 18.8839C18.7996 19.1183 18.4817 19.25 18.1501 19.25C17.8186 19.25 17.5007 19.1183 17.2663 18.8839C17.1981 18.8157 17.1387 18.7405 17.0886 18.66C17.0826 18.6483 17.0763 18.6366 17.0696 18.6251C17.0628 18.6132 17.0557 18.6017 17.0483 18.5903C16.9519 18.4104 16.9001 18.2079 16.9001 18Z" fill="#016BBF"/>
</svg>
