<svg width="61" height="60" viewBox="0 0 61 60" fill="none" xmlns="http://www.w3.org/2000/svg">
<path fill-rule="evenodd" clip-rule="evenodd" d="M7.16992 11.25C7.16992 7.45304 10.248 4.375 14.0449 4.375H44.0449C47.8419 4.375 50.9199 7.45304 50.9199 11.25V16.25C50.9199 16.3129 50.9168 16.3751 50.9108 16.4365V28.7896C50.9108 29.8251 50.0713 30.6646 49.0358 30.6646C48.0002 30.6646 47.1608 29.8251 47.1608 28.7896V18.125H10.9199V47.5C10.9199 49.2259 12.319 50.625 14.0449 50.625H19.6699V31.25C19.6699 29.4266 20.3943 27.678 21.6836 26.3886C22.9729 25.0993 24.7216 24.375 26.5449 24.375H31.5449C33.3683 24.375 35.117 25.0993 36.4063 26.3886C37.6956 27.678 38.4199 29.4266 38.4199 31.25C38.4199 32.2855 37.5805 33.125 36.5449 33.125C35.5094 33.125 34.6699 32.2855 34.6699 31.25C34.6699 30.4212 34.3407 29.6263 33.7546 29.0403C33.1686 28.4542 32.3737 28.125 31.5449 28.125H26.5449C25.7161 28.125 24.9213 28.4542 24.3352 29.0403C23.7492 29.6263 23.4199 30.4212 23.4199 31.25V50.625H29.0449C30.0805 50.625 30.9199 51.4645 30.9199 52.5C30.9199 53.5355 30.0805 54.375 29.0449 54.375H14.0449C10.248 54.375 7.16992 51.297 7.16992 47.5V11.25ZM47.1699 14.1483C47.1639 14.2096 47.1608 14.2718 47.1608 14.3347V14.375H10.9199V11.25C10.9199 9.52411 12.319 8.125 14.0449 8.125H44.0449C45.7708 8.125 47.1699 9.52411 47.1699 11.25V14.1483Z" fill="#8A8A8A"/>
<path fill-rule="evenodd" clip-rule="evenodd" d="M44.0449 34.375C45.0805 34.375 45.9199 35.2145 45.9199 36.25V38.3856C47.0077 38.694 48.012 39.2687 48.8361 40.0695L50.6869 39.0009C51.5837 38.4831 52.7304 38.7904 53.2482 39.6872C53.766 40.584 53.4587 41.7307 52.5619 42.2485L50.7108 43.3172C50.8486 43.8629 50.9199 44.4278 50.9199 45C50.9199 45.5719 50.8487 46.1364 50.7111 46.6817L52.5639 47.7506C53.4608 48.2681 53.7685 49.4147 53.251 50.3117C52.7335 51.2086 51.5869 51.5163 50.6899 50.9988L48.8369 49.9298C48.0127 50.731 47.0081 51.3059 45.9199 51.6144V53.75C45.9199 54.7855 45.0805 55.625 44.0449 55.625C43.0094 55.625 42.1699 54.7855 42.1699 53.75V51.6144C41.0829 51.3062 40.0792 50.7321 39.2554 49.9321L37.4065 50.9988C36.5096 51.5163 35.3629 51.2086 34.8455 50.3117C34.328 49.4147 34.6356 48.2681 35.5326 47.7506L37.3796 46.685C37.2415 46.1387 37.1699 45.573 37.1699 45C37.1699 44.4268 37.2415 43.861 37.3797 43.3145L35.5326 42.2488C34.6356 41.7313 34.328 40.5847 34.8455 39.6877C35.3629 38.7908 36.5096 38.4831 37.4065 39.0006L39.2558 40.0675C40.0795 39.2677 41.083 38.6937 42.1699 38.3856V36.25C42.1699 35.2145 43.0094 34.375 44.0449 34.375ZM40.9199 45C40.9199 44.4791 41.05 43.9716 41.2921 43.5209C41.3099 43.4934 41.3271 43.4653 41.3437 43.4367C41.3597 43.4089 41.3749 43.381 41.3893 43.3528C41.5148 43.1504 41.6641 42.9614 41.8352 42.7903C42.4213 42.2042 43.2161 41.875 44.0449 41.875C44.8737 41.875 45.6686 42.2042 46.2546 42.7903C46.8407 43.3763 47.1699 44.1712 47.1699 45C47.1699 45.8288 46.8407 46.6237 46.2546 47.2097C45.6686 47.7958 44.8737 48.125 44.0449 48.125C43.2161 48.125 42.4213 47.7958 41.8352 47.2097C41.6649 47.0393 41.5162 46.8513 41.391 46.65C41.3761 46.6207 41.3603 46.5916 41.3437 46.5627C41.3266 46.5331 41.3088 46.5041 41.2904 46.4758C41.0494 46.026 40.9199 45.5197 40.9199 45Z" fill="#8A8A8A"/>
</svg>
