<svg width="25" height="25" viewBox="0 0 25 25" fill="none" xmlns="http://www.w3.org/2000/svg">
<path d="M16.647 10.1208H8.85449L10.6948 16.2224H14.6343L16.647 10.1208Z" fill="#B3D3EC"/>
<path d="M12.1665 6.35669C11.7523 6.35669 11.4165 6.69248 11.4165 7.10669C11.4165 7.5209 11.7523 7.85669 12.1665 7.85669H13.1665C13.5807 7.85669 13.9165 7.5209 13.9165 7.10669C13.9165 6.69248 13.5807 6.35669 13.1665 6.35669H12.1665Z" fill="#016BBF"/>
<path d="M12.1665 9.35669C11.7523 9.35669 11.4165 9.69248 11.4165 10.1067C11.4165 10.5209 11.7523 10.8567 12.1665 10.8567H13.1665C13.5807 10.8567 13.9165 10.5209 13.9165 10.1067C13.9165 9.69248 13.5807 9.35669 13.1665 9.35669H12.1665Z" fill="#016BBF"/>
<path fill-rule="evenodd" clip-rule="evenodd" d="M3.6665 2.60669C3.25229 2.60669 2.9165 2.94248 2.9165 3.35669C2.9165 3.7709 3.25229 4.10669 3.6665 4.10669H7.9165V6.35669H7.1665C5.92386 6.35669 4.9165 7.36405 4.9165 8.60669C4.9165 9.84933 5.92386 10.8567 7.1665 10.8567H7.95935L9.49923 15.4763C9.87354 16.5993 10.9244 17.3567 12.1081 17.3567H13.2251C14.4088 17.3567 15.4596 16.5993 15.834 15.4763L17.3738 10.8567H18.1665C19.4091 10.8567 20.4165 9.84933 20.4165 8.60669C20.4165 7.36405 19.4091 6.35669 18.1665 6.35669H17.4165V4.10669H21.6665C22.0807 4.10669 22.4165 3.7709 22.4165 3.35669C22.4165 2.94248 22.0807 2.60669 21.6665 2.60669H3.6665ZM15.9165 6.35669V4.10669H9.4165V6.35669H9.6665C10.0807 6.35669 10.4165 6.69248 10.4165 7.10669C10.4165 7.5209 10.0807 7.85669 9.6665 7.85669H7.1665C6.75229 7.85669 6.4165 8.19248 6.4165 8.60669C6.4165 9.0209 6.75229 9.35669 7.1665 9.35669H9.6665C10.0807 9.35669 10.4165 9.69248 10.4165 10.1067C10.4165 10.5209 10.0807 10.8567 9.6665 10.8567H9.54049L10.9223 15.002C11.0924 15.5124 11.5701 15.8567 12.1081 15.8567H13.2251C13.7631 15.8567 14.2408 15.5124 14.4109 15.002L15.7927 10.8567H15.6665C15.2523 10.8567 14.9165 10.5209 14.9165 10.1067C14.9165 9.69248 15.2523 9.35669 15.6665 9.35669H18.1665C18.5807 9.35669 18.9165 9.0209 18.9165 8.60669C18.9165 8.19248 18.5807 7.85669 18.1665 7.85669H15.6665C15.2523 7.85669 14.9165 7.5209 14.9165 7.10669C14.9165 6.69248 15.2523 6.35669 15.6665 6.35669H15.9165Z" fill="#016BBF"/>
<path d="M13.4165 19.6067C13.4165 19.1925 13.0807 18.8567 12.6665 18.8567C12.2523 18.8567 11.9165 19.1925 11.9165 19.6067V22.6067C11.9165 23.0209 12.2523 23.3567 12.6665 23.3567C13.0807 23.3567 13.4165 23.0209 13.4165 22.6067V19.6067Z" fill="#016BBF"/>
<path d="M9.61538 18.2318C9.82248 18.5905 9.69958 19.0492 9.34086 19.2563L6.74278 20.7563C6.38406 20.9634 5.92537 20.8405 5.71826 20.4818C5.51115 20.1231 5.63406 19.6644 5.99278 19.4573L8.59086 17.9573C8.94958 17.7502 9.40827 17.8731 9.61538 18.2318Z" fill="#016BBF"/>
<path d="M15.9927 19.2563C15.634 19.0492 15.5111 18.5905 15.7182 18.2318C15.9253 17.8731 16.384 17.7502 16.7427 17.9573L19.3408 19.4573C19.6995 19.6644 19.8224 20.1231 19.6153 20.4818C19.4082 20.8405 18.9495 20.9634 18.5908 20.7563L15.9927 19.2563Z" fill="#016BBF"/>
</svg>
