<svg width="25" height="25" viewBox="0 0 25 25" fill="none" xmlns="http://www.w3.org/2000/svg">
<path d="M12.1665 6.35645C11.7523 6.35645 11.4165 6.69223 11.4165 7.10645C11.4165 7.52066 11.7523 7.85645 12.1665 7.85645H13.1665C13.5807 7.85645 13.9165 7.52066 13.9165 7.10645C13.9165 6.69223 13.5807 6.35645 13.1665 6.35645H12.1665Z" fill="#8A8A8A"/>
<path d="M12.1665 9.35645C11.7523 9.35645 11.4165 9.69223 11.4165 10.1064C11.4165 10.5207 11.7523 10.8564 12.1665 10.8564H13.1665C13.5807 10.8564 13.9165 10.5207 13.9165 10.1064C13.9165 9.69223 13.5807 9.35645 13.1665 9.35645H12.1665Z" fill="#8A8A8A"/>
<path fill-rule="evenodd" clip-rule="evenodd" d="M3.6665 2.60645C3.25229 2.60645 2.9165 2.94223 2.9165 3.35645C2.9165 3.77066 3.25229 4.10645 3.6665 4.10645H7.9165V6.35645H7.1665C5.92386 6.35645 4.9165 7.3638 4.9165 8.60645C4.9165 9.84909 5.92386 10.8564 7.1665 10.8564H7.95935L9.49923 15.4761C9.87354 16.599 10.9244 17.3564 12.1081 17.3564H13.2251C14.4088 17.3564 15.4596 16.599 15.834 15.4761L17.3738 10.8564H18.1665C19.4091 10.8564 20.4165 9.84909 20.4165 8.60645C20.4165 7.3638 19.4091 6.35645 18.1665 6.35645H17.4165V4.10645H21.6665C22.0807 4.10645 22.4165 3.77066 22.4165 3.35645C22.4165 2.94223 22.0807 2.60645 21.6665 2.60645H3.6665ZM15.9165 6.35645V4.10645H9.4165V6.35645H9.6665C10.0807 6.35645 10.4165 6.69223 10.4165 7.10645C10.4165 7.52066 10.0807 7.85645 9.6665 7.85645H7.1665C6.75229 7.85645 6.4165 8.19223 6.4165 8.60645C6.4165 9.02066 6.75229 9.35645 7.1665 9.35645H9.6665C10.0807 9.35645 10.4165 9.69223 10.4165 10.1064C10.4165 10.5207 10.0807 10.8564 9.6665 10.8564H9.54049L10.9223 15.0017C11.0924 15.5122 11.5701 15.8564 12.1081 15.8564H13.2251C13.7631 15.8564 14.2408 15.5122 14.4109 15.0017L15.7927 10.8564H15.6665C15.2523 10.8564 14.9165 10.5207 14.9165 10.1064C14.9165 9.69223 15.2523 9.35645 15.6665 9.35645H18.1665C18.5807 9.35645 18.9165 9.02066 18.9165 8.60645C18.9165 8.19223 18.5807 7.85645 18.1665 7.85645H15.6665C15.2523 7.85645 14.9165 7.52066 14.9165 7.10645C14.9165 6.69223 15.2523 6.35645 15.6665 6.35645H15.9165Z" fill="#8A8A8A"/>
<path d="M13.4165 19.6064C13.4165 19.1922 13.0807 18.8564 12.6665 18.8564C12.2523 18.8564 11.9165 19.1922 11.9165 19.6064V22.6064C11.9165 23.0207 12.2523 23.3564 12.6665 23.3564C13.0807 23.3564 13.4165 23.0207 13.4165 22.6064V19.6064Z" fill="#8A8A8A"/>
<path d="M9.61538 18.2316C9.82248 18.5903 9.69958 19.049 9.34086 19.2561L6.74278 20.7561C6.38406 20.9632 5.92537 20.8403 5.71826 20.4816C5.51115 20.1228 5.63406 19.6641 5.99278 19.457L8.59086 17.957C8.94958 17.7499 9.40827 17.8728 9.61538 18.2316Z" fill="#8A8A8A"/>
<path d="M15.9927 19.2561C15.634 19.049 15.5111 18.5903 15.7182 18.2316C15.9253 17.8728 16.384 17.7499 16.7427 17.957L19.3408 19.457C19.6995 19.6641 19.8224 20.1228 19.6153 20.4816C19.4082 20.8403 18.9495 20.9632 18.5908 20.7561L15.9927 19.2561Z" fill="#8A8A8A"/>
</svg>
