<svg width="25" height="25" viewBox="0 0 25 25" fill="none" xmlns="http://www.w3.org/2000/svg">
<path d="M16.647 10.874H8.85449L10.6947 16.2225H14.6342L16.647 10.874Z" fill="#B3D3EC"/>
<path fill-rule="evenodd" clip-rule="evenodd" d="M2.9165 3.35669C2.9165 2.94248 3.25229 2.60669 3.6665 2.60669H21.6665C22.0807 2.60669 22.4165 2.94248 22.4165 3.35669C22.4165 3.7709 22.0807 4.10669 21.6665 4.10669H17.4165V6.60669H18.6665C19.7711 6.60669 20.6665 7.50212 20.6665 8.60669V9.60669C20.6665 10.7113 19.7711 11.6067 18.6665 11.6067H17.1238L15.834 15.4763C15.4596 16.5993 14.4088 17.3567 13.2251 17.3567H12.1081C10.9244 17.3567 9.87354 16.5993 9.49923 15.4763L8.20935 11.6067H6.6665C5.56193 11.6067 4.6665 10.7113 4.6665 9.60669V8.60669C4.6665 7.50212 5.56193 6.60669 6.6665 6.60669H7.9165V4.10669H3.6665C3.25229 4.10669 2.9165 3.7709 2.9165 3.35669ZM9.4165 6.60669H15.9165V4.10669H9.4165V6.60669ZM9.79049 11.6067L10.9223 15.002C11.0924 15.5124 11.5701 15.8567 12.1081 15.8567H13.2251C13.7631 15.8567 14.2408 15.5124 14.4109 15.002L15.5427 11.6067H9.79049ZM6.6665 8.10669H18.6665C18.9426 8.10669 19.1665 8.33055 19.1665 8.60669V9.60669C19.1665 9.88283 18.9426 10.1067 18.6665 10.1067H6.6665C6.39036 10.1067 6.1665 9.88283 6.1665 9.60669V8.60669C6.1665 8.33055 6.39036 8.10669 6.6665 8.10669Z" fill="#016BBF"/>
<path d="M12.6665 18.8567C13.0807 18.8567 13.4165 19.1925 13.4165 19.6067V22.6067C13.4165 23.0209 13.0807 23.3567 12.6665 23.3567C12.2523 23.3567 11.9165 23.0209 11.9165 22.6067V19.6067C11.9165 19.1925 12.2523 18.8567 12.6665 18.8567Z" fill="#016BBF"/>
<path d="M9.34086 19.2563C9.69958 19.0492 9.82248 18.5905 9.61538 18.2318C9.40827 17.8731 8.94958 17.7502 8.59086 17.9573L5.99278 19.4573C5.63406 19.6644 5.51115 20.1231 5.71826 20.4818C5.92537 20.8405 6.38406 20.9634 6.74278 20.7563L9.34086 19.2563Z" fill="#016BBF"/>
<path d="M15.7182 18.2318C15.5111 18.5905 15.634 19.0492 15.9927 19.2563L18.5908 20.7563C18.9495 20.9634 19.4082 20.8405 19.6153 20.4818C19.8224 20.1231 19.6995 19.6644 19.3408 19.4573L16.7427 17.9573C16.384 17.7502 15.9253 17.8731 15.7182 18.2318Z" fill="#016BBF"/>
</svg>
