<svg width="25" height="25" viewBox="0 0 25 25" fill="none" xmlns="http://www.w3.org/2000/svg">
<path fill-rule="evenodd" clip-rule="evenodd" d="M2.9165 3.35645C2.9165 2.94223 3.25229 2.60645 3.6665 2.60645H21.6665C22.0807 2.60645 22.4165 2.94223 22.4165 3.35645C22.4165 3.77066 22.0807 4.10645 21.6665 4.10645H17.4165V6.60645H18.6665C19.7711 6.60645 20.6665 7.50188 20.6665 8.60645V9.60645C20.6665 10.711 19.7711 11.6064 18.6665 11.6064H17.1238L15.834 15.4761C15.4596 16.599 14.4088 17.3564 13.2251 17.3564H12.1081C10.9244 17.3564 9.87354 16.599 9.49923 15.4761L8.20935 11.6064H6.6665C5.56193 11.6064 4.6665 10.711 4.6665 9.60645V8.60645C4.6665 7.50188 5.56193 6.60645 6.6665 6.60645H7.9165V4.10645H3.6665C3.25229 4.10645 2.9165 3.77066 2.9165 3.35645ZM9.4165 6.60645H15.9165V4.10645H9.4165V6.60645ZM9.79049 11.6064L10.9223 15.0017C11.0924 15.5122 11.5701 15.8564 12.1081 15.8564H13.2251C13.7631 15.8564 14.2408 15.5122 14.4109 15.0017L15.5427 11.6064H9.79049ZM6.6665 8.10645H18.6665C18.9426 8.10645 19.1665 8.3303 19.1665 8.60645V9.60645C19.1665 9.88259 18.9426 10.1064 18.6665 10.1064H6.6665C6.39036 10.1064 6.1665 9.88259 6.1665 9.60645V8.60645C6.1665 8.3303 6.39036 8.10645 6.6665 8.10645Z" fill="#8A8A8A"/>
<path d="M12.6665 18.8564C13.0807 18.8564 13.4165 19.1922 13.4165 19.6064V22.6064C13.4165 23.0207 13.0807 23.3564 12.6665 23.3564C12.2523 23.3564 11.9165 23.0207 11.9165 22.6064V19.6064C11.9165 19.1922 12.2523 18.8564 12.6665 18.8564Z" fill="#8A8A8A"/>
<path d="M9.34086 19.2561C9.69958 19.049 9.82248 18.5903 9.61538 18.2316C9.40827 17.8728 8.94958 17.7499 8.59086 17.957L5.99278 19.457C5.63406 19.6641 5.51115 20.1228 5.71826 20.4816C5.92537 20.8403 6.38406 20.9632 6.74278 20.7561L9.34086 19.2561Z" fill="#8A8A8A"/>
<path d="M15.7182 18.2316C15.5111 18.5903 15.634 19.049 15.9927 19.2561L18.5908 20.7561C18.9495 20.9632 19.4082 20.8403 19.6153 20.4816C19.8224 20.1228 19.6995 19.6641 19.3408 19.457L16.7427 17.957C16.384 17.7499 15.9253 17.8728 15.7182 18.2316Z" fill="#8A8A8A"/>
</svg>
