<svg width="25" height="24" viewBox="0 0 25 24" fill="none" xmlns="http://www.w3.org/2000/svg">
<path fill-rule="evenodd" clip-rule="evenodd" d="M12.6664 9.29167C14.5074 9.29167 15.9997 7.79928 15.9997 5.95833C15.9997 4.11738 14.5074 2.625 12.6664 2.625C10.8255 2.625 9.33308 4.11738 9.33308 5.95833C9.33308 7.79928 10.8255 9.29167 12.6664 9.29167ZM12.6664 7.79167C13.6789 7.79167 14.4997 6.97085 14.4997 5.95833C14.4997 4.94581 13.6789 4.125 12.6664 4.125C11.6539 4.125 10.8331 4.94581 10.8331 5.95833C10.8331 6.97085 11.6539 7.79167 12.6664 7.79167Z" fill="#8A8A8A"/>
<path d="M4.9165 15.625C4.9165 15.2108 5.25229 14.875 5.6665 14.875H19.6665C20.0807 14.875 20.4165 15.2108 20.4165 15.625V20.625C20.4165 21.0392 20.0807 21.375 19.6665 21.375C19.2523 21.375 18.9165 21.0392 18.9165 20.625V16.375H6.4165V20.625C6.4165 21.0392 6.08072 21.375 5.6665 21.375C5.25229 21.375 4.9165 21.0392 4.9165 20.625V15.625Z" fill="#8A8A8A"/>
<path d="M10.9522 9.5415C10.1065 9.5415 9.32373 9.9344 8.76653 10.5845C8.2124 11.2309 7.9165 12.0862 7.9165 12.9582V13.625C7.9165 14.0392 8.25229 14.375 8.6665 14.375C9.08072 14.375 9.4165 14.0392 9.4165 13.625V12.9582C9.4165 12.4157 9.60224 11.9144 9.90542 11.5606C10.2055 11.2105 10.5855 11.0415 10.9522 11.0415H14.3808C14.7475 11.0415 15.1275 11.2105 15.4276 11.5606C15.7308 11.9144 15.9165 12.4157 15.9165 12.9582V13.625C15.9165 14.0392 16.2523 14.375 16.6665 14.375C17.0807 14.375 17.4165 14.0392 17.4165 13.625V12.9582C17.4165 12.0862 17.1206 11.2309 16.5665 10.5845C16.0093 9.9344 15.2265 9.5415 14.3808 9.5415H10.9522Z" fill="#8A8A8A"/>
</svg>
