<svg width="25" height="24" viewBox="0 0 25 24" fill="none" xmlns="http://www.w3.org/2000/svg">
<path d="M17.083 15.2825H7.33203L9.28218 20.6728H15.0516L17.083 15.2825Z" fill="#B3D3EC"/>
<path fill-rule="evenodd" clip-rule="evenodd" d="M12.1702 2.53418C8.91319 2.53418 6.36648 3.94652 4.85482 6.14947C4.62046 6.49101 4.70735 6.95787 5.04888 7.19223C5.39042 7.42659 5.85728 7.33971 6.09164 6.99817C7.30696 5.22706 9.37754 4.03418 12.1702 4.03418C15.141 4.03418 17.2914 5.38435 18.4708 7.35591C19.5898 9.22662 19.8723 11.7241 19.046 14.2915H17.9203V13.4364C17.9203 12.6832 17.4383 12.0144 16.7237 11.7762L14.7158 11.1069C14.5788 10.7718 14.3757 10.4637 14.1147 10.2027C13.599 9.68695 12.8995 9.39722 12.1702 9.39722C11.4408 9.39722 10.7413 9.68695 10.2256 10.2027C9.96462 10.4637 9.76149 10.7718 9.62452 11.1069L7.61666 11.7762C6.90206 12.0144 6.42006 12.6832 6.42006 13.4364V14.2915H4.0603C3.64609 14.2915 3.3103 14.6272 3.3103 15.0415C3.3103 15.4557 3.64609 15.7915 4.0603 15.7915H6.60465L8.46432 20.9691C8.57129 21.2669 8.85371 21.4656 9.17017 21.4656H15.1702C15.4866 21.4656 15.769 21.2669 15.876 20.9691L17.7357 15.7915H19.5785C19.8909 15.7915 20.1707 15.5978 20.2806 15.3053C21.4488 12.1964 21.2108 9.01462 19.758 6.58589C18.295 4.14009 15.6431 2.53418 12.1702 2.53418ZM8.091 13.1993L9.48371 12.735C9.59529 13.2449 9.85076 13.7169 10.2256 14.0918C10.2965 14.1627 10.3709 14.2293 10.4483 14.2915H7.92006V13.4364C7.92006 13.3288 7.98891 13.2333 8.091 13.1993ZM14.8566 12.735C14.745 13.2449 14.4896 13.7169 14.1147 14.0918C14.0438 14.1627 13.9695 14.2293 13.892 14.2915H16.4203V13.4364C16.4203 13.3288 16.3514 13.2333 16.2493 13.1993L14.8566 12.735ZM11.2863 11.2633C11.5207 11.0289 11.8386 10.8972 12.1702 10.8972C12.5017 10.8972 12.8196 11.0289 13.054 11.2633C13.2885 11.4978 13.4202 11.8157 13.4202 12.1472C13.4202 12.4787 13.2885 12.7967 13.054 13.0311C12.8196 13.2655 12.5017 13.3972 12.1702 13.3972C11.8386 13.3972 11.5207 13.2655 11.2863 13.0311C11.0519 12.7967 10.9202 12.4787 10.9202 12.1472C10.9202 11.8157 11.0519 11.4978 11.2863 11.2633ZM9.6977 19.9656L8.23646 15.8972H16.1039L14.6426 19.9656H9.6977Z" fill="#016BBF"/>
<path d="M8.39537 6.49618C8.75409 6.28907 9.21278 6.41197 9.41989 6.77069L10.1657 8.06254C10.3728 8.42126 10.2499 8.87996 9.89122 9.08706C9.5325 9.29417 9.07381 9.17126 8.8667 8.81254L8.12085 7.52069C7.91374 7.16197 8.03665 6.70328 8.39537 6.49618Z" fill="#016BBF"/>
<path d="M14.9204 6.77069C15.1276 6.41197 15.5862 6.28907 15.945 6.49618C16.3037 6.70328 16.4266 7.16197 16.2195 7.52069L15.4736 8.81254C15.2665 9.17126 14.8078 9.29417 14.4491 9.08706C14.0904 8.87996 13.9675 8.42126 14.1746 8.06254L14.9204 6.77069Z" fill="#016BBF"/>
<path d="M12.1702 5.36141C12.5844 5.36141 12.9202 5.6972 12.9202 6.11141V7.60311C12.9202 8.01732 12.5844 8.35311 12.1702 8.35311C11.756 8.35311 11.4202 8.01732 11.4202 7.60311V6.11141C11.4202 5.6972 11.756 5.36141 12.1702 5.36141Z" fill="#016BBF"/>
</svg>
