<svg width="25" height="24" viewBox="0 0 25 24" fill="none" xmlns="http://www.w3.org/2000/svg">
<circle cx="12.1664" cy="11.9999" r="8.84802" fill="url(#paint0_radial_1021_2962)"/>
<path d="M8.25624 3.49343C8.60179 3.26502 8.69675 2.79974 8.46835 2.45419C8.23994 2.10864 7.77466 2.01368 7.42911 2.24209C6.66785 2.74528 5.77319 3.52988 5.08067 4.51384C4.45397 5.40428 3.96436 6.50051 3.94015 7.72148C3.30968 8.30281 2.65609 9.22785 2.45809 10.4C2.21981 11.8105 2.66523 13.4324 4.28681 15.0589C4.57926 15.3522 5.05413 15.353 5.34747 15.0605C5.64081 14.7681 5.64153 14.2932 5.34908 13.9999C4.00611 12.6528 3.79354 11.4998 3.93713 10.6498C3.99937 10.2814 4.13299 9.94337 4.30246 9.64703C4.62664 10.4456 5.17741 11.2395 5.993 12.0097L7.01014 12.9703L7.24712 11.5915C7.36082 10.9299 7.66941 9.91752 8.20474 9.07238C8.6038 8.44236 9.08173 7.97322 9.64457 7.74994C9.85948 9.10549 9.79632 11.3871 8.4491 13.3891C8.30004 13.6106 8.13511 13.829 7.95283 14.0429C7.03844 15.1158 6.53006 16.1241 6.31111 17.0389C6.21468 17.4417 6.46307 17.8464 6.86591 17.9429C7.26874 18.0393 7.67347 17.7909 7.7699 17.3881C7.91808 16.769 8.27542 16.0026 9.01081 15.1154C9.8105 16.5953 10.2174 18.5399 9.49687 20.9144C9.37659 21.3107 9.6004 21.7296 9.99677 21.8498C10.3931 21.9701 10.812 21.7463 10.9322 21.3499C11.8859 18.2072 11.1596 15.6379 9.96837 13.7909C11.5952 11.0349 11.3391 8.00405 10.9331 6.64643L10.7617 6.07319L10.1647 6.11299C8.64514 6.21429 7.59971 7.22436 6.93756 8.26973C6.60056 8.80176 6.3406 9.37505 6.14809 9.9162C5.67876 9.23667 5.48125 8.59711 5.44541 8.01706C5.38792 7.08656 5.73938 6.18412 6.30732 5.37717C6.87516 4.57036 7.62469 3.91088 8.25624 3.49343Z" fill="#016BBF"/>
<path d="M16.0768 3.49343C15.7312 3.26502 15.6363 2.79974 15.8647 2.45419C16.0931 2.10864 16.5583 2.01368 16.9039 2.24209C17.6652 2.74528 18.5598 3.52988 19.2523 4.51384C19.879 5.40428 20.3686 6.50051 20.3929 7.72148C21.0233 8.30281 21.6769 9.22785 21.8749 10.4C22.1132 11.8105 21.6678 13.4324 20.0462 15.0589C19.7537 15.3522 19.2789 15.353 18.9855 15.0605C18.6922 14.7681 18.6915 14.2932 18.9839 13.9999C20.3269 12.6528 20.5395 11.4998 20.3959 10.6498C20.3336 10.2814 20.2 9.94337 20.0305 9.64703C19.7064 10.4456 19.1556 11.2395 18.34 12.0097L17.3229 12.9703L17.0859 11.5915C16.9722 10.9299 16.6636 9.91752 16.1283 9.07238C15.7292 8.44236 15.2513 7.97322 14.6884 7.74994C14.4735 9.10549 14.5367 11.3871 15.8839 13.3891C16.033 13.6106 16.1979 13.829 16.3802 14.0429C17.2946 15.1158 17.8029 16.1241 18.0219 17.0389C18.1183 17.4417 17.8699 17.8464 17.4671 17.9429C17.0643 18.0393 16.6595 17.7909 16.5631 17.3881C16.4149 16.769 16.0576 16.0026 15.3222 15.1154C14.5225 16.5953 14.1156 18.5399 14.8361 20.9144C14.9564 21.3107 14.7326 21.7296 14.3362 21.8498C13.9399 21.9701 13.5211 21.7463 13.4008 21.3499C12.4471 18.2072 13.1734 15.6379 14.3646 13.7909C12.7378 11.0349 12.9939 8.00405 13.3999 6.64643L13.5713 6.07319L14.1683 6.11299C15.6879 6.21429 16.7333 7.22436 17.3955 8.26973C17.7325 8.80176 17.9924 9.37505 18.1849 9.9162C18.6543 9.23667 18.8518 8.59711 18.8876 8.01706C18.9451 7.08656 18.5936 6.18412 18.0257 5.37717C17.4579 4.57036 16.7083 3.91088 16.0768 3.49343Z" fill="#016BBF"/>
<defs>
<radialGradient id="paint0_radial_1021_2962" cx="0" cy="0" r="1" gradientUnits="userSpaceOnUse" gradientTransform="translate(10.4976 11.9999) scale(8.3142 7.01754)">
<stop stop-color="#B3D3EC"/>
<stop offset="1" stop-color="#B3D3EC" stop-opacity="0"/>
</radialGradient>
</defs>
</svg>
