<svg width="61" height="60" viewBox="0 0 61 60" fill="none" xmlns="http://www.w3.org/2000/svg">
<path d="M10.1953 17.1362V33.2751H19.6942V21.4707L10.1953 17.1362Z" fill="#B3D3EC"/>
<path fill-rule="evenodd" clip-rule="evenodd" d="M56.087 7.31935C56.5075 7.67561 56.75 8.19885 56.75 8.75001V13.75C56.75 14.7855 55.9105 15.625 54.875 15.625C53.8395 15.625 53 14.7855 53 13.75V10.9634L15.8709 17.1516L20.7133 19.5727C21.3485 19.8904 21.7498 20.5396 21.7498 21.2498V31.875H31.75V21.25C31.75 20.2145 32.5895 19.375 33.625 19.375H46.125C46.7836 19.375 47.3939 19.7206 47.7328 20.2853L55.2328 32.7853C55.4076 33.0767 55.5 33.4102 55.5 33.75V46.25C55.5 47.2855 54.6605 48.125 53.625 48.125H50.2394C49.9222 49.2439 49.3233 50.2744 48.4864 51.1114C47.197 52.4007 45.4484 53.125 43.625 53.125C41.8016 53.125 40.053 52.4007 38.7636 51.1114C37.9267 50.2744 37.3278 49.2439 37.0106 48.125H25.2394C24.9222 49.2439 24.3233 50.2744 23.4864 51.1114C22.197 52.4007 20.4484 53.125 18.625 53.125C16.8016 53.125 15.053 52.4007 13.7636 51.1114C12.9267 50.2744 12.3278 49.2439 12.0106 48.125H8.625C6.20875 48.125 4.25 46.1662 4.25 43.75V33.75C4.25 32.7145 5.08947 31.875 6.125 31.875H8V16.2961C7.99241 15.999 8.05554 15.6957 8.19775 15.4113C8.48278 14.8412 9.01902 14.4798 9.60522 14.3941L54.5668 6.90053C55.1104 6.80992 55.6664 6.9631 56.087 7.31935ZM11.75 19.2837V31.875H17.9998V22.4086L11.75 19.2837ZM9.875 35.625L9.8676 35.625H8V43.75C8 44.0952 8.27982 44.375 8.625 44.375H12.0106C12.3278 43.2561 12.9267 42.2256 13.7636 41.3886C15.053 40.0993 16.8016 39.375 18.625 39.375C20.4484 39.375 22.197 40.0993 23.4864 41.3886C24.3233 42.2256 24.9222 43.2561 25.2394 44.375H31.75V35.625H9.8824L9.875 35.625ZM50.2394 44.375H51.75V35.625H35.5V44.375H37.0106C37.3278 43.2561 37.9267 42.2256 38.7636 41.3886C40.053 40.0993 41.8016 39.375 43.625 39.375C45.4484 39.375 47.197 40.0993 48.4864 41.3886C49.3233 42.2256 49.9222 43.2561 50.2394 44.375ZM40.5 46.25C40.5 47.0788 40.8292 47.8737 41.4153 48.4597C42.0013 49.0458 42.7962 49.375 43.625 49.375C44.4538 49.375 45.2487 49.0458 45.8347 48.4597C46.4208 47.8737 46.75 47.0788 46.75 46.25C46.75 45.4212 46.4208 44.6263 45.8347 44.0403C45.2487 43.4542 44.4538 43.125 43.625 43.125C42.7962 43.125 42.0013 43.4542 41.4153 44.0403C40.8292 44.6263 40.5 45.4212 40.5 46.25ZM15.5 46.25C15.5 47.0788 15.8292 47.8737 16.4153 48.4597C17.0013 49.0458 17.7962 49.375 18.625 49.375C19.4538 49.375 20.2487 49.0458 20.8347 48.4597C21.4208 47.8737 21.75 47.0788 21.75 46.25C21.75 45.4212 21.4208 44.6263 20.8347 44.0403C20.2487 43.4542 19.4538 43.125 18.625 43.125C17.7962 43.125 17.0013 43.4542 16.4153 44.0403C15.8292 44.6263 15.5 45.4212 15.5 46.25ZM50.3134 31.875H35.5V23.125H45.0634L50.3134 31.875Z" fill="#016BBF"/>
</svg>
