<svg width="25" height="24" viewBox="0 0 25 24" fill="none" xmlns="http://www.w3.org/2000/svg">
<path d="M9.1851 2.99217C10.368 2.50219 11.6359 2.25 12.9163 2.25C13.0324 2.25 13.1484 2.25207 13.2643 2.25621C13.6782 2.271 14.0018 2.61855 13.987 3.0325C13.9722 3.44645 13.6247 3.77004 13.2107 3.75526C13.1127 3.75176 13.0145 3.75 12.9163 3.75C11.8329 3.75 10.7601 3.96339 9.75912 4.37799C8.75819 4.7926 7.84871 5.40029 7.08263 6.16637C6.31655 6.93245 5.70885 7.84193 5.29425 8.84286C4.87965 9.8438 4.66626 10.9166 4.66626 12C4.66626 13.0834 4.87965 14.1562 5.29425 15.1571C5.70885 16.1581 6.31655 17.0675 7.08263 17.8336C7.84871 18.5997 8.75819 19.2074 9.75912 19.622C10.7601 20.0366 11.8329 20.25 12.9163 20.25C13.0145 20.25 13.1127 20.2482 13.2107 20.2447C13.6247 20.23 13.9722 20.5535 13.987 20.9675C14.0018 21.3814 13.6782 21.729 13.2643 21.7438C13.1484 21.7479 13.0324 21.75 12.9163 21.75C11.6359 21.75 10.368 21.4978 9.1851 21.0078C8.00217 20.5178 6.92734 19.7997 6.02197 18.8943C5.1166 17.9889 4.39842 16.9141 3.90843 15.7312C3.41845 14.5482 3.16626 13.2804 3.16626 12C3.16626 10.7196 3.41845 9.45176 3.90843 8.26884C4.39842 7.08591 5.1166 6.01108 6.02197 5.10571C6.92734 4.20034 8.00217 3.48216 9.1851 2.99217Z" fill="#8A8A8A"/>
<path d="M15.3587 3.30535C15.5035 2.91726 15.9354 2.71999 16.3235 2.86474C16.4322 2.90525 16.5401 2.94774 16.6474 2.99217C16.7547 3.03661 16.8611 3.08293 16.9666 3.13109C17.3433 3.30316 17.5093 3.74809 17.3372 4.12487C17.1652 4.50166 16.7202 4.66761 16.3434 4.49554C16.2542 4.45479 16.1642 4.4156 16.0734 4.37799C15.9826 4.34039 15.8913 4.30445 15.7993 4.27016C15.4112 4.12541 15.214 3.69345 15.3587 3.30535Z" fill="#8A8A8A"/>
<path d="M18.5001 4.90188C18.7824 4.59872 19.2569 4.58177 19.5601 4.86403C19.6449 4.94303 19.7284 5.0236 19.8106 5.10571C19.8927 5.18782 19.9732 5.27132 20.0522 5.35618C20.3345 5.65934 20.3175 6.13391 20.0144 6.41616C19.7112 6.69841 19.2366 6.68147 18.9544 6.3783C18.8875 6.30651 18.8194 6.23585 18.7499 6.16637C18.6804 6.09689 18.6098 6.02871 18.538 5.96187C18.2348 5.67962 18.2178 5.20504 18.5001 4.90188Z" fill="#8A8A8A"/>
<path d="M20.7914 7.57904C21.1682 7.40697 21.6131 7.57292 21.7852 7.9497C21.8333 8.05516 21.8796 8.16155 21.9241 8.26884C21.9685 8.37612 22.011 8.4841 22.0515 8.59273C22.1963 8.98082 21.999 9.41278 21.6109 9.55754C21.2228 9.70229 20.7908 9.50502 20.6461 9.11692C20.6118 9.02501 20.5759 8.93364 20.5383 8.84286C20.5007 8.75208 20.4615 8.66206 20.4207 8.57282C20.2487 8.19604 20.4146 7.75111 20.7914 7.57904Z" fill="#8A8A8A"/>
<path d="M21.8838 10.9292C22.2977 10.9145 22.6453 11.238 22.66 11.652C22.6642 11.7679 22.6663 11.8839 22.6663 12C22.6663 12.1161 22.6642 12.2321 22.66 12.348C22.6453 12.762 22.2977 13.0855 21.8838 13.0708C21.4698 13.056 21.1462 12.7084 21.161 12.2945C21.1645 12.1964 21.1663 12.0983 21.1663 12C21.1663 11.9017 21.1645 11.8036 21.161 11.7055C21.1462 11.2916 21.4698 10.944 21.8838 10.9292Z" fill="#8A8A8A"/>
<path d="M21.6109 14.4425C21.999 14.5872 22.1963 15.0192 22.0515 15.4073C22.011 15.5159 21.9685 15.6239 21.9241 15.7312C21.8796 15.8384 21.8333 15.9448 21.7852 16.0503C21.6131 16.4271 21.1682 16.593 20.7914 16.421C20.4146 16.2489 20.2487 15.804 20.4207 15.4272C20.4615 15.3379 20.5007 15.2479 20.5383 15.1571C20.5759 15.0664 20.6118 14.975 20.6461 14.8831C20.7908 14.495 21.2228 14.2977 21.6109 14.4425Z" fill="#8A8A8A"/>
<path d="M20.0144 17.5838C20.3175 17.8661 20.3345 18.3407 20.0522 18.6438C19.9732 18.7287 19.8927 18.8122 19.8106 18.8943C19.7284 18.9764 19.6449 19.057 19.5601 19.136C19.2569 19.4182 18.7824 19.4013 18.5001 19.0981C18.2178 18.795 18.2348 18.3204 18.538 18.0381C18.6098 17.9713 18.6804 17.9031 18.7499 17.8336C18.8194 17.7642 18.8875 17.6935 18.9544 17.6217C19.2366 17.3185 19.7112 17.3016 20.0144 17.5838Z" fill="#8A8A8A"/>
<path d="M17.3372 19.8751C17.5093 20.2519 17.3433 20.6968 16.9666 20.8689C16.8611 20.9171 16.7547 20.9634 16.6474 21.0078C16.5401 21.0523 16.4322 21.0947 16.3235 21.1353C15.9354 21.28 15.5035 21.0827 15.3587 20.6946C15.214 20.3066 15.4112 19.8746 15.7993 19.7298C15.8913 19.6956 15.9826 19.6596 16.0734 19.622C16.1642 19.5844 16.2542 19.5452 16.3434 19.5045C16.7202 19.3324 17.1652 19.4983 17.3372 19.8751Z" fill="#8A8A8A"/>
<path d="M18.435 11.4587C18.5774 11.5953 18.6662 11.7874 18.6662 12.0004C18.6662 12.0771 18.6546 12.1512 18.6332 12.2209C18.5985 12.3343 18.5362 12.4412 18.4465 12.5309L16.3252 14.6522C16.0323 14.9451 15.5574 14.9451 15.2645 14.6522C14.9716 14.3593 14.9716 13.8845 15.2645 13.5916L16.1057 12.7504H9.72695L11.2749 14.2983C11.5678 14.5912 11.5678 15.066 11.2749 15.3589C10.982 15.6518 10.5071 15.6518 10.2142 15.3589L7.3942 12.5389C7.36036 12.5061 7.3296 12.4702 7.3024 12.4315C7.27728 12.3959 7.25564 12.3585 7.23746 12.3199C7.20273 12.2463 7.17963 12.1661 7.17053 12.0817C7.14681 11.8636 7.21856 11.6371 7.38578 11.4698L10.2142 8.64141C10.5071 8.34852 10.982 8.34852 11.2749 8.64141C11.5678 8.93431 11.5678 9.40918 11.2749 9.70207L9.72658 11.2504H16.1053L15.2645 10.4096C14.9716 10.1167 14.9716 9.64183 15.2645 9.34893C15.5574 9.05604 16.0323 9.05604 16.3252 9.34893L18.435 11.4587Z" fill="#8A8A8A"/>
</svg>
