<svg width="25" height="24" viewBox="0 0 25 24" fill="none" xmlns="http://www.w3.org/2000/svg">
<path fill-rule="evenodd" clip-rule="evenodd" d="M10.9165 8.5625V6.0625H11.1665C11.5807 6.0625 11.9165 5.72671 11.9165 5.3125C11.9165 4.89829 11.5807 4.5625 11.1665 4.5625H3.1665C2.75229 4.5625 2.4165 4.89829 2.4165 5.3125C2.4165 5.72671 2.75229 6.0625 3.1665 6.0625H3.4165L3.4165 8.5625H3.1665C2.75229 8.5625 2.4165 8.89829 2.4165 9.3125C2.4165 9.72671 2.75229 10.0625 3.1665 10.0625H11.1665C11.5807 10.0625 11.9165 9.72671 11.9165 9.3125C11.9165 8.89829 11.5807 8.5625 11.1665 8.5625H10.9165ZM6.4165 8.5625V6.0625H4.9165L4.9165 8.5625H6.4165ZM7.9165 8.5625H9.4165V6.0625H7.9165V8.5625Z" fill="#8A8A8A"/>
<path fill-rule="evenodd" clip-rule="evenodd" d="M12.9165 6.6875C12.9165 6.27329 13.2523 5.9375 13.6665 5.9375H18.6665C18.93 5.9375 19.1741 6.07572 19.3096 6.30163L22.3096 11.3016C22.3796 11.4182 22.4165 11.5516 22.4165 11.6875V16.6875C22.4165 17.1017 22.0807 17.4375 21.6665 17.4375H20.3123C20.1854 17.885 19.9458 18.2973 19.611 18.632C19.0953 19.1478 18.3958 19.4375 17.6665 19.4375C16.9372 19.4375 16.2377 19.1478 15.722 18.632C15.3872 18.2973 15.1476 17.885 15.0207 17.4375H10.3123C10.1854 17.885 9.94583 18.2973 9.61105 18.632C9.09532 19.1478 8.39585 19.4375 7.6665 19.4375C6.93716 19.4375 6.23769 19.1478 5.72196 18.632C5.38718 18.2973 5.14763 17.885 5.02075 17.4375H3.6665C2.70001 17.4375 1.9165 16.654 1.9165 15.6875V11.6875C1.9165 11.2733 2.25229 10.9375 2.6665 10.9375H12.9165V6.6875ZM20.9165 15.9375H20.3123C20.1854 15.49 19.9458 15.0777 19.611 14.743C19.0953 14.2272 18.3958 13.9375 17.6665 13.9375C16.9372 13.9375 16.2377 14.2272 15.722 14.743C15.3872 15.0777 15.1476 15.49 15.0207 15.9375H14.4165V12.4375H20.9165V15.9375ZM16.7826 17.5714C16.5482 17.337 16.4165 17.019 16.4165 16.6875C16.4165 16.356 16.5482 16.038 16.7826 15.8036C17.017 15.5692 17.335 15.4375 17.6665 15.4375C17.998 15.4375 18.316 15.5692 18.5504 15.8036C18.7848 16.038 18.9165 16.356 18.9165 16.6875C18.9165 17.019 18.7848 17.337 18.5504 17.5714C18.316 17.8058 17.998 17.9375 17.6665 17.9375C17.335 17.9375 17.017 17.8058 16.7826 17.5714ZM12.9165 15.9375H10.3123C10.1854 15.49 9.94583 15.0777 9.61105 14.743C9.09532 14.2272 8.39585 13.9375 7.6665 13.9375C6.93716 13.9375 6.23769 14.2272 5.72196 14.743C5.38718 15.0777 5.14763 15.49 5.02075 15.9375H3.6665C3.52843 15.9375 3.4165 15.8256 3.4165 15.6875V12.4375H12.9165V15.9375ZM6.78262 17.5714C6.5482 17.337 6.4165 17.019 6.4165 16.6875C6.4165 16.356 6.5482 16.038 6.78262 15.8036C7.01704 15.5692 7.33498 15.4375 7.6665 15.4375C7.99802 15.4375 8.31597 15.5692 8.55039 15.8036C8.78481 16.038 8.9165 16.356 8.9165 16.6875C8.9165 17.019 8.78481 17.337 8.55039 17.5714C8.31597 17.8058 7.99802 17.9375 7.6665 17.9375C7.33498 17.9375 7.01704 17.8058 6.78262 17.5714ZM14.4165 10.9375H20.3419L18.2419 7.4375H14.4165V10.9375Z" fill="#8A8A8A"/>
</svg>
