<svg width="25" height="24" viewBox="0 0 25 24" fill="none" xmlns="http://www.w3.org/2000/svg">
<path d="M3.82007 6.42211V8.69823V10.9746L5.59057 11.7586L7.51271 12.9473L9.15665 11.7586L10.9523 10.9746V8.52131V6.42211L9.15665 5.43575L7.33567 4.29761L5.59057 5.43575L3.82007 6.42211Z" fill="#B3D3EC"/>
<path d="M9.16203 7.25489C9.45492 7.54778 9.45492 8.02266 9.16203 8.31555L7.54558 9.932C7.40493 10.0727 7.21416 10.1517 7.01525 10.1517C6.81634 10.1517 6.62557 10.0727 6.48492 9.932L5.67669 9.12378C5.3838 8.83088 5.3838 8.35601 5.67669 8.06312C5.96959 7.77022 6.44446 7.77022 6.73735 8.06312L7.01525 8.34101L8.10137 7.25489C8.39426 6.962 8.86914 6.962 9.16203 7.25489Z" fill="#016BBF"/>
<path fill-rule="evenodd" clip-rule="evenodd" d="M9.9525 4.91147L9.57944 4.84707L9.33713 4.55618C8.33763 3.35627 6.49488 3.35627 5.49537 4.55618L5.25307 4.84707L4.88 4.91147C3.34109 5.17711 2.41972 6.77298 2.95912 8.23853L3.08988 8.59382L2.95912 8.9491C2.41972 10.4147 3.34109 12.0105 4.88 12.2762L5.25307 12.3406L5.49537 12.6314C6.49488 13.8314 8.33763 13.8314 9.33713 12.6314L9.57944 12.3406L9.9525 12.2762C11.4914 12.0105 12.4128 10.4147 11.8734 8.9491L11.7426 8.59381L11.8734 8.23853C12.4128 6.77298 11.4914 5.17711 9.9525 4.91147ZM6.6479 5.51622C7.0477 5.03626 7.7848 5.03626 8.18461 5.51622L8.54469 5.94851C8.69675 6.13105 8.90883 6.25349 9.14294 6.2939L9.69735 6.38961C10.3129 6.49586 10.6815 7.13421 10.4657 7.72043L10.2714 8.24842C10.1893 8.47137 10.1893 8.71626 10.2714 8.93922L10.4657 9.4672C10.6815 10.0534 10.3129 10.6918 9.69735 10.798L9.14294 10.8937C8.90882 10.9341 8.69675 11.0566 8.54469 11.2391L8.18461 11.6714C7.7848 12.1514 7.0477 12.1514 6.6479 11.6714L6.28782 11.2391C6.13576 11.0566 5.92368 10.9341 5.68957 10.8937L5.13516 10.798C4.51959 10.6918 4.15104 10.0534 4.3668 9.4672L4.56113 8.93922C4.64319 8.71626 4.64319 8.47137 4.56113 8.24842L4.3668 7.72043C4.15104 7.13421 4.51959 6.49586 5.13516 6.38961L5.68957 6.2939C5.92368 6.25349 6.13576 6.13105 6.28782 5.94851L6.6479 5.51622Z" fill="#016BBF"/>
<path fill-rule="evenodd" clip-rule="evenodd" d="M13.4846 4.84375C13.0704 4.84375 12.7346 5.17954 12.7346 5.59375C12.7346 6.00796 13.0704 6.34375 13.4846 6.34375H13.6663V16.8438H11.062C10.9351 16.3962 10.6956 15.984 10.3608 15.6492C9.84508 15.1335 9.14561 14.8438 8.41626 14.8438C7.68691 14.8438 6.98744 15.1335 6.47172 15.6492C6.13693 15.984 5.89738 16.3962 5.7705 16.8438H4.41626C4.27819 16.8438 4.16626 16.7318 4.16626 16.5938V13.5938C4.16626 13.1795 3.83047 12.8438 3.41626 12.8438C3.00205 12.8438 2.66626 13.1795 2.66626 13.5938V16.5938C2.66626 17.5602 3.44976 18.3438 4.41626 18.3438H5.7705C5.89738 18.7913 6.13693 19.2035 6.47172 19.5383C6.98744 20.054 7.68691 20.3438 8.41626 20.3438C9.14561 20.3438 9.84508 20.054 10.3608 19.5383C10.6956 19.2035 10.9351 18.7913 11.062 18.3438H15.7705C15.8974 18.7913 16.1369 19.2035 16.4717 19.5383C16.9874 20.054 17.6869 20.3438 18.4163 20.3438C19.1456 20.3438 19.8451 20.054 20.3608 19.5383C20.6956 19.2035 20.9351 18.7913 21.062 18.3438H22.4163C22.8305 18.3438 23.1663 18.008 23.1663 17.5938V11.5938C23.1663 11.4578 23.1293 11.3244 23.0594 11.2079L20.0594 6.20788C19.9238 5.98197 19.6797 5.84375 19.4163 5.84375H15.1663V5.59375C15.1663 5.17954 14.8305 4.84375 14.4163 4.84375H13.4846ZM21.062 16.8438H21.6663V12.3438H15.1663V16.8438H15.7705C15.8974 16.3962 16.1369 15.984 16.4717 15.6492C16.9874 15.1335 17.6869 14.8438 18.4163 14.8438C19.1456 14.8438 19.8451 15.1335 20.3608 15.6492C20.6956 15.984 20.9351 16.3962 21.062 16.8438ZM17.1663 17.5938C17.1663 17.9253 17.298 18.2432 17.5324 18.4776C17.7668 18.7121 18.0847 18.8438 18.4163 18.8438C18.7478 18.8438 19.0657 18.7121 19.3001 18.4776C19.5346 18.2432 19.6663 17.9253 19.6663 17.5938C19.6663 17.2622 19.5346 16.9443 19.3001 16.7099C19.0657 16.4754 18.7478 16.3438 18.4163 16.3438C18.0847 16.3438 17.7668 16.4754 17.5324 16.7099C17.298 16.9443 17.1663 17.2622 17.1663 17.5938ZM7.16626 17.5938C7.16626 17.9253 7.29796 18.2432 7.53238 18.4776C7.7668 18.7121 8.08474 18.8438 8.41626 18.8438C8.74778 18.8438 9.06572 18.7121 9.30014 18.4776C9.53456 18.2432 9.66626 17.9253 9.66626 17.5938C9.66626 17.2622 9.53456 16.9443 9.30014 16.7099C9.06572 16.4754 8.74778 16.3438 8.41626 16.3438C8.08474 16.3438 7.7668 16.4754 7.53238 16.7099C7.29796 16.9443 7.16626 17.2622 7.16626 17.5938ZM15.1663 10.8438V7.34375H18.9916L21.0916 10.8438H15.1663Z" fill="#016BBF"/>
</svg>
