<svg width="24" height="24" viewBox="0 0 24 24" fill="none" xmlns="http://www.w3.org/2000/svg">
<path d="M13.9026 17.8772V21.4236H17.9172L18.0612 17.8772L15.9909 18.4713L13.9026 17.8772Z" fill="#B3D3EC"/>
<path d="M7.17835 2.77698C8.06915 1.88619 9.27733 1.38574 10.5371 1.38574C11.7969 1.38574 13.0051 1.88619 13.8959 2.77698C14.7867 3.66778 15.2871 4.87596 15.2871 6.13574C15.2871 7.39552 14.7867 8.6037 13.8959 9.4945C13.603 9.78739 13.1281 9.78739 12.8352 9.4945C12.5423 9.20161 12.5423 8.72673 12.8352 8.43384C13.4447 7.82435 13.7871 6.9977 13.7871 6.13574C13.7871 5.27379 13.4447 4.44714 12.8352 3.83765C12.2257 3.22815 11.3991 2.88574 10.5371 2.88574C9.67516 2.88574 8.84851 3.22815 8.23901 3.83765C7.94612 4.13054 7.47125 4.13054 7.17835 3.83765C6.88546 3.54475 6.88546 3.06988 7.17835 2.77698Z" fill="#016BBF"/>
<path fill-rule="evenodd" clip-rule="evenodd" d="M8.53711 13.8857C7.67516 13.8857 6.84851 14.2282 6.23901 14.8376C5.62952 15.4471 5.28711 16.2738 5.28711 17.1357V19.1357C5.28711 19.55 4.95132 19.8857 4.53711 19.8857C4.1229 19.8857 3.78711 19.55 3.78711 19.1357V17.1357C3.78711 15.876 4.28755 14.6678 5.17835 13.777C6.06915 12.8862 7.27733 12.3857 8.53711 12.3857H11.3212L3.46576 4.53033C3.17287 4.23744 3.17287 3.76256 3.46576 3.46967C3.75866 3.17678 4.23353 3.17678 4.52642 3.46967L14.0553 12.9986C14.0552 12.9985 14.0555 12.9987 14.0553 12.9986C14.1123 13.0417 14.1619 13.0917 14.2029 13.1461L20.5264 19.4697C20.8193 19.7626 20.8193 20.2374 20.5264 20.5303C20.2335 20.8232 19.7587 20.8232 19.4658 20.5303L18.7461 19.8107V21.8643C18.7461 22.1242 18.6115 22.3656 18.3904 22.5022C18.1693 22.6389 17.8932 22.6513 17.6607 22.5351L15.9961 21.7028L14.3315 22.5351C14.099 22.6513 13.8229 22.6389 13.6018 22.5022C13.3807 22.3656 13.2461 22.1242 13.2461 21.8643V17.9563C12.6045 17.2642 12.2461 16.3539 12.2461 15.4067C12.2461 14.8777 12.3579 14.3602 12.5684 13.8857H8.53711ZM13.8099 14.8745C13.7679 15.0473 13.7461 15.2259 13.7461 15.4067C13.7461 16.0035 13.9831 16.5758 14.4051 16.9977C14.8271 17.4197 15.3994 17.6567 15.9961 17.6567C16.1769 17.6567 16.3555 17.635 16.5283 17.5929L13.8099 14.8745ZM17.2461 18.9423C16.8483 19.0829 16.426 19.1567 15.9961 19.1567C15.5662 19.1567 15.1438 19.0829 14.7461 18.9423V20.6507L15.6607 20.1934C15.8718 20.0879 16.1204 20.0879 16.3315 20.1934L17.2461 20.6507V18.9423Z" fill="#016BBF"/>
<path d="M15.9961 11.6567C15.5819 11.6567 15.2461 11.9925 15.2461 12.4067C15.2461 12.821 15.5819 13.1567 15.9961 13.1567C16.5928 13.1567 17.1651 13.3938 17.5871 13.8157C18.009 14.2377 18.2461 14.81 18.2461 15.4067C18.2461 15.821 18.5819 16.1567 18.9961 16.1567C19.4103 16.1567 19.7461 15.821 19.7461 15.4067C19.7461 14.4122 19.351 13.4583 18.6477 12.7551C17.9445 12.0518 16.9907 11.6567 15.9961 11.6567Z" fill="#016BBF"/>
</svg>
