<svg width="25" height="24" viewBox="0 0 25 24" fill="none" xmlns="http://www.w3.org/2000/svg">
<path fill-rule="evenodd" clip-rule="evenodd" d="M12.1665 2.75C10.9067 2.75 9.69854 3.25044 8.80775 4.14124C7.91695 5.03204 7.4165 6.24022 7.4165 7.5C7.4165 8.75978 7.91695 9.96796 8.80775 10.8588C9.69854 11.7496 10.9067 12.25 12.1665 12.25C13.4263 12.25 14.6345 11.7496 15.5253 10.8588C16.4161 9.96796 16.9165 8.75978 16.9165 7.5C16.9165 6.24022 16.4161 5.03204 15.5253 4.14124C14.6345 3.25044 13.4263 2.75 12.1665 2.75ZM9.86841 5.2019C10.4779 4.59241 11.3046 4.25 12.1665 4.25C13.0285 4.25 13.8551 4.59241 14.4646 5.2019C15.0741 5.8114 15.4165 6.63805 15.4165 7.5C15.4165 8.36195 15.0741 9.1886 14.4646 9.7981C13.8551 10.4076 13.0285 10.75 12.1665 10.75C11.3046 10.75 10.4779 10.4076 9.86841 9.7981C9.25891 9.1886 8.9165 8.36195 8.9165 7.5C8.9165 6.63805 9.25891 5.8114 9.86841 5.2019Z" fill="#8A8A8A"/>
<path d="M7.86841 16.2019C8.4779 15.5924 9.30455 15.25 10.1665 15.25H14.1665C15.0285 15.25 15.8551 15.5924 16.4646 16.2019C17.0741 16.8114 17.4165 17.638 17.4165 18.5V20.5C17.4165 20.9142 17.7523 21.25 18.1665 21.25C18.5807 21.25 18.9165 20.9142 18.9165 20.5V18.5C18.9165 17.2402 18.4161 16.032 17.5253 15.1412C16.6345 14.2504 15.4263 13.75 14.1665 13.75H10.1665C8.90673 13.75 7.69854 14.2504 6.80775 15.1412C5.91695 16.032 5.4165 17.2402 5.4165 18.5V20.5C5.4165 20.9142 5.75229 21.25 6.1665 21.25C6.58072 21.25 6.9165 20.9142 6.9165 20.5V18.5C6.9165 17.638 7.25891 16.8114 7.86841 16.2019Z" fill="#8A8A8A"/>
</svg>
