<svg width="25" height="24" viewBox="0 0 25 24" fill="none" xmlns="http://www.w3.org/2000/svg">
<circle cx="12.6666" cy="7.57214" r="3.85559" fill="#B3D3EC"/>
<path fill-rule="evenodd" clip-rule="evenodd" d="M12.6665 2.75C11.4067 2.75 10.1985 3.25044 9.30775 4.14124C8.41695 5.03204 7.9165 6.24022 7.9165 7.5C7.9165 8.75978 8.41695 9.96796 9.30775 10.8588C10.1985 11.7496 11.4067 12.25 12.6665 12.25C13.9263 12.25 15.1345 11.7496 16.0253 10.8588C16.9161 9.96796 17.4165 8.75978 17.4165 7.5C17.4165 6.24022 16.9161 5.03204 16.0253 4.14124C15.1345 3.25044 13.9263 2.75 12.6665 2.75ZM10.3684 5.2019C10.9779 4.59241 11.8046 4.25 12.6665 4.25C13.5285 4.25 14.3551 4.59241 14.9646 5.2019C15.5741 5.8114 15.9165 6.63805 15.9165 7.5C15.9165 8.36195 15.5741 9.1886 14.9646 9.7981C14.3551 10.4076 13.5285 10.75 12.6665 10.75C11.8046 10.75 10.9779 10.4076 10.3684 9.7981C9.75891 9.1886 9.4165 8.36195 9.4165 7.5C9.4165 6.63805 9.75891 5.8114 10.3684 5.2019Z" fill="#016BBF"/>
<path d="M8.36841 16.2019C8.9779 15.5924 9.80455 15.25 10.6665 15.25H14.6665C15.5285 15.25 16.3551 15.5924 16.9646 16.2019C17.5741 16.8114 17.9165 17.638 17.9165 18.5V20.5C17.9165 20.9142 18.2523 21.25 18.6665 21.25C19.0807 21.25 19.4165 20.9142 19.4165 20.5V18.5C19.4165 17.2402 18.9161 16.032 18.0253 15.1412C17.1345 14.2504 15.9263 13.75 14.6665 13.75H10.6665C9.40673 13.75 8.19854 14.2504 7.30775 15.1412C6.41695 16.032 5.9165 17.2402 5.9165 18.5V20.5C5.9165 20.9142 6.25229 21.25 6.6665 21.25C7.08072 21.25 7.4165 20.9142 7.4165 20.5V18.5C7.4165 17.638 7.75891 16.8114 8.36841 16.2019Z" fill="#016BBF"/>
</svg>
