<svg width="25" height="24" viewBox="0 0 25 24" fill="none" xmlns="http://www.w3.org/2000/svg">
<path d="M7.03027 13.8008L6.80298 17.9222H10.6115L17.0067 11.5839L13.2833 7.46265L7.03027 13.8008Z" fill="#B3D3EC"/>
<path fill-rule="evenodd" clip-rule="evenodd" d="M17.1362 2.46967C17.4291 2.17678 17.9039 2.17678 18.1968 2.46967L20.1963 4.46912L20.1968 4.46967L20.1974 4.47022L22.1968 6.46967C22.4897 6.76256 22.4897 7.23744 22.1968 7.53033C21.9039 7.82322 21.4291 7.82322 21.1362 7.53033L19.6665 6.06066L16.2272 9.5L17.6968 10.9697L18.6968 11.9697C18.9897 12.2626 18.9897 12.7374 18.6968 13.0303C18.4039 13.3232 17.9291 13.3232 17.6362 13.0303L17.1665 12.5607L11.1968 18.5303C11.0562 18.671 10.8654 18.75 10.6665 18.75H6.97716L4.19683 21.5303C3.90394 21.8232 3.42907 21.8232 3.13617 21.5303C2.84328 21.2374 2.84328 20.7626 3.13617 20.4697L5.9165 17.6893V14C5.9165 13.8011 5.99552 13.6103 6.13617 13.4697L7.63617 11.9697L10.6362 8.96967L12.1058 7.5L11.6362 7.03033C11.3433 6.73744 11.3433 6.26256 11.6362 5.96967C11.9291 5.67678 12.4039 5.67678 12.6968 5.96967L13.6962 6.96903L13.6968 6.96967L13.6975 6.97031L15.1665 8.43934L18.6058 5L17.1362 3.53033C16.8433 3.23744 16.8433 2.76256 17.1362 2.46967ZM12.1362 11.5303L11.1665 10.5607L9.22716 12.5L10.1968 13.4697C10.4897 13.7626 10.4897 14.2374 10.1968 14.5303C9.90394 14.8232 9.42907 14.8232 9.13617 14.5303L8.1665 13.5607L7.4165 14.3107V17.25H10.3558L16.1058 11.5L14.6362 10.0303L13.1665 8.56066L12.2272 9.5L13.1968 10.4697C13.4897 10.7626 13.4897 11.2374 13.1968 11.5303C12.9039 11.8232 12.4291 11.8232 12.1362 11.5303Z" fill="#016BBF"/>
</svg>
