<svg width="25" height="24" viewBox="0 0 25 24" fill="none" xmlns="http://www.w3.org/2000/svg">
<path fill-rule="evenodd" clip-rule="evenodd" d="M11.8955 2.25C10.6357 2.25 9.42755 2.75044 8.53675 3.64124C7.64595 4.53204 7.14551 5.74022 7.14551 7C7.14551 8.25978 7.64595 9.46796 8.53675 10.3588C9.42755 11.2496 10.6357 11.75 11.8955 11.75C13.1553 11.75 14.3635 11.2496 15.2543 10.3588C16.1451 9.46796 16.6455 8.25978 16.6455 7C16.6455 5.74022 16.1451 4.53204 15.2543 3.64124C14.3635 2.75044 13.1553 2.25 11.8955 2.25ZM9.59741 4.7019C10.2069 4.09241 11.0336 3.75 11.8955 3.75C12.7575 3.75 13.5841 4.09241 14.1936 4.7019C14.8031 5.3114 15.1455 6.13805 15.1455 7C15.1455 7.86195 14.8031 8.6886 14.1936 9.2981C13.5841 9.90759 12.7575 10.25 11.8955 10.25C11.0336 10.25 10.2069 9.90759 9.59741 9.2981C8.98792 8.6886 8.64551 7.86195 8.64551 7C8.64551 6.13805 8.98792 5.3114 9.59741 4.7019Z" fill="#8A8A8A"/>
<path d="M7.59741 15.7019C8.2069 15.0924 9.03355 14.75 9.89551 14.75H11.8955C12.3097 14.75 12.6455 14.4142 12.6455 14C12.6455 13.5858 12.3097 13.25 11.8955 13.25H9.89551C8.63573 13.25 7.42755 13.7504 6.53675 14.6412C5.64595 15.532 5.14551 16.7402 5.14551 18V20C5.14551 20.4142 5.48129 20.75 5.89551 20.75C6.30972 20.75 6.64551 20.4142 6.64551 20V18C6.64551 17.138 6.98792 16.3114 7.59741 15.7019Z" fill="#8A8A8A"/>
<path fill-rule="evenodd" clip-rule="evenodd" d="M18.9069 17C19.0043 16.922 19.0978 16.8384 19.1869 16.7493C19.8276 16.1085 20.1876 15.2395 20.1876 14.3333V13.4444C20.1876 13.1277 20.0617 12.8238 19.8377 12.5998C19.6137 12.3758 19.3099 12.25 18.9931 12.25H14.5487C14.2319 12.25 13.9281 12.3758 13.7041 12.5998C13.4801 12.8238 13.3542 13.1277 13.3542 13.4444V14.3333C13.3542 15.2395 13.7142 16.1085 14.355 16.7493C14.444 16.8384 14.5375 16.922 14.6349 17C14.5375 17.078 14.444 17.1616 14.355 17.2507C13.7142 17.8915 13.3542 18.7605 13.3542 19.6667V20.5556C13.3542 20.8723 13.4801 21.1762 13.7041 21.4002C13.9281 21.6242 14.2319 21.75 14.5487 21.75H18.9931C19.3099 21.75 19.6137 21.6242 19.8377 21.4002C20.0617 21.1762 20.1876 20.8723 20.1876 20.5556V19.6667C20.1876 18.7605 19.8276 17.8915 19.1869 17.2507C19.0978 17.1616 19.0043 17.078 18.9069 17ZM16.7709 17.75C16.2626 17.75 15.7751 17.9519 15.4156 18.3114C15.0562 18.6708 14.8542 19.1583 14.8542 19.6667V20.25H18.6876V19.6667C18.6876 19.1583 18.4856 18.6708 18.1262 18.3114C17.7668 17.9519 17.2792 17.75 16.7709 17.75ZM16.7709 16.25C16.2626 16.25 15.7751 16.0481 15.4156 15.6886C15.0562 15.3292 14.8542 14.8417 14.8542 14.3333V13.75H18.6876V14.3333C18.6876 14.8417 18.4856 15.3292 18.1262 15.6886C17.7668 16.0481 17.2792 16.25 16.7709 16.25Z" fill="#8A8A8A"/>
</svg>
