<svg width="25" height="24" viewBox="0 0 25 24" fill="none" xmlns="http://www.w3.org/2000/svg">
<path fill-rule="evenodd" clip-rule="evenodd" d="M16.5851 8.97681V9.20936C16.5851 9.85156 17.1057 10.3722 17.7479 10.3722H17.9804V8.97681H16.5851Z" fill="#B3D3EC"/>
<path fill-rule="evenodd" clip-rule="evenodd" d="M11.0152 11.8354L12.3311 13.1513C12.2774 13.1589 12.2224 13.1629 12.1665 13.1629C11.5243 13.1629 11.0037 12.6423 11.0037 12.0001C11.0037 11.9441 11.0076 11.8892 11.0152 11.8354ZM7.74789 8.97681H6.35254V10.3722H6.5851C7.22729 10.3722 7.74789 9.85156 7.74789 9.20936V8.97681ZM6.35254 13.628V15.0233H7.74789V14.7908C7.74789 14.1486 7.22729 13.628 6.5851 13.628H6.35254Z" fill="#B3D3EC"/>
<path fill-rule="evenodd" clip-rule="evenodd" d="M15.1898 8.97674H11.2363C10.851 8.97674 10.5386 8.66438 10.5386 8.27907C10.5386 7.89375 10.851 7.5814 11.2363 7.5814H18.6781C19.0634 7.5814 19.3758 7.89375 19.3758 8.27907V14.7907C19.3758 15.176 19.0634 15.4884 18.6781 15.4884C18.2928 15.4884 17.9805 15.176 17.9805 14.7907V13.6552C17.9213 13.6647 17.8744 13.6774 17.8325 13.6941C17.7593 13.7234 17.6319 13.7919 17.4416 14.1724C17.2694 14.5171 16.8503 14.6568 16.5056 14.4845C16.161 14.3122 16.0213 13.8932 16.1935 13.5485C16.4684 12.9986 16.8061 12.6019 17.3143 12.3986C17.5278 12.3132 17.7551 12.2716 17.9805 12.2513V11.7674H17.7479C16.3351 11.7674 15.1898 10.6221 15.1898 9.2093V8.97674ZM16.5851 8.97674V9.2093C16.5851 9.85149 17.1057 10.3721 17.7479 10.3721H17.9805V8.97674H16.5851Z" fill="#016BBF"/>
<path fill-rule="evenodd" clip-rule="evenodd" d="M2.1665 12C2.1665 6.47715 6.64366 2 12.1665 2C17.6894 2 22.1665 6.47715 22.1665 12C22.1665 17.5228 17.6894 22 12.1665 22C6.64366 22 2.1665 17.5228 2.1665 12ZM5.60868 6.42883C4.33212 7.93 3.56185 9.87504 3.56185 12C3.56185 16.7522 7.41429 20.6047 12.1665 20.6047C14.2915 20.6047 16.2365 19.8344 17.7377 18.5578L15.5984 16.4186H5.65488C5.26956 16.4186 4.9572 16.1062 4.9572 15.7209V8.27907C4.9572 7.89375 5.26956 7.5814 5.65488 7.5814H6.76124L5.60868 6.42883ZM6.59534 5.44217L13.9406 12.7875C13.9528 12.798 13.9646 12.809 13.9761 12.8206C13.988 12.8324 13.9993 12.8445 14.0101 12.857L18.7243 17.5712C20.0009 16.07 20.7712 14.125 20.7712 12C20.7712 7.24778 16.9187 3.39535 12.1665 3.39535C10.0415 3.39535 8.0965 4.16562 6.59534 5.44217ZM11.0152 11.8354L12.3311 13.1513C12.2774 13.1589 12.2224 13.1628 12.1665 13.1628C11.5243 13.1628 11.0037 12.6422 11.0037 12C11.0037 11.9441 11.0076 11.8891 11.0152 11.8354ZM9.05558 9.87573L9.93264 10.7528C9.72627 11.1218 9.60836 11.5475 9.60836 12C9.60836 13.4128 10.7537 14.5581 12.1665 14.5581C12.6191 14.5581 13.0447 14.4402 13.4137 14.2339L14.2031 15.0233H9.14325V14.7907C9.14325 13.3779 7.99793 12.2326 6.58511 12.2326H6.35255V11.7674H6.58511C7.76739 11.7674 8.76235 10.9654 9.05558 9.87573ZM7.7479 8.97674H6.35255V10.3721H6.58511C7.2273 10.3721 7.7479 9.85149 7.7479 9.2093V8.97674ZM6.35255 13.6279V15.0233H7.7479V14.7907C7.7479 14.1485 7.2273 13.6279 6.58511 13.6279H6.35255Z" fill="#016BBF"/>
</svg>
