<svg width="25" height="25" viewBox="0 0 25 25" fill="none" xmlns="http://www.w3.org/2000/svg">
<rect x="9.78711" y="10.4846" width="5.81519" height="11.0491" fill="#B3D3EC"/>
<path fill-rule="evenodd" clip-rule="evenodd" d="M3.9165 5.48169C3.9165 4.23905 4.92386 3.23169 6.1665 3.23169H19.1665C20.4091 3.23169 21.4165 4.23905 21.4165 5.48169C21.4165 6.72433 20.4091 7.73169 19.1665 7.73169H13.4165V9.23169H13.6665C15.1853 9.23169 16.4165 10.4629 16.4165 11.9817V12.2317H22.6665C23.0807 12.2317 23.4165 12.5675 23.4165 12.9817C23.4165 13.3959 23.0807 13.7317 22.6665 13.7317H16.4165V18.2317H22.6665C23.0807 18.2317 23.4165 18.5675 23.4165 18.9817C23.4165 19.3959 23.0807 19.7317 22.6665 19.7317H16.4165V19.9817C16.4165 21.5005 15.1853 22.7317 13.6665 22.7317H11.6665C10.1477 22.7317 8.9165 21.5005 8.9165 19.9817V19.7317H2.6665C2.25229 19.7317 1.9165 19.3959 1.9165 18.9817C1.9165 18.5675 2.25229 18.2317 2.6665 18.2317H8.9165V13.7317H2.6665C2.25229 13.7317 1.9165 13.3959 1.9165 12.9817C1.9165 12.5675 2.25229 12.2317 2.6665 12.2317H8.9165V11.9817C8.9165 10.4629 10.1477 9.23169 11.6665 9.23169H11.9165V7.73169H6.1665C4.92386 7.73169 3.9165 6.72433 3.9165 5.48169ZM19.1665 6.23169C19.5807 6.23169 19.9165 5.8959 19.9165 5.48169C19.9165 5.06748 19.5807 4.73169 19.1665 4.73169H6.1665C5.75229 4.73169 5.4165 5.06748 5.4165 5.48169C5.4165 5.8959 5.75229 6.23169 6.1665 6.23169H19.1665ZM11.6665 10.7317C10.9761 10.7317 10.4165 11.2913 10.4165 11.9817V19.9817C10.4165 20.672 10.9761 21.2317 11.6665 21.2317H13.6665C14.3569 21.2317 14.9165 20.672 14.9165 19.9817V11.9817C14.9165 11.2913 14.3569 10.7317 13.6665 10.7317H11.6665Z" fill="#016BBF"/>
</svg>
