<svg width="25" height="25" viewBox="0 0 25 25" fill="none" xmlns="http://www.w3.org/2000/svg">
<path fill-rule="evenodd" clip-rule="evenodd" d="M3.9165 5.48145C3.9165 4.2388 4.92386 3.23145 6.1665 3.23145H19.1665C20.4091 3.23145 21.4165 4.2388 21.4165 5.48145C21.4165 6.72409 20.4091 7.73145 19.1665 7.73145H13.4165V9.23145H13.6665C15.1853 9.23145 16.4165 10.4627 16.4165 11.9814V12.2314H22.6665C23.0807 12.2314 23.4165 12.5672 23.4165 12.9814C23.4165 13.3957 23.0807 13.7314 22.6665 13.7314H16.4165V18.2314H22.6665C23.0807 18.2314 23.4165 18.5672 23.4165 18.9814C23.4165 19.3957 23.0807 19.7314 22.6665 19.7314H16.4165V19.9814C16.4165 21.5002 15.1853 22.7314 13.6665 22.7314H11.6665C10.1477 22.7314 8.9165 21.5002 8.9165 19.9814V19.7314H2.6665C2.25229 19.7314 1.9165 19.3957 1.9165 18.9814C1.9165 18.5672 2.25229 18.2314 2.6665 18.2314H8.9165V13.7314H2.6665C2.25229 13.7314 1.9165 13.3957 1.9165 12.9814C1.9165 12.5672 2.25229 12.2314 2.6665 12.2314H8.9165V11.9814C8.9165 10.4627 10.1477 9.23145 11.6665 9.23145H11.9165V7.73145H6.1665C4.92386 7.73145 3.9165 6.72409 3.9165 5.48145ZM19.1665 6.23145C19.5807 6.23145 19.9165 5.89566 19.9165 5.48145C19.9165 5.06723 19.5807 4.73145 19.1665 4.73145H6.1665C5.75229 4.73145 5.4165 5.06723 5.4165 5.48145C5.4165 5.89566 5.75229 6.23145 6.1665 6.23145H19.1665ZM11.6665 10.7314C10.9761 10.7314 10.4165 11.2911 10.4165 11.9814V19.9814C10.4165 20.6718 10.9761 21.2314 11.6665 21.2314H13.6665C14.3569 21.2314 14.9165 20.6718 14.9165 19.9814V11.9814C14.9165 11.2911 14.3569 10.7314 13.6665 10.7314H11.6665Z" fill="#8A8A8A"/>
</svg>
