<svg width="25" height="24" viewBox="0 0 25 24" fill="none" xmlns="http://www.w3.org/2000/svg">
<path d="M6.58511 5C6.39014 5 6.19778 5.01267 6.00888 5.03731C5.6268 5.08715 5.35747 5.43729 5.40731 5.81937C5.45715 6.20144 5.80728 6.47078 6.18936 6.42094C6.31858 6.40408 6.45065 6.39535 6.58511 6.39535C6.71957 6.39535 6.85164 6.40408 6.98085 6.42094C7.36293 6.47078 7.71307 6.20144 7.76291 5.81937C7.81275 5.43729 7.54342 5.08715 7.16134 5.03731C6.97244 5.01267 6.78008 5 6.58511 5Z" fill="#8A8A8A"/>
<path d="M9.27546 5.91322C8.96994 5.67844 8.53193 5.73579 8.29715 6.04131C8.06237 6.34683 8.11972 6.78484 8.42524 7.01962C8.63493 7.18076 8.82296 7.36878 8.98409 7.57847C9.21887 7.884 9.65688 7.94134 9.9624 7.70656C10.2679 7.47178 10.3253 7.03377 10.0905 6.72825C9.85546 6.4224 9.58131 6.14825 9.27546 5.91322Z" fill="#8A8A8A"/>
<path d="M4.74498 7.01962C5.0505 6.78484 5.10785 6.34683 4.87306 6.04131C4.63828 5.73579 4.20028 5.67844 3.89475 5.91322C3.5889 6.14825 3.31476 6.4224 3.07972 6.72825C2.84494 7.03377 2.90229 7.47178 3.20781 7.70656C3.51334 7.94134 3.95134 7.884 4.18612 7.57847C4.34726 7.36879 4.53529 7.18076 4.74498 7.01962Z" fill="#8A8A8A"/>
<path d="M3.58744 9.02286C3.63728 8.64078 3.36795 8.29064 2.98587 8.2408C2.60379 8.19096 2.25365 8.4603 2.20382 8.84237C2.17917 9.03128 2.1665 9.22364 2.1665 9.4186C2.1665 9.61357 2.17917 9.80593 2.20382 9.99483C2.25365 10.3769 2.60379 10.6462 2.98587 10.5964C3.36795 10.5466 3.63728 10.1964 3.58744 9.81435C3.57059 9.68514 3.56185 9.55306 3.56185 9.4186C3.56185 9.28414 3.57059 9.15207 3.58744 9.02286Z" fill="#8A8A8A"/>
<path d="M10.9664 8.84237C10.9166 8.4603 10.5664 8.19096 10.1843 8.2408C9.80227 8.29064 9.53294 8.64078 9.58277 9.02286C9.59963 9.15207 9.60836 9.28414 9.60836 9.4186C9.60836 9.55306 9.59963 9.68514 9.58277 9.81435C9.53294 10.1964 9.80227 10.5466 10.1843 10.5964C10.5664 10.6462 10.9166 10.3769 10.9664 9.99483C10.991 9.80593 11.0037 9.61357 11.0037 9.4186C11.0037 9.22364 10.991 9.03128 10.9664 8.84237Z" fill="#8A8A8A"/>
<path d="M4.18612 11.2587C3.95134 10.9532 3.51334 10.8959 3.20781 11.1306C2.90229 11.3654 2.84494 11.8034 3.07973 12.109C3.31476 12.4148 3.5889 12.689 3.89475 12.924C4.20028 13.1588 4.63828 13.1014 4.87306 12.7959C5.10785 12.4904 5.0505 12.0524 4.74498 11.8176C4.53529 11.6565 4.34726 11.4684 4.18612 11.2587Z" fill="#8A8A8A"/>
<path d="M10.0905 12.109C10.3253 11.8034 10.2679 11.3654 9.9624 11.1306C9.65688 10.8959 9.21887 10.9532 8.98409 11.2587C8.82296 11.4684 8.63493 11.6565 8.42524 11.8176C8.11972 12.0524 8.06237 12.4904 8.29715 12.7959C8.53193 13.1014 8.96994 13.1588 9.27546 12.924C9.58131 12.689 9.85546 12.4148 10.0905 12.109Z" fill="#8A8A8A"/>
<path d="M6.18936 12.4163C5.80728 12.3664 5.45715 12.6358 5.40731 13.0178C5.35747 13.3999 5.6268 13.7501 6.00888 13.7999C6.19778 13.8245 6.39014 13.8372 6.58511 13.8372C6.78008 13.8372 6.97244 13.8245 7.16134 13.7999C7.54342 13.7501 7.81275 13.3999 7.76291 13.0178C7.71307 12.6358 7.36293 12.3664 6.98085 12.4163C6.85164 12.4331 6.71957 12.4419 6.58511 12.4419C6.45065 12.4419 6.31858 12.4331 6.18936 12.4163Z" fill="#8A8A8A"/>
<path fill-rule="evenodd" clip-rule="evenodd" d="M10.5386 6.62791C10.5386 6.24259 10.851 5.93023 11.2363 5.93023H14.027C14.4123 5.93023 14.7246 6.24259 14.7246 6.62791V8.25581H18.6781C18.8977 8.25581 19.1045 8.3592 19.2363 8.53488L22.027 12.2558C22.1175 12.3766 22.1665 12.5235 22.1665 12.6744V16.8605C22.1665 17.2458 21.8541 17.5581 21.4688 17.5581H20.2091C20.091 17.9745 19.8682 18.3579 19.5568 18.6693C19.077 19.1491 18.4264 19.4186 17.7479 19.4186C17.0694 19.4186 16.4188 19.1491 15.939 18.6693C15.6276 18.3579 15.4048 17.9745 15.2867 17.5581H10.9067C10.7887 17.9745 10.5659 18.3579 10.2545 18.6693C9.77471 19.1491 9.12403 19.4186 8.44557 19.4186C7.76711 19.4186 7.11644 19.1491 6.6367 18.6693C6.32527 18.3579 6.10243 17.9745 5.9844 17.5581H4.72464C4.33933 17.5581 4.02697 17.2458 4.02697 16.8605V14.0698C4.02697 13.6845 4.33933 13.3721 4.72464 13.3721C5.10996 13.3721 5.42232 13.6845 5.42232 14.0698V16.1628H5.9844C6.10243 15.7465 6.32527 15.363 6.6367 15.0516C7.11644 14.5718 7.76711 14.3023 8.44557 14.3023C9.12403 14.3023 9.77471 14.5718 10.2545 15.0516C10.5659 15.363 10.7887 15.7465 10.9067 16.1628H13.3293V7.32558H11.2363C10.851 7.32558 10.5386 7.01322 10.5386 6.62791ZM20.7712 16.1628H20.2091C20.091 15.7465 19.8682 15.363 19.5568 15.0516C19.077 14.5718 18.4264 14.3023 17.7479 14.3023C17.0694 14.3023 16.4188 14.5718 15.939 15.0516C15.6276 15.363 15.4048 15.7465 15.2867 16.1628H14.7246V13.3721H20.7712V16.1628ZM16.9257 17.6827C16.7079 17.4649 16.5854 17.1697 16.5851 16.8617L16.5851 16.8605C16.5851 16.5521 16.7076 16.2563 16.9257 16.0382C17.1437 15.8202 17.4395 15.6977 17.7479 15.6977C18.0563 15.6977 18.352 15.8202 18.5701 16.0382C18.7882 16.2563 18.9107 16.5521 18.9107 16.8605C18.9107 17.1689 18.7882 17.4646 18.5701 17.6827C18.352 17.9007 18.0563 18.0233 17.7479 18.0233C17.4395 18.0233 17.1437 17.9007 16.9257 17.6827ZM7.62336 17.6827C7.40529 17.4646 7.28278 17.1689 7.28278 16.8605C7.28278 16.5521 7.40529 16.2563 7.62336 16.0382C7.84142 15.8202 8.13718 15.6977 8.44557 15.6977C8.75396 15.6977 9.04972 15.8202 9.26779 16.0382C9.48586 16.2563 9.60836 16.5521 9.60836 16.8605C9.60836 17.1689 9.48586 17.4646 9.26779 17.6827C9.04972 17.9007 8.75396 18.0233 8.44557 18.0233C8.13718 18.0233 7.84142 17.9007 7.62336 17.6827ZM18.3293 9.65116H14.7246V11.9767H20.0735L18.3293 9.65116Z" fill="#8A8A8A"/>
<path fill-rule="evenodd" clip-rule="evenodd" d="M5.65488 7.09302C5.91175 7.09302 6.11999 7.30126 6.11999 7.55814V8.02326L7.05022 8.02326V7.55814C7.05022 7.30126 7.25846 7.09302 7.51534 7.09302C7.77222 7.09302 7.98046 7.30126 7.98046 7.55814V8.02326H8.44557C8.70245 8.02326 8.91069 8.2315 8.91069 8.48837C8.91069 8.74525 8.70245 8.95349 8.44557 8.95349H7.98046V9.88372H8.44557C8.70245 9.88372 8.91069 10.092 8.91069 10.3488C8.91069 10.6057 8.70245 10.814 8.44557 10.814H7.98046V11.2791C7.98046 11.5359 7.77222 11.7442 7.51534 11.7442C7.25846 11.7442 7.05022 11.5359 7.05022 11.2791V10.814H6.11999V11.2791C6.11999 11.5359 5.91175 11.7442 5.65488 11.7442C5.398 11.7442 5.18976 11.5359 5.18976 11.2791V10.814H4.72464C4.46777 10.814 4.25953 10.6057 4.25953 10.3488C4.25953 10.092 4.46777 9.88372 4.72464 9.88372H5.18976V8.95349H4.72464C4.46777 8.95349 4.25953 8.74525 4.25953 8.48837C4.25953 8.23149 4.46777 8.02326 4.72464 8.02326H5.18976V7.55814C5.18976 7.30126 5.398 7.09302 5.65488 7.09302ZM6.11999 9.88372H7.05022V8.95349H6.11999V9.88372Z" fill="#8A8A8A"/>
</svg>
