<svg width="25" height="24" viewBox="0 0 25 24" fill="none" xmlns="http://www.w3.org/2000/svg">
<path fill-rule="evenodd" clip-rule="evenodd" d="M5.1665 6.75H7.4165V5.5C7.4165 4.77065 7.70624 4.07118 8.22196 3.55546C8.73769 3.03973 9.43716 2.75 10.1665 2.75H14.1665C14.8958 2.75 15.5953 3.03973 16.111 3.55546C16.6268 4.07118 16.9165 4.77065 16.9165 5.5V6.75H19.1665C19.8958 6.75 20.5953 7.03973 21.111 7.55546C21.6268 8.07118 21.9165 8.77065 21.9165 9.5V18.5C21.9165 19.2293 21.6268 19.9288 21.111 20.4445C20.5953 20.9603 19.8958 21.25 19.1665 21.25C18.7523 21.25 18.4165 20.9142 18.4165 20.5C18.4165 20.0858 18.7523 19.75 19.1665 19.75C19.498 19.75 19.816 19.6183 20.0504 19.3839C20.2848 19.1495 20.4165 18.8315 20.4165 18.5V9.5C20.4165 9.16848 20.2848 8.85054 20.0504 8.61612C19.816 8.3817 19.498 8.25 19.1665 8.25H5.1665C4.83498 8.25 4.51704 8.3817 4.28262 8.61612C4.0482 8.85054 3.9165 9.16848 3.9165 9.5V18.5C3.9165 18.8315 4.0482 19.1495 4.28262 19.3839C4.51704 19.6183 4.83498 19.75 5.1665 19.75C5.58072 19.75 5.9165 20.0858 5.9165 20.5C5.9165 20.9142 5.58072 21.25 5.1665 21.25C4.43716 21.25 3.73768 20.9603 3.22196 20.4445C2.70624 19.9288 2.4165 19.2293 2.4165 18.5V9.5C2.4165 8.77065 2.70624 8.07118 3.22196 7.55546C3.73769 7.03973 4.43716 6.75 5.1665 6.75ZM10.1665 4.25C9.83498 4.25 9.51704 4.3817 9.28262 4.61612C9.0482 4.85054 8.9165 5.16848 8.9165 5.5V6.75H15.4165V5.5C15.4165 5.16848 15.2848 4.85054 15.0504 4.61612C14.816 4.3817 14.498 4.25 14.1665 4.25H10.1665Z" fill="#8A8A8A"/>
<path fill-rule="evenodd" clip-rule="evenodd" d="M11.6665 13.5C11.6665 13.2239 11.4426 13 11.1665 13C10.8904 13 10.6665 13.2239 10.6665 13.5V14H10.1665C9.89036 14 9.6665 14.2239 9.6665 14.5C9.6665 14.7761 9.89036 15 10.1665 15H10.6665V16H10.1665C9.89036 16 9.6665 16.2239 9.6665 16.5C9.6665 16.7761 9.89036 17 10.1665 17H10.6665V17.5C10.6665 17.7761 10.8904 18 11.1665 18C11.4426 18 11.6665 17.7761 11.6665 17.5V17H12.6665V17.5C12.6665 17.7761 12.8904 18 13.1665 18C13.4426 18 13.6665 17.7761 13.6665 17.5V17H14.1665C14.4426 17 14.6665 16.7761 14.6665 16.5C14.6665 16.2239 14.4426 16 14.1665 16H13.6665V15H14.1665C14.4426 15 14.6665 14.7761 14.6665 14.5C14.6665 14.2239 14.4426 14 14.1665 14H13.6665V13.5C13.6665 13.2239 13.4426 13 13.1665 13C12.8904 13 12.6665 13.2239 12.6665 13.5V14H11.6665V13.5ZM12.6665 16H11.6665V15H12.6665V16Z" fill="#8A8A8A"/>
<path d="M12.1665 9.75C11.8612 9.75 11.5609 9.77386 11.2676 9.81996C10.8584 9.88426 10.5789 10.2681 10.6432 10.6773C10.7075 11.0865 11.0913 11.3661 11.5005 11.3018C11.7171 11.2677 11.9395 11.25 12.1665 11.25C12.3936 11.25 12.6159 11.2677 12.8325 11.3018C13.2417 11.3661 13.6255 11.0865 13.6898 10.6773C13.7541 10.2681 13.4746 9.88426 13.0654 9.81996C12.7721 9.77386 12.4718 9.75 12.1665 9.75Z" fill="#8A8A8A"/>
<path d="M9.66874 12.061C10.0036 11.8173 10.0776 11.3482 9.83382 11.0133C9.59008 10.6784 9.12099 10.6045 8.78608 10.8482C8.29874 11.2029 7.86938 11.6322 7.5147 12.1196C7.27096 12.4545 7.34486 12.9236 7.67977 13.1673C8.01468 13.4111 8.48377 13.3371 8.72751 13.0022C8.99005 12.6415 9.308 12.3235 9.66874 12.061Z" fill="#8A8A8A"/>
<path d="M15.5469 10.8482C15.212 10.6045 14.7429 10.6784 14.4992 11.0133C14.2555 11.3482 14.3294 11.8173 14.6643 12.061C15.025 12.3235 15.343 12.6415 15.6055 13.0022C15.8492 13.3371 16.3183 13.4111 16.6532 13.1673C16.9881 12.9236 17.062 12.4545 16.8183 12.1196C16.4636 11.6322 16.0343 11.2029 15.5469 10.8482Z" fill="#8A8A8A"/>
<path d="M7.96827 14.834C8.03258 14.4248 7.75299 14.041 7.3438 13.9767C6.93461 13.9124 6.55077 14.1919 6.48646 14.6011C6.44037 14.8944 6.4165 15.1947 6.4165 15.5C6.4165 15.8053 6.44037 16.1056 6.48646 16.3989C6.55077 16.8081 6.93461 17.0876 7.3438 17.0233C7.75299 16.959 8.03258 16.5752 7.96827 16.166C7.93424 15.9494 7.9165 15.7271 7.9165 15.5C7.9165 15.2729 7.93424 15.0506 7.96827 14.834Z" fill="#8A8A8A"/>
<path d="M17.8465 14.6011C17.7822 14.1919 17.3984 13.9124 16.9892 13.9767C16.58 14.041 16.3004 14.4248 16.3647 14.834C16.3988 15.0506 16.4165 15.2729 16.4165 15.5C16.4165 15.7271 16.3988 15.9494 16.3647 16.166C16.3004 16.5752 16.58 16.959 16.9892 17.0233C17.3984 17.0876 17.7822 16.8081 17.8465 16.3989C17.8926 16.1056 17.9165 15.8053 17.9165 15.5C17.9165 15.1947 17.8926 14.8944 17.8465 14.6011Z" fill="#8A8A8A"/>
<path d="M8.72751 17.9978C8.48377 17.6629 8.01468 17.5889 7.67977 17.8327C7.34486 18.0764 7.27096 18.5455 7.5147 18.8804C7.86938 19.3678 8.29874 19.7971 8.78608 20.1518C9.12099 20.3955 9.59008 20.3216 9.83382 19.9867C10.0776 19.6518 10.0036 19.1827 9.66874 18.939C9.308 18.6765 8.99005 18.3585 8.72751 17.9978Z" fill="#8A8A8A"/>
<path d="M16.8183 18.8804C17.062 18.5455 16.9881 18.0764 16.6532 17.8327C16.3183 17.5889 15.8492 17.6629 15.6055 17.9978C15.343 18.3585 15.025 18.6765 14.6643 18.939C14.3294 19.1827 14.2555 19.6518 14.4992 19.9867C14.7429 20.3216 15.212 20.3955 15.5469 20.1518C16.0343 19.7971 16.4636 19.3678 16.8183 18.8804Z" fill="#8A8A8A"/>
<path d="M11.5005 19.6982C11.0913 19.6339 10.7075 19.9135 10.6432 20.3227C10.5789 20.7319 10.8584 21.1157 11.2676 21.18C11.5609 21.2261 11.8612 21.25 12.1665 21.25C12.4718 21.25 12.7721 21.2261 13.0654 21.18C13.4746 21.1157 13.7541 20.7319 13.6898 20.3227C13.6255 19.9135 13.2417 19.6339 12.8325 19.6982C12.6159 19.7323 12.3936 19.75 12.1665 19.75C11.9395 19.75 11.7171 19.7323 11.5005 19.6982Z" fill="#8A8A8A"/>
</svg>
