<svg width="25" height="25" viewBox="0 0 25 25" fill="none" xmlns="http://www.w3.org/2000/svg">
<path fill-rule="evenodd" clip-rule="evenodd" d="M12.6665 2.92993C9.49087 2.92993 6.9165 5.50429 6.9165 8.67993V9.42993H7.91689C7.91663 9.43804 7.9165 9.44618 7.9165 9.45435C7.9165 10.7141 8.41695 11.9223 9.30775 12.8131C10.1985 13.7039 11.4067 14.2043 12.6665 14.2043C13.9263 14.2043 15.1345 13.7039 16.0253 12.8131C16.9161 11.9223 17.4165 10.7141 17.4165 9.45435C17.4165 9.44618 17.4164 9.43804 17.4161 9.42993H18.4165V8.67993C18.4165 5.50429 15.8421 2.92993 12.6665 2.92993ZM14.9165 5.07371C15.9155 5.69831 16.6363 6.72649 16.8505 7.92993H8.48247C8.69674 6.72649 9.41752 5.69831 10.4165 5.07371V6.31372C10.4165 6.72793 10.7523 7.06372 11.1665 7.06372C11.5807 7.06372 11.9165 6.72793 11.9165 6.31372V4.4959C12.16 4.45255 12.4106 4.42993 12.6665 4.42993C12.9224 4.42993 13.173 4.45255 13.4165 4.4959V6.31372C13.4165 6.72793 13.7523 7.06372 14.1665 7.06372C14.5807 7.06372 14.9165 6.72793 14.9165 6.31372V5.07371ZM9.41611 9.42993C9.41637 9.43804 9.4165 9.44618 9.4165 9.45435C9.4165 10.3163 9.75891 11.143 10.3684 11.7524C10.9779 12.3619 11.8046 12.7043 12.6665 12.7043C13.5285 12.7043 14.3551 12.3619 14.9646 11.7524C15.5741 11.143 15.9165 10.3163 15.9165 9.45435L15.9165 9.44635L15.9169 9.42993H9.41611Z" fill="#8A8A8A"/>
<path d="M8.36841 17.9854C8.9779 17.3759 9.80455 17.0334 10.6665 17.0334H14.6665C15.5285 17.0334 16.3551 17.3759 16.9646 17.9854C17.5741 18.5948 17.9165 19.4215 17.9165 20.2834V22.2834C17.9165 22.6977 18.2523 23.0334 18.6665 23.0334C19.0807 23.0334 19.4165 22.6977 19.4165 22.2834V20.2834C19.4165 19.0237 18.9161 17.8155 18.0253 16.9247C17.1345 16.0339 15.9263 15.5334 14.6665 15.5334H10.6665C9.40673 15.5334 8.19854 16.0339 7.30775 16.9247C6.41695 17.8155 5.9165 19.0237 5.9165 20.2834V22.2834C5.9165 22.6977 6.25229 23.0334 6.6665 23.0334C7.08072 23.0334 7.4165 22.6977 7.4165 22.2834V20.2834C7.4165 19.4215 7.75891 18.5948 8.36841 17.9854Z" fill="#8A8A8A"/>
</svg>
