<svg width="25" height="24" viewBox="0 0 25 24" fill="none" xmlns="http://www.w3.org/2000/svg">
<path d="M11.3763 8.31284C11.5529 8.68755 11.9998 8.84819 12.3745 8.67165C12.7492 8.49511 12.9098 8.04823 12.7333 7.67353L11.3763 8.31284ZM10.9187 5.99316C10.9187 5.57895 10.5829 5.24316 10.1687 5.24316C9.75449 5.24316 9.4187 5.57895 9.4187 5.99316H10.9187ZM8.96096 11.6735C8.78442 11.2988 8.33754 11.1382 7.96283 11.3147C7.58813 11.4913 7.42749 11.9381 7.60404 12.3129L8.96096 11.6735ZM9.4187 13.9932C9.4187 14.4074 9.75449 14.7432 10.1687 14.7432C10.5829 14.7432 10.9187 14.4074 10.9187 13.9932H9.4187ZM4.05799 20.109L4.58832 19.5787L4.05799 20.109ZM4.05799 3.89144L3.52767 3.3611L3.52765 3.36112L4.05799 3.89144ZM20.2755 3.89144L20.8059 3.36113L20.8059 3.36109L20.2755 3.89144ZM20.9161 11.012C20.9169 11.4262 21.2534 11.7614 21.6676 11.7605C22.0818 11.7597 22.4169 11.4233 22.4161 11.0091L20.9161 11.012ZM11.1652 22.2496C11.5795 22.2505 11.9159 21.9153 11.9167 21.5011C11.9176 21.0869 11.5825 20.7505 11.1683 20.7496L11.1652 22.2496ZM18.3971 14.1686L18.9274 14.6989V14.6989L18.3971 14.1686ZM14.2497 18.3159L13.7194 17.7856V17.7856L14.2497 18.3159ZM13.9024 19.0106L14.6448 19.1167L14.6452 19.1143L13.9024 19.0106ZM13.6761 20.5948L14.4181 20.7038L14.4185 20.7009L13.6761 20.5948ZM14.5708 21.4896L14.673 22.2326L14.6769 22.232L14.5708 21.4896ZM16.155 21.2633L16.0489 20.5208L16.155 21.2633ZM16.8497 20.9159L17.3714 21.4549L17.3801 21.4462L16.8497 20.9159ZM20.9971 16.7686L20.4667 16.2382L20.9971 16.7686ZM18.5248 14.5594C18.413 14.1606 17.9991 13.9279 17.6002 14.0397C17.2014 14.1515 16.9687 14.5654 17.0805 14.9643L18.5248 14.5594ZM20.1982 18.0834C20.5967 18.1963 21.0113 17.9648 21.1243 17.5663C21.2372 17.1677 21.0056 16.7531 20.6071 16.6402L20.1982 18.0834ZM10.1687 6.24316C9.46982 6.24316 8.80824 6.45468 8.30447 6.83251C7.80047 7.21052 7.4187 7.78998 7.4187 8.49318H8.9187C8.9187 8.36794 8.98463 8.19739 9.20448 8.0325C9.42456 7.86744 9.76298 7.74316 10.1687 7.74316V6.24316ZM7.4187 8.49318C7.4187 9.19637 7.80048 9.77583 8.30447 10.1538C8.80823 10.5317 9.46981 10.7432 10.1687 10.7432V9.24318C9.76299 9.24318 9.42457 9.11891 9.20448 8.95384C8.98462 8.78894 8.9187 8.61839 8.9187 8.49318H7.4187ZM10.1687 10.7432C10.5744 10.7432 10.9128 10.8675 11.1329 11.0325C11.3528 11.1975 11.4187 11.368 11.4187 11.4932H12.9187C12.9187 10.79 12.5369 10.2105 12.0329 9.83253C11.5291 9.45471 10.8676 9.24318 10.1687 9.24318V10.7432ZM11.4187 11.4932C11.4187 11.6184 11.3528 11.7889 11.1329 11.9538C10.9128 12.1189 10.5744 12.2432 10.1687 12.2432V13.7432C10.8676 13.7432 11.5291 13.5317 12.0329 13.1538C12.5369 12.7759 12.9187 12.1964 12.9187 11.4932H11.4187ZM10.1687 7.74316C10.8371 7.74316 11.2592 8.06413 11.3763 8.31284L12.7333 7.67353C12.3014 6.757 11.2419 6.24316 10.1687 6.24316V7.74316ZM10.9187 6.99316V5.99316H9.4187V6.99316H10.9187ZM10.1687 12.2432C9.5002 12.2432 9.07813 11.9222 8.96096 11.6735L7.60404 12.3129C8.03587 13.2294 9.0954 13.7432 10.1687 13.7432V12.2432ZM9.4187 12.9932V13.9932H10.9187V12.9932H9.4187ZM4.58832 19.5787C4.05528 19.0456 3.74669 18.3227 3.58397 17.1124C3.41834 15.8805 3.41675 14.2606 3.41675 12.0002H1.91675C1.91675 14.2182 1.91516 15.9572 2.09734 17.3122C2.28243 18.6889 2.66946 19.7811 3.52766 20.6393L4.58832 19.5787ZM3.41675 12.0002C3.41675 9.73989 3.41834 8.12006 3.58397 6.88815C3.74669 5.67782 4.05528 4.95484 4.58833 4.42176L3.52765 3.36112C2.66946 4.21935 2.28243 5.31162 2.09734 6.68828C1.91516 8.04337 1.91675 9.78229 1.91675 12.0002H3.41675ZM4.58831 4.42178C5.12136 3.88875 5.84431 3.58018 7.05464 3.41746C8.28654 3.25184 9.90638 3.25024 12.1667 3.25024V1.75024C9.94878 1.75024 8.20986 1.74865 6.85478 1.93083C5.47812 2.11591 4.38587 2.50293 3.52767 3.3611L4.58831 4.42178ZM12.1667 3.25024C14.4271 3.25024 16.0469 3.25184 17.2788 3.41746C18.4892 3.58018 19.2122 3.88876 19.7452 4.42179L20.8059 3.36109C19.9476 2.50293 18.8554 2.11591 17.4787 1.93083C16.1236 1.74865 14.3847 1.75024 12.1667 1.75024V3.25024ZM19.7452 4.42175C20.2382 4.91481 20.5384 5.56939 20.7096 6.61863C20.8843 7.68978 20.9123 9.0868 20.9161 11.012L22.4161 11.0091C22.4124 9.10784 22.3875 7.58771 22.19 6.37712C21.9889 5.14462 21.5976 4.15287 20.8059 3.36113L19.7452 4.42175ZM11.1683 20.7496C9.24647 20.7458 7.85176 20.7174 6.7823 20.5426C5.73474 20.3714 5.08092 20.0713 4.58832 19.5787L3.52766 20.6393C4.31865 21.4303 5.30932 21.8217 6.5403 22.023C7.74936 22.2206 9.26724 22.2458 11.1652 22.2496L11.1683 20.7496ZM17.8668 13.6382L13.7194 17.7856L14.7801 18.8462L18.9274 14.6989L17.8668 13.6382ZM13.7194 17.7856C13.5668 17.9382 13.445 18.1289 13.3586 18.3008C13.2723 18.4725 13.1902 18.6872 13.1596 18.907L14.6452 19.1143C14.6449 19.1161 14.6471 19.1018 14.6573 19.0718C14.6671 19.0433 14.6811 19.0096 14.6988 18.9744C14.7165 18.9392 14.7352 18.9077 14.7524 18.8825C14.7705 18.856 14.781 18.8453 14.7801 18.8462L13.7194 17.7856ZM13.1599 18.9046L12.9336 20.4888L14.4185 20.7009L14.6448 19.1167L13.1599 18.9046ZM12.934 20.4859C12.8623 20.9747 12.9942 21.4665 13.3475 21.8183C13.6994 22.1688 14.1891 22.2992 14.673 22.2326L14.4685 20.7466C14.4219 20.753 14.3984 20.7471 14.3935 20.7456C14.3893 20.7444 14.3963 20.7459 14.406 20.7555C14.4158 20.7653 14.4184 20.7735 14.418 20.7721C14.4173 20.7699 14.4115 20.7489 14.4181 20.7038L12.934 20.4859ZM14.6769 22.232L16.2611 22.0057L16.0489 20.5208L14.4647 20.7471L14.6769 22.232ZM16.2611 22.0057C16.4786 21.9746 16.6916 21.8921 16.8609 21.8071C17.0318 21.7212 17.2195 21.6017 17.3713 21.4548L16.3282 20.3769C16.3258 20.3792 16.3119 20.3917 16.2836 20.4109C16.2564 20.4292 16.2233 20.4487 16.1873 20.4668C16.1511 20.485 16.117 20.4993 16.0886 20.5091C16.0586 20.5195 16.0453 20.5213 16.0489 20.5208L16.2611 22.0057ZM17.3801 21.4462L21.5274 17.2989L20.4667 16.2382L16.3194 20.3856L17.3801 21.4462ZM21.5274 17.2989C21.9282 16.8981 22.3391 16.3561 22.4066 15.6681C22.478 14.9409 22.1501 14.261 21.5274 13.6382L20.4667 14.6989C20.8966 15.1288 20.9266 15.391 20.9138 15.5216C20.8971 15.6915 20.7817 15.9233 20.4667 16.2382L21.5274 17.2989ZM21.5274 13.6382C20.9046 13.0155 20.2248 12.6876 19.4975 12.759C18.8095 12.8265 18.2676 13.2374 17.8668 13.6382L18.9274 14.6989C19.2424 14.3839 19.4741 14.2685 19.644 14.2518C19.7746 14.239 20.0368 14.269 20.4667 14.6989L21.5274 13.6382ZM17.0805 14.9643C17.504 16.4751 18.6854 17.6548 20.1982 18.0834L20.6071 16.6402C19.5936 16.3531 18.8066 15.5644 18.5248 14.5594L17.0805 14.9643Z" fill="#8A8A8A"/>
</svg>
