<svg width="25" height="24" viewBox="0 0 25 24" fill="none" xmlns="http://www.w3.org/2000/svg">
<path fill-rule="evenodd" clip-rule="evenodd" d="M4.58833 4.42176C5.12138 3.88875 5.84433 3.58017 7.05464 3.41746L4.58833 4.42176ZM4.58833 4.42176C4.05529 4.95484 3.74669 5.67783 3.58397 6.88815C3.41834 8.12006 3.41675 9.73989 3.41675 12.0002C3.41675 14.2606 3.41834 15.8805 3.58397 17.1124C3.74669 18.3227 4.05528 19.0456 4.58832 19.5787C5.08092 20.0713 5.73474 20.3714 6.7823 20.5426C7.85176 20.7174 9.24647 20.7458 11.1683 20.7496C11.5825 20.7505 11.9176 21.0869 11.9167 21.5011C11.9159 21.9153 11.5795 22.2505 11.1652 22.2496C9.26724 22.2458 7.74936 22.2206 6.5403 22.023C5.30932 21.8217 4.31865 21.4303 3.52766 20.6393C2.66946 19.7811 2.28243 18.6889 2.09734 17.3122C1.91672 15.9688 1.91673 14.2481 1.91675 12.0574V11.9431C1.91673 9.75239 1.91672 8.03171 2.09734 6.68828C2.28243 5.31162 2.66946 4.21935 3.52765 3.36113C4.38585 2.50295 5.47812 2.11591 6.85478 1.93083C8.19819 1.75022 9.91887 1.75023 12.1096 1.75024H12.2239C14.4146 1.75023 16.1353 1.75022 17.4787 1.93083C18.8554 2.11591 19.9476 2.50293 20.8059 3.36109C21.5975 4.15283 21.9889 5.14462 22.19 6.37712C22.3875 7.58771 22.4124 9.10784 22.4161 11.0091C22.4169 11.4233 22.0818 11.7597 21.6676 11.7605C21.2534 11.7614 20.9169 11.4262 20.9161 11.012C20.9123 9.0868 20.8843 7.68978 20.7096 6.61863C20.5384 5.56941 20.2382 4.91485 19.7452 4.42179C19.2122 3.88876 18.4892 3.58018 17.2788 3.41746C16.0469 3.25184 14.4271 3.25024 12.1667 3.25024C9.90638 3.25024 8.28654 3.25184 7.05464 3.41746M8.1687 5.24316C8.58292 5.24316 8.9187 5.57895 8.9187 5.99316V6.32768C9.70736 6.50833 10.4034 6.97345 10.7333 7.67353C10.9098 8.04823 10.7492 8.49511 10.3745 8.67165C9.99975 8.84819 9.55288 8.68755 9.37633 8.31284C9.25915 8.06413 8.83708 7.74316 8.1687 7.74316C7.76298 7.74316 7.42456 7.86744 7.20448 8.0325C6.98464 8.19739 6.9187 8.36794 6.9187 8.49318C6.9187 8.61839 6.98463 8.78894 7.20448 8.95384C7.42457 9.11891 7.76299 9.24318 8.1687 9.24318C8.86755 9.24318 9.52912 9.45471 10.0329 9.83253C10.5369 10.2105 10.9187 10.79 10.9187 11.4932C10.9187 12.1964 10.5369 12.7759 10.0329 13.1538C9.71441 13.3927 9.33286 13.5651 8.9187 13.6596V13.9932C8.9187 14.4074 8.58292 14.7432 8.1687 14.7432C7.75449 14.7432 7.4187 14.4074 7.4187 13.9932V13.6587C6.62998 13.478 5.93389 13.0129 5.60404 12.3129C5.42749 11.9381 5.58813 11.4913 5.96283 11.3147C6.33754 11.1382 6.78442 11.2988 6.96097 11.6735C7.07814 11.9222 7.5002 12.2432 8.1687 12.2432C8.57435 12.2432 8.91278 12.1189 9.13289 11.9538C9.35278 11.7889 9.4187 11.6184 9.4187 11.4932C9.4187 11.368 9.35278 11.1975 9.13289 11.0325C8.91278 10.8675 8.57435 10.7432 8.1687 10.7432C7.46981 10.7432 6.80823 10.5317 6.30447 10.1538C5.80048 9.77583 5.4187 9.19638 5.4187 8.49318C5.4187 7.78998 5.80047 7.21052 6.30447 6.83251C6.62296 6.59364 7.00452 6.42125 7.4187 6.32675V5.99316C7.4187 5.57895 7.75449 5.24316 8.1687 5.24316ZM14.219 12.9072C14.418 12.9072 14.6087 12.9863 14.7494 13.1269L15.8101 14.1877C16.103 14.4806 16.1029 14.9555 15.81 15.2484C15.5826 15.4758 15.2455 15.5266 14.969 15.4009V18.3066C14.969 19.7244 15.96 20.7498 17.4122 20.7498C17.8264 20.7498 18.1622 21.0855 18.1622 21.4998C18.1622 21.914 17.8264 22.2498 17.4122 22.2498C15.1161 22.2498 13.469 20.5372 13.469 18.3066V15.4009C13.1926 15.5266 12.8555 15.4758 12.6281 15.2484C12.3352 14.9555 12.3352 14.4806 12.628 14.1877L13.6887 13.1269C13.8293 12.9863 14.0201 12.9072 14.219 12.9072ZM16.6624 13.6572C16.6624 13.243 16.9981 12.9072 17.4124 12.9072C19.7085 12.9072 21.3555 14.6198 21.3555 16.8504V19.5109C21.632 19.3851 21.9691 19.436 22.1966 19.6634C22.4894 19.9564 22.4894 20.4312 22.1964 20.7241L21.1358 21.7845C20.8429 22.0773 20.3681 22.0773 20.0752 21.7845L19.0146 20.7241C18.7216 20.4312 18.7216 19.9564 19.0145 19.6634C19.2419 19.436 19.579 19.3851 19.8555 19.5109V16.8504C19.8555 15.4326 18.8645 14.4072 17.4124 14.4072C16.9981 14.4072 16.6624 14.0714 16.6624 13.6572Z" fill="#016BBF"/>
</svg>
