<svg width="25" height="24" viewBox="0 0 25 24" fill="none" xmlns="http://www.w3.org/2000/svg">
<path d="M8.66846 6.49634C7.56386 6.49634 6.66846 7.16791 6.66846 7.99636C6.66846 8.82476 7.56386 9.49636 8.66846 9.49636C9.77296 9.49636 10.6685 10.168 10.6685 10.9964C10.6685 11.8248 9.77296 12.4964 8.66846 12.4964M8.66846 6.49634C9.53926 6.49634 10.2801 6.91374 10.5546 7.49636M8.66846 6.49634V5.49634M8.66846 12.4964C7.79756 12.4964 7.05676 12.079 6.78226 11.4964M8.66846 12.4964V13.4964M21.1659 10.5137C21.1584 6.68727 21.06 4.67941 19.7753 3.39462C18.384 2.00342 16.1448 2.00342 11.6665 2.00342C7.18816 2.00342 4.94899 2.00342 3.55774 3.39462C2.1665 4.78592 2.1665 7.02512 2.1665 11.5034C2.1665 15.9818 2.1665 18.2209 3.55774 19.6122C4.84134 20.8958 6.84672 20.9951 10.6665 21.0028M17.6665 17.4963L18.6665 15.9963M22.1665 17.4963C22.1665 19.9816 20.1518 21.9963 17.6665 21.9963C15.1812 21.9963 13.1665 19.9816 13.1665 17.4963C13.1665 15.0111 15.1812 12.9963 17.6665 12.9963C20.1518 12.9963 22.1665 15.0111 22.1665 17.4963Z" stroke="#8A8A8A" stroke-width="1.5" stroke-linecap="round"/>
</svg>
