<svg width="25" height="24" viewBox="0 0 25 24" fill="none" xmlns="http://www.w3.org/2000/svg">
<path d="M9.87609 7.81602C10.0526 8.19072 10.4995 8.35137 10.8742 8.17483C11.2489 7.99828 11.4096 7.55141 11.233 7.1767L9.87609 7.81602ZM9.41846 5.49634C9.41846 5.08212 9.08267 4.74634 8.66846 4.74634C8.25424 4.74634 7.91846 5.08212 7.91846 5.49634H9.41846ZM7.46072 11.1767C7.28417 10.802 6.83729 10.6413 6.46259 10.8179C6.08788 10.9944 5.92725 11.4413 6.10379 11.816L7.46072 11.1767ZM7.91846 13.4964C7.91846 13.9106 8.25424 14.2464 8.66846 14.2464C9.08267 14.2464 9.41846 13.9106 9.41846 13.4964H7.91846ZM3.55774 19.6122L4.08807 19.0819L3.55774 19.6122ZM3.55774 3.39462L3.02742 2.86428L3.0274 2.8643L3.55774 3.39462ZM19.7753 3.39462L20.3057 2.86431L20.3056 2.86427L19.7753 3.39462ZM20.4159 10.5152C20.4167 10.9294 20.7531 11.2645 21.1674 11.2637C21.5816 11.2629 21.9167 10.9265 21.9159 10.5122L20.4159 10.5152ZM10.665 21.7528C11.0792 21.7536 11.4157 21.4185 11.4165 21.0043C11.4173 20.5901 11.0822 20.2536 10.668 20.2528L10.665 21.7528ZM16.1968 16.716C15.9039 16.4231 15.4291 16.4231 15.1362 16.716C14.8433 17.0089 14.8433 17.4838 15.1362 17.7767L16.1968 16.716ZM17.1665 18.7463L16.6362 19.2767C16.9291 19.5696 17.4039 19.5696 17.6968 19.2767L17.1665 18.7463ZM20.1968 16.7767C20.4897 16.4838 20.4897 16.0089 20.1968 15.716C19.9039 15.4231 19.4291 15.4231 19.1362 15.716L20.1968 16.7767ZM8.66846 5.74634C7.96957 5.74634 7.308 5.95785 6.80423 6.33568C6.30022 6.71369 5.91846 7.29315 5.91846 7.99636H7.41846C7.41846 7.87111 7.48439 7.70056 7.70424 7.53568C7.92432 7.37061 8.26274 7.24634 8.66846 7.24634V5.74634ZM5.91846 7.99636C5.91846 8.69955 6.30023 9.279 6.80423 9.657C7.30799 10.0348 7.96957 10.2464 8.66846 10.2464V8.74636C8.26275 8.74636 7.92432 8.62208 7.70424 8.45701C7.48438 8.29212 7.41846 8.12157 7.41846 7.99636H5.91846ZM8.66846 10.2464C9.07411 10.2464 9.41254 10.3706 9.63265 10.5357C9.85254 10.7006 9.91846 10.8712 9.91846 10.9964H11.4185C11.4185 10.2931 11.0366 9.71369 10.5326 9.33571C10.0289 8.95789 9.36731 8.74636 8.66846 8.74636V10.2464ZM9.91846 10.9964C9.91846 11.1215 9.85254 11.2921 9.63265 11.457C9.41254 11.6221 9.07411 11.7464 8.66846 11.7464V13.2464C9.36731 13.2464 10.0289 13.0348 10.5326 12.657C11.0366 12.279 11.4185 11.6996 11.4185 10.9964H9.91846ZM8.66846 7.24634C9.33684 7.24634 9.75891 7.56731 9.87609 7.81602L11.233 7.1767C10.8012 6.26017 9.74168 5.74634 8.66846 5.74634V7.24634ZM9.41846 6.49634V5.49634H7.91846V6.49634H9.41846ZM8.66846 11.7464C7.99995 11.7464 7.57789 11.4254 7.46072 11.1767L6.10379 11.816C6.53562 12.7325 7.59516 13.2464 8.66846 13.2464V11.7464ZM7.91846 12.4964V13.4964H9.41846V12.4964H7.91846ZM4.08807 19.0819C3.55503 18.5488 3.24644 17.8259 3.08372 16.6155C2.9181 15.3836 2.9165 13.7638 2.9165 11.5034H1.4165C1.4165 13.7214 1.41491 15.4603 1.5971 16.8154C1.78218 18.1921 2.16922 19.2843 3.02741 20.1425L4.08807 19.0819ZM2.9165 11.5034C2.9165 9.24307 2.9181 7.62324 3.08372 6.39133C3.24644 5.18099 3.55503 4.45801 4.08809 3.92494L3.0274 2.8643C2.16922 3.72252 1.78218 4.81479 1.5971 6.19146C1.41491 7.54655 1.4165 9.28547 1.4165 11.5034H2.9165ZM4.08806 3.92496C4.62111 3.39193 5.34407 3.08335 6.5544 2.92063C7.7863 2.75501 9.40613 2.75342 11.6665 2.75342V1.25342C9.44854 1.25342 7.70961 1.25183 6.35453 1.43401C4.97788 1.61909 3.88563 2.00611 3.02742 2.86428L4.08806 3.92496ZM11.6665 2.75342C13.9269 2.75342 15.5467 2.75501 16.7786 2.92063C17.9889 3.08335 18.7119 3.39193 19.245 3.92497L20.3056 2.86427C19.4474 2.0061 18.3551 1.61909 16.9785 1.43401C15.6234 1.25183 13.8845 1.25342 11.6665 1.25342V2.75342ZM19.245 3.92493C19.738 4.41799 20.0382 5.07256 20.2093 6.1218C20.3841 7.19296 20.4121 8.58998 20.4159 10.5152L21.9159 10.5122C21.9121 8.61102 21.8872 7.09088 21.6897 5.88029C21.4887 4.6478 21.0973 3.65605 20.3057 2.86431L19.245 3.92493ZM10.668 20.2528C8.74622 20.2489 7.35152 20.2206 6.28205 20.0458C5.2345 19.8745 4.58068 19.5745 4.08807 19.0819L3.02741 20.1425C3.81841 20.9335 4.80908 21.3249 6.04005 21.5261C7.24912 21.7238 8.767 21.749 10.665 21.7528L10.668 20.2528ZM21.4165 17.4963C21.4165 19.5674 19.7376 21.2463 17.6665 21.2463V22.7463C20.566 22.7463 22.9165 20.3958 22.9165 17.4963H21.4165ZM17.6665 21.2463C15.5954 21.2463 13.9165 19.5674 13.9165 17.4963H12.4165C12.4165 20.3958 14.767 22.7463 17.6665 22.7463V21.2463ZM13.9165 17.4963C13.9165 15.4253 15.5954 13.7463 17.6665 13.7463V12.2463C14.767 12.2463 12.4165 14.5968 12.4165 17.4963H13.9165ZM17.6665 13.7463C19.7376 13.7463 21.4165 15.4253 21.4165 17.4963H22.9165C22.9165 14.5968 20.566 12.2463 17.6665 12.2463V13.7463ZM15.1362 17.7767L16.6362 19.2767L17.6968 18.216L16.1968 16.716L15.1362 17.7767ZM17.6968 19.2767L20.1968 16.7767L19.1362 15.716L16.6362 18.216L17.6968 19.2767Z" fill="#8A8A8A"/>
</svg>
