<svg width="25" height="24" viewBox="0 0 25 24" fill="none" xmlns="http://www.w3.org/2000/svg">
<path d="M18.4679 13.8162L19.1718 15.2357C19.2678 15.4333 19.5238 15.6228 19.7398 15.6591L21.0156 15.8728C21.8315 16.0099 22.0235 16.6068 21.4356 17.1955L20.4437 18.1956C20.2757 18.365 20.1837 18.6916 20.2357 18.9255L20.5197 20.1635C20.7437 21.1434 20.2277 21.5225 19.3678 21.0104L18.1719 20.2966C17.956 20.1676 17.6 20.1676 17.38 20.2966L16.1842 21.0104C15.3283 21.5225 14.8083 21.1394 15.0323 20.1635L15.3163 18.9255C15.3683 18.6916 15.2763 18.365 15.1083 18.1956L14.1164 17.1955C13.5325 16.6068 13.7204 16.0099 14.5363 15.8728L15.8122 15.6591C16.0242 15.6228 16.2802 15.4333 16.3761 15.2357L17.0801 13.8162C17.464 13.046 18.0879 13.046 18.4679 13.8162Z" fill="#B3D3EC"/>
<path fill-rule="evenodd" clip-rule="evenodd" d="M17.7343 14.1689L17.0321 15.5848C16.9176 15.8188 16.7375 16.0012 16.5698 16.1266C16.4014 16.2525 16.176 16.3729 15.9218 16.4164L15.9191 16.4169L14.6437 16.6305C14.6243 16.6338 14.6066 16.6373 14.5903 16.641C14.6025 16.6549 14.6164 16.6698 14.6319 16.6854L15.6238 17.6855C15.8195 17.8829 15.937 18.1304 15.9993 18.3496C16.0616 18.5693 16.0908 18.839 16.0314 19.1063L16.0303 19.1113L15.7463 20.3493C15.7412 20.3716 15.7367 20.393 15.733 20.4131C15.7487 20.4044 15.765 20.395 15.7821 20.3849L16.9836 19.6677C17.235 19.5203 17.5179 19.4679 17.7605 19.4679C18.0023 19.4679 18.287 19.52 18.5393 19.6707L19.7346 20.3841C19.7519 20.3944 19.769 20.4041 19.785 20.4129C19.7812 20.3928 19.7768 20.3716 19.7717 20.3493L19.4865 19.1062C19.4272 18.839 19.4564 18.5693 19.5187 18.3496C19.581 18.1304 19.6984 17.8829 19.8942 17.6855L20.8861 16.6854L20.8879 16.6836C20.9029 16.6686 20.9162 16.6544 20.9281 16.641C20.9118 16.6374 20.894 16.6338 20.8747 16.6306L19.5989 16.4169C19.3434 16.3739 19.1164 16.2543 18.9461 16.1277C18.7769 16.0018 18.5965 15.8191 18.4819 15.5849L17.7783 14.1661C17.7711 14.1515 17.7641 14.138 17.7572 14.1253C17.7498 14.1386 17.742 14.1535 17.7343 14.1689ZM19.1232 13.5017C18.8804 13.01 18.4304 12.5066 17.7585 12.5066C17.0876 12.5066 16.6365 13.0088 16.3918 13.4997L15.6948 14.9053C15.6931 14.907 15.691 14.909 15.6885 14.9113C15.6836 14.9158 15.6779 14.9205 15.6716 14.9252C15.6653 14.93 15.6591 14.9341 15.6534 14.9376C15.6507 14.9392 15.6483 14.9406 15.6463 14.9417L14.3954 15.1512C13.8545 15.2421 13.2671 15.5323 13.0694 16.1564C12.8727 16.7777 13.1816 17.3533 13.5669 17.7417L14.5445 18.7274C14.5479 18.7344 14.5523 18.7454 14.5563 18.7593C14.5607 18.7747 14.5628 18.788 14.5635 18.7967L14.2843 20.0138C14.1573 20.5672 14.1487 21.3308 14.7418 21.7671C15.3388 22.2063 16.0654 21.9634 16.5523 21.672L17.7271 20.9708C17.7301 20.9702 17.7338 20.9696 17.7382 20.9691C17.745 20.9683 17.7526 20.9679 17.7605 20.9679C17.7684 20.9679 17.7758 20.9683 17.7823 20.9691C17.7851 20.9694 17.7876 20.9698 17.7897 20.9701L18.9664 21.6724C19.4517 21.9615 20.1797 22.2081 20.7774 21.7689C21.3719 21.3319 21.3599 20.5659 21.2339 20.0145L20.9545 18.7968C20.9552 18.788 20.9573 18.7747 20.9617 18.7593C20.9657 18.7454 20.9701 18.7344 20.9735 18.7274L21.9493 17.7436L21.9503 17.7425C22.3379 17.3539 22.6481 16.7775 22.4496 16.1551C22.2509 15.5316 21.6631 15.242 21.1229 15.1513L19.8678 14.941C19.8655 14.9398 19.8627 14.9382 19.8595 14.9363C19.8539 14.9329 19.8477 14.9288 19.8415 14.9242C19.8352 14.9196 19.8296 14.9149 19.8248 14.9105C19.8226 14.9085 19.8206 14.9066 19.819 14.905L19.1232 13.5017Z" fill="#016BBF"/>
<path fill-rule="evenodd" clip-rule="evenodd" d="M4.49312 4.42176C5.02616 3.88875 5.74911 3.58017 6.95943 3.41746L4.49312 4.42176ZM4.49312 4.42176C3.96008 4.95484 3.65147 5.67783 3.48875 6.88815C3.32313 8.12006 3.32153 9.73989 3.32153 12.0002C3.32153 14.2606 3.32313 15.8805 3.48875 17.1124C3.65147 18.3227 3.96006 19.0456 4.4931 19.5787C4.98571 20.0713 5.63953 20.3714 6.68708 20.5426C7.75655 20.7174 9.15125 20.7458 11.073 20.7496C11.4873 20.7505 11.8224 21.0869 11.8215 21.5011C11.8207 21.9153 11.4842 22.2505 11.07 22.2496C9.17202 22.2458 7.65415 22.2206 6.44508 22.023C5.2141 21.8217 4.22344 21.4303 3.43244 20.6393C2.57425 19.7811 2.18721 18.6889 2.00213 17.3122C1.82151 15.9688 1.82152 14.2481 1.82153 12.0574V11.9431C1.82152 9.75239 1.82151 8.03171 2.00213 6.68828C2.18721 5.31162 2.57424 4.21935 3.43243 3.36113C4.29063 2.50295 5.38291 2.11591 6.75956 1.93083C8.10298 1.75022 9.82366 1.75023 12.0144 1.75024H12.1287C14.3194 1.75023 16.0401 1.75022 17.3835 1.93083C18.7602 2.11591 19.8524 2.50293 20.7106 3.36109C21.5023 4.15283 21.8937 5.14462 22.0948 6.37712C22.2923 7.58771 22.3172 9.10784 22.3209 11.0091C22.3217 11.4233 21.9866 11.7597 21.5724 11.7605C21.1582 11.7614 20.8217 11.4262 20.8209 11.012C20.8171 9.0868 20.7891 7.68978 20.6143 6.61863C20.4432 5.56941 20.143 4.91485 19.65 4.42179C19.1169 3.88876 18.394 3.58018 17.1836 3.41746C15.9517 3.25184 14.3319 3.25024 12.0715 3.25024C9.81116 3.25024 8.19133 3.25184 6.95943 3.41746M8.07349 5.24316C8.4877 5.24316 8.82349 5.57895 8.82349 5.99316V6.32768C9.61215 6.50833 10.3082 6.97345 10.6381 7.67353C10.8146 8.04823 10.654 8.49511 10.2792 8.67165C9.90454 8.84819 9.45766 8.68755 9.28112 8.31284C9.16394 8.06413 8.74187 7.74316 8.07349 7.74316C7.66777 7.74316 7.32935 7.86744 7.10927 8.0325C6.88942 8.19739 6.82349 8.36794 6.82349 8.49318C6.82349 8.61839 6.88941 8.78894 7.10927 8.95384C7.32935 9.11891 7.66778 9.24318 8.07349 9.24318C8.77234 9.24318 9.43391 9.45471 9.93767 9.83253C10.4417 10.2105 10.8235 10.79 10.8235 11.4932C10.8235 12.1964 10.4417 12.7759 9.93767 13.1538C9.61919 13.3927 9.23765 13.5651 8.82349 13.6596V13.9932C8.82349 14.4074 8.4877 14.7432 8.07349 14.7432C7.65927 14.7432 7.32349 14.4074 7.32349 13.9932V13.6587C6.53477 13.478 5.83868 13.0129 5.50882 12.3129C5.33228 11.9381 5.49291 11.4913 5.86762 11.3147C6.24232 11.1382 6.6892 11.2988 6.86575 11.6735C6.98292 11.9222 7.40498 12.2432 8.07349 12.2432C8.47914 12.2432 8.81757 12.1189 9.03768 11.9538C9.25757 11.7889 9.32349 11.6184 9.32349 11.4932C9.32349 11.368 9.25757 11.1975 9.03768 11.0325C8.81757 10.8675 8.47914 10.7432 8.07349 10.7432C7.3746 10.7432 6.71302 10.5317 6.20926 10.1538C5.70526 9.77583 5.32349 9.19638 5.32349 8.49318C5.32349 7.78998 5.70525 7.21052 6.20926 6.83251C6.52774 6.59364 6.9093 6.42125 7.32349 6.32675V5.99316C7.32349 5.57895 7.65927 5.24316 8.07349 5.24316Z" fill="#016BBF"/>
</svg>
