<svg width="25" height="24" viewBox="0 0 25 24" fill="none" xmlns="http://www.w3.org/2000/svg">
<path fill-rule="evenodd" clip-rule="evenodd" d="M7.05464 3.41746C5.84433 3.58017 5.12138 3.88875 4.58833 4.42176C4.58832 4.42177 4.58834 4.42176 4.58833 4.42176M4.58833 4.42176C4.05529 4.95484 3.74669 5.67783 3.58397 6.88815C3.41834 8.12006 3.41675 9.73989 3.41675 12.0002C3.41675 14.2606 3.41834 15.8805 3.58397 17.1124C3.74669 18.3227 4.05528 19.0456 4.58832 19.5787C5.08092 20.0713 5.73474 20.3714 6.7823 20.5426C7.85176 20.7174 9.24647 20.7458 11.1683 20.7496C11.5825 20.7505 11.9176 21.0869 11.9167 21.5011C11.9159 21.9153 11.5795 22.2505 11.1652 22.2496C9.26724 22.2458 7.74936 22.2206 6.5403 22.023C5.30932 21.8217 4.31865 21.4303 3.52766 20.6393C2.66946 19.7811 2.28243 18.6889 2.09734 17.3122C1.91672 15.9688 1.91673 14.2481 1.91675 12.0574V11.9431C1.91673 9.75239 1.91672 8.03171 2.09734 6.68828C2.28243 5.31162 2.66946 4.21935 3.52765 3.36113C4.38585 2.50295 5.47812 2.11591 6.85478 1.93083C8.19819 1.75022 9.91887 1.75023 12.1096 1.75024H12.2239C14.4146 1.75023 16.1353 1.75022 17.4787 1.93083C18.8554 2.11591 19.9476 2.50293 20.8059 3.36109C21.5975 4.15283 21.9889 5.14462 22.19 6.37712C22.3875 7.58771 22.4124 9.10784 22.4161 11.0091C22.4169 11.4233 22.0818 11.7597 21.6676 11.7605C21.2534 11.7614 20.9169 11.4262 20.9161 11.012C20.9123 9.0868 20.8843 7.68978 20.7096 6.61863C20.5384 5.56941 20.2382 4.91485 19.7452 4.42179C19.2122 3.88876 18.4892 3.58018 17.2788 3.41746C16.0469 3.25184 14.4271 3.25024 12.1667 3.25024C9.90638 3.25024 8.28654 3.25184 7.05464 3.41746M8.1687 5.24316C8.58292 5.24316 8.9187 5.57895 8.9187 5.99316V6.32768C9.70736 6.50833 10.4034 6.97345 10.7333 7.67353C10.9098 8.04823 10.7492 8.49511 10.3745 8.67165C9.99975 8.84819 9.55288 8.68755 9.37633 8.31284C9.25915 8.06413 8.83708 7.74316 8.1687 7.74316C7.76298 7.74316 7.42456 7.86744 7.20448 8.0325C6.98464 8.19739 6.9187 8.36794 6.9187 8.49318C6.9187 8.61839 6.98463 8.78894 7.20448 8.95384C7.42457 9.11891 7.76299 9.24318 8.1687 9.24318C8.86755 9.24318 9.52912 9.45471 10.0329 9.83253C10.5369 10.2105 10.9187 10.79 10.9187 11.4932C10.9187 12.1964 10.5369 12.7759 10.0329 13.1538C9.71441 13.3927 9.33286 13.5651 8.9187 13.6596V13.9932C8.9187 14.4074 8.58292 14.7432 8.1687 14.7432C7.75449 14.7432 7.4187 14.4074 7.4187 13.9932V13.6587C6.62998 13.478 5.93389 13.0129 5.60404 12.3129C5.42749 11.9381 5.58813 11.4913 5.96283 11.3147C6.33754 11.1382 6.78442 11.2988 6.96097 11.6735C7.07814 11.9222 7.5002 12.2432 8.1687 12.2432C8.57435 12.2432 8.91278 12.1189 9.13289 11.9538C9.35278 11.7889 9.4187 11.6184 9.4187 11.4932C9.4187 11.368 9.35278 11.1975 9.13289 11.0325C8.91278 10.8675 8.57435 10.7432 8.1687 10.7432C7.46981 10.7432 6.80823 10.5317 6.30447 10.1538C5.80048 9.77583 5.4187 9.19638 5.4187 8.49318C5.4187 7.78998 5.80047 7.21052 6.30447 6.83251C6.62296 6.59364 7.00452 6.42125 7.4187 6.32675V5.99316C7.4187 5.57895 7.75449 5.24316 8.1687 5.24316ZM15.6661 14.7432C14.9758 14.7432 14.4161 15.3028 14.4161 15.9932V19.3194C14.4161 19.9673 14.418 20.3705 14.457 20.6447C14.4612 20.6746 14.4656 20.7002 14.4698 20.722C14.4734 20.7209 14.4771 20.7197 14.4809 20.7185C14.628 20.6702 14.8257 20.5634 15.0693 20.397C15.3068 20.2346 15.5476 20.044 15.7864 19.853C15.8028 19.8399 15.8193 19.8267 15.836 19.8134C16.045 19.6461 16.2718 19.4646 16.4618 19.3408L16.4861 19.325C16.6582 19.2128 16.8327 19.0991 16.9924 19.0177C17.1753 18.9245 17.3975 18.8416 17.6661 18.8416C17.9347 18.8416 18.1569 18.9245 18.3398 19.0177C18.4996 19.0991 18.674 19.2128 18.8461 19.325L18.8704 19.3408C19.0604 19.4645 19.2872 19.6461 19.4963 19.8134C19.5129 19.8267 19.5295 19.8399 19.5458 19.853C19.7847 20.044 20.0255 20.2346 20.263 20.397C20.5065 20.5634 20.7042 20.6702 20.8514 20.7185C20.8552 20.7197 20.8589 20.7209 20.8625 20.722C20.8667 20.7002 20.871 20.6746 20.8753 20.6447C20.9143 20.3705 20.9161 19.9673 20.9161 19.3194V15.9932C20.9161 15.3028 20.3565 14.7432 19.6661 14.7432H15.6661ZM12.9161 15.9932C12.9161 14.4744 14.1473 13.2432 15.6661 13.2432H19.6661C21.1849 13.2432 22.4161 14.4744 22.4161 15.9932L22.4161 19.3734C22.4162 19.9505 22.4162 20.4629 22.3604 20.8559C22.3032 21.2578 22.1577 21.7722 21.6549 22.0627C21.2037 22.3233 20.7261 22.2561 20.3834 22.1436C20.036 22.0295 19.7008 21.8296 19.4166 21.6353C19.1263 21.437 18.8444 21.2127 18.6092 21.0247L18.5973 21.0152C18.3518 20.8189 18.178 20.6799 18.0518 20.5977C17.8514 20.4672 17.7451 20.3991 17.6661 20.358C17.5871 20.3991 17.4809 20.4672 17.2804 20.5977C17.1543 20.6799 16.9804 20.8189 16.7349 21.0152L16.7231 21.0247C16.4878 21.2127 16.2059 21.437 15.9157 21.6353C15.6314 21.8296 15.2962 22.0295 14.9489 22.1436C14.6062 22.2561 14.1286 22.3233 13.6774 22.0627C13.1746 21.7723 13.0291 21.2578 12.9719 20.8559C12.916 20.4629 12.9161 19.9505 12.9161 19.3734L12.9161 15.9932Z" fill="#8A8A8A"/>
</svg>
