<svg width="28" height="28" viewBox="0 0 28 28" fill="none" xmlns="http://www.w3.org/2000/svg">
<path d="M2.33337 14.2503L6.22136 14.5478L6.86191 6.1801L2.33337 5.8335V14.2503Z" fill="#016BBF"/>
<path fill-rule="evenodd" clip-rule="evenodd" d="M2.33337 16.9999L8.00285 17.4338C8.00285 17.4338 8.18234 14.8015 10.8676 15.0071C13.3561 15.1977 13.3886 17.8627 13.3886 17.8627L13.8472 17.9088C13.8472 17.9088 14.2712 17.9027 14.3014 17.509L14.6141 13.4235L13.2992 9.18614L7.68731 8.33292L7.16399 15.1694L2.33337 14.7995V16.9999ZM13.8266 13.3633L9.6148 12.6173L9.84045 9.66947L12.8843 10.15L13.8266 13.3633Z" fill="#016BBF"/>
<path fill-rule="evenodd" clip-rule="evenodd" d="M25.6667 9.92442L20.3683 10.7054L15.9183 14.7124L16.4017 17.9923L18.0029 18.8737C17.769 18.581 17.6074 18.2235 17.5484 17.8235C17.3755 16.6502 18.194 15.5486 19.3673 15.3757C20.5407 15.2028 21.6422 16.0213 21.8151 17.1946C21.8741 17.5946 21.8224 17.9837 21.6829 18.3311L25.6667 17.744V12.7307L24.0531 12.9686L23.7308 10.782L25.6667 10.4966V9.92442ZM23.1975 10.8606L23.5197 13.0472L19.1464 13.6918L21.0108 11.1827L23.1975 10.8606Z" fill="#016BBF"/>
<path fill-rule="evenodd" clip-rule="evenodd" d="M19.4687 15.8785C18.562 16.0122 17.9521 16.8649 18.0818 17.745C18.2115 18.6248 19.0682 19.2616 19.9482 19.1319C20.8549 18.9982 21.4648 18.1455 21.3351 17.2655C21.2054 16.3854 20.3754 15.7448 19.4687 15.8785ZM19.5945 16.7318C20.0212 16.669 20.4189 16.9644 20.4818 17.391C20.5447 17.8179 20.2491 18.2157 19.8224 18.2784C19.3958 18.3415 18.998 18.0458 18.9351 17.6192C18.8722 17.1925 19.1678 16.7948 19.5945 16.7318Z" fill="#016BBF"/>
<path fill-rule="evenodd" clip-rule="evenodd" d="M10.5011 19.831C9.305 19.7393 8.4096 18.6954 8.50115 17.4994C8.59272 16.3031 9.63658 15.4079 10.8327 15.4993C12.0288 15.5909 12.9242 16.6348 12.8327 17.8308C12.7411 19.0271 11.6972 19.9224 10.5011 19.831ZM11.6964 17.744C11.6528 18.3129 11.1562 18.739 10.5872 18.6954C10.0182 18.6516 9.59216 18.1551 9.63572 17.5862C9.67927 17.0171 10.1759 16.591 10.7449 16.6348C11.3139 16.6783 11.7399 17.1748 11.6964 17.744Z" fill="#016BBF"/>
<path d="M16.7275 9.44047L18.3084 7.35956L17.7367 9.25033C17.6644 9.48946 17.9089 9.70175 18.1355 9.59655L19.4602 8.98208L17.6916 11.0063C17.631 11.0755 17.6381 11.1808 17.7074 11.2414C17.7767 11.302 17.882 11.2949 17.9425 11.2255L19.8475 9.04537C20.0531 8.81004 19.7913 8.46103 19.5078 8.59256L18.0842 9.25298L18.6981 7.22233C18.7914 6.91345 18.3858 6.7066 18.1906 6.96345L16.5222 9.15969L16.194 7.38728C16.1314 7.04941 15.637 7.08283 15.6204 7.42602L15.5037 9.83239L14.5623 8.70269C14.356 8.45508 13.9604 8.6794 14.0669 8.9836L14.8325 11.171C14.8629 11.2578 14.9579 11.3036 15.0448 11.2733C15.1317 11.2429 15.1775 11.1478 15.1471 11.0608L14.4617 9.10259L15.3198 10.1324C15.4887 10.335 15.8184 10.2246 15.8312 9.96114L15.935 7.81946L16.2126 9.31805C16.2583 9.56516 16.5755 9.64048 16.7275 9.44047Z" fill="#016BBF"/>
</svg>
