<svg width="20" height="20" viewBox="0 0 20 20" fill="none" xmlns="http://www.w3.org/2000/svg">
<path d="M10 1.66666C5.40833 1.66666 1.66666 5.40832 1.66666 9.99999C1.66666 14.5917 5.40833 18.3333 10 18.3333C14.5917 18.3333 18.3333 14.5917 18.3333 9.99999C18.3333 5.40832 14.5917 1.66666 10 1.66666ZM13.3333 10.625H10.625V13.3333C10.625 13.675 10.3417 13.9583 10 13.9583C9.65833 13.9583 9.375 13.675 9.375 13.3333V10.625H6.66666C6.325 10.625 6.04166 10.3417 6.04166 9.99999C6.04166 9.65832 6.325 9.37499 6.66666 9.37499H9.375V6.66666C9.375 6.32499 9.65833 6.04166 10 6.04166C10.3417 6.04166 10.625 6.32499 10.625 6.66666V9.37499H13.3333C13.675 9.37499 13.9583 9.65832 13.9583 9.99999C13.9583 10.3417 13.675 10.625 13.3333 10.625Z" fill="white"/>
</svg>
