<svg width="18" height="18" viewBox="0 0 18 18" fill="none" xmlns="http://www.w3.org/2000/svg">
<path d="M9.00033 0.666748C4.40866 0.666748 0.666992 4.40841 0.666992 9.00008C0.666992 13.5917 4.40866 17.3334 9.00033 17.3334C13.592 17.3334 17.3337 13.5917 17.3337 9.00008C17.3337 4.40841 13.592 0.666748 9.00033 0.666748ZM12.3337 9.62508H9.62533V12.3334C9.62533 12.6751 9.34199 12.9584 9.00033 12.9584C8.65866 12.9584 8.37533 12.6751 8.37533 12.3334V9.62508H5.66699C5.32533 9.62508 5.04199 9.34175 5.04199 9.00008C5.04199 8.65842 5.32533 8.37508 5.66699 8.37508H8.37533V5.66675C8.37533 5.32508 8.65866 5.04175 9.00033 5.04175C9.34199 5.04175 9.62533 5.32508 9.62533 5.66675V8.37508H12.3337C12.6753 8.37508 12.9587 8.65842 12.9587 9.00008C12.9587 9.34175 12.6753 9.62508 12.3337 9.62508Z" fill="#016BBF"/>
</svg>
