<svg width="25" height="24" viewBox="0 0 25 24" fill="none" xmlns="http://www.w3.org/2000/svg">
<circle cx="11.2299" cy="8.00671" r="1.79602" fill="#B3D3EC"/>
<path fill-rule="evenodd" clip-rule="evenodd" d="M14.1467 8C14.1467 9.65685 12.7856 11 11.1067 11C9.42772 11 8.06667 9.65685 8.06667 8C8.06667 6.34315 9.42772 5 11.1067 5C12.7856 5 14.1467 6.34315 14.1467 8ZM12.6267 8C12.6267 8.82843 11.9461 9.5 11.1067 9.5C10.2672 9.5 9.58667 8.82843 9.58667 8C9.58667 7.17157 10.2672 6.5 11.1067 6.5C11.9461 6.5 12.6267 7.17157 12.6267 8Z" fill="#016BBF"/>
<path fill-rule="evenodd" clip-rule="evenodd" d="M17.1867 8C17.1867 11.3137 14.4646 14 11.1067 14C7.74878 14 5.02667 11.3137 5.02667 8C5.02667 4.68629 7.74878 2 11.1067 2C14.4646 2 17.1867 4.68629 17.1867 8ZM15.6667 8C15.6667 10.4853 13.6251 12.5 11.1067 12.5C8.58825 12.5 6.54667 10.4853 6.54667 8C6.54667 5.51472 8.58825 3.5 11.1067 3.5C13.6251 3.5 15.6667 5.51472 15.6667 8Z" fill="#016BBF"/>
<path fill-rule="evenodd" clip-rule="evenodd" d="M19.2133 17.25V16C19.2133 14.8954 18.306 14 17.1867 14H11.1067H5.02667C3.90737 14 3 14.8954 3 16V20C3 21.1046 3.90737 22 5.02667 22H17.1867C18.306 22 19.2133 21.1046 19.2133 20V18.75C20.7524 18.75 22 17.5188 22 16V13C22 12.0335 21.2061 11.25 20.2267 11.25C19.8069 11.25 19.4667 11.5858 19.4667 12C19.4667 12.4142 19.8069 12.75 20.2267 12.75C20.3666 12.75 20.48 12.8619 20.48 13V16C20.48 16.6904 19.9129 17.25 19.2133 17.25ZM17.6933 16C17.6933 15.7239 17.4665 15.5 17.1867 15.5H5.02667C4.74684 15.5 4.52 15.7239 4.52 16V20C4.52 20.2761 4.74684 20.5 5.02667 20.5H17.1867C17.4665 20.5 17.6933 20.2761 17.6933 20V16Z" fill="#016BBF"/>
</svg>
