<svg width="25" height="25" viewBox="0 0 25 25" fill="none" xmlns="http://www.w3.org/2000/svg">
<path fill-rule="evenodd" clip-rule="evenodd" d="M2.75 3.35645C2.75 2.94223 3.08579 2.60645 3.5 2.60645H21.5C21.9142 2.60645 22.25 2.94223 22.25 3.35645C22.25 3.77066 21.9142 4.10645 21.5 4.10645H17.25V6.60645H18.5C19.6046 6.60645 20.5 7.50188 20.5 8.60645V9.60645C20.5 10.711 19.6046 11.6064 18.5 11.6064H16.9573L15.6674 15.4761C15.2931 16.599 14.2423 17.3564 13.0586 17.3564H11.9416C10.7579 17.3564 9.70704 16.599 9.33273 15.4761L8.04285 11.6064H6.5C5.39543 11.6064 4.5 10.711 4.5 9.60645V8.60645C4.5 7.50188 5.39543 6.60645 6.5 6.60645H7.75V4.10645H3.5C3.08579 4.10645 2.75 3.77066 2.75 3.35645ZM9.25 6.60645H15.75V4.10645H9.25V6.60645ZM9.62399 11.6064L10.7558 15.0017C10.9259 15.5122 11.4036 15.8564 11.9416 15.8564H13.0586C13.5966 15.8564 14.0743 15.5122 14.2444 15.0017L15.3762 11.6064H9.62399ZM6.5 8.10645H18.5C18.7761 8.10645 19 8.3303 19 8.60645V9.60645C19 9.88259 18.7761 10.1064 18.5 10.1064H6.5C6.22386 10.1064 6 9.88259 6 9.60645V8.60645C6 8.3303 6.22386 8.10645 6.5 8.10645Z" fill="#8A8A8A"/>
<path d="M12.5 18.8564C12.9142 18.8564 13.25 19.1922 13.25 19.6064V22.6064C13.25 23.0207 12.9142 23.3564 12.5 23.3564C12.0858 23.3564 11.75 23.0207 11.75 22.6064V19.6064C11.75 19.1922 12.0858 18.8564 12.5 18.8564Z" fill="#8A8A8A"/>
<path d="M9.17435 19.2561C9.53307 19.049 9.65598 18.5903 9.44887 18.2316C9.24177 17.8728 8.78307 17.7499 8.42435 17.957L5.82628 19.457C5.46756 19.6641 5.34465 20.1228 5.55176 20.4816C5.75886 20.8403 6.21756 20.9632 6.57628 20.7561L9.17435 19.2561Z" fill="#8A8A8A"/>
<path d="M15.5517 18.2316C15.3446 18.5903 15.4675 19.049 15.8262 19.2561L18.4243 20.7561C18.783 20.9632 19.2417 20.8403 19.4488 20.4816C19.6559 20.1228 19.533 19.6641 19.1743 19.457L16.5762 17.957C16.2175 17.7499 15.7588 17.8728 15.5517 18.2316Z" fill="#8A8A8A"/>
</svg>
