<svg width="25" height="25" viewBox="0 0 25 25" fill="none" xmlns="http://www.w3.org/2000/svg">
<rect x="9.62061" y="10.4846" width="5.81519" height="11.0491" fill="#B3D3EC"/>
<path fill-rule="evenodd" clip-rule="evenodd" d="M3.75 5.48169C3.75 4.23905 4.75736 3.23169 6 3.23169H19C20.2426 3.23169 21.25 4.23905 21.25 5.48169C21.25 6.72433 20.2426 7.73169 19 7.73169H13.25V9.23169H13.5C15.0188 9.23169 16.25 10.4629 16.25 11.9817V12.2317H22.5C22.9142 12.2317 23.25 12.5675 23.25 12.9817C23.25 13.3959 22.9142 13.7317 22.5 13.7317H16.25V18.2317H22.5C22.9142 18.2317 23.25 18.5675 23.25 18.9817C23.25 19.3959 22.9142 19.7317 22.5 19.7317H16.25V19.9817C16.25 21.5005 15.0188 22.7317 13.5 22.7317H11.5C9.98122 22.7317 8.75 21.5005 8.75 19.9817V19.7317H2.5C2.08579 19.7317 1.75 19.3959 1.75 18.9817C1.75 18.5675 2.08579 18.2317 2.5 18.2317H8.75V13.7317H2.5C2.08579 13.7317 1.75 13.3959 1.75 12.9817C1.75 12.5675 2.08579 12.2317 2.5 12.2317H8.75V11.9817C8.75 10.4629 9.98122 9.23169 11.5 9.23169H11.75V7.73169H6C4.75736 7.73169 3.75 6.72433 3.75 5.48169ZM19 6.23169C19.4142 6.23169 19.75 5.8959 19.75 5.48169C19.75 5.06748 19.4142 4.73169 19 4.73169H6C5.58579 4.73169 5.25 5.06748 5.25 5.48169C5.25 5.8959 5.58579 6.23169 6 6.23169H19ZM11.5 10.7317C10.8096 10.7317 10.25 11.2913 10.25 11.9817V19.9817C10.25 20.672 10.8096 21.2317 11.5 21.2317H13.5C14.1904 21.2317 14.75 20.672 14.75 19.9817V11.9817C14.75 11.2913 14.1904 10.7317 13.5 10.7317H11.5Z" fill="#016BBF"/>
</svg>
