<svg width="25" height="25" viewBox="0 0 25 25" fill="none" xmlns="http://www.w3.org/2000/svg">
<path d="M9.58076 15.5773L12.4692 18.029L14.9545 16.4171L15.3911 13.4615L12.4692 12.2188L9.3457 13.4615L9.58076 15.5773Z" fill="#B3D3EC"/>
<path fill-rule="evenodd" clip-rule="evenodd" d="M7.5 3.23169C5.98122 3.23169 4.75 4.46291 4.75 5.98169V21.2317H3.5C3.08579 21.2317 2.75 21.5675 2.75 21.9817C2.75 22.3959 3.08579 22.7317 3.5 22.7317H7.5C7.91421 22.7317 8.25 22.3959 8.25 21.9817C8.25 21.5675 7.91421 21.2317 7.5 21.2317H6.25V8.98169H18.75V21.2317H17.5C17.0858 21.2317 16.75 21.5675 16.75 21.9817C16.75 22.3959 17.0858 22.7317 17.5 22.7317H21.5C21.9142 22.7317 22.25 22.3959 22.25 21.9817C22.25 21.5675 21.9142 21.2317 21.5 21.2317H20.25V5.98169C20.25 4.46291 19.0188 3.23169 17.5 3.23169H7.5ZM18.75 7.48169H6.25V5.98169C6.25 5.29133 6.80964 4.73169 7.5 4.73169H17.5C18.1904 4.73169 18.75 5.29133 18.75 5.98169V7.48169Z" fill="#016BBF"/>
<path fill-rule="evenodd" clip-rule="evenodd" d="M12.9971 11.4764C12.7133 11.2253 12.2869 11.2253 12.0031 11.4764C11.3705 12.0361 10.5448 12.3275 9.70106 12.2889C9.35593 12.2731 9.04466 12.4951 8.94722 12.8266C8.76767 13.4373 8.71274 14.078 8.78567 14.7104C8.85861 15.3428 9.05793 15.9541 9.37179 16.508C9.68565 17.0619 10.1076 17.547 10.6127 17.9346C11.1178 18.3221 11.6956 18.6042 12.3118 18.7641C12.4353 18.7961 12.5649 18.7961 12.6884 18.7641C13.3046 18.6042 13.8825 18.3221 14.3875 17.9346C14.8926 17.547 15.3146 17.0619 15.6284 16.508C15.9423 15.9541 16.1416 15.3428 16.2145 14.7104C16.2875 14.078 16.2325 13.4373 16.053 12.8266C15.9556 12.4951 15.6443 12.2731 15.2992 12.2889C14.4554 12.3275 13.6297 12.0361 12.9971 11.4764ZM10.2758 14.5386C10.2464 14.2835 10.2474 14.0265 10.2783 13.7729C11.0732 13.7009 11.8376 13.4295 12.5001 12.984C13.1626 13.4295 13.927 13.7009 14.7219 13.7729C14.7529 14.0265 14.7538 14.2835 14.7244 14.5386C14.6745 14.9713 14.5381 15.3895 14.3234 15.7685C14.1086 16.1475 13.8199 16.4794 13.4743 16.7446C13.1807 16.9699 12.8512 17.1431 12.5001 17.2572C12.149 17.1431 11.8195 16.9699 11.5259 16.7446C11.1803 16.4794 10.8916 16.1475 10.6768 15.7685C10.4621 15.3895 10.3257 14.9713 10.2758 14.5386Z" fill="#016BBF"/>
</svg>
