<svg width="25" height="25" viewBox="0 0 25 25" fill="none" xmlns="http://www.w3.org/2000/svg">
<path fill-rule="evenodd" clip-rule="evenodd" d="M3.75 5.48145C3.75 4.2388 4.75736 3.23145 6 3.23145H19C20.2426 3.23145 21.25 4.2388 21.25 5.48145C21.25 6.72409 20.2426 7.73145 19 7.73145H13.25V9.23145H13.5C15.0188 9.23145 16.25 10.4627 16.25 11.9814V12.2314H22.5C22.9142 12.2314 23.25 12.5672 23.25 12.9814C23.25 13.3957 22.9142 13.7314 22.5 13.7314H16.25V18.2314H22.5C22.9142 18.2314 23.25 18.5672 23.25 18.9814C23.25 19.3957 22.9142 19.7314 22.5 19.7314H16.25V19.9814C16.25 21.5002 15.0188 22.7314 13.5 22.7314H11.5C9.98122 22.7314 8.75 21.5002 8.75 19.9814V19.7314H2.5C2.08579 19.7314 1.75 19.3957 1.75 18.9814C1.75 18.5672 2.08579 18.2314 2.5 18.2314H8.75V13.7314H2.5C2.08579 13.7314 1.75 13.3957 1.75 12.9814C1.75 12.5672 2.08579 12.2314 2.5 12.2314H8.75V11.9814C8.75 10.4627 9.98122 9.23145 11.5 9.23145H11.75V7.73145H6C4.75736 7.73145 3.75 6.72409 3.75 5.48145ZM19 6.23145C19.4142 6.23145 19.75 5.89566 19.75 5.48145C19.75 5.06723 19.4142 4.73145 19 4.73145H6C5.58579 4.73145 5.25 5.06723 5.25 5.48145C5.25 5.89566 5.58579 6.23145 6 6.23145H19ZM11.5 10.7314C10.8096 10.7314 10.25 11.2911 10.25 11.9814V19.9814C10.25 20.6718 10.8096 21.2314 11.5 21.2314H13.5C14.1904 21.2314 14.75 20.6718 14.75 19.9814V11.9814C14.75 11.2911 14.1904 10.7314 13.5 10.7314H11.5Z" fill="#8A8A8A"/>
</svg>
