<svg width="25" height="24" viewBox="0 0 25 24" fill="none" xmlns="http://www.w3.org/2000/svg">
<rect x="7.29761" y="12.8821" width="3.51685" height="4.9856" fill="#B3D3EC"/>
<rect x="14.3582" y="12.8821" width="3.51685" height="4.9856" fill="#B3D3EC"/>
<path d="M7.91383 8.3968C7.91383 5.8639 9.96714 3.81059 12.5 3.81059C15.0329 3.81059 17.0862 5.8639 17.0862 8.3968H18.3966C18.3966 5.14022 15.7566 2.50024 12.5 2.50024C9.24346 2.50024 6.60348 5.14022 6.60348 8.3968H7.91383Z" fill="#016BBF"/>
<path d="M12.5 6.43128C11.4145 6.43128 10.5345 7.31127 10.5345 8.3968H9.22417C9.22417 6.58759 10.6908 5.12093 12.5 5.12093C14.3092 5.12093 15.7759 6.58759 15.7759 8.3968H14.4656C14.4656 7.31127 13.5856 6.43128 12.5 6.43128Z" fill="#016BBF"/>
<path fill-rule="evenodd" clip-rule="evenodd" d="M6.38509 13.6382C6.38509 12.6733 7.16731 11.891 8.13222 11.891H9.87935C10.8443 11.891 11.6265 12.6733 11.6265 13.6382V17.1324C11.6265 18.0973 10.8443 18.8796 9.87935 18.8796H8.13222C7.16731 18.8796 6.38509 18.0973 6.38509 17.1324V13.6382ZM8.13222 13.2014H9.87935C10.1206 13.2014 10.3161 13.3969 10.3161 13.6382V17.1324C10.3161 17.3737 10.1206 17.5692 9.87935 17.5692H8.13222C7.89099 17.5692 7.69544 17.3737 7.69544 17.1324V13.6382C7.69544 13.3969 7.89099 13.2014 8.13222 13.2014Z" fill="#016BBF"/>
<path fill-rule="evenodd" clip-rule="evenodd" d="M13.3736 13.6382C13.3736 12.6733 14.1558 11.891 15.1207 11.891H16.8679C17.8328 11.891 18.615 12.6733 18.615 13.6382V17.1324C18.615 18.0973 17.8328 18.8796 16.8679 18.8796H15.1207C14.1558 18.8796 13.3736 18.0973 13.3736 17.1324V13.6382ZM15.1207 13.2014H16.8679C17.1091 13.2014 17.3046 13.3969 17.3046 13.6382V17.1324C17.3046 17.3737 17.1091 17.5692 16.8679 17.5692H15.1207C14.8795 17.5692 14.6839 17.3737 14.6839 17.1324V13.6382C14.6839 13.3969 14.8795 13.2014 15.1207 13.2014Z" fill="#016BBF"/>
<path d="M13.8104 9.27036C13.8104 9.99404 13.2237 10.5807 12.5 10.5807C11.7764 10.5807 11.1897 9.99404 11.1897 9.27036C11.1897 8.54668 11.7764 7.96001 12.5 7.96001C13.2237 7.96001 13.8104 8.54668 13.8104 9.27036Z" fill="#016BBF"/>
<path d="M15.1207 9.27036C15.1207 9.7477 14.9931 10.1952 14.7701 10.5807H17.7414C18.9476 10.5807 19.9253 11.5585 19.9253 12.7646V18.006C19.9253 19.2121 18.9476 20.1899 17.7414 20.1899H7.25866C6.05252 20.1899 5.07475 19.2121 5.07475 18.006V12.7646C5.07475 11.5585 6.05252 10.5807 7.25866 10.5807H10.2299C10.007 10.1952 9.87935 9.7477 9.87935 9.27036H7.25866C5.32883 9.27036 3.7644 10.8348 3.7644 12.7646V18.006C3.7644 19.9358 5.32883 21.5002 7.25866 21.5002H17.7414C19.6712 21.5002 21.2357 19.9358 21.2357 18.006V12.7646C21.2357 10.8348 19.6712 9.27036 17.7414 9.27036H15.1207Z" fill="#016BBF"/>
</svg>
