<svg width="25" height="25" viewBox="0 0 25 25" fill="none" xmlns="http://www.w3.org/2000/svg">
<path fill-rule="evenodd" clip-rule="evenodd" d="M7.5 3.23145C5.98122 3.23145 4.75 4.46266 4.75 5.98145V21.2314H3.5C3.08579 21.2314 2.75 21.5672 2.75 21.9814C2.75 22.3957 3.08579 22.7314 3.5 22.7314H7.5C7.91421 22.7314 8.25 22.3957 8.25 21.9814C8.25 21.5672 7.91421 21.2314 7.5 21.2314H6.25V8.98145H18.75V21.2314H17.5C17.0858 21.2314 16.75 21.5672 16.75 21.9814C16.75 22.3957 17.0858 22.7314 17.5 22.7314H21.5C21.9142 22.7314 22.25 22.3957 22.25 21.9814C22.25 21.5672 21.9142 21.2314 21.5 21.2314H20.25V5.98145C20.25 4.46266 19.0188 3.23145 17.5 3.23145H7.5ZM18.75 7.48145H6.25V5.98145C6.25 5.29109 6.80964 4.73145 7.5 4.73145H17.5C18.1904 4.73145 18.75 5.29109 18.75 5.98145V7.48145Z" fill="#8A8A8A"/>
<path fill-rule="evenodd" clip-rule="evenodd" d="M12.9971 11.4761C12.7133 11.2251 12.2869 11.2251 12.0031 11.4761C11.3705 12.0358 10.5448 12.3272 9.70106 12.2886C9.35593 12.2728 9.04466 12.4949 8.94722 12.8263C8.76767 13.4371 8.71274 14.0777 8.78567 14.7102C8.85861 15.3426 9.05793 15.9539 9.37179 16.5078C9.68565 17.0617 10.1076 17.5468 10.6127 17.9343C11.1178 18.3219 11.6956 18.604 12.3118 18.7638C12.4353 18.7958 12.5649 18.7958 12.6884 18.7638C13.3046 18.604 13.8825 18.3219 14.3875 17.9343C14.8926 17.5468 15.3146 17.0617 15.6284 16.5078C15.9423 15.9539 16.1416 15.3426 16.2145 14.7102C16.2875 14.0777 16.2325 13.4371 16.053 12.8263C15.9556 12.4949 15.6443 12.2728 15.2992 12.2886C14.4554 12.3272 13.6297 12.0358 12.9971 11.4761ZM10.2758 14.5383C10.2464 14.2833 10.2474 14.0263 10.2783 13.7727C11.0732 13.7006 11.8376 13.4293 12.5001 12.9838C13.1626 13.4293 13.927 13.7006 14.7219 13.7727C14.7529 14.0263 14.7538 14.2833 14.7244 14.5383C14.6745 14.971 14.5381 15.3893 14.3234 15.7683C14.1086 16.1472 13.8199 16.4792 13.4743 16.7443C13.1807 16.9696 12.8512 17.1428 12.5001 17.2569C12.149 17.1428 11.8195 16.9696 11.5259 16.7443C11.1803 16.4792 10.8916 16.1472 10.6768 15.7683C10.4621 15.3893 10.3257 14.971 10.2758 14.5383Z" fill="#8A8A8A"/>
</svg>
