<svg width="25" height="25" viewBox="0 0 25 25" fill="none" xmlns="http://www.w3.org/2000/svg">
<path fill-rule="evenodd" clip-rule="evenodd" d="M7.5 3.23145C5.98122 3.23145 4.75 4.46266 4.75 5.98145V21.2314H3.5C3.08579 21.2314 2.75 21.5672 2.75 21.9814C2.75 22.3957 3.08579 22.7314 3.5 22.7314H7.5C7.91421 22.7314 8.25 22.3957 8.25 21.9814C8.25 21.5672 7.91421 21.2314 7.5 21.2314H6.25V8.98145H18.75V21.2314H17.5C17.0858 21.2314 16.75 21.5672 16.75 21.9814C16.75 22.3957 17.0858 22.7314 17.5 22.7314H21.5C21.9142 22.7314 22.25 22.3957 22.25 21.9814C22.25 21.5672 21.9142 21.2314 21.5 21.2314H20.25V5.98145C20.25 4.46266 19.0188 3.23145 17.5 3.23145H7.5ZM18.75 7.48145V5.98145C18.75 5.29109 18.1904 4.73145 17.5 4.73145H7.5C6.80964 4.73145 6.25 5.29109 6.25 5.98145V7.48145H18.75Z" fill="#8A8A8A"/>
<path fill-rule="evenodd" clip-rule="evenodd" d="M12.5 14.9814C13.8807 14.9814 15 13.8622 15 12.4814C15 11.1007 13.8807 9.98145 12.5 9.98145C11.1193 9.98145 10 11.1007 10 12.4814C10 13.8622 11.1193 14.9814 12.5 14.9814ZM12.5 13.4814C13.0523 13.4814 13.5 13.0337 13.5 12.4814C13.5 11.9292 13.0523 11.4814 12.5 11.4814C11.9477 11.4814 11.5 11.9292 11.5 12.4814C11.5 13.0337 11.9477 13.4814 12.5 13.4814Z" fill="#8A8A8A"/>
<path d="M11.2143 15.7314C10.5201 15.7314 9.88269 16.0541 9.43266 16.5791C8.98569 17.1006 8.75 17.7863 8.75 18.4814V19.4814C8.75 19.8957 9.08579 20.2314 9.5 20.2314C9.91421 20.2314 10.25 19.8957 10.25 19.4814V18.4814C10.25 18.1158 10.3755 17.784 10.5715 17.5553C10.7645 17.3302 10.9991 17.2314 11.2143 17.2314H13.7857C14.0009 17.2314 14.2355 17.3302 14.4285 17.5553C14.6245 17.784 14.75 18.1158 14.75 18.4814V19.4814C14.75 19.8957 15.0858 20.2314 15.5 20.2314C15.9142 20.2314 16.25 19.8957 16.25 19.4814V18.4814C16.25 17.7863 16.0143 17.1006 15.5673 16.5791C15.1173 16.0541 14.4799 15.7314 13.7857 15.7314H11.2143Z" fill="#8A8A8A"/>
</svg>
