<svg width="25" height="25" viewBox="0 0 25 25" fill="none" xmlns="http://www.w3.org/2000/svg">
<path fill-rule="evenodd" clip-rule="evenodd" d="M14.1467 8.98145C14.1467 10.6383 12.7856 11.9814 11.1067 11.9814C9.42772 11.9814 8.06667 10.6383 8.06667 8.98145C8.06667 7.32459 9.42772 5.98145 11.1067 5.98145C12.7856 5.98145 14.1467 7.32459 14.1467 8.98145ZM12.6267 8.98145C12.6267 9.80987 11.9461 10.4814 11.1067 10.4814C10.2672 10.4814 9.58667 9.80987 9.58667 8.98145C9.58667 8.15302 10.2672 7.48145 11.1067 7.48145C11.9461 7.48145 12.6267 8.15302 12.6267 8.98145Z" fill="#8A8A8A"/>
<path fill-rule="evenodd" clip-rule="evenodd" d="M17.1867 8.98145C17.1867 12.2952 14.4646 14.9814 11.1067 14.9814C7.74878 14.9814 5.02667 12.2952 5.02667 8.98145C5.02667 5.66774 7.74878 2.98145 11.1067 2.98145C14.4646 2.98145 17.1867 5.66774 17.1867 8.98145ZM15.6667 8.98145C15.6667 11.4667 13.6251 13.4814 11.1067 13.4814C8.58825 13.4814 6.54667 11.4667 6.54667 8.98145C6.54667 6.49616 8.58825 4.48145 11.1067 4.48145C13.6251 4.48145 15.6667 6.49616 15.6667 8.98145Z" fill="#8A8A8A"/>
<path fill-rule="evenodd" clip-rule="evenodd" d="M19.2133 18.2314V16.9814C19.2133 15.8769 18.306 14.9814 17.1867 14.9814H11.1067H5.02667C3.90737 14.9814 3 15.8769 3 16.9814V20.9814C3 22.086 3.90737 22.9814 5.02667 22.9814H17.1867C18.306 22.9814 19.2133 22.086 19.2133 20.9814V19.7314C20.7524 19.7314 22 18.5002 22 16.9814V13.9814C22 13.0149 21.2061 12.2314 20.2267 12.2314C19.8069 12.2314 19.4667 12.5672 19.4667 12.9814C19.4667 13.3957 19.8069 13.7314 20.2267 13.7314C20.3666 13.7314 20.48 13.8434 20.48 13.9814V16.9814C20.48 17.6718 19.9129 18.2314 19.2133 18.2314ZM17.6933 16.9814C17.6933 16.7053 17.4665 16.4814 17.1867 16.4814H5.02667C4.74684 16.4814 4.52 16.7053 4.52 16.9814V20.9814C4.52 21.2576 4.74684 21.4814 5.02667 21.4814H17.1867C17.4665 21.4814 17.6933 21.2576 17.6933 20.9814V16.9814Z" fill="#8A8A8A"/>
</svg>
