<svg width="25" height="25" viewBox="0 0 25 25" fill="none" xmlns="http://www.w3.org/2000/svg">
<path d="M16.4805 10.1208H8.68799L10.5283 16.2224H14.4677L16.4805 10.1208Z" fill="#B3D3EC"/>
<path d="M12 6.35669C11.5858 6.35669 11.25 6.69248 11.25 7.10669C11.25 7.5209 11.5858 7.85669 12 7.85669H13C13.4142 7.85669 13.75 7.5209 13.75 7.10669C13.75 6.69248 13.4142 6.35669 13 6.35669H12Z" fill="#016BBF"/>
<path d="M12 9.35669C11.5858 9.35669 11.25 9.69248 11.25 10.1067C11.25 10.5209 11.5858 10.8567 12 10.8567H13C13.4142 10.8567 13.75 10.5209 13.75 10.1067C13.75 9.69248 13.4142 9.35669 13 9.35669H12Z" fill="#016BBF"/>
<path fill-rule="evenodd" clip-rule="evenodd" d="M3.5 2.60669C3.08579 2.60669 2.75 2.94248 2.75 3.35669C2.75 3.7709 3.08579 4.10669 3.5 4.10669H7.75V6.35669H7C5.75736 6.35669 4.75 7.36405 4.75 8.60669C4.75 9.84933 5.75736 10.8567 7 10.8567H7.79285L9.33273 15.4763C9.70704 16.5993 10.7579 17.3567 11.9416 17.3567H13.0586C14.2423 17.3567 15.2931 16.5993 15.6674 15.4763L17.2073 10.8567H18C19.2426 10.8567 20.25 9.84933 20.25 8.60669C20.25 7.36405 19.2426 6.35669 18 6.35669H17.25V4.10669H21.5C21.9142 4.10669 22.25 3.7709 22.25 3.35669C22.25 2.94248 21.9142 2.60669 21.5 2.60669H3.5ZM15.75 6.35669V4.10669H9.25V6.35669H9.5C9.91421 6.35669 10.25 6.69248 10.25 7.10669C10.25 7.5209 9.91421 7.85669 9.5 7.85669H7C6.58579 7.85669 6.25 8.19248 6.25 8.60669C6.25 9.0209 6.58579 9.35669 7 9.35669H9.5C9.91421 9.35669 10.25 9.69248 10.25 10.1067C10.25 10.5209 9.91421 10.8567 9.5 10.8567H9.37399L10.7558 15.002C10.9259 15.5124 11.4036 15.8567 11.9416 15.8567H13.0586C13.5966 15.8567 14.0743 15.5124 14.2444 15.002L15.6262 10.8567H15.5C15.0858 10.8567 14.75 10.5209 14.75 10.1067C14.75 9.69248 15.0858 9.35669 15.5 9.35669H18C18.4142 9.35669 18.75 9.0209 18.75 8.60669C18.75 8.19248 18.4142 7.85669 18 7.85669H15.5C15.0858 7.85669 14.75 7.5209 14.75 7.10669C14.75 6.69248 15.0858 6.35669 15.5 6.35669H15.75Z" fill="#016BBF"/>
<path d="M13.25 19.6067C13.25 19.1925 12.9142 18.8567 12.5 18.8567C12.0858 18.8567 11.75 19.1925 11.75 19.6067V22.6067C11.75 23.0209 12.0858 23.3567 12.5 23.3567C12.9142 23.3567 13.25 23.0209 13.25 22.6067V19.6067Z" fill="#016BBF"/>
<path d="M9.44887 18.2318C9.65598 18.5905 9.53307 19.0492 9.17435 19.2563L6.57628 20.7563C6.21756 20.9634 5.75886 20.8405 5.55176 20.4818C5.34465 20.1231 5.46756 19.6644 5.82628 19.4573L8.42435 17.9573C8.78307 17.7502 9.24177 17.8731 9.44887 18.2318Z" fill="#016BBF"/>
<path d="M15.8262 19.2563C15.4675 19.0492 15.3446 18.5905 15.5517 18.2318C15.7588 17.8731 16.2175 17.7502 16.5762 17.9573L19.1743 19.4573C19.533 19.6644 19.6559 20.1231 19.4488 20.4818C19.2417 20.8405 18.783 20.9634 18.4243 20.7563L15.8262 19.2563Z" fill="#016BBF"/>
</svg>
