<svg width="25" height="25" viewBox="0 0 25 25" fill="none" xmlns="http://www.w3.org/2000/svg">
<path d="M16.4805 10.874H8.68799L10.5282 16.2225H14.4677L16.4805 10.874Z" fill="#B3D3EC"/>
<path fill-rule="evenodd" clip-rule="evenodd" d="M2.75 3.35669C2.75 2.94248 3.08579 2.60669 3.5 2.60669H21.5C21.9142 2.60669 22.25 2.94248 22.25 3.35669C22.25 3.7709 21.9142 4.10669 21.5 4.10669H17.25V6.60669H18.5C19.6046 6.60669 20.5 7.50212 20.5 8.60669V9.60669C20.5 10.7113 19.6046 11.6067 18.5 11.6067H16.9573L15.6674 15.4763C15.2931 16.5993 14.2423 17.3567 13.0586 17.3567H11.9416C10.7579 17.3567 9.70704 16.5993 9.33273 15.4763L8.04285 11.6067H6.5C5.39543 11.6067 4.5 10.7113 4.5 9.60669V8.60669C4.5 7.50212 5.39543 6.60669 6.5 6.60669H7.75V4.10669H3.5C3.08579 4.10669 2.75 3.7709 2.75 3.35669ZM9.25 6.60669H15.75V4.10669H9.25V6.60669ZM9.62399 11.6067L10.7558 15.002C10.9259 15.5124 11.4036 15.8567 11.9416 15.8567H13.0586C13.5966 15.8567 14.0743 15.5124 14.2444 15.002L15.3762 11.6067H9.62399ZM6.5 8.10669H18.5C18.7761 8.10669 19 8.33055 19 8.60669V9.60669C19 9.88283 18.7761 10.1067 18.5 10.1067H6.5C6.22386 10.1067 6 9.88283 6 9.60669V8.60669C6 8.33055 6.22386 8.10669 6.5 8.10669Z" fill="#016BBF"/>
<path d="M12.5 18.8567C12.9142 18.8567 13.25 19.1925 13.25 19.6067V22.6067C13.25 23.0209 12.9142 23.3567 12.5 23.3567C12.0858 23.3567 11.75 23.0209 11.75 22.6067V19.6067C11.75 19.1925 12.0858 18.8567 12.5 18.8567Z" fill="#016BBF"/>
<path d="M9.17435 19.2563C9.53307 19.0492 9.65598 18.5905 9.44887 18.2318C9.24177 17.8731 8.78307 17.7502 8.42435 17.9573L5.82628 19.4573C5.46756 19.6644 5.34465 20.1231 5.55176 20.4818C5.75886 20.8405 6.21756 20.9634 6.57628 20.7563L9.17435 19.2563Z" fill="#016BBF"/>
<path d="M15.5517 18.2318C15.3446 18.5905 15.4675 19.0492 15.8262 19.2563L18.4243 20.7563C18.783 20.9634 19.2417 20.8405 19.4488 20.4818C19.6559 20.1231 19.533 19.6644 19.1743 19.4573L16.5762 17.9573C16.2175 17.7502 15.7588 17.8731 15.5517 18.2318Z" fill="#016BBF"/>
</svg>
