<svg width="25" height="25" viewBox="0 0 25 25" fill="none" xmlns="http://www.w3.org/2000/svg">
<path d="M7.91383 9.378C7.91383 6.8451 9.96714 4.79179 12.5 4.79179C15.0329 4.79179 17.0862 6.8451 17.0862 9.378H18.3966C18.3966 6.12142 15.7566 3.48145 12.5 3.48145C9.24346 3.48145 6.60348 6.12142 6.60348 9.378H7.91383Z" fill="#8A8A8A"/>
<path d="M12.5 7.41248C11.4145 7.41248 10.5345 8.29247 10.5345 9.378H9.22417C9.22417 7.56879 10.6908 6.10213 12.5 6.10213C14.3092 6.10213 15.7759 7.56879 15.7759 9.378H14.4656C14.4656 8.29247 13.5856 7.41248 12.5 7.41248Z" fill="#8A8A8A"/>
<path fill-rule="evenodd" clip-rule="evenodd" d="M6.38509 14.6194C6.38509 13.6545 7.16731 12.8722 8.13222 12.8722H9.87935C10.8443 12.8722 11.6265 13.6545 11.6265 14.6194V18.1136C11.6265 19.0785 10.8443 19.8608 9.87935 19.8608H8.13222C7.16731 19.8608 6.38509 19.0785 6.38509 18.1136V14.6194ZM8.13222 14.1826H9.87935C10.1206 14.1826 10.3161 14.3781 10.3161 14.6194V18.1136C10.3161 18.3549 10.1206 18.5504 9.87935 18.5504H8.13222C7.89099 18.5504 7.69544 18.3549 7.69544 18.1136V14.6194C7.69544 14.3781 7.89099 14.1826 8.13222 14.1826Z" fill="#8A8A8A"/>
<path fill-rule="evenodd" clip-rule="evenodd" d="M13.3736 14.6194C13.3736 13.6545 14.1558 12.8722 15.1207 12.8722H16.8679C17.8328 12.8722 18.615 13.6545 18.615 14.6194V18.1136C18.615 19.0785 17.8328 19.8608 16.8679 19.8608H15.1207C14.1558 19.8608 13.3736 19.0785 13.3736 18.1136V14.6194ZM15.1207 14.1826H16.8679C17.1091 14.1826 17.3046 14.3781 17.3046 14.6194V18.1136C17.3046 18.3549 17.1091 18.5504 16.8679 18.5504H15.1207C14.8795 18.5504 14.6839 18.3549 14.6839 18.1136V14.6194C14.6839 14.3781 14.8795 14.1826 15.1207 14.1826Z" fill="#8A8A8A"/>
<path d="M13.8104 10.2516C13.8104 10.9752 13.2237 11.5619 12.5 11.5619C11.7764 11.5619 11.1897 10.9752 11.1897 10.2516C11.1897 9.52788 11.7764 8.94122 12.5 8.94122C13.2237 8.94122 13.8104 9.52788 13.8104 10.2516Z" fill="#8A8A8A"/>
<path d="M15.1207 10.2516C15.1207 10.7289 14.9931 11.1764 14.7701 11.5619H17.7414C18.9476 11.5619 19.9253 12.5397 19.9253 13.7458V18.9872C19.9253 20.1933 18.9476 21.1711 17.7414 21.1711H7.25866C6.05252 21.1711 5.07475 20.1933 5.07475 18.9872V13.7458C5.07475 12.5397 6.05252 11.5619 7.25866 11.5619H10.2299C10.007 11.1764 9.87935 10.7289 9.87935 10.2516H7.25866C5.32883 10.2516 3.7644 11.816 3.7644 13.7458V18.9872C3.7644 20.917 5.32883 22.4814 7.25866 22.4814H17.7414C19.6712 22.4814 21.2357 20.917 21.2357 18.9872V13.7458C21.2357 11.816 19.6712 10.2516 17.7414 10.2516H15.1207Z" fill="#8A8A8A"/>
</svg>
