<svg width="25" height="25" viewBox="0 0 25 25" fill="none" xmlns="http://www.w3.org/2000/svg">
<path d="M12 6.35645C11.5858 6.35645 11.25 6.69223 11.25 7.10645C11.25 7.52066 11.5858 7.85645 12 7.85645H13C13.4142 7.85645 13.75 7.52066 13.75 7.10645C13.75 6.69223 13.4142 6.35645 13 6.35645H12Z" fill="#8A8A8A"/>
<path d="M12 9.35645C11.5858 9.35645 11.25 9.69223 11.25 10.1064C11.25 10.5207 11.5858 10.8564 12 10.8564H13C13.4142 10.8564 13.75 10.5207 13.75 10.1064C13.75 9.69223 13.4142 9.35645 13 9.35645H12Z" fill="#8A8A8A"/>
<path fill-rule="evenodd" clip-rule="evenodd" d="M3.5 2.60645C3.08579 2.60645 2.75 2.94223 2.75 3.35645C2.75 3.77066 3.08579 4.10645 3.5 4.10645H7.75V6.35645H7C5.75736 6.35645 4.75 7.3638 4.75 8.60645C4.75 9.84909 5.75736 10.8564 7 10.8564H7.79285L9.33273 15.4761C9.70704 16.599 10.7579 17.3564 11.9416 17.3564H13.0586C14.2423 17.3564 15.2931 16.599 15.6674 15.4761L17.2073 10.8564H18C19.2426 10.8564 20.25 9.84909 20.25 8.60645C20.25 7.3638 19.2426 6.35645 18 6.35645H17.25V4.10645H21.5C21.9142 4.10645 22.25 3.77066 22.25 3.35645C22.25 2.94223 21.9142 2.60645 21.5 2.60645H3.5ZM15.75 6.35645V4.10645H9.25V6.35645H9.5C9.91421 6.35645 10.25 6.69223 10.25 7.10645C10.25 7.52066 9.91421 7.85645 9.5 7.85645H7C6.58579 7.85645 6.25 8.19223 6.25 8.60645C6.25 9.02066 6.58579 9.35645 7 9.35645H9.5C9.91421 9.35645 10.25 9.69223 10.25 10.1064C10.25 10.5207 9.91421 10.8564 9.5 10.8564H9.37399L10.7558 15.0017C10.9259 15.5122 11.4036 15.8564 11.9416 15.8564H13.0586C13.5966 15.8564 14.0743 15.5122 14.2444 15.0017L15.6262 10.8564H15.5C15.0858 10.8564 14.75 10.5207 14.75 10.1064C14.75 9.69223 15.0858 9.35645 15.5 9.35645H18C18.4142 9.35645 18.75 9.02066 18.75 8.60645C18.75 8.19223 18.4142 7.85645 18 7.85645H15.5C15.0858 7.85645 14.75 7.52066 14.75 7.10645C14.75 6.69223 15.0858 6.35645 15.5 6.35645H15.75Z" fill="#8A8A8A"/>
<path d="M13.25 19.6064C13.25 19.1922 12.9142 18.8564 12.5 18.8564C12.0858 18.8564 11.75 19.1922 11.75 19.6064V22.6064C11.75 23.0207 12.0858 23.3564 12.5 23.3564C12.9142 23.3564 13.25 23.0207 13.25 22.6064V19.6064Z" fill="#8A8A8A"/>
<path d="M9.44887 18.2316C9.65598 18.5903 9.53307 19.049 9.17435 19.2561L6.57628 20.7561C6.21756 20.9632 5.75886 20.8403 5.55176 20.4816C5.34465 20.1228 5.46756 19.6641 5.82628 19.457L8.42435 17.957C8.78307 17.7499 9.24177 17.8728 9.44887 18.2316Z" fill="#8A8A8A"/>
<path d="M15.8262 19.2561C15.4675 19.049 15.3446 18.5903 15.5517 18.2316C15.7588 17.8728 16.2175 17.7499 16.5762 17.957L19.1743 19.457C19.533 19.6641 19.6559 20.1228 19.4488 20.4816C19.2417 20.8403 18.783 20.9632 18.4243 20.7561L15.8262 19.2561Z" fill="#8A8A8A"/>
</svg>
