<svg width="36" height="36" viewBox="0 0 36 36" fill="none" xmlns="http://www.w3.org/2000/svg">
<circle cx="18" cy="18" r="18" fill="#E3CDE7"/>
<mask id="mask0_8189_18838" style="mask-type:alpha" maskUnits="userSpaceOnUse" x="0" y="0" width="36" height="36">
<circle cx="18" cy="18" r="18" fill="#CEE6F9"/>
</mask>
<g mask="url(#mask0_8189_18838)">
<path d="M12.6001 14.7002C12.6001 10.5581 15.958 7.2002 20.1001 7.2002C22.1712 7.2002 23.8501 8.87913 23.8501 10.9502V19.3502H12.6001V14.7002Z" fill="black"/>
<path d="M9 25.6006C9 23.3915 10.7909 21.6006 13 21.6006H23C25.2091 21.6006 27 23.3914 27 25.6006V32.9006C27 35.1097 25.2091 36.9006 23 36.9006H13C10.7909 36.9006 9 35.1097 9 32.9006V25.6006Z" fill="#480453"/>
<rect x="15.2998" y="17.1006" width="5.4" height="4.5" fill="#EBC3BB"/>
<path d="M13.5 12.9283C13.5 10.7593 15.2583 9.00098 17.4273 9.00098H18.5727C20.7417 9.00098 22.5 10.7593 22.5 12.9282V15.301C22.5 17.7863 20.4853 19.801 18 19.801C15.5147 19.801 13.5 17.7863 13.5 15.301V12.9283Z" fill="#FEDBD4"/>
<path d="M12.6001 9.2252C12.6001 8.10682 13.5067 7.2002 14.6251 7.2002H20.7001C22.9369 7.2002 24.7501 9.01344 24.7501 11.2502H14.6251C13.5067 11.2502 12.6001 10.3436 12.6001 9.2252Z" fill="black"/>
<circle cx="16.1998" cy="13.5006" r="0.9" fill="black"/>
<ellipse cx="19.8004" cy="13.5006" rx="0.900001" ry="0.9" fill="black"/>
<path d="M13.5 21.1504C12.2574 21.1504 11.25 20.143 11.25 18.9004V10.5754C11.25 9.95407 11.7537 9.45039 12.375 9.45039C12.9963 9.45039 13.5 9.95407 13.5 10.5754V21.1504Z" fill="black"/>
<path d="M22.5 9.90039H24.75V18.9004C24.75 20.143 23.7426 21.1504 22.5 21.1504V9.90039Z" fill="black"/>
</g>
<rect x="16.2002" y="17.0996" width="3.6" height="0.900002" rx="0.450001" fill="#611717"/>
<circle cx="17.9996" cy="26.0992" r="0.9" fill="#CEE6F9"/>
<ellipse cx="17.9996" cy="29.7008" rx="0.9" ry="0.900001" fill="#CEE6F9"/>
<circle cx="17.9996" cy="33.3004" r="0.9" fill="#CEE6F9"/>
</svg>
