<svg width="16" height="16" viewBox="0 0 16 16" fill="none" xmlns="http://www.w3.org/2000/svg">
<path d="M8.20214 3.03273L13.1112 4.99635C13.3021 5.07271 13.4549 5.3018 13.4549 5.50362V7.31453C13.4549 7.61453 13.2094 7.85999 12.9094 7.85999H3.09123C2.79123 7.85999 2.54578 7.61453 2.54578 7.31453V5.50362C2.54578 5.3018 2.69851 5.07271 2.88942 4.99635L7.79851 3.03273C7.9076 2.98909 8.09305 2.98909 8.20214 3.03273Z" stroke="#016BBF" stroke-linecap="round" stroke-linejoin="round"/>
<path d="M13.4549 13.86H2.54578V12.2237C2.54578 11.9237 2.79123 11.6782 3.09123 11.6782H12.9094C13.2094 11.6782 13.4549 11.9237 13.4549 12.2237V13.86Z" stroke="#016BBF" stroke-linecap="round" stroke-linejoin="round"/>
<path d="M3.63635 11.678V7.85986" stroke="#016BBF" stroke-linecap="round" stroke-linejoin="round"/>
<path d="M5.81848 11.678V7.85986" stroke="#016BBF" stroke-linecap="round" stroke-linejoin="round"/>
<path d="M8.00012 11.678V7.85986" stroke="#016BBF" stroke-linecap="round" stroke-linejoin="round"/>
<path d="M10.1818 11.678V7.85986" stroke="#016BBF" stroke-linecap="round" stroke-linejoin="round"/>
<path d="M12.3639 11.678V7.85986" stroke="#016BBF" stroke-linecap="round" stroke-linejoin="round"/>
<path d="M2 13.8599H14" stroke="#016BBF" stroke-linecap="round" stroke-linejoin="round"/>
<path d="M8.00019 6.49623C8.45206 6.49623 8.81837 6.12991 8.81837 5.67805C8.81837 5.22618 8.45206 4.85986 8.00019 4.85986C7.54832 4.85986 7.18201 5.22618 7.18201 5.67805C7.18201 6.12991 7.54832 6.49623 8.00019 6.49623Z" stroke="#016BBF" stroke-linecap="round" stroke-linejoin="round"/>
</svg>
