<svg width="66" height="43" viewBox="0 0 66 43" fill="none" xmlns="http://www.w3.org/2000/svg">
<path d="M28.3298 23.3203C25.4069 22.7795 22.673 24.3472 21.7257 27.1532C21.5877 27.5647 21.3726 27.7276 20.9934 27.8196C20.3283 27.9812 19.6606 28.1441 19.0117 28.3604C18.5591 28.5108 18.3241 28.4437 18.0631 27.9937C16.0428 24.5126 12.3317 22.772 8.24144 23.3265C4.54901 23.8313 1.26189 26.7989 0.293403 30.4926C0.197674 30.8543 0.23 31.2522 0 31.5767V34.1552C0.182757 34.236 0.115625 34.4125 0.142976 34.548C1.04433 39.0722 4.9568 42.4252 9.45858 42.5271C14.6019 42.644 18.7133 39.0535 19.4281 33.8543C19.5027 33.306 19.1596 32.5974 19.6246 32.2468C20.0895 31.8962 20.7597 31.9086 21.3241 31.7097C21.7916 31.5468 22.0427 31.6065 22.3324 32.0827C22.9736 33.1351 23.9406 33.9496 25.0867 34.4026C26.2328 34.8556 27.4954 34.9224 28.6828 34.5928C31.1469 33.9202 32.8937 31.7582 32.9857 29.2692C33.0876 26.3824 31.0935 23.8325 28.3298 23.3203ZM15.4697 33.9015C15.0532 36.572 12.5729 38.6632 9.79923 38.6644C7.10885 38.6644 4.67086 36.7859 4.02686 34.2123C3.40524 31.7122 4.59876 29.0865 6.94973 27.7997C8.08223 27.1672 9.39422 26.9329 10.6757 27.1344C11.9571 27.3359 13.1339 27.9615 14.0176 28.9112C14.6106 29.5415 14.6093 29.5502 13.8062 29.7702C12.3831 30.1598 10.9588 30.5473 9.53317 30.9327C8.31231 31.2659 7.64345 32.2406 7.90577 33.2948C8.19048 34.4436 9.23977 35.0006 10.5265 34.6624C12.0184 34.2695 13.5103 33.8804 14.9823 33.4391C15.5269 33.2799 15.5368 33.4627 15.4697 33.9015Z" fill="#016BBF"/>
<path d="M61.3566 24.6877C59.1436 23.3313 56.7566 22.8639 54.1955 23.4444C53.9792 23.4942 53.7368 23.6732 53.5553 23.2915C52.9336 21.9998 52.2822 20.728 51.5835 19.3343C53.1338 19.3343 54.5673 19.3343 56.0032 19.3343C57.2464 19.3343 58.1167 18.5312 58.1167 17.4011C58.1167 16.2709 57.2464 15.474 56.0032 15.4703C54.0911 15.4703 52.1802 15.4492 50.2681 15.484C49.7833 15.4927 49.5657 15.3261 49.3581 14.9083C47.4402 11.0294 45.5073 7.16129 43.5596 3.30392C42.4618 1.13198 40.6591 0.0379275 38.2273 0.0105762C36.5315 -0.00807244 34.8345 0.0018735 33.1375 0.0105762C31.934 0.0105762 31.0725 0.812465 31.0588 1.91522C31.0439 3.04284 31.9179 3.86835 33.1499 3.87333C34.7388 3.87954 36.3301 3.90814 37.9178 3.86338C39.0441 3.8323 39.7503 4.29354 40.2513 5.30306C43.468 11.7853 46.7062 18.2564 49.966 24.7163C50.1823 25.1464 50.1711 25.3715 49.7845 25.7109C46.5521 28.589 45.6246 33.046 47.4136 36.91C48.2816 38.7957 49.7345 40.3511 51.5568 41.3453C53.379 42.3395 55.4733 42.7195 57.5287 42.4288C59.5404 42.1538 61.4172 41.2615 62.9005 39.8749C64.3837 38.4883 65.4002 36.6758 65.8099 34.6871C66.6056 30.8691 64.8128 26.8012 61.3566 24.6877ZM57.4541 38.53C54.8669 39.0496 52.3568 37.9083 51.1135 35.663C50.5134 34.5844 50.2783 33.3405 50.4435 32.1173C50.6086 30.894 51.1651 29.757 52.0298 28.8762C52.8404 30.4998 53.6249 32.0937 54.4292 33.6763C54.8383 34.4782 55.6228 34.8922 56.4334 34.7853C56.8293 34.7305 57.1989 34.5555 57.4924 34.2841C57.7858 34.0127 57.989 33.6578 58.0744 33.2673C58.1926 32.7588 58.0645 32.2901 57.8382 31.8388C57.1383 30.4414 56.452 29.0378 55.7322 27.6516C55.5096 27.2227 55.5295 27.0834 56.0591 27.0648C59.0268 26.9566 61.7395 29.2952 62.0913 32.2951C62.4221 35.1048 60.2998 37.9568 57.4541 38.5275V38.53Z" fill="#016BBF"/>
<path d="M15.1907 11.6C18.2176 11.6 21.2457 11.6 24.2751 11.6C24.6162 11.6063 24.9536 11.5281 25.2572 11.3725C27.454 10.2622 29.6633 9.17564 31.8613 8.06542C32.2975 7.83523 32.7842 7.71771 33.2774 7.72353C34.3963 7.74094 35.5152 7.74343 36.6341 7.72353C36.9996 7.71607 37.2023 7.81429 37.3739 8.1624C39.2628 11.975 41.1649 15.7855 43.0804 19.594C43.2581 19.9483 43.2295 20.0826 42.8665 20.2902C40.2806 21.7709 38.9031 24.0026 38.7961 27.0037C38.7613 27.9735 38.2454 28.6498 37.3764 28.9245C37.0108 29.0414 36.8679 29.0327 36.843 28.5665C36.5944 24.051 33.4974 20.4058 29.0653 19.5306C25.7321 18.8729 22.8242 19.8302 20.4074 22.2073C20.053 22.5567 19.9038 22.5368 19.5744 22.2073C17.4609 20.0664 15.3262 17.9517 13.209 15.817C13.1035 15.7005 12.9736 15.6088 12.8285 15.5484C12.6834 15.488 12.5268 15.4604 12.3698 15.4677C10.3085 15.4826 8.24595 15.4776 6.18466 15.4751C4.8805 15.4751 4.00152 14.6932 3.99903 13.5456C3.99654 12.3981 4.87676 11.6112 6.17595 11.6099C9.17879 11.6016 12.1837 11.5983 15.1907 11.6Z" fill="#CEE6F9"/>
<path d="M57.9314 9.7614C57.9324 11.0926 57.7264 12.4159 57.321 13.6838C57.3011 13.7472 57.2799 13.8082 57.26 13.8716H57.035C54.3415 13.8449 51.7252 12.9681 49.5594 11.3664C49.2308 11.1226 48.9637 10.8054 48.7794 10.4401C48.5951 10.0748 48.4988 9.67143 48.4981 9.26225C48.4973 8.85308 48.5923 8.44939 48.7752 8.08341C48.9582 7.71743 49.2242 7.39927 49.5519 7.15433C51.6743 5.58319 54.231 4.70764 56.8709 4.64795C57.5724 6.26133 57.9334 8.00212 57.9314 9.7614Z" fill="#016BBF"/>
</svg>
