<svg width="34" height="34" viewBox="0 0 34 34" fill="none" xmlns="http://www.w3.org/2000/svg">
<path fill-rule="evenodd" clip-rule="evenodd" d="M8.49999 2.83301H25.5C23.9417 2.83301 22.6667 4.1077 22.6667 5.66556V17.7727L20.6489 18.487L20.6458 18.4881C19.981 18.7252 19.4404 19.1822 19.0685 19.6892C18.699 20.193 18.4167 20.8555 18.4167 21.5791V26.7159C18.4167 27.2671 18.5963 27.7935 18.8126 28.2037C19.0296 28.6149 19.3611 29.0567 19.8105 29.3716L22.0171 30.93C21.7902 31.0752 21.5234 31.157 21.25 31.1587H4.39522C3.61113 31.2417 2.83333 30.641 2.83333 29.7426V8.4982C2.83333 5.36812 4.24999 2.83301 8.49999 2.83301ZM17.4073 11.9348H6.67603C6.12424 11.9348 5.66666 11.4773 5.66666 10.9255C5.66666 10.3737 6.12424 9.91617 6.67603 9.91617H17.4073C17.9591 9.91617 18.4167 10.3737 18.4167 10.9255C18.4167 11.4773 17.9591 11.9348 17.4073 11.9348ZM6.67603 16.421H12.1341C12.6859 16.421 13.1435 15.9635 13.1435 15.4116C13.1435 14.8599 12.6859 14.4022 12.1341 14.4022H6.67603C6.12424 14.4022 5.66666 14.8599 5.66666 15.4116C5.66666 15.9635 6.12424 16.421 6.67603 16.421Z" fill="#016BBF"/>
<path d="M25.4935 22.1432C26.3299 22.1432 26.479 22.4606 26.479 23.1276V23.16H24.508V23.1276C24.508 22.4606 24.6571 22.1432 25.4935 22.1432Z" fill="#016BBF"/>
<path fill-rule="evenodd" clip-rule="evenodd" d="M20.6251 28.2126C20.189 27.9081 19.8333 27.2295 19.8333 26.7159V21.5791C19.8333 20.8625 20.4104 20.0762 21.1217 19.8225L24.8122 18.516C25.1947 18.3829 25.8187 18.3829 26.2012 18.516L29.8917 19.8225C30.5963 20.0762 31.1733 20.8625 31.1666 21.5791V26.7159C31.1666 27.2295 30.811 27.9018 30.3748 28.2126L26.6843 30.8189C26.0334 31.2819 24.9665 31.2819 24.3156 30.8189L20.6251 28.2126ZM22.6667 24.7984V25.2777C22.6667 26.4758 23.114 26.9162 24.307 26.9162H26.693C27.8924 26.9162 28.3333 26.4693 28.3333 25.2777V24.7984C28.3333 23.8724 28.061 23.3996 27.3802 23.2312V23.1276C27.3802 21.8777 26.7448 21.2495 25.5 21.2495C24.2551 21.2495 23.6197 21.8842 23.6197 23.1276V23.2312C22.939 23.3996 22.6667 23.8659 22.6667 24.7984Z" fill="#016BBF"/>
<path fill-rule="evenodd" clip-rule="evenodd" d="M22.6668 5.67974C22.6668 4.1077 23.9418 2.83301 25.5143 2.83301C27.0727 2.84719 28.4752 3.47035 29.5093 4.49005C30.5293 5.52402 31.1668 6.94025 31.1668 8.4982V11.9256C31.1668 14.1634 29.7502 15.5796 27.5118 15.5796H22.6668V5.67974ZM27.9935 5.9771C27.3418 5.33984 26.4493 4.95749 25.5143 4.95749C25.1177 4.95749 24.7918 5.28321 24.7918 5.67974V13.4552H27.5118C28.5743 13.4552 29.0418 12.9736 29.0418 11.9256V8.4982C29.0418 7.5635 28.6735 6.67117 27.9935 5.9771Z" fill="#016BBF"/>
</svg>
