<svg width="68" height="59" viewBox="0 0 68 59" fill="none" xmlns="http://www.w3.org/2000/svg">
<path d="M36.6802 43.7449C37.4091 43.7449 37.9822 43.1719 37.9822 42.4429V37.0784C37.9822 36.3595 37.3987 35.7764 36.6802 35.7764H31.3157C30.5973 35.7764 30.0137 36.3599 30.0137 37.0784V42.4429C30.0137 43.1613 30.5972 43.7449 31.3157 43.7449H36.6802Z" fill="#CEE6F9"/>
<path d="M62.3862 10.5588H45.9709V5.20799C45.9709 2.33627 43.6341 0 40.7629 0H27.2379C24.3662 0 22.0299 2.33678 22.0299 5.20799V10.5588H5.61581C2.88642 10.5588 0.667969 12.7773 0.667969 15.5067V28.1627L28.4483 37.1518V37.0792C28.4483 35.4959 29.7298 34.2145 31.313 34.2145H36.6774C38.2607 34.2145 39.5421 35.4959 39.5421 37.0792V37.1729L67.3327 28.2774V15.5066C67.3327 12.7777 65.1137 10.5587 62.3848 10.5587L62.3862 10.5588ZM26.1967 10.5588V5.20799C26.1967 4.63394 26.664 4.16619 27.2385 4.16619H40.7636C41.3376 4.16619 41.8054 4.63344 41.8054 5.20799V10.5588H26.1967Z" fill="#016BBF"/>
<path d="M39.5434 42.4436C39.5434 44.0269 38.2619 45.3083 36.6787 45.3083H31.3143C29.731 45.3083 28.4496 44.0269 28.4496 42.4436V38.7873L0.669285 29.7982V53.6524C0.669285 56.3818 2.88773 58.6003 5.61712 58.6003H62.3868C65.1162 58.6003 67.3346 56.3818 67.3346 53.6524V29.9239L39.5428 38.8093L39.5434 42.4436Z" fill="#016BBF"/>
</svg>
