<svg width="16" height="16" viewBox="0 0 16 16" fill="none" xmlns="http://www.w3.org/2000/svg">
<path d="M10.133 7.99992C10.133 9.17813 9.17788 10.1333 7.99967 10.1333C6.82147 10.1333 5.86634 9.17813 5.86634 7.99992C5.86634 6.82171 6.82147 5.86659 7.99967 5.86659C9.17788 5.86659 10.133 6.82171 10.133 7.99992Z" fill="#016BBF"/>
<path fill-rule="evenodd" clip-rule="evenodd" d="M4.77967 2.66659L5.99967 1.33325H9.99967L11.2197 2.66659H13.333C14.0663 2.66659 14.6663 3.26659 14.6663 3.99992V11.9999C14.6663 12.7333 14.0663 13.3333 13.333 13.3333H2.66634C1.93301 13.3333 1.33301 12.7333 1.33301 11.9999V3.99992C1.33301 3.26659 1.93301 2.66659 2.66634 2.66659H4.77967ZM4.66634 7.99992C4.66634 9.83992 6.15967 11.3333 7.99967 11.3333C9.83967 11.3333 11.333 9.83992 11.333 7.99992C11.333 6.15992 9.83967 4.66659 7.99967 4.66659C6.15967 4.66659 4.66634 6.15992 4.66634 7.99992ZM12.833 4.99992C13.1091 4.99992 13.333 4.77606 13.333 4.49992C13.333 4.22378 13.1091 3.99992 12.833 3.99992C12.5569 3.99992 12.333 4.22378 12.333 4.49992C12.333 4.77606 12.5569 4.99992 12.833 4.99992Z" fill="#016BBF"/>
</svg>
