<svg width="17" height="16" viewBox="0 0 17 16" fill="none" xmlns="http://www.w3.org/2000/svg">
<path d="M5.5 3.00016H5.33333V1.3335C5.33333 1.06016 5.10667 0.833496 4.83333 0.833496C4.56 0.833496 4.33333 1.06016 4.33333 1.3335V3.00016H4.16667C3.10667 3.00016 2.5 3.60683 2.5 4.66683V8.66683C2.5 9.72683 3.10667 10.3335 4.16667 10.3335H4.33333V14.6668C4.33333 14.9402 4.56 15.1668 4.83333 15.1668C5.10667 15.1668 5.33333 14.9402 5.33333 14.6668V10.3335H5.5C6.56 10.3335 7.16667 9.72683 7.16667 8.66683V4.66683C7.16667 3.60683 6.56 3.00016 5.5 3.00016Z" fill="#016BBF"/>
<path d="M12.833 5.66683H12.6663V1.3335C12.6663 1.06016 12.4397 0.833496 12.1663 0.833496C11.893 0.833496 11.6663 1.06016 11.6663 1.3335V5.66683H11.4997C10.4397 5.66683 9.83301 6.2735 9.83301 7.3335V11.3335C9.83301 12.3935 10.4397 13.0002 11.4997 13.0002H11.6663V14.6668C11.6663 14.9402 11.893 15.1668 12.1663 15.1668C12.4397 15.1668 12.6663 14.9402 12.6663 14.6668V13.0002H12.833C13.893 13.0002 14.4997 12.3935 14.4997 11.3335V7.3335C14.4997 6.2735 13.893 5.66683 12.833 5.66683Z" fill="#016BBF"/>
</svg>
