<svg width="80" height="80" viewBox="0 0 80 80" fill="none" xmlns="http://www.w3.org/2000/svg">
<rect x="19.9998" y="20" width="40" height="40" rx="2" fill="#E6F1F9"/>
<path d="M19.9998 50V58C19.9998 59.1046 20.8952 60 21.9998 60H29.9998" stroke="#016BBF" stroke-width="2" stroke-linecap="round" stroke-linejoin="round"/>
<path d="M59.9998 50V58C59.9998 59.1046 59.1043 60 57.9998 60H49.9998" stroke="#016BBF" stroke-width="2" stroke-linecap="round" stroke-linejoin="round"/>
<path d="M19.9998 30V22C19.9998 20.8954 20.8952 20 21.9998 20H29.9998" stroke="#016BBF" stroke-width="2" stroke-linecap="round" stroke-linejoin="round"/>
<path d="M59.9998 30V22C59.9998 20.8954 59.1043 20 57.9998 20H49.9998" stroke="#016BBF" stroke-width="2" stroke-linecap="round" stroke-linejoin="round"/>
<path d="M43.1971 40.0015C43.1971 41.7688 41.7644 43.2015 39.9971 43.2015C38.2298 43.2015 36.7971 41.7688 36.7971 40.0015C36.7971 38.2342 38.2298 36.8015 39.9971 36.8015C41.7644 36.8015 43.1971 38.2342 43.1971 40.0015Z" fill="#016BBF"/>
<path fill-rule="evenodd" clip-rule="evenodd" d="M35.1671 32.0015L36.9971 30.0015H42.9971L44.8271 32.0015H47.9971C49.0971 32.0015 49.9971 32.9015 49.9971 34.0015V46.0015C49.9971 47.1015 49.0971 48.0015 47.9971 48.0015H31.9971C30.8971 48.0015 29.9971 47.1015 29.9971 46.0015V34.0015C29.9971 32.9015 30.8971 32.0015 31.9971 32.0015H35.1671ZM34.9971 40.0015C34.9971 42.7615 37.2371 45.0015 39.9971 45.0015C42.7571 45.0015 44.9971 42.7615 44.9971 40.0015C44.9971 37.2415 42.7571 35.0015 39.9971 35.0015C37.2371 35.0015 34.9971 37.2415 34.9971 40.0015ZM47.2471 35.5015C47.6613 35.5015 47.9971 35.1657 47.9971 34.7515C47.9971 34.3373 47.6613 34.0015 47.2471 34.0015C46.8329 34.0015 46.4971 34.3373 46.4971 34.7515C46.4971 35.1657 46.8329 35.5015 47.2471 35.5015Z" fill="#016BBF"/>
</svg>
