<svg width="68" height="35" viewBox="0 0 68 35" fill="none" xmlns="http://www.w3.org/2000/svg">
<path d="M21.3624 28.6112C21.3624 26.9307 20.6948 25.3195 19.5064 24.1316C18.318 22.9436 16.7063 22.2764 15.0258 22.2769C13.3458 22.2778 11.7346 22.9459 10.5471 24.1348C9.35962 25.3232 8.69291 26.9354 8.69434 28.6158C8.69527 30.2958 9.36429 31.9071 10.5532 33.0941C11.7426 34.2811 13.3548 34.9469 15.0348 34.945C16.7143 34.945 18.3246 34.2778 19.5117 33.0893C20.6982 31.9013 21.364 30.2901 21.3626 28.6111L21.3624 28.6112Z" fill="#016BBF"/>
<path d="M67.2728 22.6426V22.5892C67.2547 22.3634 67.212 22.1399 67.1465 21.9234C66.2805 17.9269 63.2764 14.317 59.2803 13.2912C57.3086 12.8127 55.3052 12.474 53.2857 12.2788C51.7451 12.2003 50.3336 11.3942 49.4829 10.1078C45.9329 5.03248 40.9775 2.11531 34.9024 1.0161C29.2059 0.0934073 23.3972 0.106883 17.7053 1.05605C14.4131 1.49742 11.4945 3.39804 9.75972 6.23124C9.03355 7.35696 8.4677 8.60261 7.68153 9.68137C6.94236 10.8587 6.02057 11.911 4.95062 12.7983C3.0481 14.0282 1.72255 15.9734 1.27427 18.1937C1.00109 19.6655 0.82129 21.1508 0.667969 22.6427H0.70142C0.691199 22.7936 0.691199 22.9446 0.70142 23.0956V26.4259C0.719539 27.1483 1.31051 27.7249 2.0334 27.7244H7.02875C7.30611 25.0605 8.89035 22.7081 11.2552 21.4495C13.62 20.1914 16.4559 20.1914 18.8206 21.4495C21.1855 22.7081 22.7697 25.0604 23.0471 27.7244H46.8713V27.4248C46.9526 24.6019 48.5053 22.0275 50.9644 20.6388C53.4236 19.2501 56.4304 19.2501 58.8896 20.6388C61.3487 22.0275 62.9018 24.6018 62.9831 27.4248V27.7244H66.0002C66.7231 27.7249 67.3141 27.1483 67.3322 26.4259V22.8159C67.3354 22.7583 67.3354 22.7002 67.3322 22.6426L67.2728 22.6426Z" fill="#016BBF"/>
<path d="M26.9116 13.6848C22.9151 13.6848 19.0255 13.7847 15.1425 13.6383C13.2312 13.5719 12.7847 12.5595 13.4908 10.7475C15.8352 4.75336 19.6184 2.79506 26.9116 3.91378V13.6848ZM44.1028 13.6848C39.7667 13.7512 35.4441 13.6848 30.8556 13.6848V4.01376C35.8575 3.08781 43.3642 6.94449 45.5086 11.5133C46.1614 12.9457 45.7818 13.6913 44.1033 13.7183L44.1028 13.6848Z" fill="#CEE6F9"/>
<path d="M61.2365 27.453C61.2365 25.7725 60.5688 24.1613 59.3805 22.9734C58.192 21.7854 56.5803 21.1182 54.8999 21.1187C53.2199 21.1196 51.6086 21.7877 50.4212 22.9766C49.2336 24.165 48.5669 25.7772 48.5684 27.4576C48.5693 29.1376 49.2383 30.7489 50.4272 31.9359C51.6166 33.1229 53.2288 33.7887 54.9088 33.7868C56.5883 33.7868 58.1986 33.1196 59.3857 31.9311C60.5723 30.7431 61.238 29.1319 61.2366 27.4529L61.2365 27.453Z" fill="#016BBF"/>
<path d="M14.9931 31.3915V31.392C14.2456 31.392 13.5288 31.0946 13.0004 30.5659C12.4717 30.0368 12.1753 29.3198 12.1758 28.5723C12.1767 27.8243 12.4741 27.108 13.0037 26.5796C13.5329 26.0519 14.2501 25.7559 14.9978 25.7568C15.7453 25.7582 16.4618 26.0565 16.9895 26.5861C17.5168 27.1158 17.8123 27.8336 17.8109 28.5811C17.8035 29.323 17.5034 30.032 16.9756 30.5538C16.4478 31.075 15.7351 31.3668 14.9931 31.365L14.9931 31.3915Z" fill="#CEE6F9"/>
<path d="M54.956 30.2314V30.2318C54.2085 30.2318 53.4917 29.9345 52.9633 29.4058C52.4346 28.8766 52.1382 28.1597 52.1387 27.4122C52.1396 26.6642 52.4369 25.9478 52.9666 25.4195C53.4958 24.8917 54.213 24.5958 54.9607 24.5967C55.7082 24.5981 56.4247 24.8963 56.9524 25.426C57.4797 25.9556 57.7752 26.6734 57.7738 27.4209C57.7664 28.1629 57.4662 28.8718 56.9385 29.3936C56.4107 29.9149 55.6979 30.2067 54.956 30.2048L54.956 30.2314Z" fill="#CEE6F9"/>
</svg>
