<svg width="50" height="50" viewBox="0 0 50 50" fill="none" xmlns="http://www.w3.org/2000/svg">
<path d="M17.1012 32.2597C17.1012 31.2095 16.6839 30.2024 15.9412 29.46C15.1984 28.7175 14.1911 28.3005 13.1408 28.3008C12.0908 28.3014 11.0838 28.7189 10.3416 29.462C9.5994 30.2048 9.1827 31.2124 9.1836 32.2626C9.18418 33.3126 9.60231 34.3197 10.3454 35.0615C11.0887 35.8034 12.0964 36.2195 13.1464 36.2183C14.196 36.2183 15.2025 35.8014 15.9444 35.0586C16.686 34.3161 17.1021 33.3091 17.1012 32.2597L17.1012 32.2597Z" fill="#016BBF"/>
<path d="M45.795 28.5288V28.4954C45.7837 28.3543 45.757 28.2146 45.7161 28.0793C45.1748 25.5815 43.2972 23.3253 40.7997 22.6842C39.5674 22.3851 38.3153 22.1734 37.0531 22.0515C36.0902 22.0024 35.208 21.4986 34.6763 20.6945C32.4576 17.5225 29.3604 15.6993 25.5635 15.0123C22.0032 14.4356 18.3727 14.444 14.8153 15.0372C12.7577 15.3131 10.9336 16.501 9.84933 18.2717C9.39548 18.9753 9.04183 19.7538 8.55047 20.4281C8.08849 21.1639 7.51237 21.8215 6.84365 22.3762C5.65457 23.1448 4.8261 24.3606 4.54593 25.7483C4.37519 26.6682 4.26282 27.5965 4.16699 28.5289H4.1879C4.18151 28.6232 4.18151 28.7176 4.1879 28.812V30.8934C4.19922 31.3449 4.56858 31.7053 5.02038 31.705H8.14248C8.31583 30.04 9.30598 28.5698 10.784 27.7832C12.262 26.9968 14.0345 26.9968 15.5124 27.7832C16.9904 28.5698 17.9806 30.0399 18.1539 31.705H33.0441V31.5177C33.0949 29.7534 34.0653 28.1444 35.6023 27.2765C37.1393 26.4085 39.0185 26.4085 40.5555 27.2765C42.0925 28.1444 43.0631 29.7533 43.114 31.5177V31.705H44.9997C45.4515 31.7052 45.8208 31.3449 45.8321 30.8934V28.6371C45.8342 28.6011 45.8342 28.5648 45.8321 28.5288L45.795 28.5288Z" fill="#016BBF"/>
<path d="M20.5689 22.9308C18.0711 22.9308 15.6401 22.9932 13.2132 22.9018C12.0186 22.8602 11.7396 22.2275 12.1809 21.095C13.6461 17.3487 16.0107 16.1247 20.5689 16.8239V22.9308ZM31.3134 22.9308C28.6033 22.9723 25.9017 22.9308 23.0339 22.9308V16.8864C26.1601 16.3077 30.8518 18.7181 32.192 21.5736C32.6 22.4689 32.3628 22.9349 31.3137 22.9518L31.3134 22.9308Z" fill="#CEE6F9"/>
<path d="M42.0221 31.5371C42.0221 30.4868 41.6048 29.4798 40.862 28.7373C40.1193 27.9948 39.112 27.5778 38.0617 27.5781C37.0117 27.5787 36.0047 27.9963 35.2625 28.7393C34.5203 29.4821 34.1036 30.4897 34.1045 31.54C34.1051 32.59 34.5232 33.597 35.2663 34.3389C36.0096 35.0808 37.0173 35.4969 38.0673 35.4957C39.1169 35.4957 40.1234 35.0787 40.8653 34.3359C41.6069 33.5934 42.023 32.5864 42.0221 31.537L42.0221 31.5371Z" fill="#016BBF"/>
<path d="M13.1202 33.9982V33.9985C12.653 33.9985 12.205 33.8127 11.8748 33.4822C11.5443 33.1515 11.3591 32.7034 11.3594 32.2362C11.36 31.7687 11.5458 31.321 11.8768 30.9908C12.2076 30.661 12.6559 30.476 13.1231 30.4766C13.5903 30.4774 14.0381 30.6639 14.368 30.9949C14.6975 31.3259 14.8822 31.7745 14.8813 32.2417C14.8767 32.7054 14.6891 33.1485 14.3592 33.4746C14.0294 33.8004 13.5839 33.9828 13.1202 33.9816L13.1202 33.9982Z" fill="#CEE6F9"/>
<path d="M38.0968 33.2717V33.272C37.6296 33.272 37.1815 33.0861 36.8514 32.7557C36.5209 32.425 36.3356 31.9769 36.3359 31.5097C36.3365 31.0422 36.5224 30.5945 36.8534 30.2643C37.1841 29.9344 37.6324 29.7494 38.0997 29.75C38.5669 29.7509 39.0147 29.9373 39.3445 30.2683C39.6741 30.5993 39.8588 31.048 39.8579 31.5152C39.8532 31.9789 39.6657 32.422 39.3358 32.7481C39.0059 33.0739 38.5605 33.2562 38.0968 33.2551L38.0968 33.2717Z" fill="#CEE6F9"/>
</svg>
