<svg width="20" height="20" viewBox="0 0 20 20" fill="none" xmlns="http://www.w3.org/2000/svg">
<path d="M8.33342 14.1667V15.8333C8.33342 16.2754 8.15782 16.6993 7.84526 17.0118C7.5327 17.3244 7.10878 17.5 6.66675 17.5C6.22472 17.5 5.8008 17.3244 5.48824 17.0118C5.17568 16.6993 5.00008 16.2754 5.00008 15.8333V4.16667C5.00008 3.72464 4.82449 3.30072 4.51193 2.98816C4.19937 2.67559 3.77544 2.5 3.33341 2.5C2.89139 2.5 2.46746 2.67559 2.1549 2.98816C1.84234 3.30072 1.66675 3.72464 1.66675 4.16667V6.66667H4.16675" stroke="white" stroke-width="1.5" stroke-linecap="round" stroke-linejoin="round"/>
<path d="M18.3334 14.167V15.8337C18.3334 16.2757 18.1578 16.6996 17.8453 17.0122C17.5327 17.3247 17.1088 17.5003 16.6667 17.5003H6.66675" stroke="white" stroke-width="1.5" stroke-linecap="round" stroke-linejoin="round"/>
<path d="M15.8333 14.1667V4.16667C15.8333 3.72464 15.6577 3.30072 15.3451 2.98816C15.0325 2.67559 14.6086 2.5 14.1666 2.5H3.33325" stroke="white" stroke-width="1.5" stroke-linecap="round" stroke-linejoin="round"/>
<path d="M7.5 6.66699H12.5" stroke="white" stroke-width="1.5" stroke-linecap="round" stroke-linejoin="round"/>
<path d="M7.5 10H10.8333" stroke="white" stroke-width="1.5" stroke-linecap="round" stroke-linejoin="round"/>
<path d="M18.3333 14.167H8.33325" stroke="white" stroke-width="1.5" stroke-linecap="round" stroke-linejoin="round"/>
</svg>
