<svg width="34" height="34" viewBox="0 0 34 34" fill="none" xmlns="http://www.w3.org/2000/svg">
<path fill-rule="evenodd" clip-rule="evenodd" d="M9.91667 2.83301C6.78706 2.83301 4.25 5.37002 4.25 8.49967V22.6663C4.25 25.796 6.78706 28.333 9.91667 28.333H21.25V22.1646C20.3683 21.1656 19.8333 19.8535 19.8333 18.4163C19.8333 15.2867 22.3704 12.7497 25.5 12.7497C25.9892 12.7497 26.4639 12.8117 26.9167 12.9282V8.49967C26.9167 5.37002 24.3796 2.83301 21.25 2.83301H9.91667ZM8.14583 10.6247H18.7708C19.3517 10.6247 19.8333 10.143 19.8333 9.56217C19.8333 8.98138 19.3517 8.49967 18.7708 8.49967H8.14583C7.56499 8.49967 7.08333 8.98138 7.08333 9.56217C7.08333 10.143 7.56499 10.6247 8.14583 10.6247ZM15.9375 14.8747H8.14583C7.56499 14.8747 7.08333 14.393 7.08333 13.8122C7.08333 13.2314 7.56499 12.7497 8.14583 12.7497H15.9375C16.5183 12.7497 17 13.2314 17 13.8122C17 14.393 16.5183 14.8747 15.9375 14.8747Z" fill="#016BBF"/>
<path d="M25.5 24.0831C26.5322 24.0831 27.4998 23.8071 28.3333 23.325V29.7498L25.5 27.6248L22.6667 29.7498V23.325C23.5002 23.8071 24.4678 24.0831 25.5 24.0831Z" fill="#016BBF"/>
<path d="M25.5 19.833C26.2824 19.833 26.9167 19.1988 26.9167 18.4163C26.9167 17.6339 26.2824 16.9997 25.5 16.9997C24.7176 16.9997 24.0833 17.6339 24.0833 18.4163C24.0833 19.1988 24.7176 19.833 25.5 19.833Z" fill="#016BBF"/>
<path fill-rule="evenodd" clip-rule="evenodd" d="M25.5 22.6663C27.8472 22.6663 29.75 20.7636 29.75 18.4163C29.75 16.0691 27.8472 14.1663 25.5 14.1663C23.1528 14.1663 21.25 16.0691 21.25 18.4163C21.25 20.7636 23.1528 22.6663 25.5 22.6663ZM25.5 21.2497C27.0648 21.2497 28.3333 19.9811 28.3333 18.4163C28.3333 16.8516 27.0648 15.583 25.5 15.583C23.9352 15.583 22.6667 16.8516 22.6667 18.4163C22.6667 19.9811 23.9352 21.2497 25.5 21.2497Z" fill="#016BBF"/>
</svg>
