<svg width="60" height="60" viewBox="0 0 60 60" fill="none" xmlns="http://www.w3.org/2000/svg">
<g clip-path="url(#clip0_1364_3671)">
<path d="M30.7035 0C32.998 0.941023 35.0747 2.29384 37.2392 3.47756C42.0786 6.12213 46.8899 8.81837 51.7122 11.4943C54.3699 12.9692 57.0293 14.441 59.6887 15.9175C59.7544 15.9535 59.8093 16.0099 59.8703 16.0585C59.5039 16.0632 59.1374 16.0538 58.7725 16.0741C57.969 16.118 57.1609 15.9614 56.3637 16.1571C53.4945 16.1587 50.6237 16.1618 47.7544 16.1618C31.8453 16.1634 15.9346 16.1649 0.0253906 16.1665C0.047317 16.0522 0.142853 16.0522 0.228993 16.0397C0.404404 16.0444 0.579815 16.0506 0.755226 16.0506C18.738 16.0506 36.7192 16.0506 54.702 16.0475C54.8241 16.0475 54.9635 16.1054 55.1076 15.9755C55.0324 15.9269 54.9745 15.8831 54.9118 15.8486C52.514 14.513 50.1162 13.1743 47.7153 11.8434C45.4334 10.5783 43.1436 9.32568 40.8617 8.06211C37.3363 6.1096 33.8077 4.1618 30.2932 2.18737C29.4506 1.71294 28.5516 1.32777 27.7842 0.723382C28.2337 0.366388 28.7834 0.220772 29.3003 0.00313152C29.7654 0 30.2353 0 30.7035 0Z" fill="#016BBF"/>
<path d="M56.3616 16.1556C57.1587 15.9598 57.9685 16.1164 58.7703 16.0726C59.1353 16.0522 59.5033 16.0616 59.8682 16.0569C59.9121 16.0554 59.9544 16.0522 59.9982 16.0507C59.9982 17.1827 59.9982 18.3163 59.9982 19.4484C59.6192 20.4677 58.9959 21.2349 57.8839 21.5011C57.3827 21.6201 56.8721 21.5136 56.3694 21.5715C55.6662 21.5606 54.963 21.548 54.2598 21.5371C55.7993 20.9828 56.4822 19.8883 56.3725 18.2584C56.3287 17.5601 56.3647 16.857 56.3616 16.1556Z" fill="#016BBF"/>
<path d="M56.3484 54.4917C56.9889 54.498 57.6295 54.5293 58.2685 54.5042C58.992 54.4745 59.5888 54.6718 59.9991 55.2981C59.9991 56.5867 59.9991 57.8753 59.9991 59.1639C59.6671 59.8137 59.1361 60.0329 58.4157 59.9954C57.4635 59.9453 56.5065 59.9719 55.5527 59.9656C56.1682 59.582 56.4486 59.0543 56.3781 58.3059C56.3217 57.689 56.3358 57.0595 56.375 56.4395C56.422 55.6879 56.3108 55.0178 55.6671 54.534C55.8942 54.5199 56.1213 54.5058 56.3484 54.4917Z" fill="#016BBF"/>
<path d="M27.7818 0.720276C28.5492 1.32466 29.4482 1.70984 30.2908 2.18426C33.8037 4.16025 37.3323 6.1065 40.8593 8.059C43.1412 9.32257 45.4309 10.5752 47.7129 11.8403C50.1138 13.1712 52.51 14.5099 54.9094 15.8455C54.9721 15.88 55.03 15.9223 55.1052 15.9724C54.9611 16.1023 54.8233 16.0444 54.6995 16.0444C36.7168 16.0475 18.7356 16.0475 0.752796 16.0475C0.577385 16.0475 0.401974 16.0397 0.226562 16.0366C2.33306 14.8528 4.43643 13.6629 6.54919 12.4885C11.7645 9.58719 16.9815 6.69366 22.1999 3.79856C24.0574 2.76829 25.9212 1.74585 27.7818 0.720276ZM28.2501 5.99376C26.2172 7.42017 26.2172 10.0553 28.2516 11.4598C29.5406 12.3398 31.3949 12.1034 32.4317 10.9259C33.5813 9.62007 33.5641 7.77403 32.3879 6.47289C31.3589 5.33301 29.5249 5.12007 28.2501 5.99376Z" fill="#7FB4DE"/>
<path d="M55.6675 54.5339C56.3112 55.0177 56.4224 55.6863 56.3755 56.4394C56.3363 57.0595 56.3222 57.6873 56.3786 58.3058C56.4475 59.0542 56.1687 59.5819 55.5532 59.9655C55.3386 59.9718 55.1241 59.9843 54.9111 59.9843C37.1899 59.9859 19.4702 59.9859 1.74899 59.9843C0.330039 59.9843 0.00270964 59.6524 0.00270964 58.2181C0.00270964 57.4384 -0.00512122 56.6571 0.00584198 55.8773C0.0168052 55.0349 0.463164 54.5856 1.31203 54.5636C2.11078 54.5433 2.91109 54.5402 3.70984 54.5308C3.88211 54.5511 4.05596 54.5887 4.22824 54.5887C7.66285 54.5903 11.0975 54.5997 14.5321 54.5809C15.7192 54.5746 16.9095 54.6654 18.0951 54.5214C18.3285 54.5339 18.5603 54.5589 18.7936 54.5589C26.269 54.5605 33.7443 54.5605 41.2212 54.5605C41.4546 54.5605 41.6895 54.548 41.9228 54.5417C42.2674 54.6404 42.6198 54.5903 42.969 54.5903C46.2235 54.5856 49.4765 54.5746 52.731 54.5652C53.7083 54.595 54.6871 54.6122 55.6675 54.5339Z" fill="#016BBF"/>
<path d="M56.3617 16.1555C56.3632 16.857 56.3272 17.56 56.3742 18.2583C56.4823 19.8883 55.7994 20.9828 54.2614 21.537C53.7509 21.548 53.2387 21.559 52.7282 21.5699C49.1307 21.5715 45.5332 21.5746 41.9357 21.5762C41.8777 21.5699 41.8198 21.5558 41.7618 21.5558C33.895 21.5574 26.0281 21.559 18.1596 21.5621C16.9114 21.5637 15.6632 21.5652 14.4149 21.5652C10.8237 21.5652 7.23403 21.5652 3.6428 21.5668C3.10404 21.512 2.55901 21.6012 2.02181 21.4525C0.880074 21.1362 0.0406067 20.1372 0.0108494 18.9567C-0.0126431 18.0266 0.0171141 17.095 0.0233788 16.1633C15.9325 16.1618 31.8433 16.1602 47.7524 16.1586C50.6232 16.1602 53.4924 16.1571 56.3617 16.1555Z" fill="#016BBF"/>
<path d="M7.26876 49.4421C7.26719 41.834 7.26719 34.2275 7.26562 26.6195C8.47627 26.6211 9.68693 26.6226 10.8976 26.6258C10.8976 34.2275 10.8976 41.8293 10.8976 49.4311C9.68849 49.4342 8.47941 49.4389 7.26876 49.4421Z" fill="#CEE6F9"/>
<path d="M10.8971 26.6257C9.68643 26.6242 8.47578 26.621 7.26513 26.6195C6.05761 24.9363 4.8501 23.2515 3.64258 21.5683C7.23381 21.5683 10.8235 21.5683 14.4147 21.5668C13.9182 22.5328 13.19 23.3423 12.5995 24.2458C12.0827 25.0349 11.4609 25.7521 11.0177 26.5913C10.977 26.6023 10.9378 26.6148 10.8971 26.6257Z" fill="#7FB4DE"/>
<path d="M7.26727 49.4421C8.47635 49.4374 9.687 49.4343 10.8961 49.4296C10.9352 49.439 10.9744 49.4484 11.0135 49.4577C11.4161 50.4207 12.1537 51.1613 12.7222 52.0146C13.2547 52.8147 13.8295 53.5867 14.4544 54.4666C10.7833 54.4666 7.25787 54.4666 3.73242 54.4666C4.84127 52.7443 6.08168 51.1112 7.26727 49.4421Z" fill="#7FB4DE"/>
<path d="M3.73522 54.4681C7.26067 54.4681 10.7861 54.4681 14.4572 54.4681C13.8323 53.5882 13.2575 52.8163 12.725 52.0161C12.1565 51.1628 11.4204 50.4222 11.0163 49.4593C12.1878 49.4546 13.3593 49.4483 14.5293 49.4436C14.7908 49.8037 15.0555 50.1607 15.3108 50.5255C16.2395 51.8564 17.1651 53.1889 18.0923 54.5214C16.9067 54.6654 15.7164 54.5746 14.5293 54.5809C11.0947 54.5997 7.66005 54.5903 4.22543 54.5887C4.05315 54.5887 3.87931 54.5511 3.70703 54.5308C3.7086 54.5057 3.71643 54.4854 3.73522 54.4681Z" fill="#016BBF"/>
<path d="M52.7413 26.6273C52.7398 34.2307 52.7382 41.8325 52.7366 49.4358C51.5651 49.4468 50.3952 49.4577 49.2237 49.4687C49.183 49.4561 49.1423 49.4452 49.1016 49.4327C49.1016 41.8278 49.1016 34.2244 49.1016 26.6195C49.1438 26.607 49.1846 26.596 49.2269 26.5835C50.3984 26.5992 51.5698 26.6132 52.7413 26.6273Z" fill="#CCE1F2"/>
<path d="M49.2227 49.4687C50.3942 49.4577 51.5641 49.4468 52.7356 49.4358C53.94 51.1206 55.1443 52.8069 56.3487 54.4916C56.1216 54.5057 55.8945 54.5198 55.6659 54.5339C54.687 54.6106 53.7066 54.5934 52.7262 54.5621C52.6886 54.5323 52.6526 54.5042 52.615 54.4744C52.3409 53.9217 51.9478 53.4473 51.6079 52.9384C50.8311 51.7703 49.8961 50.7088 49.2227 49.4687Z" fill="#016BBF"/>
<path d="M52.7407 26.6273C51.5692 26.6132 50.3977 26.5991 49.2246 26.585C49.3358 26.4034 49.436 26.2124 49.5598 26.0386C50.6138 24.548 51.671 23.0605 52.7281 21.5715C53.2387 21.5605 53.7508 21.5495 54.2614 21.5386C54.9646 21.5495 55.6678 21.5621 56.371 21.573C55.1667 23.2609 54.0187 24.9895 52.7407 26.6273Z" fill="#016BBF"/>
<path d="M28.25 5.99372C29.5233 5.12159 31.3573 5.33297 32.3878 6.47285C33.564 7.774 33.5812 9.62003 32.4317 10.9259C31.3949 12.1033 29.5405 12.3398 28.2516 11.4598C28.3941 11.3017 28.5319 11.1388 28.6807 10.9869C29.5139 10.1305 29.7989 9.13621 29.5421 7.95249C29.3604 7.11481 28.7637 6.59185 28.25 5.99372Z" fill="#016BBF"/>
<path d="M28.2504 5.99377C28.7642 6.5919 29.3609 7.11486 29.5425 7.95411C29.7994 9.13782 29.5159 10.1305 28.6811 10.9886C28.5324 11.1404 28.3945 11.3033 28.252 11.4614C26.2191 10.0554 26.2176 7.42018 28.2504 5.99377Z" fill="#CEE6F9"/>
<path d="M41.9199 54.5402C41.9199 54.512 41.9309 54.4885 41.9528 54.4713C45.508 54.4729 49.0617 54.4744 52.6169 54.4744C52.6545 54.5042 52.6905 54.5339 52.7281 54.5621C49.4736 54.5715 46.2206 54.5825 42.9661 54.5872C42.6184 54.5887 42.266 54.6388 41.9199 54.5402Z" fill="#8CD5A8"/>
<path d="M45.4688 26.6054C44.2785 24.9379 43.0475 23.2985 41.9355 21.5762C45.533 21.5746 49.1305 21.5715 52.728 21.5699C51.6709 23.059 50.6137 24.5465 49.5597 26.0371C49.4359 26.2109 49.3357 26.4003 49.2245 26.5835C49.1838 26.596 49.1415 26.607 49.0992 26.6195C47.8901 26.6148 46.6795 26.6101 45.4688 26.6054Z" fill="#7FB4DE"/>
<path d="M18.1593 21.5637C16.9518 23.2469 15.7443 24.9301 14.5368 26.6133C13.3637 26.6055 12.1906 26.5976 11.0176 26.5914C11.4608 25.7537 12.0841 25.035 12.5994 24.2459C13.1899 23.3424 13.9181 22.5329 14.4146 21.5669C15.6628 21.5653 16.9111 21.5653 18.1593 21.5637Z" fill="#016BBF"/>
<path d="M11.0179 26.5913C12.1909 26.5991 13.364 26.6054 14.537 26.6132C14.5355 34.2228 14.5323 41.8324 14.5308 49.4436C13.3593 49.4483 12.1878 49.4546 11.0179 49.4593C10.9787 49.4499 10.9395 49.4405 10.9004 49.4311C10.9004 41.8293 10.9004 34.2275 10.9004 26.6258C10.938 26.6148 10.9771 26.6023 11.0179 26.5913Z" fill="#CCE1F2"/>
<path d="M45.4688 26.6055C46.6794 26.6102 47.8901 26.6149 49.1007 26.6196C49.1007 34.2245 49.1007 41.8278 49.1007 49.4327C47.8916 49.439 46.6825 49.4452 45.4734 49.4515C45.4719 41.8372 45.4703 34.2213 45.4688 26.6055Z" fill="#CEE6F9"/>
<path d="M45.4739 49.4514C46.683 49.4451 47.892 49.4389 49.1011 49.4326C49.1419 49.4451 49.1826 49.4561 49.2233 49.4686C49.8967 50.7103 50.8317 51.7703 51.6101 52.9384C51.95 53.4488 52.3431 53.9232 52.6172 54.4744C49.062 54.4728 45.5083 54.4728 41.9531 54.4712C43.1278 52.7974 44.3008 51.1252 45.4739 49.4514Z" fill="#7FB4DE"/>
<path d="M28.6002 47.4285C24.8853 46.9587 21.4898 43.7896 20.7537 40.1085C19.6699 34.68 22.9385 29.7964 28.3731 28.7239C29.1609 29.0449 29.9879 29.2515 30.7537 29.6508C34.5219 31.6143 36.4671 35.7369 35.6997 39.7171C35.0356 43.1602 33.0012 45.5824 29.7106 46.9165C29.3395 47.0683 28.8414 46.9885 28.6002 47.4285ZM30.9291 35.6023C30.9291 35.192 30.9385 34.7818 30.926 34.3731C30.9119 33.905 31.1578 33.9316 31.4319 34.1195C31.7623 34.3465 31.8297 34.7113 31.8798 35.0918C31.9456 35.5913 32.2933 35.845 32.7725 35.8387C33.2251 35.8324 33.5509 35.5803 33.6292 35.1106C33.8422 33.8063 32.7334 32.3549 31.4052 32.2249C31.081 32.1936 30.9338 32.1419 30.9119 31.7662C30.8743 31.1273 30.547 30.8189 30.027 30.8048C29.4804 30.7907 29.1406 31.1085 29.0873 31.7724C29.0622 32.0918 28.9777 32.2014 28.6488 32.2218C27.8798 32.2688 27.3113 32.6727 26.8571 33.2896C26.2463 34.1179 26.4123 35.0668 26.3496 35.9937C26.2572 37.3591 27.2142 38.8293 28.677 38.9436C28.8931 38.9608 29.0842 39.0266 29.0779 39.3319C29.0622 40.132 29.0732 40.9321 29.0716 41.7322C29.0701 42.1519 28.832 42.1299 28.5736 41.9687C28.2447 41.7635 28.1836 41.4112 28.1272 41.0574C28.0364 40.4937 27.7091 40.2432 27.1547 40.2839C26.6488 40.3215 26.3794 40.6252 26.3606 41.1811C26.3136 42.501 27.2439 43.6456 28.6159 43.8945C28.9417 43.954 29.0716 44.0214 29.0889 44.3815C29.1171 44.953 29.5431 45.3366 30.0176 45.3241C30.4499 45.3116 30.8978 44.906 30.9072 44.3972C30.915 43.9916 31.0983 43.9493 31.4256 43.8883C32.6707 43.6534 33.5744 42.6357 33.6292 41.4285C33.6574 40.8257 33.6715 40.2166 33.6261 39.6153C33.5399 38.5036 32.9291 37.7568 31.9299 37.2808C31.6073 37.1273 31.1045 37.3371 30.9604 36.9379C30.8414 36.6091 30.9291 36.2051 30.926 35.8356C30.9276 35.7588 30.9291 35.6806 30.9291 35.6023Z" fill="#016BBF"/>
<path d="M28.6001 47.4285C28.8413 46.9901 29.3394 47.0684 29.7106 46.9181C33.0011 45.5825 35.0355 43.1602 35.6996 39.7187C36.467 35.7401 34.5218 31.6159 30.7536 29.6524C29.9878 29.2531 29.1608 29.0465 28.373 28.7255C32.135 27.9003 36.4388 29.9656 38.3245 33.501C41.4099 39.2865 38.077 46.2166 31.6197 47.4144C30.6221 47.5976 29.6072 47.643 28.6001 47.4285Z" fill="#7FB4DE"/>
<path d="M30.9282 35.6023C30.9282 35.6806 30.9266 35.7589 30.9282 35.8372C30.9313 36.2082 30.8452 36.6106 30.9627 36.9394C31.1067 37.3387 31.6079 37.1289 31.9321 37.2823C32.9313 37.7583 33.5421 38.5052 33.6283 39.6169C33.6753 40.2182 33.6596 40.8272 33.6314 41.4301C33.5766 42.6373 32.6729 43.655 31.4278 43.8899C31.1005 43.9509 30.9172 43.9932 30.9094 44.3987C30.8984 44.9076 30.4505 45.3147 30.0198 45.3257C29.5453 45.3382 29.1208 44.9546 29.0911 44.3831C29.0723 44.023 28.9423 43.9556 28.6181 43.8961C27.2461 43.6472 26.3174 42.5026 26.3628 41.1827C26.3816 40.6268 26.651 40.3231 27.1569 40.2855C27.7113 40.2448 28.0386 40.4953 28.1295 41.059C28.1858 41.4128 28.2469 41.7651 28.5758 41.9702C28.8342 42.1315 29.0723 42.1519 29.0739 41.7338C29.0754 40.9337 29.0629 40.1336 29.0801 39.3335C29.0864 39.0282 28.8953 38.9624 28.6792 38.9452C27.2164 38.8309 26.2594 37.3606 26.3519 35.9953C26.4145 35.0699 26.2469 34.1211 26.8593 33.2912C27.3135 32.6743 27.882 32.2703 28.651 32.2234C28.9799 32.203 29.0645 32.0934 29.0895 31.774C29.1428 31.1101 29.4826 30.7923 30.0292 30.8064C30.5492 30.8189 30.8765 31.1289 30.9141 31.7677C30.936 32.142 31.0848 32.1952 31.4075 32.2265C32.7356 32.3565 33.8444 33.8079 33.6314 35.1122C33.5547 35.5819 33.2289 35.834 32.7747 35.8403C32.2955 35.8465 31.9478 35.5945 31.882 35.0934C31.8319 34.7129 31.7645 34.3481 31.4341 34.1211C31.16 33.9332 30.9141 33.9066 30.9282 34.3747C30.9376 34.7818 30.9282 35.1921 30.9282 35.6023ZM29.0739 35.5584C29.0739 35.1874 29.0801 34.8163 29.0707 34.4452C29.0676 34.2996 29.1428 34.107 28.9611 34.0256C28.7779 33.9426 28.6165 34.0631 28.485 34.1759C27.9681 34.619 27.976 36.5355 28.4912 36.9708C28.521 36.9958 28.5508 37.0224 28.5852 37.0412C28.8687 37.19 29.077 37.1978 29.0739 36.7876C29.0707 36.3789 29.0739 35.9687 29.0739 35.5584ZM30.9282 40.4922C30.9282 40.8429 30.9172 41.1952 30.9329 41.5443C30.9407 41.7213 30.828 41.9687 31.0895 42.047C31.3276 42.1174 31.4952 41.953 31.6314 41.7792C31.965 41.3565 31.976 39.7312 31.6486 39.3053C31.6017 39.2442 31.5437 39.1894 31.4873 39.1362C31.3652 39.0203 31.2195 38.9687 31.0598 39.0282C30.8891 39.0908 30.9345 39.2521 30.9313 39.3805C30.9235 39.75 30.9282 40.1211 30.9282 40.4922Z" fill="#FEFDFC"/>
<path d="M29.0744 35.5584C29.0744 35.9687 29.0712 36.3789 29.0744 36.7891C29.0775 37.1994 28.8692 37.1915 28.5857 37.0428C28.5513 37.0256 28.5215 36.9974 28.4918 36.9723C27.9765 36.537 27.9687 34.6206 28.4855 34.1774C28.617 34.0647 28.7784 33.9457 28.9616 34.0271C29.1417 34.1086 29.0665 34.3011 29.0712 34.4468C29.0806 34.8178 29.0744 35.1889 29.0744 35.5584Z" fill="#016BBF"/>
<path d="M30.9283 40.4922C30.9283 40.1211 30.9236 39.7515 30.9314 39.3805C30.933 39.2521 30.8891 39.0908 31.0598 39.0282C31.2211 38.9687 31.3668 39.0203 31.4874 39.1362C31.5438 39.1894 31.6002 39.2442 31.6487 39.3053C31.976 39.7312 31.9651 41.3565 31.6315 41.7792C31.4952 41.953 31.3276 42.1174 31.0896 42.047C30.828 41.9687 30.9424 41.7197 30.933 41.5443C30.9173 41.1936 30.9283 40.8429 30.9283 40.4922Z" fill="#016BBF"/>
</g>
<defs>
<clipPath id="clip0_1364_3671">
<rect width="60" height="60" fill="white"/>
</clipPath>
</defs>
</svg>
