<svg width="60" height="60" viewBox="0 0 60 60" fill="none" xmlns="http://www.w3.org/2000/svg">
<path fill-rule="evenodd" clip-rule="evenodd" d="M37.5287 13.9908C37.3163 12.9176 37.1696 11.8945 37.2493 11.1824C36.9673 10.9727 36.6619 10.9593 36.3505 11.0817C35.3763 11.4645 34.343 13.1753 33.7799 14.3579C33.7379 14.446 33.6985 14.5313 33.662 14.6128C33.6929 14.4576 33.719 14.3015 33.7407 14.1445C33.8929 13.0397 33.8216 11.8937 33.6109 10.7747C33.4971 10.1706 33.3427 9.57435 33.1609 8.9967C33.141 8.93342 33.1208 8.87036 33.1002 8.80754C32.3948 6.65182 31.3227 4.77577 30.5871 3.75C30.5871 4.96838 29.963 7.04056 29.1501 8.92869L29.0976 9.04974C28.9065 9.48743 28.7056 9.91394 28.5006 10.3162C28.3595 10.5929 28.2164 10.8582 28.073 11.1077C27.8701 11.4609 27.6668 11.7826 27.4681 12.0605L27.4063 12.1457C26.7198 13.079 26.0959 13.4698 25.7475 12.8103C25.5871 12.5067 25.4852 11.9806 25.4624 11.1823C25.458 11.0312 25.4538 10.8896 25.4494 10.757C25.4301 10.1694 25.4089 9.75898 25.3737 9.49363C25.2849 8.82319 25.1068 9.07897 24.6444 9.74343L24.5847 9.82915C24.5383 9.89567 24.4892 9.96571 24.4374 10.0388C24.1504 10.4432 23.8861 10.8417 23.6434 11.2342C23.4456 11.554 23.2622 11.8698 23.0927 12.1815C22.7394 12.8308 22.446 13.4625 22.2075 14.0758C19.0196 22.2738 25.6369 27.1906 30.0746 27.1906C37.7617 27.1906 38.902 20.9387 38.2743 17.4714C38.1814 16.9583 38.0453 16.3542 37.9019 15.717C37.8448 15.4638 37.7864 15.2043 37.7293 14.9443C37.7039 14.8289 37.6787 14.7131 37.654 14.5973C37.6106 14.3945 37.5685 14.1918 37.5287 13.9908ZM34.6019 18.2433C34.7772 19.3418 34.6355 20.7462 34.0554 21.7381C33.626 22.4724 32.721 23.4406 30.0746 23.4406C28.8424 23.4406 26.7973 22.5079 25.7635 20.7148C25.2854 19.8856 24.8867 18.605 25.2832 16.7891C26.0354 16.957 26.7588 16.8956 27.359 16.7257C28.65 16.3604 29.5162 15.4685 29.9304 14.9905C30.0772 16.4419 31.0671 17.7209 32.5217 18.1852C33.2186 18.4077 33.937 18.4159 34.6019 18.2433Z" fill="#8A8A8A"/>
<path fill-rule="evenodd" clip-rule="evenodd" d="M16.4171 27.6298C19.8102 28.6901 24.6128 29.375 30 29.375C35.3872 29.375 40.1898 28.6901 43.5829 27.6298C45.2906 27.0961 46.5361 26.4995 47.3141 25.9247C47.6981 25.641 47.9139 25.4022 48.0251 25.2324C48.1204 25.0869 48.1248 25.0162 48.125 25.0022V22.5L48.125 22.4969C48.1246 22.4789 48.1155 22.3833 47.972 22.1922C47.803 21.9673 47.4881 21.6692 46.9576 21.3314C45.891 20.6523 44.231 19.9874 42.0444 19.4396L42.9556 15.802C45.3413 16.3996 47.4313 17.1874 48.9716 18.1681C50.43 19.0967 51.875 20.5202 51.875 22.5V48.75C51.875 50.5143 50.9148 51.9706 49.6722 53.0723C48.4274 54.1759 46.7331 55.0842 44.8005 55.8089C40.9213 57.2636 35.6882 58.125 30 58.125C24.3118 58.125 19.0787 57.2636 15.1995 55.8089C13.2669 55.0842 11.5726 54.1759 10.3278 53.0723C9.08521 51.9706 8.125 50.5143 8.125 48.75V22.5C8.125 20.5202 9.56997 19.0967 11.0284 18.1681C12.5687 17.1874 14.6587 16.3996 17.0444 15.802L17.9556 19.4396C15.769 19.9874 14.109 20.6523 13.0424 21.3314C12.5119 21.6692 12.197 21.9673 12.028 22.1922C11.8844 22.3834 11.8754 22.479 11.875 22.4969L11.875 25C11.8752 25.0144 11.8801 25.0876 11.975 25.2324C12.0861 25.4022 12.3019 25.641 12.6859 25.9247C13.4639 26.4995 14.7094 27.0961 16.4171 27.6298ZM44.7014 31.2091C45.9618 30.8152 47.1229 30.3549 48.125 29.8231V48.75C48.125 49.0568 47.9659 49.5735 47.1844 50.2663C46.4051 50.9573 45.1704 51.6652 43.4838 52.2977C42.2819 52.7484 40.8998 53.1425 39.375 53.4628V46.25C39.375 42.453 36.297 39.375 32.5 39.375H27.5C23.703 39.375 20.625 42.453 20.625 46.25V53.4628C19.1002 53.1425 17.7181 52.7484 16.5162 52.2977C14.8296 51.6652 13.5949 50.9573 12.8156 50.2663C12.0341 49.5735 11.875 49.0568 11.875 48.75L11.875 29.8231C12.8771 30.3549 14.0382 30.8152 15.2986 31.2091C19.1441 32.4108 24.3415 33.125 30 33.125C35.6585 33.125 40.8559 32.4108 44.7014 31.2091ZM24.375 54.0626C26.1433 54.2647 28.0318 54.375 30 54.375C31.9682 54.375 33.8567 54.2647 35.625 54.0626V46.25C35.625 44.5241 34.2259 43.125 32.5 43.125H27.5C25.7741 43.125 24.375 44.5241 24.375 46.25V54.0626Z" fill="#8A8A8A"/>
</svg>
