<svg width="16" height="16" viewBox="0 0 16 16" fill="none" xmlns="http://www.w3.org/2000/svg">
<path d="M5 3.00004H4.83333V1.33337C4.83333 1.06004 4.60667 0.833374 4.33333 0.833374C4.06 0.833374 3.83333 1.06004 3.83333 1.33337V3.00004H3.66667C2.60667 3.00004 2 3.60671 2 4.66671V8.66671C2 9.72671 2.60667 10.3334 3.66667 10.3334H3.83333V14.6667C3.83333 14.94 4.06 15.1667 4.33333 15.1667C4.60667 15.1667 4.83333 14.94 4.83333 14.6667V10.3334H5C6.06 10.3334 6.66667 9.72671 6.66667 8.66671V4.66671C6.66667 3.60671 6.06 3.00004 5 3.00004Z" fill="#016BBF"/>
<path d="M12.3335 5.66671H12.1668V1.33337C12.1668 1.06004 11.9402 0.833374 11.6668 0.833374C11.3935 0.833374 11.1668 1.06004 11.1668 1.33337V5.66671H11.0002C9.94016 5.66671 9.3335 6.27337 9.3335 7.33337V11.3334C9.3335 12.3934 9.94016 13 11.0002 13H11.1668V14.6667C11.1668 14.94 11.3935 15.1667 11.6668 15.1667C11.9402 15.1667 12.1668 14.94 12.1668 14.6667V13H12.3335C13.3935 13 14.0002 12.3934 14.0002 11.3334V7.33337C14.0002 6.27337 13.3935 5.66671 12.3335 5.66671Z" fill="#016BBF"/>
</svg>
