<svg width="20" height="20" viewBox="0 0 20 20" fill="none" xmlns="http://www.w3.org/2000/svg">
<path d="M15 17.5006V16.072C15 15.3142 14.699 14.5875 14.1632 14.0517C13.6273 13.5159 12.9006 13.2148 12.1429 13.2148H7.85714C7.09938 13.2148 6.37266 13.5159 5.83684 14.0517C5.30102 14.5875 5 15.3142 5 16.072V17.5006" stroke="#016BBF" stroke-width="1.5" stroke-linecap="round" stroke-linejoin="round"/>
<path d="M10.3569 11.0731C12.1321 11.0731 13.5711 9.63402 13.5711 7.85882C13.5711 6.08362 12.1321 4.64453 10.3569 4.64453C8.58166 4.64453 7.14258 6.08362 7.14258 7.85882C7.14258 9.63402 8.58166 11.0731 10.3569 11.0731Z" stroke="#016BBF" stroke-width="1.5" stroke-linecap="round" stroke-linejoin="round"/>
<path d="M6.07214 8.92857V7.17085C6.025 4.58971 7.94867 2.5 10.357 2.5C12.7653 2.5 14.3974 4.64023 14.3974 7.17085C14.3974 7.17085 13.0356 8.92857 10.357 8.92857" stroke="#016BBF" stroke-width="1.5" stroke-linecap="round" stroke-linejoin="round"/>
</svg>
