<svg width="28" height="28" viewBox="0 0 28 28" fill="none" xmlns="http://www.w3.org/2000/svg">
<path d="M19.25 10.6271L19.2547 10.6126C20.6936 6.10942 17.8154 2.33398 13.8346 2.33398C11.6424 2.33398 9.65899 3.56873 8.65733 5.5521C8.2346 6.38333 8.02074 7.28743 8.02074 8.24019C8.02074 8.98407 8.16173 9.81032 8.42401 10.6221C9.21157 13.0818 11.2436 15.7215 13.8346 15.7215C14.9673 15.7215 16.1047 15.1917 17.0867 14.2242H14.8068C14.0046 14.2242 13.3485 13.5679 13.3485 12.7659C13.3485 11.9589 14.0046 11.3076 14.8068 11.3076H19.0021C19.0945 11.084 19.1771 10.8556 19.25 10.6271Z" fill="#016BBF"/>
<path d="M23.6883 25.6673C23.9556 25.6673 24.1744 25.4532 24.1744 25.1812C24.1744 24.7582 24.1403 24.3255 24.0724 23.8928C23.4598 19.7367 19.8092 16.6061 15.5847 16.6061H12.0895C7.86527 16.6061 4.21445 19.7367 3.60206 23.8881C3.53418 24.3305 3.5 24.763 3.5 25.1812C3.5 25.4532 3.71861 25.6673 3.98611 25.6673H23.6883Z" fill="#016BBF"/>
<path d="M7.04852 8.24019C7.04852 9.07617 7.20422 10.0047 7.4957 10.9091C6.25123 10.6563 5.3082 9.55255 5.3082 8.23544C5.3082 6.87893 6.29514 5.76097 7.58803 5.54711C7.2282 6.39306 7.04852 7.29716 7.04852 8.24019Z" fill="#016BBF"/>
<path d="M20.6257 8.24019C20.6257 7.29716 20.4458 6.39282 20.0862 5.54711C21.3793 5.76097 22.366 6.87893 22.366 8.23544C22.366 9.01327 22.0318 9.71134 21.506 10.2091V11.7028C21.506 12.5566 20.7698 13.2513 19.865 13.2513H14.8087C14.6972 13.2513 14.5946 13.2138 14.5127 13.1509C14.3971 13.0621 14.3226 12.9223 14.3226 12.7652C14.3226 12.4967 14.54 12.2791 14.8087 12.2791H19.865C20.2338 12.2791 20.5338 12.0206 20.5338 11.7028V10.8039C20.4178 10.8447 20.301 10.8841 20.1785 10.9091C20.4702 9.99498 20.6257 9.07142 20.6257 8.24019Z" fill="#016BBF"/>
</svg>
