<svg width="56" height="48" viewBox="0 0 56 48" fill="none" xmlns="http://www.w3.org/2000/svg">
<g clip-path="url(#clip0_1364_3711)">
<path d="M10.9806 0H51.6083C54.034 0 56.001 1.91074 56.001 4.26718V27.7333C56.001 30.0897 54.034 32.0005 51.6083 32.0005H10.9806C8.55482 32.0005 6.58789 30.0897 6.58789 27.7333V4.26718C6.58789 1.91074 8.55482 0 10.9806 0Z" fill="#CCE1F2"/>
<path d="M10.9806 0H51.6083C54.034 0 56.001 1.91074 56.001 4.26718V9.60081H6.58789V4.26718C6.58789 1.91074 8.55482 0 10.9806 0Z" fill="#7FB4DE"/>
<path d="M4.39267 16.0004H46.1182C48.544 16.0004 50.5109 17.9111 50.5109 20.2675V43.7336C50.5109 46.0901 48.544 48.0008 46.1182 48.0008H4.39267C1.96693 47.9995 0 46.0901 0 43.7336V20.2662C0 17.9098 1.96693 16.0004 4.39267 16.0004Z" fill="#016BBF"/>
<path d="M8.78549 22.4001H17.5695C18.7823 22.4001 19.7651 23.3548 19.7651 24.5331C19.7651 25.7113 18.7823 26.666 17.5695 26.666H8.78549C7.57262 26.666 6.58985 25.7113 6.58985 24.5331C6.58846 23.3548 7.57262 22.4001 8.78549 22.4001Z" fill="#CEE6F9"/>
<path d="M8.78549 28.8003H17.5695C18.7823 28.8003 19.7651 29.755 19.7651 30.9332C19.7651 32.1114 18.7823 33.0661 17.5695 33.0661H8.78549C7.57262 33.0661 6.58985 32.1114 6.58985 30.9332C6.58846 29.755 7.57262 28.8003 8.78549 28.8003Z" fill="#CEE6F9"/>
</g>
<defs>
<clipPath id="clip0_1364_3711">
<rect width="56" height="48" fill="white"/>
</clipPath>
</defs>
</svg>
