<svg width="20" height="20" viewBox="0 0 20 20" fill="none" xmlns="http://www.w3.org/2000/svg">
<path d="M12.175 2.5H7.825C7.315 2.5 6.595 2.8 6.235 3.16L3.16 6.23501C2.8 6.59501 2.5 7.315 2.5 7.825V12.175C2.5 12.685 2.8 13.405 3.16 13.765L6.235 16.84C6.595 17.2 7.315 17.5 7.825 17.5H12.175C12.685 17.5 13.405 17.2 13.765 16.84L16.84 13.765C17.2 13.405 17.5 12.685 17.5 12.175V7.825C17.5 7.315 17.2 6.59501 16.84 6.23501L13.765 3.16C13.405 2.8 12.685 2.5 12.175 2.5Z" stroke="#F68A1F" stroke-width="1.5" stroke-linecap="round" stroke-linejoin="round"/>
<path d="M4.70496 15.3101L15.31 4.70508" stroke="#F68A1F" stroke-width="1.5" stroke-linecap="round" stroke-linejoin="round"/>
</svg>
