<svg width="32" height="32" viewBox="0 0 32 32" fill="none" xmlns="http://www.w3.org/2000/svg">
<path fill-rule="evenodd" clip-rule="evenodd" d="M24.9289 14.2638L27.4485 14.7081C27.928 14.7926 28.2511 15.2542 28.1666 15.7336L27.0536 22.0456C26.5048 25.1581 24.0265 26.5189 21.3413 26.0455L14.4887 24.8372C11.8035 24.3637 9.94013 22.2373 10.4889 19.1248L12.1584 9.65685C12.7072 6.54443 15.1855 5.18356 17.8707 5.65704L21.5672 6.30883C22.0467 6.39338 22.3699 6.85489 22.2853 7.33438L21.8411 9.85397C21.4767 11.9202 22.8627 13.8995 24.9289 14.2638ZM14.9526 19.3006L18.4399 19.9155C18.7973 19.9786 19.146 19.7344 19.209 19.377C19.2721 19.0195 19.0279 18.6708 18.6705 18.6078L15.1832 17.9929C14.8257 17.9299 14.477 18.1741 14.414 18.5315C14.351 18.8889 14.5952 19.2376 14.9526 19.3006ZM15.5675 15.8133L20.7984 16.7357C21.1559 16.7987 21.5046 16.5546 21.5676 16.1971C21.6306 15.8397 21.3864 15.491 21.029 15.428L15.7981 14.5056C15.4407 14.4426 15.0919 14.6868 15.0289 15.0442C14.9659 15.4016 15.2101 15.7503 15.5675 15.8133Z" fill="#99C4E5"/>
<path d="M23.5332 7.2402C23.6208 6.7433 24.2829 6.60832 24.5773 7.02882C25.2954 8.05437 26.372 9.60687 27.3133 10.9643C27.7651 11.6158 28.1858 12.2224 28.5207 12.7042C28.8079 13.1144 28.4433 13.6524 27.9464 13.5648C26.9613 13.3911 25.8105 13.1882 24.9838 13.0334C23.6673 12.8013 22.7723 11.5557 22.9967 10.2829L23.5332 7.2402Z" fill="#99C4E5"/>
<path fill-rule="evenodd" clip-rule="evenodd" d="M17.6315 12.5401L20.1511 12.0958C20.6306 12.0113 21.0921 12.3344 21.1766 12.8139L22.2896 19.1259C22.8384 22.2383 20.975 24.3648 18.2898 24.8382L11.4373 26.0465C8.75203 26.52 6.27374 25.1591 5.72494 22.0467L4.05547 12.5787C3.50667 9.4663 5.37005 7.33988 8.05529 6.8664L11.7518 6.2146C12.2313 6.13006 12.6928 6.45321 12.7774 6.9327L13.2216 9.45229C13.586 11.5185 15.5653 12.9044 17.6315 12.5401ZM9.97953 20.6853L13.4668 20.0704C13.8242 20.0073 14.0684 19.6586 14.0054 19.3012C13.9424 18.9438 13.5937 18.6996 13.2362 18.7626L9.74894 19.3775C9.39151 19.4405 9.14734 19.7893 9.21036 20.1467C9.27339 20.5041 9.6221 20.7483 9.97953 20.6853ZM9.36462 17.198L14.5956 16.2756C14.953 16.2126 15.1972 15.8639 15.1341 15.5064C15.0711 15.149 14.7224 14.9048 14.365 14.9679L9.13403 15.8902C8.77661 15.9532 8.53243 16.302 8.59546 16.6594C8.65848 17.0168 9.0072 17.261 9.36462 17.198Z" fill="#016BBF"/>
<path d="M13.9178 6.4174C13.8301 5.92051 14.4061 5.56722 14.8266 5.86168C15.8521 6.57977 17.3948 7.67042 18.7436 8.62401C19.391 9.08172 19.9938 9.50787 20.4732 9.84607C20.8835 10.1333 20.7249 10.7636 20.228 10.8512C19.2428 11.0249 18.092 11.2278 17.2622 11.3651C15.9458 11.5972 14.6787 10.7329 14.4543 9.46011L13.9178 6.4174Z" fill="#016BBF"/>
<path fill-rule="evenodd" clip-rule="evenodd" d="M9.97885 20.6836L13.4662 20.0687C13.8236 20.0057 14.0677 19.657 14.0047 19.2996C13.9417 18.9422 13.593 18.698 13.2356 18.761L9.74826 19.3759C9.39084 19.4389 9.14667 19.7876 9.20969 20.1451C9.27271 20.5025 9.62143 20.7467 9.97885 20.6836ZM9.36395 17.1963L14.5949 16.274C14.9523 16.211 15.1965 15.8623 15.1335 15.5048C15.0704 15.1474 14.7217 14.9032 14.3643 14.9663L9.13336 15.8886C8.77594 15.9516 8.53176 16.3003 8.59479 16.6578C8.65781 17.0152 9.00652 17.2594 9.36395 17.1963Z" fill="#CEE6F9"/>
</svg>
