<svg width="34" height="34" viewBox="0 0 34 34" fill="none" xmlns="http://www.w3.org/2000/svg">
<path d="M13.8345 3.86114C11.6154 5.28825 10.595 7.40585 10.5132 9.72815C10.5181 11.2153 10.7986 12.3729 11.3435 13.4345C13.4987 17.6316 18.9628 18.4583 22.161 15.0712C24.7892 12.2873 24.8218 7.85104 22.2385 5.02565C20.052 2.63536 16.5407 2.12362 13.8345 3.86114Z" fill="#016BBF"/>
<path d="M19.528 21.3231C22.3031 22.1209 24.1587 23.9385 25.232 26.6243L25.0505 26.7591C24.3082 27.31 24.0332 28.0622 24.1974 28.9473C24.3568 29.8072 24.9097 30.3619 25.7456 30.6031C26.3827 30.7864 27.0273 30.9529 27.6774 31.0827C29.2163 31.389 29.9845 30.8539 30.2705 29.3163C30.455 28.3231 30.3406 27.339 30.1973 26.3549C29.926 24.4795 29.1917 22.8256 27.8779 21.4461C25.9571 19.4294 23.5597 18.2516 20.9186 17.5136C20.8863 17.5045 20.8491 17.5028 20.8102 17.5071C20.7897 17.5093 20.7687 17.5131 20.7477 17.5182C20.6708 17.5367 20.593 17.5724 20.5354 17.6126C18.5113 19.0161 15.9668 19.0205 13.9544 17.6058C13.8876 17.5535 13.8086 17.5189 13.7249 17.5052C13.6412 17.4915 13.5554 17.4989 13.4753 17.527C11.9645 17.9393 10.5223 18.5707 9.19453 19.401C7.52035 20.4553 6.12789 21.7819 5.25328 23.592C4.64745 24.8461 4.4205 26.1945 4.29133 27.5634C4.21937 28.32 4.2237 29.0765 4.44879 29.8146C4.74463 30.7833 5.28034 31.1689 6.28718 31.124C7.31986 31.0779 8.31439 30.8121 9.25357 30.4124C10.6995 29.7973 10.9296 27.77 9.68717 26.8052C9.46455 26.6322 9.44118 26.5068 9.53833 26.2572C11.0624 22.3312 15.4422 20.1489 19.528 21.3231Z" fill="#016BBF"/>
<path d="M13.1327 24.4795C15.5456 22.3691 19.2217 22.4732 21.4974 24.5206L18.6381 27.2883C17.8114 26.8345 16.9811 26.7963 16.1342 27.198C16.0998 27.2105 16.0629 27.2148 16.0266 27.2102C15.9903 27.2059 15.9555 27.1932 15.925 27.1728C15.5341 26.7994 15.1443 26.4246 14.7537 26.0477C14.3614 25.669 13.9683 25.2885 13.5727 24.9052L13.1327 24.4795Z" fill="#016BBF"/>
<path d="M14.2238 30.8157C14.3705 30.8275 14.5186 30.8386 14.6684 30.8496C14.7932 30.859 14.9193 30.8684 15.047 30.8785L15.2602 30.8958L15.2287 30.829L15.2141 30.7975C15.1973 30.761 15.1858 30.736 15.1728 30.7129C14.7134 29.9326 14.6537 29.1304 15.0542 28.3142C15.136 28.147 15.0621 28.0756 14.9637 27.9798L12.5527 25.6222C12.532 25.6017 12.5109 25.5818 12.4897 25.5619C12.4636 25.5376 12.4372 25.5136 12.4108 25.4895C12.3707 25.4533 12.3304 25.417 12.2907 25.3805C12.2583 25.4021 12.228 25.4268 12.2003 25.4542C11.1178 26.8333 10.7063 28.4041 10.881 30.1349C10.8872 30.2221 11.0299 30.3482 11.127 30.366C11.8694 30.5015 12.6142 30.6324 13.3621 30.729C13.6468 30.766 13.9327 30.7924 14.2238 30.8157Z" fill="#016BBF"/>
<path d="M22.3794 25.3401C23.3284 26.5863 23.8309 27.9762 23.7669 29.5371C23.7481 29.9996 23.7857 30.1832 23.711 30.2716C23.6588 30.3331 23.5519 30.3484 23.3332 30.3797C23.24 30.3929 23.1265 30.4092 22.9883 30.4333C22.4991 30.5178 22.008 30.5909 21.5135 30.6596C21.1754 30.7067 20.8358 30.7516 20.4942 30.7968L20.4719 30.7996C20.1106 30.8475 19.7472 30.8955 19.381 30.9469C19.4294 30.8141 19.4771 30.6906 19.5226 30.5731C19.6181 30.3263 19.7036 30.1056 19.7636 29.878C19.9026 29.3533 19.8091 28.8423 19.5791 28.3575C19.5176 28.2253 19.4892 28.1323 19.6153 28.0108C20.5053 27.1497 21.3867 26.2824 22.2718 25.4177C22.3058 25.3894 22.3418 25.3634 22.3794 25.3401Z" fill="#016BBF"/>
<path d="M18.4479 29.927C18.5151 29.7764 18.552 29.614 18.5562 29.4492C18.5648 29.1181 18.442 28.7974 18.2147 28.5566C17.9874 28.3159 17.674 28.1751 17.3431 28.1648C17.0123 28.1547 16.6908 28.2758 16.449 28.5019C16.2073 28.7282 16.0649 29.0407 16.053 29.3716C16.0471 29.5364 16.0738 29.701 16.1316 29.8554C16.1894 30.0099 16.2772 30.1514 16.3898 30.2718C16.5025 30.3924 16.6379 30.4895 16.7882 30.5575C16.8933 30.605 17.0042 30.6377 17.1177 30.6548C17.1666 30.6622 17.216 30.6668 17.2657 30.6682C17.4305 30.6733 17.5948 30.6459 17.7491 30.5873C17.9033 30.5286 18.0444 30.4402 18.1643 30.3268C18.2842 30.2137 18.3806 30.0777 18.4479 29.927Z" fill="#016BBF"/>
</svg>
