<svg width="61" height="60" viewBox="0 0 61 60" fill="none" xmlns="http://www.w3.org/2000/svg">
<circle cx="30.3334" cy="30" r="30" fill="#CEE6F9"/>
<mask id="mask0_1800_10026" style="mask-type:alpha" maskUnits="userSpaceOnUse" x="0" y="0" width="61" height="60">
<circle cx="30.3334" cy="30" r="30" fill="#CEE6F9"/>
</mask>
<g mask="url(#mask0_1800_10026)">
<path d="M15.3334 40.001C15.3334 37.7918 17.1242 36.001 19.3334 36.001H41.3334C43.5425 36.001 45.3334 37.7918 45.3334 40.001V57.501C45.3334 59.7101 43.5425 61.501 41.3334 61.501H19.3334C17.1242 61.501 15.3334 59.7101 15.3334 57.501V40.001Z" fill="#043053"/>
<rect x="25.8334" y="28.501" width="9" height="7.5" fill="#D29D92"/>
<path d="M22.8334 19.001C22.8334 16.7918 24.6242 15.001 26.8334 15.001H33.8334C36.0425 15.001 37.8334 16.7918 37.8334 19.001V29.001C37.8334 31.2101 36.0425 33.001 33.8334 33.001H26.8334C24.6242 33.001 22.8334 31.2101 22.8334 29.001V19.001Z" fill="#DDA99E"/>
<path d="M35.5834 22.5L38.5834 20.25" stroke="white"/>
<path d="M25.0834 22.5L22.0834 20.25" stroke="white"/>
<path d="M21.3334 17C21.3334 14.2386 23.572 12 26.3334 12H34.3334C37.0948 12 39.3334 14.2386 39.3334 17V18H21.3334V17Z" fill="black"/>
<circle cx="27.3334" cy="22.501" r="1.5" fill="black"/>
<circle cx="27.3334" cy="22.5" r="2.25" stroke="white"/>
<path d="M29.5834 22.4997C29.5834 22.4997 30.3334 22.1246 31.0834 22.4997" stroke="white"/>
<circle cx="33.3334" cy="22.5" r="2.25" stroke="white"/>
<circle cx="33.3334" cy="22.501" r="1.5" fill="black"/>
<path d="M22.8334 24.75C22.0049 24.75 21.3334 24.0784 21.3334 23.25V16.5C21.3334 16.0858 21.6692 15.75 22.0834 15.75C22.4976 15.75 22.8334 16.0858 22.8334 16.5V24.75Z" fill="black"/>
<path d="M37.8334 17.25C37.8334 16.8358 38.1692 16.5 38.5834 16.5C38.9976 16.5 39.3334 16.8358 39.3334 17.25V23.25C39.3334 24.0784 38.6618 24.75 37.8334 24.75V17.25Z" fill="black"/>
</g>
<rect x="27.3334" y="28.499" width="6" height="1.5" rx="0.75" fill="black"/>
<circle cx="30.3334" cy="43.499" r="1.5" fill="#CEE6F9"/>
<circle cx="30.3334" cy="49.501" r="1.5" fill="#CEE6F9"/>
<circle cx="30.3334" cy="55.501" r="1.5" fill="#CEE6F9"/>
</svg>
