<svg width="60" height="60" viewBox="0 0 60 60" fill="none" xmlns="http://www.w3.org/2000/svg">
<circle cx="30" cy="30" r="30" fill="#D8EBFA"/>
<mask id="mask0_1800_16973" style="mask-type:alpha" maskUnits="userSpaceOnUse" x="0" y="0" width="60" height="60">
<circle cx="30" cy="30" r="30" fill="#CEE6F9"/>
</mask>
<g mask="url(#mask0_1800_16973)">
<path d="M15 40.001C15 37.7918 16.7909 36.001 19 36.001H41C43.2091 36.001 45 37.7918 45 40.001V57.501C45 59.7101 43.2091 61.501 41 61.501H19C16.7909 61.501 15 59.7101 15 57.501V40.001Z" fill="#016BBF"/>
<rect x="25.5" y="28.501" width="9" height="7.5" fill="#EFC5BC"/>
<path d="M22.5 19.001C22.5 16.7918 24.2909 15.001 26.5 15.001H33.5C35.7091 15.001 37.5 16.7918 37.5 19.001V29.001C37.5 31.2101 35.7091 33.001 33.5 33.001H26.5C24.2909 33.001 22.5 31.2101 22.5 29.001V19.001Z" fill="#F3D1CA"/>
<path d="M21 15C21 13.3431 22.3431 12 24 12H39V15C39 16.6569 37.6569 18 36 18H24C22.3431 18 21 16.6569 21 15Z" fill="black"/>
<path d="M21 15.001C22.6569 15.001 24 16.3441 24 18.001V25.501C24 26.3294 23.3284 27.001 22.5 27.001C21.6716 27.001 21 26.3294 21 25.501V15.001Z" fill="black"/>
<path d="M36.0001 17.999C36.0001 17.1706 36.6717 16.499 37.5001 16.499C38.3285 16.499 39.0001 17.1706 39.0001 17.999V23.999C39.0001 25.6559 37.657 26.999 36.0001 26.999V17.999Z" fill="black"/>
<circle cx="27" cy="22.501" r="1.5" fill="black"/>
<circle cx="33" cy="22.501" r="1.5" fill="black"/>
</g>
<rect x="27" y="28.499" width="6" height="1.5" rx="0.75" fill="black"/>
<circle cx="30" cy="43.499" r="1.5" fill="#CEE6F9"/>
<circle cx="30" cy="49.501" r="1.5" fill="#CEE6F9"/>
<circle cx="30" cy="55.501" r="1.5" fill="#CEE6F9"/>
</svg>
