<svg width="61" height="60" viewBox="0 0 61 60" fill="none" xmlns="http://www.w3.org/2000/svg">
<path fill-rule="evenodd" clip-rule="evenodd" d="M21.5889 9.42963C21.837 8.65249 22.5592 8.125 23.375 8.125H37.125C37.7277 8.125 38.2937 8.41473 38.6461 8.90367C38.9985 9.39261 39.0944 10.0211 38.9038 10.5929L35.2528 21.5461H47.1908C47.9131 21.5461 48.5713 21.961 48.8826 22.6128C49.194 23.2646 49.1033 24.0372 48.6494 24.5992L25.1626 53.6781C24.6252 54.3434 23.7058 54.5608 22.9274 54.2066C22.149 53.8524 21.7089 53.0164 21.8575 52.1742L24.8244 35.3618H15.875C15.2765 35.3618 14.7139 35.0761 14.3609 34.5928C14.0079 34.1095 13.9068 33.4866 14.0889 32.9165L21.5889 9.42963ZM24.7446 11.875L18.442 31.6118H27.0592C27.6135 31.6118 28.1394 31.8571 28.4956 32.2817C28.8519 32.7063 29.002 33.2668 28.9057 33.8127L26.814 45.6654L43.2662 25.2961H32.6513C32.0486 25.2961 31.4827 25.0063 31.1302 24.5174C30.7778 24.0284 30.682 23.3999 30.8725 22.8281L34.5236 11.875H24.7446Z" fill="#8A8A8A"/>
</svg>
