<svg width="34" height="34" viewBox="0 0 34 34" fill="none" xmlns="http://www.w3.org/2000/svg">
<path d="M21.0376 5.59548V10.9788H18.9126V5.59548C18.9126 5.21298 18.5726 5.02881 18.3459 5.02881C18.2751 5.02881 18.2042 5.04297 18.1334 5.07131L6.89925 9.30714C6.14841 9.59048 5.66675 10.2988 5.66675 11.1063V12.0555C4.37758 13.0188 3.54175 14.563 3.54175 16.3055V11.1063C3.54175 9.42048 4.57591 7.91881 6.14842 7.32381L17.3967 3.07381C17.7084 2.96048 18.0342 2.90381 18.3459 2.90381C19.7626 2.90381 21.0376 4.05131 21.0376 5.59548Z" fill="#016BBF"/>
<path d="M30.4581 20.5418V21.9585C30.4581 22.341 30.1606 22.6527 29.764 22.6668H27.6956C26.9448 22.6668 26.2648 22.1143 26.2081 21.3777C26.1656 20.9385 26.3356 20.5277 26.619 20.2443C26.874 19.9752 27.2281 19.8335 27.6106 19.8335H29.7498C30.1606 19.8477 30.4581 20.1593 30.4581 20.5418Z" fill="#016BBF"/>
<path fill-rule="evenodd" clip-rule="evenodd" d="M29.0417 18.3457H27.5967C26.8034 18.3457 26.0809 18.6573 25.5567 19.1957C24.8484 19.8898 24.4942 20.924 24.7917 22.0007C25.1459 23.3182 26.4492 24.154 27.8092 24.154H29.0417C29.8209 24.154 30.4584 24.7915 30.4584 25.5707V25.8398C30.4584 28.7723 28.0642 31.1665 25.1317 31.1665H8.86841C5.93591 31.1665 3.54175 28.7723 3.54175 25.8398V16.3055C3.54175 14.563 4.37758 13.0188 5.66675 12.0555C6.55925 11.3755 7.66425 10.979 8.86841 10.979H25.1317C28.0642 10.979 30.4584 13.3732 30.4584 16.3057V16.929C30.4584 17.7082 29.8209 18.3457 29.0417 18.3457ZM9.91675 18.0623H19.8334C20.4142 18.0623 20.8959 17.5807 20.8959 16.9998C20.8959 16.419 20.4142 15.9373 19.8334 15.9373H9.91675C9.33591 15.9373 8.85425 16.419 8.85425 16.9998C8.85425 17.5807 9.33591 18.0623 9.91675 18.0623Z" fill="#016BBF"/>
</svg>
