<svg width="61" height="60" viewBox="0 0 61 60" fill="none" xmlns="http://www.w3.org/2000/svg">
<path fill-rule="evenodd" clip-rule="evenodd" d="M38.7012 20.856C38.0598 16.8719 36.5106 12.998 34.9013 9.90133C33.846 7.87065 32.7648 6.17417 31.8967 5C31.8967 6.38023 31.5095 8.27412 30.8787 10.3501C28.2371 19.0427 21.3224 30.9276 20.6662 21.6586C20.6483 21.4061 20.6351 21.1378 20.6267 20.8534C20.6192 20.5969 20.6117 20.3531 20.6041 20.1217C20.6033 20.096 20.6024 20.0705 20.6016 20.0451C20.4512 15.522 20.2579 15.7914 18.8279 17.7843C18.6883 17.9789 18.5369 18.1898 18.3726 18.4144C18.1549 18.712 17.9431 19.0081 17.7371 19.3028C17.4346 19.7354 17.1447 20.1648 16.8671 20.591C2.97978 41.9086 19.8661 55 30.7696 55C47.6744 55 50.1821 41.6645 48.8016 34.2685C48.5974 33.1741 48.2981 31.8854 47.9826 30.5262C47.1829 27.082 46.2783 23.1856 46.5476 20.8538C45.9357 20.4123 45.2738 20.3787 44.5984 20.6286C43.9847 20.8557 43.3599 21.3169 42.7514 21.9189C42.7124 21.9576 42.6734 21.9968 42.6345 22.0366C40.9977 23.7097 39.4926 26.366 38.6587 28.1709C39.1467 25.7942 39.0954 23.3043 38.7012 20.856ZM43.4129 27.2244C42.8836 28.0913 42.4129 28.9863 42.0628 29.7438C41.264 31.4726 39.2963 32.3281 37.4872 31.7332C35.6782 31.1383 34.6022 29.282 34.9853 27.4165C35.6879 23.9953 34.986 19.9845 33.5614 16.1118C33.4389 15.7788 33.3122 15.4498 33.1821 15.1257C32.1673 17.7255 30.9219 20.3518 29.6388 22.5303C28.8825 23.8144 28.0572 25.0385 27.198 26.0304C26.4679 26.8731 25.2275 28.1355 23.5445 28.5975C22.5459 28.8717 21.3031 28.882 20.094 28.2592C19.0393 27.7159 18.3799 26.8798 17.9752 26.1463C14.1482 33.7329 15.0827 39.421 17.3681 43.266C20.4255 48.4099 26.4097 51.25 30.7696 51.25C38.0783 51.25 41.626 48.4655 43.4312 45.4715C45.4034 42.2004 45.6854 38.011 45.1153 34.9566C44.9153 33.885 44.6547 32.769 44.363 31.5197C44.1223 30.4889 43.8605 29.3673 43.5939 28.105C43.5336 27.819 43.4727 27.5248 43.4129 27.2244Z" fill="#8A8A8A"/>
</svg>
