<svg width="61" height="60" viewBox="0 0 61 60" fill="none" xmlns="http://www.w3.org/2000/svg">
<path fill-rule="evenodd" clip-rule="evenodd" d="M9.48425 13.7343C9.64174 13.5768 9.85535 13.4883 10.0781 13.4883H36.2408V41.0075H24.5182C24.2106 39.8285 23.5938 38.741 22.7175 37.8646C21.4212 36.5684 19.6631 35.8401 17.8299 35.8401C15.9966 35.8401 14.2385 36.5684 12.9422 37.8646C12.0659 38.741 11.4491 39.8285 11.1415 41.0076H9.23828V14.3281C9.23828 14.1053 9.32676 13.8917 9.48425 13.7343Z" fill="#B3D3EC"/>
<path d="M23.9112 17.5606C23.4781 17.5421 23.0465 17.6266 22.6522 17.8073C22.2579 17.988 21.9119 18.26 21.6436 18.6015C21.6155 18.6373 21.5895 18.6747 21.5658 18.7135L21.1028 19.4712C20.768 20.0192 20.9408 20.7349 21.4888 21.0697C22.0367 21.4046 22.7524 21.2318 23.0873 20.6838L23.5028 20.0038C23.5363 19.97 23.5763 19.9419 23.6212 19.9214C23.6805 19.8942 23.746 19.8812 23.8122 19.8841C23.8783 19.8869 23.9423 19.9053 23.9987 19.9373C24.049 19.9657 24.0916 20.004 24.1244 20.0488L26.2896 23.7652C25.8586 23.8423 25.4896 24.1608 25.3698 24.6119C25.205 25.2325 25.5746 25.8693 26.1952 26.0341L28.2964 26.592C28.5949 26.6825 28.9287 26.6534 29.2194 26.484C29.5035 26.3185 29.6914 26.0511 29.7637 25.755L30.3298 23.6611C30.4974 23.0411 30.1307 22.4027 29.5108 22.2351C29.0569 22.1124 28.5932 22.2761 28.3115 22.6158L26.1135 18.8431C26.1033 18.8257 26.0927 18.8085 26.0816 18.7916C25.8437 18.4281 25.5221 18.1274 25.1446 17.9136C24.7672 17.6999 24.3443 17.5791 23.9112 17.5606Z" fill="#016BBF"/>
<path d="M20.4926 21.6267C20.3851 21.6269 20.2784 21.6419 20.1756 21.6711L18.0546 22.2342C17.4339 22.399 17.0644 23.0358 17.2292 23.6565C17.3489 24.1076 17.718 24.426 18.149 24.5031L15.963 28.2552C15.9528 28.2726 15.9431 28.2903 15.9339 28.3082C15.7349 28.6946 15.6318 29.1231 15.6337 29.5579C15.6356 29.9927 15.7424 30.4204 15.9446 30.805C16.1469 31.1896 16.4384 31.5196 16.794 31.7682C17.1497 32.0167 17.5593 32.1769 17.9887 32.2361C18.0333 32.2422 18.0782 32.2458 18.1232 32.2467L19.0171 32.2653C19.6591 32.2787 20.1905 31.7691 20.2039 31.127C20.2172 30.485 19.7076 29.9536 19.0656 29.9403L18.2611 29.9235C18.2125 29.9112 18.1668 29.8903 18.1264 29.862C18.0737 29.8252 18.0317 29.7772 18.003 29.7226C17.9743 29.6681 17.9595 29.6082 17.9593 29.5479C17.959 29.4941 17.9703 29.4407 17.9927 29.391L20.1708 25.6525C20.4525 25.9923 20.9163 26.156 21.3702 26.0333C21.9901 25.8656 22.3568 25.2272 22.1892 24.6073L21.6157 22.4863C21.4755 21.9677 21.0057 21.6261 20.4926 21.6267Z" fill="#016BBF"/>
<path d="M21.1385 31.7374C21.1924 31.8304 21.2587 31.9153 21.3354 31.9897L22.8836 33.545C23.3367 34.0001 24.0729 34.0018 24.528 33.5487C24.8588 33.2194 24.95 32.7406 24.8013 32.3288L29.1437 32.3459C29.1588 32.346 29.1739 32.3458 29.1891 32.3452L29.1966 32.3449L29.2042 32.3446C29.6382 32.3237 30.0609 32.1987 30.4365 31.9797C30.8122 31.7607 31.1291 31.4544 31.3611 31.0869C31.593 30.7195 31.733 30.302 31.7705 29.8697C31.8079 29.4375 31.7418 29.0026 31.5784 28.6011C31.5614 28.5594 31.542 28.5188 31.5203 28.4793L31.0895 27.6959C30.7801 27.1332 30.0731 26.9279 29.5103 27.2373C28.9476 27.5467 28.7423 28.2537 29.0517 28.8165L29.4394 29.5215C29.4531 29.5698 29.4579 29.6198 29.4536 29.6689C29.448 29.733 29.4274 29.7934 29.3945 29.8455C29.3617 29.8976 29.3172 29.9403 29.2651 29.9707C29.2186 29.9978 29.1667 30.0147 29.1125 30.0202L24.7858 30.0032C24.9392 29.5893 24.8491 29.1058 24.5159 28.7741C24.0607 28.321 23.3245 28.3227 22.8714 28.7778L21.3213 30.3349C20.9423 30.7156 20.8814 31.2933 21.1385 31.7374Z" fill="#016BBF"/>
<path fill-rule="evenodd" clip-rule="evenodd" d="M24.5185 44.4959H36.9815C37.289 45.6754 37.9059 46.7633 38.7825 47.6399C40.0788 48.9362 41.8369 49.6644 43.6701 49.6644C45.5033 49.6644 47.2615 48.9362 48.5577 47.6399C49.4344 46.7633 50.0512 45.6754 50.3587 44.4959H54.0058C54.9691 44.4959 55.75 43.715 55.75 42.7518V29.186C55.75 28.8121 55.6299 28.4482 55.4074 28.1478L47.6555 17.6827C47.3265 17.2386 46.8066 16.9767 46.2539 16.9767H39.7292V11.7442C39.7292 10.7809 38.9483 10 37.985 10H10.0781C8.93025 10 7.82937 10.456 7.01769 11.2677C6.206 12.0794 5.75 13.1803 5.75 14.3281V42.7518C5.75 43.7151 6.5309 44.496 7.49418 44.496H11.1413C11.4489 45.6754 12.0657 46.7633 12.9423 47.6399C14.2386 48.9362 15.9967 49.6644 17.8299 49.6644C19.6631 49.6644 21.4213 48.9362 22.7175 47.6399C23.5942 46.7633 24.211 45.6754 24.5185 44.4959ZM9.48433 13.7343C9.64182 13.5768 9.85542 13.4884 10.0781 13.4884H36.2408V41.0076H24.5182C24.2106 39.8285 23.5939 38.7411 22.7175 37.8647C21.4213 36.5684 19.6631 35.8402 17.8299 35.8402C15.9967 35.8402 14.2386 36.5684 12.9423 37.8647C12.0659 38.7411 11.4492 39.8286 11.1416 41.0076H9.23836V14.3281C9.23836 14.1054 9.32684 13.8918 9.48433 13.7343ZM52.2616 41.0076H50.3584C50.0508 39.8285 49.4341 38.7411 48.5577 37.8647C47.2615 36.5684 45.5033 35.8402 43.6701 35.8402C42.2518 35.8402 40.8785 36.2761 39.7292 37.0737V30.9302H52.2616V41.0076ZM50.5433 27.4418H39.7292V20.4651H45.3753L50.5433 27.4418ZM14.4062 42.7692L14.4063 42.7518L14.4062 42.7348C14.4108 41.8331 14.771 40.9693 15.409 40.3314C16.051 39.6893 16.9219 39.3286 17.8299 39.3286C18.738 39.3286 19.6088 39.6893 20.2509 40.3314C20.893 40.9734 21.2537 41.8443 21.2537 42.7523C21.2537 43.6604 20.893 44.5312 20.2509 45.1733C19.6088 45.8154 18.738 46.1761 17.8299 46.1761C16.9219 46.1761 16.051 45.8154 15.409 45.1733C14.7709 44.5352 14.4107 43.6711 14.4062 42.7692ZM43.6701 39.3286C42.7621 39.3286 41.8913 39.6893 41.2492 40.3314C40.6071 40.9734 40.2464 41.8443 40.2464 42.7523C40.2464 43.6604 40.6071 44.5312 41.2492 45.1733C41.8913 45.8154 42.7621 46.1761 43.6701 46.1761C44.5782 46.1761 45.449 45.8154 46.0911 45.1733C46.7332 44.5312 47.0939 43.6604 47.0939 42.7523C47.0939 41.8443 46.7332 40.9734 46.0911 40.3314C45.449 39.6893 44.5782 39.3286 43.6701 39.3286Z" fill="#016BBF"/>
</svg>
