<svg width="50" height="50" viewBox="0 0 50 50" fill="none" xmlns="http://www.w3.org/2000/svg">
<path d="M25.0718 10.4178C25.2278 10.431 25.379 10.4942 25.4983 10.5955L41.4162 24.2394C41.7171 24.4998 41.7536 25.0106 41.4932 25.3112C41.2328 25.612 40.722 25.6485 40.4211 25.3881L25.0006 12.1705L9.58007 25.3881C9.27922 25.6485 8.76874 25.6118 8.50805 25.3112C8.24764 25.0103 8.28439 24.4999 8.58498 24.2394L14.7677 18.945V10.4412H17.7998V16.3392L24.5034 10.595C24.6586 10.4625 24.8691 10.3972 25.0718 10.4178ZM25.0007 13.4499L37.1287 23.6828V40.4958C37.1287 41.0481 36.681 41.4958 36.1287 41.4958H13.8727C13.3205 41.4958 12.8727 41.0481 12.8727 40.4958V23.6828L25.0007 13.4499Z" fill="#016BBF"/>
<path d="M30.6892 26.9531C30.6892 26.4008 30.2415 25.9531 29.6892 25.9531H27.1413C26.589 25.9531 26.1413 26.4008 26.1413 26.9531V29.501C26.1413 30.0533 26.589 30.501 27.1413 30.501H29.6892C30.2415 30.501 30.6892 30.0533 30.6892 29.501V26.9531ZM23.8673 26.9531C23.8673 26.4008 23.4195 25.9531 22.8673 25.9531H20.3193C19.7671 25.9531 19.3193 26.4008 19.3193 26.9531V29.501C19.3193 30.0533 19.7671 30.501 20.3193 30.501H22.8673C23.4195 30.501 23.8673 30.0533 23.8673 29.501V26.9531ZM30.6892 33.7751C30.6892 33.2228 30.2415 32.7751 29.6892 32.7751H27.1413C26.589 32.7751 26.1413 33.2228 26.1413 33.7751V36.323C26.1413 36.8753 26.589 37.323 27.1413 37.323H29.6892C30.2415 37.323 30.6892 36.8753 30.6892 36.323V33.7751ZM23.8673 33.7751C23.8673 33.2228 23.4195 32.7751 22.8673 32.7751H20.3193C19.7671 32.7751 19.3193 33.2228 19.3193 33.7751V36.323C19.3193 36.8753 19.7671 37.323 20.3193 37.323H22.8673C23.4195 37.323 23.8673 36.8753 23.8673 36.323V33.7751Z" fill="#CEE6F9"/>
</svg>
