<svg width="54" height="51" viewBox="0 0 54 51" fill="none" xmlns="http://www.w3.org/2000/svg">
<path d="M27.1126 0.672004C27.3622 0.693153 27.6041 0.794248 27.7949 0.956253L53.2636 22.7866C53.745 23.2033 53.8034 24.0205 53.3867 24.5014C52.9701 24.9828 52.1528 25.0412 51.6715 24.6245L26.9986 3.47635L2.32577 24.6245C1.84441 25.0412 1.02765 24.9824 0.610532 24.5014C0.193882 24.0201 0.25268 23.2033 0.73362 22.7866L10.626 14.3154V0.709363H15.4773V10.1462L26.2031 0.955495C26.4514 0.743581 26.7882 0.639009 27.1126 0.672004ZM26.9988 5.5233L46.4036 21.8961V49.3968C46.4036 49.9491 45.9559 50.3968 45.4036 50.3968H8.59405C8.04176 50.3968 7.59405 49.9491 7.59405 49.3968V21.8961L26.9988 5.5233Z" fill="#016BBF"/>
<path d="M36.1001 26.5342C36.1001 25.9819 35.6523 25.5342 35.1001 25.5342H29.8234C29.2711 25.5342 28.8234 25.9819 28.8234 26.5342V31.8109C28.8234 32.3631 29.2711 32.8109 29.8234 32.8109H35.1001C35.6523 32.8109 36.1001 32.3631 36.1001 31.8109V26.5342ZM25.1849 26.5342C25.1849 25.9819 24.7372 25.5342 24.1849 25.5342H18.9082C18.3559 25.5342 17.9082 25.9819 17.9082 26.5342V31.8109C17.9082 32.3631 18.3559 32.8109 18.9082 32.8109H24.1849C24.7372 32.8109 25.1849 32.3631 25.1849 31.8109V26.5342ZM36.1001 37.4494C36.1001 36.8971 35.6523 36.4494 35.1001 36.4494H29.8234C29.2711 36.4494 28.8234 36.8971 28.8234 37.4494V42.726C28.8234 43.2783 29.2711 43.726 29.8234 43.726H35.1001C35.6523 43.726 36.1001 43.2783 36.1001 42.726V37.4494ZM25.1849 37.4494C25.1849 36.8971 24.7372 36.4494 24.1849 36.4494H18.9082C18.3559 36.4494 17.9082 36.8971 17.9082 37.4494V42.726C17.9082 43.2783 18.3559 43.726 18.9082 43.726H24.1849C24.7372 43.726 25.1849 43.2783 25.1849 42.726V37.4494Z" fill="#CEE6F9"/>
</svg>
