<svg width="14" height="14" viewBox="0 0 14 14" fill="none" xmlns="http://www.w3.org/2000/svg">
<path d="M11.0359 1.17418C11.1138 0.991472 11.1906 0.808763 11.2665 0.626055C11.3377 0.438971 11.4603 0.275687 11.6202 0.1549C11.7486 0.0573004 11.9059 0.00481991 12.0673 0.005624C12.5348 0.00795645 13.0022 0.0246717 13.4696 0.00134723C13.9499 -0.0231435 14.0991 0.289405 13.937 0.6832C13.2838 2.27509 12.6489 3.87477 12.0077 5.47133C10.9591 8.0803 9.91132 10.6895 8.86428 13.299C8.78637 13.4934 8.68977 13.6773 8.52227 13.8141C8.38538 13.9332 8.20994 13.9988 8.02836 13.9988C7.52743 13.996 7.0265 13.9988 6.52558 13.9988C6.18163 13.9988 6.01024 13.7546 6.12593 13.4316C6.1976 13.2314 6.27862 13.0343 6.35536 12.8356C6.33159 12.7629 6.37522 12.7042 6.39976 12.6436C6.59998 12.1413 6.80253 11.6403 7.00119 11.1372C7.22322 10.5907 7.44875 10.0449 7.66571 9.49596C7.89293 8.93488 8.11782 8.37315 8.34037 7.81077C8.55889 7.27003 8.7778 6.72929 8.99048 6.18622C9.22692 5.62099 9.44116 5.04682 9.68033 4.48276C9.89898 3.94215 10.1158 3.40063 10.3308 2.85821C10.5346 2.35673 10.7352 1.85331 10.9369 1.35106C10.9619 1.28691 10.9763 1.21694 11.0359 1.17418Z" fill="#016BBF"/>
<path d="M2.69556 13.4551C2.52573 13.8049 2.26008 14.0114 1.84446 13.9993C1.40196 13.9865 0.957903 13.9791 0.516183 13.9993C0.0744639 14.0195 -0.103163 13.7291 0.0592685 13.3314C0.749893 11.6389 1.4265 9.94046 2.10778 8.2436C3.11664 5.73285 4.12524 3.22184 5.13359 0.710574C5.19007 0.570628 5.25045 0.432624 5.34939 0.316779C5.5235 0.115411 5.73151 -0.0015994 6.00807 0.00267675C6.48991 0.0100628 6.97175 0.00267666 7.45359 0.0050091C7.82364 0.0050091 7.99542 0.251471 7.86649 0.596284L2.69556 13.4551Z" fill="#016BBF"/>
<path d="M2.94479 12.8344C2.73717 12.8154 2.52722 12.8546 2.32155 12.8025C1.91995 12.7007 1.6391 12.3003 1.68818 11.8933C1.73921 11.475 2.08784 11.1488 2.50307 11.1414C2.88207 11.1348 3.26147 11.1376 3.64047 11.1364C3.69423 11.0944 3.75733 11.0929 3.82121 11.0929C4.83242 11.0929 5.84375 11.0929 6.85521 11.0929C6.91753 11.0929 6.98336 11.0886 7.03205 11.1418C6.82054 11.711 6.59189 12.2727 6.35584 12.8317L2.94479 12.8344Z" fill="#7FB4DE"/>
<path d="M6.94955 2.86557C6.79063 2.85002 6.63053 2.8749 6.47161 2.83564C6.03924 2.72951 5.77709 2.34232 5.8324 1.87933C5.87837 1.49254 6.24218 1.17688 6.6504 1.17182C6.98072 1.16794 7.31259 1.16794 7.64096 1.16638L10.8156 1.17027C10.8884 1.17027 10.9609 1.17299 11.0337 1.17416C10.8666 1.60177 10.7003 2.02667 10.5312 2.45195C10.4763 2.58995 10.4144 2.72407 10.3567 2.86246C10.3002 2.91183 10.2309 2.9095 10.162 2.9095C9.15517 2.9095 8.14812 2.9095 7.14081 2.9095C7.07771 2.90911 7.00603 2.91727 6.94955 2.86557Z" fill="#7FB4DE"/>
<path d="M4.28314 9.51121C4.14369 9.49527 4.00268 9.52249 3.86285 9.48983C3.42346 9.38759 3.13132 9.00118 3.17768 8.57823C3.22559 8.14168 3.59018 7.82058 4.04359 7.81708C4.3552 7.81513 4.66683 7.81475 4.97611 7.81358C5.0396 7.7681 5.1136 7.77004 5.18645 7.77004C6.17869 7.77004 7.17094 7.77004 8.16319 7.77004C8.23447 7.77004 8.31082 7.75877 8.37002 7.81708L7.69381 9.51005C7.62993 9.55398 7.5567 9.55475 7.48347 9.55475C6.48629 9.55475 5.48937 9.55475 4.49271 9.55475C4.42026 9.55475 4.34547 9.56214 4.28314 9.51121Z" fill="#7FB4DE"/>
<path d="M5.62013 6.18818C5.36577 6.18818 5.11842 6.17691 4.90029 6.0148C4.76184 5.91044 4.65865 5.76635 4.60456 5.60182C4.55046 5.43729 4.54804 5.2602 4.59763 5.09426C4.70124 4.75411 5.01403 4.50376 5.35876 4.49599C5.67427 4.48899 5.98979 4.49171 6.3053 4.48977C6.37013 4.45568 6.44343 4.44096 6.51642 4.4474C7.51178 4.4474 8.50715 4.4474 9.50251 4.4474C9.57379 4.4474 9.65014 4.43651 9.70935 4.49444L9.02534 6.18507C8.96302 6.23289 8.8894 6.23133 8.81617 6.23133C7.82107 6.23133 6.82557 6.23133 5.82969 6.23133C5.75646 6.23211 5.6805 6.24299 5.62013 6.18818Z" fill="#7FB4DE"/>
</svg>
