<svg width="68" height="55" viewBox="0 0 68 55" fill="none" xmlns="http://www.w3.org/2000/svg">
<path d="M24.0859 46.025C26.5197 44.8156 31.6554 42.9787 39.9467 43.4966C50.6409 44.1565 61.8216 34.0584 66.1408 29.6931C66.942 28.8919 67.3344 27.8246 67.3344 26.7565C67.3344 25.9402 67.0991 25.1232 66.612 24.4167C65.9679 23.4591 64.9788 22.815 63.8324 22.6263C62.6862 22.4219 61.5551 22.7045 60.629 23.3959L53.0595 29.0646C52.6829 32.7394 50.0913 34.7334 48.38 35.3618C48.3327 35.3933 48.3018 35.4091 48.2544 35.4091C48.2071 35.4249 48.1762 35.4407 48.1289 35.4407C48.0507 35.4722 47.9876 35.4722 47.8936 35.488H47.8305L32.3779 36.0374H32.3306C31.624 36.0374 31.0273 35.4722 31.0115 34.7499C30.9799 33.996 31.5609 33.3835 32.299 33.3677L47.5472 32.834C48.1282 32.5987 50.1231 31.578 50.4056 28.8925C50.5469 27.6049 49.6201 26.3641 48.3168 26.2069H48.2853C45.647 25.8928 41.5951 25.4531 37.3086 25.2644C33.555 25.0758 32.1103 24.0708 30.6973 23.0975C29.4722 22.2496 28.2004 21.3545 25.8765 21.3545C19.5004 21.3545 13.8633 26.3798 11.2559 29.1277L12.4652 30.6355L24.0859 46.025Z" fill="#CEE6F9"/>
<path d="M16.8478 54.1274C17.068 54.4101 17.3973 54.5987 17.7588 54.6302H17.9001C18.2142 54.6302 18.4968 54.5205 18.7321 54.3319L22.972 51.0811C23.5215 50.6257 23.6161 49.7936 23.1764 49.2435L10.3779 32.2833L7.34723 28.4989C7.12705 28.2162 6.782 28.0276 6.42051 28.0118C6.0748 27.9645 5.69819 28.09 5.43135 28.326L1.12838 31.8594C0.594688 32.3306 0.515825 33.1312 0.939745 33.6813L16.8478 54.1274Z" fill="#016BBF"/>
<path d="M52.5627 0.333984C50.5185 0.333984 48.6888 1.32594 47.5481 2.84769C46.4074 1.32594 44.5777 0.333984 42.5335 0.333984C39.0662 0.333984 36.2539 3.15203 36.2539 6.63514C36.2539 7.97654 36.4685 9.21648 36.8412 10.3662C38.6257 16.0023 44.1259 19.3727 46.8478 20.2971C47.2318 20.4323 47.8643 20.4323 48.2483 20.2971C50.9702 19.3727 56.4705 16.0023 58.255 10.3662C58.6277 9.21648 58.8423 7.97654 58.8423 6.63514C58.8423 3.15203 56.03 0.333984 52.5627 0.333984Z" fill="#016BBF"/>
</svg>
