<svg width="24" height="24" viewBox="0 0 24 24" fill="none" xmlns="http://www.w3.org/2000/svg">
<path d="M8.85 18.2542H8.4C4.8 18.2542 3 17.3569 3 12.8704V8.38385C3 4.79462 4.8 3 8.4 3H15.6C19.2 3 21 4.79462 21 8.38385V12.8704C21 16.4596 19.2 18.2542 15.6 18.2542H15.15C14.871 18.2542 14.601 18.3888 14.43 18.6132L13.08 20.4078C12.486 21.1974 11.514 21.1974 10.92 20.4078L9.57 18.6132C9.426 18.4158 9.093 18.2542 8.85 18.2542Z" stroke="#016BBF" stroke-width="2" stroke-linecap="round" stroke-linejoin="round"/>
<path d="M15.5967 11.0757H15.6048" stroke="#016BBF" stroke-width="2" stroke-linecap="round" stroke-linejoin="round"/>
<path d="M11.9961 11.0757H12.0042" stroke="#016BBF" stroke-width="2" stroke-linecap="round" stroke-linejoin="round"/>
<path d="M8.39513 11.0757H8.40321" stroke="#016BBF" stroke-width="2" stroke-linecap="round" stroke-linejoin="round"/>
</svg>
