<svg xmlns="http://www.w3.org/2000/svg" width="25.333" height="24.34" viewBox="0 0 25.333 24.34">
  <g id="message-question" transform="translate(-1.333 -1.835)">
    <path id="Path_1" data-name="Path 1" d="M19.833,21.5H15.166L9.975,24.955a1.163,1.163,0,0,1-1.808-.968V21.5a5.511,5.511,0,0,1-5.833-5.833v-7A5.511,5.511,0,0,1,8.166,2.835H19.833a5.511,5.511,0,0,1,5.833,5.833v7A5.511,5.511,0,0,1,19.833,21.5Z" fill="rgba(232,15,15,0)" stroke="#016bbf" stroke-linecap="round" stroke-linejoin="round" stroke-width="2"/>
    <path id="Path_2" data-name="Path 2" d="M14,13.253v-.245a1.828,1.828,0,0,1,.98-1.552,1.788,1.788,0,0,0,.957-1.517,1.937,1.937,0,1,0-3.873,0" fill="rgba(232,15,15,0)" stroke="#016bbf" stroke-linecap="round" stroke-linejoin="round" stroke-width="2"/>
    <path id="Path_3" data-name="Path 3" d="M14,16.042h.01" fill="rgba(232,15,15,0)" stroke="#016bbf" stroke-linecap="round" stroke-linejoin="round" stroke-width="2"/>
  </g>
</svg>
