<svg width="20" height="20" viewBox="0 0 20 20" fill="none" xmlns="http://www.w3.org/2000/svg">
<path d="M6.85 16.2542H6.4C2.8 16.2542 1 15.3569 1 10.8704V6.38385C1 2.79462 2.8 1 6.4 1H13.6C17.2 1 19 2.79462 19 6.38385V10.8704C19 14.4596 17.2 16.2542 13.6 16.2542H13.15C12.871 16.2542 12.601 16.3888 12.43 16.6132L11.08 18.4078C10.486 19.1974 9.514 19.1974 8.92 18.4078L7.57 16.6132C7.426 16.4158 7.093 16.2542 6.85 16.2542Z" stroke="#016BBF" stroke-width="2" stroke-linecap="round" stroke-linejoin="round"/>
<path d="M13.5967 9.07573H13.6048" stroke="#016BBF" stroke-width="2" stroke-linecap="round" stroke-linejoin="round"/>
<path d="M9.99608 9.07573H10.0042" stroke="#016BBF" stroke-width="2" stroke-linecap="round" stroke-linejoin="round"/>
<path d="M6.39513 9.07573H6.40321" stroke="#016BBF" stroke-width="2" stroke-linecap="round" stroke-linejoin="round"/>
</svg>
