<svg width="34" height="34" viewBox="0 0 34 34" fill="none" xmlns="http://www.w3.org/2000/svg">
<path fill-rule="evenodd" clip-rule="evenodd" d="M9.91659 5.6665H24.0833C28.3333 5.6665 31.1666 7.7915 31.1666 12.7498V21.264C31.1666 26.2223 28.3333 28.3473 24.0833 28.3473H15.3141C14.8608 28.3473 14.5066 27.9365 14.6199 27.4973C14.7758 26.9307 14.8608 26.3498 14.8749 25.7548C14.9741 21.9723 12.2399 18.5157 8.51409 17.8498C6.82825 17.5523 5.22742 17.7932 3.83909 18.4307C3.37159 18.6432 2.83325 18.3173 2.83325 17.7932V12.7498C2.83325 7.7915 5.66659 5.6665 9.91659 5.6665ZM13.4583 16.9998C13.4583 18.9548 15.0449 20.5415 16.9999 20.5415C18.9549 20.5415 20.5416 18.9548 20.5416 16.9998C20.5416 15.0448 18.9549 13.4582 16.9999 13.4582C15.0449 13.4582 13.4583 15.0448 13.4583 16.9998ZM26.2083 20.8957C26.7891 20.8957 27.2708 20.414 27.2708 19.8332V14.1665C27.2708 13.5857 26.7891 13.104 26.2083 13.104C25.6274 13.104 25.1458 13.5857 25.1458 14.1665V19.8332C25.1458 20.414 25.6274 20.8957 26.2083 20.8957Z" fill="#016BBF"/>
<path fill-rule="evenodd" clip-rule="evenodd" d="M1.41675 25.5002C1.41675 22.3693 3.95258 19.8335 7.08341 19.8335C10.2142 19.8335 12.7501 22.3693 12.7501 25.5002C12.7501 28.631 10.2142 31.1668 7.08341 31.1668C3.95258 31.1668 1.41675 28.631 1.41675 25.5002ZM7.29591 27.1718C8.03258 26.7327 8.50008 25.911 8.50008 25.0468V23.7293C8.50008 23.1485 8.01841 22.6668 7.43758 22.6668C6.85675 22.6668 6.37508 23.1485 6.37508 23.7435V25.061C6.37508 25.1743 6.30425 25.3018 6.20508 25.3585L5.12841 26.0102C4.61841 26.3077 4.46258 26.9735 4.76008 27.4693C4.95841 27.7952 5.31258 27.9793 5.66675 27.9793C5.85091 27.9793 6.04925 27.9368 6.21925 27.8235L7.29591 27.1718Z" fill="#016BBF"/>
</svg>
