<svg width="16" height="16" viewBox="0 0 16 16" fill="none" xmlns="http://www.w3.org/2000/svg">
<path d="M6.66699 12.6667C6.66699 13.4 7.26699 14 8.00033 14C8.73366 14 9.33366 13.4 9.33366 12.6667C9.33366 11.9333 8.73366 11.3333 8.00033 11.3333C7.26699 11.3333 6.66699 11.9333 6.66699 12.6667Z" fill="#B3B3B3"/>
<path d="M6.66699 3.33341C6.66699 4.06675 7.26699 4.66675 8.00033 4.66675C8.73366 4.66675 9.33366 4.06675 9.33366 3.33341C9.33366 2.60008 8.73366 2.00008 8.00033 2.00008C7.26699 2.00008 6.66699 2.60008 6.66699 3.33341Z" fill="#B3B3B3"/>
<path d="M6.66699 7.99992C6.66699 8.73325 7.26699 9.33325 8.00033 9.33325C8.73366 9.33325 9.33366 8.73325 9.33366 7.99992C9.33366 7.26658 8.73366 6.66659 8.00033 6.66659C7.26699 6.66659 6.66699 7.26659 6.66699 7.99992Z" fill="#B3B3B3"/>
</svg>
