<svg width="25" height="24" viewBox="0 0 25 24" fill="none" xmlns="http://www.w3.org/2000/svg">
<path d="M8 2V5" stroke="#016BBF" stroke-width="2" stroke-linecap="round" stroke-linejoin="round"/>
<path d="M16 2V5" stroke="#016BBF" stroke-width="2" stroke-linecap="round" stroke-linejoin="round"/>
<path d="M21 8.5C21 5.5 19.5 3.5 16 3.5H8C4.5 3.5 3 5.5 3 8.5V17C3 20 4.5 22 8 22H12.68" stroke="#016BBF" stroke-width="2" stroke-linecap="round" stroke-linejoin="round"/>
<path d="M7 11H13" stroke="#016BBF" stroke-width="2" stroke-linecap="round" stroke-linejoin="round"/>
<path d="M7 16H9.62" stroke="#016BBF" stroke-width="2" stroke-linecap="round" stroke-linejoin="round"/>
<path d="M19.3236 11.7527L14.6579 16.4185C14.4802 16.5961 14.3026 16.9454 14.2671 17.2L14.0125 18.9822C13.9177 19.6276 14.3736 20.0776 15.019 19.9888L16.8013 19.7342C17.0499 19.6987 17.3993 19.5211 17.5828 19.3434L22.2486 14.6777C23.0538 13.8724 23.4328 12.9369 22.2486 11.7527C21.0644 10.5685 20.1289 10.9474 19.3236 11.7527Z" stroke="#016BBF" stroke-width="2" stroke-linecap="round" stroke-linejoin="round"/>
<path d="M18.6548 12.4201C19.0515 13.8352 20.1587 14.9425 21.5798 15.3451" stroke="#016BBF" stroke-width="2" stroke-linecap="round" stroke-linejoin="round"/>
</svg>
