<svg width="61" height="60" viewBox="0 0 61 60" fill="none" xmlns="http://www.w3.org/2000/svg">
<path fill-rule="evenodd" clip-rule="evenodd" d="M35.1248 7.49872L36.5025 6.22694L36.5074 6.23225L36.5177 6.24349L36.5543 6.28356C36.5857 6.31801 36.6308 6.36787 36.6889 6.43256C36.8049 6.56194 36.9726 6.75074 37.1844 6.99445C37.608 7.48175 38.2089 8.18931 38.928 9.08103C40.3647 10.8625 42.2815 13.3892 44.2013 16.3711C47.9899 22.2559 51.9998 30.2302 51.9998 37.8476C51.9998 47.0161 44.4027 54.3737 35.1248 54.3737C27.7029 54.3737 21.3724 49.6753 19.1225 43.1063C18.787 42.1266 19.3092 41.0604 20.2889 40.7249C21.2685 40.3893 22.3347 40.9115 22.6702 41.8912C24.4013 46.9454 29.3072 50.6237 35.1248 50.6237C42.4153 50.6237 48.2498 44.8623 48.2498 37.8476C48.2498 31.3661 44.7596 24.166 41.0482 18.401C39.218 15.5581 37.3848 13.1411 36.009 11.4351C35.6867 11.0355 35.3899 10.6754 35.1248 10.3586C35.0215 10.482 34.9134 10.6119 34.8009 10.7482C33.7447 12.0278 32.3019 13.8618 30.7634 16.0704C30.1715 16.9201 29.0028 17.1291 28.1531 16.5372C27.3034 15.9453 27.0944 14.7767 27.6863 13.927C29.2948 11.6179 30.8021 9.70187 31.909 8.36094C32.4628 7.68997 32.9176 7.16164 33.2361 6.79866C33.3953 6.61713 33.5206 6.47684 33.6073 6.38064L33.7078 6.2697L33.7353 6.23967L33.7431 6.23113L33.747 6.22694L35.1248 7.49872ZM35.1248 7.49872C36.5025 6.22694 36.5021 6.22653 36.5025 6.22694L35.1248 4.73438L33.747 6.22694C33.7471 6.2268 33.747 6.22694 35.1248 7.49872ZM18.875 12.4986L20.2214 11.1937L20.2252 11.1976L20.2322 11.2049L20.2555 11.2292L20.3381 11.3163C20.4086 11.3911 20.5093 11.4991 20.6359 11.6379C20.889 11.9152 21.2463 12.3159 21.6731 12.8199C22.5249 13.8259 23.6625 15.2538 24.8034 16.9415C27.0277 20.2321 29.5 24.8477 29.5 29.3591C29.5 35.0154 24.613 39.3736 18.875 39.3736C13.137 39.3736 8.25 35.0154 8.25 29.3591C8.25 24.8477 10.7223 20.2321 12.9466 16.9415C14.0875 15.2538 15.2251 13.8259 16.0769 12.8199C16.5037 12.3159 16.861 11.9152 17.1141 11.6379C17.2407 11.4991 17.3414 11.3911 17.4119 11.3163L17.4945 11.2292L17.5178 11.2049L17.5248 11.1976L17.5286 11.1937L18.8735 12.4972C17.5355 11.2004 17.529 11.1934 17.5286 11.1937L18.875 9.80457L20.2214 11.1937C20.221 11.1933 20.2214 11.1937 18.875 12.4986ZM16.0534 19.0417C17.0721 17.5347 18.0939 16.2453 18.875 15.3187C19.6561 16.2453 20.6779 17.5347 21.6966 19.0417C23.8473 22.2232 25.75 26.0378 25.75 29.3591C25.75 32.6935 22.802 35.6236 18.875 35.6236C14.948 35.6236 12 32.6935 12 29.3591C12 26.0378 13.9027 22.2232 16.0534 19.0417Z" fill="#8A8A8A"/>
</svg>
