<svg width="34" height="34" viewBox="0 0 34 34" fill="none" xmlns="http://www.w3.org/2000/svg">
<path fill-rule="evenodd" clip-rule="evenodd" d="M22.446 2.83203H11.8992V9.78334L5.66699 14.3376V28.2403C5.66699 28.5399 5.80557 28.8077 6.02139 28.9837C6.18666 29.1185 6.39733 29.1991 6.62579 29.1991H19.7133C19.3299 28.7197 19.0902 28.0961 19.0902 27.4257V20.0905H20.5284C20.8093 20.0905 21.2159 20.0118 21.6979 19.8395C22.2033 19.6597 22.7915 19.3807 23.4048 18.9875V3.79083C23.4048 3.26274 22.9734 2.83203 22.446 2.83203ZM9.5022 23.4463V22.4875H14.2962V23.4463H9.5022ZM16.2138 20.5699H9.5022V19.6111H16.2138V20.5699ZM19.5696 17.6935H9.5022V16.7347H19.5696V17.6935ZM19.5696 14.817H10.9404V13.8582H19.5696V14.817ZM19.5696 11.9406H13.8168V10.9818H19.5696V11.9406Z" fill="#016BBF"/>
<path d="M10.9404 3.21593L5.76297 13.0436L10.9404 9.30394V3.21593Z" fill="#016BBF"/>
<path fill-rule="evenodd" clip-rule="evenodd" d="M24.6513 19.7066C26.1375 20.7141 27.4797 21.0493 28.1988 21.0493H28.6782V27.4257C28.6782 27.877 28.5256 28.3096 28.2496 28.6448C28.1164 28.8058 27.9547 28.9463 27.7674 29.0549L24.3636 31.1654L20.9598 29.0549C20.3847 28.7197 20.049 28.0961 20.049 27.4257V21.0493H20.5284C21.2475 21.0493 22.5897 20.7141 24.0759 19.7066L24.3636 19.5156L24.6513 19.7066ZM21.8706 25.9388L23.4048 27.4744L26.8566 24.0212L26.1853 23.3508L23.4048 26.1317L22.542 25.2684L21.8706 25.9388Z" fill="#016BBF"/>
</svg>
