<svg width="16" height="16" viewBox="0 0 16 16" fill="none" xmlns="http://www.w3.org/2000/svg">
<g clip-path="url(#clip0_20738_20519)">
<path d="M6.58675 6.58691C6.39025 6.77001 6.23265 6.99081 6.12334 7.23615C6.01402 7.48148 5.95524 7.74631 5.95051 8.01485C5.94577 8.28339 5.99517 8.55014 6.09576 8.79917C6.19635 9.04821 6.34607 9.27443 6.53598 9.46435C6.7259 9.65427 6.95212 9.80399 7.20116 9.90457C7.45019 10.0052 7.71694 10.0546 7.98548 10.0498C8.25402 10.0451 8.51885 9.98631 8.76419 9.877C9.00952 9.76768 9.23032 9.61008 9.41342 9.41358" stroke="black" stroke-width="1.5" stroke-linecap="round" stroke-linejoin="round"/>
<path d="M7.15332 3.38634C7.43419 3.35135 7.71694 3.33354 7.99999 3.33301C12.6667 3.33301 14.6667 7.99967 14.6667 7.99967C14.3686 8.63776 13.9948 9.23763 13.5533 9.78634" stroke="black" stroke-width="1.5" stroke-linecap="round" stroke-linejoin="round"/>
<path d="M4.40683 4.40625C3.081 5.30933 2.02008 6.54976 1.3335 7.99958C1.3335 7.99958 3.3335 12.6663 8.00016 12.6663C9.27744 12.6697 10.5274 12.2963 11.5935 11.5929" stroke="black" stroke-width="1.5" stroke-linecap="round" stroke-linejoin="round"/>
<path d="M1.3335 1.33301L14.6668 14.6663" stroke="black" stroke-width="1.5" stroke-linecap="round" stroke-linejoin="round"/>
</g>
<defs>
<clipPath id="clip0_20738_20519">
<rect width="16" height="16" fill="white"/>
</clipPath>
</defs>
</svg>
