<svg width="60" height="60" viewBox="0 0 60 60" fill="none" xmlns="http://www.w3.org/2000/svg">
<path fill-rule="evenodd" clip-rule="evenodd" d="M37.2493 29.0047C37.1696 29.7167 37.3163 30.7399 37.5287 31.813C37.5685 32.014 37.6106 32.2168 37.654 32.4196C37.6787 32.5354 37.7039 32.6511 37.7293 32.7666C37.7864 33.0265 37.8446 33.2849 37.9016 33.5381C38.0451 34.1753 38.1814 34.7806 38.2743 35.2937C38.902 38.761 37.7617 45.0128 30.0746 45.0128C25.6369 45.0128 19.0196 40.0961 22.2075 31.8981C22.446 31.2848 22.7394 30.6531 23.0927 30.0037C23.2622 29.692 23.4456 29.3763 23.6434 29.0565C23.8861 28.664 24.1504 28.2655 24.4374 27.8611C24.4892 27.788 24.5383 27.7179 24.5847 27.6514L24.6444 27.5657C25.1068 26.9012 25.2849 26.6455 25.3737 27.3159C25.4089 27.5812 25.4301 27.9917 25.4494 28.5793C25.4538 28.7119 25.458 28.8535 25.4624 29.0045C25.4852 29.8028 25.5871 30.329 25.7475 30.6326C26.0959 31.292 26.7198 30.9013 27.4063 29.968L27.4681 29.8827C27.6668 29.6048 27.8701 29.2832 28.073 28.93C28.2164 28.6805 28.3595 28.4152 28.5006 28.1384C28.7056 27.7362 28.9065 27.3097 29.0976 26.872L29.1501 26.751C29.963 24.8628 30.5871 22.7906 30.5871 21.5723C31.3227 22.598 32.3948 24.4741 33.1002 26.6298C33.1208 26.6926 33.141 26.7557 33.1609 26.819C33.3427 27.3966 33.4971 27.9929 33.6109 28.597C33.8216 29.716 33.8929 30.862 33.7407 31.9667C33.719 32.1237 33.6929 32.2799 33.662 32.435C33.6985 32.3535 33.7379 32.2683 33.7799 32.1801C34.343 30.9976 35.3763 29.2868 36.3505 28.904C36.6619 28.7816 36.9673 28.7949 37.2493 29.0047ZM34.0554 39.5604C34.6355 38.5685 34.7772 37.1641 34.6019 36.0655C33.937 36.2381 33.2186 36.2299 32.5217 36.0074C31.0671 35.5432 30.0772 34.2642 29.9304 32.8128C29.5162 33.2907 28.65 34.1826 27.359 34.548C26.7588 34.7179 26.0354 34.7792 25.2832 34.6113C24.8867 36.4272 25.2854 37.7078 25.7635 38.5371C26.7973 40.3302 28.8424 41.2628 30.0746 41.2628C32.721 41.2628 33.626 40.2947 34.0554 39.5604Z" fill="#8A8A8A"/>
<path fill-rule="evenodd" clip-rule="evenodd" d="M24.375 10V5C24.375 3.96447 23.5355 3.125 22.5 3.125C21.4645 3.125 20.625 3.96447 20.625 5V10H20C14.4772 10 10 14.4772 10 20V45C10 50.5228 14.4772 55 20 55H40C45.5228 55 50 50.5228 50 45V20C50 14.4772 45.5228 10 40 10H39.375V5C39.375 3.96447 38.5355 3.125 37.5 3.125C36.4645 3.125 35.625 3.96447 35.625 5V10H24.375ZM20 13.75H40C43.4518 13.75 46.25 16.5482 46.25 20V45C46.25 48.4518 43.4518 51.25 40 51.25H20C16.5482 51.25 13.75 48.4518 13.75 45V20C13.75 16.5482 16.5482 13.75 20 13.75Z" fill="#8A8A8A"/>
</svg>
