<svg width="12" height="12" viewBox="0 0 12 12" fill="none" xmlns="http://www.w3.org/2000/svg">
<path d="M6.15039 8.25V10.5" stroke="#01BF42" stroke-linecap="round" stroke-linejoin="round"/>
<path d="M3 8.25H9.3V7.458C9.29991 7.29056 9.25311 7.12647 9.16487 6.98417C9.07663 6.84187 8.95044 6.72701 8.8005 6.6525L7.9995 6.2475C7.84955 6.17299 7.72337 6.05813 7.63513 5.91583C7.54688 5.77353 7.50009 5.60944 7.5 5.442V3.3H7.95C8.18869 3.3 8.41761 3.20518 8.5864 3.0364C8.75518 2.86761 8.85 2.63869 8.85 2.4C8.85 2.1613 8.75518 1.93239 8.5864 1.7636C8.41761 1.59482 8.18869 1.5 7.95 1.5H4.35C4.11131 1.5 3.88239 1.59482 3.7136 1.7636C3.54482 1.93239 3.45 2.1613 3.45 2.4C3.45 2.63869 3.54482 2.86761 3.7136 3.0364C3.88239 3.20518 4.11131 3.3 4.35 3.3H4.8V5.442C4.79991 5.60944 4.75312 5.77353 4.66487 5.91583C4.57663 6.05813 4.45045 6.17299 4.3005 6.2475L3.4995 6.6525C3.34955 6.72701 3.22337 6.84187 3.13513 6.98417C3.04688 7.12647 3.00009 7.29056 3 7.458V8.25Z" stroke="#01BF42" stroke-linecap="round" stroke-linejoin="round"/>
</svg>
