<svg width="61" height="60" viewBox="0 0 61 60" fill="none" xmlns="http://www.w3.org/2000/svg">
<rect x="14.7822" y="30.7461" width="31.3458" height="13.3148" fill="#B3D3EC"/>
<path fill-rule="evenodd" clip-rule="evenodd" d="M20.625 17.5H21.25V10C21.25 6.20304 24.328 3.125 28.125 3.125H33.125C36.922 3.125 40 6.20304 40 10V17.5H40.625C44.7671 17.5 48.125 20.8579 48.125 25V50C48.125 54.1421 44.7671 57.5 40.625 57.5H20.625C16.4829 57.5 13.125 54.1421 13.125 50V25C13.125 20.8579 16.4829 17.5 20.625 17.5ZM28.75 17.5H25V10C25 8.27411 26.3991 6.875 28.125 6.875H33.125C34.8509 6.875 36.25 8.27411 36.25 10V17.5H32.5V12.5C32.5 11.4645 31.6605 10.625 30.625 10.625C29.5895 10.625 28.75 11.4645 28.75 12.5V17.5ZM44.375 25C44.375 22.9289 42.6961 21.25 40.625 21.25H20.625C18.5539 21.25 16.875 22.9289 16.875 25V28.125H44.375V25ZM16.875 43.125V31.875H44.375V43.125H16.875ZM16.875 46.875V50C16.875 52.0711 18.5539 53.75 20.625 53.75H40.625C42.6961 53.75 44.375 52.0711 44.375 50V46.875H16.875Z" fill="#016BBF"/>
</svg>
