<svg width="34" height="34" viewBox="0 0 34 34" fill="none" xmlns="http://www.w3.org/2000/svg">
<path fill-rule="evenodd" clip-rule="evenodd" d="M8.49992 2.8335H25.4999C23.9416 2.8335 22.6666 4.1085 22.6666 5.66683V29.7502C22.6666 30.9118 21.3349 31.5777 20.3999 30.8835L17.9774 29.0702C17.4249 28.6452 16.6316 28.7018 16.1358 29.1977L13.7558 31.5777C13.2033 32.1302 12.2966 32.1302 11.7441 31.5777L9.39242 29.2118C8.88242 28.7018 8.08908 28.6452 7.52242 29.0702L5.09992 30.8835C4.16492 31.5918 2.83325 30.926 2.83325 29.7502V8.50016C2.83325 5.36933 4.24992 2.8335 8.49992 2.8335ZM7.04075 18.431C7.04075 19.2102 7.67825 19.8477 8.45742 19.8477C9.23658 19.8477 9.87408 19.2102 9.87408 18.431C9.87408 17.6518 9.23658 17.0143 8.45742 17.0143C7.67825 17.0143 7.04075 17.6518 7.04075 18.431ZM7.04075 12.7643C7.04075 13.5435 7.67825 14.181 8.45742 14.181C9.23658 14.181 9.87408 13.5435 9.87408 12.7643C9.87408 11.9852 9.23658 11.3477 8.45742 11.3477C7.67825 11.3477 7.04075 11.9852 7.04075 12.7643ZM12.7499 19.4935H16.9999C17.5808 19.4935 18.0624 19.0118 18.0624 18.431C18.0624 17.8502 17.5808 17.3685 16.9999 17.3685H12.7499C12.1691 17.3685 11.6874 17.8502 11.6874 18.431C11.6874 19.0118 12.1691 19.4935 12.7499 19.4935ZM12.7499 13.8268H16.9999C17.5808 13.8268 18.0624 13.3452 18.0624 12.7643C18.0624 12.1835 17.5808 11.7018 16.9999 11.7018H12.7499C12.1691 11.7018 11.6874 12.1835 11.6874 12.7643C11.6874 13.3452 12.1691 13.8268 12.7499 13.8268Z" fill="#016BBF"/>
<path fill-rule="evenodd" clip-rule="evenodd" d="M22.6667 5.681C22.6667 4.1085 23.9417 2.8335 25.5142 2.8335C27.0726 2.84766 28.4751 3.471 29.5092 4.491C30.5292 5.52516 31.1667 6.94183 31.1667 8.50016V11.9285C31.1667 14.1668 29.7501 15.5835 27.5117 15.5835H22.6667V5.681ZM27.9934 5.9785C27.3417 5.341 26.4492 4.9585 25.5142 4.9585C25.1176 4.9585 24.7917 5.28433 24.7917 5.681V13.4585H27.5117C28.5742 13.4585 29.0417 12.9768 29.0417 11.9285V8.50016C29.0417 7.56516 28.6734 6.67266 27.9934 5.9785Z" fill="#016BBF"/>
</svg>
