<svg width="200" height="187" viewBox="0 0 200 187" fill="none" xmlns="http://www.w3.org/2000/svg">
<path d="M172.961 170.173H174.45L177.688 165.655V162.673C177.688 162.673 179.986 162.534 179.716 166.417C179.446 170.299 179.738 169.311 179.738 169.311C179.738 169.311 184.613 169.311 185.018 169.746C185.314 170.051 185.453 174.896 185.497 177.52C185.529 178.154 185.348 178.78 184.983 179.3C184.617 179.819 184.089 180.2 183.481 180.384C183.311 180.431 183.136 180.454 182.959 180.454C181.74 180.454 175.529 179.466 175.529 179.466H172.961V170.173Z" fill="#E0E0E0"/>
<path d="M168.708 169.359L169.622 179.518H172.168V169.564L168.708 169.359Z" fill="#E0E0E0"/>
<path d="M97.002 17.3977L103.4 26.5384C103.565 26.7665 103.781 26.9515 104.033 27.0776C104.284 27.2036 104.562 27.267 104.843 27.2623C105.124 27.2576 105.399 27.1849 105.646 27.0505C105.893 26.9161 106.104 26.724 106.26 26.4905L112.454 16.9755L97.002 17.3977Z" fill="#E0E0E0"/>
<path d="M113.229 2.08059H95.2651C92.4862 2.08059 90.2334 4.33336 90.2334 7.1123V17.4325C90.2334 20.2115 92.4862 22.4643 95.2651 22.4643H113.229C116.008 22.4643 118.26 20.2115 118.26 17.4325V7.1123C118.26 4.33336 116.008 2.08059 113.229 2.08059Z" fill="#E0E0E0"/>
<path d="M109.738 10.3986C108.837 8.75762 107.348 8.50081 106.347 8.87514C105.641 9.18381 105.059 9.72017 104.693 10.3986C104.327 9.72017 103.745 9.18381 103.039 8.87514C102.038 8.50081 100.549 8.75762 99.6525 10.3986C97.7809 13.8111 104.693 18.2857 104.693 18.2857C104.693 18.2857 111.609 13.8111 109.738 10.3986Z" fill="white"/>
<path d="M26.7451 160.022H41.5051C43.0809 160.022 44.5921 160.648 45.7063 161.763C46.8206 162.877 47.4465 164.388 47.4465 165.964V173.459C47.4465 175.035 46.8206 176.546 45.7063 177.66C44.5921 178.775 43.0809 179.401 41.5051 179.401H37.6486L34.9326 183.283C34.7788 183.504 34.5733 183.683 34.3341 183.805C34.0949 183.927 33.8294 183.989 33.5608 183.985C33.2922 183.98 33.0287 183.91 32.7936 183.78C32.5584 183.65 32.3588 183.465 32.2121 183.24L29.7137 179.401H26.7451C25.1694 179.401 23.6581 178.775 22.5439 177.66C21.4297 176.546 20.8037 175.035 20.8037 173.459V165.964C20.8037 164.388 21.4297 162.877 22.5439 161.763C23.6581 160.648 25.1694 160.022 26.7451 160.022Z" fill="#E0E0E0"/>
<path d="M33.6002 165.977V173.62L28.1289 169.799L33.6002 165.977Z" fill="white"/>
<path d="M40.9217 174.221C40.9217 174.221 40.5605 168.793 36.2165 168.71H33.4395V171.043L36.1773 171.083C36.1773 171.083 39.0196 171.017 40.9217 174.221Z" fill="white"/>
<path d="M35.6435 80.0003C36.1417 77.8974 34.8409 75.7888 32.738 75.2905C30.6351 74.7922 28.5264 76.093 28.0282 78.1959C27.5299 80.2988 28.8307 82.4075 30.9336 82.9058C33.0365 83.404 35.1452 82.1032 35.6435 80.0003Z" fill="#E0E0E0"/>
<path d="M31.8376 82.5488C30.0632 82.5488 28.3616 83.2537 27.1069 84.5083C25.8523 85.763 25.1475 87.4646 25.1475 89.2389H38.5276C38.5276 87.4646 37.8228 85.763 36.5682 84.5083C35.3135 83.2537 33.6119 82.5488 31.8376 82.5488Z" fill="#E0E0E0"/>
<path d="M141.416 5.59322C141.416 6.13127 141.257 6.65724 140.958 7.10461C140.659 7.55198 140.234 7.90067 139.737 8.10657C139.24 8.31247 138.693 8.36635 138.165 8.26138C137.638 8.15641 137.153 7.89731 136.772 7.51685C136.392 7.13639 136.133 6.65166 136.028 6.12395C135.923 5.59623 135.977 5.04925 136.183 4.55215C136.389 4.05506 136.737 3.63018 137.185 3.33126C137.632 3.03233 138.158 2.87278 138.696 2.87278C139.053 2.87221 139.407 2.94219 139.738 3.0787C140.068 3.21521 140.368 3.41557 140.621 3.6683C140.874 3.92103 141.074 4.22116 141.211 4.55148C141.347 4.88179 141.417 5.2358 141.416 5.59322Z" fill="#E0E0E0"/>
<path d="M148.964 11.9612C148.964 12.4993 148.805 13.0252 148.506 13.4726C148.207 13.92 147.782 14.2687 147.285 14.4746C146.788 14.6805 146.241 14.7343 145.713 14.6294C145.185 14.5244 144.701 14.2653 144.32 13.8848C143.94 13.5044 143.681 13.0196 143.576 12.4919C143.471 11.9642 143.525 11.4172 143.731 10.9201C143.936 10.423 144.285 9.99817 144.732 9.69924C145.18 9.40032 145.706 9.24077 146.244 9.24077C146.965 9.24077 147.657 9.52738 148.168 10.0376C148.678 10.5477 148.964 11.2397 148.964 11.9612Z" fill="#E0E0E0"/>
<path d="M141.46 18.4554C141.46 18.9935 141.301 19.5194 141.002 19.9668C140.703 20.4142 140.278 20.7629 139.781 20.9688C139.284 21.1747 138.737 21.2286 138.209 21.1236C137.682 21.0186 137.197 20.7595 136.816 20.3791C136.436 19.9986 136.177 19.5139 136.072 18.9862C135.967 18.4584 136.021 17.9115 136.227 17.4144C136.433 16.9173 136.781 16.4924 137.229 16.1935C137.676 15.8945 138.202 15.735 138.74 15.735C139.461 15.735 140.153 16.0216 140.664 16.5318C141.174 17.042 141.46 17.7339 141.46 18.4554Z" fill="#E0E0E0"/>
<path d="M138.883 18.6208L138.596 18.29L145.908 11.9656L138.557 5.76297L138.835 5.42781L146.579 11.9612L138.883 18.6208Z" fill="#E0E0E0"/>
<path d="M188.36 69.4168C187.185 67.2665 185.235 66.9357 183.929 67.4232C183.001 67.8254 182.235 68.5274 181.753 69.4168C181.271 68.5274 180.505 67.8254 179.577 67.4232C178.271 66.9357 176.321 67.2665 175.146 69.4168C172.717 73.8783 181.788 79.7326 181.788 79.7326C181.788 79.7326 190.811 73.8783 188.36 69.4168Z" fill="#E0E0E0"/>
<path d="M177.661 90.3097C176.821 88.7775 175.437 88.5425 174.501 88.8907C173.843 89.1785 173.301 89.678 172.96 90.3097C172.619 89.678 172.077 89.1785 171.419 88.8907C170.488 88.5425 169.099 88.7775 168.264 90.3097C166.523 93.5002 172.96 97.657 172.96 97.657C172.96 97.657 179.406 93.5002 177.661 90.3097Z" fill="#E0E0E0"/>
<path d="M184.726 16.1397H155.702C153.993 16.1397 152.354 16.8183 151.145 18.0263C149.937 19.2342 149.257 20.8728 149.256 22.5817V40.1753C149.256 41.0216 149.423 41.8597 149.747 42.6415C150.071 43.4234 150.546 44.1337 151.144 44.732C151.743 45.3302 152.454 45.8047 153.236 46.1281C154.018 46.4516 154.856 46.6178 155.702 46.6173H164.673L169.7 53.8123C169.86 54.0386 170.072 54.2224 170.319 54.3478C170.566 54.4732 170.84 54.5362 171.117 54.5315C171.394 54.5268 171.665 54.4544 171.908 54.3207C172.15 54.187 172.356 53.996 172.508 53.7644L177.157 46.6173H184.726C185.572 46.6178 186.41 46.4516 187.192 46.1281C187.974 45.8045 188.684 45.33 189.282 44.7317C189.881 44.1334 190.355 43.423 190.679 42.6412C191.002 41.8594 191.169 41.0214 191.168 40.1753V22.5817C191.168 21.7357 191.001 20.898 190.678 20.1164C190.354 19.3349 189.879 18.6247 189.281 18.0265C188.683 17.4283 187.973 16.9538 187.191 16.6301C186.41 16.3063 185.572 16.1397 184.726 16.1397Z" fill="white"/>
<path d="M184.726 16.1398H184.944C185.158 16.1412 185.371 16.1557 185.583 16.1833C186.414 16.2788 187.215 16.544 187.938 16.9624C188.894 17.5042 189.697 18.2803 190.27 19.2176C190.843 20.155 191.169 21.2228 191.216 22.3206C191.242 23.2216 191.216 24.1705 191.216 25.1716C191.216 29.1848 191.216 34.025 191.242 39.5355C191.269 40.2403 191.213 40.9459 191.077 41.6379C190.917 42.3509 190.636 43.0311 190.245 43.6488C189.431 44.9453 188.19 45.9178 186.737 46.3997C185.986 46.6324 185.203 46.7427 184.417 46.7262H177.157L177.244 46.6783L174.584 50.7698L173.213 52.8809C172.974 53.2378 172.778 53.5904 172.504 53.9516C172.218 54.3167 171.804 54.5582 171.346 54.6263C170.885 54.6888 170.419 54.5736 170.04 54.3042C169.854 54.1678 169.693 53.9999 169.566 53.808L169.191 53.2683L167.677 51.0919L164.582 46.6739L164.678 46.7218H156.107C155.497 46.7386 154.887 46.6875 154.288 46.5695C153.693 46.4331 153.118 46.221 152.577 45.9383C151.522 45.3647 150.644 44.5137 150.038 43.4772C149.432 42.4408 149.121 41.2584 149.138 40.0578C149.138 35.4396 149.138 30.9868 149.138 26.743C149.138 25.6809 149.138 24.6362 149.138 23.6003C149.138 23.0823 149.138 22.5731 149.164 22.0551C149.186 21.7981 149.221 21.5424 149.269 21.289C149.33 21.0366 149.386 20.7885 149.465 20.5447C149.786 19.5891 150.317 18.7176 151.019 17.994C151.714 17.2892 152.561 16.7519 153.495 16.4227C153.718 16.3394 153.947 16.2711 154.179 16.2181C154.408 16.1593 154.64 16.1171 154.875 16.0919C155.336 16.0415 155.8 16.0211 156.264 16.031H163.942L179.142 16.0701H183.272H184.347H184.713C184.713 16.0701 184.591 16.0701 184.347 16.0701H183.272H179.142L163.942 16.2181H158.906H156.229C155.774 16.2079 155.319 16.2283 154.867 16.2791C154.637 16.3039 154.41 16.3461 154.188 16.4053C153.963 16.4574 153.742 16.5242 153.526 16.6055C152.635 16.9291 151.827 17.4481 151.162 18.1246C150.481 18.8261 149.968 19.6729 149.661 20.6013C149.582 20.8363 149.53 21.0801 149.469 21.3238C149.408 21.5676 149.378 21.8157 149.369 22.0638C149.334 22.5644 149.347 23.0823 149.347 23.596V26.7386C149.347 30.9825 149.347 35.444 149.347 40.0535C149.332 41.2134 149.633 42.3555 150.219 43.3566C150.805 44.3577 151.654 45.1796 152.673 45.7338C153.194 46.0084 153.748 46.2133 154.322 46.3431C154.905 46.4606 155.5 46.5102 156.094 46.4911H164.708L164.743 46.539L167.833 50.957L169.348 53.1333L169.722 53.6687C169.84 53.8389 169.987 53.9863 170.158 54.104C170.489 54.3466 170.901 54.4506 171.308 54.3937C171.714 54.3368 172.082 54.1235 172.334 53.7993C172.569 53.4685 172.8 53.0942 173.03 52.7459C173.498 52.0379 173.956 51.3342 174.406 50.6349L177.074 46.5434L177.104 46.4955H184.439C185.204 46.5173 185.967 46.4129 186.698 46.1864C188.11 45.7243 189.316 44.7818 190.106 43.5226C190.489 42.9249 190.764 42.265 190.92 41.5726C191.057 40.8939 191.113 40.2013 191.085 39.5094C191.085 34.0032 191.085 29.163 191.111 25.1455C191.111 24.1444 191.111 23.1912 191.111 22.2989C191.076 21.4704 190.877 20.657 190.528 19.9049C189.978 18.6943 189.065 17.6844 187.917 17.0147C187.202 16.5924 186.41 16.3185 185.588 16.2094C185.377 16.178 185.165 16.1577 184.952 16.1485L184.726 16.1398Z" fill="#263238"/>
<path d="M171.041 25.5024V37.5246L179.646 31.5135L171.041 25.5024Z" fill="#016BBF"/>
<path d="M159.523 38.4735C159.523 38.4735 160.094 29.9335 166.923 29.8029H171.276V33.4766L166.971 33.5375C166.971 33.5375 162.483 33.433 159.523 38.4735Z" fill="#016BBF"/>
<path d="M145.491 153.028H194.934C197.689 153.028 199.922 150.794 199.922 148.039V109.771C199.922 107.016 197.689 104.782 194.934 104.782H145.491C142.737 104.782 140.503 107.016 140.503 109.771V148.039C140.503 150.794 142.737 153.028 145.491 153.028Z" fill="white"/>
<path d="M167.825 151.552C167.215 153.028 155.433 164.105 155.433 164.105V151.552H167.825Z" fill="#455A64"/>
<path d="M163.264 141.449C163.264 139.926 163.264 138.655 163.264 138.498C163.264 138.498 158.114 138.011 157.744 132.914C157.566 130.45 157.61 125.34 157.705 120.726C157.755 118.334 158.704 116.047 160.363 114.323C162.022 112.598 164.27 111.562 166.659 111.42L167.151 111.39C172.483 111.39 175.464 115.904 175.325 121.231L175.138 141.223L166.52 148.148L165.893 148.092L163.264 141.449Z" fill="#FFBF9D"/>
<path d="M163.255 138.498C165.612 138.351 167.878 137.531 169.784 136.135C169.784 136.135 168.387 139.961 163.255 139.809V138.498Z" fill="#FF9A6C"/>
<path d="M166.38 122.924C166.48 123.029 167.072 122.563 167.925 122.55C168.778 122.537 169.414 122.964 169.505 122.855C169.597 122.746 169.444 122.62 169.17 122.42C168.8 122.163 168.358 122.031 167.908 122.041C167.461 122.049 167.029 122.202 166.676 122.476C166.415 122.685 166.332 122.877 166.38 122.924Z" fill="#263238"/>
<path d="M167.012 125.24C167.02 125.42 167.098 125.589 167.23 125.711C167.362 125.834 167.537 125.899 167.717 125.893C167.805 125.895 167.893 125.88 167.975 125.848C168.057 125.815 168.132 125.767 168.194 125.705C168.257 125.643 168.307 125.57 168.341 125.488C168.375 125.407 168.392 125.32 168.392 125.231C168.383 125.052 168.304 124.882 168.172 124.76C168.041 124.637 167.866 124.57 167.686 124.574C167.598 124.572 167.51 124.588 167.428 124.621C167.346 124.654 167.271 124.703 167.209 124.765C167.146 124.827 167.096 124.901 167.062 124.982C167.028 125.064 167.011 125.152 167.012 125.24Z" fill="#263238"/>
<path d="M164.165 128.831C163.737 128.726 163.299 128.675 162.859 128.679C162.659 128.679 162.467 128.644 162.424 128.509C162.395 128.302 162.43 128.091 162.524 127.904C162.68 127.412 162.846 126.89 163.024 126.346C163.716 124.126 164.204 122.302 164.112 122.276C164.021 122.25 163.39 124.017 162.698 126.25C162.532 126.794 162.371 127.316 162.223 127.817C162.112 128.066 162.092 128.347 162.167 128.609C162.199 128.678 162.247 128.738 162.307 128.786C162.367 128.833 162.436 128.867 162.511 128.883C162.624 128.906 162.739 128.915 162.854 128.909C163.293 128.943 163.734 128.917 164.165 128.831Z" fill="#263238"/>
<path d="M166.802 120.182C166.885 120.374 167.568 120.239 168.386 120.295C169.205 120.352 169.875 120.535 169.971 120.352C170.014 120.269 169.888 120.091 169.614 119.917C169.25 119.708 168.843 119.587 168.424 119.564C168.005 119.541 167.587 119.617 167.202 119.786C166.911 119.93 166.767 120.095 166.802 120.182Z" fill="#263238"/>
<path d="M158.798 120.67C158.885 120.826 159.555 120.67 160.36 120.648C161.166 120.626 161.836 120.744 161.923 120.583C161.962 120.509 161.832 120.369 161.553 120.243C161.176 120.087 160.769 120.014 160.36 120.03C159.948 120.036 159.541 120.131 159.168 120.308C158.889 120.452 158.759 120.596 158.798 120.67Z" fill="#263238"/>
<path d="M175.129 125.031C175.212 124.988 178.572 123.782 178.672 127.277C178.772 130.772 175.238 130.15 175.229 130.05C175.22 129.95 175.129 125.031 175.129 125.031Z" fill="#FFBF9D"/>
<path d="M176.26 128.696C176.26 128.696 176.321 128.74 176.426 128.783C176.572 128.842 176.736 128.842 176.883 128.783C177.248 128.635 177.54 128.043 177.54 127.412C177.541 127.111 177.476 126.814 177.348 126.542C177.312 126.433 177.25 126.335 177.167 126.255C177.084 126.175 176.984 126.117 176.874 126.084C176.804 126.067 176.729 126.076 176.665 126.109C176.6 126.142 176.549 126.196 176.521 126.263C176.478 126.363 176.521 126.428 176.482 126.437C176.443 126.446 176.404 126.38 176.43 126.237C176.448 126.149 176.493 126.07 176.561 126.01C176.607 125.972 176.66 125.944 176.718 125.928C176.776 125.911 176.836 125.907 176.896 125.915C177.04 125.94 177.175 126.001 177.289 126.092C177.403 126.184 177.492 126.302 177.549 126.437C177.703 126.737 177.784 127.07 177.784 127.408C177.784 128.113 177.44 128.779 176.939 128.94C176.846 128.97 176.747 128.98 176.65 128.967C176.553 128.954 176.46 128.92 176.378 128.866C176.269 128.779 176.247 128.722 176.26 128.696Z" fill="#FF9A6C"/>
<path d="M165.249 131.804C165.209 131.717 165.897 131.521 166.389 130.881C166.594 130.603 166.761 130.298 166.885 129.976C166.99 129.723 167.068 129.567 167.107 129.58C167.146 129.593 167.129 129.763 167.072 130.015C166.993 130.384 166.834 130.732 166.607 131.033C166.373 131.334 166.061 131.566 165.706 131.704C165.436 131.83 165.249 131.834 165.249 131.804Z" fill="#263238"/>
<path d="M179.847 119.434C179.134 118.189 178.977 116.717 178.603 115.338C178.228 113.958 177.475 112.522 176.135 112.025H176.104C174.898 111.52 173.405 111.494 172.4 112.326C172.178 110.506 170.607 109.044 168.839 108.556C167.072 108.069 164.226 108.312 162.515 108.991C161.209 109.501 159.903 110.571 158.345 112.143C157.685 112.805 157.079 113.52 156.534 114.28L154.933 119.016L156.238 121.527C156.317 121.701 156.395 121.871 156.491 122.041L157.614 127.316C157.71 125.884 157.67 120.892 157.762 119.46C158.841 119.441 159.905 119.205 160.891 118.765C161.877 118.325 162.764 117.691 163.499 116.9C164.291 116.03 164.922 114.963 165.975 114.458C167.338 113.806 168.94 114.315 170.359 114.824L170.298 114.772C171.037 115.124 171.7 115.616 172.252 116.221C171.895 119.052 172.152 121.926 173.005 124.648C173.136 125.057 173.488 125.902 173.876 126.058C174.659 126.372 174.881 125.575 175.355 125.157C175.777 124.876 176.286 124.759 176.788 124.827C177.196 123.643 177.532 122.435 177.793 121.209C178.266 121.363 178.768 121.403 179.26 121.327L178.825 120.243C179.01 120.383 179.222 120.482 179.447 120.535C179.56 120.558 179.678 120.547 179.784 120.501C179.891 120.456 179.981 120.38 180.043 120.282C180.174 120.017 179.995 119.69 179.847 119.434Z" fill="#263238"/>
<path d="M170.789 112.9C170.97 113.044 171.139 113.203 171.294 113.375C171.69 113.867 171.952 114.453 172.056 115.077C172.138 115.507 172.176 115.944 172.169 116.382C172.169 116.852 172.121 117.353 172.077 117.884C172.024 118.439 172.003 118.998 172.017 119.555C172.033 119.848 172.068 120.138 172.121 120.426C172.161 120.741 172.281 121.041 172.469 121.297C172.557 121.397 172.67 121.472 172.795 121.516C172.921 121.561 173.056 121.572 173.187 121.549C173.438 121.504 173.667 121.379 173.84 121.192C174.122 120.81 174.297 120.359 174.345 119.886H174.241C174.389 120.272 174.593 120.634 174.846 120.961C175.09 121.266 175.442 121.464 175.829 121.514C176.009 121.536 176.192 121.507 176.356 121.431C176.508 121.353 176.634 121.232 176.717 121.083C176.793 120.951 176.832 120.8 176.831 120.648C176.828 120.5 176.772 120.358 176.674 120.248L176.617 120.295C176.917 120.646 177.286 120.93 177.701 121.131C177.811 121.183 177.925 121.228 178.041 121.266C178.079 121.283 178.12 121.293 178.163 121.297L178.049 121.249C177.971 121.214 177.862 121.17 177.719 121.096C177.318 120.885 176.963 120.596 176.674 120.248L176.622 120.295C176.703 120.404 176.749 120.535 176.753 120.671C176.757 120.806 176.718 120.94 176.643 121.053C176.569 121.187 176.455 121.295 176.317 121.362C176.167 121.43 176.001 121.454 175.838 121.431C175.479 121.38 175.154 121.193 174.928 120.909C174.684 120.587 174.486 120.233 174.341 119.856L174.271 119.69L174.236 119.864C174.184 120.311 174.018 120.737 173.753 121.101C173.598 121.267 173.394 121.378 173.17 121.418C173.059 121.44 172.944 121.431 172.837 121.394C172.73 121.356 172.634 121.291 172.561 121.205C172.385 120.969 172.274 120.692 172.239 120.4C172.182 120.113 172.147 119.822 172.134 119.529C172.12 118.976 172.138 118.422 172.186 117.871C172.225 117.34 172.269 116.835 172.269 116.361C172.27 115.922 172.226 115.484 172.138 115.055C172.027 114.421 171.747 113.829 171.329 113.34C171.174 113.165 170.992 113.016 170.789 112.9Z" fill="#455A64"/>
<path d="M154.963 117.658C154.963 117.658 154.963 117.658 155.002 117.692L155.128 117.788C155.196 117.84 155.267 117.886 155.342 117.928C155.441 117.99 155.544 118.045 155.651 118.093C156.329 118.416 157.077 118.566 157.827 118.528C158.941 118.469 160.015 118.088 160.917 117.431C162.006 116.62 162.918 115.595 163.599 114.419C163.977 113.81 164.286 113.179 164.626 112.6C164.939 112.036 165.33 111.518 165.788 111.063C166.201 110.654 166.71 110.355 167.268 110.193C167.521 110.126 167.782 110.1 168.043 110.114C168.283 110.131 168.521 110.181 168.748 110.262C169.142 110.402 169.501 110.625 169.801 110.915C170.031 111.133 170.222 111.387 170.367 111.668C170.479 111.914 170.565 112.171 170.624 112.434C170.625 112.417 170.625 112.4 170.624 112.382C170.624 112.339 170.624 112.286 170.624 112.226C170.582 112.027 170.519 111.833 170.437 111.647C170.294 111.358 170.104 111.094 169.875 110.867C169.397 110.377 168.756 110.077 168.073 110.023C167.802 110.004 167.53 110.031 167.268 110.101C166.692 110.259 166.166 110.558 165.736 110.972C165.268 111.43 164.869 111.953 164.552 112.526C164.208 113.113 163.899 113.74 163.52 114.345C162.849 115.508 161.95 116.523 160.878 117.331C159.989 117.982 158.931 118.364 157.831 118.432C157.093 118.48 156.354 118.35 155.677 118.054C155.194 117.84 154.972 117.64 154.963 117.658Z" fill="#455A64"/>
<path d="M158.593 123.142C158.693 123.247 159.289 122.781 160.142 122.772C160.995 122.763 161.626 123.186 161.718 123.077C161.809 122.968 161.661 122.837 161.383 122.642C161.012 122.385 160.571 122.253 160.12 122.263C159.674 122.273 159.242 122.425 158.889 122.698C158.632 122.903 158.545 123.099 158.593 123.142Z" fill="#263238"/>
<path d="M159.898 125.358C159.907 125.537 159.986 125.706 160.118 125.829C160.249 125.952 160.424 126.018 160.604 126.015C160.692 126.017 160.78 126.001 160.862 125.968C160.944 125.935 161.019 125.886 161.081 125.824C161.144 125.762 161.194 125.688 161.228 125.606C161.262 125.525 161.279 125.437 161.278 125.349C161.269 125.17 161.19 125.001 161.059 124.879C160.927 124.757 160.753 124.691 160.573 124.696C160.485 124.694 160.397 124.709 160.315 124.741C160.233 124.774 160.158 124.822 160.096 124.884C160.033 124.945 159.983 125.019 159.949 125.101C159.915 125.182 159.898 125.269 159.898 125.358Z" fill="#263238"/>
<path d="M156.978 113.692C156.543 114.267 155.877 114.789 155.163 114.711C154.904 114.656 154.649 114.582 154.401 114.489C154.153 114.641 154.21 115.494 154.401 115.729C154.563 115.929 154.742 116.114 154.936 116.282C154.096 116.717 153.335 116.513 152.442 116.186C152.532 116.949 152.821 117.675 153.279 118.292C153.737 118.908 154.349 119.393 155.054 119.699C155.269 119.815 155.509 119.877 155.754 119.882C155.998 119.886 156.24 119.833 156.46 119.725C156.797 119.45 157.019 119.059 157.082 118.628C157.482 117.099 157.693 115.526 157.709 113.945L156.978 113.692Z" fill="#263238"/>
<path d="M151.599 147.204L151.69 147.086C155.773 142.764 163.29 141.319 163.29 141.319C163.29 141.319 163.751 144.148 167.965 144.466C172.178 144.784 175.26 140.474 175.26 140.474L180.918 141.275C180.918 141.275 183.748 141.611 185.506 142.646C189.476 144.98 191.6 153.028 191.6 153.028L148.247 153.206L151.599 147.204Z" fill="#455A64"/>
<path d="M147.633 104.782L147.328 104.804L146.954 104.83C146.806 104.83 146.636 104.878 146.44 104.909C145.293 105.104 144.213 105.583 143.298 106.301C142.63 106.822 142.061 107.457 141.617 108.177C141.082 109.041 140.741 110.011 140.616 111.02C140.558 111.587 140.538 112.157 140.555 112.726C140.555 113.314 140.555 113.927 140.555 114.554C140.555 115.816 140.555 117.166 140.555 118.567C140.555 124.226 140.555 131.051 140.577 138.847C140.577 140.797 140.577 142.805 140.577 144.871C140.577 145.384 140.577 145.907 140.608 146.42C140.646 146.939 140.74 147.453 140.886 147.952C141.201 148.969 141.743 149.901 142.471 150.677C143.206 151.482 144.124 152.098 145.148 152.475L145.535 152.614L145.935 152.719C146.205 152.786 146.478 152.835 146.754 152.867C147.313 152.92 147.876 152.94 148.438 152.928H155.516V153.028C155.516 156.532 155.516 160.271 155.516 164.105L155.337 164.027C157.171 162.286 159.033 160.501 160.922 158.673C162.802 156.828 164.726 154.956 166.558 152.954L166.593 152.919H191.983C192.448 152.919 192.91 152.919 193.362 152.893C194.718 152.778 196.012 152.272 197.084 151.435C198.157 150.598 198.963 149.466 199.404 148.179C199.683 147.337 199.814 146.454 199.791 145.567V142.868C199.791 135.752 199.791 128.883 199.791 122.341C199.791 119.074 199.791 115.882 199.791 112.765C199.822 112.002 199.775 111.238 199.652 110.484C199.496 109.753 199.229 109.05 198.86 108.399C198.495 107.759 198.029 107.181 197.48 106.689C196.947 106.199 196.339 105.797 195.678 105.501C195.03 105.203 194.34 105.008 193.632 104.922C192.93 104.862 192.225 104.842 191.521 104.861H187.39H179.625L156.195 104.826L149.822 104.804H156.195L179.625 104.769H187.39H191.521C192.234 104.751 192.948 104.771 193.658 104.83C194.384 104.918 195.092 105.118 195.756 105.422C196.436 105.726 197.062 106.137 197.611 106.641C198.174 107.142 198.653 107.729 199.03 108.382C199.408 109.051 199.682 109.773 199.843 110.524C199.973 111.29 200.023 112.067 199.991 112.844C199.991 115.943 199.991 119.135 199.991 122.42C199.991 128.949 199.991 135.83 199.991 142.947V145.628C200.016 146.544 199.882 147.457 199.595 148.327C199.129 149.631 198.297 150.774 197.2 151.62C196.103 152.465 194.786 152.978 193.406 153.097C192.931 153.132 192.466 153.132 192.004 153.128H166.667L166.75 153.093C164.904 155.1 162.981 156.971 161.091 158.817C159.202 160.662 157.331 162.443 155.498 164.171L155.315 164.34V164.092C155.315 160.257 155.315 156.519 155.315 153.015L155.42 153.119H148.456C147.885 153.136 147.313 153.115 146.745 153.058C146.463 153.028 146.183 152.975 145.909 152.901L145.496 152.797L145.095 152.653C144.045 152.263 143.102 151.629 142.344 150.803C141.602 150.002 141.048 149.044 140.725 148C140.575 147.488 140.48 146.961 140.442 146.429C140.403 145.898 140.416 145.38 140.416 144.866C140.416 142.8 140.416 140.792 140.416 138.842C140.416 131.047 140.416 124.213 140.438 118.563C140.438 117.148 140.438 115.812 140.438 114.55C140.438 113.923 140.438 113.309 140.438 112.722C140.422 112.148 140.444 111.573 140.503 111.002C140.624 110.068 140.928 109.167 141.398 108.351C141.868 107.534 142.494 106.819 143.241 106.245C144.168 105.526 145.26 105.053 146.419 104.869C146.614 104.843 146.784 104.809 146.936 104.8H147.311L147.633 104.782Z" fill="#263238"/>
<path d="M13.0082 58.5176L72.8882 58.5176C76.2561 58.5176 78.9863 55.7874 78.9863 52.4195V6.09812C78.9863 2.73022 76.2561 -3.8147e-06 72.8882 -3.8147e-06L13.0082 -3.8147e-06C9.64029 -3.8147e-06 6.91006 2.73022 6.91006 6.09812V52.4195C6.91006 55.7874 9.64029 58.5176 13.0082 58.5176Z" fill="white"/>
<path d="M40.0508 56.7287C39.3108 58.5176 25.0166 71.9631 25.0166 71.9631V56.7287H40.0508Z" fill="#455A64"/>
<path d="M57.5357 25.6809C57.5706 22.634 58.0537 19.5871 57.9362 16.5402C57.8187 13.4933 57.0134 10.3115 54.8893 8.12648C52.7652 5.94143 49.0654 5.07959 46.5757 6.86855L46.0664 9.48017C47.0472 21.2528 48.028 33.0239 49.0088 44.7936C49.1351 46.3388 49.2743 47.9319 49.9795 49.3117C50.6846 50.6915 52.0949 51.8362 53.6444 51.7405C55.6684 51.6186 57.0004 49.5641 57.6272 47.6359C59.9123 40.615 57.4443 33.0413 57.5357 25.6809Z" fill="#263238"/>
<path d="M50.1931 9.8545C49.7863 9.07907 49.2638 8.37015 48.6435 7.75215C48.3292 7.4461 47.95 7.21478 47.534 7.07538C47.1181 6.93597 46.6761 6.89206 46.2408 6.9469C46.0358 6.97233 45.8407 7.04963 45.6739 7.17149C45.5071 7.29336 45.3741 7.45576 45.2876 7.64333C45.1526 8.03507 45.4399 8.55305 45.8534 8.51387L45.9405 8.58787C46.8545 9.39747 47.7817 10.1897 48.7306 10.9601C48.955 11.1699 49.2182 11.334 49.5053 11.4432C49.6528 11.4989 49.813 11.5112 49.9673 11.4788C50.1215 11.4464 50.2633 11.3707 50.3759 11.2604C50.698 10.8861 50.4499 10.2941 50.1931 9.8545Z" fill="#016BBF"/>
<path d="M51.9167 12.8535C48.8698 9.13195 44.7913 6.99478 39.9859 6.91208C37.2786 6.86855 36.1556 7.43005 34.2056 7.95672C32.2488 8.43126 30.5215 9.57922 29.3262 11.1995C27.9464 13.1625 26.7842 15.3607 26.5231 17.7503C26.2619 20.1399 25.9833 22.6514 26.1705 25.1281C26.3577 27.6048 27.041 30.0641 28.4687 32.0619L34.7279 33.1458C38.1839 33.2633 41.6922 33.3765 45.0525 32.5886C48.4128 31.8008 51.6947 29.977 53.4967 27.0389C55.9951 22.9213 54.9592 16.5707 51.9167 12.8535Z" fill="#263238"/>
<path d="M34.7014 44.2364C34.745 42.0601 34.819 39.2874 34.819 39.3005C34.819 39.3135 29.7176 38.739 28.2899 32.1969C27.5891 28.9454 27.4586 23.5568 27.4934 19.1388C27.5238 15.1691 30.9059 9.75874 35.8114 9.74133L37.9877 9.48887L46.3275 12.8056C46.909 12.8357 47.4581 13.0826 47.8666 13.4975C48.2751 13.9124 48.5133 14.4654 48.5343 15.0473L48.8477 43.8055L43.5026 52.7329L33.9267 45.3333L34.7014 44.2364Z" fill="#B56760"/>
<path d="M38.1146 30.6691C38.0686 30.3295 37.898 30.0192 37.6358 29.7985C37.3969 29.5925 37.0966 29.4713 36.7816 29.454C36.4666 29.4367 36.1547 29.5242 35.8947 29.7028C35.6257 29.9095 35.4168 30.1843 35.2898 30.4989C35.1627 30.8134 35.1221 31.1562 35.1722 31.4917C35.3161 31.6926 35.5012 31.8606 35.7151 31.9844C35.929 32.1083 36.1668 32.1851 36.4127 32.2099H36.6434C37.0352 32.2011 37.4094 32.0458 37.6924 31.7747C37.8401 31.6331 37.9546 31.4604 38.0276 31.2693C38.1006 31.0781 38.1303 30.8731 38.1146 30.6691Z" fill="#8A4A43"/>
<path d="M30.1445 24.2576C30.1536 24.4796 30.2503 24.6891 30.4135 24.84C30.5766 24.9909 30.793 25.0711 31.0151 25.0628C31.1221 25.0645 31.2284 25.045 31.3279 25.0054C31.4273 24.9657 31.5179 24.9068 31.5945 24.8319C31.671 24.757 31.7319 24.6677 31.7736 24.5691C31.8154 24.4705 31.8372 24.3646 31.8377 24.2576C31.8223 24.0374 31.7238 23.8313 31.5622 23.681C31.4006 23.5307 31.1879 23.4474 30.9672 23.448C30.8598 23.4462 30.7531 23.4659 30.6534 23.5058C30.5536 23.5457 30.4628 23.6051 30.3863 23.6804C30.3097 23.7558 30.2489 23.8456 30.2074 23.9447C30.1659 24.0438 30.1445 24.1501 30.1445 24.2576Z" fill="#263238"/>
<path d="M29.0081 21.35C29.1213 21.4544 29.735 20.9452 30.6448 20.9147C31.5545 20.8842 32.2509 21.2847 32.3423 21.1715C32.4337 21.0583 32.2683 20.9234 31.968 20.7362C31.5587 20.4839 31.081 20.3653 30.6012 20.3967C30.1243 20.4191 29.6669 20.5929 29.2954 20.8929C29.0343 21.0975 28.9516 21.3021 29.0081 21.35Z" fill="#263238"/>
<path d="M34.8586 28.4927C34.3696 28.3664 33.8664 28.3035 33.3613 28.3056C33.1262 28.3056 32.9043 28.2577 32.8564 28.1053C32.8217 27.8652 32.8628 27.6202 32.9739 27.4046L33.5615 25.5982C34.3798 23.0257 34.9587 20.9147 34.8673 20.8842C34.7759 20.8538 33.9968 22.9082 33.2002 25.485L32.63 27.3044C32.4987 27.5927 32.474 27.9181 32.5604 28.2229C32.5978 28.3033 32.6535 28.374 32.723 28.4291C32.7925 28.4843 32.874 28.5225 32.9608 28.5406C33.0907 28.57 33.2239 28.5817 33.3569 28.5754C33.859 28.6113 34.3636 28.5835 34.8586 28.4927Z" fill="#263238"/>
<path d="M34.819 39.3005C37.9276 39.1751 40.9407 38.1913 43.5244 36.4582C43.5244 36.4582 41.422 41.1591 34.7842 40.9066L34.819 39.3005Z" fill="#8A4A43"/>
<path d="M37.5701 28.9715C37.4221 28.9715 37.4743 29.9596 36.6691 30.7126C35.8638 31.4656 34.8018 31.409 34.8018 31.5483C34.8018 31.6136 35.0455 31.7268 35.4938 31.7181C36.0724 31.6911 36.6234 31.4633 37.0521 31.0739C37.4608 30.6974 37.7099 30.1788 37.7485 29.6244C37.7616 29.2022 37.6397 28.9628 37.5701 28.9715Z" fill="#263238"/>
<path d="M29.3178 18.1638C29.4832 18.3771 30.1884 18.1899 30.9893 18.2117C31.7901 18.2334 32.4953 18.4119 32.6607 18.2117C32.7347 18.1072 32.6346 17.8983 32.3429 17.6893C31.9389 17.4384 31.474 17.3025 30.9985 17.2963C30.5229 17.2902 30.0546 17.414 29.6443 17.6545C29.3483 17.8504 29.2438 18.0593 29.3178 18.1638Z" fill="#263238"/>
<path d="M40.5039 24.0225C40.511 24.2436 40.4311 24.4587 40.2814 24.6215C40.1316 24.7842 39.9239 24.8818 39.703 24.8931C39.5966 24.9014 39.4897 24.8886 39.3882 24.8554C39.2868 24.8222 39.193 24.7693 39.1121 24.6997C39.0312 24.6302 38.9648 24.5453 38.9168 24.45C38.8688 24.3547 38.8402 24.2508 38.8325 24.1444C38.8253 23.9233 38.9052 23.7082 39.055 23.5455C39.2048 23.3827 39.4125 23.2851 39.6334 23.2739C39.7397 23.2655 39.8467 23.2783 39.9481 23.3115C40.0496 23.3447 40.1434 23.3976 40.2243 23.4672C40.3052 23.5367 40.3716 23.6216 40.4195 23.7169C40.4675 23.8122 40.4962 23.9161 40.5039 24.0225Z" fill="#263238"/>
<path d="M41.3266 20.9974C41.2221 21.1106 40.5735 20.6448 39.6638 20.6666C38.7541 20.6884 38.0925 21.1497 37.988 21.0409C37.8836 20.9321 38.0446 20.7928 38.3319 20.5752C38.7219 20.2959 39.1885 20.1439 39.6682 20.1399C40.1422 20.1322 40.6067 20.2738 40.9957 20.5447C41.2787 20.7493 41.3788 20.9495 41.3266 20.9974Z" fill="#263238"/>
<path d="M40.7603 18.0811C40.5862 18.29 39.8898 18.0811 39.0193 18.0811C38.1487 18.0811 37.461 18.2465 37.2782 18.0332C37.2042 17.9287 37.313 17.7198 37.622 17.5196C38.0467 17.2756 38.5287 17.1494 39.0185 17.1539C39.5082 17.1585 39.9878 17.2938 40.4078 17.5457C40.7603 17.7677 40.8561 17.9766 40.7603 18.0811Z" fill="#263238"/>
<path d="M47.4248 26.1379C47.3987 25.6461 47.8993 24.4534 48.3824 24.3533C49.6882 24.0791 52.0082 24.0573 52.2084 27.3436C52.487 31.84 47.9167 31.1914 47.8992 31.0652C47.8818 30.939 47.5119 27.8311 47.4248 26.1379Z" fill="#B56760"/>
<path d="M49.0312 29.3459C49.0312 29.3459 49.114 29.3937 49.2489 29.446C49.4375 29.5213 49.6479 29.5213 49.8365 29.446C50.2979 29.2414 50.6505 28.4623 50.6243 27.6527C50.6167 27.2584 50.5184 26.8711 50.3371 26.521C50.2864 26.3828 50.2029 26.2591 50.0937 26.1605C49.9845 26.0619 49.8529 25.9914 49.7103 25.9551C49.6208 25.9405 49.5291 25.9567 49.45 26.0009C49.371 26.0452 49.3093 26.115 49.275 26.1989C49.2228 26.3294 49.275 26.4165 49.2315 26.4252C49.1879 26.4339 49.1314 26.3556 49.1575 26.1684C49.1741 26.0559 49.2295 25.9527 49.3142 25.8768C49.435 25.7741 49.5912 25.7225 49.7494 25.7331C49.9378 25.758 50.1167 25.8307 50.269 25.9442C50.4214 26.0577 50.5422 26.2083 50.62 26.3817C50.8371 26.7583 50.9568 27.1832 50.9682 27.6178C50.9943 28.5276 50.5852 29.4024 49.9453 29.6288C49.8273 29.6726 49.7007 29.6887 49.5754 29.6758C49.4502 29.663 49.3295 29.6216 49.2228 29.5548C49.053 29.4547 49.0312 29.3546 49.0312 29.3459Z" fill="#8A4A43"/>
<path d="M48.5648 24.3664L47.4244 25.5634C42.5015 20.8276 32.8472 9.02314 33.387 9.71086C35.6347 8.86916 38.0579 8.60574 40.434 8.94479C44.1033 9.57158 51.0589 11.4041 50.9544 15.7306C50.85 20.0572 48.5648 24.3664 48.5648 24.3664Z" fill="#263238"/>
<path d="M55.098 23.387C55.0851 23.2975 55.0618 23.2099 55.0284 23.1259C54.948 22.8808 54.8461 22.6434 54.7237 22.4164C54.2591 21.5822 53.6172 20.8601 52.8433 20.301C51.6961 19.4822 50.4166 18.8667 49.0608 18.4815C47.5548 17.994 45.8616 17.611 44.1989 16.8972C42.6273 16.2415 41.1361 15.4076 39.7548 14.4118C38.629 13.5948 37.58 12.677 36.6208 11.6696C35.9748 10.987 35.3687 10.2676 34.8057 9.51499L34.3705 8.8969C34.3209 8.823 34.2656 8.75314 34.2051 8.68797C34.2352 8.77218 34.2777 8.8514 34.3313 8.92302C34.4271 9.07101 34.562 9.293 34.7666 9.56722C35.3034 10.3446 35.8939 11.0834 36.5338 11.7784C37.4845 12.8111 38.5326 13.7498 39.6634 14.5815C41.0506 15.5994 42.5542 16.4483 44.1423 17.1104C45.7435 17.7192 47.375 18.2451 49.0304 18.6861C50.3691 19.0538 51.6372 19.6422 52.7824 20.4272C53.5477 20.9656 54.1938 21.6561 54.6801 22.4555C54.9761 23.0214 55.0762 23.387 55.098 23.387Z" fill="#455A64"/>
<path d="M53.7886 24.0791C53.8026 23.7439 53.7432 23.4096 53.6145 23.0997C53.2781 22.2391 52.6894 21.5002 51.9257 20.98C50.9898 20.2792 49.6492 19.8483 48.1737 19.5088C46.5695 19.1906 45.0059 18.6942 43.5119 18.0289C42.0248 17.351 40.6283 16.4898 39.3551 15.4651C38.3149 14.6267 37.36 13.6878 36.5041 12.662C35.9304 11.9698 35.3998 11.243 34.9153 10.4856L34.5367 9.85015C34.4964 9.7732 34.4466 9.70156 34.3887 9.63686C34.4131 9.71943 34.4482 9.79845 34.4931 9.87191L34.8414 10.5248C35.2972 11.3091 35.8108 12.0584 36.3779 12.7664C37.2258 13.815 38.1781 14.7746 39.2202 15.6305C40.5029 16.6747 41.9128 17.5523 43.4162 18.2421C44.9246 18.912 46.5048 19.4071 48.1258 19.7177C49.597 20.0398 50.9115 20.449 51.8343 21.1149C52.5821 21.6095 53.1715 22.3092 53.5318 23.1302C53.646 23.4381 53.732 23.7557 53.7886 24.0791Z" fill="#455A64"/>
<path d="M48.417 31.9792C48.417 31.9488 48.8 31.8965 49.466 31.7224C50.4001 31.4501 51.2603 30.9694 51.9818 30.3165C53.0352 29.3291 53.8366 28.1037 54.3192 26.743C54.9316 25.08 55.2611 23.3263 55.2943 21.5545C55.3133 20.6398 55.2404 19.7255 55.0766 18.8254C54.9058 17.9922 54.6551 17.1774 54.328 16.3922C53.7605 15.0603 52.9734 13.8332 51.9993 12.7621C51.0786 11.7982 50.0686 10.9238 48.9828 10.1505C49.0711 10.1806 49.1547 10.2231 49.231 10.2767C49.3876 10.3768 49.627 10.5074 49.91 10.712C50.7267 11.2725 51.4799 11.9206 52.156 12.6446C53.169 13.716 53.9892 14.9544 54.5804 16.3052C54.9229 17.1069 55.1839 17.941 55.3595 18.7949C55.5342 19.7128 55.6116 20.6466 55.5902 21.5807C55.5587 23.3863 55.2141 25.1727 54.5717 26.8605C54.0633 28.2559 53.2204 29.5054 52.1168 30.4993C51.3679 31.1551 50.4721 31.621 49.5052 31.8574C49.2433 31.9199 48.977 31.9621 48.7086 31.9836C48.6117 31.9959 48.5135 31.9944 48.417 31.9792Z" fill="#455A64"/>
<path d="M20.3642 51.4532L20.4774 51.3096C25.4307 46.0863 34.5496 44.3148 34.5496 44.3148C34.5496 44.3148 35.1068 47.7447 40.2081 48.1277C45.3095 48.5108 49.0746 43.3049 49.0746 43.3049L55.8952 44.2625C55.8952 44.2625 59.3251 44.6673 61.4623 45.9209C66.2764 48.7545 68.8314 58.5176 68.8314 58.5176L16.2422 58.7309L20.3642 51.4532Z" fill="#455A64"/>
<path d="M15.5541 0L15.1885 0.0261168L14.7532 0.0522319C14.5748 0.0522319 14.3658 0.11317 14.1308 0.147992C12.7304 0.382176 11.4107 0.962722 10.2917 1.83684C8.49045 3.24012 7.31826 5.29968 7.03156 7.56498C6.96602 8.25208 6.94276 8.94256 6.96191 9.63251C6.96191 10.3507 6.96191 11.0907 6.96191 11.8567C6.96191 13.3845 6.96191 15.0081 6.96191 16.7187C6.96191 23.5742 6.96191 31.8661 6.98803 41.3201C6.98803 43.6851 6.98803 46.1211 6.98803 48.6283C6.98803 49.2507 6.98803 49.8862 7.02285 50.5087C7.071 51.1397 7.18479 51.7641 7.36236 52.3716C7.74494 53.6083 8.4027 54.7423 9.28625 55.6884C9.73233 56.1683 10.2301 56.5975 10.7705 56.9681C11.3247 57.335 11.9191 57.6373 12.5421 57.8691L13.0122 58.0432L13.4997 58.165C13.826 58.2492 14.1575 58.3117 14.4921 58.3522C14.8272 58.4044 15.1667 58.3957 15.5063 58.4175H25.117V58.522C25.117 62.7658 25.117 67.3014 25.117 71.9544L24.9385 71.876C27.1613 69.778 29.4204 67.6133 31.7157 65.3818C33.9965 63.1445 36.3295 60.8724 38.5538 58.4436L38.5886 58.4088H69.3752C69.941 58.4088 70.5025 58.4088 71.051 58.3696C72.7011 58.2325 74.2754 57.6172 75.5812 56.599C76.8869 55.5808 77.8674 54.204 78.4027 52.6371C78.7419 51.6087 78.8996 50.5291 78.8684 49.4466V46.1951C78.8684 37.5594 78.8684 29.2196 78.8684 21.2934C78.8684 17.3295 78.8684 13.4643 78.8684 9.6978C78.905 8.77151 78.8466 7.8439 78.6943 6.92949C78.5121 6.04264 78.1966 5.18853 77.7585 4.39622C76.8663 2.84641 75.5139 1.61268 73.8889 0.866185C73.1016 0.505631 72.2632 0.269234 71.4035 0.165403C70.551 0.0928527 69.6951 0.0681479 68.8398 0.0914062H63.8299H54.4106L25.9614 0.0435263L54.3845 0.00870559H63.8037H68.8137C69.6762 -0.014104 70.5394 0.0105978 71.3992 0.0827006C72.2786 0.186171 73.1364 0.42705 73.9412 0.796542C75.6012 1.55949 76.9836 2.81873 77.8978 4.40057C78.3596 5.21553 78.6942 6.09621 78.8902 7.01219C79.0416 7.93989 79.0999 8.88039 79.0643 9.81968C79.0643 13.592 79.0643 17.4572 79.0643 21.4153C79.0643 29.3502 79.0643 37.6813 79.0643 46.317V49.5685C79.0965 50.6763 78.9345 51.7811 78.5855 52.833C78.0368 54.4413 77.0309 55.8546 75.6911 56.8998C74.3513 57.9451 72.7357 58.5769 71.0423 58.7178C70.4721 58.757 69.9106 58.757 69.3491 58.7527H38.6408L38.7235 58.7178C36.4906 61.151 34.1575 63.4231 31.8724 65.6821C29.5872 67.9412 27.3151 69.9347 25.0909 72.0327L24.9081 72.2068V71.9544C24.9081 67.3014 24.9081 62.7658 24.9081 58.522L25.0125 58.6221H15.515C15.1667 58.596 14.8185 58.6221 14.479 58.5524C14.1371 58.5109 13.7983 58.4469 13.4648 58.3609L12.9643 58.2347L12.4681 58.0519C11.8329 57.8138 11.2269 57.5042 10.6617 57.1291C10.1085 56.7498 9.59772 56.312 9.13826 55.8233C8.24022 54.8536 7.57091 53.6949 7.17955 52.4325C6.99959 51.8119 6.88293 51.1746 6.83133 50.5304C6.80957 49.8819 6.80957 49.2551 6.80957 48.6326C6.80957 46.1255 6.80957 43.6894 6.80957 41.3245C6.80957 31.8704 6.80957 23.5785 6.83569 16.7231C6.83569 15.0124 6.83569 13.3889 6.83569 11.8611C6.83569 11.095 6.83569 10.3551 6.83569 9.63686C6.81966 8.94239 6.84583 8.24758 6.91404 7.55628C7.21244 5.27053 8.40523 3.19645 10.2308 1.78896C11.3546 0.917967 12.6792 0.343235 14.0829 0.117523C14.318 0.0870541 14.5182 0.0478788 14.7097 0.0348207L15.145 0.0130576L15.5541 0Z" fill="#263238"/>
<path d="M47.0368 100.225H5.08557C2.34268 100.225 0.119141 102.449 0.119141 105.191V137.384C0.119141 140.127 2.34268 142.35 5.08557 142.35H47.0368C49.7797 142.35 52.0033 140.127 52.0033 137.384V105.191C52.0033 102.449 49.7797 100.225 47.0368 100.225Z" fill="white"/>
<path d="M28.1377 141.062C28.6687 142.368 38.9628 152.022 38.9628 152.022V141.062H28.1377Z" fill="#016BBF"/>
<path d="M35.3761 109.57C35.1217 108.747 34.7058 107.983 34.1528 107.322C33.5997 106.662 32.9206 106.118 32.1551 105.723C30.4269 104.918 28.4725 104.739 26.6271 105.218C24.7988 105.701 23.0611 106.479 21.4823 107.52C20.5526 108.034 19.7274 108.718 19.0491 109.536C17.8869 111.081 16.7726 113.601 16.7117 115.534C16.6595 117.096 17.369 120.983 18.0697 122.38C18.4419 122.958 18.9765 123.412 19.6062 123.686C20.3573 125.071 21.3493 126.31 22.5356 127.347C22.8664 126.291 23.1987 125.233 23.5324 124.174L35.3761 109.57Z" fill="#263238"/>
<path d="M34.4234 107.681L31.333 107.22C33.1263 111.172 33.8445 120.313 34.9283 124.518C36.0122 122.842 38.5019 117.758 38.306 115.769C38.1102 113.779 38.0666 107.237 34.4234 107.681Z" fill="#263238"/>
<path d="M20.0372 114.759C20.0594 113.634 20.4418 112.547 21.1281 111.656C21.8145 110.765 22.7686 110.118 23.8502 109.81L30.8798 107.803C33.9267 107.368 36.0769 111.089 36.3685 114.154C36.6863 117.558 36.9257 121.157 36.5992 123.73C35.9463 128.875 32.042 129.649 32.042 129.649C32.042 129.649 32.1116 132.082 32.1508 133.567L31.006 140.266L21.7391 132.352L19.998 114.82C20.0155 114.733 20.0329 114.876 20.0372 114.759Z" fill="#FFBF9D"/>
<path d="M34.8189 118.415C34.8273 118.586 34.7679 118.753 34.6538 118.88C34.5397 119.007 34.3801 119.084 34.2096 119.094C34.1262 119.104 34.0417 119.096 33.9611 119.073C33.8806 119.049 33.8056 119.01 33.7406 118.956C33.6757 118.903 33.6221 118.837 33.583 118.763C33.5439 118.689 33.5201 118.608 33.5131 118.524C33.507 118.353 33.567 118.187 33.6805 118.06C33.7941 117.932 33.9524 117.854 34.1225 117.84C34.2061 117.831 34.2907 117.839 34.3713 117.863C34.4519 117.888 34.5268 117.928 34.5917 117.981C34.6565 118.035 34.7101 118.101 34.7491 118.175C34.7881 118.25 34.8119 118.331 34.8189 118.415Z" fill="#263238"/>
<path d="M35.6548 116.182C35.5764 116.269 35.0672 115.917 34.349 115.943C33.6308 115.969 33.1346 116.334 33.0432 116.247C32.9518 116.16 33.0823 116.056 33.3043 115.882C33.6041 115.662 33.9641 115.539 34.3359 115.529C34.7028 115.518 35.0639 115.623 35.3675 115.83C35.6156 115.991 35.6939 116.143 35.6548 116.182Z" fill="#263238"/>
<path d="M28.4556 118.415C28.464 118.586 28.4046 118.753 28.2905 118.88C28.1764 119.007 28.0168 119.084 27.8463 119.094C27.7629 119.104 27.6784 119.096 27.5978 119.073C27.5173 119.049 27.4423 119.01 27.3773 118.956C27.3124 118.903 27.2588 118.837 27.2197 118.763C27.1806 118.689 27.1569 118.608 27.1498 118.524C27.1438 118.353 27.2043 118.186 27.3188 118.058C27.4333 117.931 27.5927 117.853 27.7636 117.84C27.847 117.831 27.9313 117.839 28.0116 117.864C28.0919 117.888 28.1666 117.928 28.2311 117.981C28.2956 118.035 28.3488 118.101 28.3873 118.175C28.4259 118.25 28.4491 118.331 28.4556 118.415Z" fill="#263238"/>
<path d="M28.9475 116.374C28.8648 116.461 28.3599 116.108 27.6417 116.134C26.9235 116.16 26.4317 116.526 26.3359 116.439C26.2402 116.352 26.3751 116.247 26.5971 116.073C26.8968 115.853 27.2569 115.73 27.6287 115.721C27.9956 115.71 28.3567 115.815 28.6603 116.021C28.904 116.182 29.0085 116.334 28.9475 116.374Z" fill="#263238"/>
<path d="M31.3113 121.858C31.682 121.733 32.0663 121.653 32.4561 121.619C32.6345 121.593 32.8043 121.553 32.8304 121.427C32.8397 121.241 32.7927 121.056 32.6955 120.896C32.5127 120.461 32.3211 120.026 32.1166 119.538C31.3157 117.605 30.7324 116.012 30.8108 115.982C30.8891 115.951 31.5986 117.492 32.3995 119.425L32.9566 120.792C33.0753 121.006 33.1154 121.256 33.0698 121.497C33.0456 121.561 33.0073 121.619 32.9575 121.667C32.9078 121.714 32.848 121.75 32.7825 121.771C32.6835 121.801 32.5812 121.818 32.4778 121.823C32.0921 121.885 31.7001 121.896 31.3113 121.858Z" fill="#263238"/>
<path d="M25.1992 128.004C25.1992 128.004 26.9664 131.486 32.0721 130.833L32.0547 129.632C29.6628 129.736 27.2891 129.172 25.1992 128.004Z" fill="#FF9A6C"/>
<path d="M28.6516 113.827C28.5863 114.019 27.8811 113.954 27.0541 114.075C26.2271 114.197 25.5655 114.45 25.448 114.28C25.3957 114.197 25.5089 114.014 25.7744 113.819C26.128 113.58 26.5312 113.425 26.9535 113.366C27.3758 113.306 27.8062 113.343 28.2119 113.475C28.521 113.588 28.6777 113.736 28.6516 113.827Z" fill="#263238"/>
<path d="M35.3632 114.028C35.2457 114.193 34.7538 114.028 34.1662 114.049C33.5786 114.071 33.0911 114.193 32.9692 114.028C32.917 113.945 32.991 113.784 33.2043 113.627C33.4889 113.434 33.8247 113.331 34.1684 113.331C34.5121 113.331 34.8479 113.434 35.1325 113.627C35.3414 113.784 35.4154 113.949 35.3632 114.028Z" fill="#263238"/>
<path d="M34.8405 109.518C34.6492 109.147 34.3587 108.837 34.0013 108.622C33.6438 108.407 33.2336 108.295 32.8165 108.299C31.9793 108.321 31.1662 108.584 30.4747 109.057C27.4757 110.907 26.0306 115.207 23.0751 117.118C22.3482 117.584 21.3689 117.201 20.7551 117.814C20.1414 118.428 19.7627 119.386 20.1327 120.169C19.6863 119.644 19.3169 119.058 19.0358 118.428C18.8984 118.112 18.83 117.77 18.8352 117.426C18.8405 117.081 18.9193 116.742 19.0663 116.43C19.3144 115.969 19.7627 115.612 19.8759 115.124C19.9891 114.637 19.7845 114.215 19.7932 113.758C19.8341 113.294 19.9832 112.847 20.2285 112.452C21.3006 110.291 22.9407 108.463 24.9729 107.163C26.3142 106.332 27.8564 105.88 29.4344 105.858C31.0171 105.85 32.5504 106.409 33.7566 107.433C34.4487 108.043 35.1756 108.674 34.8492 109.536" fill="#263238"/>
<path d="M20.8471 118.446C20.7862 118.302 18.0875 117.414 18.1354 120.252C18.1789 123.011 20.9472 122.389 20.9472 122.311C20.9472 122.232 20.8471 118.446 20.8471 118.446Z" fill="#FFBF9D"/>
<path d="M20.0763 121.283C20.0763 121.283 20.0284 121.318 19.9501 121.353C19.834 121.399 19.7049 121.399 19.5888 121.353C19.4096 121.242 19.2626 121.086 19.1626 120.9C19.0625 120.715 19.0129 120.506 19.0186 120.295C19.0099 120.059 19.0514 119.823 19.1405 119.603C19.166 119.517 19.2116 119.438 19.2737 119.373C19.3358 119.308 19.4125 119.259 19.4974 119.229C19.5519 119.213 19.6102 119.217 19.662 119.24C19.7139 119.263 19.7558 119.304 19.7803 119.355C19.8195 119.434 19.8021 119.486 19.8195 119.49C19.8369 119.495 19.8761 119.447 19.8543 119.329C19.836 119.262 19.7963 119.202 19.7412 119.159C19.6644 119.104 19.5693 119.081 19.4757 119.094C19.3629 119.119 19.2583 119.172 19.1715 119.248C19.0847 119.324 19.0187 119.421 18.9794 119.529C18.8666 119.77 18.8142 120.034 18.8271 120.3C18.8183 120.546 18.8827 120.79 19.012 121C19.1414 121.209 19.33 121.376 19.554 121.479C19.6282 121.498 19.7056 121.5 19.7808 121.486C19.8559 121.472 19.9271 121.441 19.9893 121.397C20.072 121.349 20.0894 121.288 20.0763 121.283Z" fill="#FF9A6C"/>
<path d="M19.707 117.061C19.7639 117.037 19.8179 117.006 19.8681 116.97C19.9725 116.9 20.1292 116.809 20.3033 116.665C20.8344 116.252 21.3202 115.784 21.7528 115.268C22.3786 114.497 22.9599 113.69 23.4939 112.852C24.1376 111.827 24.8656 110.858 25.6702 109.953C26.1037 109.5 26.5854 109.096 27.1066 108.748C27.5958 108.431 28.122 108.175 28.6736 107.986C29.6077 107.657 30.596 107.509 31.5855 107.551C32.2528 107.573 32.9143 107.683 33.553 107.877C33.7793 107.942 33.949 108.012 34.0666 108.051L34.2494 108.112L34.0753 108.03C33.9094 107.955 33.7393 107.889 33.566 107.834C32.9272 107.615 32.2601 107.491 31.5855 107.464C30.5829 107.417 29.5808 107.565 28.6344 107.899C28.0734 108.09 27.5383 108.351 27.0413 108.674C26.5097 109.024 26.0191 109.433 25.5788 109.892C24.7705 110.801 24.0424 111.779 23.4025 112.813C22.8636 113.65 22.2825 114.459 21.6614 115.238C21.2526 115.739 20.798 116.201 20.3033 116.617C20.1205 116.765 19.9638 116.865 19.8681 116.944L19.707 117.061Z" fill="white"/>
<path d="M20.4253 117.84C20.3372 118.581 20.4453 119.331 20.7387 120.017C21.1087 120.678 21.9966 121.109 22.6408 120.713C23.1675 120.396 23.3068 119.703 23.3808 119.094C23.5941 117.331 23.6594 115.551 23.8857 113.788L20.4253 117.84Z" fill="#263238"/>
<path d="M34.1272 108.225C34.1272 108.225 33.8835 108.186 33.4395 108.186C32.8152 108.194 32.1985 108.324 31.6244 108.569C31.2281 108.737 30.8503 108.946 30.4971 109.192C30.0934 109.479 29.7081 109.792 29.3436 110.128C28.4977 110.886 27.7465 111.744 27.1063 112.683C26.7712 113.183 26.4752 113.697 26.1487 114.176C25.8479 114.641 25.4929 115.069 25.091 115.451C24.3924 116.078 23.6242 116.622 22.8015 117.074C22.1094 117.471 21.5262 117.749 21.1257 117.945L20.66 118.158C20.6062 118.187 20.5492 118.209 20.4902 118.224C20.5386 118.187 20.5912 118.156 20.6469 118.132L21.0822 117.888C21.4739 117.679 22.0485 117.388 22.7319 116.987C23.5363 116.525 24.288 115.976 24.9735 115.351C25.3686 114.975 25.7178 114.555 26.0138 114.097C26.3316 113.623 26.6275 113.109 26.967 112.6C27.6182 111.645 28.3842 110.774 29.2479 110.006C29.6208 109.672 30.0132 109.361 30.4231 109.074C30.7849 108.826 31.1732 108.618 31.5809 108.456C32.1699 108.214 32.8028 108.097 33.4395 108.112C33.6119 108.118 33.7835 108.137 33.9531 108.169C34.0132 108.181 34.0716 108.2 34.1272 108.225Z" fill="#455A64"/>
<path d="M20.3029 116.121C20.23 116.187 20.1497 116.244 20.0635 116.291L19.3758 116.726L19.1451 116.865C19.0543 116.924 18.9517 116.961 18.8448 116.974C18.7802 116.986 18.7137 116.973 18.6576 116.939C18.6272 116.919 18.6018 116.892 18.583 116.86C18.5642 116.829 18.5525 116.793 18.5488 116.757C18.5524 116.629 18.5949 116.506 18.6706 116.404L19.4454 115.098L19.5586 115.198C19.2957 115.4 19.0016 115.557 18.6881 115.664C18.371 115.769 18.0381 115.818 17.7043 115.808C17.6189 115.809 17.5339 115.797 17.4519 115.773C17.404 115.761 17.3595 115.739 17.3218 115.707C17.2841 115.675 17.2541 115.635 17.2343 115.59C17.2177 115.544 17.2122 115.495 17.2182 115.447C17.2243 115.398 17.2417 115.352 17.2691 115.312C17.3155 115.248 17.3664 115.189 17.4214 115.133C17.7741 114.773 18.0758 114.365 18.3181 113.923C18.5376 113.502 18.7253 113.066 18.8796 112.617C18.872 112.743 18.8471 112.868 18.8056 112.987C18.7085 113.321 18.5787 113.645 18.4182 113.954C18.18 114.419 17.8766 114.849 17.5172 115.229C17.4171 115.329 17.317 115.447 17.3605 115.529C17.404 115.612 17.5564 115.655 17.7 115.651C18.0163 115.66 18.3316 115.613 18.6315 115.512C18.93 115.415 19.2098 115.268 19.4585 115.077L19.7806 114.828L19.5717 115.177L18.7795 116.482C18.7178 116.562 18.6801 116.657 18.6706 116.757C18.6706 116.835 18.7446 116.879 18.8317 116.87C19.0079 116.827 19.1746 116.751 19.3235 116.648L20.033 116.26C20.1158 116.201 20.2067 116.154 20.3029 116.121Z" fill="white"/>
<path d="M28.6643 123.238C28.7092 123.026 28.8272 122.838 28.9976 122.705C29.168 122.572 29.3798 122.503 29.5958 122.511C29.7538 122.526 29.9055 122.581 30.0376 122.669C30.1697 122.757 30.2781 122.876 30.3531 123.016C30.4249 123.158 30.4677 123.312 30.4789 123.471C30.4901 123.629 30.4695 123.788 30.4184 123.939V124.004C30.2769 124.167 30.0883 124.282 29.8786 124.333C29.6689 124.385 29.4485 124.37 29.2476 124.291C29.0469 124.206 28.8806 124.056 28.7749 123.865C28.6693 123.674 28.6303 123.453 28.6643 123.238Z" fill="#FF9A6C"/>
<path d="M30.9191 124.004C30.9191 123.899 30.2053 123.952 29.6481 123.381C29.091 122.811 29.1127 122.045 29.0126 122.045C28.9125 122.045 28.8908 122.228 28.9038 122.55C28.9331 122.967 29.107 123.362 29.3957 123.664C29.6737 123.956 30.0548 124.128 30.4577 124.143C30.7494 124.148 30.9278 124.052 30.9191 124.004Z" fill="#263238"/>
<path d="M42.3194 137.267L42.241 137.162C38.6718 133.388 32.108 132.126 32.108 132.126C32.108 132.126 31.7075 134.594 28.0295 134.873C24.3515 135.151 21.6441 131.39 21.6441 131.39L16.7386 132.078C16.7386 132.078 14.2663 132.37 12.7254 133.275C9.24325 135.312 7.42383 142.342 7.42383 142.342L45.2923 142.494L42.3194 137.267Z" fill="#016BBF"/>
<path d="M45.7837 100.225C45.7837 100.225 45.8707 100.225 46.0448 100.225C46.3075 100.227 46.5695 100.25 46.8283 100.295C47.8394 100.458 48.7938 100.871 49.6053 101.496C50.9204 102.512 51.7809 104.006 51.9993 105.653C52.0492 106.152 52.0681 106.653 52.0559 107.155C52.0559 107.668 52.0559 108.204 52.0559 108.752C52.0559 109.853 52.0559 111.024 52.0559 112.256C52.0559 117.188 52.0559 123.159 52.082 129.963C52.082 131.663 52.082 133.417 52.082 135.225C52.082 135.66 52.082 136.126 52.082 136.592C52.0477 137.058 51.963 137.519 51.8296 137.967C51.5501 138.881 51.0664 139.719 50.4149 140.418C49.7532 141.142 48.9279 141.697 48.0079 142.037L47.6597 142.163L47.2984 142.255C47.0578 142.316 46.8136 142.363 46.5672 142.394C46.0709 142.44 45.5724 142.457 45.0742 142.446H38.9804L39.0805 142.342C39.0805 145.389 39.0805 148.666 39.0805 152.013V152.262L38.8977 152.092C37.2959 150.589 35.668 149.038 34.014 147.439C32.3687 145.828 30.6885 144.192 29.078 142.438L29.1607 142.477H7.036C6.6312 142.477 6.2264 142.477 5.81289 142.451C4.5878 142.348 3.41907 141.891 2.44967 141.135C1.48028 140.379 0.752239 139.357 0.354613 138.194C0.103765 137.433 -0.0140327 136.635 0.00639752 135.835V133.493C0.00639752 127.273 0.00639752 121.279 0.00639752 115.564C0.00639752 112.709 0.00639752 109.927 0.00639752 107.22C-0.0176411 106.541 0.0261022 105.862 0.136978 105.192C0.278064 104.534 0.518784 103.901 0.85082 103.316C1.51253 102.17 2.51315 101.257 3.71489 100.704C4.29712 100.439 4.91669 100.266 5.55173 100.19C6.17114 100.136 6.79321 100.119 7.41468 100.138H17.8176L38.2753 100.173L43.838 100.195L38.2753 100.216L17.8176 100.251H11.0361H7.42774C6.81344 100.237 6.19884 100.256 5.58655 100.308C4.64341 100.428 3.74113 100.766 2.95098 101.295C2.16082 101.823 1.50442 102.529 1.03363 103.355C0.70879 103.937 0.475368 104.565 0.341554 105.218C0.232603 105.875 0.191762 106.541 0.219679 107.207C0.219679 109.908 0.219679 112.69 0.219679 115.551C0.219679 121.266 0.219679 127.26 0.219679 133.48V135.821C0.19527 136.597 0.308749 137.371 0.554836 138.107C1.06656 139.604 2.14048 140.843 3.54949 141.563C4.25918 141.929 5.03437 142.151 5.8303 142.216C6.22204 142.242 6.62684 142.246 7.036 142.242H29.2086L29.2434 142.281C30.8452 144.022 32.5254 145.663 34.1663 147.273C35.8073 148.884 37.4439 150.438 39.0457 151.948L38.8629 152.027C38.8629 148.679 38.8629 145.41 38.8629 142.355V142.25H45.0611C45.5506 142.265 46.0405 142.249 46.528 142.203C46.7675 142.175 47.0047 142.13 47.2375 142.068L47.59 141.981L47.9252 141.859C48.8185 141.531 49.6201 140.994 50.2626 140.292C50.8943 139.615 51.3645 138.804 51.6381 137.919C51.7676 137.484 51.8507 137.036 51.8862 136.583C51.9166 136.148 51.9079 135.678 51.9079 135.23C51.9079 133.425 51.9079 131.67 51.9079 129.967C51.9079 123.164 51.9079 117.192 51.934 112.26C51.934 111.029 51.934 109.858 51.934 108.756V107.159C51.9492 106.662 51.9333 106.165 51.8862 105.67C51.7201 104.354 51.1369 103.126 50.222 102.166C49.3071 101.206 48.1086 100.563 46.8022 100.334C46.5469 100.283 46.2877 100.254 46.0274 100.247L45.7837 100.225Z" fill="#263238"/>
<path d="M126.508 186.652L72.2038 186.613C65.6747 186.613 60.3818 181.564 60.3818 175.34L60.408 45.5858C60.408 39.3571 65.7095 34.3079 72.2473 34.3123L126.556 34.3428C133.085 34.3428 138.378 39.3919 138.378 45.6162L138.352 175.366C138.347 181.612 133.037 186.657 126.508 186.652Z" fill="#263238"/>
<path d="M126.508 38.9479H115.966C115.631 38.9473 115.299 39.0127 114.989 39.1404C114.68 39.2681 114.398 39.4555 114.161 39.6919C113.924 39.9284 113.735 40.2092 113.607 40.5185C113.478 40.8277 113.411 41.1593 113.411 41.4942V43.3137C113.41 43.649 113.344 43.9809 113.215 44.2904C113.086 44.6 112.897 44.881 112.659 45.1175C112.421 45.354 112.139 45.5414 111.829 45.6687C111.519 45.7961 111.187 45.8611 110.851 45.86H90.3285C89.9935 45.8606 89.6617 45.7951 89.352 45.6675C89.0424 45.5398 88.7609 45.3524 88.5236 45.116C88.2863 44.8795 88.098 44.5987 87.9693 44.2894C87.8405 43.9802 87.774 43.6486 87.7734 43.3137V41.4899C87.7729 41.1546 87.7062 40.8226 87.5772 40.5131C87.4482 40.2036 87.2595 39.9225 87.0217 39.686C86.784 39.4495 86.502 39.2622 86.1918 39.1348C85.8816 39.0074 85.5494 38.9424 85.2141 38.9436H72.2953C67.7206 38.9436 64.0251 42.4779 64.0251 46.8393L63.999 173.503C63.999 177.855 67.7032 181.399 72.2691 181.399L126.469 181.429C131.048 181.429 134.739 177.899 134.761 173.538L134.787 46.8742C134.778 42.4867 131.07 38.9523 126.508 38.9479Z" fill="white"/>
<path d="M97.5762 70.518C98.3425 70.4632 99.0609 70.1249 99.5913 69.5691C100.122 69.0134 100.426 68.28 100.445 67.512C100.464 66.744 100.196 65.9964 99.6941 65.4151C99.1919 64.8338 98.4912 64.4603 97.7285 64.3676C98.0995 63.8042 98.2837 63.1383 98.255 62.4643C98.2263 61.7903 97.9861 61.1424 97.5685 60.6126C97.1509 60.0828 96.5771 59.6979 95.9285 59.5125C95.2798 59.3271 94.5893 59.3506 93.9548 59.5797C93.8026 58.9323 93.4853 58.3355 93.0338 57.8473C92.5823 57.3591 92.012 56.9963 91.3785 56.7942C90.745 56.5921 90.0699 56.5576 89.4191 56.6941C88.7683 56.8306 88.164 57.1334 87.6651 57.5731C86.8139 57.1192 85.8359 56.961 84.885 57.1233C83.934 57.2856 83.064 57.7592 82.4114 58.4697C81.747 58.4678 81.0998 58.681 80.5665 59.0774C80.0333 59.4739 79.6427 60.0322 79.4531 60.6691C79.2635 61.3059 79.2852 61.987 79.5148 62.6105C79.7444 63.234 80.1696 63.7664 80.7269 64.1282" fill="#263238"/>
<path d="M98.0983 70.8575C97.2224 67.6766 95.1802 64.9426 92.3785 63.2001C89.5769 61.4577 86.2217 60.8349 82.9814 61.4557L82.3154 61.5819C75.2031 63.3752 72.7395 70.4135 74.733 77.478L79.7125 103.115L94.368 114.432L98.1592 104.991L96.6662 96.46C96.6662 96.46 103.378 94.0661 102.146 87.1366C101.567 83.7807 99.7828 76.9861 98.0983 70.8575Z" fill="#C17560"/>
<path d="M96.74 96.4296C93.5251 97.044 90.2014 96.7222 87.1641 95.5025C87.1641 95.5025 90.1631 100.225 96.9446 98.2882L96.74 96.4296Z" fill="#7C4236"/>
<path d="M97.4797 77.491C97.5317 77.7481 97.4812 78.0154 97.3389 78.2358C97.1966 78.4562 96.9738 78.6122 96.718 78.6706C96.5942 78.7046 96.4649 78.7134 96.3377 78.6966C96.2104 78.6798 96.0878 78.6378 95.9771 78.5729C95.8663 78.508 95.7697 78.4216 95.6929 78.3187C95.6161 78.2159 95.5606 78.0988 95.5297 77.9742C95.4777 77.717 95.5283 77.4498 95.6706 77.2294C95.8129 77.009 96.0357 76.853 96.2914 76.7946C96.4152 76.7606 96.5445 76.7518 96.6718 76.7686C96.799 76.7853 96.9217 76.8274 97.0324 76.8923C97.1431 76.9572 97.2397 77.0436 97.3166 77.1465C97.3934 77.2493 97.4489 77.3664 97.4797 77.491Z" fill="#263238"/>
<path d="M97.254 74.5268C97.1582 74.6748 96.3051 74.2657 95.243 74.4702C94.181 74.6748 93.502 75.3408 93.3627 75.2494C93.293 75.2015 93.3627 74.9447 93.6674 74.6313C94.067 74.2255 94.5825 73.9534 95.1429 73.8522C95.6948 73.7427 96.2673 73.8145 96.7752 74.0567C97.1495 74.2439 97.3062 74.4572 97.254 74.5268Z" fill="#263238"/>
<path d="M87.8429 79.5368C87.8935 79.7939 87.8418 80.0606 87.6987 80.2801C87.5556 80.4996 87.3325 80.6546 87.0769 80.712C86.9534 80.7459 86.8243 80.7547 86.6973 80.7379C86.5704 80.7211 86.4481 80.6789 86.3377 80.614C86.2273 80.5491 86.1311 80.4626 86.0547 80.3599C85.9783 80.2571 85.9233 80.14 85.8929 80.0156C85.841 79.759 85.8917 79.4923 86.0341 79.2726C86.1765 79.0529 86.3992 78.8977 86.6546 78.8403C86.7784 78.8064 86.9077 78.7975 87.035 78.8143C87.1622 78.8311 87.2848 78.8732 87.3956 78.9381C87.5063 79.003 87.6029 79.0894 87.6798 79.1922C87.7566 79.295 87.8121 79.4122 87.8429 79.5368Z" fill="#263238"/>
<path d="M86.8469 76.7119C86.7512 76.8642 85.898 76.4507 84.836 76.6553C83.7739 76.8599 83.0949 77.5258 82.9556 77.4344C82.8903 77.3865 82.9556 77.1297 83.2603 76.8207C83.6584 76.4223 84.1687 76.155 84.7228 76.0546C85.2748 75.9483 85.8464 76.0199 86.3551 76.2592C86.7425 76.429 86.8992 76.6422 86.8469 76.7119Z" fill="#263238"/>
<path d="M92.2049 83.859C92.2049 83.7981 92.8273 83.5587 93.872 83.2148C94.1375 83.1365 94.3856 83.0363 94.3943 82.8405C94.3632 82.5556 94.2463 82.287 94.0591 82.07L92.8665 80.1592C91.1907 77.4301 89.9241 75.1623 90.0329 75.097C90.1417 75.0317 91.5912 77.1907 93.2669 79.9198L94.4291 81.8481C94.6618 82.144 94.7835 82.5121 94.773 82.8884C94.7516 82.9915 94.7072 83.0885 94.6432 83.1722C94.5791 83.2558 94.497 83.324 94.403 83.3715C94.2644 83.4381 94.1182 83.4878 93.9677 83.5195C92.8883 83.785 92.2223 83.9156 92.2049 83.859Z" fill="#263238"/>
<path d="M86.4639 73.0338C86.3768 73.3298 85.4105 73.2123 84.2875 73.3864C83.1646 73.5605 82.2505 73.9305 82.1112 73.6693C82.0416 73.5431 82.1939 73.2645 82.5465 72.9729C83.0172 72.6118 83.5736 72.3793 84.1613 72.2982C84.7395 72.2085 85.3311 72.273 85.8763 72.4854C86.3072 72.6682 86.5205 72.8946 86.4639 73.0338Z" fill="#263238"/>
<path d="M96.6662 70.74C96.4877 71.0229 95.5649 70.9402 94.4898 71.1274C93.4147 71.3145 92.5746 71.6628 92.3135 71.4495C92.2003 71.3407 92.2917 71.0751 92.6399 70.7704C93.1239 70.3833 93.7024 70.1324 94.3157 70.0436C94.9223 69.9298 95.5484 69.984 96.1264 70.2002C96.5748 70.3961 96.7445 70.6007 96.6662 70.74Z" fill="#263238"/>
<path d="M77.1444 83.9939C77.0877 83.7416 76.9803 83.5033 76.8289 83.2937C76.6774 83.084 76.4849 82.9073 76.2631 82.7742C76.0413 82.6411 75.7948 82.5544 75.5385 82.5195C75.2822 82.4845 75.0215 82.5019 74.7721 82.5706C73.5055 82.9406 72.2084 83.9461 72.8047 86.5925C73.8537 91.2891 78.3544 89.265 78.3326 89.1301C78.3109 88.9952 77.6014 85.957 77.1444 83.9939Z" fill="#C17560"/>
<path d="M76.9142 87.5893C76.8924 87.5893 76.8445 87.6676 76.7227 87.759C76.5473 87.8875 76.3285 87.9422 76.1133 87.9114C75.5736 87.8374 74.9816 87.1453 74.7683 86.3052C74.6653 85.9051 74.6548 85.4868 74.7378 85.0821C74.7484 84.9254 74.7971 84.7736 74.8798 84.6401C74.9625 84.5065 75.0767 84.3953 75.2123 84.316C75.3005 84.2719 75.4011 84.2591 75.4976 84.2797C75.5941 84.3002 75.6807 84.353 75.7433 84.4292C75.8347 84.5467 75.826 84.6468 75.8565 84.6512C75.887 84.6555 75.9392 84.5511 75.8565 84.3639C75.8034 84.2536 75.7144 84.1645 75.604 84.1115C75.5282 84.0799 75.4468 84.0636 75.3646 84.0636C75.2825 84.0636 75.2011 84.0799 75.1252 84.1115C74.9409 84.1924 74.7804 84.3194 74.6592 84.4802C74.538 84.6411 74.4602 84.8303 74.4332 85.0299C74.3244 85.4804 74.3244 85.9504 74.4332 86.401C74.6769 87.3412 75.3603 88.1421 76.0828 88.1638C76.2174 88.1724 76.3522 88.1506 76.4773 88.1001C76.6023 88.0497 76.7144 87.9718 76.8054 87.8722C76.9316 87.7068 76.9316 87.598 76.9142 87.5893Z" fill="#7C4236"/>
<path d="M92.2961 61.7734C92.2306 61.6637 92.1533 61.5615 92.0654 61.4687C91.7292 61.1275 91.3182 60.8693 90.8649 60.7144C90.4116 60.5595 89.9285 60.5123 89.4538 60.5764C88.8683 60.4027 88.2702 60.2746 87.6648 60.1934C87.2051 59.6486 86.6139 59.2301 85.9472 58.9777C85.2805 58.7252 84.5604 58.6472 83.8551 58.7509C83.1498 58.8547 82.4827 59.1368 81.917 59.5705C81.3512 60.0042 80.9055 60.5752 80.6222 61.2293C80.4307 61.2946 80.2435 61.3643 80.0563 61.4383C79.4667 61.1555 78.82 61.0117 78.166 61.0181C77.512 61.0245 76.8683 61.1809 76.2843 61.4752C75.7002 61.7696 75.1916 62.194 74.7973 62.7158C74.4031 63.2376 74.1339 63.8429 74.0104 64.4852C73.4009 64.4385 72.7911 64.5728 72.2577 64.8714C71.7242 65.17 71.2908 65.6194 71.0119 66.1634C70.7329 66.7074 70.6208 67.3216 70.6896 67.9291C70.7585 68.5365 71.0052 69.1101 71.3988 69.5778C70.6415 70.2264 70.093 71.2101 70.241 72.1894C70.389 73.1688 71.4162 73.8565 72.2824 73.5779C72.5479 75.8762 73.2966 78.4965 73.8624 80.8252C74.2629 82.4661 76.5568 83.0494 76.9093 84.1463C78.7375 89.7395 80.0085 86.2138 78.4676 74.2047C78.5677 74.0872 78.6722 73.9653 78.7723 73.8347C78.9184 73.5536 79.0449 73.2627 79.151 72.9642C79.3512 72.6116 79.8474 72.616 80.2522 72.5812C80.9528 72.5025 81.605 72.1854 82.0995 71.683C82.5941 71.1805 82.9008 70.5233 82.9683 69.8216C83.4036 70.2568 84.2349 70.1001 84.7094 69.6562C85.1255 69.1677 85.4699 68.6225 85.7322 68.037C86.0587 67.4798 86.5593 66.9444 87.1991 66.914C87.5551 66.9652 87.9159 66.9754 88.2742 66.9444C88.8836 66.7747 89.049 65.9868 89.0229 65.3557C88.9453 64.822 89.0145 64.2773 89.2231 63.78C89.5636 63.5219 89.9487 63.3286 90.3592 63.2098C90.5986 63.2098 90.8467 63.2098 91.0817 63.1837C91.1943 63.1775 91.3064 63.163 91.4169 63.1402C91.5723 63.1614 91.7264 63.1919 91.8782 63.2316C94.1591 63.8453 96.8055 67.828 96.8055 67.828C96.4747 65.0423 94.5247 63.0401 92.2961 61.7734Z" fill="#263238"/>
<path d="M70.8545 69.9217C70.8545 69.9217 70.8545 69.8956 70.885 69.8433C70.9154 69.7911 70.9415 69.7215 70.9981 69.63C71.1696 69.3703 71.3846 69.1421 71.6336 68.9554C72.03 68.6607 72.4912 68.4652 72.9786 68.3852C73.6238 68.2727 74.288 68.3865 74.859 68.7073L74.7371 68.7726C74.7794 68.2355 74.9356 67.7135 75.1953 67.2415C75.455 66.7694 75.8122 66.358 76.2431 66.0347C76.7186 65.6576 77.2604 65.3727 77.8406 65.1946C78.4538 65.0172 79.092 64.9422 79.7296 64.9727C80.9244 65.0451 82.0951 65.3403 83.1813 65.8432L83.0507 65.9128C83.2643 64.8478 83.8741 63.9035 84.757 63.2708C85.3289 62.8689 85.9932 62.6183 86.688 62.5422C87.3829 62.4661 88.0857 62.567 88.731 62.8355C88.8657 62.8907 88.9965 62.9546 89.1227 63.027C89.2055 63.0792 89.249 63.1097 89.2446 63.1141C89.2403 63.1184 89.0618 63.0227 88.7092 62.8921C88.2032 62.7086 87.6673 62.6215 87.1292 62.6353C86.3086 62.6519 85.5127 62.9192 84.8484 63.4013C84.0101 64.0178 83.4338 64.9265 83.2336 65.9477L83.2118 66.0652L83.103 66.0173C82.0382 65.5233 80.8919 65.2283 79.7209 65.1468C79.1055 65.1196 78.4897 65.1916 77.8972 65.36C77.3386 65.5267 76.8171 65.7985 76.3606 66.1609C75.9456 66.468 75.6003 66.8595 75.3475 67.3096C75.0947 67.7598 74.94 68.2584 74.8938 68.7726V68.9031L74.7806 68.8379C74.2434 68.5247 73.6147 68.4063 73.0004 68.5027C72.5302 68.5695 72.0827 68.7471 71.6946 69.0207C71.3578 69.2626 71.0722 69.5688 70.8545 69.9217Z" fill="#455A64"/>
<path d="M89.2313 63.4536C89.2209 63.5215 89.2049 63.5885 89.1834 63.6538C89.144 63.8446 89.1193 64.0381 89.1094 64.2327C89.1094 64.4895 89.1094 64.8029 89.0789 65.1729C89.0898 65.6017 89.0081 66.0277 88.8395 66.4221C88.7772 66.5382 88.6924 66.6407 88.59 66.7237C88.4876 66.8066 88.3697 66.8683 88.2432 66.9053C87.9766 66.9693 87.7035 67.0029 87.4293 67.0054C87.1517 67.006 86.8789 67.0779 86.6371 67.2143C86.3975 67.3935 86.1975 67.6202 86.0495 67.8803C85.8841 68.1458 85.7361 68.4374 85.575 68.7508C85.431 69.0676 85.2402 69.3611 85.0092 69.6213C84.7361 69.8808 84.4024 70.0678 84.0385 70.1654C83.851 70.2217 83.6552 70.2452 83.4596 70.2351C83.2449 70.2318 83.0401 70.1442 82.8894 69.9913L83.0548 69.9304C83.0417 70.5276 82.827 71.1029 82.4454 71.5626C82.0411 72.035 81.5138 72.386 80.922 72.5768C80.6763 72.6549 80.4244 72.7117 80.169 72.7466C79.9329 72.7389 79.6981 72.7835 79.4813 72.8772C79.2836 72.9878 79.1299 73.163 79.046 73.3734C78.9369 73.5922 78.8103 73.8018 78.6673 74.0001C78.1585 74.7991 77.3675 75.3772 76.4518 75.6193C75.6144 75.7396 74.7618 75.5508 74.0534 75.0883C73.4445 74.7047 72.9651 74.1465 72.678 73.4865L72.7694 73.5213C72.5127 73.6279 72.2357 73.6765 71.9581 73.6638C71.6804 73.651 71.409 73.5771 71.1633 73.4474C70.7944 73.25 70.5064 72.9297 70.3493 72.542C70.2499 72.3038 70.2038 72.0468 70.2144 71.789C70.2147 71.7231 70.222 71.6575 70.2361 71.5931C70.2361 71.5496 70.2361 71.5278 70.2361 71.5278C70.2096 71.8657 70.2664 72.205 70.4015 72.5159C70.5608 72.8778 70.8408 73.1732 71.1937 73.3516C71.4257 73.4677 71.68 73.5321 71.9393 73.5404C72.1986 73.5486 72.4565 73.5006 72.6954 73.3995L72.7607 73.3734L72.7868 73.4343C73.0721 74.0618 73.5371 74.5904 74.1231 74.9534C74.7984 75.3849 75.6068 75.558 76.3995 75.4409C77.2643 75.2071 78.0108 74.6592 78.4932 73.9044C78.6318 73.7148 78.7541 73.5139 78.8588 73.3037C78.9612 73.0581 79.1418 72.8531 79.3724 72.7205C79.4912 72.6559 79.6212 72.6146 79.7555 72.5986L80.1255 72.5681C80.368 72.5352 80.607 72.4798 80.8393 72.4027C81.3972 72.2265 81.8947 71.8978 82.2757 71.4538C82.6324 71.0284 82.8335 70.4941 82.8459 69.9391V69.7127L83.0026 69.8781C83.1379 69.9798 83.2971 70.0448 83.4648 70.0669C83.6326 70.089 83.8032 70.0675 83.9602 70.0044C84.2943 69.916 84.6011 69.7454 84.8525 69.5082C85.0854 69.2558 85.2765 68.9678 85.4183 68.655C85.5837 68.3591 85.7361 68.0674 85.9102 67.7845C86.072 67.5062 86.2899 67.2646 86.55 67.075C86.8158 66.9261 87.116 66.8496 87.4206 66.853C87.6841 66.8523 87.9468 66.8231 88.2041 66.766C88.3144 66.7357 88.4178 66.684 88.5081 66.6138C88.5985 66.5436 88.6741 66.4563 88.7307 66.3568C88.9001 65.9807 88.9862 65.5723 88.9832 65.1598C89.0049 64.7942 89.018 64.4765 89.0441 64.2196C89.0622 64.0223 89.0986 63.827 89.1529 63.6364C89.1716 63.5725 89.1979 63.5111 89.2313 63.4536Z" fill="#455A64"/>
<path d="M89.2452 86.3444C89.0494 87.6502 89.6109 88.8994 90.8383 89.3477C91.0772 89.4218 91.3284 89.4479 91.5775 89.4247C91.8265 89.4015 92.0685 89.3295 92.2897 89.2126C92.5108 89.0958 92.7068 88.9365 92.8663 88.7438C93.0258 88.5511 93.1457 88.3289 93.2192 88.0898C93.3596 87.556 93.37 86.9963 93.2497 86.4576C92.1224 86.3923 90.3813 86.4097 89.2452 86.3444Z" fill="#7C4236"/>
<path d="M92.9927 88.6165C92.9927 88.6165 92.9927 88.6513 92.9448 88.7079C92.8907 88.7911 92.8263 88.8671 92.7533 88.9342C92.4857 89.1893 92.1474 89.3577 91.7826 89.4174C91.233 89.5015 90.6714 89.3874 90.1982 89.0953C89.9157 88.9074 89.6751 88.6631 89.4916 88.3777C89.308 88.0922 89.1856 87.7719 89.1318 87.4369C89.1059 87.2612 89.0972 87.0833 89.1057 86.9059C89.1066 86.72 89.1545 86.5373 89.245 86.3749C89.3016 86.2875 89.3859 86.2216 89.4844 86.1877C89.5715 86.1599 89.6629 86.1481 89.7543 86.1529H90.2157C90.812 86.1833 91.3474 86.2399 91.7957 86.2878C92.688 86.3836 93.2451 86.4097 93.2451 86.4445C92.7593 86.5015 92.2685 86.5015 91.7826 86.4445C91.3474 86.4184 90.7989 86.3749 90.207 86.3574H89.7717C89.6193 86.3574 89.5105 86.3792 89.4452 86.4837C89.3812 86.6198 89.3484 86.7685 89.3495 86.9189C89.3295 87.3084 89.4088 87.6965 89.5802 88.0467C89.7515 88.397 90.0091 88.6979 90.3288 88.9212C90.7584 89.194 91.2681 89.3122 91.7739 89.2563C92.1182 89.2179 92.4444 89.082 92.7141 88.8646C92.8969 88.7166 92.9927 88.5991 92.9927 88.6165Z" fill="#263238"/>
<path d="M119.282 73.5954C119.282 73.5954 124.797 72.9076 133.085 66.3133C141.372 59.719 145.864 50.3476 146.787 50.4869C147.71 50.6262 151.954 49.1158 158.104 66.6528C164.254 84.1898 160.833 87.8069 159.301 87.6284C157.769 87.45 147.601 83.5587 141.02 83.6892C134.438 83.8198 125.729 86.4227 125.729 86.4227L119.282 73.5954Z" fill="#016BBF"/>
<path d="M109.363 86.6883L112.31 86.0615L110.712 82.1832L108.223 83.4281L109.363 86.6883Z" fill="#455A64"/>
<path d="M109.707 82.0788L110.795 85.352L111.474 86.9973C111.917 88.0905 112.763 88.9715 113.838 89.4577C114.912 89.9439 116.133 89.9981 117.246 89.6089L129.203 86.2443L124.067 71.1056L112.184 76.1156C111.069 76.5835 110.184 77.472 109.72 78.5884C109.257 79.7047 109.252 80.9589 109.707 82.0788Z" fill="#263238"/>
<path d="M113.994 87.1105L117.999 94.2097L119.827 93.6221L132.332 102.954L135.436 96.1989C135.436 96.1989 128.158 93.4175 126.73 90.9234C125.302 88.4293 126.808 87.7895 126.808 87.7895L123.287 84.1071L113.994 87.1105Z" fill="#263238"/>
<path d="M157.447 66.914C160.699 76.4072 161.647 84.6817 159.562 85.3955C157.478 86.1093 153.147 78.997 149.891 69.5038C146.635 60.0106 145.69 51.7361 147.775 51.0179C149.86 50.2997 154.191 57.4077 157.447 66.914Z" fill="#263238"/>
<path d="M149.251 64.0847C149.251 64.0847 154.222 61.6167 156.194 68.2024C158.165 74.788 153.125 75.3669 153.125 75.3669C151.31 71.8067 150.006 68.0086 149.251 64.0847Z" fill="#FAFAFA"/>
<path d="M144.973 56.054C144.957 56.4659 144.98 56.8783 145.042 57.2858C145.116 58.0736 145.221 59.2184 145.39 60.6287C145.527 61.328 145.672 62.0883 145.826 62.9095C145.908 63.3186 145.991 63.7452 146.074 64.1805C146.117 64.3981 146.161 64.6201 146.204 64.8464C146.257 65.0684 146.326 65.2817 146.387 65.5167L147.192 68.3504L147.401 69.0903C147.471 69.3428 147.58 69.5822 147.667 69.8303C147.85 70.3265 148.037 70.827 148.228 71.3363L148.794 72.8423C148.89 73.0861 148.968 73.3385 149.081 73.5736L149.408 74.2744L150.666 76.9426C150.77 77.1515 150.862 77.3778 150.971 77.565L151.31 78.1526L151.959 79.28L153.125 81.2866C153.922 82.4618 154.592 83.3889 155.053 84.0331C155.275 84.3808 155.529 84.7072 155.811 85.0081C155.633 84.6368 155.423 84.2815 155.184 83.9461L153.365 81.1299L152.25 79.1015L151.628 77.9829C151.519 77.787 151.41 77.5911 151.297 77.3953C151.184 77.1994 151.105 76.9817 151.005 76.7685C150.614 75.9197 150.2 75.0274 149.778 74.109L149.451 73.4125C149.343 73.1775 149.264 72.9294 149.169 72.6856L148.611 71.1927C148.424 70.6878 148.237 70.1872 148.05 69.6953C147.963 69.4516 147.854 69.2122 147.789 68.9641C147.723 68.716 147.645 68.4679 147.571 68.2241L146.753 65.4123C146.692 65.1903 146.618 64.977 146.566 64.7507C146.513 64.5243 146.47 64.3154 146.426 64.0934C146.335 63.6582 146.244 63.2229 146.161 62.8311C145.987 62.0215 145.821 61.2642 145.673 60.5721C145.477 59.1879 145.312 58.0606 145.199 57.2597C145.155 56.8526 145.079 56.4495 144.973 56.054Z" fill="#263238"/>
<path d="M129.202 86.2225C129.03 86.3015 128.849 86.3585 128.663 86.3923L127.183 86.784C125.929 87.1061 124.201 87.5631 122.295 88.0898C120.388 88.6165 118.669 89.0953 117.411 89.3956C116.78 89.5523 116.271 89.6698 115.914 89.7438C115.731 89.7903 115.544 89.8209 115.356 89.8353C115.53 89.7572 115.711 89.6974 115.896 89.6568L117.367 89.2215L122.238 87.8417C124.14 87.315 125.881 86.8798 127.144 86.5968C127.775 86.4532 128.288 86.3444 128.645 86.2791C128.829 86.2429 129.015 86.224 129.202 86.2225Z" fill="#455A64"/>
<path d="M122.156 83.7502C121.786 83.9582 121.395 84.126 120.989 84.2507C120.254 84.525 119.248 84.8732 118.086 85.217C116.924 85.5609 115.888 85.8264 115.126 86.0005C114.718 86.1171 114.3 86.1915 113.877 86.2225C114.27 86.0643 114.674 85.9377 115.087 85.8438C115.84 85.6305 116.876 85.3389 118.021 84.9994C119.165 84.6599 120.197 84.3334 120.937 84.0984C121.333 83.95 121.741 83.8336 122.156 83.7502Z" fill="#455A64"/>
<path d="M120.275 80.2941C119.072 80.7776 117.841 81.1889 116.588 81.526C115.357 81.9382 114.103 82.2783 112.832 82.5445C114.037 82.0602 115.27 81.6474 116.523 81.3083C117.753 80.8984 119.006 80.5598 120.275 80.2941Z" fill="#455A64"/>
<path d="M118.421 76.9643C117.407 77.531 116.357 78.0312 115.279 78.4617C114.231 78.966 113.152 79.4022 112.049 79.7675C113.06 79.1966 114.108 78.6949 115.187 78.2658C116.235 77.7597 117.315 77.3249 118.421 76.9643Z" fill="#455A64"/>
<path d="M104.967 114.424L97.7068 102.171L78.9337 101.396V103.102C78.9337 103.102 73.7801 108.291 72.1173 115.355C70.8594 120.705 76.1523 141.119 77.6409 148.196C79.4691 156.902 81.9936 167.905 81.9936 167.905C81.6149 169.855 79.1121 171.435 79.2862 174.038L121.011 173.581L118.865 165.124L104.967 114.424Z" fill="#016BBF"/>
<path d="M119.444 168.367C119.444 168.432 111.139 168.48 100.897 168.48C90.6551 168.48 82.3545 168.432 82.3545 168.367C82.3545 168.301 90.6551 168.253 100.897 168.253C111.139 168.253 119.444 168.306 119.444 168.367Z" fill="white"/>
<path d="M116.558 157.885C116.558 157.951 108.332 158.003 98.1857 158.003C88.0395 158.003 79.8086 157.951 79.8086 157.885C79.8086 157.82 88.0352 157.772 98.1857 157.772C108.336 157.772 116.558 157.837 116.558 157.885Z" fill="white"/>
<path d="M113.728 146.52C113.728 146.581 105.676 146.634 95.7431 146.634C85.8103 146.634 77.7578 146.568 77.7578 146.52C77.7578 146.473 85.8059 146.407 95.7388 146.407C105.672 146.407 113.728 146.455 113.728 146.52Z" fill="white"/>
<path d="M111.748 135.068C111.748 135.129 103.452 135.182 93.2229 135.182C82.994 135.182 74.7021 135.129 74.7021 135.068C74.7021 135.007 82.994 134.955 93.2229 134.955C103.452 134.955 111.748 135.003 111.748 135.068Z" fill="white"/>
<path d="M107.356 120.861C107.356 120.922 99.5215 120.974 89.8281 120.974C80.1346 120.974 72.2998 120.922 72.2998 120.861C72.2998 120.8 80.1346 120.744 89.8281 120.744C99.5215 120.744 107.356 120.796 107.356 120.861Z" fill="white"/>
<path d="M101.389 107.829C101.389 107.89 95.5954 107.942 88.4439 107.942C81.2925 107.942 75.499 107.89 75.499 107.829C75.499 107.768 81.2925 107.716 88.4439 107.716C95.5954 107.716 101.389 107.786 101.389 107.829Z" fill="white"/>
<path opacity="0.3" d="M77.458 121.98C79.2849 125.047 81.5904 127.802 84.2874 130.141C88.479 133.623 101.232 139.865 101.232 139.865L102.299 137.663L111.814 139.887L110.073 134.028L77.458 121.98Z" fill="black"/>
<path d="M122.221 106.523L118.9 124.561L90.4506 111.037L85.8672 127.081C97.0493 132.548 119.683 141.65 122.595 141.389C126.739 141.014 129.603 138.538 130.891 132.47C131.692 128.714 131.327 103.524 131.327 103.524L122.221 106.523Z" fill="#C17560"/>
<path d="M92.3086 108.613C92.3086 108.613 81.6707 102.04 77.0307 110.323C73.7139 118.402 77.3833 124.853 85.575 128.857C89.5229 130.79 94.9028 133.175 100.335 135.443L108.253 117.871L92.3086 108.613Z" fill="#016BBF"/>
<path d="M92.3092 108.613C92.3092 108.613 92.4137 108.661 92.6052 108.769L93.4497 109.244L96.6619 111.081L108.301 117.793L108.371 117.836L108.336 117.91L100.44 135.486L100.397 135.586L100.296 135.543C97.5107 134.385 94.6379 133.149 91.7129 131.843C90.4216 131.263 89.1463 130.682 87.8869 130.102C86.6333 129.514 85.3972 128.927 84.2089 128.278C83.6285 127.945 83.0554 127.595 82.4896 127.229C81.9498 126.838 81.3927 126.481 80.9008 126.045C79.8957 125.238 78.9911 124.313 78.2065 123.29L77.6668 122.515C77.4921 122.258 77.3336 121.991 77.1923 121.714C76.8954 121.179 76.6365 120.623 76.4176 120.052C76.3175 119.769 76.2435 119.473 76.1564 119.181L76.0302 118.746C75.9954 118.598 75.9779 118.454 75.9475 118.311C75.8996 118.023 75.8474 117.732 75.7995 117.44C75.7516 117.148 75.7647 116.865 75.7473 116.569C75.7159 116.005 75.7261 115.439 75.7777 114.876C75.8212 114.324 75.9388 113.784 76.0171 113.253C76.0955 112.722 76.2826 112.217 76.4263 111.716C76.5699 111.216 76.7788 110.746 76.9486 110.275C77.5669 109.151 78.426 108.178 79.4645 107.424C80.4145 106.781 81.4952 106.356 82.6289 106.18C84.4506 105.959 86.2986 106.138 88.0436 106.706C89.1495 107.05 90.2242 107.486 91.2559 108.012C91.6085 108.195 91.8696 108.343 92.0481 108.447C92.2265 108.552 92.3049 108.613 92.3049 108.613L92.035 108.469C91.8566 108.373 91.5998 108.234 91.2298 108.06C90.1938 107.554 89.118 107.135 88.0131 106.806C86.2822 106.257 84.452 106.092 82.6506 106.323C81.5399 106.5 80.4826 106.922 79.5559 107.559C78.5407 108.303 77.7024 109.262 77.1009 110.367C76.9355 110.837 76.7614 111.311 76.5873 111.799C76.4132 112.286 76.3218 112.8 76.1912 113.314C76.0606 113.827 76.0041 114.371 75.9605 114.92C75.9125 115.474 75.9038 116.031 75.9344 116.587C75.9344 116.865 75.9649 117.153 75.991 117.457C76.0171 117.762 76.0868 118.023 76.139 118.306C76.1651 118.45 76.1825 118.594 76.2173 118.741L76.3436 119.177C76.4306 119.46 76.5003 119.747 76.6047 120.026C76.8194 120.587 77.0739 121.133 77.3665 121.658C77.5074 121.929 77.6629 122.192 77.8322 122.446L78.3676 123.203C79.1433 124.212 80.0377 125.124 81.0314 125.919C81.5351 126.336 82.0596 126.726 82.6027 127.09C83.1541 127.453 83.7228 127.798 84.309 128.126C85.4842 128.766 86.7204 129.358 87.974 129.941C89.2275 130.524 90.5072 131.112 91.8 131.682C94.7163 132.988 97.5891 134.224 100.37 135.386L100.227 135.443C103.182 128.914 105.885 122.898 108.162 117.884L108.201 117.997L96.601 111.216L93.4279 109.287L92.6009 108.791C92.405 108.7 92.3092 108.613 92.3092 108.613Z" fill="#263238"/>
<path d="M121.795 109.614L122.435 102.893C122.435 102.893 119.867 97.7223 119.919 97.2044C119.971 96.6864 120.119 93.8354 120.119 93.8354L126.539 88.055C126.539 88.055 128.62 88.055 128.672 90.1138C128.672 90.1138 130.67 89.6786 130.7 92.0899C130.7 92.0899 132.877 92.1683 132.92 93.9224C132.92 93.9224 134.226 93.7483 134.183 95.5808C134.148 96.8866 133.573 101.94 133.573 101.94L130.888 106.611L130.666 111.281L121.795 109.614Z" fill="#C17560"/>
<path d="M122.46 131.151C122.386 131.177 121.912 129.545 120.941 127.717C119.97 125.889 118.843 124.609 118.9 124.561C119.187 124.797 119.443 125.069 119.661 125.371C120.223 126.069 120.718 126.818 121.141 127.608C121.56 128.399 121.91 129.225 122.186 130.076C122.319 130.422 122.411 130.783 122.46 131.151Z" fill="#7C4236"/>
<path d="M85.8665 106.38C85.7908 106.592 85.6961 106.798 85.5836 106.994C85.3877 107.381 85.0961 107.934 84.7131 108.613C83.9774 109.975 82.9285 111.838 81.7576 113.884L78.7412 119.107L77.8271 120.691C77.7212 120.89 77.6004 121.081 77.4658 121.262C77.5416 121.049 77.6362 120.844 77.7487 120.648C77.9446 120.265 78.2362 119.708 78.6193 119.029C79.3549 117.666 80.3995 115.803 81.5748 113.758C82.75 111.712 83.799 109.897 84.5868 108.534C84.9612 107.895 85.2702 107.359 85.5052 106.95C85.609 106.75 85.7299 106.559 85.8665 106.38Z" fill="white"/>
<path d="M94.5421 110.18C94.5274 110.248 94.504 110.314 94.4724 110.376L94.233 110.92C94.0198 111.394 93.7064 112.069 93.3016 112.9C92.5007 114.563 91.3559 116.839 90.0153 119.316C88.6747 121.793 87.4037 124 86.4461 125.58C85.9673 126.367 85.5755 127.003 85.297 127.438L84.9749 127.939C84.938 127.998 84.8957 128.053 84.8486 128.104C84.8486 128.104 84.8704 128.035 84.9357 127.913L85.223 127.395L86.3068 125.497C87.2252 123.899 88.4831 121.68 89.8151 119.207C91.147 116.735 92.3222 114.472 93.1579 112.826L94.1547 110.885L94.4289 110.358C94.4584 110.294 94.4964 110.234 94.5421 110.18Z" fill="white"/>
<path d="M104.248 115.612C104.177 115.859 104.088 116.1 103.983 116.334C103.804 116.77 103.526 117.449 103.169 118.254C102.451 119.86 101.389 122.054 100.079 124.404C98.7684 126.755 97.4669 128.809 96.4702 130.267C95.974 130.994 95.5605 131.573 95.2645 131.969C95.1231 132.182 94.9644 132.383 94.79 132.57C94.9072 132.343 95.0426 132.126 95.1948 131.921L96.3352 130.18C97.2928 128.705 98.5725 126.642 99.8827 124.3C101.193 121.958 102.268 119.777 103.021 118.206L103.892 116.317C103.989 116.072 104.109 115.836 104.248 115.612Z" fill="white"/>
<path d="M78.9551 182.095L79.8604 174.038L119.666 173.598L120.68 182.095H78.9551Z" fill="#263238"/>
<path d="M128.249 181.39C128.249 181.451 115.987 181.503 100.862 181.503C85.7361 181.503 73.4746 181.451 73.4746 181.39C73.4746 181.329 85.7361 181.277 100.862 181.277C115.987 181.277 128.249 181.32 128.249 181.39Z" fill="#455A64"/>
<path d="M106.064 40.8022H91.26C90.7696 40.8022 90.3721 41.1997 90.3721 41.6901V42.33C90.3721 42.8204 90.7696 43.2179 91.26 43.2179H106.064C106.554 43.2179 106.951 42.8204 106.951 42.33V41.6901C106.951 41.1997 106.554 40.8022 106.064 40.8022Z" fill="#455A64"/>
<path d="M110.974 42.0122C110.974 42.2515 110.903 42.4855 110.77 42.6845C110.637 42.8835 110.448 43.0386 110.227 43.1301C110.006 43.2217 109.762 43.2457 109.528 43.199C109.293 43.1523 109.077 43.0371 108.908 42.8678C108.739 42.6986 108.624 42.483 108.577 42.2483C108.53 42.0135 108.554 41.7702 108.646 41.5491C108.737 41.328 108.893 41.139 109.091 41.0061C109.29 40.8731 109.524 40.8022 109.764 40.8022C109.923 40.8022 110.08 40.8335 110.227 40.8943C110.374 40.9551 110.507 41.0442 110.619 41.1566C110.732 41.2689 110.821 41.4023 110.882 41.5491C110.943 41.6959 110.974 41.8533 110.974 42.0122Z" fill="#455A64"/>
<path d="M60.8178 59.5536H61.7972V79.7501H60.8178C60.1021 79.7501 59.4157 79.4657 58.9096 78.9596C58.4035 78.4535 58.1191 77.7671 58.1191 77.0514V62.2522C58.1191 61.8978 58.1889 61.5469 58.3246 61.2195C58.4602 60.8921 58.659 60.5946 58.9096 60.344C59.1602 60.0934 59.4577 59.8946 59.7851 59.759C60.1125 59.6234 60.4634 59.5536 60.8178 59.5536Z" fill="#263238"/>
<path d="M60.5737 88.8994H61.553V109.096H60.5737C59.8579 109.096 59.1715 108.812 58.6654 108.305C58.1593 107.799 57.875 107.113 57.875 106.397V91.5981C57.875 90.8824 58.1593 90.1959 58.6654 89.6898C59.1715 89.1837 59.8579 88.8994 60.5737 88.8994Z" fill="#263238"/>
<path d="M60.6434 118.833C60.5782 118.833 60.5303 104.173 60.5303 86.0919C60.5303 68.0108 60.5782 53.3466 60.6434 53.3466C60.7087 53.3466 60.7566 68.0065 60.7566 86.0919C60.7566 104.177 60.7044 118.833 60.6434 118.833Z" fill="#455A64"/>
</svg>
