<svg width="20" height="20" viewBox="0 0 20 20" fill="none" xmlns="http://www.w3.org/2000/svg">
<path d="M17.5 12.25C17.5 15.1525 15.1525 17.5 12.25 17.5L13.0375 16.1875" stroke="#016BBF" stroke-width="1.5" stroke-linecap="round" stroke-linejoin="round"/>
<path d="M2.5 7.75C2.5 4.8475 4.8475 2.5 7.75 2.5L6.96251 3.8125" stroke="#016BBF" stroke-width="1.5" stroke-linecap="round" stroke-linejoin="round"/>
<path d="M7.5 11.9417C7.5 13.0167 8.325 13.8834 9.35 13.8834H11.4417C12.3333 13.8834 13.0583 13.125 13.0583 12.1917C13.0583 11.175 12.6167 10.8167 11.9583 10.5834L8.6 9.4167C7.94167 9.18337 7.5 8.82503 7.5 7.80837C7.5 6.87503 8.225 6.1167 9.11667 6.1167H11.2083C12.2333 6.1167 13.0583 6.98337 13.0583 8.05837" stroke="#016BBF" stroke-width="1.5" stroke-linecap="round" stroke-linejoin="round"/>
<path d="M10.2734 5V15" stroke="#016BBF" stroke-width="1.5" stroke-linecap="round" stroke-linejoin="round"/>
</svg>
