<svg version="1.2" xmlns="http://www.w3.org/2000/svg" viewBox="0 0 271 75" width="271" height="75">
	<title>Page 1</title>
	<defs>
		<clipPath clipPathUnits="userSpaceOnUse" id="cp1">
			<path d="m-75-52h1224v1584h-1224z"/>
		</clipPath>
	</defs>
	<style>
		.s0 { fill: #0c0d0c } 
		.s1 { fill: #0f5da0 } 
		.s2 { fill: #ff8626 } 
		.s3 { fill: #ffffff } 
		.s4 { fill: #1b3094 } 
		.s5 { fill: #ffac2e } 
		.s6 { fill: #fffffd } 
	</style>
	<g id="Page 1" clip-path="url(#cp1)">
		<g id="-e-">
			<path id="Path 4" fill-rule="evenodd" class="s0" d="m200.6 74.2c-2.3 0-3.9-1.7-3.9-4 0-2.1 1.8-3.8 3.9-3.8 2.2 0 3.9 1.7 3.9 3.9 0 2.2-1.7 3.9-3.9 3.9zm2.5-3.9c0-1.5-1-2.7-2.5-2.7-1.4 0-2.6 1.2-2.5 2.7 0 1.5 1.1 2.7 2.5 2.7 1.5 0 2.5-1.1 2.5-2.7zm-14.4 0c0 2.1-1.7 3.9-3.9 3.9-2.3 0-3.9-1.6-3.9-3.9 0-2.2 1.6-3.9 3.8-3.9 2.2 0 4 1.7 4 3.9zm-3.9 2.7c1.4 0 2.5-1.2 2.5-2.7 0-1.5-1.1-2.7-2.5-2.7-1.4 0-2.6 1.2-2.6 2.7 0 1.5 1.1 2.7 2.6 2.7zm-80.4 1.1c-0.5 0-1-0.1-1.4 0 0 0-1.2-1.6-1.6-2.1-0.1-0.2-0.4-0.5-0.4-0.5h-0.7c-0.5 0-1 0-1 0v2.5h-1.2v-7.4c0 0 2.8-0.1 4 0 1.1 0.2 1.9 0.9 2 1.8 0.2 1.2-0.2 2.1-1.3 2.6l-0.4 0.2zm-3.7-6.3c-0.3 0-1.3 0-1.3 0 0 0 0 1.6 0 2.2v0.3h0.6c0.7 0 1.3 0.1 2 0 0.6-0.2 1-0.7 0.9-1.3 0-0.7-0.3-1-1-1.2-0.4 0-0.8 0-1.2 0z"/>
			<path id="Path 5" fill-rule="evenodd" class="s0" d="m144.1 74.1c-0.4 0-1-0.1-1.4 0 0 0-1.1-1.6-1.5-2.1-0.1-0.2-0.4-0.5-0.4-0.5h-0.7c-0.6 0-1 0-1 0v2.5h-1.2v-7.4c0 0 2.7-0.1 4 0 1.1 0.2 1.9 0.9 2 1.8 0.2 1.2-0.2 2.1-1.3 2.6l-0.4 0.2zm-3.7-6.3c-0.3 0-1.3 0-1.3 0 0 0 0 1.6 0 2.2v0.3h0.5c0.8 0 1.4 0.1 2.1 0 0.6-0.2 0.9-0.7 0.9-1.3 0-0.7-0.3-1-1-1.2-0.4 0-0.8 0-1.2 0zm-21 3.8q0 0.3 0 0.5c0.1 0.9-0.3 1.3-1 1.6-1.9 1-4.2 0.5-5.3-1.1-1.1-1.6-0.8-3.8 0.6-5.1 1.3-1.2 3.7-1.4 5.1-0.3l0.4 0.3-0.9 1c0 0-0.3-0.3-0.6-0.4-0.9-0.6-1.9-0.6-2.8 0-1 0.7-1.2 1.7-1 2.9 0.1 1 0.7 1.7 1.8 2 0.4 0.1 0.8 0.1 1.2 0 1.1-0.1 1.3-0.4 1.3-1.5v-0.4h-1.9v-1.2h3.1c0 0 0 1.3 0 1.7zm-13.7-1.2c0-1.1 0-3.8 0-3.8h5.5v1.2h-4.2v1.9h3.7v1.2h-3.7v0.5c0 0.8 0 1.5 0 1.5 0 0 0.7 0 1.4 0 0.8 0 2.8 0 2.8 0v1.2h-5.5c0 0 0-2.6 0-3.7zm21.3 3.8c-1 0-2-0.3-2.8-0.9l-0.2-0.3 0.7-0.8 0.3 0.1q1 0.8 2.3 0.7c0.6 0 1-0.3 1-0.8 0.1-0.6-0.3-0.8-0.7-1-0.8-0.3-1.6-0.4-2.3-0.7-0.7-0.4-1.1-0.9-1.1-1.7q-0.1-1.3 1.1-2c0.8-0.4 1.7-0.4 2.6-0.1q0.4 0.1 0.9 0.3c0.3 0.2 0.5 0.3 0.5 0.4l-0.7 0.9-0.3-0.1q-0.8-0.6-1.9-0.5c-0.4 0-0.8 0.2-0.9 0.7-0.1 0.5 0.2 0.9 0.6 1 0.6 0.2 1.2 0.4 1.8 0.6 1.3 0.4 1.8 1.1 1.7 2.1-0.1 1.2-0.8 1.9-2.1 2.1zm120.1 0c-2.3 0-4.1-1.9-3.9-4.1 0.2-2.3 2.1-3.9 4.4-3.6q1.2 0.1 2.1 0.8c0.2 0.2 0.3 0.4 0 0.6l-0.3 0.4c-0.2 0.3-0.3 0.2-0.6 0-1-0.8-2.2-0.9-3.1-0.2-1.2 0.8-1.5 2.6-0.6 3.9 0.8 1.2 2.4 1.3 3.7 0.4 0.2-0.2 0.3-0.5 0.7-0.1 0.6 0.6 0.6 0.6-0.1 1.1-0.7 0.6-1.5 0.8-2.3 0.8zm-30.6-7.7h1.4c0 0 0.3 0.6 0.5 1.2 0.5 1.3 1.8 4.6 1.8 4.6 0 0 1.7-4.2 2.3-5.8h1.4l-0.1 0.4c-1 2.3-3 7.2-3 7.2h-1.2c0 0-1.6-4-2.3-5.8-0.3-0.5-0.5-1.2-0.8-1.8zm-71.8 0h1.5c0 0 1.7 2.6 2.2 3.4 0.6-0.9 2.1-3.4 2.1-3.4h1.6c-0.2 0.3-0.5 0.8-0.7 1q-1.1 1.7-2.1 3.3-0.3 0.3-0.3 0.7c0 0.7 0 2.6 0 2.6h-1.3c0 0 0-2.1 0-2.6 0-0.4-0.1-0.6-0.4-1.2-0.9-1.2-1.8-2.5-2.6-3.8z"/>
			<path id="Path 6" fill-rule="evenodd" class="s0" d="m158.6 73.3c-1.8 0-3-1.3-3-3 0-1.7 1.3-3 3-3 1.8 0 3.1 1.3 3 3 0 1.7-1.3 3-3 3zm2-3c0-1.1-0.9-2.1-2-2.1-1.1 0-1.9 0.9-1.9 2-0.1 1.3 0.8 2.2 1.9 2.2 1.1 0 2-0.9 2-2.1zm-39.5-3.8h1.4v7.6h-1.4zm104.1 0h5.5v1.2h-4.2v1.9h3.7v1.2h-3.7c0 0 0 0.3 0 0.5 0 0.8 0 1.5 0 1.5 0 0 0.7 0 1.4 0h2.8v1.2h-5.5c0-1.1 0-7.5 0-7.5zm-62.4 3.8v-2.9h4.3v0.9h-3.3v1.5h2.9v0.9h-2.9v0.4c0 0.6 0 2.1 0 2.1h-1c0 0 0-2.1 0-2.9zm95.2-0.1v-3.7h5.5v1.2h-4.3v1.9h3.8v1.2h-3.8c0 0 0 0.3 0 0.5 0 0.8 0 1.5 0 1.5 0 0 0.8 0 1.5 0h2.8v1.2h-5.5c0 0 0-2.7 0-3.8zm-121.3-2.5h-2.4v6.3h-1.3v-6.3h-2.4v-1.2h6.1zm130.9 6.4c-1-0.1-1.9-0.3-2.8-0.9l-0.2-0.3 0.7-0.9 0.3 0.2q1 0.8 2.3 0.7c0.6-0.1 1-0.4 1.1-0.8 0-0.6-0.3-0.9-0.8-1.1-0.8-0.2-1.5-0.3-2.3-0.7-0.7-0.3-1.1-0.8-1.1-1.7q0-1.3 1.1-1.9c0.8-0.4 1.7-0.4 2.6-0.2q0.5 0.1 0.9 0.4c0.3 0.2 0.5 0.2 0.5 0.4l-0.7 0.9-0.3-0.2q-0.8-0.6-1.8-0.5c-0.5 0.1-0.9 0.2-1 0.8-0.1 0.5 0.2 0.8 0.7 1 0.5 0.2 1.2 0.3 1.7 0.5 1.3 0.5 1.9 1.1 1.8 2.2-0.1 1.1-0.9 1.8-2.2 2z"/>
			<path id="Path 7" fill-rule="evenodd" class="s0" d="m212.3 74c-0.4 0-1 0-1.4 0 0 0-1.2-1.6-1.5-2.1-0.1-0.1-0.4-0.5-0.4-0.5h-0.7c-0.6 0-1 0-1 0v2.6h-1.2v-7.5c0 0 2.7-0.1 3.9 0.1 1.2 0.2 2 0.9 2.1 1.8 0.2 1.2-0.2 2.1-1.3 2.6l-0.4 0.2zm-3.7-6.3c-0.3 0-1.3 0-1.3 0 0 0 0 1.6 0 2.2v0.3h0.5c0.8 0 1.4 0.1 2-0.1 0.7-0.1 1-0.6 1-1.2 0-0.7-0.3-1.1-1-1.2-0.4 0-0.8 0-1.2 0zm-12.9 0h-2.4v6.4h-1.3v-6.4h-2.4v-1.2h6.1zm44.6-1.3h1.4v7.6h-1.4zm16.3 6.3v1.2h-5.2v-7.5h1.3v6.3zm-18.2-6.3v7.6h-1.3v-3.2h-3.5v3.2h-1.4v-7.6h1.4v3.1h3.5v-3.1zm-59.1 0v7.5h-1.4v-5.2l-2.3 3.2-2.4-3.2v5.2h-1.3v-7.5h1.3l2.4 3.4 2.3-3.4z"/>
			<path id="Path 8" fill-rule="evenodd" class="s1" d="m106.3 5.2h36.9l0.1 0.1c4.9 0.6 8.2 4.5 8.2 9.3q0 17.3 0 34.5 0 0.9-0.2 1.7c-0.8 4.6-4.5 7.7-9.2 7.7q-17.3 0-34.5 0c-0.5 0-1 0-1.4-0.1-4.8-0.7-8-4.5-8-9.4v-34.5c0-4.4 2.9-8.1 7.1-9.1 0.4-0.1 0.7 0 1-0.2zm19.6 16.8q0-0.6 0-1.2c-0.1-1.7-0.9-2.9-2.4-3.6-1.5-0.7-3-0.5-4.3 0.5-1.1 0.9-1.6 2.1-1.6 3.5q0 10.7 0 21.5c0 1.7 0.7 3 2.3 3.8 2.8 1.5 6-0.5 6-3.8q0-4 0-8 0-1.6 0.3-3.2c0.5-2.4 1.6-4.5 3.8-5.8 0.9-0.6 1.9-0.8 2.9-1.1 1.7-0.5 2.7-2 2.7-3.9 0-1.9-1.1-3.3-2.7-3.7-1.8-0.5-3.3 0.1-4.5 1.3-1 1.1-1.7 2.4-2.5 3.7zm145-8.6v37.2c-0.2 0.1-0.2 0.3-0.2 0.5-0.9 4.3-4.6 7.4-9 7.4q-17.5 0-34.9 0c-4.4 0-8.2-3.1-9-7.4-0.3-1.4-0.2-2.8-0.2-4.2q0-16.2 0-32.4c0-4.2 2.7-7.8 6.7-8.9 0.5-0.2 1-0.2 1.5-0.4h36.6l0.3 0.1c3.7 0.5 6.3 2.5 7.7 6.1 0.2 0.6 0.3 1.3 0.5 2zm-26.6 23.7c-0.4-1-0.7-1.8-1-2.6q-2.7-7.3-5.4-14.7c-0.7-1.8-2.1-2.8-4-2.7-1.8 0.1-3.3 1.2-3.8 2.9-0.4 1.1-0.1 2.2 0.4 3.3q3.4 7.8 6.7 15.6c0.9 1.9 1.6 3.8 2.6 5.7 1.6 3.1 4.9 3.2 6.9 2.1 1.2-0.7 1.9-1.9 2.5-3.2q2.3-5.1 4.5-10.3 2.2-5.2 4.4-10.3c0.9-2.1 0.4-4.1-1.3-5.1-2.3-1.5-5.1-0.6-6.1 2.1-1.4 3.7-2.7 7.3-4.1 11-0.7 2-1.5 4-2.3 6.2z"/>
			<path id="Path 9" fill-rule="evenodd" class="s2" d="m165.9 5.2h36.9c0.1 0.2 0.3 0.1 0.5 0.1 4.3 0.6 7.8 4.5 7.9 8.8q0 17.8 0 35.6-0.1 1.4-0.6 2.8c-1.5 3.8-4.8 6-8.8 6q-17.3 0-34.6 0c-0.4 0-0.8 0-1.2-0.1-4.7-0.6-8.1-4.4-8.1-9.2q0-17.3 0-34.6c0-4.6 2.9-8.3 7.5-9.2 0.1-0.1 0.4 0 0.5-0.2zm5.9 16.7c0-0.8-0.1-1.5-0.4-2.1-1-2.3-3.6-3.1-5.4-1.6-1.2 0.9-1.7 2.2-1.7 3.7q0 10.4 0 20.9c0 0.7 0 1.4 0.3 2 0.5 1.4 1.4 2.4 2.9 2.6 1.5 0.2 2.7-0.4 3.5-1.6 0.6-0.8 0.8-1.8 0.8-2.8q0-6 0-12 0-1.1 0.1-2.1c0.4-2.2 1.5-3.6 3.4-4 2.2-0.6 4.2 0.4 4.9 2.4 0.5 1.2 0.6 2.3 0.6 3.5q0 6.2 0 12.3 0 0.8 0.2 1.6c0.8 2.4 3.3 3.5 5.4 2.2 1.4-0.9 1.9-2.2 1.9-3.8q0-6.1 0-12.3c0-1.3 0.1-2.6 0.7-3.8q1-2 3.3-2.2c1.6-0.2 3 0.2 4 1.7 0.8 1.2 0.9 2.6 0.9 4q0.1 6.2 0 12.4 0 0.9 0.3 1.8c0.4 1.5 1.9 2.6 3.2 2.7 2.1 0.2 4-1.6 4-3.7 0.1-5.2 0-10.5 0-15.8 0-1.2 0-2.4-0.3-3.6-0.5-2.3-1.5-4.4-3.5-5.7-2.9-1.8-5.9-1.8-8.9-0.6-1.9 0.6-3.3 1.9-4.5 3.5-0.3 0.3-0.4 0.4-0.7-0.1-2.4-4.7-8.8-5.4-12.4-2.3-0.9 0.7-1.7 1.7-2.6 2.8z"/>
			<path id="Path 10" class="s3" d="m125.9 22c0.8-1.3 1.5-2.6 2.5-3.7 1.2-1.2 2.7-1.8 4.5-1.3 1.6 0.4 2.7 1.8 2.7 3.7 0 1.9-1 3.4-2.7 3.9-1 0.3-2 0.5-2.9 1.1-2.2 1.3-3.3 3.4-3.8 5.8q-0.3 1.6-0.3 3.2 0 4 0 8c0 3.3-3.2 5.3-6 3.8-1.6-0.8-2.3-2.1-2.3-3.8q0-10.8 0-21.5c0-1.4 0.5-2.6 1.6-3.5 1.3-1 2.8-1.2 4.3-0.5 1.5 0.7 2.3 1.9 2.4 3.6q0 0.6 0 1.2zm118.4 15.1c0.8-2.2 1.6-4.2 2.3-6.2q2-5.5 4.1-11c1-2.7 3.8-3.6 6.1-2.1 1.7 1 2.2 3 1.3 5.1q-2.2 5.1-4.4 10.3-2.2 5.2-4.5 10.3c-0.6 1.3-1.3 2.5-2.5 3.2-2 1.1-5.3 1-6.9-2.1-1-1.9-1.7-3.8-2.6-5.7q-3.3-7.8-6.7-15.6c-0.5-1.1-0.8-2.2-0.4-3.3 0.5-1.7 2-2.9 3.8-2.9 1.9-0.1 3.3 0.9 4 2.7q2.7 7.4 5.4 14.7c0.3 0.8 0.6 1.6 1 2.6zm-72.5-15.2c0.9-1.1 1.7-2.1 2.6-2.8 3.6-3.1 10-2.4 12.4 2.3 0.3 0.5 0.4 0.4 0.7 0.1 1.2-1.6 2.6-2.8 4.5-3.5 3-1.2 6-1.2 8.9 0.6 2 1.3 2.9 3.4 3.5 5.7 0.3 1.2 0.3 2.4 0.3 3.6 0 5.3 0.1 10.6 0 15.8 0 2.1-1.9 3.9-4 3.7-1.4-0.1-2.8-1.2-3.2-2.7q-0.3-0.9-0.3-1.8 0.1-6.2 0-12.4c0-1.4-0.2-2.8-0.9-4-1-1.5-2.4-1.9-4-1.7q-2.3 0.2-3.3 2.2c-0.6 1.2-0.7 2.5-0.7 3.8 0 4.1 0 8.2 0 12.3 0 1.6-0.5 2.9-1.9 3.8-2.1 1.3-4.6 0.2-5.4-2.2q-0.2-0.8-0.2-1.6 0-6.1 0-12.3c0-1.2-0.1-2.3-0.6-3.5-0.7-2-2.7-3-4.9-2.4-1.9 0.4-3 1.8-3.4 4q-0.1 1-0.1 2.1 0 6 0 12c0 1-0.2 2-0.8 2.8-0.8 1.2-2 1.8-3.5 1.6-1.5-0.2-2.4-1.2-2.9-2.6-0.3-0.6-0.3-1.3-0.3-2q0-10.5 0-20.9c0-1.5 0.4-2.8 1.7-3.7 1.8-1.5 4.4-0.7 5.4 1.6 0.3 0.6 0.4 1.3 0.4 2.1z"/>
			<path id="Path 168" fill-rule="evenodd" class="s4" d="m37.8 74.2c-10.5 0-19.9-3.8-26.6-10.7-6.5-6.7-10.1-15.9-10.2-25.9-0.1-10.3 3.6-19.6 10.4-26.4 6.7-6.7 16-10.4 26.3-10.4q0 0 0.1 0c10.6 0 19.8 3.5 26.6 10.2 6.8 6.7 10.5 16.2 10.5 26.6 0 10-3.6 19.2-10 25.8-6.8 7-16.1 10.7-27 10.8q0 0-0.1 0zm0-72.7q-0.1 0-0.1 0c-10.1 0-19.3 3.6-25.8 10.2-6.7 6.6-10.3 15.8-10.2 25.9 0.1 20.9 15.4 36 36.2 35.9 21.1-0.1 36.3-15.2 36.3-35.9 0-10.3-3.7-19.5-10.3-26.1-6.6-6.6-15.7-10-26.1-10z"/>
			<path id="Path 169" fill-rule="evenodd" class="s5" d="m38 71.8c-6.5 0-12.9-1.6-18.5-4.8-10.4-6-16.1-16.5-16.1-29.5 0-13.1 5.7-23.6 16.1-29.6 11-6.3 25.9-6.3 36.9 0 10.5 6 16.2 16.5 16.2 29.6v0.3c-0.1 12.9-5.8 23.3-16.2 29.2-5.5 3.2-11.9 4.8-18.4 4.8zm0-68c-6.4 0-12.7 1.6-18.1 4.7-10.2 5.8-15.8 16.1-15.8 29 0 12.8 5.6 23.1 15.8 28.9 10.8 6.2 25.4 6.2 36.2 0 10.2-5.8 15.8-16.1 15.8-28.9v-0.4h0.1c-0.1-12.7-5.8-22.8-15.9-28.6-5.4-3.1-11.8-4.7-18.1-4.7z"/>
			<path id="Path 170" fill-rule="evenodd" class="s5" d="m38.2 63.3v-0.4-0.4c0.2 0 0.4 0.1 0.4 0.4 0 0.2-0.2 0.4-0.4 0.4zm-1.2 0q0 0 0 0v-0.4-0.5c0.3 0 0.4 0.2 0.4 0.5 0 0.2-0.2 0.4-0.4 0.4zm2.4 0v-0.5-0.4c0.2 0 0.4 0.2 0.4 0.4 0 0.3-0.1 0.5-0.4 0.5zm-3.6-0.1q0 0 0 0c-0.3 0-0.5-0.2-0.4-0.4 0-0.3 0.2-0.4 0.4-0.4q0 0 0 0c0.3 0 0.5 0.2 0.4 0.4 0 0.3-0.2 0.4-0.4 0.4zm4.8 0c-0.2 0-0.4-0.2-0.4-0.4-0.1-0.2 0.1-0.4 0.3-0.5q0.1 0 0.1 0c0.2 0 0.4 0.2 0.4 0.4 0 0.3-0.1 0.5-0.4 0.5q0 0 0 0zm-6-0.1q0 0 0 0c-0.3 0-0.5-0.2-0.4-0.5 0-0.2 0.2-0.4 0.4-0.3q0.1 0 0.1 0c0.2 0 0.4 0.2 0.3 0.4 0 0.2-0.2 0.4-0.4 0.4zm7.2 0c-0.2 0-0.4-0.2-0.4-0.4-0.1-0.2 0.1-0.5 0.3-0.5q0 0 0 0c0.3 0 0.5 0.1 0.5 0.4 0 0.2-0.1 0.4-0.4 0.5q0 0 0 0zm-8.4-0.2q0 0 0 0v-0.4l0.1-0.4c0.2 0 0.4 0.2 0.3 0.5 0 0.2-0.2 0.3-0.4 0.3zm9.6 0c-0.2 0-0.4-0.2-0.5-0.4 0-0.2 0.2-0.4 0.4-0.5 0.2 0 0.5 0.1 0.5 0.4 0 0.2-0.1 0.4-0.4 0.5q0 0 0 0zm-10.8-0.2q0 0 0 0c-0.3 0-0.4-0.3-0.4-0.5 0.1-0.2 0.3-0.4 0.5-0.3 0.3 0 0.4 0.3 0.4 0.5-0.1 0.2-0.3 0.3-0.5 0.3zm12.1-0.1l-0.2-0.4v-0.4c0.2 0 0.4 0.1 0.5 0.3 0 0.2-0.1 0.5-0.3 0.5zm-13.2-0.1q-0.1 0-0.1-0.1c-0.3 0-0.4-0.3-0.3-0.5 0-0.2 0.2-0.3 0.5-0.3q0 0 0 0c0.2 0.1 0.4 0.3 0.3 0.6-0.1 0.1-0.2 0.3-0.4 0.3zm14.2-0.1c-0.2 0-0.4-0.2-0.4-0.4-0.1-0.2 0.1-0.4 0.3-0.5q0 0 0 0c0.2 0 0.5 0.1 0.5 0.3 0.1 0.3-0.1 0.5-0.3 0.5q0 0.1-0.1 0.1zm-15.4-0.3q0 0-0.1 0c-0.2 0-0.4-0.3-0.3-0.5 0.1-0.2 0.3-0.4 0.5-0.3q0 0 0 0c0.3 0.1 0.4 0.3 0.3 0.5 0 0.2-0.2 0.3-0.4 0.3zm16.6-0.1c-0.2 0-0.4-0.1-0.5-0.3 0-0.2 0.1-0.4 0.3-0.5q0 0 0 0c0.3-0.1 0.5 0.1 0.6 0.3 0 0.2-0.1 0.4-0.3 0.5q-0.1 0-0.1 0zm-17.7-0.2q-0.1 0-0.2 0l0.2-0.4 0.1-0.4c0.2 0 0.4 0.3 0.3 0.5-0.1 0.2-0.2 0.3-0.4 0.3zm19-0.2l-0.2-0.4-0.1-0.4c0.2-0.1 0.4 0.1 0.5 0.3 0.1 0.2 0 0.4-0.2 0.5zm-20.1-0.2q-0.1 0-0.2-0.1l0.1-0.4 0.2-0.4c0.2 0.1 0.3 0.4 0.3 0.6-0.1 0.2-0.3 0.3-0.4 0.3zm21.2-0.2l-0.2-0.4-0.1-0.4c0.2-0.1 0.4 0 0.5 0.2 0.1 0.2 0 0.5-0.2 0.6zm-22.4-0.3q0 0-0.1 0c-0.2-0.1-0.3-0.4-0.2-0.6 0-0.2 0.3-0.3 0.5-0.2 0.2 0.1 0.3 0.3 0.2 0.6 0 0.1-0.2 0.2-0.4 0.2zm23.3-0.2c-0.1 0-0.3-0.1-0.4-0.2-0.1-0.2 0-0.5 0.2-0.6q0 0 0 0c0.3-0.1 0.5 0 0.6 0.2 0.1 0.2 0 0.5-0.2 0.6q-0.1 0-0.2 0zm-24.3-0.3q-0.1 0-0.2-0.1c-0.2-0.1-0.3-0.3-0.2-0.5 0.1-0.2 0.3-0.3 0.5-0.2q0.1 0 0.1 0c0.2 0.1 0.3 0.4 0.1 0.6 0 0.1-0.2 0.2-0.3 0.2zm25.4-0.2c-0.2 0-0.3-0.1-0.4-0.2-0.1-0.2 0-0.5 0.2-0.6q0 0 0 0c0.2-0.1 0.5 0 0.6 0.2 0.1 0.2 0 0.5-0.2 0.6q-0.1 0-0.2 0zm-26.5-0.4q-0.1 0-0.2 0l0.2-0.4 0.2-0.4c0.2 0.1 0.3 0.4 0.2 0.6-0.1 0.1-0.2 0.2-0.4 0.2zm27.5-0.2c-0.1 0-0.3 0-0.3-0.2-0.2-0.2-0.1-0.4 0.1-0.6q0 0 0 0c0.2-0.1 0.5 0 0.6 0.2 0.1 0.2 0.1 0.4-0.2 0.6q-0.1 0-0.2 0zm-28.5-0.4q-0.1 0-0.2-0.1c-0.2-0.1-0.3-0.3-0.2-0.5 0.1-0.2 0.4-0.3 0.6-0.2 0.2 0.2 0.3 0.4 0.1 0.6q-0.1 0.2-0.3 0.2zm29.5-0.2q-0.2 0-0.3-0.2c-0.2-0.2-0.1-0.5 0.1-0.6l0.2 0.4-0.2-0.4c0.2-0.1 0.5-0.1 0.6 0.1 0.1 0.2 0.1 0.5-0.1 0.6q0 0 0 0-0.1 0.1-0.3 0.1zm-30.5-0.5q-0.1 0.1-0.3 0c-0.1-0.2-0.2-0.4-0.1-0.6 0.2-0.2 0.4-0.3 0.6-0.1 0.2 0.1 0.3 0.4 0.1 0.6q-0.1 0.1-0.3 0.1zm31.5-0.2q-0.2 0-0.3-0.2c-0.2-0.1-0.1-0.4 0.1-0.5l0.2 0.3-0.2-0.3c0.2-0.2 0.4-0.1 0.6 0 0.1 0.2 0.1 0.5-0.1 0.6q0 0 0 0-0.1 0.1-0.3 0.1zm-32.5-0.5q-0.1 0-0.2-0.1c-0.2-0.1-0.3-0.4-0.1-0.6 0.1-0.1 0.4-0.2 0.6 0 0.2 0.1 0.2 0.4 0.1 0.6q-0.2 0.1-0.4 0.1zm33.5-0.2q-0.2 0-0.4-0.2c-0.1-0.1-0.1-0.4 0.1-0.6 0.2-0.1 0.5-0.1 0.6 0.1 0.2 0.2 0.1 0.4-0.1 0.6q-0.1 0.1-0.2 0.1zm-34.4-0.5q-0.1 0-0.3-0.1c-0.2-0.2-0.2-0.5 0-0.6 0.1-0.2 0.4-0.2 0.6-0.1 0.2 0.2 0.2 0.5 0 0.6q-0.1 0.2-0.3 0.2zm35.3-0.3q-0.2 0-0.3-0.1c-0.2-0.2-0.2-0.5 0-0.6q0 0 0 0c0.2-0.2 0.5-0.2 0.6 0 0.2 0.2 0.1 0.5 0 0.6q-0.2 0.1-0.3 0.1zm-36.2-0.5q-0.1 0-0.3-0.1 0 0 0-0.1c-0.2-0.1-0.2-0.4 0-0.6 0.2-0.1 0.4-0.1 0.6 0l-0.3 0.3 0.3-0.3c0.2 0.2 0.2 0.5 0 0.6q-0.1 0.2-0.3 0.2zm37.4-0.4l-0.4-0.3-0.3-0.3c0.2-0.2 0.5-0.2 0.6 0 0.2 0.1 0.2 0.4 0.1 0.6zm-38.2-0.5q-0.2 0-0.3-0.1l0.3-0.3 0.3-0.3c0.2 0.2 0.1 0.4 0 0.6q-0.2 0.1-0.3 0.1zm39-0.4l-0.3-0.3-0.3-0.3c0.1-0.1 0.4-0.2 0.6 0 0.1 0.1 0.2 0.4 0 0.6zm-39.8-0.5q-0.2 0-0.3-0.1l0.3-0.3 0.3-0.3c0.2 0.2 0.1 0.5 0 0.6q-0.2 0.1-0.3 0.1zm40.6-0.4l-0.4-0.3-0.3-0.3c0.2-0.1 0.4-0.2 0.6 0 0.2 0.1 0.2 0.4 0.1 0.6zm-41.4-0.5q-0.2 0-0.3-0.2c-0.1-0.2-0.1-0.4 0.1-0.6 0.2-0.1 0.4-0.1 0.6 0.1 0.1 0.2 0.1 0.5-0.1 0.6q-0.1 0.1-0.3 0.1zm41.8-0.3q-0.2 0-0.3-0.1c-0.2-0.1-0.2-0.4-0.1-0.6q0 0 0 0c0.2-0.2 0.4-0.2 0.6-0.1 0.2 0.2 0.3 0.4 0.1 0.6q-0.1 0.2-0.3 0.2zm-42.4-0.7q-0.3 0-0.4-0.1l0.3-0.3 0.4-0.2c0.1 0.2 0.1 0.4-0.1 0.6q-0.1 0-0.2 0zm43-0.3q-0.1 0-0.2-0.1c-0.2-0.1-0.2-0.3-0.1-0.5q0 0 0-0.1c0.1-0.1 0.4-0.2 0.6-0.1 0.2 0.2 0.2 0.4 0.1 0.6q-0.1 0.2-0.4 0.2zm-43.7-0.7q-0.2 0-0.4-0.2c-0.1-0.2 0-0.4 0.2-0.6 0.2-0.1 0.4 0 0.6 0.2q0 0 0 0c0.1 0.2 0 0.5-0.2 0.6q-0.1 0-0.2 0zm44.8-0.5l-0.4-0.2-0.4-0.2c0.1-0.2 0.4-0.3 0.6-0.2 0.2 0.1 0.3 0.4 0.2 0.6zm-45.4-0.5c-0.1 0-0.3-0.1-0.4-0.2-0.1-0.2 0-0.5 0.2-0.6 0.2-0.1 0.5 0 0.6 0.2q0 0 0 0c0.1 0.2 0 0.5-0.2 0.6q-0.1 0-0.2 0zm45.5-0.3q-0.1 0-0.1-0.1c-0.3-0.1-0.3-0.3-0.2-0.6q0 0 0 0c0.1-0.2 0.3-0.3 0.5-0.2 0.3 0.2 0.3 0.4 0.2 0.6 0 0.2-0.2 0.3-0.4 0.3zm-46-0.8c-0.2 0-0.3 0-0.4-0.2l0.4-0.2 0.4-0.2c0.1 0.2 0 0.5-0.2 0.6q-0.1 0-0.2 0zm46.6-0.3q-0.1 0-0.2-0.1c-0.2 0-0.3-0.3-0.2-0.5 0.1-0.2 0.3-0.3 0.5-0.2 0.3 0.1 0.4 0.3 0.3 0.5-0.1 0.2-0.3 0.3-0.4 0.3zm-47.1-0.7c-0.2 0-0.3-0.2-0.4-0.3-0.1-0.2 0-0.5 0.2-0.6 0.3-0.1 0.5 0 0.6 0.3q0 0 0 0c0.1 0.2 0 0.4-0.2 0.5q-0.1 0.1-0.2 0.1zm47.9-0.7l-0.4-0.1-0.4-0.2c0.1-0.2 0.4-0.3 0.6-0.2 0.2 0 0.3 0.3 0.2 0.5zm-48.3-0.5c-0.2 0-0.4-0.1-0.4-0.2-0.1-0.3 0-0.5 0.2-0.6 0.3-0.1 0.5 0 0.6 0.3q0 0 0 0c0.1 0.2-0.1 0.4-0.3 0.5q0 0-0.1 0zm48.3-0.3q0 0-0.1 0c-0.2-0.1-0.4-0.4-0.3-0.6q0 0 0 0c0.1-0.2 0.4-0.3 0.6-0.3 0.2 0.1 0.3 0.4 0.2 0.6 0 0.2-0.2 0.3-0.4 0.3zm-48.7-0.8c-0.2 0-0.3-0.1-0.4-0.3l0.4-0.1 0.4-0.1c0.1 0.2 0 0.4-0.3 0.5q0 0-0.1 0zm49.5-0.7l-0.4-0.1-0.4-0.1c0-0.2 0.3-0.4 0.5-0.3 0.2 0.1 0.4 0.3 0.3 0.5zm-49.8-0.4c-0.2 0-0.4-0.2-0.4-0.4l0.4-0.1 0.4-0.1c0.1 0.3-0.1 0.5-0.3 0.6q-0.1 0-0.1 0zm50.1-0.8h-0.4l-0.4-0.1c0-0.3 0.2-0.4 0.5-0.4 0.2 0.1 0.4 0.3 0.3 0.5zm-50.4-0.4c-0.2 0-0.3-0.1-0.4-0.3 0-0.3 0.1-0.5 0.3-0.5 0.3-0.1 0.5 0.1 0.5 0.3h0.1c0 0.2-0.2 0.5-0.4 0.5q0 0-0.1 0zm50.2-0.4q0 0-0.1 0c-0.2 0-0.3-0.2-0.3-0.5q0 0 0 0c0.1-0.2 0.3-0.4 0.5-0.3 0.2 0 0.4 0.3 0.3 0.5 0 0.2-0.2 0.3-0.4 0.3zm-50.4-0.8c-0.2 0-0.4-0.1-0.4-0.3 0-0.3 0.1-0.5 0.4-0.5 0.2 0 0.4 0.1 0.4 0.3q0 0 0 0.1c0.1 0.2-0.1 0.4-0.3 0.4q-0.1 0-0.1 0zm50.6-0.3q0 0 0 0c-0.3-0.1-0.4-0.3-0.4-0.5q0 0 0 0c0-0.3 0.3-0.4 0.5-0.4 0.2 0 0.4 0.3 0.3 0.5 0 0.2-0.2 0.4-0.4 0.4zm-50.7-0.8c-0.3 0-0.4-0.2-0.5-0.4l0.5-0.1h0.4c0 0.2-0.2 0.4-0.4 0.5q0 0 0 0zm51.3-0.8h-0.4l-0.5-0.1c0.1-0.2 0.3-0.4 0.5-0.4 0.2 0 0.4 0.3 0.4 0.5zm-51.5-0.4c-0.2 0-0.4-0.2-0.4-0.4l0.4-0.1h0.5c0 0.3-0.2 0.5-0.4 0.5q0 0-0.1 0zm51.6-0.8h-0.4l-0.5-0.1c0.1-0.2 0.3-0.4 0.5-0.4 0.2 0.1 0.4 0.3 0.4 0.5zm-51.6-0.4c-0.3 0-0.5-0.2-0.5-0.4 0-0.2 0.2-0.4 0.5-0.5 0.2 0 0.4 0.2 0.4 0.4v0.1c0 0.2-0.2 0.4-0.4 0.4zm51.2-0.8h-0.4c0-0.3 0.2-0.4 0.4-0.4 0.3 0 0.5 0.1 0.5 0.4zm-51.3-0.4c-0.3 0-0.5-0.2-0.5-0.4 0-0.3 0.2-0.5 0.5-0.5 0.2 0 0.4 0.2 0.4 0.5 0 0.2-0.2 0.4-0.4 0.4zm51.3-0.1c-0.2 0-0.4-0.2-0.4-0.5 0-0.2 0.2-0.4 0.4-0.4 0.2 0 0.4 0.2 0.4 0.4 0 0.3-0.2 0.5-0.4 0.5zm-51.3-1.1q0 0 0 0c-0.3 0-0.4-0.2-0.4-0.4h0.4 0.4c0 0.2-0.2 0.4-0.4 0.4zm51.3-0.1c-0.3 0-0.4-0.2-0.4-0.4h-0.1c0-0.3 0.2-0.5 0.5-0.5 0.2 0 0.4 0.2 0.4 0.4 0 0.3-0.2 0.5-0.4 0.5zm-51.3-1.1q0 0 0 0c-0.2 0-0.4-0.2-0.4-0.4h0.4 0.5c0 0.3-0.2 0.4-0.5 0.4zm51.2-0.1c-0.2 0-0.4-0.2-0.4-0.4 0-0.2 0.1-0.5 0.4-0.5 0.2 0 0.4 0.2 0.4 0.4 0.1 0.3-0.1 0.5-0.4 0.5q0 0 0 0zm-51-1.1q-0.1 0-0.1 0c-0.2 0-0.4-0.2-0.4-0.4 0.1-0.3 0.3-0.4 0.5-0.4 0.2 0 0.4 0.2 0.4 0.4q0 0.1 0 0.1c-0.1 0.2-0.2 0.3-0.4 0.3zm50.5-0.5c-0.1-0.2 0.1-0.4 0.3-0.4 0.3-0.1 0.5 0.1 0.5 0.3l-0.4 0.1zm-50.4-0.7q0 0 0 0c-0.3 0-0.4-0.2-0.4-0.5 0.1-0.2 0.3-0.4 0.5-0.3 0.2 0 0.4 0.2 0.4 0.4q0 0.1 0 0.1c-0.1 0.2-0.3 0.3-0.5 0.3zm50.7-0.1c-0.2 0-0.4-0.2-0.5-0.4q0 0 0 0c0-0.2 0.2-0.4 0.4-0.5 0.2 0 0.5 0.2 0.5 0.4 0 0.2-0.1 0.4-0.4 0.5q0 0 0 0zm-50.5-1q0 0 0-0.1c-0.3 0-0.4-0.2-0.4-0.4h0.4l0.5 0.1c-0.1 0.2-0.3 0.4-0.5 0.4zm50.3-0.2c-0.2 0-0.4-0.1-0.5-0.3q0 0 0 0c0-0.3 0.2-0.5 0.4-0.5 0.2-0.1 0.4 0.1 0.5 0.3 0 0.2-0.1 0.5-0.4 0.5q0 0 0 0zm-50-1q-0.1 0-0.1 0c-0.2-0.1-0.4-0.3-0.3-0.5 0-0.3 0.3-0.4 0.5-0.3 0.2 0 0.4 0.2 0.3 0.5q0 0 0 0c0 0.2-0.2 0.3-0.4 0.3zm49.3-0.5c-0.1-0.2 0.1-0.4 0.3-0.5 0.2 0 0.5 0.1 0.5 0.3l-0.4 0.1zm-49-0.6q-0.1 0-0.1-0.1c-0.2 0-0.4-0.3-0.3-0.5 0.1-0.2 0.3-0.3 0.5-0.3 0.3 0.1 0.4 0.3 0.3 0.5q0 0 0 0.1c0 0.1-0.2 0.3-0.4 0.3zm48.7-0.5c-0.1-0.2 0.1-0.4 0.3-0.5 0.2-0.1 0.4 0 0.5 0.3l-0.4 0.1zm-48.3-0.7q-0.1 0-0.2 0c-0.2-0.1-0.3-0.3-0.2-0.6 0.1-0.2 0.3-0.3 0.5-0.2 0.2 0.1 0.4 0.3 0.3 0.5q0 0 0 0c-0.1 0.2-0.2 0.3-0.4 0.3zm48.4-0.1c-0.2 0-0.4-0.1-0.4-0.3q0 0-0.1 0c0-0.2 0.1-0.5 0.3-0.5 0.2-0.1 0.5 0 0.6 0.2 0 0.2-0.1 0.5-0.3 0.6q-0.1 0-0.1 0zm-48-1q-0.1 0-0.2 0c-0.2-0.1-0.3-0.4-0.2-0.6l0.4 0.2 0.4 0.1c-0.1 0.2-0.2 0.3-0.4 0.3zm47.5-0.1c-0.1 0-0.3-0.1-0.4-0.3q0 0 0 0c-0.1-0.2 0.1-0.5 0.3-0.6 0.2 0 0.4 0.1 0.5 0.3 0.1 0.2 0 0.5-0.2 0.5q-0.1 0.1-0.2 0.1zm-47-1q-0.1 0-0.2 0c-0.2-0.1-0.3-0.4-0.2-0.6 0.1-0.2 0.3-0.3 0.5-0.2 0.3 0.1 0.4 0.3 0.3 0.5q0 0.1-0.1 0.1c0 0.1-0.2 0.2-0.3 0.2zm46.2-0.4c-0.1-0.2 0-0.4 0.2-0.5 0.2-0.1 0.4 0 0.5 0.2l-0.3 0.2zm-45.7-0.7q-0.1 0-0.2-0.1c-0.2-0.1-0.3-0.3-0.2-0.5l0.4 0.1 0.4 0.2c-0.1 0.2-0.3 0.3-0.4 0.3zm45.5-0.1c-0.1 0-0.3-0.1-0.3-0.3q-0.1 0-0.1 0c-0.1-0.2 0-0.5 0.2-0.6 0.2-0.1 0.5 0 0.6 0.2 0.1 0.2 0 0.5-0.2 0.6q-0.1 0.1-0.2 0.1zm-44.9-1q-0.2 0-0.3 0c-0.2-0.1-0.2-0.4-0.1-0.6l0.4 0.2 0.3 0.2q-0.1 0.2-0.3 0.2zm44.3-0.1q-0.2 0-0.3-0.2 0 0 0 0c-0.2-0.2-0.1-0.5 0.1-0.6 0.2-0.1 0.5 0 0.6 0.2 0.1 0.2 0.1 0.4-0.1 0.6q-0.1 0-0.3 0zm-43.7-0.9q-0.1 0-0.3-0.1c-0.2-0.1-0.2-0.4-0.1-0.6 0.2-0.1 0.4-0.2 0.6-0.1 0.2 0.2 0.3 0.4 0.2 0.6q-0.1 0-0.1 0-0.1 0.2-0.3 0.2zm43.1-0.1q-0.2 0-0.4-0.2l0.4-0.2-0.4 0.2c-0.1-0.2 0-0.4 0.2-0.6 0.2-0.1 0.4-0.1 0.5 0.1q0.1 0 0.1 0.1c0.1 0.2 0 0.4-0.2 0.5q-0.1 0.1-0.2 0.1zm-42.4-0.9q-0.2 0-0.3 0c-0.2-0.2-0.2-0.5-0.1-0.6 0.2-0.2 0.4-0.3 0.6-0.1 0.2 0.1 0.3 0.4 0.1 0.6q0 0 0 0-0.1 0.1-0.3 0.1zm41.7-0.1q-0.2 0-0.3-0.1c-0.2-0.2-0.1-0.5 0.1-0.6 0.1-0.2 0.4-0.1 0.6 0.1 0.1 0.1 0.1 0.4-0.1 0.6q-0.2 0-0.3 0zm-41-0.8q-0.1 0-0.3-0.1c-0.2-0.1-0.2-0.4 0-0.6l0.3 0.3 0.3 0.2q-0.1 0.2-0.3 0.2zm40.3-0.1q-0.2 0-0.4-0.1 0 0 0-0.1c-0.1-0.1-0.1-0.4 0.1-0.6 0.2-0.1 0.5-0.1 0.6 0.1 0.2 0.2 0.1 0.5-0.1 0.6q-0.1 0.1-0.2 0.1zm-39.5-0.8q-0.2 0-0.3-0.1c-0.2-0.2-0.2-0.4 0-0.6 0.1-0.2 0.4-0.2 0.6 0 0.1 0.1 0.2 0.4 0 0.6q0 0 0 0-0.1 0.1-0.3 0.1zm38.4-0.2c-0.2-0.2-0.2-0.5 0-0.6 0.2-0.2 0.4-0.2 0.6 0l-0.3 0.3zm-37.6-0.6q-0.1 0-0.3-0.2c-0.1-0.1-0.1-0.4 0-0.6 0.2-0.1 0.5-0.1 0.6 0 0.2 0.2 0.2 0.5 0 0.6q0 0 0 0-0.1 0.2-0.3 0.2zm36.8-0.2c-0.2-0.2-0.2-0.5 0-0.6 0.1-0.2 0.4-0.2 0.6-0.1l-0.3 0.4zm-35.9-0.6q-0.2 0-0.3-0.2c-0.2-0.2-0.1-0.4 0-0.6 0.2-0.1 0.5-0.1 0.6 0 0.2 0.2 0.2 0.5 0 0.6q0 0 0 0.1-0.1 0.1-0.3 0.1zm35.3-0.1q-0.2 0-0.3-0.1l0.3-0.3-0.3 0.3c-0.2-0.2-0.2-0.5 0-0.6 0.1-0.2 0.4-0.2 0.6-0.1q0 0 0 0c0.2 0.2 0.2 0.5 0 0.6q-0.1 0.2-0.3 0.2zm-34.4-0.7q-0.2 0-0.3-0.2c-0.2-0.2-0.1-0.4 0.1-0.6l0.2 0.4 0.3 0.3q-0.1 0.1-0.3 0.1zm33.5-0.1q-0.2 0-0.3-0.1 0 0 0 0c-0.2-0.1-0.2-0.4-0.1-0.6 0.2-0.2 0.5-0.2 0.6 0 0.2 0.1 0.3 0.4 0.1 0.5q-0.1 0.2-0.3 0.2zm-32.5-0.6q-0.2 0-0.4-0.2c-0.1-0.2-0.1-0.4 0.1-0.6q0 0 0 0c0.2-0.1 0.5-0.1 0.6 0.1 0.2 0.2 0.1 0.4-0.1 0.6l-0.2-0.4 0.2 0.4q-0.1 0.1-0.2 0.1zm31.5-0.1q-0.1 0-0.2-0.1 0 0 0 0c-0.2-0.1-0.3-0.4-0.1-0.6 0.1-0.2 0.4-0.2 0.6-0.1 0.2 0.2 0.2 0.4 0.1 0.6q-0.2 0.2-0.4 0.2zm-30.5-0.6q-0.3 0-0.4-0.2c-0.1-0.2-0.1-0.5 0.1-0.6l0.3 0.4 0.2 0.3q-0.1 0.1-0.2 0.1zm29.5-0.1q-0.1 0-0.2 0 0 0 0-0.1c-0.2-0.1-0.3-0.3-0.1-0.5 0.1-0.2 0.4-0.3 0.6-0.2 0.2 0.2 0.2 0.4 0.1 0.6q-0.1 0.2-0.4 0.2zm-28.5-0.5q-0.3 0-0.4-0.2c-0.1-0.2 0-0.5 0.2-0.6 0.2-0.1 0.4-0.1 0.6 0.1 0.1 0.2 0 0.5-0.2 0.6q0 0 0 0-0.1 0.1-0.2 0.1zm27.3-0.2c-0.2-0.1-0.3-0.3-0.2-0.5 0.1-0.2 0.4-0.3 0.6-0.2l-0.2 0.4zm-26.2-0.5c-0.2 0-0.4-0.1-0.4-0.2-0.1-0.2-0.1-0.5 0.2-0.6 0.2-0.1 0.4 0 0.5 0.2 0.1 0.2 0.1 0.5-0.1 0.6q0 0-0.1 0-0.1 0-0.1 0zm25.2-0.1c-0.2-0.1-0.3-0.3-0.2-0.5 0.1-0.3 0.3-0.3 0.6-0.2l-0.2 0.4zm-24.2-0.5c-0.1 0-0.3-0.1-0.4-0.2-0.1-0.2 0-0.5 0.2-0.6l0.2 0.4 0.2 0.4q-0.1 0-0.2 0zm23.3 0q-0.1 0-0.2-0.1 0 0 0 0c-0.2-0.1-0.3-0.3-0.2-0.5 0.1-0.2 0.4-0.3 0.6-0.2 0.2 0.1 0.3 0.3 0.2 0.5-0.1 0.2-0.2 0.3-0.4 0.3zm-22.2-0.4c-0.1 0-0.3-0.1-0.4-0.3-0.1-0.2 0-0.5 0.3-0.6l0.1 0.4 0.2 0.4q-0.1 0.1-0.2 0.1zm20.9-0.1c-0.2-0.1-0.3-0.4-0.2-0.6 0.1-0.2 0.3-0.3 0.6-0.2l-0.2 0.4zm-19.8-0.4c-0.2 0-0.3-0.1-0.4-0.2-0.1-0.3 0-0.5 0.3-0.6l0.1 0.4 0.2 0.4q-0.1 0-0.2 0zm18.7 0c-0.2-0.1-0.3-0.3-0.3-0.6 0.1-0.2 0.4-0.3 0.6-0.2l-0.1 0.4zm-17.6-0.3c-0.2 0-0.4-0.2-0.4-0.3-0.1-0.3 0.1-0.5 0.3-0.6 0.2 0 0.5 0.1 0.5 0.3 0.1 0.2 0 0.5-0.3 0.5q0 0.1 0 0.1 0 0-0.1 0zm16.4-0.1c-0.2-0.1-0.3-0.3-0.3-0.5 0.1-0.2 0.3-0.4 0.6-0.3l-0.1 0.4zm-15.3-0.3c-0.2 0-0.4-0.1-0.4-0.3-0.1-0.2 0.1-0.4 0.3-0.5l0.1 0.4 0.1 0.4q0 0-0.1 0zm14.2 0q0 0-0.1 0 0 0 0 0c-0.2-0.1-0.3-0.3-0.3-0.5 0.1-0.3 0.3-0.4 0.6-0.3 0.2 0 0.3 0.3 0.3 0.5-0.1 0.2-0.3 0.3-0.5 0.3zm-13-0.2c-0.2 0-0.4-0.2-0.5-0.4 0-0.2 0.1-0.4 0.4-0.5l0.1 0.4 0.1 0.5q-0.1 0-0.1 0zm11.9-0.1q-0.1 0-0.1 0c-0.3 0-0.4-0.2-0.4-0.5 0.1-0.2 0.3-0.3 0.6-0.3 0.2 0 0.3 0.3 0.3 0.5 0 0.2-0.2 0.3-0.4 0.3zm-10.8-0.2c-0.2 0-0.3-0.1-0.4-0.3 0-0.2 0.1-0.5 0.4-0.5 0.2 0 0.4 0.1 0.5 0.3 0 0.3-0.1 0.5-0.4 0.5q0 0-0.1 0zm9.6 0q0 0-0.1 0c-0.2 0-0.4-0.2-0.3-0.5 0-0.2 0.2-0.4 0.5-0.3 0.2 0 0.4 0.2 0.3 0.5 0 0.2-0.2 0.3-0.4 0.3zm-8.4-0.1c-0.2 0-0.4-0.2-0.4-0.4 0-0.2 0.1-0.5 0.4-0.5 0.2 0 0.4 0.2 0.5 0.4 0 0.2-0.2 0.4-0.4 0.5q0 0 0 0-0.1 0-0.1 0zm7.2-0.1c-0.3 0-0.4-0.2-0.4-0.4 0-0.3 0.2-0.4 0.4-0.4v0.4zm-5.9-0.1c-0.2 0-0.4-0.2-0.4-0.4-0.1-0.2 0.1-0.4 0.4-0.4 0.2 0 0.4 0.1 0.4 0.4 0 0.2-0.1 0.4-0.4 0.4q0 0 0 0 0 0 0 0zm4.8 0q0 0 0 0-0.1 0-0.1 0c-0.2 0-0.4-0.2-0.4-0.5 0.1-0.2 0.3-0.4 0.5-0.3 0.2 0 0.4 0.2 0.4 0.4 0 0.2-0.2 0.4-0.4 0.4zm-3.6-0.1c-0.2 0-0.4-0.1-0.4-0.4-0.1-0.2 0.1-0.4 0.3-0.4l0.1 0.4v0.4q0 0 0 0zm2.4 0q0 0-0.1 0c-0.2 0-0.4-0.2-0.4-0.4 0.1-0.2 0.3-0.4 0.5-0.4 0.2 0 0.4 0.2 0.4 0.4 0 0.3-0.2 0.4-0.4 0.4zm-1.2 0c-0.3 0-0.5-0.2-0.5-0.4 0-0.2 0.2-0.4 0.5-0.4 0.2 0 0.4 0.2 0.4 0.4 0 0.2-0.2 0.4-0.4 0.4zm-0.8-5c0.4-0.3 0.9-0.1 1.2 0.3 0.2 0.4 0 0.9-0.4 1.2-0.4 0.2-0.9 0-1.1-0.4-0.3-0.4-0.1-0.9 0.3-1.1zm2.4 0.4c0.2 0.2 0.9 0.3 0.9 0.3 0 0-0.5 0.1-0.8 0.3-0.3 0.3-1.1 0.5-1.1 0.5 0.4-0.5 0.3-1.1 0-1.5 0 0 0.7 0.2 1 0.4zm-4 0.6c-0.2-0.2-0.9-0.2-0.9-0.2 0 0 0.6-0.2 0.8-0.4 0.3-0.3 1.2-0.5 1.2-0.5-0.4 0.6-0.4 1.1 0 1.5 0 0-0.8-0.2-1.1-0.4zm2.6 54.4v-0.4zm-1.2 0l0.1-0.4zm2.4-0.1zm4.7-0.6zm3.5-1zm1.1-0.4zm7.9-5.2zm0.9-0.9zm0.7-0.9zm2.1-2.9zm1.5-3.2zm0.8-2.3zm0.3-1.1zm0.6-3.5zm0.1-1.2z"/>
			<path id="Path 171" class="s4" d="m24.3 44.7l0.1 0.2 0.1 0.1 0.1 0.2 0.1 0.2 0.1 0.4 0.1 0.3v0.3l-0.2 0.4-0.2 0.3h0.1 0.1l0.1 0.1h0.3l0.3 0.1 0.4 0.1h0.3l0.4 0.1h0.3 0.1 0.1l0.1-0.2v-0.3l0.2-0.4v-0.5-0.4-0.6l-0.2-0.4-0.2-0.4-0.4-0.4h-0.4-0.3l-0.3 0.1-0.3 0.1-0.3 0.1-0.2 0.2-0.2 0.1-0.1 0.1-0.1 0.1z"/>
			<path id="Path 172" class="s0" d="m35.3 15.6l-0.2 0.2-0.3 0.3-0.3 0.3-0.4 0.2-0.3 0.3-0.4 0.3-0.3 0.3-0.2 0.2-0.2 0.3-0.1 0.2v0.1l0.1 0.4 0.2 0.5 0.4 0.4 0.4 0.3 0.4 0.3 0.5 0.3 0.5 0.3 0.4 0.3 0.4 0.2 0.3 0.3h0.1 0.1 0.3 0.3 0.4 0.3 0.3 0.3 0.2 0.1l-0.1-0.7-0.2-0.5-0.4-0.3-0.4-0.3-0.4-0.2-0.6-0.2-0.4-0.1-0.5-0.3-0.4-0.2-0.2-0.5v-0.1l0.1-0.1 0.2-0.1 0.2-0.3 0.3-0.1 0.2-0.2 0.2-0.2 0.2-0.1 0.1-0.2 0.1-0.1h-0.1v-0.1-0.1h-0.1l0.1-0.1 0.1-0.1 0.1 0.1h0.2l0.1 0.1h0.2 0.2l0.2 0.1h0.2l0.1-0.1 0.6 0.5 0.7 0.6 0.8 0.6 0.8 0.8 0.9 0.7 0.7 0.7 0.8 0.8 0.5 0.6 0.5 0.6 0.2 0.5 0.1-0.4-0.1-0.6-0.3-0.6-0.5-0.7-0.7-0.8-0.7-0.7-1-0.9-0.9-0.7-1-0.8-1-0.8-0.1-0.1v-0.2-0.1l-0.1-0.1-0.1-0.1-0.1-0.1-0.1-0.1-0.2-0.1h-0.1l-0.1-0.2v0.1l-0.2-0.1-0.1-0.1-0.1-0.1h-0.1l-0.2-0.1v-0.1h-0.2-0.1l-0.1 0.1-0.2-0.1h-0.1-0.2-0.1l-0.1 0.1-0.1 0.1v0.1l0.1 0.1 0.1 0.1 0.2 0.1-0.1 0.1v0.1 0.2l0.1 0.1v0.1 0.1 0.1l-0.1 0.1-0.1-0.1-0.1-0.1h-0.1l-0.1-0.1v-0.1z"/>
			<path id="Path 173" class="s5" d="m35 16.1l-0.1 0.3-0.3 0.2-0.2 0.2-0.4 0.2-0.3 0.2-0.3 0.2-0.2 0.2-0.2 0.2-0.1 0.2-0.1 0.2 0.1 0.4 0.2 0.6 0.3 0.3 0.5 0.4 0.5 0.3 0.5 0.3 0.4 0.2 0.5 0.3 0.3 0.3 0.3 0.1v-0.1l-0.1-0.2v-0.2-0.2l-0.1-0.2-0.1-0.2v-0.2l-0.2-0.2h0.1l0.2 0.4 0.2 0.1 0.1 0.1 0.1-0.1 0.1-0.1v-0.1l0.1-0.2v-0.1-0.1 0.1l0.1 0.1v0.1 0.3 0.3 0.2 0.2l0.1 0.2v0.1l0.1 0.1h0.1 0.2 0.2 0.1 0.2 0.1 0.1 0.1 0.1v-0.6l-0.3-0.4-0.3-0.4-0.5-0.2-0.5-0.2-0.5-0.2-0.5-0.2-0.5-0.2-0.4-0.3-0.4-0.5 0.1-0.1 0.1-0.1 0.2-0.1 0.2-0.1 0.3-0.2 0.2-0.1 0.2-0.1 0.2-0.2 0.1-0.2v-0.1l-0.1-0.1-0.1-0.1-0.1-0.1-0.2-0.2-0.1-0.1-0.1-0.1-0.2-0.1v-0.1zm0-0.1l1.2 1 0.1-0.3-1.2-0.9z"/>
			<path id="Path 174" fill-rule="evenodd" class="s0" d="m35.2 15.7l1.2 0.9v0.1l-0.1 0.3v0.1l-1.3-1.1 0.1-0.2zm1.1 1.2l0.1-0.3-1.2-0.9-0.1 0.2z"/>
			<path id="Path 175" class="s5" d="m36 15l-0.1 0.2v0.1 0.1 0.1 0.1 0.2 0.1 0.1 0.1 0.1h0.1l0.1 0.1v0.1h0.2 0.2 0.2 0.3l0.3 0.1 0.2 0.1 0.2-0.1 0.2-0.1v-0.2-0.2-0.5l-0.2 0.1-0.1 0.1v0.1 0.1h-0.1l-0.1 0.1-0.1-0.1-0.1-0.1-0.1-0.1-0.2-0.1h-0.1l-0.2-0.2-0.1-0.1-0.2-0.1-0.1-0.1-0.1-0.1z"/>
			<path id="Path 176" fill-rule="evenodd" class="s0" d="m36.1 14.9l0.3 0.3 0.1 0.1 0.1 0.1 0.2 0.1 0.2 0.1 0.1 0.1 0.1 0.1 0.1 0.1h0.1 0.1v-0.1h0.1v-0.1-0.1l0.1-0.1h0.2l0.1 0.5v0.2l-0.1 0.2v0.1h-0.2l-0.2 0.1h-0.1l-0.2-0.1-0.5-0.1h-0.6l-0.1-0.1-0.1-0.1h-0.1v-0.1-0.1h0.1v-0.8-0.1l0.1-0.1 0.1-0.1zm0 1.4h0.6l0.5 0.1 0.2 0.1 0.2-0.1h0.2v-0.2-0.2-0.4h-0.1-0.1v0.1 0.1h-0.1v0.1 0.1h-0.1-0.1l-0.1-0.1-0.1-0.1-0.1-0.1h-0.1l-0.2-0.1-0.2-0.2-0.1-0.1-0.1-0.1-0.3-0.2-0.1 0.2v0.8 0.1l0.1 0.1 0.1 0.1z"/>
			<path id="Path 177" class="s5" d="m36.1 14.8c0-0.3-0.4-0.3-0.3 0-0.1 0.2 0.3 0.2 0.3 0z"/>
			<path id="Path 178" fill-rule="evenodd" class="s0" d="m35.9 15q0 0-0.1 0-0.1-0.1-0.1-0.2 0-0.2 0.1-0.2 0.1-0.1 0.2 0 0.2 0 0.2 0.2h-0.1q0 0.1-0.1 0.2 0 0-0.1 0zm0-0.4q0 0-0.1 0 0 0.1 0 0.2 0 0.1 0 0.1 0.1 0 0.2 0 0.1 0 0-0.1l0.1-0.1q0-0.1-0.1-0.1 0 0-0.1 0z"/>
			<path id="Path 179" class="s5" d="m36.7 14.6h-0.1-0.1l-0.1 0.1-0.1 0.1v0.1 0.1 0.1h0.1l0.1 0.1v0.1h0.1 0.1v0.1h0.1l0.1 0.1h0.1l0.1 0.1v0.1l0.1 0.1h0.1 0.1 0.1l0.1-0.1v-0.1l0.1-0.1 0.1-0.1v-0.1l-0.1-0.1h-0.1-0.1-0.1v-0.1-0.1h-0.1-0.1v-0.1h-0.1l-0.1-0.1-0.1-0.1h-0.1l-0.1-0.1z"/>
			<path id="Path 180" fill-rule="evenodd" class="s0" d="m36.7 14.5h0.1v0.1l0.1 0.1h0.1l0.2 0.2h0.1l0.1 0.1v0.1h0.1 0.1l0.1 0.1 0.1 0.1v0.1l-0.1 0.2-0.1 0.1v0.1h-0.1-0.1v0.1h-0.1l-0.1-0.1h-0.1v-0.1-0.1h-0.1-0.1v-0.1l-0.2-0.1h-0.2v-0.1-0.1h-0.1-0.1v-0.1-0.1-0.1-0.1-0.1l0.1-0.1 0.1-0.1zm-0.2 0.7v0.1h0.2v0.1l0.2 0.1h0.1 0.1v0.1 0.1h0.1l0.1 0.1 0.1-0.1h0.1v-0.1-0.1l0.2-0.1v-0.1h-0.1l-0.1-0.1h-0.1-0.1v-0.1-0.1h-0.1-0.1v-0.1l-0.2-0.2h-0.1-0.1v-0.1h-0.3v0.1l-0.1 0.1v0.1 0.1 0.1h0.1l0.1 0.1q0 0 0 0z"/>
			<path id="Path 181" class="s5" d="m38.2 16.2v0.1 0.1l-0.1 0.1 0.2 0.1 0.4 0.4 0.8 0.6 0.7 0.7 1 0.8 0.9 0.9 0.9 0.7 0.6 0.8 0.6 0.6 0.2 0.5-0.2-0.7-0.5-0.8-0.7-0.8-0.8-0.8-1-0.9-0.8-0.8-0.9-0.6-0.7-0.6-0.5-0.3zm-5.6 5h-0.2-0.2v0.1l-0.1 0.1v0.2 0.2l0.1 0.1v0.1l0.1 0.1 0.2 0.1h0.1l0.2 0.1 0.2 0.1h0.1l0.2 0.1h0.2 0.2 0.1l0.2-0.1h0.1l0.1-0.1 0.2-0.1-0.1-0.1-0.1-0.1-0.1-0.2v-0.1l-0.2-0.1-0.1-0.1-0.1-0.1-0.1-0.1h-0.2l-0.1-0.1h-0.1-0.1-0.2-0.2z"/>
			<path id="Path 182" fill-rule="evenodd" class="s4" d="m32.7 21l0.2 0.1h0.5v0.1h0.2l0.2 0.1 0.1 0.1v-0.1h0.1l0.1-0.1h0.2l0.2-0.1 0.1 0.1h0.5l0.1 0.1h0.2l0.1 0.1h0.1l0.2 0.2v0.1l0.1 0.1v0.1l0.2 0.1v0.1h0.1l-0.1 0.1-0.2 0.1-0.1 0.1-0.2 0.1h-0.5l-0.1-0.1-0.3-0.1-0.1-0.1h-0.2l-0.1 0.1-0.1 0.1-0.2 0.1-0.2 0.1h-0.5l-0.2-0.1-0.2-0.1-0.2-0.1-0.5-0.2v-0.1l-0.1-0.3v-0.4-0.1l0.1-0.1h0.4zm0.6 1.4h0.4l0.2-0.1 0.2-0.1 0.1-0.1-0.1-0.1-0.1-0.1-0.1-0.1-0.1-0.1v-0.2-0.1h-0.1l-0.2-0.1h-0.2v-0.1h-0.5-0.1-0.1-0.3l-0.1 0.1v0.4l0.1 0.2v0.1l0.5 0.1 0.2 0.1 0.1 0.1z"/>
			<path id="Path 183" class="s5" d="m36 21.2h-0.2-0.1l-0.1 0.1h-0.1v0.1 0.1 0.1 0.1l0.1 0.1 0.1 0.1 0.1 0.2h0.1l0.2 0.1h0.2l0.1 0.1 0.2 0.1 0.2 0.1h0.1 0.2 0.2l0.1-0.1 0.2-0.1 0.2-0.1 0.1-0.1h-0.1v-0.1l-0.2-0.1v-0.1l-0.1-0.1-0.1-0.1-0.1-0.2h-0.1l-0.2-0.1h-0.2l-0.1-0.1h-0.1-0.1-0.2l-0.2-0.1z"/>
			<path id="Path 184" fill-rule="evenodd" class="s4" d="m36.1 21l0.3 0.1h0.4v0.1h0.2l0.1 0.1 0.1-0.1h0.3l0.2-0.1 0.1 0.1h0.4l0.1 0.1h0.2l0.2 0.1h0.1l0.1 0.2 0.1 0.1 0.1 0.1v0.1l0.1 0.1 0.1 0.1h0.1l-0.2 0.1-0.1 0.1-0.2 0.1-0.2 0.1h-0.4l-0.2-0.1-0.2-0.1h-0.1l-0.2 0.1-0.2 0.1-0.1 0.1h-0.5l-0.2-0.1-0.3-0.1-0.1-0.1h-0.1l-0.2-0.1-0.1-0.1-0.2-0.1v-0.1l-0.2-0.1v-0.2-0.3h0.1l0.1-0.1v-0.1h0.4zm0.7 1.4h0.4l0.2-0.1 0.1-0.1h0.2l-0.1-0.1h-0.2l-0.1-0.1-0.1-0.1-0.1-0.1v-0.1l-0.1-0.2v-0.2h-0.3v-0.1h-0.4-0.2-0.1-0.3v0.1h-0.1l-0.1 0.1v0.1h0.1v0.2l0.1 0.1 0.2 0.2 0.2 0.1h0.2l0.1 0.1 0.2 0.1z"/>
			<path id="Path 185" class="s5" d="m39.1 21.2h-0.2-0.1l-0.1 0.1h-0.1 0.1l-0.1 0.1v0.1 0.1l0.1 0.1v0.1l0.1 0.1 0.1 0.2h0.2l0.1 0.1h0.2l0.2 0.1 0.2 0.1 0.1 0.1h0.2 0.1 0.2l0.2-0.1 0.1-0.1 0.1-0.1 0.2-0.1h-0.1l-0.1-0.1v-0.1l-0.1-0.1-0.1-0.1-0.1-0.1-0.1-0.2h-0.1l-0.2-0.1h-0.1l-0.1-0.1h-0.1-0.2-0.1l-0.2-0.1z"/>
			<path id="Path 186" fill-rule="evenodd" class="s4" d="m39.3 21l0.2 0.1h0.5v0.1h0.1l0.2 0.1h0.1 0.1l0.1-0.1h0.3l0.1-0.1 0.2 0.1h0.4l0.1 0.1h0.2l0.2 0.1h0.1l0.1 0.2 0.1 0.1v0.1l0.1 0.1 0.1 0.1v0.1h0.1l-0.1 0.1-0.2 0.1-0.1 0.1-0.1 0.1h-0.6l-0.1-0.1-0.2-0.1-0.2-0.1h-0.1l-0.1 0.1-0.1 0.1-0.2 0.1-0.2 0.1h-0.5l-0.2-0.1-0.2-0.1-0.2-0.1h-0.1l-0.1-0.1-0.2-0.1-0.2-0.1-0.1-0.2v-0.2-0.3l0.1-0.1v-0.1h0.4zm-0.4 0.2l-0.2 0.2v0.1l0.1 0.2 0.1 0.1 0.1 0.2h0.2l0.1 0.1h0.1l0.2 0.1 0.2 0.1 0.2 0.1h0.4l0.2-0.1 0.1-0.1 0.1-0.1h0.1-0.1v-0.1l-0.2-0.1-0.1-0.1v-0.1-0.1l-0.1-0.2h-0.1l-0.2-0.1h-0.1l-0.1-0.1h-0.4-0.2-0.1zm-16.4 8.2l0.2 0.5 0.1 0.4v-0.4l-0.3-0.6zm0.5 2.5h-0.1-0.3l-0.1 0.2-0.1 0.2-0.1 0.2v0.2 0.1 0.6l-0.4-0.4-0.2-0.3-0.1-0.3v-0.3l0.1-0.2 0.1-0.2 0.2-0.2 0.1-0.3 0.1-0.2 0.1-0.2h-0.1v-0.4l-0.1-0.2-0.2-0.4-0.1-0.2-0.1-0.3-0.1-0.2v-0.4l0.2-0.2h0.3 0.2 0.3 0.5l0.4 0.1h0.4l0.4 0.1h0.2 0.3 0.1l0.5 1.6 0.2 1.7-0.1 1.7-0.2 1.7-0.4 1.7-0.2 1.7-0.2 1.6 0.2 1.6 0.5 1.5 0.9 1.4h-0.1-0.2l-0.4 0.1-0.3 0.1-0.4 0.1-0.4 0.1-0.3 0.1-0.2 0.1-0.3 0.1-1-1.7-0.4-1.8-0.1-1.8 0.1-1.8 0.3-1.8 0.4-1.7 0.2-1.8v-1.3zm31.2-3.4l0.2 0.2v0.4 0.3l-0.2 0.2-0.1 0.3-0.1 0.3-0.2 0.3v0.3 0.3l0.1 0.2 0.1 0.2 0.2 0.2 0.2 0.2v0.3 0.2 0.3l-0.3 0.3-0.3 0.4v-0.5l-0.1-0.2v-0.2l-0.1-0.2-0.1-0.2-0.1-0.1-0.3-0.1-0.1 0.1 0.1 1.2 0.2 1.8 0.3 1.8 0.3 1.7 0.1 1.9v1.7l-0.5 1.8-1 1.8-0.2-0.1-0.3-0.2h-0.1l-0.3 1.6-0.8 2.2-0.9 2-1.2 1.9-1.3 1.6-1.4 1.4-1.5 1.1-1.7 0.9-1.8 0.5-1 0.1 0.1 0.2v0.2l-0.1 0.2-0.3 0.2-0.6 0.2-0.5 0.1h-0.7-0.6-0.7l-0.5-0.2-0.6-0.3-0.3-0.4v-0.2-0.1l-0.3-0.1-1.8-0.4-1.7-0.6-1.6-1-1.4-1.1-1.3-1.3-1.1-1.6-1-1.6-0.7-1.8-0.5-1.8 0.1-0.1h0.2l0.3-0.2 0.2-0.2 0.3-0.2 0.2-0.2 0.2-0.1 0.3-0.1 0.3-0.1h0.3v0.7l0.3 1 0.5 1.1 0.7 1.3 1 1.4 1 1.2 1.4 1.3 1.6 1 1.7 0.6 2 0.3h-0.1l0.2 0.1 0.1 0.3v0.2 0.4 0.2h0.4l0.5 0.1h0.5l0.5-0.1h0.6l0.2-0.1-0.1-0.5v-0.7l0.1-0.3 0.2-0.1 1.9-0.4 1.8-0.8 1.5-1.2 1.3-1.4 1.2-1.6 0.9-1.7 0.7-1.6 0.6-1.4 0.2-1.2 0.1-0.9h0.2l0.3 0.1 0.3 0.2 0.2 0.2 0.1-0.3 0.6-1.4 0.1-1.6-0.1-1.7-0.3-1.6-0.4-1.7-0.2-1.8-0.1-1.6 0.2-1.7 0.6-1.7h0.1 0.2 0.3l0.3-0.1h0.4l0.4-0.1h0.5 0.3 0.3zm-0.9 1.4l0.2-0.5 0.2-0.5-0.5 1-0.1 0.5zm-3.7-5.5l0.1 0.7v0.6l0.1 0.8 0.1 0.6v0.7 0.7 0.6l0.1 0.7v2.5l-0.1 0.6v0.7 0.6l-0.1 0.6-0.1 0.6v0.5 0.6l-0.2 0.6v0.6l-0.1 0.6-0.1 0.6-0.2 0.5v0.5l-0.1 0.5-0.3 0.6v0.5l-0.2 0.5-0.1 0.5-0.2 0.5-0.2 0.5-0.2 0.5-0.2 0.5-0.2 0.4-0.2 0.6-0.2 0.4-0.3 0.4-0.1 0.5-0.3 0.4-0.2 0.4-0.3 0.5-0.2 0.4-0.3 0.4-0.3 0.5-0.4 0.4-0.2 0.3-0.3 0.4-0.4 0.4-0.3 0.4-0.4 0.4-0.3 0.3-0.3 0.4-0.3 0.3-0.4 0.4-0.7 0.7-0.4 0.3-0.4 0.3-0.5 0.3-0.3 0.3-0.5 0.3-0.4 0.3-0.5 0.3h-0.3l-0.4-0.3-0.5-0.3-0.4-0.3-0.4-0.3-0.4-0.3-0.4-0.3-0.4-0.3-0.4-0.4-0.7-0.7-0.4-0.3-0.3-0.4-0.3-0.3-0.4-0.4-0.3-0.4-0.3-0.4-0.4-0.4-0.3-0.3-0.2-0.4-0.3-0.5-0.3-0.4-0.2-0.4-0.3-0.5-0.2-0.4-0.3-0.4-0.2-0.5-0.3-0.4-0.2-0.4-0.2-0.6-0.2-0.4-0.2-0.5-0.2-0.5-0.1-0.5-0.2-0.5-0.1-0.5-0.2-0.5-0.2-0.5-0.1-0.6-0.2-0.5v-0.5l-0.2-0.5-0.1-0.6-0.1-0.6v-0.6l-0.2-0.6v-0.6-0.5l-0.1-0.6-0.1-0.6v-0.6-0.7-3.8-0.6-0.7l0.1-0.7 0.1-0.6v-0.8l0.1-0.6 0.1-0.7z"/>
			<path id="Path 187" class="s5" d="m33.3 40.2l0.1 1.8 0.3 1.6 0.1 1.4 0.3 1.3 0.4 1.1 0.3 1 0.3 0.7 0.4 0.5 0.4 0.2h0.4l-0.4-0.2-0.4-0.4-0.3-0.6-0.3-0.8-0.3-0.9-0.4-1-0.1-1.2-0.3-1.5-0.1-1.5-0.2-1.7-0.1-1.7v-1.6-1.4-1.4l0.2-1.3 0.1-1.1 0.2-0.9 0.3-0.9 0.3-0.7 0.3-0.5-0.4 0.3-0.3 0.6-0.3 0.8-0.2 0.9-0.2 1.2-0.1 1.5-0.1 1.4-0.1 1.6 0.1 1.7 0.1 1.7z"/>
			<path id="Path 188" fill-rule="evenodd" class="s0" d="m35.9 49.9v-0.1l-0.4-0.2-0.4-0.5-0.3-0.7-0.7-2.1-0.3-1.3-0.2-1.4-0.2-1.6-0.1-1.7-0.1-0.1-0.1-1.7v-1.7-1.6l0.2-2.9 0.2-1.2 0.2-0.9 0.4-0.9 0.3-0.6 0.3-0.2h0.1l-0.3 0.5-0.3 0.7-0.2 0.9-0.2 0.9-0.2 1.1-0.1 1.3-0.1 1.4v1.4l0.1 1.6 0.1 1.7 0.1 1.7 0.2 1.5 0.2 1.5 0.2 1.2 0.3 1 0.3 0.9 0.6 1.3 0.4 0.4 0.4 0.2v0.1zm-0.8-0.8l0.5 0.5 0.3 0.2h0.3l-0.3-0.2-0.4-0.4-0.7-1.3-0.2-0.9-0.4-1.1-0.1-1.2-0.3-1.4-0.2-1.6-0.1-1.6-0.1-1.7-0.1-1.6v-1.5l0.1-1.4 0.1-1.2 0.2-1.1 0.2-1 0.3-0.8 0.3-0.8 0.2-0.3-0.3 0.1-0.3 0.6-0.3 0.8-0.2 1-0.2 1.2-0.2 2.8v1.6 1.7l0.1 1.7 0.1 0.1 0.1 1.7 0.2 1.6 0.2 1.5 0.3 1.3 0.6 2z"/>
			<path id="Path 189" class="s6" d="m30.6 25.7l0.5 1.7h1.9l-1.6 1.1 0.6 1.7-1.4-1-1.6 1 0.6-1.7-1.4-1.1h1.8z"/>
			<path id="Path 190" class="s5" d="m37.5 26.5h-0.1v0.1 0.2 0.2 0.1 0.1 0.2l0.1 0.1 0.1 0.1v0.2 0.1h0.1v0.2l0.1 0.1h0.1 0.1v-0.1-0.1-0.1-0.1-0.1-0.2-0.1-0.2l-0.1-0.1-0.1-0.1v-0.1-0.1l-0.1-0.1-0.1-0.1v-0.1z"/>
			<path id="Path 191" fill-rule="evenodd" class="s0" d="m37.6 26.5l0.1 0.2 0.1 0.1v0.1l0.1 0.2 0.1 0.1v0.3l0.1 0.2v0.3l-0.1 0.1v0.1l-0.1 0.1h-0.1v-0.1h-0.1v-0.1-0.1l-0.1-0.1-0.1-0.1v-0.1l-0.1-0.2v-0.1-0.2l-0.1-0.1v-0.5l0.1-0.1zm0.2 1.7h0.1 0.1v-0.1-0.1-0.3-0.2-0.3l-0.1-0.1-0.1-0.2v-0.1l-0.1-0.1-0.1-0.1h-0.1-0.1v0.5l0.1 0.1v0.2 0.1l0.1 0.1v0.2l0.1 0.1h0.1v0.2z"/>
			<path id="Path 192" fill-rule="evenodd" class="s5" d="m36.7 26.5h-0.1v0.1 0.1 0.1 0.2l0.1 0.1v0.1 0.2l0.1 0.1 0.1 0.2v0.1l0.1 0.1 0.1 0.2 0.1 0.1v0.1h0.1l0.1 0.1h0.1v-0.1h0.1v-0.2h-0.1v-0.2l-0.1-0.1v-0.1-0.2l-0.1-0.1-0.1-0.2v-0.2l-0.1-0.1-0.2-0.2-0.1-0.1-0.1-0.1zm-0.1 0h0.1z"/>
			<path id="Path 193" fill-rule="evenodd" class="s0" d="m36.7 26.5h0.1v0.1l0.1 0.1 0.2 0.2 0.1 0.1v0.2l0.1 0.2 0.1 0.1v0.2 0.1l0.1 0.1v0.2h0.1v0.2 0.1h-0.1-0.2-0.1l-0.1-0.1v-0.2l-0.1-0.1-0.1-0.1v-0.2l-0.1-0.1-0.1-0.4v-0.1l-0.1-0.1v-0.5zm0.6 1.9h0.1v-0.1h0.1v-0.1l-0.1-0.1v-0.1l-0.1-0.1v-0.2-0.2l-0.1-0.1-0.1-0.2v-0.2l-0.1-0.1-0.2-0.2h-0.1v-0.1h-0.1v0.4l0.1 0.1v0.1l0.1 0.3 0.1 0.2v0.1l0.1 0.1 0.1 0.2v0.1l0.1 0.1z"/>
			<path id="Path 194" class="s5" d="m38.3 28.6h-0.3l-0.2 0.1-0.1 0.1-0.1 0.2-0.1 0.2v0.1 0.2l0.1 0.1v0.1l0.1 0.1v0.2 0.1 0.1 0.1l0.1 0.1v0.2l0.1 0.1h0.1l0.2 0.1 0.2-0.1h0.1l0.1-0.1h0.1v-0.1l0.1-0.1v-0.1-0.1-0.2-0.1l0.1-0.1 0.1-0.1v-0.2l0.1-0.1-0.1-0.2-0.1-0.2v-0.2l-0.2-0.1-0.2-0.1z"/>
			<path id="Path 195" fill-rule="evenodd" class="s0" d="m38 28.5h0.5l0.3 0.1 0.1 0.2 0.1 0.1v0.2l0.1 0.2v0.1l-0.1 0.1v0.2 0.1l-0.2 0.1v0.5 0.1l-0.1 0.1v0.1l-0.5 0.2-0.4-0.3h-0.1v-0.2l-0.1-0.1v-0.5-0.1l-0.1-0.1-0.1-0.1v-0.4l0.2-0.4 0.2-0.1zm0.2 2.3l0.4-0.2 0.1-0.1v-0.1-0.5l0.1-0.1h0.1v-0.1-0.2l0.1-0.1-0.1-0.2v-0.2l-0.1-0.2-0.1-0.1-0.3-0.1h-0.4l-0.2 0.1-0.1 0.1-0.2 0.4v0.3l0.1 0.1v0.1h0.1v0.1 0.5l0.1 0.1v0.2z"/>
			<path id="Path 196" fill-rule="evenodd" class="s0" d="m38 29.4h-0.1v0.1-0.1h-0.1zm0.4 0.6h0.1v0.1h-0.4l-0.1 0.1v-0.2h0.1 0.1 0.1zm0.1 0.1l0.1 0.1h-0.1v-0.1zm-0.5-0.7v0.1-0.1zm-0.2 0v0.1z"/>
			<path id="Path 197" fill-rule="evenodd" class="s0" d="m38.4 30.3h-0.2v-0.1h0.1 0.1zm-0.1-0.3h-0.1v-0.1h0.1zm0.3-0.6l0.1 0.1v0.1h-0.1zm0 0v0.1l-0.1-0.1zm-0.4 0.8zm0.1-0.4zm0 0zm0.5-0.3h0.1z"/>
			<path id="Path 198" fill-rule="evenodd" class="s0" d="m38.4 29.8h-0.1zm-0.2 0zm-0.1-0.6l0.1 0.1v0.3h-0.1v-0.1h-0.1v-0.1-0.2h-0.3v0.1h-0.1l0.1-0.1zm0.1 0.6h0.1zm-0.6-0.5v0.1h-0.1 0.1zm-0.1 0h0.1zm0.6 0.2v0.1z"/>
			<path id="Path 199" fill-rule="evenodd" class="s0" d="m38.7 29.2h-0.1v0.2h-0.1v0.1l-0.1-0.1v-0.2h-0.1zm0.1 0v0.1h-0.1v-0.1zm0.1 0.1l0.1 0.1v0.1-0.1h-0.1zm-0.5 0h0.1z"/>
			<path id="Path 200" class="s5" d="m40.7 32.5l-0.1 0.5 0.1 0.4v0.5 0.4l0.1 0.4v0.3 0.3 0.3 0.4-0.1-0.1h0.1 0.1v-0.1h0.2 0.2l0.2 0.1h0.2l0.1-0.1v-0.1h-0.1v-0.1h-0.1-0.1-0.1v-0.1h-0.1v-0.4-0.4l-0.1-0.3-0.1-0.4-0.1-0.3-0.1-0.4-0.1-0.3-0.1-0.3v-0.3l-0.1-0.2z"/>
			<path id="Path 201" fill-rule="evenodd" class="s0" d="m40.8 32.1v0.2l0.1 0.6 0.2 0.3v0.3l0.2 0.4v0.4l0.1 0.3 0.1 0.4v0.3 0.1h0.2v0.1h0.1l0.1 0.1v0.1l-0.1 0.1-0.1 0.1-0.1-0.1h-0.2-0.3-0.1-0.1v0.1l-0.1 0.1h-0.1l0.1-0.4v-0.3l-0.1-0.3v-0.3-0.4-0.9l-0.1-0.4 0.1-0.5v-0.4zm0.1 3.7v-0.1h0.1 0.1 0.3 0.2l0.2 0.1v-0.1-0.1h-0.1v-0.1h-0.2v-0.1h-0.1v-0.4-0.4l-0.1-0.3-0.1-0.4-0.1-0.3-0.1-0.4-0.1-0.2-0.1-0.5-0.1 0.5 0.1 0.4v0.9 0.4 0.3l0.1 0.3v0.3z"/>
			<path id="Path 202" class="s5" d="m35.9 31.9v0.2l-0.1 0.2v0.3l-0.1 0.2-0.1 0.3v0.3l-0.1 0.3v0.4 0.4h-0.1l-0.1 0.1-0.1 0.1v0.1 0.1h0.3l0.2-0.1h0.1 0.1l0.2 0.1 0.1 0.2h0.1l-0.1-0.2v-0.4l-0.1-0.2v-0.4-0.3-0.4-0.4l-0.1-0.3v-0.4l-0.1-0.5zm0.4 3.3c0 0 0 0 0 0z"/>
			<path id="Path 203" fill-rule="evenodd" class="s0" d="m36 31.6l0.1 0.5v0.4 0.3 0.8l0.1 0.3v0.4l0.1 0.2v0.4 0.2 0.1h-0.1v-0.1l-0.1-0.2-0.2-0.1h-0.2l-0.2 0.1-0.3 0.1v-0.1-0.3-0.1h0.2l0.1-0.1v-0.7l0.1-0.3v-0.3-0.3l0.1-0.2 0.1-0.3v-0.2-0.2l0.1-0.3zm-0.7 3.3l0.2-0.1 0.2-0.1h0.3l0.1 0.1 0.1 0.1v0.1-0.1-0.4l-0.1-0.2v-0.4-0.3-0.8l-0.1-0.3v-0.4-0.3l-0.1 0.1v0.2 0.2l-0.1 0.3-0.1 0.3v0.3 0.3l-0.1 0.2v0.8h-0.1-0.1l-0.1 0.1v0.1z"/>
			<path id="Path 204" fill-rule="evenodd" class="s5" d="m38.1 30.8v0.1h0.1 0.1v0.1h0.2v-0.1h0.1l0.1 0.3v0.8l-0.1 0.1-0.1 0.1v0.1h-0.1l-0.1 0.2-0.2-0.2-0.1-0.1-0.1-0.1-0.1-0.2h-0.1v-0.1-0.1-0.1h-0.1l0.1-0.1v-0.5-0.1l0.1-0.1zm0.6 0.1z"/>
			<path id="Path 205" fill-rule="evenodd" class="s0" d="m38.1 30.8l0.1 0.1h0.1l0.1 0.1h0.1v-0.1h0.1v-0.1h0.1v0.1 0.3 0.8 0.2l-0.4 0.3-0.5-0.4v-0.1l-0.1-0.1v-0.1l-0.1-0.1v-0.1-0.1-0.5l0.1-0.1v-0.1h0.1zm0.2 1.6l0.3-0.3 0.1-0.1v-0.8-0.3l-0.1 0.1-0.1 0.1h-0.1l-0.1-0.1-0.2-0.1h-0.2-0.1l-0.1 0.1v0.5 0.1 0.1l0.1 0.1v0.1h0.1v0.2z"/>
			<path id="Path 206" class="s5" d="m39.1 28.8v0.2l0.1 0.2-0.1 0.3v0.2 0.2 0.3 0.1 0.3 0.2 0.1 0.1 0.1 0.2l0.1 0.1v0.1h0.1l0.1 0.1 0.1-0.1v-0.2-0.2-0.1-0.1h-0.1l-0.1-0.1-0.1-0.1 0.1-0.2 0.1-0.2 0.1-0.2v-0.3-0.2-0.3l-0.1-0.3-0.1-0.1-0.2-0.1-0.1-0.1z"/>
			<path id="Path 207" fill-rule="evenodd" class="s0" d="m39.1 28.7h0.1l0.1 0.2 0.1 0.1 0.1 0.3v0.8l-0.1 0.2-0.1 0.2-0.1 0.2h0.1v0.1h0.1l0.1 0.1v0.1 0.1 0.2 0.2l-0.1 0.1h-0.1l-0.1-0.1v-0.1l-0.1-0.1v-0.2-1.2-0.2-0.2l0.1-0.3-0.1-0.2v-0.2l-0.1-0.1zm0.3 2.9l0.1-0.1v-0.1-0.2-0.1-0.1h-0.1l-0.1-0.1-0.1-0.1 0.1-0.2 0.1-0.2 0.1-0.3v-0.8l-0.1-0.2-0.1-0.1-0.1-0.1v0.2l0.1 0.2-0.1 0.3v0.1 0.2 1.3 0.1 0.1l0.1 0.1 0.1 0.1z"/>
			<path id="Path 208" class="s5" d="m37.4 28.7l-0.1 0.1-0.1 0.1v0.3 0.2 0.3 0.3 0.2l0.1 0.2 0.1 0.2-0.1 0.1h-0.1v0.1 0.1h-0.1v0.1 0.1 0.2l0.1 0.1v0.1l0.1-0.1 0.1-0.1v-0.2l0.1-0.1v-0.1-0.2-0.2-0.2-0.3-0.2l-0.1-0.2v-0.3-0.2-0.2-0.1l0.2-0.2z"/>
			<path id="Path 209" fill-rule="evenodd" class="s0" d="m37.5 28.5l0.1 0.1-0.2 0.2v0.8l0.1 0.2v1.2 0.1h-0.1v0.2l-0.1 0.2h-0.1l-0.1-0.1v-0.1-0.4-0.1l0.1-0.1v-0.1h0.1l-0.1-0.2v-0.2l-0.1-0.2v-0.8l0.1-0.3v-0.2zm-0.3 2.9l0.2-0.1v-0.2-0.1-1.2-0.2-0.8-0.1l-0.1 0.1-0.1 0.1v0.3 0.8 0.2l0.1 0.2 0.1 0.2v0.1h-0.1-0.1v0.1 0.1h-0.1v0.4l0.1 0.1z"/>
			<path id="Path 210" class="s5" d="m38.7 28h-0.1-0.3l-0.1 0.1h-0.2l-0.2 0.1-0.1 0.1-0.1 0.1v0.1 0.2h0.2l0.1-0.2h0.2 0.2l0.1-0.1h0.2 0.1l0.1 0.1h0.2l0.1 0.2v-0.2-0.1-0.1-0.1l-0.1-0.1h-0.1l-0.1-0.1z"/>
			<path id="Path 211" fill-rule="evenodd" class="s0" d="m38.8 28h0.1v0.1h0.1 0.1l0.1 0.2v0.4h-0.1l-0.1-0.1-0.2-0.1-0.1-0.1h-0.3l-0.1 0.1h-0.2l-0.2 0.1-0.1 0.1h-0.2-0.1v-0.2l0.1-0.1v-0.1l0.2-0.1 0.2-0.1h0.2l0.1-0.1zm-1.2 0.6h0.1l0.2-0.1h0.2 0.2l0.1-0.1h0.3l0.1 0.1h0.2l0.1 0.1v-0.2l-0.1-0.2v-0.1h-0.1-0.1v-0.1h-0.5l-0.1 0.1-0.2 0.1-0.2 0.1-0.1 0.1h-0.1v0.2z"/>
			<path id="Path 212" class="s5" d="m39.2 31.7l-0.1 0.2-0.1 0.1h-0.1l-0.2 0.2-0.1 0.1h-0.1l-0.1 0.1-0.1 0.1v-0.1l-0.1-0.1h-0.2l-0.1-0.2-0.1-0.1-0.1-0.1-0.1-0.1v-0.1h-0.1l-0.1 0.1v0.2l0.1 0.2 0.1 0.2v0.1l0.2 0.2 0.1 0.1 0.1 0.1 0.1 0.2 0.1 0.1 0.1 0.1 0.1-0.1 0.1-0.1 0.2-0.2 0.2-0.1 0.1-0.1 0.1-0.3 0.2-0.1 0.1-0.3-0.1-0.1-0.1-0.3z"/>
			<path id="Path 213" fill-rule="evenodd" class="s0" d="m39.2 31.6l0.1 0.3 0.1 0.1-0.1 0.3-0.1 0.2-0.1 0.2-0.2 0.1-0.2 0.2-0.2 0.2-0.1 0.2h-0.1-0.1v-0.2l-0.1-0.1h-0.1v-0.1l-0.4-0.4-0.1-0.2-0.1-0.2v-0.2-0.2-0.1h0.1 0.1v0.1l0.1 0.1 0.1 0.1h0.1v0.1l0.1 0.2h0.2l0.1 0.1v0.1l0.2-0.2h0.1l0.3-0.3h0.1l0.1-0.1 0.1-0.2v-0.1zm-1 1.7l0.1-0.1 0.1-0.1 0.2-0.2 0.2-0.1 0.1-0.1 0.1-0.3 0.2-0.1v-0.2-0.2l-0.1-0.1v0.1l-0.1 0.1-0.2 0.1-0.2 0.2-0.1 0.1-0.2 0.2h-0.1v-0.1l-0.1-0.1-0.2-0.1-0.1-0.1-0.1-0.2-0.1-0.1-0.1-0.1h-0.1v0.2 0.2l0.1 0.2 0.1 0.1 0.4 0.4v0.2l0.2 0.1z"/>
			<path id="Path 214" class="s5" d="m36.8 31.6v0.1h-0.1-0.1-0.1l-0.1 0.1-0.1 0.1-0.1 0.1-0.1 0.1 0.2 0.4 0.2 0.5v0.6 0.5 0.7 0.5 0.6 0.4 0.3l0.1 0.2h0.1 0.3 0.3l0.1-0.2 0.1-0.2-0.1-0.2v-0.3-0.2-0.2-0.2l0.2-0.1v0.3 0.4l0.1 0.2 0.1 0.3v0.2l0.1 0.2 0.2 0.2h0.2l0.1-0.1 0.2-0.1h0.1l0.2 0.1 0.1 0.1h0.1l0.2-0.1 0.1-0.1 0.2-0.1v-0.2l0.1-0.2v-0.3h0.1v0.1l0.1 0.1v0.1l-0.1 0.1v0.2 0.1l0.1 0.1 0.2-0.2 0.1-0.1 0.1-0.3v-0.3-0.3-0.4-0.3-0.4l0.1-0.3v-0.3l0.1-0.2v-0.1-0.2-0.3-0.2-0.2l-0.1-0.3 0.1-0.2v-0.2-0.1-0.1l-0.1-0.1h-0.1-0.1-0.2-0.2-0.1-0.1-0.1l-0.1 0.3-0.1 0.3-0.1 0.3-0.1 0.2-0.2 0.1-0.1 0.1-0.1 0.2-0.2 0.1-0.1 0.1-0.1 0.2-0.2-0.3-0.2-0.3-0.2-0.3-0.1-0.3-0.2-0.2v-0.2l-0.2-0.2-0.1-0.1-0.1-0.1z"/>
			<path id="Path 215" fill-rule="evenodd" class="s0" d="m39.1 37h-0.1l-0.1-0.1h-0.2l-0.1-0.1-0.2 0.1-0.1 0.1h-0.2-0.1l-0.1-0.2-0.1-0.2-0.1-0.2-0.1-0.3v-0.2l-0.1-0.4v-0.2h-0.1v0.2 0.2 0.5l0.1 0.2-0.1 0.2-0.1 0.2-0.3 0.1h-0.4v-0.1l-0.1-0.2v-0.3-1-0.5-1.3-0.5l-0.2-0.4-0.2-0.4v-0.1l0.1-0.1 0.1-0.1 0.1-0.1v-0.1h0.1 0.1l0.1-0.1h0.1v-0.1h0.2v0.1l0.2 0.2 0.2 0.2v0.2l0.2 0.2 0.1 0.3 0.2 0.3 0.2 0.3 0.2 0.2 0.2-0.2 0.2-0.1 0.1-0.2 0.1-0.1 0.2-0.1 0.1-0.2 0.1-0.3 0.1-0.3 0.1-0.3v-0.1h0.7l0.1 0.1h0.1l0.1 0.1 0.1 0.1-0.1 0.1v0.2 0.2 0.3 1 0.2l-0.1 0.3-0.1 0.3v1.7 0.3h-0.1l-0.3 0.3h-0.1v-0.1-0.3l0.1-0.1v-0.1h-0.1v-0.1-0.1h-0.1v0.3l-0.1 0.2v0.2 0.1l-0.2 0.1zm-0.2-0.1h0.2l0.1-0.1h0.1l0.1-0.1 0.1-0.2v-0.2-0.3h0.1l0.1-0.1 0.1 0.1v0.1h0.1v0.1 0.1 0.1h-0.1v0.3l0.3-0.2 0.1-0.3v-1.7-0.1l0.1-0.2v-0.4l0.1-0.1v-1l-0.1-0.3 0.1-0.2v-0.2-0.1-0.1h-0.1-0.1l-0.1-0.1h-0.6l-0.1 0.3-0.1 0.4-0.2 0.2-0.1 0.2-0.1 0.2-0.2 0.1-0.1 0.1-0.1 0.1-0.2 0.3h-0.1l-0.2-0.3-0.2-0.3-0.3-0.3-0.1-0.3-0.1-0.2-0.1-0.2-0.1-0.2-0.2-0.2h-0.1l-0.1 0.1-0.2 0.1h-0.1-0.1v0.1l-0.1 0.1-0.1 0.1 0.2 0.4 0.1 0.5 0.1 0.5v1.3l-0.1 0.5v1l0.1 0.3v0.2h0.4l0.3-0.1 0.1-0.1v-0.2-0.2-0.5l-0.1-0.2 0.1-0.2 0.2-0.2v0.1 0.3l0.1 0.4v0.2l0.1 0.3 0.1 0.2 0.1 0.2 0.1 0.1h0.2l0.1-0.1 0.2-0.1h0.1l0.1 0.1 0.1 0.1z"/>
			<path id="Path 216" class="s5" d="m40 37.3h-0.1l-0.2 0.1h-0.1l-0.3 0.1h-0.2-0.3-0.2-0.3-0.2-0.2l-0.2-0.1h-0.2l-0.1-0.1h-0.2-0.1l-0.1 0.1 0.1 0.1 0.1 0.1h0.2l0.1 0.1h0.2 0.2 0.2 0.2l0.3 0.1 0.3-0.1h0.2 0.3 0.2 0.2l0.1-0.1h0.1 0.2l0.1-0.1v-0.1l-0.1-0.1z"/>
			<path id="Path 217" fill-rule="evenodd" class="s0" d="m40.2 37.3l0.1 0.1v0.1l-0.1 0.1h-0.2l-0.1 0.1h-0.1-0.2l-0.2 0.1h-0.5l-0.3 0.1-0.3-0.1h-0.4l-0.2-0.1h-0.3-0.1l-0.1-0.1h-0.1v-0.1h-0.1v-0.1l0.1-0.1h0.3l0.1 0.1h0.2l0.2 0.1h1.4l0.2-0.1h0.2l0.2-0.1zm-2.3 0.2h-0.1-0.3l-0.1-0.1h-0.2-0.1l0.1 0.1v0.1h0.1 0.1l0.1 0.1h0.3 0.1 0.5l0.3 0.1 0.2-0.1h0.5 0.2 0.2l0.1-0.1h0.2 0.1l0.1-0.1-0.1-0.1h-0.2l-0.2 0.1h-0.2-0.3z"/>
			<path id="Path 218" class="s5" d="m38 37h-0.1-0.1-0.1v0.1l0.1 0.1h0.1l0.1 0.1h0.2 0.1 0.1 0.1 0.1 0.1v-0.1-0.1h-0.1-0.1-0.1-0.1-0.1l-0.2-0.1z"/>
			<path id="Path 219" fill-rule="evenodd" class="s0" d="m37.7 37h0.3 0.2 0.5l0.1 0.1v0.1l-0.1 0.1h-0.7-0.1-0.1l-0.1-0.1v-0.1-0.1zm0.2 0.3h0.7l0.1-0.1h-0.6l-0.1-0.1h-0.3l0.1 0.1h0.1z"/>
			<path id="Path 220" class="s5" d="m39.6 36.9v0.1h-0.1-0.1-0.1v0.1h-0.1l-0.1 0.1h-0.1-0.1v0.1h0.1 0.1 0.1 0.1 0.1 0.1l0.1-0.1h0.1l0.1-0.1v-0.1l-0.1-0.1z"/>
			<path id="Path 221" fill-rule="evenodd" class="s0" d="m39.7 36.8v0.1l0.1 0.1v0.1 0.1h-0.1-0.1l-0.1 0.1h-0.1l-0.1 0.1h-0.3l-0.1-0.1v-0.1h0.1 0.1l0.1-0.1h0.1v-0.1h0.1l0.1-0.1h0.1v-0.1zm-0.6 0.5h0.3 0.1l0.1-0.1h0.1l0.1-0.1v-0.1l-0.1-0.1v0.1h-0.1l-0.1 0.1h-0.1v0.1h-0.1-0.1-0.1v0.1h-0.1z"/>
			<path id="Path 222" class="s5" d="m37.6 39v-0.1h-0.1v-0.2l-0.1-0.1v-0.3l-0.1-0.2-0.1-0.1v-0.1l-0.2-0.1h-0.1l-0.2 0.1v0.2l-0.1 0.1v0.1 0.3 0.2 0.2 0.2 0.3l-0.1 0.3v0.3l-0.1 0.2-0.1 0.2v0.1l-0.1 0.1v0.2l-0.1 0.2v0.2 0.2 0.4l0.4-0.1h0.3l0.4 0.1h0.3l0.3 0.1 0.3 0.1h0.4 0.4 0.3 0.4l-0.1-0.2-0.2-0.2v-0.2-0.3-0.3l0.2-0.4v-0.3l0.1-0.3v-0.4-0.4 0.1-0.1h0.1 0.1v0.1 0.4 0.4l-0.1 0.2-0.1 0.3v0.2l-0.1 0.2v0.2l-0.2 0.2v0.2l0.2 0.2v0.1l0.1-0.1h0.1l0.2 0.1h0.1 0.2 0.1 0.1 0.2v-0.1h0.1v-0.6-0.4l0.1-0.5v-0.4-0.3l-0.1-0.3-0.1-0.3-0.1-0.3-0.1-0.3-0.2-0.3h-0.4-0.3-0.4l-0.4-0.1h-0.2-0.3l-0.2-0.1h-0.1-0.1l-0.2 0.1h0.1-0.1v0.1 0.1 0.2 0.1 0.2 0.2 0.1z"/>
			<path id="Path 223" fill-rule="evenodd" class="s0" d="m38.9 42.2l-0.4-0.1h-0.4l-0.3-0.1-0.3-0.1h-0.4l-0.3-0.1h-0.3l-0.4 0.1v-0.8l0.1-0.2v-0.2l0.1-0.1v-0.1l0.1-0.2 0.1-0.2v-0.3l0.1-0.3v-1.3l0.1-0.1v-0.2l0.2-0.1h0.1l0.2 0.1v0.1l0.2 0.3v0.2l0.1 0.2v0.1-0.3l0.1-0.1v-0.5l0.2-0.1h0.2l0.2 0.1h0.3 0.2l0.4 0.1h1.1l0.2 0.3 0.1 0.2 0.2 0.3 0.1 0.3v0.4 0.7 0.5 1l-0.1 0.1h-0.1-0.7-0.2-0.1-0.1-0.1v-0.1l-0.1-0.1v0.1l0.3 0.4v-0.1 0.1 0.1-0.1l-0.4 0.1zm-0.8-0.2h0.4l0.4 0.1h0.3 0.3l-0.2-0.3v-0.1-0.5-0.3l0.1-0.4 0.1-0.3v-0.3l0.1-0.4v-0.4h0.2 0.1v0.5l-0.1 0.4v0.2l-0.1 0.3-0.1 0.2-0.1 0.2v0.2l-0.1 0.2v0.2l0.1 0.2h0.1 0.1 0.2 0.7 0.1v-1l0.1-0.5v-0.7l-0.1-0.3-0.1-0.3-0.1-0.3-0.1-0.3-0.2-0.2h-1.1l-0.4-0.1-0.2-0.1h-0.3-0.2-0.2-0.1v0.1 0.5l-0.1 0.1v0.4h-0.1v-0.1h-0.1v-0.2-0.1l-0.1-0.2-0.1-0.3-0.1-0.2h-0.1l-0.2 0.1-0.1 0.1-0.1 0.1v1.3 0.3l-0.1 0.3-0.1 0.2v0.2l-0.1 0.1v0.1 0.2l-0.1 0.2v0.7l0.3-0.1h0.3l0.4 0.1h0.3l0.3 0.1zm1.6-2.9v0.4l-0.1 0.4-0.1 0.3v0.3l-0.1 0.4-0.1 0.3v0.1l0.1-0.2v-0.2l0.1-0.2 0.1-0.2 0.1-0.3v-0.2l0.1-0.4v-0.5z"/>
			<path id="Path 224" class="s5" d="m39.8 42.1l-0.2 0.1-0.1 0.1-0.1 0.2-0.1 0.1h-0.2v0.1l0.1 0.3 0.1 0.3 0.1 0.3v0.2l-0.1 0.2v0.2 0.3 0.2 0.3 0.4h0.1l-0.3 0.1v0.3l-0.1 0.3v0.3 0.3 0.4l0.1 0.4v0.4 0.4 0.4 0.1-0.1h0.1 0.1 0.1l0.1 0.1h0.1l0.1 0.1h0.1l0.1 0.1v-0.5l0.1-0.6 0.1-0.5 0.1-0.6 0.2-0.5 0.1-0.6 0.1-0.6 0.2-0.7v-0.8l0.1-0.9-0.4-0.4-0.3-0.2h-0.2z"/>
			<path id="Path 225" fill-rule="evenodd" class="s0" d="m40 42l0.2 0.1 0.3 0.2 0.4 0.4-0.1 1.7-0.3 1.3-0.1 0.6-0.1 0.5-0.2 0.6-0.1 0.5-0.1 0.6v0.5l-0.2-0.1h-0.1l-0.1-0.1-0.2-0.1h-0.2v0.1-1.3l-0.1-0.4v-1l0.1-0.3v-0.3l0.2-0.1v-1.4-0.2-0.2-0.2l-0.2-0.6v-0.1-0.1h0.2v-0.1l0.2-0.2 0.1-0.1 0.1-0.1 0.1-0.1zm-0.7 3.3l0.1 0.1-0.2 0.1-0.1 0.3v0.3 1 0.4 1.2h0.3 0.1 0.1l0.1 0.1 0.1 0.1h0.1v-0.4-0.6l0.1-0.5 0.2-0.6 0.1-0.5 0.1-0.6 0.3-1.3 0.1-1.6-0.4-0.4-0.2-0.2-0.2-0.1h-0.2l-0.2 0.1-0.1 0.1-0.1 0.2-0.1 0.1-0.1 0.1h-0.1l0.2 0.6 0.1 0.2v0.3l-0.1 0.2z"/>
			<path id="Path 226" fill-rule="evenodd" class="s5" d="m37.3 49.5h-0.2-0.2-0.2l-0.1 0.1h-0.1v0.1h-0.1l0.1 0.1v0.1l0.1 0.1h0.1v0.1 0.1h-0.1l-0.2 0.2-0.1 0.2h-0.2-0.1-0.1-0.1l-0.1 0.1v0.1 0.2 0.1 0.1 0.1 0.1h0.1 0.2 0.1 0.2l0.2-0.2 0.1-0.1 0.1-0.2 0.2-0.1 0.2-0.2h0.2l0.2-0.1 0.1-0.1v-0.1l-0.1-0.1h-0.1v-0.1-0.1-0.1h0.1 0.1l0.1-0.1-0.1-0.1-0.2-0.2zm0.4 0.3v-0.1z"/>
			<path id="Path 227" fill-rule="evenodd" class="s0" d="m37.4 49.5l0.2 0.1 0.1 0.1h0.1v0.1h-0.1l-0.1 0.1v0.1h-0.2v0.1h0.1v0.1h0.1v0.1 0.1l-0.1 0.2h-0.2l-0.2 0.1-0.2 0.1-0.1 0.1-0.2 0.2-0.1 0.1-0.1 0.2h-0.1l-0.2 0.1h-0.3v-0.1h-0.1v-0.1h-0.1v-0.1-0.4h0.1v-0.1-0.1h0.1v-0.1h0.1 0.1v0.1h0.1l0.2-0.1 0.1-0.1 0.2-0.2 0.1-0.1v-0.1h-0.1l-0.1-0.1-0.1-0.1v-0.1h-0.1l0.1-0.1h0.1v-0.1h0.1 0.1zm-1.4 1.2v-0.1h-0.1v0.1h-0.1v0.1h-0.1v0.4l0.1 0.1h0.1v0.1h0.3l0.2-0.1 0.1-0.1 0.1-0.1 0.2-0.3 0.1-0.1 0.2-0.1 0.2-0.1h0.2l0.1-0.1v-0.1h-0.1v-0.1h-0.1v-0.1-0.1-0.1h0.2l0.1-0.1-0.1-0.1-0.2-0.2h-0.6l-0.2 0.1v0.1h-0.1l0.1 0.1v0.1l0.1 0.1h0.1v0.2h-0.1-0.1l-0.2 0.2-0.1 0.2-0.1 0.1z"/>
			<path id="Path 228" class="s5" d="m39.1 49h-0.1v0.1 0.1h-0.1v0.1h0.1l0.1 0.2 0.1 0.2 0.2 0.3 0.1 0.2 0.1 0.2 0.1 0.2 0.2 0.2 0.1 0.2h0.2 0.2v0.1l0.1-0.1h0.1v-0.1-0.2-0.1-0.1-0.1-0.2-0.1-0.1-0.1l-0.1-0.1-0.1-0.1v-0.1l-0.1-0.1v-0.1l-0.1-0.2h-0.1l-0.1 0.2 0.1 0.2 0.1 0.1 0.1 0.2v0.1 0.2l0.1 0.1v0.1h-0.1-0.1-0.1-0.1l-0.1-0.2-0.1-0.2-0.2-0.2-0.1-0.2-0.1-0.2-0.2-0.3h-0.1v-0.1z"/>
			<path id="Path 229" fill-rule="evenodd" class="s0" d="m39.1 49h0.1v0.1l0.3 0.5 0.1 0.2 0.2 0.2 0.1 0.1v0.1l0.1 0.1 0.1 0.1h0.2v-0.1-0.1-0.2l-0.1-0.1-0.1-0.2v-0.1l-0.1-0.2v-0.1l0.1-0.1v-0.1l0.1 0.1 0.1 0.1v0.1h0.1v0.1 0.1l0.1 0.1 0.1 0.1v0.1 0.3l0.1 0.2v0.5l-0.1 0.1-0.1 0.1h-0.1-0.1-0.1l-0.2-0.1-0.2-0.1-0.3-0.5v-0.2l-0.3-0.5-0.1-0.2-0.1-0.2h-0.1v-0.1-0.1h0.1v-0.1zm-0.1 0.3h0.1v0.2l0.1 0.2 0.3 0.5 0.1 0.2 0.3 0.4 0.1 0.1 0.2 0.1h0.2 0.1l0.1-0.1v-0.5l-0.1-0.2v-0.3-0.1l-0.1-0.1-0.1-0.1v-0.1-0.1h-0.1l-0.1-0.2v0.2 0.1l0.1 0.2 0.1 0.2 0.1 0.1v0.2 0.1 0.1 0.1h-0.3l-0.1-0.1-0.1-0.2h-0.1l-0.1-0.2-0.1-0.2-0.1-0.2-0.3-0.5h-0.1v-0.1 0.2h-0.1z"/>
			<path id="Path 230" class="s5" d="m39.3 48.8h-0.1v0.2 0.1l0.1 0.1 0.1 0.1 0.1 0.1h0.1v0.1h0.1v0.1h0.1l0.1-0.1v-0.1-0.1-0.2-0.1h-0.1l-0.1-0.1h-0.1-0.1l-0.1-0.1z"/>
			<path id="Path 231" fill-rule="evenodd" class="s0" d="m39.4 48.7l0.1 0.1h0.1l0.1 0.1h0.1l0.1 0.1v0.1 0.2 0.1 0.1l-0.1 0.1h-0.1v-0.1h-0.1l-0.1-0.1h-0.1l-0.1-0.1v-0.1l-0.1-0.1v-0.3-0.1zm0.2 0.7l0.1 0.1h0.1 0.1v-0.1-0.1-0.2-0.1h-0.1l-0.1-0.1h-0.1-0.1l-0.1-0.1h-0.1v0.3h0.1v0.2h0.1z"/>
			<path id="Path 232" class="s5" d="m39.8 49.7l-0.1 0.1 0.1 0.1v0.1l0.1 0.1 0.1 0.1v0.1h0.1 0.1v0.1-0.1-0.1l-0.1-0.1v-0.1h-0.1v-0.1-0.1h-0.1v-0.1z"/>
			<path id="Path 233" fill-rule="evenodd" class="s0" d="m39.9 49.7h0.1v0.1l0.1 0.1v0.1 0.1h0.1v0.1 0.2h-0.1l-0.1-0.1v-0.1h-0.1v-0.1l-0.1-0.1h-0.1v-0.1-0.1-0.1h0.1zm0.1 0.6h0.1v-0.1l-0.1-0.1v-0.1h-0.1v-0.1-0.1h-0.1-0.1v0.1 0.1h0.1 0.1v0.1l0.1 0.1v0.1z"/>
			<path id="Path 234" class="s5" d="m35.5 35.5l-0.1-0.2-0.2-0.1-0.2-0.1h-0.1l-0.3-0.1-0.1-0.1h-0.2l-0.1-0.1-0.1-0.2v-0.1l0.1-0.1v-0.1-0.1-0.1-0.2l-0.1-0.1v-0.2-0.2-0.1-0.1h-0.2-0.1v0.1 0.1 0.2 0.2 0.1 0.3l-0.1 0.1-0.1 0.1h-0.1v0.1l-0.1 0.1v0.1 0.1l0.1 0.1 0.2 0.1 0.1 0.3 0.3 0.2 0.1 0.2 0.2 0.2 0.1 0.3 0.2 0.2 0.3 0.2 0.2 0.1 0.3 0.1 0.1-0.1 0.2-0.1v-0.1l0.1-0.1v-0.2-0.2-0.2-0.2-0.2-0.2l-0.1-0.1h-0.2l-0.1-0.1v0.1 0.1 0.1 0.1z"/>
			<path id="Path 235" fill-rule="evenodd" class="s0" d="m35.5 36.9l-0.3-0.1-0.2-0.2-0.3-0.2-0.2-0.2-0.1-0.3-0.2-0.2-0.1-0.2-0.3-0.2-0.1-0.3-0.2-0.1-0.1-0.1v-0.2l0.1-0.1v-0.1h0.1l0.1-0.2v-0.1-0.7l0.1-0.1v-0.1h0.1 0.2v0.4l0.1 0.1v0.2 0.5 0.1 0.1l0.1 0.1 0.1 0.1 0.2 0.1 0.1 0.1h0.2 0.1l0.2 0.1 0.2 0.1v0.1l0.1 0.1v-0.4h0.1l0.3 0.1 0.1 0.1v1l-0.1 0.2v0.1l-0.1 0.1v0.1l-0.2 0.1-0.1 0.1zm-0.2-0.2l0.2 0.1 0.1-0.1 0.2-0.1v-0.1l0.1-0.1v-0.2-1l-0.3-0.1v0.3l-0.1 0.1-0.1-0.2-0.2-0.1-0.2-0.1h-0.1l-0.2-0.1-0.1-0.1h-0.2l-0.1-0.1-0.2-0.2v-0.1-0.1h0.1v-0.5l-0.1-0.1v-0.2-0.4h-0.1l-0.1 0.1v0.1 0.1 0.7l-0.1 0.1-0.2 0.1v0.1l-0.1 0.1v0.1l0.1 0.1 0.2 0.2 0.1 0.2 0.2 0.2h0.1l0.1 0.3 0.2 0.2 0.1 0.3 0.2 0.1 0.3 0.2z"/>
			<path id="Path 236" class="s5" d="m33.5 33.8c0-0.2-0.7-0.2-0.6 0-0.1 0.3 0.6 0.3 0.6 0z"/>
			<path id="Path 237" fill-rule="evenodd" class="s0" d="m33.2 34q-0.2 0-0.3 0-0.1-0.1-0.1-0.2 0-0.1 0.1-0.1c0.1-0.1 0.4-0.1 0.5-0.1q0.2 0.1 0.2 0.2h-0.1q0 0.1-0.1 0.2-0.1 0-0.2 0zm0-0.4q-0.2 0.1-0.3 0.1 0 0 0 0.1 0 0.1 0 0.1c0.1 0.1 0.4 0.1 0.5 0q0 0 0-0.1h0.1q0-0.1-0.1-0.1-0.1-0.1-0.2-0.1z"/>
			<path id="Path 238" class="s5" d="m33 34.1h-0.1-0.1v0.1 0.1h0.1 0.1v0.1h0.1 0.1 0.1l0.1-0.1h-0.1v-0.1h-0.1-0.1v-0.1z"/>
			<path id="Path 239" fill-rule="evenodd" class="s0" d="m33.1 34.1v0.1h0.2 0.1v0.1 0.1h-0.1-0.3-0.1v-0.1h-0.1v-0.2zm-0.2 0.1v0.1h0.1v0.1h0.3l0.1-0.1h-0.1v-0.1h-0.1-0.1v-0.1h-0.2z"/>
			<path id="Path 240" class="s5" d="m33.4 33.2h-0.1-0.1-0.1v0.1 0.1h0.1 0.1v0.1l0.1 0.1h0.1l0.1-0.1h0.1v-0.1-0.1h-0.1v-0.1h-0.1z"/>
			<path id="Path 241" fill-rule="evenodd" class="s0" d="m33.5 33.2h0.1 0.1v0.1 0.2 0.1h-0.1-0.1-0.1-0.1l-0.1-0.1h-0.1v-0.1-0.2h0.1zm-0.3 0.2h0.1v0.1l0.1 0.1h0.1l0.1-0.1v-0.1-0.1h-0.1l-0.1-0.1h-0.2l-0.1 0.1v0.1z"/>
			<path id="Path 242" class="s5" d="m33.3 34.5h-0.1-0.1-0.1v0.1l-0.1 0.1h0.1v0.1h0.1 0.1v-0.1h0.1v-0.1h0.1l-0.1-0.1z"/>
			<path id="Path 243" fill-rule="evenodd" class="s0" d="m33.3 34.4l0.1 0.1v0.1 0.1h-0.1v0.1h-0.1-0.2-0.1v-0.1-0.1-0.1h0.1 0.1v-0.1zm-0.4 0.3h0.1 0.2l0.1-0.1v-0.1h-0.2-0.1v0.1z"/>
			<path id="Path 244" class="s5" d="m40.4 43.4h0.3l1.5-7-0.2-0.1z"/>
			<path id="Path 245" fill-rule="evenodd" class="s0" d="m42 36.3h0.2v0.1l-1.4 7.1h-0.1l-0.3-0.1 1.5-7.1zm-1.2 7.1l1.4-7h-0.2l-1.5 7z"/>
			<path id="Path 246" class="s5" d="m40.3 43.2v0.2 0.2 0.1 0.1l0.1 0.2v0.1-0.1h0.1v-0.2h0.1v-0.2l0.1-0.1 0.1-0.1h-0.1l-0.1-0.2h-0.1-0.1-0.1z"/>
			<path id="Path 247" fill-rule="evenodd" class="s0" d="m40.3 43.2h0.1 0.2 0.1v0.1h0.1v0.1 0.1l-0.1 0.1-0.1 0.2h-0.1v0.2l-0.1 0.1h-0.1v-0.1-0.2-0.2l-0.1-0.2v-0.2h0.1zm0.1 0.8v-0.1-0.1l0.1-0.1v-0.1l0.1-0.2h0.1l-0.1-0.1h-0.3v-0.1 0.2 0.2 0.2z"/>
			<path id="Path 248" class="s5" d="m42.1 36.6l-0.2 1 0.5-0.1 0.2-1z"/>
			<path id="Path 249" fill-rule="evenodd" class="s0" d="m42.6 36.5l-0.2 1v0.1h-0.5l0.2-1zm-0.6 1h0.4l0.2-0.9-0.4 0.1z"/>
			<path id="Path 250" class="s5" d="m41.3 37.2l0.4 0.3 0.2-0.9-0.4-0.4z"/>
			<path id="Path 251" fill-rule="evenodd" class="s0" d="m41.5 36.2l0.4 0.4-0.2 0.9-0.1 0.1-0.3-0.3v-0.1l0.2-1zm0.1 1.3l0.2-0.9-0.3-0.3-0.2 0.9z"/>
			<path id="Path 252" class="s5" d="m41.3 36.2h-0.1l-0.1 0.1-0.2 0.1h-0.1v0.1 0.2 0.3l0.1 0.2v0.1l0.1 0.3 0.1 0.2 0.1 0.3v0.4 0.4l-0.1 0.3-0.1 0.1v0.1h-0.1v0.1 0.1 0.1 0.1h-0.1v0.1 0.1h0.1v-0.1l0.1-0.1h0.1 0.1v0.1h-0.1l-0.1 0.1h-0.1v0.1h0.1v0.1 0.1h0.1 0.1 0.1v-0.1h0.1 0.1 0.1l0.1-0.1 0.1-0.1h0.1v-0.1l0.1-0.1v-0.1-0.1-0.1-0.1l-0.1-0.2v-0.2-0.2l-0.1-0.3v-0.4-0.2-0.3l0.1-0.3-0.1-0.2v-0.2-0.2l-0.1-0.1v-0.2l-0.1-0.1-0.2-0.1z"/>
			<path id="Path 253" fill-rule="evenodd" class="s0" d="m41.4 36.2h0.1l0.1 0.1 0.1 0.1v0.2l0.1 0.1v0.4l0.1 0.2-0.1 0.3v0.8l0.1 0.4v0.2 0.2l0.1 0.2v0.4l-0.1 0.1v0.1h-0.1l-0.1 0.1v0.1h-0.1v0.1h-0.2-0.1-0.3v-0.1h-0.1v-0.1-0.1h0.1v-0.1l0.1-0.1h0.1-0.1l-0.1 0.1-0.1 0.1h-0.1v-0.2-0.1h0.1v-0.3l0.1-0.1 0.1-0.1 0.1-0.4v-0.7l-0.1-0.2-0.1-0.2-0.2-0.5v-0.2-0.6h0.1v-0.1h0.2l0.1-0.1zm-0.6 3.7v-0.1h0.1 0.1v-0.1h0.1l0.1 0.1v0.1h-0.1l-0.1 0.1v0.1h-0.1 0.1v0.1h0.2 0.1 0.2l0.1-0.1v-0.1h0.1l0.1-0.1v-0.1h0.1v-0.4l-0.1-0.2v-0.2-0.2l-0.1-0.3v-0.9l0.1-0.3-0.1-0.2v-0.4l-0.1-0.1v-0.2h-0.1l-0.1-0.1h-0.3l-0.1 0.1h-0.1v0.1h-0.1v0.5l0.1 0.2 0.1 0.4 0.1 0.2 0.1 0.3v0.8l-0.1 0.3-0.1 0.1v0.1h-0.1v0.3 0.1l-0.1 0.1zm-6.2-11l1.2 20.3-0.1 0.1-1.2-20.4z"/>
			<path id="Path 254" class="s4" d="m48.3 49.8l-0.1 0.2-0.1 0.1v0.1 0.1l0.6 0.2v-0.1l0.2-0.3v-0.1l-0.1-0.2h-0.1l-0.3-0.1z"/>
			<path id="Path 255" fill-rule="evenodd" class="s5" d="m37.2 41.9l0.1 0.1 0.1 0.1 0.2 0.2v0.1l0.1 0.2 0.1 0.3 0.1 0.2v0.8 0.2l-0.1 0.3v0.3 0.3l-0.1 0.3v0.5l-0.1-0.1 0.2 0.4v0.4 0.3 0.4l-0.1 0.4-0.1 0.4v1.1l0.1 0.3h-1v-0.4-0.5-0.5l-0.1-0.5-0.1-0.5v-0.5l-0.1-0.4 0.1-0.3v-0.3h0.2v-0.1l-0.1-0.2-0.1-0.2v-0.3l-0.1-0.3v-0.4l-0.1-0.4v-0.7-0.4l-0.1-0.4 0.4-0.1 0.3-0.1zm0.5 7.5c0 0 0 0 0 0z"/>
			<path id="Path 256" fill-rule="evenodd" class="s0" d="m37.2 41.9l0.1 0.1 0.1 0.1 0.2 0.2 0.1 0.3 0.1 0.3 0.1 0.2h0.1v0.8l-0.1 0.2-0.1 0.6v0.3l-0.1 0.3v0.5l0.1 0.3 0.1 0.4v0.3l-0.1 0.4-0.1 0.4-0.1 0.4v1.1l0.1 0.3h-0.1-0.8-0.1v-0.4-0.5-0.4l-0.1-0.6-0.1-1-0.1-0.4 0.1-0.3v-0.3l0.2-0.1-0.1-0.2-0.1-0.2v-0.3l-0.1-0.3v-0.4l-0.1-0.4v-0.7l-0.1-0.4v-0.4l0.4-0.1 0.3-0.1zm-0.4 7.4h0.9l-0.1-0.2v-1.1l0.1-0.4 0.1-0.4v-0.4-0.3-0.4l-0.2-0.4h0.1v-0.4l0.1-0.3v-0.3l0.1-0.6v-0.3-0.6l-0.1-0.3-0.1-0.3-0.1-0.3-0.2-0.1-0.1-0.1-0.1-0.1h-0.3l-0.3 0.1h-0.3l0.1 0.4v0.4 0.7l0.1 0.4v0.4l0.1 0.3v0.3l0.1 0.2 0.1 0.1v0.1 0.1h-0.1-0.1v0.3l-0.1 0.3 0.1 0.4 0.1 1 0.1 0.5v0.5 0.5z"/>
			<path id="Path 257" fill-rule="evenodd" class="s5" d="m24.7 31.1l-0.5 0.1v0.3q0.1 0.1 0.1 0.2 0.1 0 0.2 0v0.1h-0.5q0.1 0 0.1-0.1 0 0 0.1 0 0-0.1 0-0.2l-0.1-0.3-0.4 0.1q-0.1 0-0.2 0 0 0 0 0.1 0 0 0 0l0.1 0.3q0 0.1 0 0.1 0 0.1 0.1 0.1 0 0.1 0.2 0.1v0.1l-0.4-0.1-0.1-1.1v0.1q0 0 0.1 0.1 0 0 0 0 0 0 0.1 0l1-0.1q0.1 0 0.1-0.1 0 0 0-0.1v-0.1h0.1l0.1 1.1-0.3 0.1v-0.1q0.1 0 0.2 0 0-0.1 0-0.1 0-0.1 0-0.2zm0.2 1v0.4l-1.1 0.8h0.8q0.1 0.1 0.2 0 0 0 0-0.1v0.5-0.1q0-0.1-0.1-0.1 0-0.1-0.1-0.1h-1.2v-0.1l1.2-0.8-0.9-0.1q-0.1 0-0.1 0.1-0.1 0-0.1 0.1v-0.5 0.1q0 0.1 0.1 0.1 0 0 0.1 0l1 0.1q0.1-0.1 0.1-0.1 0 0 0.1-0.1 0 0 0-0.1zm-0.2 2.6h-0.5v-0.1q0.1 0 0.2 0 0.1-0.1 0.2-0.1 0-0.1 0-0.2 0-0.1 0-0.2-0.1-0.1-0.1-0.1-0.1 0-0.2 0-0.1 0.1-0.2 0.3-0.1 0.2-0.2 0.3-0.1 0-0.2 0.1 0 0-0.1 0-0.2-0.1-0.3-0.2-0.1-0.1-0.1-0.3 0.1-0.1 0.1-0.1 0-0.1 0-0.2 0.1-0.1 0.1-0.1 0 0 0 0 0 0-0.1-0.1l0.5 0.1q-0.2 0-0.2 0.1-0.1 0-0.2 0.1-0.1 0.1-0.1 0.2 0 0.1 0.1 0.2 0 0.1 0.1 0.1 0.1 0 0.1 0 0.1-0.1 0.1-0.1 0.1 0 0.2-0.2 0.1-0.2 0.2-0.2 0.1-0.1 0.1-0.1 0.1-0.1 0.2-0.1 0.2 0.1 0.2 0.2 0.1 0.1 0.1 0.3 0 0.1-0.1 0.2 0 0.1 0 0.1 0 0 0 0.1 0 0 0.1 0zm-0.3 0.6l-0.5-0.1-0.1 0.3q0 0.2 0 0.2 0.1 0.1 0.2 0.1h-0.5v-0.1q0.1 0 0.2 0 0 0 0 0 0-0.1 0.1-0.2v-0.3h-0.4q-0.1-0.1-0.2-0.1 0 0.1 0 0.1 0 0 0 0l-0.1 0.3q0 0.1 0 0.2 0 0 0.1 0.1 0 0 0.1 0.1v0.1l-0.3-0.2 0.2-1.1v0.1q0 0 0 0.1 0 0 0.1 0 0 0 0.1 0.1l0.9 0.1q0.1 0 0.2 0 0 0 0-0.1h0.1l-0.2 1h-0.3v-0.1q0.1 0 0.2 0 0 0 0 0 0.1-0.1 0.1-0.2zm-1.1 2.2h-0.4q-0.1-0.1-0.1 0-0.1 0-0.1 0.1h-0.1l0.1-0.6h0.1v0.1q-0.1 0.1 0 0.1 0 0 0.1 0.1l1 0.1q0.1 0 0.1 0 0.1-0.1 0.1-0.1v-0.1 0.5q-0.1 0.2-0.1 0.3-0.1 0.1-0.2 0.2-0.1 0-0.2 0-0.2 0-0.3-0.1-0.1-0.2 0-0.4 0 0 0-0.1 0 0 0-0.1zm0.1 0q0 0.1 0 0.1-0.1 0.1-0.1 0.1 0 0.1 0.1 0.2 0.1 0.1 0.2 0.1 0.1 0 0.2 0 0.1-0.1 0.1-0.1 0.1-0.1 0.1-0.2 0 0 0-0.1zm0.4 1.2h-0.5l-0.1 0.3q0 0.1 0.1 0.2 0 0 0.1 0v0.1l-0.5-0.1q0.1 0 0.2 0 0 0 0-0.1 0.1 0 0.1-0.1v-0.3l-0.5-0.1q-0.1 0-0.1 0 0 0.1 0 0.1 0 0 0 0l-0.1 0.3q0 0.1 0 0.2 0.1 0 0.1 0.1 0.1 0 0.2 0.1v0.1l-0.4-0.2 0.1-1.1h0.1v0.1q0 0 0 0.1 0 0 0 0 0.1 0 0.2 0.1h0.9q0.1 0 0.1 0 0.1 0 0.1-0.1l-0.1 1h-0.3q0.1 0 0.2-0.1 0 0 0.1 0 0-0.1 0-0.2zm0 2.1h-0.3v-0.1q0 0 0.1 0 0 0 0.1-0.1 0 0 0-0.1v-0.2h-1.1q-0.1 0-0.1 0-0.1 0.1-0.1 0.1v0.1-0.6q0 0.1 0.1 0.2 0 0 0.1 0h1.1v-0.2q0-0.1 0-0.1 0-0.1-0.1-0.1 0 0-0.1-0.1h0.3zm-1.3 0.8l-0.1-0.6v0.1q0.1 0.1 0.1 0.1 0 0 0.2 0l0.9-0.1q0.1 0 0.1 0 0 0 0.1-0.1 0 0 0-0.1l0.1 0.6h-0.1v-0.1q0 0 0-0.1-0.1 0-0.2 0l-0.9 0.1q-0.1 0-0.1 0-0.1 0-0.1 0.1 0 0 0 0.1zm1.6 1l-0.3 0.1q0.1-0.1 0.1-0.1 0.1 0 0.1-0.1 0-0.1 0-0.1l-0.1-0.2-1 0.2q-0.1 0.1-0.2 0.1 0 0 0 0.1v0.1l-0.2-0.6h0.1q0 0.1 0.1 0.2 0 0 0.1-0.1l1.1-0.2-0.1-0.2q0-0.1 0-0.1 0-0.1-0.1-0.1-0.1 0-0.2 0l0.4-0.1zm27.5-2q0-0.3 0.3-0.4 0.2-0.2 0.5-0.1 0.3 0 0.5 0.3 0.2 0.2 0.1 0.5 0 0.3-0.2 0.4-0.3 0.2-0.6 0.1-0.3 0-0.5-0.3-0.2-0.2-0.1-0.5zm0.1 0q-0.1 0.2 0 0.4 0.2 0.1 0.5 0.2 0.4 0 0.6-0.1 0.1-0.1 0.2-0.2 0-0.2-0.1-0.4-0.2-0.1-0.5-0.2-0.4 0-0.6 0.1-0.1 0.1-0.1 0.2zm0-2.2q0 0.1 0.1 0.2 0 0 0.1 0.1l1.3 0.4v0.1l-1.3 0.5q-0.1 0-0.1 0.1 0 0 0 0 0 0.1 0 0.1h-0.1v-0.5q0.1 0.1 0.1 0.1 0 0 0 0 0.1 0 0.2 0l0.8-0.4-0.8-0.3q-0.1-0.1-0.2-0.1 0 0 0 0.1 0 0-0.1 0.1 0 0 0 0zm1.3-0.8l0.1 0.6h-0.1q0-0.1 0-0.1-0.1 0-0.2 0h-0.9q-0.1 0-0.1 0.1-0.1 0-0.1 0 0 0.1 0 0.1v0.1l-0.1-0.6h0.1q0 0.1 0 0.1 0.1 0.1 0.2 0h0.9q0.1 0 0.1-0.1 0.1 0 0.1 0 0-0.1 0-0.1zm-1.3-0.4h0.5v-0.3q0-0.1-0.1-0.2 0 0-0.1 0l-0.1-0.1h0.5q-0.1 0.1-0.1 0.1 0 0 0 0-0.1 0.1 0 0.2v0.3l0.5-0.1q0 0 0.1 0 0 0 0 0 0-0.1 0-0.1v-0.2q0-0.2-0.1-0.2 0-0.1 0-0.1-0.1-0.1-0.3-0.1v-0.1l0.4 0.1 0.1 1.1v-0.1q0 0 0 0-0.1-0.1-0.1-0.1 0 0-0.1 0l-0.9 0.1q-0.2 0-0.2 0.1 0 0 0 0.1l-0.1 0.1-0.1-1.1 0.3-0.1v0.1q-0.1 0-0.1 0-0.1 0.1-0.1 0.1 0 0.1 0 0.2zm-0.3-2l0.3-0.1q-0.1 0.1-0.1 0.1-0.1 0-0.1 0.1 0 0 0 0.1v0.2l1.1-0.1q0.1-0.1 0.1-0.1 0.1 0 0.1-0.1v-0.1l0.1 0.6h-0.1q0-0.1 0-0.2-0.1 0-0.2 0l-1.1 0.2 0.1 0.2q0 0.1 0 0.1 0 0.1 0.1 0.1 0.1 0 0.2 0v0.1h-0.4zm0-0.5l0.6-0.1-0.1-0.3q0-0.1 0-0.2-0.1 0-0.2 0l0.5-0.1q-0.1 0.1-0.2 0.1 0 0 0 0.1 0 0 0 0.1v0.3l0.5-0.1q0.1 0 0.1 0 0 0 0 0 0.1-0.1 0-0.1v-0.3q0-0.1 0-0.1-0.1-0.1-0.1-0.1-0.1-0.1-0.2-0.1v-0.1l0.3 0.1 0.2 1.1v-0.1q0 0-0.1-0.1 0 0 0 0-0.1 0-0.2 0l-0.9 0.2q-0.1 0-0.1 0-0.1 0.1-0.1 0.1l0.1 0.1h-0.1l-0.2-1.1h0.3q-0.1 0.1-0.1 0.1 0 0-0.1 0.1 0 0 0.1 0.1zm1-1.9l-1.1 0.8 0.9-0.2q0.2 0 0.2 0 0-0.1 0-0.2l0.1 0.5v-0.1q0-0.1-0.1-0.1 0 0-0.2 0l-0.9 0.2q-0.1 0-0.1 0 0 0 0 0.1 0 0 0 0.1h-0.1v-0.4l1-0.7-1.2-0.3-0.1-0.4h0.1v0.1q0 0.1 0 0.1 0.1 0 0.2 0l0.9-0.2q0.1 0 0.2 0 0-0.1 0-0.2l0.1 0.6v-0.1q0-0.1-0.1-0.1 0 0-0.2 0l-0.9 0.2 1.3 0.3zm-26.9 15.9l-0.4 0.1q-0.1 0.1-0.2 0.1 0 0.1 0 0.1l0.1 0.1h-0.1l-0.2-0.6h0.1v0.1q0 0.1 0.1 0.1 0 0 0.1-0.1l0.9-0.3q0.1 0 0.1 0 0.1-0.1 0-0.2h0.1l0.1 0.5q0.1 0.1 0.1 0.3 0 0.1-0.1 0.2 0 0.1-0.2 0.1-0.1 0.1-0.3 0-0.1-0.1-0.2-0.3 0 0 0-0.1 0 0 0-0.1zm0 0q0 0 0.1 0.1 0 0 0 0 0 0.1 0.1 0.2 0.1 0 0.2 0 0.1 0 0.2-0.1 0.1-0.1 0.1-0.1 0-0.1 0-0.2-0.1 0-0.1-0.1zm0.5 1.9v0.1h-0.4l-0.5-0.9 0.1-0.1v0.1q0 0.1 0.1 0.1 0 0 0.1-0.1l0.9-0.4q0.1 0 0.1-0.1 0 0 0-0.1l0.3 0.5h-0.1q0-0.1-0.1-0.1 0 0 0 0-0.1 0-0.2 0l-0.8 0.4q-0.1 0-0.1 0.1 0 0 0 0 0 0.1 0.1 0.2v0.1q0.1 0.1 0.1 0.2 0.1 0 0.2 0 0 0.1 0.2 0zm0.6 1l-0.3-0.5h-0.2q-0.1 0-0.1 0.1-0.1 0-0.1 0 0 0.1 0.1 0.1l-0.1 0.1-0.2-0.4q0.1 0 0.1 0.1 0.1 0 0.3-0.1l1.2-0.1-0.7 1q-0.1 0.1-0.1 0.2 0 0.1 0 0.1v0.1l-0.3-0.5q0.1 0 0.1 0 0.1 0.1 0.1 0 0 0 0.1-0.1zm0 0l0.4-0.5-0.6 0.1zm1.8 0.9l-0.3 0.4v-0.1q0.1-0.1 0.1-0.3 0-0.1-0.1-0.3-0.1-0.1-0.2-0.1-0.2-0.1-0.3 0-0.2 0-0.4 0.2-0.1 0.1-0.2 0.2-0.1 0.1 0 0.3 0 0.1 0.1 0.3 0.1 0.1 0.2 0.1 0.1 0.1 0.3 0v0.1q-0.2 0-0.4 0-0.1-0.1-0.3-0.3-0.2-0.2-0.1-0.5 0.1-0.3 0.3-0.4 0.1-0.2 0.3-0.2 0.2 0 0.4 0 0.2 0.1 0.3 0.3 0.1 0.1 0.2 0.2 0 0.1 0 0.1 0 0 0 0 0.1 0 0.1 0zm-0.5 1.5l-0.4-0.4q0.1 0.1 0.1 0.1 0.1 0 0.2-0.1l0.6-0.6q0.1-0.1 0.1-0.1 0.1-0.1 0-0.1 0-0.1 0-0.1v-0.1l0.4 0.5h-0.1q0-0.1-0.1-0.1 0 0-0.1 0.1l-0.7 0.6q-0.1 0.1-0.1 0.1 0 0.1 0 0.1 0 0 0.1 0.1z"/>
			<path id="Path 258" fill-rule="evenodd" class="s5" d="m28.3 54.4h0.1q0.1 0.1 0.1 0.1 0.1 0 0.2-0.1l0.6-0.7q0.1-0.1 0.1-0.1 0-0.1-0.1-0.2l0.4 0.4q0.2 0.2 0.3 0.3 0.1 0.2 0.1 0.4-0.1 0.2-0.2 0.3-0.2 0.3-0.5 0.3-0.3 0-0.6-0.3zm0.4 0.2q0.1 0.1 0.1 0.2 0.2 0.2 0.4 0.1 0.3 0 0.5-0.2 0.2-0.2 0.1-0.4 0-0.3-0.1-0.4-0.1-0.1-0.2-0.1z"/>
			<path id="Path 259" fill-rule="evenodd" class="s5" d="m30.6 55.7l-0.4-0.3-0.2 0.1q-0.1 0-0.1 0.1-0.1 0 0 0 0 0.1 0 0.1v0.1l-0.3-0.3q0.1 0 0.1 0 0.1 0 0.2-0.1l1.1-0.6-0.3 1.2q0 0.2 0 0.2 0 0.1 0.1 0.1v0.1l-0.5-0.4q0.1 0.1 0.2 0.1 0 0 0-0.1 0 0 0.1-0.1zm0-0.1l0.1-0.6-0.5 0.3zm1 1.3l0.1-1.3-0.4 0.8q-0.1 0.1-0.1 0.2 0 0 0.1 0.1l-0.4-0.2h0.1q0 0 0.1 0 0 0 0.1-0.1l0.4-0.8q0.1-0.1 0.1-0.2 0 0-0.1 0 0-0.1-0.1-0.1h0.1l0.3 0.2-0.1 1.2 1-0.8 0.4 0.2h-0.1q-0.1 0-0.1 0-0.1 0-0.1 0.1l-0.5 0.8q0 0.2 0 0.2 0 0.1 0.1 0.1l-0.5-0.2v-0.1 0.1q0.1 0 0.2 0 0 0 0.1-0.2l0.4-0.8-1 0.8zm10.8-1.2l0.2 0.5q-0.1-0.1-0.2-0.2-0.1 0-0.2 0-0.1 0-0.1 0-0.1 0.1-0.2 0.1 0 0.1 0 0.2 0.1 0.1 0.1 0.1 0.1 0 0.4 0 0.2 0 0.3 0.1 0.1 0 0.2 0 0 0.1 0.1 0.2 0 0.1 0 0.3-0.1 0.1-0.2 0.2-0.1 0-0.2 0 0 0.1-0.1 0.1-0.1 0-0.1 0 0 0 0 0-0.1 0.1 0 0.1h-0.1l-0.2-0.4q0.1 0.1 0.2 0.1 0.1 0.1 0.2 0.1 0.1 0 0.2-0.1 0.1 0 0.2-0.1 0-0.1-0.1-0.2 0 0 0-0.1-0.1 0-0.2 0 0 0-0.2 0-0.2 0-0.3-0.1-0.1 0-0.2 0 0-0.1-0.1-0.2-0.1-0.1 0-0.2 0.1-0.2 0.2-0.3 0.1 0 0.2 0 0.1 0 0.1 0 0.1-0.1 0.1-0.1 0 0 0 0zm1.4-0.9q-0.1 0.1-0.1 0.1 0 0.1 0 0.2l0.3 1.3-1.2-0.7q0-0.1-0.1-0.1 0 0 0 0-0.1 0-0.1 0h-0.1l0.5-0.3q0 0.1-0.1 0.1 0 0.1 0.1 0.1 0 0 0.1 0.1l0.8 0.5-0.2-0.9q-0.1-0.1-0.1-0.1 0-0.1 0-0.1-0.1 0-0.1 0.1-0.1 0-0.1 0v-0.1z"/>
			<path id="Path 260" fill-rule="evenodd" class="s5" d="m45.1 54.7q0.1-0.1 0.2-0.1 0.2 0.1 0.3 0.2 0 0 0 0.1 0.1 0.2 0 0.3-0.1 0.1-0.2 0.2l-0.5 0.5-0.1-0.1h0.1q0-0.1 0-0.1 0-0.1-0.1-0.2l-0.6-0.6q0-0.1-0.1-0.1 0 0-0.1 0h-0.1l0.5-0.4q0.1-0.1 0.2-0.1 0.2-0.1 0.3-0.1 0.1 0 0.2 0.1 0.1 0.1 0.1 0.2 0 0.1-0.1 0.2zm-0.5 0.3q0.1 0 0.1 0 0.1-0.1 0.1-0.1 0.1-0.1 0.2-0.2 0 0 0-0.1 0-0.1-0.1-0.2-0.1 0-0.2 0-0.1 0-0.3 0.1-0.1 0-0.1 0.1zm0.4 0.5q0.1 0 0.2-0.1 0.2-0.1 0.2-0.3 0-0.1-0.1-0.2 0 0-0.1-0.1-0.1 0-0.2 0-0.1 0.1-0.2 0.2-0.1 0-0.1 0 0 0.1 0 0.1zm1.8-2.2l0.2 0.3-0.7 0.8h-0.1 0.1q0-0.1 0-0.2 0 0-0.1-0.1l-0.7-0.6q-0.1-0.1-0.1-0.1-0.1 0-0.1 0.1h-0.1l0.4-0.5 0.1 0.1q-0.1 0-0.1 0.1 0 0 0 0.1 0 0 0.1 0.1l0.6 0.6q0.1 0 0.1 0 0.1 0 0.1 0 0 0 0.1-0.1l0.1-0.1q0.1-0.1 0.1-0.2 0 0 0-0.1 0-0.1 0-0.2zm0.7-0.4l-0.3 0.5h-0.1l0.1-0.1q0 0 0-0.1 0 0-0.1-0.1l-0.7-0.6q-0.1 0-0.1 0-0.1-0.1-0.1 0-0.1 0-0.1 0v0.1-0.1l0.3-0.4h0.1-0.1q0 0.1 0 0.2 0 0 0.1 0.1l0.7 0.5q0.1 0.1 0.1 0.1 0.1 0 0.1 0 0 0 0.1-0.1z"/>
			<path id="Path 261" fill-rule="evenodd" class="s5" d="m47.7 51.7q0.1-0.1 0.2-0.2 0.2 0 0.3 0.1 0.1 0.1 0.1 0.2 0 0.1 0 0.2 0 0.1-0.2 0.3l-0.3 0.5h-0.1 0.1q0-0.1 0-0.2 0 0-0.1-0.1l-0.8-0.5q-0.1 0-0.1 0-0.1 0-0.1 0l-0.1 0.1 0.3-0.5q0.1-0.2 0.2-0.2 0.1-0.2 0.3-0.2 0.1 0 0.2 0.1 0.1 0 0.1 0.1 0 0.1 0 0.3zm-0.3 0.4q0 0 0-0.1 0 0 0.1-0.1 0.1-0.1 0.1-0.2 0-0.1 0-0.1-0.1-0.1-0.1-0.1-0.1-0.1-0.3-0.1-0.1 0.1-0.2 0.2-0.1 0.1-0.1 0.2zm0.6 0.4q0.1-0.1 0.1-0.2 0.1-0.2 0.1-0.3 0-0.1-0.1-0.2-0.1 0-0.2-0.1 0 0-0.1 0.1-0.1 0.1-0.2 0.2-0.1 0-0.1 0.1 0 0 0 0zm-0.3-1.8l0.5 0.3 0.2-0.3q0-0.1 0-0.2 0 0-0.1-0.1l0.5 0.2h-0.1q-0.1 0-0.1 0 0 0-0.1 0 0 0.1-0.1 0.1l-0.1 0.3 0.4 0.2q0.1 0.1 0.1 0.1 0 0 0 0 0.1 0 0.1-0.1l0.1-0.2q0.1-0.1 0.1-0.2 0 0 0-0.1-0.1-0.1-0.1-0.2l0.2 0.3-0.5 0.9v-0.1q0 0 0-0.1 0 0 0 0 0-0.1-0.1-0.1l-0.8-0.5q-0.1 0-0.2 0 0 0-0.1 0.1l0.5-0.9 0.3 0.1q-0.1 0-0.2 0 0 0-0.1 0 0 0.1-0.1 0.1z"/>
			<path id="Path 262" fill-rule="evenodd" class="s5" d="m49.9 49.2l-0.2 0.4-0.8 0.1q0 0 0 0.1 0 0 0 0 0 0 0 0l0.3 0.2q0.2 0.1 0.2 0.1 0.1-0.1 0.1-0.1v-0.1h0.1l-0.3 0.6h-0.1l0.1-0.1q0-0.1 0-0.1 0-0.1-0.1-0.1l-0.9-0.4q-0.1-0.1-0.1-0.1-0.1 0-0.1 0.1v0.1l-0.1-0.1 0.3-0.4q0.1-0.2 0.1-0.3 0.1-0.1 0.2-0.1 0.1 0 0.2 0 0.2 0.1 0.2 0.2 0.1 0.1 0 0.3l0.5-0.1q0.2 0 0.2 0 0.1-0.1 0.2-0.2zm-1.1 0.6q0 0 0 0 0-0.1 0-0.1 0.1-0.1 0.1-0.3-0.1-0.1-0.2-0.2-0.1 0-0.2 0-0.1 0-0.2 0.2 0 0 0 0.1z"/>
			<path id="Path 263" fill-rule="evenodd" class="s5" d="m49.9 48.1l-0.2 0.5 0.1 0.2q0.1 0.1 0.1 0.1 0.1 0 0.1 0 0 0 0.1-0.1l-0.2 0.4q0-0.1 0-0.1 0-0.1-0.1-0.2l-0.9-0.9v-0.1l1.3 0.1q0.1 0 0.2-0.1 0.1 0 0.1-0.1l-0.2 0.5q0 0 0-0.1 0 0 0 0-0.1 0-0.2-0.1zm-0.1 0h-0.6l0.4 0.5zm-0.2-1.8l0.3 0.1q-0.1 0-0.1 0-0.1 0-0.1 0.1-0.1 0-0.1 0.1l-0.1 0.2 1 0.4q0.2 0 0.2 0 0 0 0.1-0.1l-0.2 0.5q0-0.1 0-0.2 0 0-0.1 0l-1-0.4-0.1 0.1q0 0.1 0 0.2 0 0 0 0.1 0 0 0.1 0.1l-0.3-0.1z"/>
			<path id="Path 264" fill-rule="evenodd" class="s4" d="m45.4 11.1l0.6-0.8q-0.1 0.5 0.2 1 0.3 0.4 0.9 0.6 0.6 0.2 1 0.1 0.4-0.2 0.6-0.6 0-0.1 0-0.3 0-0.2-0.1-0.3-0.2-0.2-0.8-0.5-0.2-0.1-0.3-0.1-0.7-0.4-0.9-0.8-0.2-0.3-0.1-0.7 0.2-0.6 0.8-0.7 0.6-0.2 1.4 0.1 0.4 0.1 0.8 0.3 0.3 0.2 0.6 0.5l-0.5 0.6q0-0.5-0.2-0.8-0.2-0.4-0.7-0.5-0.5-0.2-0.9-0.1-0.4 0.1-0.5 0.5-0.1 0.1-0.1 0.3 0.1 0.2 0.2 0.3 0.2 0.2 0.9 0.6 0.3 0.1 0.4 0.2 0.5 0.3 0.7 0.6 0.2 0.3 0 0.7-0.2 0.6-0.8 0.8-0.7 0.3-1.5 0-0.5-0.2-0.9-0.5-0.5-0.2-0.8-0.5zm5.7 1q-0.4 0.7-0.4 1 0 0.2 0.2 0.4-0.2 0-0.4-0.1-0.2-0.1-0.4-0.2-0.3-0.2-0.4-0.2-0.2-0.1-0.3-0.2 0.3 0 0.5-0.1 0.1-0.2 0.5-1l1-1.9q0-0.2 0-0.3 0-0.2-0.2-0.3h0.1q0.1 0.1 0.3 0.1 0.2 0.1 0.3 0.2 0.2 0.1 0.3 0.2 0.2 0 0.4 0.1-0.2 0-0.4 0.1-0.1 0-0.2 0.2zm4 3.6q-0.4 0-0.9-0.1-0.4-0.1-0.9-0.4-0.9-0.6-1.2-1.5-0.2-0.8 0.3-1.6 0.6-0.9 1.5-1 0.8-0.2 1.8 0.5 0.4 0.2 0.7 0.6 0.3 0.3 0.5 0.8l-0.6 0.4q0.2-0.5 0-0.9-0.1-0.5-0.6-0.8-0.7-0.4-1.4-0.2-0.6 0.2-1.2 1-0.5 0.8-0.4 1.5 0.1 0.7 0.7 1.1 0.3 0.1 0.5 0.2 0.3 0 0.5-0.1 0.1-0.1 0.2-0.2 0.1-0.1 0.3-0.4 0.3-0.4 0.2-0.6 0-0.2-0.4-0.5h0.1q0.3 0.2 0.4 0.3 0.2 0.1 0.3 0.2 0.2 0.1 0.4 0.2 0.2 0.2 0.4 0.3v0.1q-0.2-0.1-0.3-0.1-0.2 0-0.3 0.2l-0.4 0.6q0 0.1-0.1 0.2 0 0.1-0.1 0.2zm2 0.4q-0.5 0.7-0.6 0.9-0.1 0.2 0.1 0.5h-0.1q-0.1-0.1-0.2-0.3-0.2-0.1-0.4-0.3-0.2-0.1-0.4-0.2-0.1-0.2-0.2-0.2v-0.1q0.3 0.1 0.5 0 0.2-0.1 0.8-0.8l1.4-1.6q0.1-0.2 0.1-0.3 0-0.1-0.1-0.3v-0.1q0.2 0.2 0.3 0.3 0.1 0.1 0.3 0.2 0.1 0.2 0.3 0.3 0.1 0.1 0.3 0.2h-0.1q-0.1-0.1-0.3 0-0.1 0-0.3 0.2zm2.6-0.6q0.2-0.2 0.2-0.3 0-0.1-0.1-0.3h0.1q0.1 0.1 0.2 0.2 0.1 0.2 0.3 0.3 0.1 0.1 0.2 0.2 0.1 0.2 0.3 0.3h-0.1q-0.1-0.1-0.3-0.1-0.1 0.1-0.3 0.2l-1.5 1.5q-0.3 0.2-0.5 0.4-0.2 0.2-0.2 0.3-0.1 0.1-0.1 0.3 0.1 0.1 0.4 0.5 0.5 0.5 1 0.7 0.5 0.2 1 0.1v0.1l-0.9 0.4-2.1-2.2-0.2-0.1q0-0.1-0.1-0.2-0.1-0.1-0.2-0.2h0.1q0.2 0.2 0.4 0.1 0.2-0.1 0.9-0.7zm3.1 3.5q0.2-0.2 0.3-0.3 0-0.2-0.1-0.3l0.1-0.1q0.1 0.2 0.2 0.3 0.1 0.2 0.2 0.3 0.1 0.2 0.2 0.3 0.1 0.2 0.2 0.3-0.2-0.1-0.3-0.1-0.2 0-0.4 0.1l-1.7 1.3q-0.3 0.1-0.5 0.3-0.2 0.2-0.3 0.2-0.1 0.2-0.1 0.3 0 0.2 0.3 0.6 0.4 0.6 0.9 0.8 0.4 0.3 0.9 0.3l0.1 0.1-1 0.2-1.8-2.4-0.1-0.2q0-0.1-0.1-0.2-0.1-0.1-0.2-0.2h0.1q0.2 0.2 0.4 0.1 0.3 0 1-0.5zm2.8 7.2h0.1q0.9-0.4 1.1-0.7 0.2-0.2 0.2-0.6 0 0.1 0.1 0.2 0.1 0.3 0.2 0.4 0.1 0.2 0.3 0.5v0.1h-0.1q-0.2-0.2-0.6-0.2-0.3 0-1.2 0.5l-0.6 0.3q-0.8 0.4-1.4 0.2-0.6-0.3-1-1.1-0.4-0.9-0.3-1.4 0.2-0.6 1-1 0.2-0.1 0.5-0.3 0.3-0.1 0.4-0.2l0.9-0.4q0.2-0.1 0.3-0.2 0-0.1 0-0.3 0.1 0.1 0.2 0.3 0 0.2 0.1 0.3 0.1 0.2 0.2 0.3 0.1 0.2 0.2 0.3l-0.1 0.1q-0.1-0.2-0.2-0.2-0.2 0-0.4 0.1l-1.2 0.6q-0.5 0.2-0.8 0.4-0.2 0.1-0.4 0.3-0.3 0.2-0.3 0.6 0 0.4 0.2 0.8 0.3 0.6 0.8 0.8 0.5 0.2 1.2-0.2zm-1.7 1.6q0.2 0.2 0.6 0.2 0.3 0.1 1.1-0.1l0.2-0.1 1.4-0.4q0.4-0.1 0.5-0.2 0.1-0.2 0.1-0.4l0.1-0.1q0 0.2 0.1 0.3 0 0.2 0 0.3 0.1 0.2 0.1 0.3 0.1 0.1 0.1 0.3-0.5 0.4-1.1 0.9-0.6 0.6-1.4 1.3l3.3 0.5q0 0 0 0.1 0.1 0.2 0.1 0.3 0.1 0.2 0.2 0.5 0 0.1 0 0.1h-0.1q0-0.2-0.2-0.2-0.2 0-0.6 0.1l-1.8 0.5q-0.8 0.2-1 0.4-0.2 0.1-0.2 0.4h-0.1q0-0.2-0.1-0.4 0-0.1-0.1-0.4 0-0.1-0.1-0.3 0-0.2-0.1-0.4 0.2 0.2 0.4 0.2 0.3 0.1 1.1-0.2l2.2-0.6-4.1-0.6h-0.1q0.9-0.7 1.7-1.4 0.8-0.6 1.4-1.2l-1.7 0.5q-1 0.2-1.2 0.4-0.3 0.2-0.3 0.6h-0.1q0-0.2-0.1-0.4 0-0.1 0-0.2-0.1-0.2-0.1-0.3-0.1-0.2-0.1-0.3zm1.7 7.3h0.1q0.1 0.3 0.3 0.4 0.2 0 1.1 0h2.1q0.3 0 0.4-0.1 0.1-0.1 0.1-0.3h0.1q0 0.1 0 0.3 0 0.2 0 0.9v0.8q0 1.1-0.2 1.6-0.2 0.4-0.7 0.4-0.5 0.1-0.7-0.4-0.3-0.4-0.3-1.1-0.1 0.5-0.3 0.8-0.2 0.3-0.6 0.5-0.1 0.1-0.4 0.2-0.7 0.3-0.8 0.6 0-0.1 0-0.2 0-0.3-0.1-0.4 0-0.1 0-0.3 0-0.1 0-0.2 0.3-0.1 0.9-0.3 0.5-0.2 0.7-0.3 0.3-0.2 0.4-0.5 0.1-0.3 0.1-0.9v-0.1q0 0 0-0.1 0-0.1 0-0.2h-0.7q-0.8 0.1-1.1 0.2-0.2 0.1-0.3 0.3 0-0.3 0-0.5 0-0.2 0-0.3 0-0.2 0-0.4 0-0.2-0.1-0.4zm2.4 1.1q0 0.1 0 0.2 0 0.1 0 0.1 0 0.5 0 0.7 0 0.3 0 0.4 0.1 0.4 0.3 0.5 0.3 0.2 0.6 0.2 0.4 0 0.6-0.3 0.2-0.4 0.2-1.1 0-0.2 0-0.4 0-0.1-0.1-0.3zm1.9 4.2q0 0.1-0.1 0.3 0 0.2-0.1 0.6l-0.3 2.5-0.9 0.3v-0.1q0.4-0.3 0.7-0.7 0.2-0.4 0.3-1.4v-0.1q0.1-0.1 0.1-0.2 0-0.1 0-0.2l-1.7-0.2q0 0.1 0 0.2 0 0.1-0.1 0.2v0.5q-0.1 0.5 0 0.8 0.1 0.3 0.4 0.4v0.1l-1.3-0.2v-0.1q0.3 0 0.5-0.3 0.2-0.2 0.2-0.7l0.1-0.6q0 0 0-0.1 0-0.1 0.1-0.2l-0.9-0.2q-0.4 0-0.6 0-0.2 0-0.3 0-0.1 0-0.2 0.2-0.1 0.1-0.1 0.5-0.1 0.9 0 1.4 0.1 0.5 0.5 0.8v0.1l-0.9-0.5 0.4-3.1 0.1-0.2q0-0.1 0-0.2 0-0.1 0-0.3h0.1q0 0.3 0.2 0.4 0.2 0.1 1.1 0.3l2.1 0.3q0.2 0 0.4-0.1 0.1 0 0.2-0.2zm-3.7 5.1h-0.1q-0.7-0.2-1-0.1-0.3 0-0.4 0.2 0-0.2 0.1-0.3 0-0.2 0.1-0.5 0.1-0.3 0.1-0.4 0-0.2 0.1-0.4 0 0.3 0.2 0.5 0.2 0.1 1.1 0.3l2 0.6q0.3 0 0.4 0 0.1-0.1 0.2-0.3h0.1q-0.1 0.2-0.1 0.4-0.1 0.2-0.1 0.4-0.1 0.1-0.1 0.3-0.1 0.2-0.1 0.4 0-0.2-0.1-0.3-0.1-0.2-0.3-0.2z"/>
			<path id="Path 265" fill-rule="evenodd" class="s4" d="m64.6 46h0.1q0 0.2 0.1 0.4 0.2 0.2 1.1 0.5l1.9 0.7q0.3 0.1 0.4 0.1 0.2-0.1 0.3-0.2-0.1 0.2-0.2 0.4 0 0.2-0.2 0.5l-0.2 0.6q-0.5 1.2-0.9 1.6-0.4 0.4-1 0.2-0.4-0.1-0.5-0.8-0.1-0.6 0.3-1.6 0-0.1 0.1-0.3 0.1-0.2 0.2-0.4l-0.5-0.2q-0.8-0.3-1.1-0.3-0.2 0-0.4 0.2 0.1-0.2 0.2-0.4 0-0.2 0.1-0.3 0.1-0.2 0.1-0.4 0.1-0.1 0.1-0.3zm1.6 1.8q-0.1 0.2-0.1 0.3-0.1 0.2-0.1 0.3-0.3 0.6-0.2 1.1 0.1 0.4 0.5 0.6 0.5 0.2 0.8-0.1 0.4-0.3 0.7-1.1 0-0.1 0.1-0.2 0-0.1 0.1-0.3zm-3.1 6.5l0.1 0.1q0.9 0.5 1.2 0.5 0.3 0 0.6-0.2v0.1q0 0-0.1 0.1-0.2 0.3-0.2 0.4-0.1 0.2-0.3 0.5v0.1l-0.1-0.1q0.1-0.3-0.2-0.6-0.2-0.2-1.1-0.7l-0.5-0.3q-0.8-0.5-0.9-1.1-0.2-0.6 0.3-1.4 0.5-0.9 1-1.1 0.6-0.1 1.4 0.3 0.2 0.1 0.5 0.3 0.3 0.2 0.4 0.2l0.8 0.5q0.2 0.1 0.4 0.1 0.1 0 0.2-0.1h0.1q-0.1 0.1-0.2 0.3-0.1 0.1-0.2 0.3-0.1 0.1-0.2 0.3-0.1 0.2-0.1 0.3h-0.1q0.1-0.2 0-0.3 0-0.2-0.2-0.3l-1.2-0.7q-0.5-0.2-0.8-0.3-0.3-0.2-0.4-0.2-0.4-0.1-0.8 0.1-0.3 0.2-0.6 0.6-0.3 0.6-0.1 1.1 0.1 0.5 0.8 0.9z"/>
			<path id="Path 266" fill-rule="evenodd" class="s4" d="m60.8 53.8h0.1q-0.1 0.2 0 0.4 0.1 0.3 0.8 0.8l1.6 1.3q0.2 0.2 0.3 0.2 0.2 0 0.3-0.1h0.1q-0.2 0.2-0.3 0.4-0.1 0.1-0.3 0.3-0.1 0.1-0.3 0.4-0.3 0.3-0.4 0.5-0.6 0.7-1.1 0.9-0.5 0.3-0.9-0.1-0.3-0.2-0.2-0.6 0-0.4 0.4-1-0.6 0.6-1.1 0.8-0.5 0.1-0.8-0.2-0.5-0.3-0.4-0.9 0.1-0.6 0.8-1.4 0-0.1 0.4-0.4 0.3-0.4 0.5-0.7 0.2-0.3 0.3-0.4 0.2-0.1 0.2-0.2zm1.1 2.3q-0.1 0-0.1 0.1-0.1 0-0.1 0.1l-0.1 0.1-0.2 0.2q-0.4 0.5-0.5 1 0 0.4 0.3 0.6 0.3 0.3 0.7 0.2 0.4-0.2 0.9-0.7 0-0.1 0.2-0.3 0.1-0.1 0.2-0.2zm-0.2-0.1l-0.5-0.5q-0.3-0.3-0.5-0.4-0.2-0.2-0.3-0.2-0.2-0.1-0.3 0-0.2 0.1-0.5 0.5-0.4 0.6-0.5 1 0 0.5 0.4 0.8 0.4 0.3 0.8 0.1 0.4-0.1 1-0.8l0.2-0.2q0.1-0.1 0.2-0.3 0 0 0 0zm-1.9 4.3q0.2 0.1 0.3 0.2 0.2 0 0.3-0.1l0.1 0.1q-0.2 0.1-0.3 0.2-0.2 0.1-0.3 0.2-0.1 0.1-0.3 0.3-0.1 0.1-0.2 0.2h-0.1q0.2-0.2 0.1-0.3 0-0.2-0.1-0.3l-1.4-1.7q-0.3-0.2-0.5-0.4-0.2-0.2-0.2-0.3-0.1-0.1-0.3 0-0.1 0-0.5 0.3-0.6 0.5-0.8 1-0.2 0.4-0.2 1l-0.4-0.9 2.3-2 0.1-0.2q0.1 0 0.2-0.1 0.1-0.1 0.2-0.2v0.1q-0.1 0.2-0.1 0.4 0.1 0.2 0.7 0.9zm-5.4 1.6v-0.1q-0.5-0.6-0.7-0.8-0.2-0.1-0.5 0v-0.1q0.1-0.1 0.3-0.2 0.2-0.1 0.4-0.2 0.2-0.2 0.4-0.3 0.1-0.1 0.2-0.2h0.1q-0.2 0.3-0.2 0.5 0.1 0.3 0.6 0.9l1.2 1.8q0.1 0.2 0.3 0.2 0.1 0.1 0.3 0-0.1 0.1-0.3 0.2-0.1 0.1-0.3 0.2-0.1 0.1-0.3 0.2-0.1 0.2-0.3 0.3v-0.1q0.1-0.1 0.1-0.3 0-0.1-0.1-0.3zm-5 1.8q0.2-0.5 0.5-0.8 0.3-0.4 0.8-0.6 1-0.5 1.8-0.3 0.9 0.3 1.4 1.1 0.4 0.9 0.1 1.7-0.3 0.8-1.2 1.3-0.5 0.2-0.9 0.3-0.4 0.1-0.9 0.1l-0.1-0.8q0.4 0.4 0.8 0.5 0.4 0.1 0.9-0.2 0.7-0.3 0.8-1 0.1-0.7-0.3-1.5-0.4-0.8-1.1-1.1-0.6-0.3-1.3 0.1-0.5 0.2-0.7 0.7-0.2 0.5 0 1v0.1zm-0.2-0.2q-0.3 0.2-0.8 0.7c-0.1 0.1-0.5 0.8-0.5 0.9l-3.1 3.7q0 0 0.1 0v0.1q-0.2 0-0.4 0c-0.3 0.1 0.2 0-0.6 0.1l-2.5 0.4-0.5-0.8q0.4 0.3 0.9 0.4 0.4 0.1 1.5 0h0.1q0.1-0.1 0.2-0.1 0.1 0 0.2 0l-0.3-1.7q-0.1 0-0.2 0-0.1 0.1-0.2 0.1l-0.5 0.1q-0.5 0-0.8 0.2-0.2 0.2-0.3 0.5l-0.2-1.3q0.2 0.3 0.5 0.4 0.2 0.1 0.7 0l0.7-0.1q0 0 0.1 0 0.1 0 0.2 0l-0.1-0.9q-0.1-0.4-0.2-0.6 0-0.2 0-0.3-0.1-0.1-0.3-0.1-0.1 0-0.5 0.1-0.9 0.1-1.3 0.4-0.5 0.2-0.7 0.7h-0.1l0.2-1 3.1-0.5h0.2q0.1 0 0.3 0 0.1 0 0.2-0.1 0.3-0.1 0.5-0.1 0.3-0.1 0.6-0.2v0.1q-0.2 0.1-0.3 0.2-0.1 0-0.2 0.2 0 0.1 0 0.2 0 0.1 0.1 0.3l0.1 0.7q0.1 0 0.2-0.1 0.1 0 0.3 0l0.8-0.2q0.2-0.1 0.3-0.1 0.1 0 0.2-0.1l0.4-0.5q0.3-0.3 0.5-0.6 0.1-0.2 0.2-0.3 0-0.2 0-0.3-0.1-0.1-0.3-0.1 0.1 0 0.2 0 0.2-0.1 0.5-0.2 0.2 0 0.4-0.1 0.2 0 0.4-0.1zm-5.1 2.6q0 0 0 0 0 0 0 0.1zm2.8-0.2q-0.1 0-0.2 0-0.1 0-0.3 0.1l-0.5 0.1q-0.2 0.1-0.3 0.1-0.2 0-0.2 0.1l0.3 1zm-13.3-0.6q-0.3 0.1-0.5 0.3-0.2 0.3-0.4 1.1l-0.1 0.2-0.3 1.4q-0.1 0.4-0.1 0.6 0.1 0.1 0.3 0.3-0.2 0-0.3-0.1-0.2 0-0.3 0-0.2-0.1-0.3-0.1-0.1 0-0.2-0.1-0.1-0.6-0.3-1.4-0.2-0.8-0.4-1.9l-2.1 2.6q0 0-0.1 0-0.3-0.1-0.4-0.1-0.1 0-0.5-0.1 0 0 0 0v-0.1q0.2 0 0.3-0.1 0.1-0.1 0.2-0.6l0.5-1.8q0.2-0.8 0.2-1-0.1-0.3-0.3-0.4 0.2 0 0.4 0.1 0.1 0 0.4 0.1 0.2 0 0.4 0.1 0.1 0 0.3 0.1-0.2 0-0.4 0.2-0.1 0.2-0.3 1l-0.6 2.2 2.6-3.2q0.2 1.1 0.4 2.1 0.1 1 0.3 1.9l0.5-1.8q0.2-0.9 0.2-1.3 0-0.3-0.3-0.5 0.2 0 0.3 0.1 0.2 0 0.3 0 0.1 0.1 0.3 0.1 0.2 0 0.3 0.1z"/>
			<path id="Path 267" fill-rule="evenodd" class="s4" d="m28.5 63.9q-0.3 0.1-0.6 0.3-0.4 0.2-0.9 0.6l-2.5 1.9-0.2-3.1q0-0.1 0-0.2-0.1-1.2-0.3-1.5v-0.1q0.2 0.1 0.3 0.2 0.2 0.1 0.3 0.1 0.3 0.2 0.5 0.3 0.2 0.1 0.5 0.1l-0.1 0.1q-0.1 0-0.2 0-0.1 0-0.2 0.2 0 0.1 0 0.2 0 0.2 0 0.5v0.9q0.1 0 0.1 0.1 0.1 0 0.2 0.1l0.7 0.3q0.1 0 0.2 0.1 0.1 0 0.1 0l0.4-0.3q0.3-0.3 0.5-0.4 0.1-0.2 0.2-0.3 0.1-0.2 0-0.3 0-0.1-0.2-0.3 0.1 0 0.2 0.1 0.2 0 0.4 0.1 0.2 0.1 0.3 0.2 0.2 0.1 0.3 0.1zm-2.2 1.2q-0.1 0-0.2 0-0.1-0.1-0.2-0.2l-0.4-0.1q-0.2-0.1-0.2-0.2-0.1 0-0.2 0v1.5zm-2.4-3.2l-0.8 0.6q0.2-0.4 0.1-1-0.2-0.5-0.7-0.8-0.5-0.3-0.9-0.3-0.5 0-0.7 0.4-0.1 0.1-0.1 0.3-0.1 0.1 0 0.3 0.1 0.2 0.6 0.6 0.2 0.2 0.3 0.3 0.5 0.5 0.6 0.9 0.2 0.4-0.1 0.8-0.3 0.5-1 0.5-0.6 0-1.3-0.5-0.3-0.2-0.6-0.5-0.3-0.3-0.5-0.6l0.6-0.5h0.1q-0.2 0.4-0.1 0.8 0.2 0.4 0.6 0.7 0.5 0.3 0.9 0.3 0.4 0 0.6-0.3 0.1-0.2 0.1-0.3 0-0.2-0.1-0.4-0.2-0.2-0.7-0.8-0.2-0.1-0.3-0.2-0.5-0.4-0.5-0.8-0.1-0.4 0.1-0.7 0.4-0.6 1.1-0.6 0.6 0 1.4 0.5 0.4 0.3 0.7 0.6 0.4 0.4 0.6 0.7zm-3.6-2.4l-0.8 0.5q0.3-0.4 0.2-1-0.1-0.5-0.5-0.9-0.5-0.4-0.9-0.5-0.5 0-0.7 0.3-0.2 0.1-0.2 0.3-0.1 0.2 0 0.3 0.1 0.3 0.5 0.7 0.1 0.2 0.2 0.3 0.5 0.6 0.5 1 0.1 0.5-0.2 0.8-0.4 0.4-1 0.3-0.7-0.1-1.3-0.6-0.3-0.3-0.5-0.6-0.3-0.4-0.4-0.7l0.7-0.4q-0.2 0.4-0.1 0.8 0 0.4 0.4 0.8 0.4 0.3 0.8 0.4 0.4 0 0.7-0.2 0.1-0.1 0.1-0.3 0.1-0.2 0-0.4-0.1-0.3-0.6-0.8-0.2-0.2-0.3-0.4-0.3-0.4-0.3-0.8-0.1-0.4 0.2-0.7 0.5-0.5 1.1-0.4 0.7 0.1 1.3 0.7 0.4 0.3 0.7 0.7 0.3 0.4 0.4 0.8zm-2.7-2.9h-0.1q-0.2-0.1-0.7-0.1-0.4 0-1 0.2l-3.1 0.6v-0.1l1.3-2.8q0-0.1 0.1-0.2 0.5-1.1 0.4-1.5 0.1 0.2 0.2 0.3 0.1 0.1 0.2 0.2 0.2 0.3 0.4 0.5 0.1 0.1 0.3 0.3h-0.1q-0.1-0.1-0.2-0.1-0.1 0-0.2 0.1-0.1 0.1-0.2 0.2-0.1 0.1-0.2 0.4l-0.4 0.8q0 0.1 0.1 0.2 0 0.1 0.1 0.2l0.4 0.5q0.1 0.1 0.2 0.2 0 0.1 0.1 0.1l0.5-0.1q0.4-0.1 0.6-0.2 0.2 0 0.3-0.1 0.1-0.1 0.2-0.3 0-0.1-0.1-0.3h0.1q0 0.1 0.1 0.2 0.1 0.1 0.2 0.3 0.2 0.1 0.3 0.2 0.1 0.2 0.2 0.3zm-2.6 0.1q0-0.1-0.1-0.2-0.1-0.1-0.2-0.2l-0.2-0.3q-0.1-0.2-0.2-0.2 0-0.1-0.1-0.2l-0.7 1.3zm-2.9-7.6q0.4 0.2 0.8 0.6 0.3 0.3 0.6 0.8 0.5 0.9 0.2 1.8-0.2 0.8-1.1 1.3-0.8 0.4-1.7 0.1-0.8-0.3-1.3-1.2-0.2-0.4-0.3-0.9-0.1-0.4-0.1-0.8l0.8-0.2v0.1q-0.4 0.4-0.5 0.8-0.1 0.4 0.2 0.8 0.3 0.7 1 0.8 0.7 0.2 1.5-0.3 0.9-0.4 1.2-1 0.2-0.7-0.1-1.3-0.3-0.5-0.7-0.7-0.5-0.2-1.1 0v-0.1zm-3-3.1l-1.2 0.4q-0.2 0.1-0.3 0.2-0.1 0.1-0.1 0.3-0.1-0.1-0.1-0.3-0.1-0.2-0.1-0.4-0.1-0.1-0.2-0.3 0-0.2-0.1-0.3l0.1-0.1q0 0.2 0.2 0.3 0.1 0 0.4-0.1l2-0.6q0.8-0.3 1-0.4 0.2-0.2 0.2-0.5 0.1 0.3 0.2 0.5 0 0.2 0.1 0.3 0 0.2 0.1 0.4 0.1 0.1 0.1 0.3v0.1q-0.1-0.3-0.4-0.3-0.3 0-1.1 0.3l-0.6 0.2q0 0.1 0.1 0.2 0 0.2 0.1 0.4l0.3 1q0.1 0.2 0.1 0.4 0.1 0.1 0.1 0.2l0.7-0.2q0.8-0.2 1-0.4 0.2-0.2 0.2-0.4 0.1 0.2 0.1 0.4 0.1 0.2 0.1 0.3 0.1 0.2 0.2 0.4 0 0.2 0.1 0.4-0.2-0.2-0.4-0.3-0.3 0-1.1 0.3l-2.1 0.7q-0.2 0-0.3 0.1 0 0.2 0 0.4h-0.1q0-0.2-0.1-0.4 0-0.2-0.1-0.3 0-0.2-0.1-0.4-0.1-0.1-0.1-0.3 0.1 0.1 0.3 0.2 0.1 0 0.3 0l1.2-0.4q0-0.2 0-0.3-0.1-0.2-0.1-0.3l-0.4-1.1q0 0 0-0.2-0.1-0.1-0.2-0.4zm-1-5.5h-0.1q-1 0.2-1.3 0.3-0.2 0.2-0.3 0.5h-0.1q0 0 0-0.2 0-0.3 0-0.4-0.1-0.2-0.2-0.6h0.1q0.2 0.3 0.5 0.3 0.4 0.1 1.4 0l0.6-0.1q0.9-0.2 1.4 0.2 0.4 0.4 0.6 1.3 0.1 1-0.2 1.5-0.3 0.5-1.2 0.6-0.3 0-0.6 0.1-0.4 0-0.5 0l-0.9 0.2q-0.2 0-0.3 0.1-0.1 0.1-0.2 0.3 0-0.2 0-0.4-0.1-0.1-0.1-0.3 0-0.2 0-0.4-0.1-0.1-0.1-0.3 0.1 0.2 0.2 0.2 0.2 0.1 0.4 0.1l1.4-0.2q0.5-0.1 0.8-0.2 0.3 0 0.4-0.1 0.4-0.2 0.6-0.6 0.1-0.3 0-0.8-0.1-0.7-0.5-1-0.4-0.3-1.2-0.2zm1.9-1.1l-0.9-0.3q0.5-0.1 0.9-0.5 0.3-0.4 0.3-1 0-0.6-0.2-1-0.3-0.3-0.7-0.3-0.2 0-0.4 0-0.1 0.1-0.2 0.3-0.1 0.2-0.2 0.8 0 0.2-0.1 0.4-0.1 0.7-0.4 1-0.3 0.3-0.7 0.3-0.6 0-1-0.5-0.3-0.5-0.3-1.3 0-0.4 0.1-0.8 0.1-0.4 0.3-0.8l0.7 0.3q-0.4 0.1-0.7 0.4-0.2 0.4-0.3 0.9 0 0.5 0.3 0.8 0.2 0.4 0.6 0.4 0.1 0 0.3-0.1 0.2-0.1 0.2-0.3 0.2-0.2 0.3-1 0-0.2 0.1-0.4 0.1-0.6 0.3-0.8 0.3-0.3 0.7-0.3 0.7 0 1.1 0.5 0.4 0.6 0.4 1.4 0 0.6-0.2 1.1-0.1 0.5-0.3 0.8zm-3.6-5q0-0.1 0-0.3 0.1-0.2 0.1-0.6l0.5-2.5 0.9-0.2v0.1q-0.5 0.2-0.7 0.6-0.3 0.4-0.4 1.4v0.1q-0.1 0.1-0.1 0.2 0 0.1 0 0.2l1.7 0.3q0-0.1 0-0.2 0-0.1 0-0.2l0.1-0.5q0.1-0.5 0-0.8 0-0.3-0.3-0.5l1.2 0.2v0.1q-0.3 0-0.5 0.3-0.1 0.2-0.2 0.7l-0.1 0.6q0 0 0 0.1-0.1 0.1-0.1 0.2l0.9 0.2q0.4 0.1 0.6 0.1 0.2 0 0.3 0 0.1-0.1 0.2-0.2 0-0.1 0.1-0.6 0.2-0.8 0-1.3-0.1-0.5-0.4-0.9l0.9 0.4-0.6 3.1v0.2q0 0.1-0.1 0.3 0 0.1 0 0.2 0-0.2-0.3-0.4-0.2-0.1-1-0.3l-2.1-0.3q-0.3-0.1-0.4 0-0.1 0.1-0.2 0.2zm1.7-4.4l-0.7-0.5 1.2-3.7 1 0.1q-0.5 0.2-0.8 0.4-0.3 0.3-0.4 0.6-0.1 0.3 0 0.4 0.1 0.1 0.5 0.3l1.6 0.5q0.9 0.3 1.2 0.3 0.3 0 0.4-0.2h0.1q-0.1 0.2-0.1 0.4-0.1 0.1-0.2 0.4-0.1 0.3-0.2 0.5 0 0.1 0 0.2h-0.1q0-0.2-0.2-0.4-0.2-0.2-1.2-0.5l-1.5-0.5q-0.5-0.2-0.6-0.1-0.1 0-0.2 0.2-0.1 0.4-0.1 0.8 0.1 0.4 0.4 0.8zm1.6-4.7l-0.6-0.6 1.8-3.4 1 0.1-0.1 0.1q-0.4 0.1-0.8 0.3-0.3 0.2-0.5 0.5-0.1 0.3-0.1 0.4 0.1 0.1 0.5 0.3l1.5 0.8q0.8 0.5 1.1 0.5 0.3 0.1 0.5-0.1-0.1 0.1-0.2 0.3 0 0.2-0.2 0.4-0.1 0.3-0.2 0.4-0.1 0.2-0.1 0.3h-0.1q0.1-0.3-0.1-0.5-0.2-0.2-1.1-0.6l-1.5-0.8q-0.4-0.2-0.5-0.2-0.1 0-0.2 0.2-0.2 0.3-0.2 0.7 0 0.5 0.2 0.9zm1.8-5q0.1-0.1 0.2-0.3 0.1-0.1 0.4-0.5l1.5-2 0.9 0.3q-0.5 0-0.9 0.3-0.4 0.2-1.1 1v0.1q-0.1 0.1-0.1 0.2-0.1 0.1-0.1 0.1l1.3 1q0 0 0.1-0.1 0.1-0.1 0.1-0.2l0.4-0.4q0.3-0.4 0.3-0.7 0.1-0.3-0.1-0.5l0.1-0.1 1 0.8h-0.1q-0.3-0.1-0.5 0.1-0.3 0.1-0.6 0.5l-0.4 0.5q0 0 0 0.1-0.1 0.1-0.2 0.1l0.7 0.6q0.4 0.2 0.5 0.3 0.2 0.1 0.3 0.1 0.1 0.1 0.2 0 0.1-0.1 0.4-0.4 0.5-0.7 0.7-1.2 0.1-0.5-0.1-1l0.1-0.1 0.5 0.9-1.9 2.5-0.1 0.1q-0.1 0.1-0.1 0.2-0.1 0.1-0.2 0.2 0.1-0.2 0-0.4-0.2-0.3-0.9-0.8l-1.7-1.3q-0.2-0.1-0.3-0.1-0.2 0-0.3 0.1zm5-2.6l0.1 0.1q0.7 0.6 1 0.8 0.3 0.1 0.6 0v0.1q-0.1 0.1-0.2 0.2-0.1 0.1-0.2 0.1-0.1 0.2-0.3 0.3-0.1 0.1-0.2 0.2 0.1-0.3 0-0.7-0.2-0.3-0.9-1l-0.9-1q-0.3-0.3-0.5-0.4-0.2 0-0.4 0.1v-0.1q0 0 0.1-0.1 0.2-0.2 0.3-0.2 0.1-0.2 0.2-0.3 0.1 0 0.2-0.1 1.2 0.1 3.9 0.2 0 0 0.1 0l-0.7-0.8q-0.8-0.7-1.1-0.9-0.3-0.1-0.6 0 0-0.1 0.1-0.2 0.3-0.2 0.3-0.2 0.2-0.2 0.5-0.5-0.1 0.3 0 0.7 0.2 0.3 0.9 1l1.6 1.7v0.1q-0.9-0.1-2.2-0.2-1.3-0.1-2.8-0.2zm4.1-1.6l-0.3-0.9q0.4 0.3 0.9 0.4 0.6 0 1.1-0.3 0.5-0.3 0.6-0.8 0.2-0.4-0.1-0.8-0.1-0.1-0.2-0.2-0.2-0.1-0.3 0-0.3 0-0.9 0.3-0.2 0.1-0.3 0.1-0.7 0.3-1.1 0.3-0.4 0-0.7-0.4-0.3-0.5-0.1-1.1 0.2-0.5 0.9-1 0.3-0.2 0.7-0.4 0.4-0.2 0.8-0.2l0.2 0.7v0.1q-0.3-0.3-0.8-0.4-0.4 0-0.8 0.3-0.5 0.3-0.6 0.7-0.1 0.4 0.1 0.7 0.1 0.1 0.2 0.2 0.2 0.1 0.4 0 0.3 0 1-0.4 0.2-0.1 0.3-0.1 0.6-0.3 1-0.2 0.3 0 0.6 0.4 0.3 0.5 0.1 1.2-0.2 0.6-0.9 1.1-0.5 0.3-0.9 0.5-0.5 0.1-0.9 0.2zm4.2-3.9q0.3 0.7 0.5 0.9 0.2 0.2 0.5 0.1-0.1 0.1-0.3 0.2-0.2 0.1-0.4 0.2-0.3 0.2-0.4 0.2-0.2 0.1-0.3 0.2 0.2-0.2 0.1-0.5 0-0.2-0.4-1l-1-1.9q-0.1-0.1-0.2-0.2-0.2-0.1-0.4 0v-0.1q0.2 0 0.4-0.1 0.1-0.1 0.3-0.2 0.1-0.1 0.3-0.2 0.2-0.1 0.3-0.2l0.1 0.1q-0.2 0.1-0.2 0.3-0.1 0.1 0.1 0.3zm1.2 0.6l-0.1-0.9q0.3 0.4 0.8 0.5 0.5 0.2 1.1 0 0.5-0.2 0.8-0.6 0.2-0.4 0-0.8 0-0.2-0.2-0.3-0.1-0.1-0.2-0.1-0.3 0-0.9 0.1-0.3 0.1-0.4 0.1-0.7 0.2-1.1 0-0.4-0.1-0.6-0.5-0.2-0.6 0.1-1.1 0.4-0.5 1.2-0.8 0.3-0.1 0.8-0.2 0.4-0.1 0.8 0v0.7l-0.1 0.1q-0.2-0.4-0.6-0.5-0.4-0.1-0.9 0-0.5 0.2-0.7 0.6-0.2 0.3-0.1 0.7 0.1 0.1 0.2 0.2 0.2 0.1 0.3 0.1 0.3 0.1 1.1-0.1 0.3-0.1 0.4-0.1 0.6-0.1 0.9 0 0.4 0.1 0.5 0.5 0.3 0.7-0.1 1.2-0.3 0.6-1.1 0.9-0.5 0.2-1 0.3-0.5 0.1-0.9 0zm4.3-1.5q-0.1-0.2 0-0.3 0.1-0.2 0.3-0.2 0.1-0.1 0.3 0 0.1 0.1 0.2 0.3 0 0.1-0.1 0.2-0.1 0.2-0.2 0.2-0.2 0.1-0.3 0-0.2-0.1-0.2-0.2z"/>
		</g>
	</g>
</svg>