<svg width="34" height="34" viewBox="0 0 34 34" fill="none" xmlns="http://www.w3.org/2000/svg">
<path d="M11.7268 2.83301C10.0751 2.83301 8.73612 4.17203 8.73612 5.82371C8.73612 7.47548 10.0751 8.8145 11.7268 8.8145H17.7083C19.3601 8.8145 20.6991 7.47548 20.6991 5.82371C20.6991 4.17203 19.3601 2.83301 17.7083 2.83301H11.7268Z" fill="#016BBF"/>
<path fill-rule="evenodd" clip-rule="evenodd" d="M4.25 11.8052C4.25 9.56468 5.48195 7.61175 7.30542 6.58704C7.66782 8.70105 9.50945 10.3098 11.7268 10.3098H17.7083C19.9257 10.3098 21.7674 8.70105 22.1298 6.58704C23.9532 7.61175 25.1852 9.56468 25.1852 11.8052V17.1566C24.8166 17.0388 24.4231 16.9997 24.09 16.9997C23.7372 16.9997 23.3167 17.0436 22.9297 17.1783L19.2323 18.4872L19.2291 18.4883C18.5643 18.7254 18.0237 19.1823 17.6518 19.6894C17.2823 20.1931 17 20.8556 17 21.5793V26.7161C17 27.2673 17.1796 27.7936 17.396 28.2038C17.6129 28.6151 17.9444 29.0568 18.3938 29.3716L18.929 29.7497H10.2315C6.928 29.7497 4.25 27.0717 4.25 23.7682V11.8052ZM18.1943 15.3193H8.25011C7.69833 15.3193 7.24075 14.8618 7.24075 14.31C7.24075 13.7582 7.69833 13.3006 8.25011 13.3006H18.1943C18.7461 13.3006 19.2037 13.7582 19.2037 14.31C19.2037 14.8618 18.7461 15.3193 18.1943 15.3193ZM8.25011 19.8054H13.7082C14.26 19.8054 14.7176 19.3479 14.7176 18.7961C14.7176 18.2444 14.26 17.7867 13.7082 17.7867H8.25011C7.69833 17.7867 7.24075 18.2444 7.24075 18.7961C7.24075 19.3479 7.69833 19.8054 8.25011 19.8054Z" fill="#016BBF"/>
<path fill-rule="evenodd" clip-rule="evenodd" d="M24.7845 18.5162L28.475 19.8226C29.1796 20.0763 29.7567 20.8627 29.7499 21.5793V26.716C29.7499 27.2297 29.3943 27.9019 28.9582 28.2127L25.2676 30.8191C24.6168 31.2821 23.5499 31.2821 22.899 30.8191L19.2085 28.2127C18.7723 27.9083 18.4167 27.2297 18.4167 26.716V21.5793C18.4167 20.8627 18.9937 20.0763 19.705 19.8226L23.3955 18.5162C23.778 18.383 24.402 18.383 24.7845 18.5162ZM23.5364 26.1009L26.4218 23.374C26.6231 23.1901 26.6231 22.8793 26.4285 22.6954C26.2339 22.5115 25.9118 22.5115 25.7172 22.6954L23.1875 25.0862L22.4628 24.4013C22.2682 24.2174 21.9462 24.2174 21.7516 24.4013C21.557 24.5852 21.557 24.8896 21.7516 25.0735L22.8252 26.1009C22.9258 26.196 23.0533 26.2404 23.1808 26.2404C23.3083 26.2404 23.4358 26.196 23.5364 26.1009Z" fill="#016BBF"/>
</svg>
