<svg width="42" height="42" viewBox="0 0 42 42" fill="none" xmlns="http://www.w3.org/2000/svg">
<rect x="1" y="1" width="40" height="40" rx="2" fill="#E6F1F9"/>
<path d="M1 31V39C1 40.1046 1.89543 41 3 41H11" stroke="#016BBF" stroke-width="2" stroke-linecap="round" stroke-linejoin="round"/>
<path d="M41 31V39C41 40.1046 40.1046 41 39 41H31" stroke="#016BBF" stroke-width="2" stroke-linecap="round" stroke-linejoin="round"/>
<path d="M1 11V3C1 1.89543 1.89543 1 3 1H11" stroke="#016BBF" stroke-width="2" stroke-linecap="round" stroke-linejoin="round"/>
<path d="M41 11V3C41 1.89543 40.1046 1 39 1H31" stroke="#016BBF" stroke-width="2" stroke-linecap="round" stroke-linejoin="round"/>
<path d="M24.1971 21.0015C24.1971 22.7688 22.7644 24.2015 20.9971 24.2015C19.2298 24.2015 17.7971 22.7688 17.7971 21.0015C17.7971 19.2342 19.2298 17.8015 20.9971 17.8015C22.7644 17.8015 24.1971 19.2342 24.1971 21.0015Z" fill="#016BBF"/>
<path fill-rule="evenodd" clip-rule="evenodd" d="M16.1671 13.0015L17.9971 11.0015H23.9971L25.8271 13.0015H28.9971C30.0971 13.0015 30.9971 13.9015 30.9971 15.0015V27.0015C30.9971 28.1015 30.0971 29.0015 28.9971 29.0015H12.9971C11.8971 29.0015 10.9971 28.1015 10.9971 27.0015V15.0015C10.9971 13.9015 11.8971 13.0015 12.9971 13.0015H16.1671ZM15.9971 21.0015C15.9971 23.7615 18.2371 26.0015 20.9971 26.0015C23.7571 26.0015 25.9971 23.7615 25.9971 21.0015C25.9971 18.2415 23.7571 16.0015 20.9971 16.0015C18.2371 16.0015 15.9971 18.2415 15.9971 21.0015ZM28.2471 16.5015C28.6613 16.5015 28.9971 16.1657 28.9971 15.7515C28.9971 15.3373 28.6613 15.0015 28.2471 15.0015C27.8329 15.0015 27.4971 15.3373 27.4971 15.7515C27.4971 16.1657 27.8329 16.5015 28.2471 16.5015Z" fill="#016BBF"/>
</svg>
