<svg width="24" height="24" viewBox="0 0 24 24" fill="none" xmlns="http://www.w3.org/2000/svg">
<path d="M11.25 19.5C15.8063 19.5 19.5 15.8063 19.5 11.25C19.5 6.69365 15.8063 3 11.25 3C6.69365 3 3 6.69365 3 11.25C3 15.8063 6.69365 19.5 11.25 19.5Z" stroke="#016BBF" stroke-width="2" stroke-linecap="round" stroke-linejoin="round"/>
<path d="M6 11.25C6 11.25 7.575 7.5 11.25 7.5C14.925 7.5 16.5 11.25 16.5 11.25C16.5 11.25 14.925 15 11.25 15C7.575 15 6 11.25 6 11.25Z" stroke="#016BBF" stroke-width="2" stroke-linecap="round" stroke-linejoin="round"/>
<path d="M10.5 12C11.3284 12 12 11.3284 12 10.5C12 9.67157 11.3284 9 10.5 9C9.67157 9 9 9.67157 9 10.5C9 11.3284 9.67157 12 10.5 12Z" fill="#016BBF"/>
<path d="M22.5 22.5L18 18" stroke="#016BBF" stroke-width="2" stroke-linecap="round" stroke-linejoin="round"/>
</svg>
