<svg width="28" height="28" viewBox="0 0 28 28" fill="none" xmlns="http://www.w3.org/2000/svg">
<path d="M10.325 21.2966H9.8C5.6 21.2966 3.5 20.2498 3.5 15.0155V9.78116C3.5 5.59372 5.6 3.5 9.8 3.5H18.2C22.4 3.5 24.5 5.59372 24.5 9.78116V15.0155C24.5 19.2029 22.4 21.2966 18.2 21.2966H17.675C17.3495 21.2966 17.0345 21.4536 16.835 21.7154L15.26 23.8091C14.567 24.7303 13.433 24.7303 12.74 23.8091L11.165 21.7154C10.997 21.485 10.6085 21.2966 10.325 21.2966Z" stroke="#016BBF" stroke-width="2" stroke-linecap="round" stroke-linejoin="round"/>
<path d="M18.196 12.9217H18.2054" stroke="#016BBF" stroke-width="2" stroke-linecap="round" stroke-linejoin="round"/>
<path d="M13.9958 12.9217H14.0052" stroke="#016BBF" stroke-width="2" stroke-linecap="round" stroke-linejoin="round"/>
<path d="M9.79462 12.9217H9.80405" stroke="#016BBF" stroke-width="2" stroke-linecap="round" stroke-linejoin="round"/>
</svg>
