<svg width="20" height="20" viewBox="0 0 20 20" fill="none" xmlns="http://www.w3.org/2000/svg">
<path d="M7.375 15.2119H7C4 15.2119 2.5 14.4641 2.5 10.7253V6.98654C2.5 3.99551 4 2.5 7 2.5H13C16 2.5 17.5 3.99551 17.5 6.98654V10.7253C17.5 13.7164 16 15.2119 13 15.2119H12.625C12.3925 15.2119 12.1675 15.324 12.025 15.511L10.9 17.0065C10.405 17.6645 9.595 17.6645 9.1 17.0065L7.975 15.511C7.855 15.3465 7.5775 15.2119 7.375 15.2119Z" stroke="#016BBF" stroke-width="1.5" stroke-linecap="round" stroke-linejoin="round"/>
<path d="M12.9969 9.22981H13.0036" stroke="#016BBF" stroke-width="1.5" stroke-linecap="round" stroke-linejoin="round"/>
<path d="M9.99686 9.22981H10.0036" stroke="#016BBF" stroke-width="1.5" stroke-linecap="round" stroke-linejoin="round"/>
<path d="M6.99588 9.22981H7.00262" stroke="#016BBF" stroke-width="1.5" stroke-linecap="round" stroke-linejoin="round"/>
</svg>
