<svg width="61" height="60" viewBox="0 0 61 60" fill="none" xmlns="http://www.w3.org/2000/svg">
<path d="M12.3265 22.8659C11.8904 22.4298 11.6453 21.8383 11.6453 21.2215C11.6453 20.6047 11.8904 20.0132 12.3265 19.5771C12.7626 19.1409 13.3541 18.8959 13.9709 18.8959C14.5877 18.8959 15.1792 19.1409 15.6154 19.5771C16.0515 20.0132 16.2965 20.6047 16.2965 21.2215C16.2965 21.8383 16.0515 22.4298 15.6154 22.8659C15.1792 23.3021 14.5877 23.5471 13.9709 23.5471C13.3541 23.5471 12.7626 23.3021 12.3265 22.8659Z" fill="#8A8A8A"/>
<path d="M25.5988 21.2215C25.5988 21.8383 25.8439 22.4298 26.28 22.8659C26.7161 23.3021 27.3076 23.5471 27.9244 23.5471C28.5412 23.5471 29.1327 23.3021 29.5689 22.8659C30.005 22.4298 30.25 21.8383 30.25 21.2215C30.25 20.6047 30.005 20.0132 29.5689 19.5771C29.1327 19.1409 28.5412 18.8959 27.9244 18.8959C27.3076 18.8959 26.7161 19.1409 26.28 19.5771C25.8439 20.0132 25.5988 20.6047 25.5988 21.2215Z" fill="#8A8A8A"/>
<path d="M42.5591 22.8659C42.1229 22.4298 41.8779 21.8383 41.8779 21.2215C41.8779 20.6047 42.1229 20.0132 42.5591 19.5771C42.9952 19.1409 43.5867 18.8959 44.2035 18.8959C44.8203 18.8959 45.4118 19.1409 45.8479 19.5771C46.2841 20.0132 46.5291 20.6047 46.5291 21.2215C46.5291 21.8383 46.2841 22.4298 45.8479 22.8659C45.4118 23.3021 44.8203 23.5471 44.2035 23.5471C43.5867 23.5471 42.9952 23.3021 42.5591 22.8659Z" fill="#8A8A8A"/>
<path fill-rule="evenodd" clip-rule="evenodd" d="M34.8583 12.5006C34.888 12.4998 34.9176 12.4998 34.947 12.5006H41.8779C45.65 12.5006 49.0914 14.5998 51.5194 17.999C53.9421 21.3908 55.25 25.8996 55.25 30.5238V42.1517C55.25 43.115 54.4691 43.8959 53.5058 43.8959H50.3564C50.0613 44.9367 49.5042 45.8954 48.7257 46.6739C47.5263 47.8733 45.8996 48.5471 44.2035 48.5471C42.5073 48.5471 40.8807 47.8733 39.6813 46.6739C38.9027 45.8954 38.3456 44.9367 38.0506 43.8959H22.4494C22.1544 44.9367 21.5973 45.8954 20.8187 46.6739C19.6193 47.8733 17.9927 48.5471 16.2965 48.5471C14.6004 48.5471 12.9737 47.8733 11.7743 46.6739C10.9958 45.8954 10.4387 44.9367 10.1436 43.8959H6.99419C6.0309 43.8959 5.25 43.115 5.25 42.1517V16.5703C5.25 15.491 5.67878 14.4558 6.44201 13.6926C7.20524 12.9293 8.2404 12.5006 9.31977 12.5006H34.8583ZM19.2035 15.9889H9.31977C9.16557 15.9889 9.01769 16.0502 8.90866 16.1592C8.79963 16.2683 8.73837 16.4161 8.73837 16.5703V28.7796H11.6453V27.0355C11.6453 25.7511 12.6865 24.7099 13.9709 24.7099C15.2553 24.7099 16.2965 25.7511 16.2965 27.0355V28.7796H19.2035V15.9889ZM22.6919 15.9889V28.7796H25.5988V27.0355C25.5988 25.7511 26.64 24.7099 27.9244 24.7099C29.2088 24.7099 30.25 25.7511 30.25 27.0355V28.7796H36.2318L33.491 15.9889H22.6919ZM8.73837 32.268V40.4075H10.1436C10.4387 39.3667 10.9958 38.4081 11.7743 37.6295C12.9737 36.4302 14.6004 35.7564 16.2965 35.7564C17.9927 35.7564 19.6193 36.4302 20.8187 37.6295C21.5973 38.4081 22.1544 39.3667 22.4494 40.4075H38.0506C38.3456 39.3667 38.9027 38.4081 39.6813 37.6295C40.8807 36.4302 42.5073 35.7564 44.2035 35.7564C45.8996 35.7564 47.5263 36.4302 48.7257 37.6295C49.5042 38.4081 50.0613 39.3667 50.3564 40.4075H51.7616V32.2678H41.905L41.8779 32.268H8.73837ZM51.6892 28.7794C51.4099 25.4307 50.3354 22.3431 48.6808 20.0266C46.7475 17.3199 44.2736 15.9889 41.8779 15.9889H37.0585L39.7994 28.7794H41.8779V27.0355C41.8779 25.7511 42.9191 24.7099 44.2035 24.7099C45.4879 24.7099 46.5291 25.7511 46.5291 27.0355V28.7794H51.6892ZM18.3521 40.0962C18.8972 40.6414 19.2035 41.3808 19.2035 42.1517C19.2035 42.9227 18.8972 43.6621 18.3521 44.2073C17.8069 44.7524 17.0675 45.0587 16.2965 45.0587C15.5255 45.0587 14.7861 44.7524 14.241 44.2073C13.6958 43.6621 13.3895 42.9227 13.3895 42.1517C13.3895 41.3808 13.6958 40.6414 14.241 40.0962C14.7861 39.551 15.5255 39.2448 16.2965 39.2448C17.0675 39.2448 17.8069 39.551 18.3521 40.0962ZM42.1479 44.2073C41.6028 43.6621 41.2965 42.9227 41.2965 42.1517C41.2965 41.3808 41.6028 40.6414 42.1479 40.0962C42.6931 39.551 43.4325 39.2448 44.2035 39.2448C44.9745 39.2448 45.7139 39.551 46.259 40.0962C46.8042 40.6414 47.1105 41.3808 47.1105 42.1517C47.1105 42.9227 46.8042 43.6621 46.259 44.2073C45.7139 44.7524 44.9745 45.0587 44.2035 45.0587C43.4325 45.0587 42.6931 44.7524 42.1479 44.2073Z" fill="#8A8A8A"/>
</svg>
