<svg width="61" height="60" viewBox="0 0 61 60" fill="none" xmlns="http://www.w3.org/2000/svg">
<path d="M33.0756 22.5581C33.0756 23.1749 33.3206 23.7664 33.7567 24.2026C34.1929 24.6387 34.7844 24.8837 35.4012 24.8837C36.0179 24.8837 36.6095 24.6387 37.0456 24.2026C37.4817 23.7664 37.7267 23.1749 37.7267 22.5581C37.7267 21.9414 37.4817 21.3498 37.0456 20.9137C36.6095 20.4776 36.0179 20.2326 35.4012 20.2326C34.7844 20.2326 34.1929 20.4776 33.7567 20.9137C33.3206 21.3498 33.0756 21.9414 33.0756 22.5581Z" fill="#8A8A8A"/>
<path fill-rule="evenodd" clip-rule="evenodd" d="M10.4907 16.1926C10.7281 15.4804 11.3946 15 12.1453 15H40.0523C40.713 15 41.3169 15.3733 41.6124 15.9642L48.107 28.9535H49.3546C50.7606 28.9535 52.7171 29.2679 54.0763 30.6271L54.151 30.7011C54.3846 30.9313 54.79 31.3308 55.1071 31.8415C55.5004 32.4747 55.75 33.2403 55.75 34.186V40C55.75 40.9633 54.9691 41.7442 54.0058 41.7442H46.2052C45.9102 42.785 45.3531 43.7436 44.5745 44.5222C43.3752 45.7216 41.7485 46.3953 40.0523 46.3953C38.3562 46.3953 36.7295 45.7216 35.5301 44.5222C34.7516 43.7436 34.1945 42.785 33.8994 41.7442H22.9494C22.6544 42.785 22.0973 43.7436 21.3187 44.5222C20.1193 45.7216 18.4927 46.3953 16.7965 46.3953C15.1004 46.3953 13.4737 45.7216 12.2743 44.5222C11.4958 43.7436 10.9387 42.785 10.6436 41.7442H7.49419C7.0316 41.7442 6.58796 41.5604 6.26086 41.2333C5.93376 40.9062 5.75 40.4626 5.75 40V30.6977C5.75 30.5102 5.78022 30.324 5.83951 30.1461L10.4907 16.1926ZM13.8895 40C13.8895 40.771 14.1958 41.5104 14.741 42.0555C15.2861 42.6007 16.0255 42.907 16.7965 42.907C17.5675 42.907 18.3069 42.6007 18.8521 42.0555C19.3972 41.5104 19.7035 40.771 19.7035 40C19.7035 39.229 19.3972 38.4896 18.8521 37.9445C18.3069 37.3993 17.5675 37.093 16.7965 37.093C16.0255 37.093 15.2861 37.3993 14.741 37.9445C14.1958 38.4896 13.8895 39.229 13.8895 40ZM22.9494 38.2558C22.6544 37.215 22.0973 36.2564 21.3187 35.4778C20.1193 34.2784 18.4927 33.6047 16.7965 33.6047C15.1004 33.6047 13.4737 34.2784 12.2743 35.4778C11.4958 36.2564 10.9387 37.215 10.6436 38.2558H9.23837V32.4419H49.3546C50.4158 32.4419 51.2244 32.7085 51.6097 33.0938L51.6527 33.1368C51.9443 33.4283 52.0549 33.5388 52.1437 33.6819C52.1978 33.769 52.2616 33.8982 52.2616 34.186V38.2558H46.2052C45.9102 37.215 45.3531 36.2564 44.5745 35.4778C43.3752 34.2784 41.7485 33.6047 40.0523 33.6047C38.3562 33.6047 36.7295 34.2784 35.5301 35.4778C34.7516 36.2564 34.1945 37.215 33.8994 38.2558H22.9494ZM37.1453 40C37.1453 40.771 37.4516 41.5104 37.9968 42.0555C38.5419 42.6007 39.2813 42.907 40.0523 42.907C40.8233 42.907 41.5627 42.6007 42.1079 42.0555C42.653 41.5104 42.9593 40.771 42.9593 40C42.9593 39.229 42.653 38.4896 42.1079 37.9445C41.5627 37.3993 40.8233 37.093 40.0523 37.093C39.2813 37.093 38.5419 37.3993 37.9968 37.9445C37.4516 38.4896 37.1453 39.229 37.1453 40ZM26.6802 23.1395H23.1919V26.0465C23.1919 27.0098 22.411 27.7907 21.4477 27.7907C20.4844 27.7907 19.7035 27.0098 19.7035 26.0465V23.1395H16.2151V28.9535H26.6802V23.1395ZM15.6337 19.6512H27.2616C28.8671 19.6512 30.1686 20.9527 30.1686 22.5581V28.9535H33.0756V28.3721C33.0756 27.0877 34.1168 26.0465 35.4012 26.0465C36.6855 26.0465 37.7267 27.0877 37.7267 28.3721V28.9535H44.2069L38.9744 18.4884H13.4025L9.91411 28.9535H12.7267V22.5581C12.7267 20.9527 14.0282 19.6512 15.6337 19.6512Z" fill="#8A8A8A"/>
</svg>
