<svg width="66" height="54" viewBox="0 0 66 54" fill="none" xmlns="http://www.w3.org/2000/svg">
<path d="M54.0733 7.86255C60.1761 8.93864 64.4111 13.7714 63.1638 20.8451L59.3696 42.3633C58.1223 49.437 52.4898 52.5298 46.387 51.4538L30.8131 48.7077C24.7103 47.6316 20.4753 42.7988 21.7226 35.7251L25.5169 14.2069C26.7641 7.13325 32.3966 4.04036 38.4994 5.11645L54.0733 7.86255Z" fill="#CCE1F2" stroke="#7FB4DE" stroke-linecap="round" stroke-linejoin="round" stroke-dasharray="3 3"/>
<path d="M41.7695 26.4141L42.6031 21.687C42.7549 20.8257 43.5953 20.2373 44.4566 20.3892C45.3179 20.5411 45.9063 21.3814 45.7544 22.2427L44.9209 26.9698L49.648 27.8033C50.5093 27.9552 51.0977 28.7955 50.9459 29.6568C50.794 30.5182 49.9537 31.1066 49.0923 30.9547L44.3653 30.1212L43.5317 34.8483C43.3799 35.7096 42.5395 36.298 41.6782 36.1461C40.8169 35.9942 40.2285 35.1539 40.3804 34.2926L41.2139 29.5655L36.4868 28.732C35.6255 28.5801 35.0371 27.7398 35.1889 26.8785C35.3408 26.0171 36.1811 25.4287 37.0425 25.5806L41.7695 26.4141Z" fill="#99C4E5"/>
<path fill-rule="evenodd" clip-rule="evenodd" d="M33.0008 18.187L38.7271 17.1773C39.8169 16.9852 40.8658 17.7196 41.0579 18.8094L43.5874 33.1548C44.8347 40.2285 40.5997 45.0613 34.4969 46.1374L18.923 48.8835C12.8202 49.9595 7.18775 46.8667 5.94047 39.793L2.14623 18.2748C0.89895 11.2011 5.13391 6.36833 11.2367 5.29225L19.6379 3.81089C20.7277 3.61874 21.7765 4.35317 21.9687 5.44293L22.9784 11.1693C23.8064 15.8652 28.3049 19.015 33.0008 18.187ZM15.61 36.6987L23.5357 35.3012C24.348 35.158 24.9029 34.3655 24.7597 33.5531C24.6165 32.7408 23.8239 32.1859 23.0116 32.3291L15.0859 33.7266C14.2736 33.8698 13.7187 34.6624 13.8619 35.4747C14.0051 36.287 14.7977 36.842 15.61 36.6987ZM14.2125 28.7731L26.101 26.6768C26.9133 26.5336 27.4683 25.741 27.325 24.9287C27.1818 24.1164 26.3892 23.5614 25.5769 23.7047L13.6884 25.8009C12.8761 25.9442 12.3211 26.7367 12.4644 27.549C12.6076 28.3614 13.4001 28.9163 14.2125 28.7731Z" fill="#016BBF"/>
<path d="M24.5605 4.27179C24.3614 3.14249 25.6704 2.33957 26.626 3.00878C28.9568 4.64082 32.4629 7.11956 35.5284 9.28681C36.9998 10.3271 38.3696 11.2956 39.4593 12.0642C40.3917 12.717 40.0313 14.1494 38.902 14.3485C36.6629 14.7433 34.0475 15.2045 32.1616 15.5166C29.1696 16.0442 26.2899 14.0798 25.7799 11.187L24.5605 4.27179Z" fill="#016BBF"/>
<path fill-rule="evenodd" clip-rule="evenodd" d="M15.6088 36.6992L23.5345 35.3017C24.3468 35.1585 24.9018 34.366 24.7585 33.5536C24.6153 32.7413 23.8227 32.1864 23.0104 32.3296L15.0847 33.7271C14.2724 33.8704 13.7175 34.6629 13.8607 35.4752C14.004 36.2875 14.7965 36.8425 15.6088 36.6992ZM14.2113 28.7736L26.0998 26.6773C26.9121 26.5341 27.4671 25.7415 27.3238 24.9292C27.1806 24.1169 26.3881 23.5619 25.5757 23.7052L13.6872 25.8014C12.8749 25.9447 12.32 26.7372 12.4632 27.5495C12.6064 28.3619 13.399 28.9168 14.2113 28.7736Z" fill="#CEE6F9"/>
</svg>
