<svg width="16" height="12" viewBox="0 0 16 12" fill="none" xmlns="http://www.w3.org/2000/svg">
<g clip-path="url(#clip0_1502_2619)">
<path fill-rule="evenodd" clip-rule="evenodd" d="M0 0H22.8V0.92345H0V0ZM0 1.84688H22.8V2.77033H0V1.84688ZM0 3.6914H22.8V4.61718H0V3.6914ZM0 5.53828H22.8V6.46172H0V5.53828ZM0 7.38515H22.8V8.3086H0V7.38515ZM0 9.22968H22.8V10.1531H0V9.22968ZM0 11.0766H22.8V12H0V11.0766Z" fill="#BD3D44"/>
<path fill-rule="evenodd" clip-rule="evenodd" d="M0 0.92334H22.8V1.84676H0V0.92334ZM0 2.77019H22.8V3.69129H0V2.77019ZM0 4.61474H22.8V5.53816H0V4.61474ZM0 6.46161H22.8V7.38504H0V6.46161ZM0 8.30849H22.8V9.23191H0V8.30849ZM0 10.153H22.8V11.0765H0V10.153Z" fill="white"/>
<path fill-rule="evenodd" clip-rule="evenodd" d="M0 0H9.11952V6.46173H0V0Z" fill="#192F5D"/>
<path fill-rule="evenodd" clip-rule="evenodd" d="M0.759753 0.276367L0.844128 0.531792H1.11133L0.895678 0.688842L0.977728 0.946642L0.759753 0.787267L0.544128 0.944292L0.626153 0.688842L0.408203 0.531792H0.680078L0.759753 0.276367ZM2.28085 0.276367L2.36288 0.531792H2.6324L2.41443 0.688842L2.49648 0.946642L2.28085 0.787267L2.06288 0.944292L2.1449 0.688842L1.92928 0.531792H2.19648L2.28085 0.276367ZM3.7996 0.276367L3.88398 0.531817H4.14883L3.9332 0.688867L4.0152 0.946667L3.79725 0.787292L3.58163 0.944317L3.66365 0.688867L3.44568 0.531817H3.71523L3.7996 0.276367ZM5.3207 0.276367L5.4027 0.531817H5.67225L5.45428 0.688867L5.53865 0.946667L5.32068 0.787292L5.10273 0.944317L5.1871 0.688867L4.96913 0.531817H5.23633L5.3207 0.276367ZM6.83945 0.276367L6.92383 0.531817H7.191L6.97538 0.688867L7.0574 0.946667L6.83943 0.787292L6.6238 0.944317L6.70585 0.688867L6.49023 0.531817H6.7574L6.83945 0.276367ZM8.36053 0.276367L8.44255 0.531817H8.7121L8.49413 0.688867L8.5785 0.946667L8.36053 0.787292L8.14255 0.944317L8.22693 0.688867L8.00898 0.531817H8.2785L8.36053 0.276367ZM1.52148 0.923192L1.6035 1.17869H1.87303L1.65505 1.33569L1.73475 1.59119L1.5238 1.43414L1.30585 1.59117L1.38318 1.33572L1.17225 1.17867H1.43945L1.52148 0.923192ZM3.04023 0.923192L3.1246 1.17869H3.39178L3.1738 1.33569L3.2582 1.59119L3.0402 1.43414L2.82225 1.59117L2.90663 1.33572L2.68865 1.17867H2.95818L3.04023 0.923192ZM4.56133 0.923192L4.64333 1.17869H4.91288L4.6949 1.33569L4.77693 1.59119L4.5613 1.43414L4.34335 1.59117L4.42538 1.33574L4.20975 1.17869H4.47695L4.56133 0.923192ZM6.08008 0.923192L6.16445 1.17869H6.43163L6.21365 1.33569L6.29803 1.59119L6.08005 1.43414L5.86443 1.59117L5.94648 1.33572L5.7285 1.17867H6.00038L6.08008 0.923192ZM7.60115 0.923192L7.68318 1.17869H7.95273L7.73475 1.33569L7.81678 1.59119L7.60115 1.43414L7.38318 1.59117L7.46523 1.33572L7.2496 1.17867H7.51678L7.60115 0.923192ZM0.759753 1.56779L0.844128 1.82794H1.11133L0.895678 1.98497L0.977728 2.24044L0.759753 2.08107L0.544128 2.24044L0.626153 1.98262L0.408203 1.82562H0.680078L0.759753 1.56779ZM2.28085 1.56779L2.36288 1.82554H2.6324L2.41443 1.98257L2.49648 2.23807L2.28085 2.07867L2.06288 2.23804L2.1449 1.98024L1.92928 1.82322H2.19648L2.28085 1.56779ZM3.7996 1.56779L3.88398 1.82559H4.14883L3.9332 1.98262L4.0152 2.23812L3.79725 2.07872L3.58163 2.23809L3.66365 1.98029L3.44568 1.82327H3.71523L3.7996 1.56779ZM5.3207 1.56779L5.4027 1.82559H5.67225L5.45428 1.98262L5.53865 2.23812L5.32068 2.07872L5.10273 2.23809L5.1871 1.98029L4.96913 1.82327H5.23633L5.3207 1.56779ZM6.83945 1.56779L6.92383 1.82559H7.191L6.97538 1.98259L7.0574 2.23809L6.83943 2.07869L6.6238 2.23807L6.70585 1.98027L6.49023 1.82324H6.7574L6.83945 1.56779ZM8.36053 1.56779L8.44255 1.82559H8.7121L8.49413 1.98262L8.5785 2.23812L8.36053 2.07872L8.14255 2.23809L8.22693 1.98029L8.00898 1.82327H8.2785L8.36053 1.56779ZM1.52148 2.21464L1.6035 2.47012H1.87303L1.65505 2.62712L1.7371 2.88494L1.52148 2.72557L1.3035 2.88259L1.38553 2.62714L1.1699 2.47012H1.43713L1.52148 2.21464ZM3.04023 2.21464L3.1246 2.47012H3.39178L3.1738 2.62712L3.2582 2.88494L3.0402 2.72557L2.82225 2.88259L2.90663 2.62714L2.68865 2.47012H2.95818L3.04023 2.21464ZM4.56133 2.21464L4.64333 2.47012H4.91288L4.6949 2.62712L4.77693 2.88494L4.5613 2.72557L4.34335 2.88259L4.42538 2.62714L4.20975 2.47012H4.47695L4.56133 2.21464ZM6.08008 2.21464L6.16445 2.47012H6.43163L6.216 2.62712L6.29803 2.88494L6.08005 2.72557L5.86443 2.88259L5.94648 2.62714L5.7285 2.47012H6.00038L6.08008 2.21464ZM7.60115 2.21464L7.68318 2.47012H7.95273L7.73475 2.62712L7.81678 2.88494L7.60115 2.72557L7.38318 2.88259L7.46523 2.62714L7.2496 2.47012H7.51678L7.60115 2.21464ZM0.759753 2.86152L0.844128 3.11699H1.11133L0.895678 3.27399L0.977728 3.53182L0.759753 3.37244L0.544128 3.52947L0.626153 3.27402L0.408203 3.11699H0.680078L0.759753 2.86152ZM2.28085 2.86152L2.36288 3.11699H2.6324L2.41443 3.27399L2.49648 3.52949L2.28085 3.37244L2.06288 3.52947L2.1449 3.27402L1.92928 3.11699H2.19648L2.28085 2.86152ZM3.7996 2.86152L3.88398 3.11699H4.14883L3.9332 3.27399L4.0152 3.53182L3.79725 3.37244L3.58163 3.52947L3.66365 3.27402L3.44568 3.11699H3.71523L3.7996 2.86152ZM5.3207 2.86152L5.4027 3.11699H5.67225L5.45428 3.27399L5.53865 3.53182L5.32068 3.37244L5.10273 3.52947L5.1871 3.27402L4.96913 3.11699H5.23633L5.3207 2.86152ZM6.83945 2.86152L6.92383 3.11699H7.191L6.97538 3.27399L7.0574 3.53182L6.83943 3.37244L6.6238 3.52947L6.70585 3.27402L6.49023 3.11699H6.7574L6.83945 2.86152ZM8.36053 2.86152L8.44255 3.11699H8.7121L8.49413 3.27399L8.5785 3.53182L8.36053 3.37244L8.14255 3.52947L8.22693 3.27402L8.00898 3.11699H8.2785L8.36053 2.86152ZM1.52148 3.50839L1.6035 3.76387H1.87303L1.65505 3.92087L1.7371 4.17637L1.52148 4.01699L1.3035 4.17637L1.38553 3.91854L1.1699 3.76152H1.43713L1.52148 3.50839ZM3.04023 3.50839L3.1246 3.76387H3.39178L3.1738 3.92087L3.2582 4.17637L3.0402 4.01699L2.82225 4.17637L2.90663 3.91854L2.68865 3.76152H2.95818L3.04023 3.50839ZM4.56133 3.50839L4.64333 3.76387H4.91288L4.6949 3.92087L4.77693 4.17637L4.5613 4.01699L4.34335 4.17637L4.42538 3.91854L4.20975 3.76152H4.47695L4.56133 3.50839ZM6.08008 3.50839L6.16445 3.76387H6.43163L6.216 3.92087L6.29803 4.17637L6.08005 4.01699L5.86443 4.17637L5.94648 3.91854L5.7285 3.76152H6.00038L6.08008 3.50839ZM7.60115 3.50839L7.68318 3.76387H7.95273L7.73475 3.92087L7.81678 4.17637L7.60115 4.01699L7.38318 4.17637L7.46523 3.91854L7.2496 3.76152H7.51678L7.60115 3.50839ZM0.759753 4.15292L0.844128 4.41074H1.11133L0.895678 4.56774L0.977728 4.82089L0.759753 4.66387L0.544128 4.82087L0.626153 4.56542L0.408203 4.40839H0.680078L0.759753 4.15292ZM2.28085 4.15292L2.36288 4.41074H2.6324L2.41443 4.56774L2.49883 4.82089L2.28083 4.66387L2.06288 4.82087L2.14725 4.56542L1.92928 4.40839H2.19648L2.28085 4.15292ZM3.7996 4.15292L3.88398 4.41074H4.14883L3.9332 4.56774L4.0152 4.82089L3.79725 4.66387L3.58163 4.82087L3.66365 4.56542L3.44568 4.40839H3.71523L3.7996 4.15292ZM5.3207 4.15292L5.4027 4.41074H5.67225L5.45428 4.56774L5.53865 4.82089L5.32068 4.66387L5.10273 4.82087L5.1871 4.56542L4.96913 4.40839H5.23633L5.3207 4.15292ZM6.83945 4.15292L6.92383 4.41074H7.191L6.97538 4.56774L7.0574 4.82089L6.83943 4.66387L6.6238 4.82087L6.70585 4.56542L6.49023 4.40839H6.7574L6.83945 4.15292ZM8.36053 4.15292L8.44255 4.41074H8.7121L8.49413 4.56774L8.5785 4.82089L8.36053 4.66387L8.14255 4.82087L8.22693 4.56542L8.00898 4.40839H8.2785L8.36053 4.15292ZM1.52148 4.79979L1.6035 5.05527H1.87303L1.65505 5.21229L1.7371 5.47012L1.52148 5.31074L1.3035 5.46774L1.38553 5.21229L1.1699 5.05527H1.43713L1.52148 4.79979ZM3.04023 4.79979L3.1246 5.05527H3.39178L3.1738 5.21229L3.2582 5.47012L3.0402 5.31074L2.82225 5.46774L2.90663 5.21229L2.68865 5.05527H2.95818L3.04023 4.79979ZM4.56133 4.79979L4.64333 5.05527H4.91288L4.6949 5.21229L4.77693 5.47012L4.5613 5.31074L4.34335 5.46774L4.42538 5.21229L4.20975 5.05527H4.47695L4.56133 4.79979ZM6.08008 4.79979L6.16445 5.05527H6.43163L6.216 5.21229L6.29803 5.47012L6.08005 5.31074L5.86443 5.46774L5.94648 5.21229L5.7285 5.05527H6.00038L6.08008 4.79979ZM7.60115 4.79979L7.68318 5.05527H7.95273L7.73475 5.21229L7.81678 5.47012L7.60115 5.31074L7.38318 5.46774L7.46523 5.21229L7.2496 5.05527H7.51678L7.60115 4.79979ZM0.759753 5.44667L0.844128 5.70214H1.11133L0.895678 5.85917L0.977728 6.11464L0.759753 5.95762L0.544128 6.11462L0.626153 5.85682L0.408203 5.69979H0.680078L0.759753 5.44667ZM2.28085 5.44667L2.36288 5.70214H2.6324L2.41443 5.85917L2.49883 6.11464L2.28083 5.95762L2.06288 6.11462L2.14725 5.85682L1.92928 5.69979H2.19648L2.28085 5.44667ZM3.7996 5.44667L3.88398 5.70214H4.14883L3.93788 5.85917L4.0199 6.11464L3.80193 5.95762L3.5863 6.11462L3.66835 5.85682L3.45038 5.69979H3.7199L3.7996 5.44667ZM5.3207 5.44667L5.4027 5.70214H5.67225L5.45428 5.85917L5.53865 6.11464L5.32068 5.95762L5.10273 6.11462L5.1871 5.85682L4.96913 5.69979H5.23633L5.3207 5.44667ZM6.83945 5.44667L6.92383 5.70214H7.191L6.97538 5.85917L7.0574 6.11464L6.83943 5.95762L6.6238 6.11462L6.70585 5.85682L6.49023 5.69979H6.7574L6.83945 5.44667ZM8.36053 5.44667L8.44255 5.70214H8.7121L8.49413 5.85917L8.5785 6.11464L8.36053 5.95762L8.14255 6.11462L8.22693 5.85682L8.00898 5.69979H8.2785L8.36053 5.44667Z" fill="white"/>
</g>
<defs>
<clipPath id="clip0_1502_2619">
<rect width="16" height="12" fill="white"/>
</clipPath>
</defs>
</svg>
