<svg width="26" height="40" viewBox="0 0 26 40" fill="none" xmlns="http://www.w3.org/2000/svg">
<path d="M0.5 24C0.5 21.7909 2.29086 20 4.5 20H21.5C23.7091 20 25.5 21.7909 25.5 24V37.25C25.5 39.4591 23.7091 41.25 21.5 41.25H4.5C2.29086 41.25 0.5 39.4591 0.5 37.25V24Z" fill="#016BBF"/>
<rect x="9.25" y="13.75" width="7.5" height="6.25" fill="#EFC5BC"/>
<path d="M6.75 6.5C6.75 4.29086 8.54086 2.5 10.75 2.5H15.25C17.4591 2.5 19.25 4.29086 19.25 6.5V13.5C19.25 15.7091 17.4591 17.5 15.25 17.5H10.75C8.54086 17.5 6.75 15.7091 6.75 13.5V6.5Z" fill="#F3D1CA"/>
<path d="M5.5 2.5C5.5 1.11929 6.61929 0 8 0H20.5V2C20.5 3.65685 19.1569 5 17.5 5H8C6.61929 5 5.5 3.88071 5.5 2.5Z" fill="black"/>
<path d="M5.5 2.5C6.88071 2.5 8 3.61929 8 5V11.25C8 11.9404 7.44036 12.5 6.75 12.5C6.05964 12.5 5.5 11.9404 5.5 11.25V2.5Z" fill="black"/>
<path d="M18 5C18 4.30964 18.5596 3.75 19.25 3.75C19.9404 3.75 20.5 4.30964 20.5 5V10C20.5 11.3807 19.3807 12.5 18 12.5V5Z" fill="black"/>
<circle cx="10.5" cy="8.75" r="1.25" fill="black"/>
<circle cx="15.5" cy="8.75" r="1.25" fill="black"/>
</svg>
