<svg width="80" height="80" viewBox="0 0 80 80" fill="none" xmlns="http://www.w3.org/2000/svg">
<circle cx="40" cy="40" r="40" fill="#D8EBFA"/>
<mask id="mask0_6230_36416" style="mask-type:alpha" maskUnits="userSpaceOnUse" x="0" y="0" width="80" height="80">
<circle cx="40" cy="40" r="40" fill="#CEE6F9"/>
</mask>
<g mask="url(#mask0_6230_36416)">
<path d="M20 52.0009C20 49.7917 21.7909 48.0009 24 48.0009H56C58.2091 48.0009 60 49.7917 60 52.0009V78.0009C60 80.21 58.2091 82.0009 56 82.0009H24C21.7909 82.0009 20 80.21 20 78.0009V52.0009Z" fill="#016BBF"/>
<rect x="33.9995" y="38.0009" width="12" height="10" fill="#EFC5BC"/>
<path d="M30 24.0015C30 21.7924 31.7909 20.0015 34 20.0015H46C48.2091 20.0015 50 21.7924 50 24.0015V40.0015C50 42.2107 48.2091 44.0015 46 44.0015H34C31.7909 44.0015 30 42.2107 30 40.0015V24.0015Z" fill="#F3D1CA"/>
<path d="M27.9995 19.0002C27.9995 17.3433 29.3427 16.0002 30.9995 16.0002H51.9995V21.0002C51.9995 22.657 50.6564 24.0002 48.9995 24.0002H30.9995C29.3427 24.0002 27.9995 22.657 27.9995 21.0002V19.0002Z" fill="black"/>
<path d="M27.9995 20.0015H28.9995C30.6564 20.0015 31.9995 21.3447 31.9995 23.0015V34.0015C31.9995 35.1061 31.1041 36.0015 29.9995 36.0015C28.8949 36.0015 27.9995 35.1061 27.9995 34.0015V20.0015Z" fill="black"/>
<path d="M48 23.9988C48 22.8942 48.8954 21.9988 50 21.9988C51.1046 21.9988 52 22.8942 52 23.9988V32.9988C52 34.6557 50.6569 35.9988 49 35.9988H48V23.9988Z" fill="black"/>
<circle cx="35.9995" cy="30.0009" r="2" fill="black"/>
<circle cx="44.0005" cy="30.0009" r="2" fill="black"/>
</g>
<rect x="36.0005" y="37.9993" width="8" height="2" rx="1" fill="black"/>
<circle cx="39.9995" cy="57.9986" r="2" fill="#CEE6F9"/>
<circle cx="39.9995" cy="66.0014" r="2" fill="#CEE6F9"/>
<circle cx="39.9995" cy="74.0007" r="2" fill="#CEE6F9"/>
</svg>
