<svg width="34" height="34" viewBox="0 0 34 34" fill="none" xmlns="http://www.w3.org/2000/svg">
<path d="M31.1663 17.2471C31.1655 16.9839 31.1494 16.7209 31.1182 16.4595C31.0923 16.2659 31.0447 16.0758 30.9765 15.8928C30.9203 15.3232 30.6542 14.7948 30.23 14.4105C29.8059 14.0261 29.2539 13.8132 28.6815 13.8131H28.639C28.5874 13.7587 28.5478 13.694 28.5228 13.6233C27.7805 11.6815 27.0316 9.74354 26.276 7.80932C25.7093 6.39265 24.7262 5.68148 23.216 5.67865C19.0718 5.66543 14.9266 5.66448 10.7805 5.67581C10.1855 5.66472 9.59845 5.81344 9.08051 6.10648C8.42395 6.5152 7.9324 7.14219 7.69217 7.87732C6.98951 9.69915 6.27551 11.5181 5.58701 13.3456C5.53781 13.5093 5.45801 13.6622 5.35184 13.7961H5.32067C4.74422 13.796 4.18861 14.0118 3.7633 14.4009C3.338 14.79 3.07383 15.3243 3.02284 15.8985C2.90243 16.2642 2.84122 16.6468 2.84151 17.0318C2.83301 19.494 2.83301 21.9448 2.83301 24.4013C2.83301 24.4693 2.83301 24.5401 2.85001 24.6308H5.11667C5.11667 24.747 5.11667 24.8433 5.11667 24.9368C5.11667 25.7868 5.10251 26.6368 5.14501 27.5038C5.1514 27.8629 5.26409 28.212 5.46884 28.507C5.67359 28.802 5.96121 29.0297 6.29534 29.1613C6.61918 29.3148 6.97854 29.3777 7.33525 29.3432C7.69195 29.3088 8.03266 29.1784 8.32117 28.9658C8.59385 28.7763 8.81456 28.5213 8.96308 28.2243C9.11159 27.9272 9.18314 27.5977 9.17117 27.2658C9.17117 26.396 9.17117 25.5233 9.17117 24.6336H24.8338C24.8338 24.8178 24.8338 24.985 24.8338 25.1521C24.8338 25.9596 24.8168 26.77 24.882 27.5718C24.954 28.0567 25.2018 28.4982 25.5783 28.8123C25.9547 29.1263 26.4335 29.2909 26.9234 29.2748C27.4134 29.2587 27.8803 29.063 28.2353 28.725C28.5904 28.3869 28.8087 27.9301 28.8487 27.4415C28.8798 26.5915 28.8657 25.7613 28.8713 24.9226C28.8713 24.8291 28.8713 24.7356 28.8713 24.611H31.1663V24.3106C31.1663 21.9533 31.1663 19.5988 31.1663 17.2471ZM8.11717 12.2916C8.58184 11.0535 9.03801 9.80965 9.51401 8.57431C9.60395 8.28398 9.7903 8.03305 10.0422 7.86303C10.2942 7.69301 10.5966 7.61409 10.8995 7.63932H23.114C23.4168 7.61293 23.7194 7.69182 23.9708 7.86268C24.2222 8.03353 24.4069 8.28589 24.4938 8.57715C25.137 10.2771 25.7632 11.9771 26.3978 13.6601C26.4103 13.7038 26.4198 13.7483 26.4262 13.7933H7.55901C7.75167 13.2748 7.93301 12.7846 8.11717 12.2916ZM7.20767 20.225C6.63507 20.2208 6.08756 19.9894 5.6856 19.5816C5.28363 19.1738 5.06012 18.623 5.06426 18.0504C5.06839 17.4778 5.29982 16.9303 5.70763 16.5283C6.11545 16.1263 6.66624 15.9028 7.23884 15.907C7.7828 15.9506 8.29008 16.1985 8.65864 16.6009C9.0272 17.0034 9.22969 17.5304 9.22538 18.0761C9.22108 18.6218 9.01029 19.1456 8.63542 19.5422C8.26055 19.9388 7.74942 20.1787 7.20484 20.2136L7.20767 20.225ZM26.8058 20.225C26.3766 20.2385 25.9531 20.1238 25.5893 19.8956C25.2255 19.6674 24.9379 19.336 24.7631 18.9437C24.5884 18.5514 24.5345 18.116 24.6083 17.6929C24.682 17.2698 24.8801 16.8783 25.1773 16.5683C25.4744 16.2583 25.8572 16.0438 26.2768 15.9521C26.6963 15.8605 27.1337 15.896 27.533 16.0539C27.9324 16.2118 28.2757 16.4851 28.5191 16.839C28.7625 17.1928 28.895 17.6111 28.8997 18.0405C28.9076 18.3215 28.8594 18.6013 28.7581 18.8635C28.6567 19.1257 28.504 19.365 28.3091 19.5676C28.1142 19.7702 27.8809 19.9319 27.6228 20.0433C27.3647 20.1547 27.0869 20.2136 26.8058 20.2165V20.225Z" fill="#016BBF"/>
</svg>
