<svg width="806" height="348" viewBox="0 0 806 348" fill="none" xmlns="http://www.w3.org/2000/svg">
<path fill-rule="evenodd" clip-rule="evenodd" d="M294.5 147C284.854 147 277 134.661 277 119.495C277 104.339 284.847 92 294.5 92C304.153 92 312 104.329 312 119.495C312 134.661 304.146 147 294.5 147ZM288.08 100.213C283.534 103.962 280.649 111.372 280.649 119.495C280.649 127.668 283.553 135.087 288.136 138.817L291.621 124.663C290.649 123.234 290.081 121.221 290.081 119.088C290.081 117.105 290.567 115.23 291.432 113.821L288.08 100.213ZM294.5 141.267C301.356 141.267 307.183 133.262 308.193 122.758L299.222 122.679C298.477 124.871 297.082 126.369 295.516 126.666L292.006 140.91C292.827 141.148 293.66 141.267 294.5 141.267ZM294.929 121.786C295.864 121.786 296.621 120.606 296.621 119.138C296.621 117.67 295.864 116.48 294.929 116.48C293.995 116.48 293.244 117.67 293.244 119.138C293.244 120.606 293.995 121.786 294.929 121.786ZM299.449 116.261L308.206 116.341C307.221 105.787 301.394 97.7331 294.5 97.7331C293.641 97.7331 292.789 97.862 291.943 98.11L295.239 111.481C297.139 111.659 298.761 113.524 299.449 116.261Z" fill="#B3D3EC"/>
<path fill-rule="evenodd" clip-rule="evenodd" d="M790.981 71.9465C791.293 72.7034 791.59 73.5048 791.887 74.3358C802.483 103.913 806 173.589 806 173.589C806 173.589 805.866 176.171 805.57 180.564C805.525 181.172 805.481 181.825 805.436 182.508C805.317 184.259 805.169 186.248 805.006 188.414C804.946 189.171 804.887 189.973 804.813 190.789C804.807 190.883 804.799 190.979 804.79 191.076C804.777 191.225 804.762 191.378 804.753 191.531C804.726 191.898 804.696 192.268 804.665 192.642C804.629 193.083 804.593 193.529 804.561 193.98C804.487 194.858 804.407 195.753 804.325 196.673C804.275 197.23 804.225 197.796 804.175 198.372C804.134 198.912 804.082 199.463 804.028 200.027L804.011 200.198C803.98 200.551 803.946 200.909 803.911 201.272C803.864 201.763 803.817 202.262 803.774 202.765C803.715 203.374 803.655 203.997 803.596 204.635C803.284 207.766 802.958 211.046 802.587 214.4C802.38 216.29 802.159 218.208 801.937 220.128L801.934 220.158C801.592 223.008 801.221 225.901 800.836 228.795C800.465 231.57 800.064 234.346 799.648 237.106C799.441 238.515 799.218 239.925 798.996 241.334L798.995 241.335C798.669 243.324 798.328 245.313 797.971 247.257C797.838 248.043 797.689 248.83 797.541 249.616C797.417 250.267 797.289 250.917 797.162 251.565C797.059 252.085 796.957 252.604 796.858 253.119C796.829 253.252 796.814 253.386 796.784 253.505C796.428 255.197 796.072 256.844 795.716 258.461C795.665 258.673 795.616 258.884 795.567 259.095C795.458 259.566 795.349 260.034 795.226 260.495C795.092 261.088 794.944 261.667 794.795 262.246C794.469 263.611 794.113 264.947 793.742 266.238C793.593 266.787 793.43 267.336 793.267 267.87C792.718 269.755 792.124 271.551 791.516 273.198C791.263 273.895 791.011 274.563 790.744 275.201C782.093 296.481 754.803 307.672 735.553 315.566C734.262 316.095 733.008 316.609 731.798 317.111C727.316 318.981 723.443 320.673 720.578 322.29C713.292 326.401 626 329.132 537.343 330.853C441.622 332.738 344.299 333.435 344.299 333.435L344.195 347.4V347.519H335.246L335.157 347.4L323.121 330.898C323.121 330.898 291.318 329.443 268.672 328.39C261.058 328.033 254.484 327.722 250.492 327.529C245.715 327.297 234.444 328.081 219.433 329.126C184.504 331.557 129.323 335.397 88.5827 331.12C83.433 330.586 78.6544 329.384 74.2023 327.648C73.4751 327.366 72.7479 327.069 72.0356 326.742C70.6109 326.119 69.2159 325.436 67.8654 324.694C67.257 324.368 66.6633 324.041 66.0845 323.685C65.3425 323.255 64.6153 322.81 63.903 322.35C63.3391 321.979 62.7751 321.608 62.226 321.222C61.113 320.45 60.0296 319.649 58.976 318.803C58.605 318.521 58.2488 318.224 57.8926 317.927C55.6814 316.102 53.574 314.128 51.5706 312.035C51.1105 311.575 50.6653 311.1 50.2349 310.611C48.9735 309.245 47.7714 307.836 46.6139 306.396C46.4075 306.148 46.2084 305.894 46.0114 305.642C45.925 305.531 45.8391 305.421 45.7531 305.313C40.4106 298.501 35.9139 290.932 32.0999 283.334C31.5508 282.251 31.0314 281.182 30.512 280.099C29.7254 278.466 28.9537 276.819 28.2265 275.201L27.3361 273.198C25.0804 268.063 23.0917 263.077 21.3257 258.491C21.1096 257.927 20.8935 257.369 20.6812 256.821C20.5581 256.504 20.4364 256.189 20.3166 255.879C19.9892 255.024 19.6691 254.185 19.3558 253.364C17.1416 247.559 15.2692 242.651 13.579 239.258C13.4306 238.946 13.2822 238.649 13.119 238.367C12.4808 237.15 11.8575 236.171 11.2491 235.474C11.1452 235.34 11.0265 235.221 10.9226 235.117C10.3586 234.539 9.80954 234.227 9.26044 234.182C0.460054 233.485 0 184.764 0 174.524V171.526C0 163.23 0.356171 111.793 9.39401 111.11C9.52757 111.096 9.67598 111.066 9.80954 111.021C10.7445 110.725 11.6794 109.656 12.6737 107.979C12.8072 107.757 12.941 107.534 13.0744 107.297C13.1619 107.138 13.2493 106.974 13.339 106.807C13.4168 106.662 13.4963 106.513 13.579 106.362C13.6475 106.217 13.7198 106.069 13.7941 105.916C13.8647 105.771 13.937 105.623 14.0094 105.471C15.1224 103.186 16.3097 100.277 17.6156 96.923C17.8248 96.4166 18.0258 95.8938 18.2308 95.3608C18.3021 95.1753 18.3739 94.9886 18.4467 94.8008C18.9209 93.598 19.4041 92.3321 19.9033 91.0242C20.0447 90.6538 20.1873 90.2801 20.3314 89.9035C20.4271 89.6642 20.5197 89.4218 20.6134 89.1763C20.7232 88.8887 20.8347 88.5969 20.9547 88.3007C21.4593 87.0096 21.9787 85.674 22.513 84.2938C22.7269 83.75 22.9462 83.2009 23.1676 82.6465C23.3148 82.2778 23.463 81.9068 23.6112 81.5335C23.9815 80.63 24.3665 79.6969 24.7516 78.7637L24.7539 78.7583C25.0062 78.1202 25.2733 77.482 25.5404 76.8439C25.8818 76.0128 26.2379 75.1818 26.6089 74.3358H26.6238C26.7128 74.0836 26.8315 73.8164 26.9503 73.5641C27.2975 72.7504 27.6605 71.9445 28.0279 71.1292C28.163 70.8294 28.2986 70.5283 28.4343 70.225C30.9275 64.6895 33.762 59.0205 36.9824 53.5147C37.7838 52.1345 38.6149 50.7692 39.4756 49.4187C40.1138 48.4096 40.7667 47.4004 41.4494 46.4061C42.1172 45.4118 42.7999 44.4323 43.5122 43.4529C45.4415 40.7816 47.5043 38.1845 49.7007 35.7358C50.1311 35.2461 50.5763 34.7563 51.0215 34.2666C54.0786 31.0017 57.3732 27.9891 60.9646 25.3475C61.3356 25.0655 61.6918 24.7984 62.0628 24.5461C62.9829 23.8931 63.9327 23.255 64.9122 22.6614C65.2535 22.4388 65.5948 22.231 65.9213 22.0381C68.5332 20.465 71.2935 19.0848 74.2023 17.9421C78.7583 16.1464 83.6556 14.9147 88.9537 14.3656C129.685 10.1846 184.827 14.1557 219.751 16.6707C234.783 17.7533 246.07 18.5661 250.848 18.3428C251.729 18.3029 252.736 18.257 253.851 18.2062C257.713 18.0302 262.879 17.7948 268.672 17.5414C291.363 16.5323 323.492 15.1521 323.492 15.1521L333.139 0.133564L333.228 0H344.833V0.133564L344.67 12.6589C344.67 12.6589 441.741 13.5939 537.343 15.6864C626.134 17.6305 713.648 20.5689 720.935 24.7094C722.582 25.6443 724.585 26.6089 726.841 27.6181C727.153 27.7665 727.479 27.9149 727.82 28.0485C729.082 28.5976 730.418 29.1763 731.798 29.7551C733.075 30.2886 734.403 30.8366 735.772 31.4015C745.029 35.2214 756.164 39.8161 766.183 45.9312C766.276 45.9877 766.37 46.0441 766.464 46.1009C766.717 46.253 766.973 46.4072 767.222 46.5694C768.29 47.2372 769.329 47.9198 770.368 48.6173C770.769 48.8845 771.169 49.1664 771.555 49.4484C771.808 49.6116 772.045 49.7897 772.283 49.9678C772.609 50.1904 772.935 50.4279 773.262 50.6802C773.9 51.1402 774.523 51.6151 775.132 52.09L776.111 52.8914C776.223 52.9806 776.334 53.0735 776.446 53.1664C776.557 53.259 776.668 53.3516 776.779 53.4405C782.255 58.0262 786.871 63.3094 789.883 69.483C789.92 69.5595 789.956 69.635 789.992 69.7102C790.104 69.9412 790.213 70.1679 790.314 70.4031C790.551 70.9077 790.774 71.4271 790.981 71.9465ZM777.373 69.6759C772.846 58.8424 736.042 44.6401 736.042 44.6401C736.042 44.6401 734.009 48.6767 736.027 52.2087C736.939 53.8043 742.581 56.7444 749.097 60.14C757.005 64.2611 766.201 69.053 769.789 72.926C770.146 73.3119 770.487 73.7868 770.813 74.3358C774.249 80.1224 775.776 94.3639 776.993 105.711C777.758 112.844 778.4 118.833 779.317 120.861C781.84 126.411 785.876 120.861 785.876 120.861C785.876 120.861 782.745 89.0427 778.857 74.3358C778.382 72.4808 777.877 70.8929 777.373 69.6759ZM584.477 41.9243L341.612 41.6275C341.612 41.6275 399.832 71.2045 421.781 69.7205C428.622 69.257 446.51 69.4718 468.05 69.7304C489.966 69.9935 515.661 70.3019 537.343 69.9876C562.646 69.6463 582.473 68.459 584.447 65.3722C589.76 57.0616 584.477 41.9243 584.477 41.9243ZM80.3462 44.1652C80.3462 44.1652 77.9124 44.8479 74.2023 47.0294C67.9841 50.6802 58.1449 58.5159 49.9975 74.3358C45.7828 82.4833 42.0133 92.7528 39.4163 105.664C39.4163 105.664 62.226 108.528 74.2023 88.4194C74.5584 87.811 74.9146 87.1877 75.256 86.5347C77.6304 81.9935 79.901 77.9569 81.9787 74.3358C82.8464 72.8204 83.6797 71.3802 84.472 70.0108C91.0503 58.6407 94.7976 52.1637 91.9366 48.2166C87.9149 42.6663 86.2676 41.4346 80.3462 44.1652ZM80.0346 305.891C85.9559 308.652 87.6032 307.405 91.6398 301.87C94.5007 297.934 90.778 291.465 84.2522 280.123C83.0259 277.992 81.7008 275.689 80.3017 273.198C78.6396 270.245 76.8736 267.024 75.0482 263.522C74.7811 263.003 74.4991 262.483 74.2023 261.993C62.3299 241.439 39.253 244.304 39.253 244.304C41.5681 255.953 44.833 265.466 48.5283 273.198C57.017 290.977 67.717 299.421 74.2023 303.191C77.7492 305.238 80.0346 305.891 80.0346 305.891ZM278.437 273.198C283.364 284.135 287.103 290.25 287.103 290.25C287.103 290.25 355.473 279.728 380.212 273.198C385.525 271.803 388.835 270.586 389.013 269.696C389.217 268.674 388.621 262.726 387.687 253.412C384.011 216.744 375.105 127.9 389.235 82.0529C389.235 82.0529 391.773 79.5152 376.265 74.3358C363.309 70.0024 337.695 63.814 287.385 55.7111C287.385 55.7111 282.191 62.1518 275.943 74.3358C266.401 92.9903 254.41 125.12 254.974 168.157C255.582 214.652 269.117 252.54 278.437 273.198ZM584.165 304.734C584.165 304.734 589.478 289.611 584.195 281.286C582.236 278.199 562.527 276.967 537.343 276.552C515.767 276.195 490.175 276.442 468.279 276.654C446.53 276.865 428.428 277.04 421.528 276.552C399.594 275.023 341.301 304.452 341.301 304.452L584.165 304.734ZM630.957 290.413C630.957 290.413 645.04 285.887 660.979 273.198C681.83 256.621 705.871 226.08 705.738 173.485C705.619 121.039 681.919 90.8681 660.593 74.3358C643.096 60.7717 627.202 56.3789 627.202 56.3789L596.898 90.6307L596.705 249.008L630.957 290.413ZM777.432 275.899C777.521 275.647 777.625 275.379 777.714 275.098C777.922 274.519 778.115 273.881 778.308 273.198C778.352 273.027 778.401 272.857 778.449 272.686C778.497 272.515 778.545 272.345 778.59 272.174C778.664 271.922 778.738 271.655 778.797 271.387C778.842 271.209 778.887 271.035 778.931 270.861C778.976 270.686 779.02 270.512 779.065 270.334C779.135 270.053 779.2 269.762 779.266 269.466C779.311 269.262 779.357 269.056 779.406 268.85C779.539 268.286 779.673 267.692 779.792 267.099C780 266.134 780.192 265.154 780.385 264.13C780.46 263.804 780.519 263.477 780.578 263.136C781.023 260.762 781.454 258.268 781.855 255.746C781.914 255.381 781.97 255.017 782.026 254.653C782.081 254.29 782.137 253.927 782.196 253.564C782.315 252.837 782.419 252.11 782.522 251.382C782.597 250.893 782.671 250.403 782.73 249.913C782.775 249.676 782.804 249.438 782.834 249.201C782.935 248.493 783.036 247.799 783.138 247.106L783.146 247.049C783.205 246.619 783.264 246.203 783.324 245.788C783.398 245.209 783.472 244.63 783.546 244.066C784.125 239.822 784.6 235.889 784.956 232.743C784.986 232.476 785.016 232.223 785.045 231.986C785.092 231.567 785.138 231.164 785.183 230.779C785.223 230.429 785.262 230.093 785.298 229.775C785.321 229.589 785.34 229.404 785.359 229.223C785.377 229.056 785.395 228.893 785.416 228.736C785.448 228.416 785.48 228.118 785.51 227.842C785.535 227.605 785.559 227.383 785.58 227.178C785.601 227.039 785.615 226.909 785.626 226.791C785.63 226.745 785.635 226.7 785.639 226.658C785.713 225.916 785.758 225.516 785.758 225.516C785.758 225.516 781.736 219.965 779.198 225.516C779.124 225.679 779.05 225.887 778.976 226.109C778.949 226.179 778.928 226.249 778.906 226.322C778.891 226.373 778.875 226.425 778.857 226.48C778.797 226.658 778.753 226.851 778.708 227.059C778.649 227.282 778.59 227.519 778.545 227.786C778.486 228.041 778.434 228.315 778.38 228.599C778.352 228.746 778.323 228.896 778.293 229.048C778.263 229.3 778.219 229.552 778.174 229.819C778.026 230.725 777.877 231.734 777.744 232.817C777.684 233.277 777.625 233.737 777.566 234.227C777.566 234.271 777.551 234.316 777.551 234.346C777.479 234.982 777.402 235.641 777.323 236.318C777.271 236.761 777.218 237.212 777.165 237.67C777.135 237.893 777.106 238.115 777.091 238.353L777.09 238.356C777.046 238.711 777.002 239.066 776.972 239.436C776.936 239.749 776.901 240.067 776.865 240.387L776.794 241.024C776.764 241.295 776.734 241.568 776.704 241.842C776.6 242.798 776.494 243.772 776.378 244.764C776.364 244.853 776.349 244.942 776.349 245.031C776.275 245.669 776.2 246.307 776.126 246.96C776.007 247.925 775.889 248.904 775.77 249.884C775.711 250.418 775.636 250.952 775.562 251.486C775.555 251.546 775.547 251.601 775.54 251.657C775.533 251.713 775.525 251.768 775.518 251.828C775.474 252.147 775.431 252.463 775.387 252.778C775.342 253.108 775.296 253.438 775.251 253.772C775.229 253.925 775.207 254.082 775.185 254.24C775.162 254.401 775.14 254.563 775.117 254.722C775.073 255.048 775.028 255.36 774.969 255.686C774.776 256.948 774.568 258.194 774.36 259.396C774.307 259.669 774.257 259.94 774.207 260.208C774.145 260.538 774.084 260.865 774.019 261.192C773.944 261.608 773.854 262.023 773.766 262.433C773.731 262.594 773.696 262.754 773.663 262.914C773.603 263.181 773.529 263.463 773.47 263.745C773.351 264.294 773.217 264.828 773.084 265.347C772.95 265.852 772.817 266.342 772.683 266.817C772.646 266.943 772.605 267.069 772.564 267.195C772.524 267.321 772.483 267.447 772.446 267.573L772.223 268.241C771.733 269.725 771.184 271.016 770.561 272.026C770.487 272.159 770.413 272.293 770.324 272.411C770.146 272.708 769.953 272.961 769.745 273.198C769.709 273.243 769.668 273.287 769.628 273.332C769.601 273.362 769.575 273.391 769.552 273.421C765.958 277.283 756.761 282.049 748.847 286.15C742.315 289.535 736.658 292.467 735.745 294.064C733.727 297.581 735.73 301.617 735.73 301.617C735.73 301.617 772.565 287.504 777.121 276.685C777.224 276.433 777.328 276.181 777.432 275.899Z" fill="#B3D3EC"/>
</svg>
