<svg width="28" height="28" viewBox="0 0 28 28" fill="none" xmlns="http://www.w3.org/2000/svg">
<path d="M8.645 23.03C10.22 23.975 12.11 24.5 14 24.5C19.775 24.5 24.5 19.775 24.5 14C24.5 8.225 19.775 3.5 14 3.5C8.225 3.5 3.5 8.225 3.5 14C3.5 15.89 4.025 17.675 4.865 19.25L3.5 24.5L8.645 23.03Z" stroke="#016BBF" stroke-width="2" stroke-linecap="round" stroke-linejoin="round"/>
<path d="M18.7254 16.9909C18.7254 17.161 18.6875 17.3359 18.6071 17.506C18.5266 17.6761 18.4225 17.8367 18.2853 17.9879C18.0534 18.2431 17.7979 18.4273 17.5092 18.5455C17.2253 18.6636 16.9177 18.725 16.5865 18.725C16.1038 18.725 15.588 18.6116 15.0438 18.3801C14.4996 18.1486 13.9554 17.8367 13.416 17.4445C12.8718 17.0476 12.356 16.6082 11.8638 16.1215C11.3764 15.6301 10.9364 15.1151 10.5436 14.5765C10.1556 14.0378 9.84324 13.4992 9.6161 12.9652C9.38896 12.4266 9.27539 11.9116 9.27539 11.4202C9.27539 11.0989 9.33218 10.7917 9.44575 10.5082C9.55932 10.22 9.73914 9.9554 9.98994 9.71915C10.2928 9.42148 10.624 9.275 10.9742 9.275C11.1067 9.275 11.2392 9.30335 11.3575 9.36005C11.4805 9.41675 11.5894 9.5018 11.6746 9.62465L12.7724 11.1697C12.8576 11.2879 12.9191 11.3965 12.9617 11.5005C13.0043 11.5997 13.0279 11.6989 13.0279 11.7887C13.0279 11.9021 12.9948 12.0155 12.9286 12.1242C12.8671 12.2329 12.7771 12.3463 12.6636 12.4597L12.3039 12.8329C12.2519 12.8849 12.2282 12.9463 12.2282 13.0219C12.2282 13.0597 12.233 13.0928 12.2424 13.1306C12.2566 13.1684 12.2708 13.1968 12.2803 13.2251C12.3655 13.381 12.5121 13.5842 12.7204 13.8299C12.9333 14.0756 13.1604 14.326 13.4065 14.5765C13.662 14.8269 13.9081 15.0584 14.1589 15.271C14.405 15.4789 14.6085 15.6207 14.7694 15.7057C14.793 15.7152 14.8214 15.7294 14.8545 15.7435C14.8924 15.7577 14.9302 15.7624 14.9728 15.7624C15.0533 15.7624 15.1148 15.7341 15.1669 15.6821L15.5265 15.3277C15.6448 15.2096 15.7584 15.1198 15.8672 15.0631C15.976 14.997 16.0849 14.9639 16.2032 14.9639C16.2931 14.9639 16.3877 14.9828 16.4918 15.0253C16.5959 15.0679 16.7048 15.1293 16.8231 15.2096L18.3894 16.32C18.5124 16.405 18.5976 16.5043 18.6497 16.6224C18.697 16.7405 18.7254 16.8586 18.7254 16.9909Z" fill="#016BBF"/>
</svg>
