<svg width="24" height="24" viewBox="0 0 24 24" fill="none" xmlns="http://www.w3.org/2000/svg">
<path d="M7.41 19.74C8.76 20.55 10.38 21 12 21C16.95 21 21 16.95 21 12C21 7.05 16.95 3 12 3C7.05 3 3 7.05 3 12C3 13.62 3.45 15.15 4.17 16.5L3 21L7.41 19.74Z" stroke="#016BBF" stroke-width="2" stroke-linecap="round" stroke-linejoin="round"/>
<path d="M16.05 14.5636C16.05 14.7094 16.0175 14.8593 15.9485 15.0051C15.8796 15.1509 15.7904 15.2886 15.6727 15.4182C15.474 15.6369 15.255 15.7948 15.0075 15.8961C14.7642 15.9973 14.5005 16.05 14.2166 16.05C13.8029 16.05 13.3608 15.9528 12.8943 15.7543C12.4279 15.5559 11.9614 15.2886 11.499 14.9524C11.0326 14.6122 10.5905 14.2356 10.1686 13.8184C9.75085 13.3972 9.37364 12.9558 9.03698 12.4941C8.70438 12.0324 8.43668 11.5707 8.24199 11.113C8.0473 10.6513 7.94995 10.2099 7.94995 9.78865C7.94995 9.51325 7.99862 9.25 8.09597 9.007C8.19332 8.75995 8.34745 8.53315 8.56242 8.33065C8.82201 8.0755 9.10594 7.94995 9.40609 7.94995C9.51966 7.94995 9.63323 7.97425 9.73463 8.02285C9.84009 8.07145 9.93338 8.14435 10.0064 8.24965L10.9474 9.574C11.0204 9.67525 11.0731 9.7684 11.1096 9.8575C11.1461 9.94255 11.1664 10.0276 11.1664 10.1046C11.1664 10.2018 11.138 10.299 11.0812 10.3921C11.0285 10.4853 10.9515 10.5825 10.8541 10.6797L10.5458 10.9996C10.5012 11.0442 10.4809 11.0968 10.4809 11.1616C10.4809 11.194 10.485 11.2224 10.4931 11.2548C10.5053 11.2872 10.5175 11.3115 10.5256 11.3358C10.5986 11.4694 10.7243 11.6436 10.9028 11.8542C11.0853 12.0648 11.28 12.2794 11.4909 12.4941C11.7099 12.7087 11.9209 12.9072 12.1358 13.0894C12.3467 13.2676 12.5212 13.3891 12.6591 13.462C12.6793 13.4701 12.7037 13.4823 12.7321 13.4944C12.7645 13.5066 12.797 13.5106 12.8335 13.5106C12.9024 13.5106 12.9552 13.4863 12.9998 13.4418L13.308 13.138C13.4094 13.0368 13.5068 12.9598 13.6001 12.9112C13.6934 12.8545 13.7867 12.8262 13.8881 12.8262C13.9651 12.8262 14.0462 12.8424 14.1355 12.8788C14.2247 12.9153 14.318 12.9679 14.4194 13.0368L15.762 13.9885C15.8674 14.0614 15.9404 14.1465 15.9851 14.2477C16.0256 14.349 16.05 14.4502 16.05 14.5636Z" fill="#016BBF"/>
</svg>
