<svg width="60" height="60" viewBox="0 0 60 60" fill="none" xmlns="http://www.w3.org/2000/svg">
<path d="M24.248 41.0547C24.248 42.0547 27.5814 43.9714 29.248 44.8047H30.498L36.748 41.0547V34.8047L34.248 36.0547L30.498 32.3047L27.998 34.8047H24.248V41.0547Z" fill="#B3D3EC"/>
<path fill-rule="evenodd" clip-rule="evenodd" d="M37.5287 32.7408C37.3163 31.6676 37.1696 30.6445 37.2493 29.9324C36.9673 29.7227 36.6619 29.7093 36.3505 29.8317C35.3763 30.2145 34.343 31.9253 33.7799 33.1079C33.7379 33.196 33.6985 33.2813 33.662 33.3628C33.6929 33.2076 33.719 33.0515 33.7407 32.8945C33.8929 31.7897 33.8216 30.6437 33.6109 29.5247C33.4971 28.9206 33.3427 28.3243 33.1609 27.7467C33.141 27.6834 33.1208 27.6204 33.1002 27.5575C32.3948 25.4018 31.3227 23.5258 30.5871 22.5C30.5871 23.7184 29.963 25.7906 29.1501 27.6787L29.0976 27.7997C28.9065 28.2374 28.7056 28.6639 28.5006 29.0662C28.3595 29.3429 28.2164 29.6082 28.073 29.8577C27.8701 30.2109 27.6668 30.5326 27.4681 30.8105L27.4063 30.8957C26.7198 31.829 26.0959 32.2198 25.7475 31.5603C25.5871 31.2567 25.4852 30.7306 25.4624 29.9323C25.458 29.7812 25.4538 29.6396 25.4494 29.507C25.4301 28.9194 25.4089 28.509 25.3737 28.2436C25.2849 27.5732 25.1068 27.829 24.6444 28.4934L24.5847 28.5791C24.5383 28.6457 24.4892 28.7157 24.4374 28.7888C24.1504 29.1932 23.8861 29.5917 23.6434 29.9842C23.4456 30.304 23.2622 30.6198 23.0927 30.9315C22.7394 31.5808 22.446 32.2125 22.2075 32.8258C19.0196 41.0238 25.6369 45.9406 30.0746 45.9406C37.7617 45.9406 38.902 39.6887 38.2743 36.2214C38.1814 35.7083 38.0453 35.1042 37.9019 34.467C37.8448 34.2138 37.7864 33.9543 37.7293 33.6943C37.7039 33.5789 37.6787 33.4631 37.654 33.3473C37.6106 33.1445 37.5685 32.9418 37.5287 32.7408ZM34.6019 36.9933C34.7772 38.0918 34.6355 39.4962 34.0554 40.4881C33.626 41.2224 32.721 42.1906 30.0746 42.1906C28.8424 42.1906 26.7973 41.2579 25.7635 39.4648C25.2854 38.6356 24.8867 37.355 25.2832 35.5391C26.0354 35.707 26.7588 35.6456 27.359 35.4757C28.65 35.1104 29.5162 34.2185 29.9304 33.7405C30.0772 35.1919 31.0671 36.4709 32.5217 36.9352C33.2186 37.1576 33.937 37.1659 34.6019 36.9933Z" fill="#016BBF"/>
<path fill-rule="evenodd" clip-rule="evenodd" d="M15.2986 5.04093C19.1441 3.83922 24.3415 3.125 30 3.125C35.6585 3.125 40.8559 3.83922 44.7014 5.04093C46.613 5.6383 48.2963 6.38848 49.5425 7.30917C50.7519 8.20276 51.875 9.51285 51.875 11.25C51.875 11.5062 51.8506 11.7531 51.805 11.9908C51.8506 12.1527 51.875 12.3235 51.875 12.5V47.5C51.875 49.2643 50.9148 50.7206 49.6722 51.8223C48.4274 52.9259 46.7331 53.8342 44.8005 54.5589C40.9213 56.0136 35.6882 56.875 30 56.875C24.3118 56.875 19.0787 56.0136 15.1995 54.5589C13.2669 53.8342 11.5726 52.9259 10.3278 51.8223C9.08521 50.7206 8.125 49.2643 8.125 47.5V12.5C8.125 12.3235 8.14938 12.1527 8.19497 11.9908C8.14943 11.7531 8.125 11.5062 8.125 11.25C8.125 9.51285 9.24805 8.20276 10.4575 7.30917C11.7037 6.38848 13.387 5.6383 15.2986 5.04093ZM11.875 11.25C11.8749 11.2582 11.8744 11.3288 11.975 11.4824C12.0861 11.6522 12.3019 11.891 12.6859 12.1747C13.4639 12.7495 14.7094 13.3461 16.4171 13.8798C19.8102 14.9401 24.6128 15.625 30 15.625C35.3872 15.625 40.1898 14.9401 43.5829 13.8798C45.2906 13.3461 46.5361 12.7495 47.3141 12.1747C47.6981 11.891 47.9139 11.6522 48.0251 11.4824C48.1256 11.3288 48.1251 11.2586 48.125 11.2504C48.1251 11.2423 48.1256 11.1712 48.0251 11.0176C47.9139 10.8478 47.6981 10.609 47.3141 10.3253C46.5361 9.75048 45.2906 9.15389 43.5829 8.62023C40.1898 7.55989 35.3872 6.875 30 6.875C24.6128 6.875 19.8102 7.55989 16.4171 8.62023C14.7094 9.15389 13.4639 9.75048 12.6859 10.3253C12.3019 10.609 12.0861 10.8478 11.975 11.0176C11.8744 11.1712 11.8749 11.2418 11.875 11.25ZM11.875 47.5013C11.875 47.5009 11.875 47.5018 11.875 47.5013C11.8755 47.8083 12.0352 48.3245 12.8156 49.0163C13.5949 49.7073 14.8296 50.4152 16.5162 51.0477C19.8757 52.3075 24.6425 53.125 30 53.125C35.3575 53.125 40.1243 52.3075 43.4838 51.0477C45.1704 50.4152 46.4051 49.7073 47.1844 49.0163C47.9659 48.3235 48.125 47.8068 48.125 47.5V16.0731C47.1229 16.6049 45.9618 17.0652 44.7014 17.4591C40.8559 18.6608 35.6585 19.375 30 19.375C24.3415 19.375 19.1441 18.6608 15.2986 17.4591C14.0382 17.0652 12.8771 16.6049 11.875 16.0731L11.875 47.5013Z" fill="#016BBF"/>
</svg>
