<svg width="61" height="60" viewBox="0 0 61 60" fill="none" xmlns="http://www.w3.org/2000/svg">
<ellipse cx="30.6875" cy="18.5398" rx="22.5" ry="10" fill="#B3D3EC"/>
<path d="M28.8125 15C28.8125 13.9645 29.652 13.125 30.6875 13.125C32.0509 13.125 33.3693 13.1877 34.6134 13.3049C36.1397 13.4488 37.5656 13.6757 38.8328 13.9743C39.8408 14.2118 40.4653 15.2215 40.2278 16.2294C39.9902 17.2373 38.9806 17.8619 37.9727 17.6243C36.8973 17.3709 35.6438 17.1686 34.2616 17.0384C33.1381 16.9325 31.9371 16.875 30.6875 16.875C29.652 16.875 28.8125 16.0355 28.8125 15Z" fill="#016BBF"/>
<path fill-rule="evenodd" clip-rule="evenodd" d="M20.0477 18.5134C19.9314 17.5896 19.1429 16.875 18.1875 16.875C17.152 16.875 16.3125 17.7145 16.3125 18.75C16.3125 20.0752 17.1425 21.0195 17.8931 21.5972C18.672 22.1968 19.6849 22.6626 20.7745 23.0278C23.3119 23.8783 26.8525 24.375 30.6875 24.375C32.5417 24.375 34.3144 24.259 35.9312 24.0471C38.2383 23.7447 40.3105 23.2363 41.862 22.5387C42.6328 22.1921 43.3717 21.7563 43.9452 21.1972C44.5231 20.6339 45.0625 19.8093 45.0625 18.75C45.0625 17.7145 44.223 16.875 43.1875 16.875C42.2326 16.875 41.4443 17.5889 41.3274 18.5121C41.1845 18.6514 40.8762 18.8703 40.3241 19.1186C39.2292 19.6109 37.5515 20.0526 35.4438 20.3289C33.9983 20.5183 32.3888 20.625 30.6875 20.625C27.1184 20.625 24.0066 20.1561 21.9663 19.4722C21.0765 19.174 20.498 18.87 20.1803 18.6255C20.1202 18.5792 20.0774 18.5418 20.0477 18.5134Z" fill="#016BBF"/>
<path fill-rule="evenodd" clip-rule="evenodd" d="M6.3125 18.75C6.3125 16.7592 7.22811 15.0038 8.59742 13.565C9.95753 12.1358 11.837 10.934 14.0161 9.96554C18.3789 8.02649 24.2747 6.875 30.6875 6.875C37.1003 6.875 42.9961 8.02649 47.3589 9.96554C49.538 10.934 51.4175 12.1358 52.7776 13.565C54.1469 15.0038 55.0625 16.7592 55.0625 18.75V43.75C55.0625 44.3511 54.7797 44.8861 54.3398 45.2292C53.9214 45.9923 53.3475 46.6802 52.6884 47.2862C51.3187 48.5455 49.4402 49.5934 47.277 50.4347C42.9387 52.1218 37.0727 53.125 30.6875 53.125C24.3023 53.125 18.4363 52.1218 14.098 50.4347C11.9348 49.5934 10.0563 48.5455 8.6866 47.2862C8.02752 46.6802 7.45357 45.9923 7.03515 45.2292C6.59533 44.8861 6.3125 44.3511 6.3125 43.75V18.75ZM10.0625 18.75C10.0625 17.9794 10.4061 17.1041 11.3139 16.1501C12.2309 15.1866 13.6465 14.2335 15.5391 13.3923C19.3197 11.7121 24.6738 10.625 30.6875 10.625C36.7012 10.625 42.0553 11.7121 45.8359 13.3923C47.7285 14.2335 49.1441 15.1866 50.0611 16.1501C50.9689 17.1041 51.3125 17.9794 51.3125 18.75C51.3125 19.5206 50.9689 20.3959 50.0611 21.3499C49.1441 22.3134 47.7285 23.2665 45.8359 24.1077C42.0553 25.7879 36.7012 26.875 30.6875 26.875C24.6738 26.875 19.3197 25.7879 15.5391 24.1077C13.6465 23.2665 12.2309 22.3134 11.3139 21.3499C10.4061 20.3959 10.0625 19.5206 10.0625 18.75ZM10.0625 42.5C10.0625 43.0062 10.3189 43.6928 11.2247 44.5256C12.1321 45.36 13.5487 46.1975 15.4572 46.9397C19.2622 48.4194 24.6463 49.375 30.6875 49.375C36.7287 49.375 42.1128 48.4194 45.9178 46.9397C47.8263 46.1975 49.2429 45.36 50.1503 44.5256C51.0561 43.6928 51.3125 43.0062 51.3125 42.5V25.2424C50.1784 26.1126 48.8376 26.8773 47.3589 27.5345C42.9961 29.4735 37.1003 30.625 30.6875 30.625C24.2747 30.625 18.3789 29.4735 14.0161 27.5345C12.5374 26.8773 11.1966 26.1126 10.0625 25.2424V42.5Z" fill="#016BBF"/>
</svg>
