<svg width="24" height="24" viewBox="0 0 24 24" fill="none" xmlns="http://www.w3.org/2000/svg">
<path fill-rule="evenodd" clip-rule="evenodd" d="M17.6295 3.39535C17.0647 3.39535 16.603 3.86933 16.603 4.42192C16.603 4.99315 17.0747 5.4485 17.6295 5.4485C18.2008 5.4485 18.6561 4.97681 18.6561 4.42192C18.6561 3.8507 18.1844 3.39535 17.6295 3.39535ZM15.2076 4.42192C15.2076 3.11232 16.2805 2 17.6295 2C18.9369 2 20.0515 3.06199 20.0515 4.42192C20.0515 5.25785 19.6173 6.015 18.9486 6.45233C19.3704 6.59049 19.7582 6.8265 20.078 7.14624C20.613 7.68128 20.9136 8.40695 20.9136 9.16361V16.0606C20.9136 16.6341 20.7497 17.1198 20.4938 17.5426C20.3843 17.7236 20.1986 17.8451 19.9889 17.873C19.7792 17.9008 19.5682 17.8321 19.4152 17.686L19.2255 17.505L19.2134 17.4931L15.5154 13.7865L15.412 13.6831C15.2811 13.5522 15.2076 13.3748 15.2076 13.1897V9.16361C15.2076 8.40695 15.5082 7.68128 16.0432 7.14624C16.239 6.95053 16.4602 6.78619 16.6991 6.65645C15.8344 6.2939 15.2076 5.44168 15.2076 4.42192ZM9.0083 5.1196C8.05008 5.1196 7.13112 5.50025 6.45356 6.17781C5.776 6.85537 5.39535 7.77433 5.39535 8.73255C5.39535 9.69076 5.776 10.6097 6.45356 11.2873C7.13112 11.9648 8.05008 12.3455 9.0083 12.3455C9.48276 12.3455 9.95257 12.252 10.3909 12.0705C10.8293 11.8889 11.2275 11.6228 11.563 11.2873C11.8985 10.9518 12.1647 10.5535 12.3462 10.1152C12.5278 9.67682 12.6212 9.20701 12.6212 8.73255C12.6212 8.25809 12.5278 7.78827 12.3462 7.34993C12.1647 6.91159 11.8985 6.5133 11.563 6.17781C11.2275 5.84231 10.8293 5.57619 10.3909 5.39462C9.95257 5.21305 9.48276 5.1196 9.0083 5.1196ZM5.4669 5.19115C6.40613 4.25191 7.68001 3.72425 9.0083 3.72425C9.666 3.72425 10.3173 3.85379 10.9249 4.10548C11.5325 4.35717 12.0846 4.72608 12.5497 5.19115C13.0148 5.65621 13.3837 6.20832 13.6354 6.81595C13.8871 7.42359 14.0166 8.07485 14.0166 8.73255C14.0166 9.39025 13.8871 10.0415 13.6354 10.6491C13.3837 11.2568 13.0148 11.8089 12.5497 12.2739C12.0846 12.739 11.5325 13.1079 10.9249 13.3596C10.3173 13.6113 9.666 13.7408 9.0083 13.7408C7.68001 13.7408 6.40613 13.2132 5.4669 12.2739C4.52766 11.3347 4 10.0608 4 8.73255C4 7.40426 4.52766 6.13038 5.4669 5.19115ZM18.0606 7.70597C17.674 7.70597 17.3033 7.85954 17.0299 8.1329C16.7565 8.40626 16.603 8.77702 16.603 9.16361V12.901L19.5182 15.8231V9.16361C19.5182 8.77702 19.3647 8.40626 19.0913 8.1329C18.818 7.85954 18.4472 7.70597 18.0606 7.70597ZM11.4589 14.5001C11.5669 14.2396 11.8213 14.0697 12.1033 14.0697H14.5345C14.7193 14.0697 14.8965 14.143 15.0273 14.2735L18.7344 17.972C18.8655 18.1028 18.9392 18.2804 18.9393 18.4655C18.9394 18.6507 18.8659 18.8283 18.735 18.9593L17.5108 20.1835C17.3799 20.3144 17.2023 20.3879 17.0171 20.3878C16.832 20.3877 16.6545 20.3141 16.5237 20.1831L11.6096 15.2603C11.4103 15.0607 11.3508 14.7607 11.4589 14.5001ZM13.7856 15.4651L17.0179 18.7031L17.2544 18.4665L14.246 15.4651H13.7856ZM9.7693 15.6148C10.0387 15.3405 10.4793 15.3359 10.7544 15.6045L12.9442 17.7426C13.1463 17.9399 13.2095 18.2396 13.1043 18.5017C12.999 18.7638 12.7462 18.9366 12.4638 18.9394L11.0262 18.9538L8.21054 21.7935C8.08018 21.925 7.90291 21.9993 7.71777 22C7.53262 22.0007 7.35479 21.9278 7.22343 21.7973L5.93025 20.5127C5.65795 20.2423 5.65526 19.8026 5.92423 19.5288L9.7693 15.6148ZM10.2773 17.0888L7.40584 20.0117L7.71135 20.3152L10.2371 17.7678C10.3664 17.6374 10.5419 17.5632 10.7256 17.5614L10.7609 17.561L10.2773 17.0888Z" fill="#016BBF"/>
<path fill-rule="evenodd" clip-rule="evenodd" d="M9.00821 5.11963C8.05 5.11963 7.13103 5.50028 6.45347 6.17784C5.77591 6.8554 5.39526 7.77436 5.39526 8.73258C5.39526 9.69079 5.77591 10.6098 6.45347 11.2873C7.13103 11.9649 8.05 12.3455 9.00821 12.3455C9.48267 12.3455 9.95249 12.2521 10.3908 12.0705C10.8292 11.8889 11.2275 11.6228 11.563 11.2873C11.8984 10.9518 12.1646 10.5535 12.3461 10.1152C12.5277 9.67685 12.6212 9.20704 12.6212 8.73258C12.6212 8.25812 12.5277 7.78831 12.3461 7.34996C12.1646 6.91162 11.8984 6.51333 11.563 6.17784C11.2275 5.84234 10.8292 5.57622 10.3908 5.39465C9.95249 5.21308 9.48267 5.11963 9.00821 5.11963Z" fill="#B3D3EC"/>
</svg>
