<svg width="61" height="60" viewBox="0 0 61 60" fill="none" xmlns="http://www.w3.org/2000/svg">
<path d="M55.4142 25.1522C55.4595 25.3584 55.4648 25.5641 55.4353 25.7612L55.7104 33.6975C55.5113 32.7901 54.6143 32.216 53.707 32.415C52.8314 32.6071 52.0335 33.0572 51.4162 33.7071C50.7988 34.357 50.3903 35.1775 50.2434 36.0618L49.6296 39.7635C49.5929 39.9846 49.4908 40.1896 49.3365 40.3521C49.1821 40.5146 48.9826 40.6271 48.7637 40.6751L48.5638 40.719C48.5338 40.7256 48.5028 40.7258 48.4727 40.7196C48.4426 40.7135 48.4141 40.701 48.389 40.6832C48.364 40.6653 48.343 40.6424 48.3273 40.6159C48.3117 40.5894 48.3016 40.5586 48.2981 40.5281L46.9056 28.6259C46.83 27.9798 46.3887 27.4352 45.7723 27.2275C45.1559 27.0197 44.4749 27.1859 44.0236 27.6544L41.474 30.3009L40.3174 29.5606L42.0522 22.6976C43.4516 22.5722 44.8626 22.812 46.0305 23.369C47.4567 24.0491 48.4485 25.1557 48.7679 26.6109C48.9671 27.5182 49.8641 28.0924 50.7714 27.8932L54.1319 27.1557C54.833 27.0018 55.3351 26.4313 55.4353 25.7612L55.4142 25.1522Z" fill="url(#paint0_linear_14217_19752)"/>
<path d="M41.4554 13.4302C41.8708 14.261 41.534 15.2714 40.7032 15.6868C40.0946 15.9911 39.7722 16.3512 39.587 16.697C39.3928 17.0597 39.2959 17.5098 39.3059 18.0477C39.3172 18.6549 39.4639 19.2932 39.6697 19.8735C39.8622 19.7257 40.0877 19.6187 40.3335 19.5648C42.7319 19.0384 45.3195 19.3027 47.4787 20.3324C49.1893 21.1482 50.6738 22.4723 51.5151 24.2858L53.4109 23.8697C54.3183 23.6706 55.2152 24.2447 55.4144 25.152C55.6135 26.0594 55.0394 26.9564 54.1321 27.1555L50.7716 27.8931C49.8642 28.0922 48.9673 27.5181 48.7681 26.6107C48.4487 25.1555 47.4569 24.049 46.0307 23.3688C44.8628 22.8119 43.4518 22.572 42.0524 22.6974L40.3176 29.5605L41.4742 30.3008L44.0238 27.6542C44.4751 27.1858 45.1561 27.0195 45.7725 27.2273C46.3889 27.4351 46.8302 27.9797 46.9058 28.6257L48.2983 40.5279C48.3018 40.5585 48.3119 40.5893 48.3275 40.6158C48.3432 40.6423 48.3642 40.6652 48.3892 40.683C48.4143 40.7009 48.4428 40.7133 48.4729 40.7195C48.503 40.7256 48.534 40.7254 48.564 40.7189L48.7638 40.675C48.9827 40.627 49.1823 40.5144 49.3367 40.352C49.491 40.1895 49.5931 39.9845 49.6298 39.7634L50.2436 36.0616C50.3905 35.1773 50.799 34.3569 51.4163 33.707C52.0337 33.057 52.8316 32.607 53.7072 32.4149C54.6145 32.2158 55.5115 32.79 55.7106 33.6973C55.9096 34.6047 55.3355 35.5016 54.4281 35.7007C54.2092 35.7488 54.0097 35.8613 53.8554 36.0238C53.7012 36.1861 53.5991 36.391 53.5623 36.6119L52.9484 40.3141C52.8016 41.1984 52.3931 42.0188 51.7757 42.6687C51.1584 43.3186 50.3605 43.7687 49.485 43.9608L49.2851 44.0047C48.7958 44.112 48.2893 44.1156 47.7985 44.0152C47.3078 43.9148 46.8435 43.7126 46.4357 43.4217C46.0279 43.1308 45.6856 42.7577 45.4309 42.3263C45.1764 41.8954 45.015 41.4159 44.957 40.9188L43.978 32.5505L42.9402 33.6278C42.3839 34.2052 41.4974 34.3097 40.8221 33.8775L37.483 31.7403C36.8732 31.35 36.5816 30.6133 36.759 29.9114L38.3438 23.6421C37.9574 23.5256 37.6113 23.2705 37.3873 22.8971C36.7297 21.801 35.9777 19.9992 35.9425 18.1103C35.9245 17.1438 36.0939 16.094 36.6215 15.1089C37.1582 14.1067 38.0131 13.2707 39.1987 12.6779C40.0296 12.2625 41.0399 12.5993 41.4554 13.4302Z" fill="#016BBF"/>
<path fill-rule="evenodd" clip-rule="evenodd" d="M13.898 37.1384C14.8072 36.2292 16.0403 35.7184 17.3261 35.7184C18.6119 35.7184 19.8451 36.2292 20.7543 37.1384C21.2536 37.6377 21.6327 38.2346 21.8731 38.8844H23.1637V34.2341C23.1637 33.8405 23.0073 33.463 22.729 33.1847C22.4507 32.9064 22.0732 32.75 21.6796 32.75H7.432C6.50306 32.75 5.75 31.9969 5.75 31.068C5.75 30.1391 6.50306 29.386 7.432 29.386H8.91612V24.8347H7.432C6.50306 24.8347 5.75 24.0816 5.75 23.1527C5.75 22.2237 6.50306 21.4707 7.432 21.4707H13.7643C14.2752 21.4707 14.7585 21.703 15.0777 22.1019L20.9049 29.386H21.6796C22.9654 29.386 24.1985 29.8968 25.1077 30.806C26.0169 31.7152 26.5277 32.9483 26.5277 34.2341V40.5664C26.5277 41.4953 25.7746 42.2484 24.8457 42.2484H21.8732C21.6328 42.8982 21.2537 43.4953 20.7543 43.9947C19.8451 44.9039 18.6119 45.4147 17.3261 45.4147C16.0403 45.4147 14.8072 44.9039 13.898 43.9947C13.3986 43.4953 13.0194 42.8982 12.7791 42.2484H7.432C6.50306 42.2484 5.75 41.4953 5.75 40.5664C5.75 39.6374 6.50306 38.8844 7.432 38.8844H12.7792C13.0196 38.2346 13.3987 37.6377 13.898 37.1384ZM17.3261 39.0824C16.9325 39.0824 16.555 39.2388 16.2767 39.5171C15.9984 39.7955 15.842 40.173 15.842 40.5666C15.842 40.9602 15.9984 41.3377 16.2767 41.616C16.555 41.8943 16.9325 42.0507 17.3261 42.0507C17.7198 42.0507 18.0972 41.8943 18.3756 41.616C18.6539 41.3377 18.8103 40.9602 18.8103 40.5666C18.8103 40.173 18.6539 39.7955 18.3756 39.5171C18.0972 39.2388 17.7198 39.0824 17.3261 39.0824ZM12.2801 29.386V24.8347H12.9558L16.5969 29.386H12.2801Z" fill="#016BBF"/>
<path d="M28.1767 33.3115C28.1767 32.3826 28.9298 31.6295 29.8587 31.6295H32.1014C33.0303 31.6295 33.7834 32.3826 33.7834 33.3115C33.7834 34.2404 33.0303 34.9935 32.1014 34.9935H29.8587C28.9298 34.9935 28.1767 34.2404 28.1767 33.3115Z" fill="#016BBF"/>
<path d="M32.1694 38.7845L31.0481 37.6631C30.3912 37.0063 29.3262 37.0063 28.6694 37.6631C28.0125 38.32 28.0125 39.385 28.6694 40.0418L29.7907 41.1632C30.4476 41.82 31.5125 41.82 32.1694 41.1632C32.8263 40.5063 32.8263 39.4413 32.1694 38.7845Z" fill="#016BBF"/>
<path d="M29.9267 26.4487C30.5836 27.1055 30.5836 28.1705 29.9267 28.8274L28.8054 29.9487C28.1485 30.6056 27.0835 30.6056 26.4267 29.9487C25.7698 29.2919 25.7698 28.2269 26.4267 27.57L27.548 26.4487C28.2049 25.7918 29.2699 25.7918 29.9267 26.4487Z" fill="#016BBF"/>
<defs>
<linearGradient id="paint0_linear_14217_19752" x1="44.5001" y1="31.2502" x2="55.7501" y2="31.2502" gradientUnits="userSpaceOnUse">
<stop stop-color="#B3D3EC"/>
<stop offset="1" stop-color="#B3D3EC" stop-opacity="0"/>
</linearGradient>
</defs>
</svg>
