<svg width="61" height="60" viewBox="0 0 61 60" fill="none" xmlns="http://www.w3.org/2000/svg">
<g id="toggle icons">
<path id="Vector 146" d="M18.4275 34.8364V52.498H25.7961V49.8309L35.8639 40.1916V32.3944H28.4523V25.0687L18.4275 34.8364Z" fill="#B3D3EC"/>
<path id="Union" fill-rule="evenodd" clip-rule="evenodd" d="M28.375 5.625C28.5866 5.625 28.79 5.66005 28.9797 5.72466C29.2433 5.81419 29.491 5.96403 29.7011 6.17418C30.0755 6.5486 30.2585 7.042 30.25 7.53268V25.0345C30.2504 25.0562 30.2504 25.078 30.25 25.0998V30.625H35.875C36.9105 30.625 37.75 31.4645 37.75 32.5V38.125H50.875C51.9105 38.125 52.75 38.9645 52.75 40C52.75 41.0355 51.9105 41.875 50.875 41.875H36.6519L27.9019 50.625H53.375C54.4105 50.625 55.25 51.4645 55.25 52.5C55.25 53.5355 54.4105 54.375 53.375 54.375H8.375C7.33947 54.375 6.5 53.5355 6.5 52.5V27.5C6.5 26.9723 6.71797 26.4956 7.06877 26.1549L27.0299 6.19373C27.1114 6.10978 27.2008 6.03343 27.2967 5.96586C27.3558 5.92426 27.4174 5.88598 27.4813 5.8513C27.7469 5.70698 28.0514 5.625 28.375 5.625ZM20.25 50.625H24.1067C24.0376 50.4295 24 50.2191 24 50V44.375H20.25L20.25 50.625ZM16.5 42.501L16.5 50.625H10.25L10.25 28.2769L26.5 12.0269V24.2908L17.3807 33.41C16.8518 33.7415 16.5 34.3297 16.5 35L16.5 39.9988C16.5 39.9984 16.5 39.9992 16.5 39.9988V42.501C16.5 42.5013 16.5 42.5006 16.5 42.501ZM20.25 40.625H25.875C26.9105 40.625 27.75 41.4645 27.75 42.5V45.4736L34 39.2236V34.375H28.375C27.3395 34.375 26.5 33.5355 26.5 32.5V29.5941L20.25 35.8441L20.25 40.625Z" fill="#016BBF"/>
</g>
</svg>
