<svg width="60" height="60" viewBox="0 0 60 60" fill="none" xmlns="http://www.w3.org/2000/svg">
<g id="toggle icons">
<path id="Vector 147" d="M20 32.5H10V55H35V47.5H27.5V40H20V32.5Z" fill="#B3D3EC"/>
<g id="icon">
<path fill-rule="evenodd" clip-rule="evenodd" d="M28.5318 3.9979C29.9844 3.11127 31.8193 3.14745 33.2359 4.09066L48.8103 14.461C50.7248 15.7358 51.875 17.8834 51.875 20.1835V24.7677C51.875 25.8032 51.0355 26.6427 50 26.6427C48.9645 26.6427 48.125 25.8032 48.125 24.7677V20.1835C48.125 19.138 47.6022 18.1618 46.732 17.5824L31.1575 7.21201C30.9551 7.07727 30.693 7.0721 30.4855 7.19876L13.3719 17.6443C12.4422 18.2118 11.875 19.2225 11.875 20.3117V30.3928H27.5C28.5355 30.3928 29.375 31.2322 29.375 32.2678C29.375 33.3033 28.5355 34.1428 27.5 34.1428H21.875V37.8928H27.5C28.5355 37.8928 29.375 38.7322 29.375 39.7678V45.3928H35C36.0355 45.3928 36.875 46.2322 36.875 47.2678V52.8928H48.125V39.7678C48.125 38.7322 48.9645 37.8928 50 37.8928C51.0355 37.8928 51.875 38.7322 51.875 39.7678V52.8928H52.5C53.5355 52.8928 54.375 53.7322 54.375 54.7678C54.375 55.8033 53.5355 56.6428 52.5 56.6428H7.5C6.46447 56.6428 5.625 55.8033 5.625 54.7678C5.625 53.7322 6.46447 52.8928 7.5 52.8928H8.125V20.3117C8.125 17.9154 9.37278 15.6919 11.4182 14.4435L28.5318 3.9979ZM11.875 34.1428H18.125V39.7678C18.125 40.8033 18.9645 41.6428 20 41.6428H25.625V47.2678C25.625 48.3033 26.4645 49.1428 27.5 49.1428H33.125V52.8928H11.875V34.1428Z" fill="#016BBF"/>
<path fill-rule="evenodd" clip-rule="evenodd" d="M44.375 24.7678C44.375 23.7322 43.5355 22.8928 42.5 22.8928C41.4645 22.8928 40.625 23.7322 40.625 24.7678C40.625 26.2596 40.0324 27.6903 38.9775 28.7452C37.9226 29.8001 36.4918 30.3928 35 30.3928C33.9645 30.3928 33.125 31.2322 33.125 32.2678C33.125 33.3033 33.9645 34.1428 35 34.1428C36.4918 34.1428 37.9226 34.7354 38.9775 35.7903C40.0324 36.8452 40.625 38.2759 40.625 39.7678C40.625 40.8033 41.4645 41.6428 42.5 41.6428C43.5355 41.6428 44.375 40.8033 44.375 39.7678C44.375 38.2759 44.9676 36.8452 46.0225 35.7903C47.0774 34.7354 48.5082 34.1428 50 34.1428C51.0355 34.1428 51.875 33.3033 51.875 32.2678C51.875 31.2322 51.0355 30.3928 50 30.3928C48.5082 30.3928 47.0774 29.8001 46.0225 28.7452C44.9676 27.6903 44.375 26.2596 44.375 24.7678ZM41.6291 31.3969C41.9446 31.0814 42.2354 30.7457 42.5 30.3928C42.7646 30.7457 43.0554 31.0814 43.3709 31.3969C43.6864 31.7124 44.0221 32.0031 44.3749 32.2678C44.0221 32.5324 43.6864 32.8231 43.3709 33.1386C43.0554 33.4542 42.7646 33.7899 42.5 34.1427C42.2354 33.7899 41.9446 33.4542 41.6291 33.1386C41.3136 32.8231 40.9779 32.5324 40.6251 32.2678C40.9779 32.0031 41.3136 31.7124 41.6291 31.3969Z" fill="#016BBF"/>
</g>
</g>
</svg>
