<svg width="60" height="60" viewBox="0 0 60 60" fill="none" xmlns="http://www.w3.org/2000/svg">
<g id="toggle icons">
<g id="icon">
<path fill-rule="evenodd" clip-rule="evenodd" d="M28.5318 3.99784C29.9844 3.11121 31.8193 3.14739 33.2359 4.0906L48.8103 14.4609C50.7248 15.7357 51.875 17.8834 51.875 20.1834V24.7676C51.875 25.8031 51.0355 26.6426 50 26.6426C48.9645 26.6426 48.125 25.8031 48.125 24.7676V20.1834C48.125 19.1379 47.6022 18.1617 46.732 17.5823L31.1575 7.21195C30.9551 7.07721 30.693 7.07204 30.4855 7.1987L13.3719 17.6443C12.4422 18.2117 11.875 19.2224 11.875 20.3117V30.3927H27.5C28.5355 30.3927 29.375 31.2322 29.375 32.2677C29.375 33.3032 28.5355 34.1427 27.5 34.1427H21.875V37.8927H27.5C28.5355 37.8927 29.375 38.7322 29.375 39.7677V45.3927H35C36.0355 45.3927 36.875 46.2322 36.875 47.2677V52.8927H48.125V39.7677C48.125 38.7322 48.9645 37.8927 50 37.8927C51.0355 37.8927 51.875 38.7322 51.875 39.7677V52.8927H52.5C53.5355 52.8927 54.375 53.7322 54.375 54.7677C54.375 55.8032 53.5355 56.6427 52.5 56.6427H7.5C6.46447 56.6427 5.625 55.8032 5.625 54.7677C5.625 53.7322 6.46447 52.8927 7.5 52.8927H8.125V20.3117C8.125 17.9153 9.37278 15.6919 11.4182 14.4434L28.5318 3.99784ZM11.875 34.1427H18.125V39.7677C18.125 40.8032 18.9645 41.6427 20 41.6427H25.625V47.2677C25.625 48.3032 26.4645 49.1427 27.5 49.1427H33.125V52.8927H11.875V34.1427Z" fill="#8A8A8A"/>
<path fill-rule="evenodd" clip-rule="evenodd" d="M44.375 24.7677C44.375 23.7322 43.5355 22.8927 42.5 22.8927C41.4645 22.8927 40.625 23.7322 40.625 24.7677C40.625 26.2595 40.0324 27.6903 38.9775 28.7452C37.9226 29.8001 36.4918 30.3927 35 30.3927C33.9645 30.3927 33.125 31.2322 33.125 32.2677C33.125 33.3032 33.9645 34.1427 35 34.1427C36.4918 34.1427 37.9226 34.7353 38.9775 35.7902C40.0324 36.8451 40.625 38.2759 40.625 39.7677C40.625 40.8032 41.4645 41.6427 42.5 41.6427C43.5355 41.6427 44.375 40.8032 44.375 39.7677C44.375 38.2759 44.9676 36.8451 46.0225 35.7902C47.0774 34.7353 48.5082 34.1427 50 34.1427C51.0355 34.1427 51.875 33.3032 51.875 32.2677C51.875 31.2322 51.0355 30.3927 50 30.3927C48.5082 30.3927 47.0774 29.8001 46.0225 28.7452C44.9676 27.6903 44.375 26.2595 44.375 24.7677ZM41.6291 31.3968C41.9446 31.0813 42.2354 30.7456 42.5 30.3928C42.7646 30.7456 43.0554 31.0813 43.3709 31.3968C43.6864 31.7124 44.0221 32.0031 44.3749 32.2677C44.0221 32.5323 43.6864 32.8231 43.3709 33.1386C43.0554 33.4541 42.7646 33.7898 42.5 34.1426C42.2354 33.7898 41.9446 33.4541 41.6291 33.1386C41.3136 32.8231 40.9779 32.5323 40.6251 32.2677C40.9779 32.0031 41.3136 31.7124 41.6291 31.3968Z" fill="#8A8A8A"/>
</g>
</g>
</svg>
