<svg width="61" height="60" viewBox="0 0 61 60" fill="none" xmlns="http://www.w3.org/2000/svg">
<path fill-rule="evenodd" clip-rule="evenodd" d="M27.8409 15C26.8776 15 26.0967 15.7809 26.0967 16.7442V31.2791H16.9107C15.9474 31.2791 15.1665 32.06 15.1665 33.0233C15.1665 33.9865 15.9474 34.7674 16.9107 34.7674H33.0735V38.2558H28.7033C28.5143 37.9728 28.2967 37.707 28.0525 37.4628C27.0712 36.4815 25.7403 35.9302 24.3526 35.9302C22.9648 35.9302 21.6339 36.4815 20.6526 37.4628C20.2665 37.8489 19.947 38.2891 19.7014 38.7656C19.4558 38.2891 19.1363 37.8489 18.7502 37.4628C17.7689 36.4815 16.438 35.9302 15.0502 35.9302C13.6625 35.9302 12.3315 36.4815 11.3502 37.4628C11.1061 37.707 10.8885 37.9728 10.6994 38.2558H6.91069C5.9474 38.2558 5.1665 39.0367 5.1665 40C5.1665 40.9633 5.9474 41.7442 6.91069 41.7442H9.85005C9.98126 42.918 10.507 44.0195 11.3502 44.8628C12.3315 45.8441 13.6625 46.3953 15.0502 46.3953C16.438 46.3953 17.7689 45.8441 18.7502 44.8628C19.1363 44.4767 19.4558 44.0365 19.7014 43.5599C19.947 44.0365 20.2665 44.4767 20.6526 44.8628C21.6339 45.8441 22.9648 46.3953 24.3526 46.3953C25.7403 46.3953 27.0712 45.8441 28.0525 44.8628C28.8958 44.0195 29.4215 42.918 29.5527 41.7442H38.9198C39.051 42.918 39.5767 44.0195 40.42 44.8628C41.4013 45.8441 42.7322 46.3953 44.12 46.3953C45.5078 46.3953 46.8387 45.8441 47.82 44.8628C48.6632 44.0195 49.189 42.918 49.3202 41.7442H53.4223C54.3856 41.7442 55.1665 40.9633 55.1665 40V32.3393C55.1665 31.6108 54.7138 30.9591 54.0312 30.7048L49.0858 28.8624L47.6721 21.0835C47.5213 20.2541 46.799 19.6512 45.956 19.6512H36.5619V16.7442C36.5619 15.7809 35.781 15 34.8177 15H27.8409ZM36.5619 23.1395V38.2558H39.7692C39.9583 37.9728 40.1758 37.707 40.42 37.4628C41.4013 36.4815 42.7322 35.9302 44.12 35.9302C45.5078 35.9302 46.8387 36.4815 47.82 37.4628C48.0642 37.707 48.2817 37.9728 48.4708 38.2558H51.6781V33.5508L48.7016 32.4419H39.4688C38.5055 32.4419 37.7246 31.661 37.7246 30.6977C37.7246 29.7344 38.5055 28.9535 39.4688 28.9535H45.5569L44.5002 23.1395H36.5619ZM33.0735 18.4884H29.5851V31.2791H33.0735V18.4884ZM24.3526 39.4186C23.89 39.4186 23.4463 39.6024 23.1192 39.9295C22.7921 40.2566 22.6084 40.7002 22.6084 41.1628C22.6084 41.6254 22.7921 42.069 23.1192 42.3961C23.4463 42.7232 23.89 42.907 24.3526 42.907C24.8151 42.907 25.2588 42.7232 25.5859 42.3961C25.913 42.069 26.0967 41.6254 26.0967 41.1628C26.0967 40.7002 25.913 40.2566 25.5859 39.9295C25.2588 39.6024 24.8151 39.4186 24.3526 39.4186ZM13.8169 39.9295C14.144 39.6024 14.5876 39.4186 15.0502 39.4186C15.5128 39.4186 15.9565 39.6024 16.2835 39.9295C16.6106 40.2566 16.7944 40.7002 16.7944 41.1628C16.7944 41.6254 16.6106 42.069 16.2835 42.3961C15.9565 42.7232 15.5128 42.907 15.0502 42.907C14.5876 42.907 14.144 42.7232 13.8169 42.3961C13.4898 42.069 13.306 41.6254 13.306 41.1628C13.306 40.7002 13.4898 40.2566 13.8169 39.9295ZM44.12 39.4186C43.6574 39.4186 43.2138 39.6024 42.8867 39.9295C42.5596 40.2566 42.3758 40.7002 42.3758 41.1628C42.3758 41.6254 42.5596 42.069 42.8867 42.3961C43.2138 42.7232 43.6574 42.907 44.12 42.907C44.5826 42.907 45.0262 42.7232 45.3533 42.3961C45.6804 42.069 45.8642 41.6254 45.8642 41.1628C45.8642 40.7002 45.6804 40.2566 45.3533 39.9295C45.0262 39.6024 44.5826 39.4186 44.12 39.4186Z" fill="#8A8A8A"/>
</svg>
