<svg width="61" height="61" viewBox="0 0 61 61" fill="none" xmlns="http://www.w3.org/2000/svg">
<path d="M43.0878 38.2205L48.3325 42.2665L52.5286 39.3445L53.6525 30.5779L47.8081 26.7563L43.5372 29.4539L43.0878 38.2205Z" fill="#B3D3EC"/>
<path fill-rule="evenodd" clip-rule="evenodd" d="M11.5374 10.6026C13.2955 8.84441 15.6801 7.85669 18.1665 7.85669H28.1665C30.6529 7.85669 33.0375 8.84441 34.7956 10.6026C36.5538 12.3607 37.5415 14.7453 37.5415 17.2317V50.3567H46.2915V43.8461C45.1726 43.5289 44.1421 42.93 43.3051 42.093C42.0158 40.8037 41.2915 39.0551 41.2915 37.2317V32.2317C41.2915 30.4083 42.0158 28.6596 43.3051 27.3703C44.5945 26.081 46.3431 25.3567 48.1665 25.3567C49.9899 25.3567 51.7385 26.081 53.0279 27.3703C54.3172 28.6596 55.0415 30.4083 55.0415 32.2317V37.2317C55.0415 39.0551 54.3172 40.8037 53.0279 42.093C52.1909 42.93 51.1604 43.5289 50.0415 43.8461V50.3567H53.1665C54.202 50.3567 55.0415 51.1962 55.0415 52.2317C55.0415 53.2672 54.202 54.1067 53.1665 54.1067H48.1665H35.6665H23.1665H10.6665H8.1665C7.13097 54.1067 6.2915 53.2672 6.2915 52.2317C6.2915 51.1962 7.13097 50.3567 8.1665 50.3567H8.7915V17.2317C8.7915 14.7453 9.77922 12.3607 11.5374 10.6026ZM25.0415 50.3567V42.2317C25.0415 41.1962 24.202 40.3567 23.1665 40.3567C22.131 40.3567 21.2915 41.1962 21.2915 42.2317V50.3567H12.5415V17.2317C12.5415 15.7398 13.1341 14.3091 14.189 13.2542C15.2439 12.1993 16.6747 11.6067 18.1665 11.6067H28.1665C29.6583 11.6067 31.0891 12.1993 32.144 13.2542C33.1989 14.3091 33.7915 15.7398 33.7915 17.2317V50.3567H25.0415ZM48.1665 40.3567C48.9953 40.3567 49.7902 40.0274 50.3762 39.4414C50.9623 38.8553 51.2915 38.0605 51.2915 37.2317V32.2317C51.2915 31.4029 50.9623 30.608 50.3762 30.022C49.7902 29.4359 48.9953 29.1067 48.1665 29.1067C47.3377 29.1067 46.5428 29.4359 45.9568 30.022C45.3707 30.608 45.0415 31.4029 45.0415 32.2317V37.2317C45.0415 38.0605 45.3707 38.8553 45.9568 39.4414C46.5428 40.0274 47.3377 40.3567 48.1665 40.3567ZM18.7915 32.2317C18.7915 31.1962 19.631 30.3567 20.6665 30.3567H25.6665C26.702 30.3567 27.5415 31.1962 27.5415 32.2317C27.5415 33.2672 26.702 34.1067 25.6665 34.1067H20.6665C19.631 34.1067 18.7915 33.2672 18.7915 32.2317ZM20.6665 20.3567C19.631 20.3567 18.7915 21.1962 18.7915 22.2317C18.7915 23.2672 19.631 24.1067 20.6665 24.1067H25.6665C26.702 24.1067 27.5415 23.2672 27.5415 22.2317C27.5415 21.1962 26.702 20.3567 25.6665 20.3567H20.6665Z" fill="#016BBF"/>
</svg>
