<svg width="61" height="60" viewBox="0 0 61 60" fill="none" xmlns="http://www.w3.org/2000/svg">
<path fill-rule="evenodd" clip-rule="evenodd" d="M29.2407 7.5C29.2407 6.85017 28.9042 6.24667 28.3515 5.90503C27.7987 5.56339 27.1084 5.53234 26.5272 5.82295L12.0551 13.059C8.032 15.0705 5.49072 19.1824 5.49072 23.6803V52.5C5.49072 53.5355 6.33019 54.375 7.36572 54.375H31.0724L31.1007 54.3748H51.4673C53.8835 54.3748 55.8423 52.416 55.8423 49.9998V33.78C55.8423 32.1202 54.903 30.6032 53.4171 29.8635L43.1478 24.7511C41.9663 24.1629 40.5824 24.1395 39.3817 24.6875L28.0494 29.8589C26.4908 30.5702 25.4907 32.1258 25.4907 33.8391V49.9998C25.4907 50.2121 25.5058 50.4208 25.5351 50.625H9.24072V23.6803C9.24072 20.6028 10.9795 17.7894 13.7321 16.4131L25.4907 10.5338V22.492C25.4907 23.5275 26.3302 24.367 27.3657 24.367C28.4013 24.367 29.2407 23.5275 29.2407 22.492V7.5ZM41.4765 28.1081C41.3078 28.0241 41.1101 28.0207 40.9385 28.099L29.6062 33.2705C29.3836 33.3721 29.2407 33.5943 29.2407 33.8391V49.9998C29.2407 50.345 29.5205 50.6248 29.8657 50.6248H34.5758V44.3372C34.5758 40.9734 37.3027 38.2465 40.6665 38.2465C44.0303 38.2465 46.7572 40.9734 46.7572 44.3372V50.6248H51.4673C51.8125 50.6248 52.0923 50.345 52.0923 49.9998V33.78C52.0923 33.5429 51.9581 33.3262 51.7458 33.2205L41.4765 28.1081ZM43.0072 50.6248V44.3372C43.0072 43.0444 41.9592 41.9965 40.6665 41.9965C39.3738 41.9965 38.3258 43.0444 38.3258 44.3372V50.6248H43.0072Z" fill="#8A8A8A"/>
<path d="M17.3657 20.625C18.4013 20.625 19.2407 21.4645 19.2407 22.5V22.525C19.2407 23.5605 18.4013 24.4 17.3657 24.4C16.3302 24.4 15.4907 23.5605 15.4907 22.525V22.5C15.4907 21.4645 16.3302 20.625 17.3657 20.625Z" fill="#8A8A8A"/>
<path d="M19.2407 30C19.2407 28.9645 18.4013 28.125 17.3657 28.125C16.3302 28.125 15.4907 28.9645 15.4907 30V30.025C15.4907 31.0605 16.3302 31.9 17.3657 31.9C18.4013 31.9 19.2407 31.0605 19.2407 30.025V30Z" fill="#8A8A8A"/>
<path d="M17.3657 35.625C18.4013 35.625 19.2407 36.4645 19.2407 37.5V37.525C19.2407 38.5605 18.4013 39.4 17.3657 39.4C16.3302 39.4 15.4907 38.5605 15.4907 37.525V37.5C15.4907 36.4645 16.3302 35.625 17.3657 35.625Z" fill="#8A8A8A"/>
<path d="M19.2407 45C19.2407 43.9645 18.4013 43.125 17.3657 43.125C16.3302 43.125 15.4907 43.9645 15.4907 45V45.025C15.4907 46.0605 16.3302 46.9 17.3657 46.9C18.4013 46.9 19.2407 46.0605 19.2407 45.025V45Z" fill="#8A8A8A"/>
</svg>
