<svg width="80" height="80" viewBox="0 0 80 80" fill="none" xmlns="http://www.w3.org/2000/svg">
<path d="M42.68 53.7449C43.409 53.7449 43.9821 53.1719 43.9821 52.4429V47.0784C43.9821 46.3595 43.3985 45.7764 42.68 45.7764H37.3156C36.5971 45.7764 36.0135 46.3599 36.0135 47.0784V52.4429C36.0135 53.1613 36.5971 53.7449 37.3156 53.7449H42.68Z" fill="#CEE6F9"/>
<path d="M68.3861 20.5588H51.9707V15.208C51.9707 12.3363 49.634 10 46.7627 10H33.2377C30.366 10 28.0297 12.3368 28.0297 15.208V20.5588H11.6157C8.88626 20.5588 6.66782 22.7773 6.66782 25.5067V38.1627L34.4481 47.1518V47.0792C34.4481 45.4959 35.7296 44.2145 37.3128 44.2145H42.6773C44.2605 44.2145 45.5419 45.4959 45.5419 47.0792V47.1729L73.3325 38.2774V25.5066C73.3325 22.7777 71.1136 20.5587 68.3847 20.5587L68.3861 20.5588ZM32.1966 20.5588V15.208C32.1966 14.6339 32.6638 14.1662 33.2384 14.1662H46.7634C47.3375 14.1662 47.8052 14.6334 47.8052 15.208V20.5588H32.1966Z" fill="#016BBF"/>
<path d="M45.5432 52.4436C45.5432 54.0269 44.2618 55.3083 42.6786 55.3083H37.3141C35.7309 55.3083 34.4495 54.0269 34.4495 52.4436V48.7873L6.66913 39.7982V63.6524C6.66913 66.3818 8.88758 68.6003 11.617 68.6003H68.3866C71.116 68.6003 73.3345 66.3818 73.3345 63.6524V39.9239L45.5426 48.8093L45.5432 52.4436Z" fill="#016BBF"/>
</svg>
