<svg width="61" height="61" viewBox="0 0 61 61" fill="none" xmlns="http://www.w3.org/2000/svg">
<path d="M11.0403 11.6653C11.6263 11.0792 12.4212 10.75 13.25 10.75H48.25C49.0788 10.75 49.8737 11.0792 50.4597 11.6653C51.0458 12.2513 51.375 13.0462 51.375 13.875V43.875C51.375 44.7038 51.0458 45.4987 50.4597 46.0847C49.8737 46.6708 49.0788 47 48.25 47C47.2145 47 46.375 47.8395 46.375 48.875C46.375 49.9105 47.2145 50.75 48.25 50.75C50.0734 50.75 51.822 50.0257 53.1114 48.7364C54.4007 47.447 55.125 45.6984 55.125 43.875V13.875C55.125 12.0516 54.4007 10.303 53.1114 9.01364C51.822 7.72433 50.0734 7 48.25 7H13.25C11.4266 7 9.67795 7.72433 8.38864 9.01364C7.09933 10.303 6.375 12.0516 6.375 13.875V43.875C6.375 45.6984 7.09933 47.447 8.38864 48.7364C9.67795 50.0257 11.4266 50.75 13.25 50.75C14.2855 50.75 15.125 49.9105 15.125 48.875C15.125 47.8395 14.2855 47 13.25 47C12.4212 47 11.6263 46.6708 11.0403 46.0847C10.4542 45.4987 10.125 44.7038 10.125 43.875V13.875C10.125 13.0462 10.4542 12.2513 11.0403 11.6653Z" fill="#8A8A8A"/>
<path d="M15.75 14.5C14.7145 14.5 13.875 15.3395 13.875 16.375C13.875 17.4105 14.7145 18.25 15.75 18.25H45.75C46.7855 18.25 47.625 17.4105 47.625 16.375C47.625 15.3395 46.7855 14.5 45.75 14.5H15.75Z" fill="#8A8A8A"/>
<path d="M18.4807 23.875C18.4807 22.8395 19.3202 22 20.3557 22H41.1443C42.1798 22 43.0193 22.8395 43.0193 23.875C43.0193 24.9105 42.1798 25.75 41.1443 25.75H20.3557C19.3202 25.75 18.4807 24.9105 18.4807 23.875Z" fill="#8A8A8A"/>
<path d="M36.3947 40.4791C37.1269 39.7469 37.1269 38.5597 36.3947 37.8275C35.6624 37.0953 34.4753 37.0953 33.743 37.8275L31.1541 40.4165L28.5651 37.8275C27.8329 37.0953 26.6457 37.0953 25.9134 37.8275C25.1812 38.5597 25.1812 39.7469 25.9134 40.4791L28.5024 43.0681L25.9134 45.6571C25.1812 46.3893 25.1812 47.5765 25.9134 48.3087C26.6457 49.041 27.8329 49.041 28.5651 48.3087L31.1541 45.7198L33.743 48.3087C34.4753 49.041 35.6624 49.041 36.3947 48.3087C37.1269 47.5765 37.1269 46.3893 36.3947 45.6571L33.8057 43.0681L36.3947 40.4791Z" fill="#8A8A8A"/>
<path fill-rule="evenodd" clip-rule="evenodd" d="M30.75 56.8181C38.3439 56.8181 44.5 50.662 44.5 43.0681C44.5 35.4742 38.3439 29.3181 30.75 29.3181C23.1561 29.3181 17 35.4742 17 43.0681C17 50.662 23.1561 56.8181 30.75 56.8181ZM40.75 43.0681C40.75 48.591 36.2728 53.0681 30.75 53.0681C25.2272 53.0681 20.75 48.591 20.75 43.0681C20.75 37.5453 25.2272 33.0681 30.75 33.0681C36.2728 33.0681 40.75 37.5453 40.75 43.0681Z" fill="#8A8A8A"/>
</svg>
