<svg width="25" height="24" viewBox="0 0 25 24" fill="none" xmlns="http://www.w3.org/2000/svg">
<circle cx="7.17065" cy="17.3691" r="1.66553" fill="#B3D3EC"/>
<circle cx="17.0881" cy="17.3691" r="1.66553" fill="#B3D3EC"/>
<path d="M12.3455 6.45288V11.4285H17.7273L14.3763 6.45288H12.3455Z" fill="#B3D3EC"/>
<path fill-rule="evenodd" clip-rule="evenodd" d="M9.76143 5.60181C9.34721 5.60181 9.01143 5.93759 9.01143 6.35181C9.01143 6.76602 9.34721 7.10181 9.76143 7.10181H11.4165V10.6018H9.76143C9.34721 10.6018 9.01143 10.9376 9.01143 11.3518C9.01143 11.766 9.34721 12.1018 9.76143 12.1018H19.1665C19.498 12.1018 19.816 12.2335 20.0504 12.4679C20.2848 12.7023 20.4165 13.0203 20.4165 13.3518V16.6018H19.8123C19.6854 16.1543 19.4458 15.742 19.111 15.4073C18.5953 14.8915 17.8958 14.6018 17.1665 14.6018C16.4372 14.6018 15.7377 14.8915 15.222 15.4073C14.8872 15.742 14.6476 16.1543 14.5207 16.6018H9.81226C9.68538 16.1543 9.44583 15.742 9.11105 15.4073C8.59532 14.8915 7.89585 14.6018 7.1665 14.6018C6.43716 14.6018 5.73768 14.8915 5.22196 15.4073C4.88718 15.742 4.64763 16.1543 4.52075 16.6018H3.9165V14.3518C3.9165 13.9376 3.58072 13.6018 3.1665 13.6018C2.75229 13.6018 2.4165 13.9376 2.4165 14.3518V17.3518C2.4165 17.766 2.75229 18.1018 3.1665 18.1018H4.52075C4.64763 18.5494 4.88718 18.9616 5.22196 19.2964C5.73768 19.8121 6.43716 20.1018 7.1665 20.1018C7.89585 20.1018 8.59532 19.8121 9.11105 19.2964C9.44583 18.9616 9.68538 18.5494 9.81226 18.1018H14.5207C14.6476 18.5494 14.8872 18.9616 15.222 19.2964C15.7377 19.8121 16.4372 20.1018 17.1665 20.1018C17.8958 20.1018 18.5953 19.8121 19.111 19.2964C19.4458 18.9616 19.6854 18.5494 19.8123 18.1018H21.1665C21.5807 18.1018 21.9165 17.766 21.9165 17.3518V13.3518C21.9165 12.6225 21.6268 11.923 21.111 11.4073C20.5953 10.8915 19.8958 10.6018 19.1665 10.6018H18.527L14.7522 5.88329C14.6098 5.70537 14.3943 5.60181 14.1665 5.60181H9.76143ZM15.9165 17.3518C15.9165 17.6833 16.0482 18.0013 16.2826 18.2357C16.517 18.4701 16.835 18.6018 17.1665 18.6018C17.498 18.6018 17.816 18.4701 18.0504 18.2357C18.2848 18.0013 18.4165 17.6833 18.4165 17.3518C18.4165 17.0203 18.2848 16.7023 18.0504 16.4679C17.816 16.2335 17.498 16.1018 17.1665 16.1018C16.835 16.1018 16.517 16.2335 16.2826 16.4679C16.0482 16.7023 15.9165 17.0203 15.9165 17.3518ZM8.4165 17.3518C8.4165 17.0203 8.28481 16.7023 8.05039 16.4679C7.81597 16.2335 7.49802 16.1018 7.1665 16.1018C6.83498 16.1018 6.51704 16.2335 6.28262 16.4679C6.0482 16.7023 5.9165 17.0203 5.9165 17.3518C5.9165 17.6833 6.0482 18.0013 6.28262 18.2357C6.51704 18.4701 6.83498 18.6018 7.1665 18.6018C7.49802 18.6018 7.81597 18.4701 8.05039 18.2357C8.28481 18.0013 8.4165 17.6833 8.4165 17.3518ZM12.9165 10.6018V7.10181H13.806L16.606 10.6018H12.9165Z" fill="#016BBF"/>
<path fill-rule="evenodd" clip-rule="evenodd" d="M5.1665 5.39819C4.4185 5.39819 3.9165 5.94437 3.9165 6.49439C3.9165 6.90861 3.58072 7.24439 3.1665 7.24439C2.75229 7.24439 2.4165 6.90861 2.4165 6.49439C2.4165 5.00522 3.70531 3.89819 5.1665 3.89819C6.6277 3.89819 7.9165 5.00522 7.9165 6.49439C7.9165 7.02382 7.74816 7.51459 7.46482 7.92096C7.28995 8.1718 7.08611 8.41048 6.89983 8.62419C6.86558 8.66348 6.83198 8.70187 6.799 8.73955C6.64434 8.91626 6.5033 9.07741 6.37294 9.24279C6.04743 9.65577 5.9165 9.94339 5.9165 10.1867V10.6482C5.9165 11.0624 5.58072 11.3982 5.1665 11.3982C4.75229 11.3982 4.4165 11.0624 4.4165 10.6482V10.1867C4.4165 9.4104 4.82828 8.77937 5.19489 8.31424C5.35151 8.11554 5.52316 7.91954 5.67833 7.74237C5.70933 7.70697 5.73967 7.67233 5.7691 7.63856C5.95442 7.42596 6.11038 7.24092 6.23434 7.06309C6.35221 6.89405 6.4165 6.69996 6.4165 6.49439C6.4165 5.94437 5.91451 5.39819 5.1665 5.39819ZM4.4067 12.6482C4.4067 12.234 4.74249 11.8982 5.1567 11.8982H5.1657C5.57992 11.8982 5.9157 12.234 5.9157 12.6482C5.9157 13.0624 5.57992 13.3982 5.1657 13.3982H5.1567C4.74249 13.3982 4.4067 13.0624 4.4067 12.6482Z" fill="#016BBF"/>
</svg>
