<svg width="80" height="80" viewBox="0 0 80 80" fill="none" xmlns="http://www.w3.org/2000/svg">
<path d="M27.3623 51.6111C27.3623 49.9307 26.6947 48.3194 25.5063 47.1315C24.3179 45.9435 22.7062 45.2763 21.0257 45.2768C19.3457 45.2777 17.7345 45.9458 16.547 47.1347C15.3595 48.3232 14.6928 49.9353 14.6942 51.6158C14.6951 53.2958 15.3642 54.907 16.5531 56.094C17.7425 57.281 19.3546 57.9468 21.0346 57.9449C22.7141 57.9449 24.3244 57.2777 25.5115 56.0892C26.6981 54.9013 27.3639 53.2901 27.3624 51.611L27.3623 51.6111Z" fill="#016BBF"/>
<path d="M73.2727 45.6425V45.5891C73.2546 45.3633 73.2119 45.1399 73.1463 44.9233C72.2803 40.9268 69.2762 37.317 65.2802 36.2911C63.3085 35.8126 61.3051 35.4739 59.2855 35.2788C57.745 35.2003 56.3335 34.3942 55.4828 33.1077C51.9327 28.0324 46.9773 25.1153 40.9023 24.016C35.2058 23.0933 29.397 23.1068 23.7052 24.056C20.413 24.4974 17.4944 26.398 15.7596 29.2312C15.0334 30.3569 14.4676 31.6025 13.6814 32.6813C12.9422 33.8586 12.0205 34.9109 10.9505 35.7983C9.04798 37.0281 7.72242 38.9733 7.27415 41.1936C7.00096 42.6655 6.82117 44.1508 6.66785 45.6426H6.7013C6.69108 45.7936 6.69108 45.9446 6.7013 46.0956V49.4258C6.71942 50.1483 7.31039 50.7248 8.03327 50.7244H13.0286C13.306 48.0604 14.8902 45.7081 17.2551 44.4495C19.6199 43.1914 22.4558 43.1914 24.8205 44.4495C27.1853 45.7081 28.7696 48.0603 29.0469 50.7244H52.8712V50.4247C52.9525 47.6019 54.5052 45.0275 56.9643 43.6388C59.4235 42.25 62.4303 42.25 64.8894 43.6388C67.3486 45.0275 68.9017 47.6017 68.983 50.4247V50.7244H72.0001C72.723 50.7248 73.314 50.1483 73.3321 49.4258V45.8158C73.3353 45.7582 73.3353 45.7001 73.3321 45.6425L73.2727 45.6425Z" fill="#016BBF"/>
<path d="M32.9114 36.6846C28.9149 36.6846 25.0253 36.7845 21.1422 36.6381C19.2309 36.5717 18.7844 35.5593 19.4906 33.7474C21.8349 27.7532 25.6182 25.7949 32.9114 26.9136V36.6846ZM50.1026 36.6846C45.7665 36.751 41.4438 36.6846 36.8554 36.6846V27.0136C41.8572 26.0876 49.364 29.9443 51.5084 34.5132C52.1612 35.9455 51.7816 36.6911 50.103 36.7181L50.1026 36.6846Z" fill="#CEE6F9"/>
<path d="M67.2363 50.4529C67.2363 48.7725 66.5687 47.1612 65.3803 45.9733C64.1919 44.7853 62.5802 44.1181 60.8997 44.1186C59.2197 44.1195 57.6085 44.7876 56.421 45.9765C55.2335 47.1649 54.5668 48.7771 54.5682 50.4576C54.5692 52.1376 55.2382 53.7488 56.4271 54.9358C57.6165 56.1228 59.2287 56.7886 60.9087 56.7867C62.5882 56.7867 64.1985 56.1195 65.3856 54.931C66.5721 53.7431 67.2379 52.1319 67.2365 50.4528L67.2363 50.4529Z" fill="#016BBF"/>
<path d="M20.993 54.3916V54.3921C20.2454 54.3921 19.5286 54.0947 19.0003 53.566C18.4716 53.0368 18.1752 52.3199 18.1757 51.5724C18.1766 50.8244 18.4739 50.108 19.0036 49.5797C19.5327 49.0519 20.25 48.756 20.9977 48.7569C21.7452 48.7583 22.4617 49.0566 22.9894 49.5862C23.5167 50.1158 23.8122 50.8336 23.8108 51.5811C23.8034 52.3231 23.5032 53.0321 22.9754 53.5538C22.4477 54.0751 21.7349 54.3669 20.993 54.365L20.993 54.3916Z" fill="#CEE6F9"/>
<path d="M60.9559 53.2313V53.2318C60.2083 53.2318 59.4915 52.9344 58.9632 52.4057C58.4345 51.8765 58.1381 51.1596 58.1386 50.4121C58.1395 49.6641 58.4368 48.9477 58.9665 48.4194C59.4956 47.8916 60.2129 47.5957 60.9606 47.5966C61.7081 47.598 62.4246 47.8963 62.9523 48.4259C63.4796 48.9556 63.7751 49.6733 63.7737 50.4209C63.7662 51.1628 63.4661 51.8718 62.9383 52.3936C62.4106 52.9148 61.6978 53.2066 60.9559 53.2047L60.9559 53.2313Z" fill="#CEE6F9"/>
</svg>
