<svg width="61" height="61" viewBox="0 0 61 61" fill="none" xmlns="http://www.w3.org/2000/svg">
<path d="M12.75 10.75C11.9212 10.75 11.1263 11.0792 10.5403 11.6653C9.95424 12.2513 9.625 13.0462 9.625 13.875V43.875C9.625 44.7038 9.95424 45.4987 10.5403 46.0847C11.1263 46.6708 11.9212 47 12.75 47C13.7855 47 14.625 47.8395 14.625 48.875C14.625 49.9105 13.7855 50.75 12.75 50.75C10.9266 50.75 9.17795 50.0257 7.88864 48.7364C6.59933 47.447 5.875 45.6984 5.875 43.875V13.875C5.875 12.0516 6.59933 10.303 7.88864 9.01364C9.17795 7.72433 10.9266 7 12.75 7H47.75C49.5734 7 51.322 7.72433 52.6114 9.01364C53.9007 10.303 54.625 12.0516 54.625 13.875V43.875C54.625 45.6984 53.9007 47.447 52.6114 48.7364C51.322 50.0257 49.5734 50.75 47.75 50.75C46.7145 50.75 45.875 49.9105 45.875 48.875C45.875 47.8395 46.7145 47 47.75 47C48.5788 47 49.3737 46.6708 49.9597 46.0847C50.5458 45.4987 50.875 44.7038 50.875 43.875V13.875C50.875 13.0462 50.5458 12.2513 49.9597 11.6653C49.3737 11.0792 48.5788 10.75 47.75 10.75H12.75Z" fill="#8A8A8A"/>
<path d="M13.375 16.375C13.375 15.3395 14.2145 14.5 15.25 14.5H45.25C46.2855 14.5 47.125 15.3395 47.125 16.375C47.125 17.4105 46.2855 18.25 45.25 18.25H15.25C14.2145 18.25 13.375 17.4105 13.375 16.375Z" fill="#8A8A8A"/>
<path d="M19.8557 22C18.8202 22 17.9807 22.8395 17.9807 23.875C17.9807 24.9105 18.8202 25.75 19.8557 25.75H40.6443C41.6798 25.75 42.5193 24.9105 42.5193 23.875C42.5193 22.8395 41.6798 22 40.6443 22H19.8557Z" fill="#8A8A8A"/>
<path d="M34.6144 39.2785C35.3467 40.0107 35.3467 41.1979 34.6144 41.9301L30.5733 45.9712C30.2217 46.3229 29.7448 46.5204 29.2475 46.5204C28.7502 46.5204 28.2733 46.3229 27.9216 45.9712L25.9011 43.9507C25.1689 43.2184 25.1689 42.0313 25.9011 41.299C26.6333 40.5668 27.8205 40.5668 28.5527 41.299L29.2475 41.9938L31.9628 39.2785C32.695 38.5462 33.8822 38.5462 34.6144 39.2785Z" fill="#8A8A8A"/>
<path fill-rule="evenodd" clip-rule="evenodd" d="M36.5906 33.4193L35.6579 33.2583L35.0522 32.5311C32.5534 29.5313 27.9466 29.5313 25.4478 32.5311L24.842 33.2583L23.9094 33.4193C20.0621 34.0834 17.7587 38.0731 19.1072 41.737L19.4341 42.6252L19.1072 43.5134C17.7587 47.1773 20.0621 51.1669 23.9094 51.831L24.842 51.992L25.4478 52.7192C27.9466 55.719 32.5534 55.719 35.0522 52.7192L35.6579 51.992L36.5906 51.831C40.4379 51.1669 42.7413 47.1773 41.3928 43.5134L41.0659 42.6252L41.3928 41.737C42.7413 38.0731 40.4379 34.0834 36.5906 33.4193ZM28.3291 34.9312C29.3286 33.7313 31.1714 33.7313 32.1709 34.9312L33.0711 36.0119C33.4512 36.4682 33.9814 36.7744 34.5667 36.8754L35.9527 37.1146C37.4916 37.3803 38.413 38.9762 37.8736 40.4417L37.3878 41.7617C37.1826 42.3191 37.1826 42.9313 37.3878 43.4887L37.8736 44.8086C38.413 46.2742 37.4916 47.87 35.9527 48.1357L34.5667 48.3749C33.9814 48.476 33.4512 48.7821 33.0711 49.2384L32.1709 50.3191C31.1714 51.5191 29.3286 51.5191 28.3291 50.3191L27.4289 49.2384C27.0488 48.7821 26.5186 48.476 25.9333 48.3749L24.5472 48.1357C23.0083 47.87 22.087 46.2742 22.6264 44.8086L23.1122 43.4887C23.3173 42.9313 23.3173 42.3191 23.1122 41.7617L22.6264 40.4417C22.087 38.9762 23.0083 37.3803 24.5472 37.1146L25.9333 36.8754C26.5186 36.7744 27.0488 36.4682 27.4289 36.0119L28.3291 34.9312Z" fill="#8A8A8A"/>
</svg>
