<svg width="61" height="60" viewBox="0 0 61 60" fill="none" xmlns="http://www.w3.org/2000/svg">
<path d="M33.25 16.25C33.25 15.5596 32.6904 15 32 15C31.3096 15 30.75 15.5596 30.75 16.25V21.25C30.75 21.9404 31.3096 22.5 32 22.5C32.6904 22.5 33.25 21.9404 33.25 21.25V16.25Z" fill="#016BBF"/>
<path d="M37.3956 17.5639C36.7406 17.3456 36.0327 17.6995 35.8144 18.3544L33.3144 25.8544C33.0961 26.5094 33.4501 27.2173 34.105 27.4356C34.7599 27.6539 35.4678 27.2999 35.6861 26.645L38.1861 19.145C38.4044 18.4901 38.0505 17.7822 37.3956 17.5639Z" fill="#016BBF"/>
<path d="M23.8068 17.7101C24.3812 17.3271 25.1573 17.4823 25.5402 18.0568L30.5402 25.5568C30.9231 26.1312 30.7679 26.9073 30.1935 27.2902C29.6191 27.6731 28.843 27.5179 28.4601 26.9435L23.4601 19.4435C23.0771 18.8691 23.2323 18.093 23.8068 17.7101Z" fill="#016BBF"/>
<path fill-rule="evenodd" clip-rule="evenodd" d="M7.20578 22.7684C7.28584 21.8533 8.09259 21.1764 9.0077 21.2564L16.9297 21.9495C17.9551 22.0392 18.9028 22.5326 19.5645 23.3211L24.4315 29.1214C24.526 29.234 24.6614 29.3045 24.8079 29.3173L27.2067 29.5272C29.342 29.714 30.9215 31.5964 30.7347 33.7317L30.2515 39.2549C30.0647 41.3902 28.1823 42.9697 26.047 42.7829L23.8377 42.5896C23.7443 42.5814 23.6534 42.5657 23.5655 42.543C22.7195 44.4262 20.7504 45.6585 18.5777 45.4684C16.4045 45.2783 14.6791 43.7221 14.1734 41.7199C14.0826 41.7271 13.99 41.7268 13.8963 41.7186L7.26842 41.1387C6.35331 41.0587 5.67637 40.2519 5.75643 39.3368C5.83649 38.4217 6.64324 37.7448 7.55835 37.8248L14.1862 38.4047C14.2802 38.4129 14.3716 38.4288 14.46 38.4517C15.3061 36.5687 17.275 35.3366 19.4475 35.5267C21.6204 35.7168 23.3456 37.2725 23.8516 39.2743C23.9421 39.2672 24.0343 39.2675 24.1276 39.2757L26.3369 39.469C26.642 39.4956 26.9109 39.27 26.9376 38.965L27.4208 33.4418C27.4475 33.1367 27.2218 32.8678 26.9168 32.8411L24.518 32.6313C23.4926 32.5415 22.5448 32.0482 21.8832 31.2597L17.0162 25.4594C16.9217 25.3467 16.7863 25.2762 16.6398 25.2634L8.71777 24.5703C7.80266 24.4903 7.12572 23.6835 7.20578 22.7684ZM17.3557 40.3526C17.4357 39.4375 18.2425 38.7605 19.1576 38.8406C20.0727 38.9207 20.7496 39.7274 20.6696 40.6425C20.5895 41.5576 19.7828 42.2346 18.8677 42.1545C17.9525 42.0745 17.2756 41.2677 17.3557 40.3526Z" fill="#016BBF"/>
<path fill-rule="evenodd" clip-rule="evenodd" d="M14.9976 26.9005C14.7211 26.4559 14.2515 26.1674 13.73 26.1218L8.75911 25.6869C7.844 25.6068 7.03725 26.2837 6.95719 27.1989L6.52229 32.1697C6.44223 33.0848 7.11917 33.8916 8.03429 33.9717L16.7333 34.7327C17.3609 34.7876 17.9657 34.4832 18.2955 33.9464C18.6253 33.4096 18.6235 32.7326 18.2908 32.1976L14.9976 26.9005ZM12.6116 29.3632L13.7093 31.1289L9.98118 30.8027L10.1261 29.1457L12.6116 29.3632Z" fill="#016BBF"/>
<path fill-rule="evenodd" clip-rule="evenodd" d="M52.4923 21.2564C53.4074 21.1764 54.2142 21.8533 54.2942 22.7684C54.3743 23.6835 53.6973 24.4903 52.7822 24.5703L44.8602 25.2634C44.7137 25.2762 44.5784 25.3467 44.4838 25.4594L39.6168 31.2597C38.9552 32.0482 38.0074 32.5415 36.982 32.6313L34.5832 32.8411C34.2782 32.8678 34.0525 33.1367 34.0792 33.4418L34.5624 38.965C34.5891 39.27 34.858 39.4956 35.1631 39.469L37.3724 39.2757C37.4657 39.2675 37.5579 39.2672 37.6484 39.2743C38.1544 37.2725 39.8796 35.7168 42.0525 35.5267C44.225 35.3366 46.1939 36.5687 47.04 38.4517C47.1284 38.4288 47.2199 38.4129 47.3138 38.4047L53.9416 37.8248C54.8568 37.7448 55.6635 38.4217 55.7436 39.3368C55.8236 40.2519 55.1467 41.0587 54.2316 41.1387L47.6037 41.7186C47.51 41.7268 47.4174 41.7271 47.3266 41.7199C46.8209 43.7221 45.0955 45.2783 42.9223 45.4684C40.7496 45.6585 38.7805 44.4262 37.9345 42.543C37.8466 42.5657 37.7557 42.5814 37.6623 42.5896L35.453 42.7829C33.3178 42.9697 31.4353 41.3902 31.2485 39.2549L30.7653 33.7317C30.5785 31.5964 32.158 29.714 34.2933 29.5272L36.6921 29.3173C36.8386 29.3045 36.974 29.234 37.0685 29.1214L41.9355 23.3211C42.5972 22.5326 43.5449 22.0392 44.5703 21.9495L52.4923 21.2564ZM42.3424 38.8406C43.2575 38.7605 44.0643 39.4375 44.1443 40.3526C44.2244 41.2677 43.5475 42.0745 42.6323 42.1545C41.7172 42.2346 40.9105 41.5576 40.8304 40.6425C40.7504 39.7274 41.4273 38.9207 42.3424 38.8406Z" fill="#016BBF"/>
<path fill-rule="evenodd" clip-rule="evenodd" d="M47.77 26.1218C47.2485 26.1674 46.7789 26.4559 46.5024 26.9005L43.2092 32.1976C42.8765 32.7326 42.8747 33.4096 43.2045 33.9464C43.5343 34.4832 44.1391 34.7876 44.7667 34.7327L53.4657 33.9717C54.3808 33.8916 55.0578 33.0848 54.9777 32.1697L54.5428 27.1989C54.4627 26.2837 53.656 25.6068 52.7409 25.6869L47.77 26.1218ZM47.7907 31.1289L48.8884 29.3632L51.3739 29.1457L51.5188 30.8027L47.7907 31.1289Z" fill="#016BBF"/>
<path fill-rule="evenodd" clip-rule="evenodd" d="M17.3554 40.3533C17.4355 39.4382 18.2423 38.7613 19.1574 38.8414C20.0725 38.9214 20.7494 39.7282 20.6694 40.6433C20.5893 41.5584 19.7826 42.2353 18.8674 42.1553C17.9523 42.0752 17.2754 41.2685 17.3554 40.3533Z" fill="#B3D3EC"/>
<path fill-rule="evenodd" clip-rule="evenodd" d="M12.6114 29.3639L13.7091 31.1296L9.98096 30.8034L10.1259 29.1465L12.6114 29.3639Z" fill="#B3D3EC"/>
<path fill-rule="evenodd" clip-rule="evenodd" d="M42.3422 38.8414C43.2573 38.7613 44.0641 39.4382 44.1441 40.3533C44.2242 41.2685 43.5472 42.0752 42.6321 42.1553C41.717 42.2353 40.9103 41.5584 40.8302 40.6433C40.7501 39.7282 41.4271 38.9214 42.3422 38.8414Z" fill="#B3D3EC"/>
<path fill-rule="evenodd" clip-rule="evenodd" d="M47.7904 31.1296L48.8882 29.3639L51.3736 29.1465L51.5186 30.8034L47.7904 31.1296Z" fill="#B3D3EC"/>
</svg>
