<svg width="60" height="60" viewBox="0 0 60 60" fill="none" xmlns="http://www.w3.org/2000/svg">
<g id="toggle icons">
<g id="Union">
<path fill-rule="evenodd" clip-rule="evenodd" d="M10 8.125C8.96447 8.125 8.125 8.96447 8.125 10V25C8.125 26.0355 8.96447 26.875 10 26.875H25C26.0355 26.875 26.875 26.0355 26.875 25V10C26.875 8.96447 26.0355 8.125 25 8.125H10ZM11.875 23.125V11.875H23.125V23.125H11.875Z" fill="#8A8A8A"/>
<path fill-rule="evenodd" clip-rule="evenodd" d="M35 8.125C33.9645 8.125 33.125 8.96447 33.125 10V25C33.125 26.0355 33.9645 26.875 35 26.875H50C51.0355 26.875 51.875 26.0355 51.875 25V10C51.875 8.96447 51.0355 8.125 50 8.125H35ZM36.875 23.125V11.875H48.125V23.125H36.875Z" fill="#8A8A8A"/>
<path fill-rule="evenodd" clip-rule="evenodd" d="M8.125 35C8.125 33.9645 8.96447 33.125 10 33.125H25C26.0355 33.125 26.875 33.9645 26.875 35V50C26.875 51.0355 26.0355 51.875 25 51.875H10C8.96447 51.875 8.125 51.0355 8.125 50V35ZM11.875 36.875V48.125H23.125V36.875H11.875Z" fill="#8A8A8A"/>
<path fill-rule="evenodd" clip-rule="evenodd" d="M42.5 33.125C40.0136 33.125 37.629 34.1127 35.8709 35.8709C34.1127 37.629 33.125 40.0136 33.125 42.5C33.125 44.9864 34.1127 47.371 35.8709 49.1291C37.629 50.8873 40.0136 51.875 42.5 51.875C44.9864 51.875 47.371 50.8873 49.1291 49.1291C50.8873 47.371 51.875 44.9864 51.875 42.5C51.875 40.0136 50.8873 37.629 49.1291 35.8709C47.371 34.1127 44.9864 33.125 42.5 33.125ZM38.5225 38.5225C39.5774 37.4676 41.0082 36.875 42.5 36.875C43.9918 36.875 45.4226 37.4676 46.4775 38.5225C47.5324 39.5774 48.125 41.0082 48.125 42.5C48.125 43.9918 47.5324 45.4226 46.4775 46.4775C45.4226 47.5324 43.9918 48.125 42.5 48.125C41.0082 48.125 39.5774 47.5324 38.5225 46.4775C37.4676 45.4226 36.875 43.9918 36.875 42.5C36.875 41.0082 37.4676 39.5774 38.5225 38.5225Z" fill="#8A8A8A"/>
</g>
</g>
</svg>
