<svg width="61" height="60" viewBox="0 0 61 60" fill="none" xmlns="http://www.w3.org/2000/svg">
<g id="toggle icons">
<path id="Vector" d="M10.333 10H25.333V25H10.333V10Z" fill="#B3D3EC"/>
<path id="Vector_2" d="M35.333 42.5C35.333 44.4891 36.1232 46.3968 37.5297 47.8033C38.9362 49.2098 40.8439 50 42.833 50C44.8221 50 46.7298 49.2098 48.1363 47.8033C49.5428 46.3968 50.333 44.4891 50.333 42.5C50.333 40.5109 49.5428 38.6032 48.1363 37.1967C46.7298 35.7902 44.8221 35 42.833 35C40.8439 35 38.9362 35.7902 37.5297 37.1967C36.1232 38.6032 35.333 40.5109 35.333 42.5Z" fill="#B3D3EC"/>
<g id="Union">
<path fill-rule="evenodd" clip-rule="evenodd" d="M10.333 8.125C9.29747 8.125 8.45801 8.96447 8.45801 10V25C8.45801 26.0355 9.29747 26.875 10.333 26.875H25.333C26.3685 26.875 27.208 26.0355 27.208 25V10C27.208 8.96447 26.3685 8.125 25.333 8.125H10.333ZM12.208 23.125V11.875H23.458V23.125H12.208Z" fill="#016BBF"/>
<path fill-rule="evenodd" clip-rule="evenodd" d="M35.333 8.125C34.2975 8.125 33.458 8.96447 33.458 10V25C33.458 26.0355 34.2975 26.875 35.333 26.875H50.333C51.3685 26.875 52.208 26.0355 52.208 25V10C52.208 8.96447 51.3685 8.125 50.333 8.125H35.333ZM37.208 23.125V11.875H48.458V23.125H37.208Z" fill="#016BBF"/>
<path fill-rule="evenodd" clip-rule="evenodd" d="M8.45801 35C8.45801 33.9645 9.29747 33.125 10.333 33.125H25.333C26.3685 33.125 27.208 33.9645 27.208 35V50C27.208 51.0355 26.3685 51.875 25.333 51.875H10.333C9.29747 51.875 8.45801 51.0355 8.45801 50V35ZM12.208 36.875V48.125H23.458V36.875H12.208Z" fill="#016BBF"/>
<path fill-rule="evenodd" clip-rule="evenodd" d="M42.833 33.125C40.3466 33.125 37.962 34.1127 36.2039 35.8709C34.4457 37.629 33.458 40.0136 33.458 42.5C33.458 44.9864 34.4457 47.371 36.2039 49.1291C37.962 50.8873 40.3466 51.875 42.833 51.875C45.3194 51.875 47.704 50.8873 49.4621 49.1291C51.2203 47.371 52.208 44.9864 52.208 42.5C52.208 40.0136 51.2203 37.629 49.4621 35.8709C47.704 34.1127 45.3194 33.125 42.833 33.125ZM38.8555 38.5225C39.9104 37.4676 41.3412 36.875 42.833 36.875C44.3249 36.875 45.7556 37.4676 46.8105 38.5225C47.8654 39.5774 48.458 41.0082 48.458 42.5C48.458 43.9918 47.8654 45.4226 46.8105 46.4775C45.7556 47.5324 44.3249 48.125 42.833 48.125C41.3412 48.125 39.9104 47.5324 38.8555 46.4775C37.8006 45.4226 37.208 43.9918 37.208 42.5C37.208 41.0082 37.8006 39.5774 38.8555 38.5225Z" fill="#016BBF"/>
</g>
</g>
</svg>
