<svg width="61" height="61" viewBox="0 0 61 61" fill="none" xmlns="http://www.w3.org/2000/svg">
<path d="M23.1665 21.6064C24.202 21.6064 25.0415 22.4459 25.0415 23.4814V23.5064C25.0415 24.542 24.202 25.3814 23.1665 25.3814C22.131 25.3814 21.2915 24.542 21.2915 23.5064V23.4814C21.2915 22.4459 22.131 21.6064 23.1665 21.6064Z" fill="#8A8A8A"/>
<path d="M25.0415 30.9814C25.0415 29.9459 24.202 29.1064 23.1665 29.1064C22.131 29.1064 21.2915 29.9459 21.2915 30.9814V31.0064C21.2915 32.042 22.131 32.8814 23.1665 32.8814C24.202 32.8814 25.0415 32.042 25.0415 31.0064V30.9814Z" fill="#8A8A8A"/>
<path d="M23.1665 36.6064C24.202 36.6064 25.0415 37.4459 25.0415 38.4814V38.5064C25.0415 39.542 24.202 40.3814 23.1665 40.3814C22.131 40.3814 21.2915 39.542 21.2915 38.5064V38.4814C21.2915 37.4459 22.131 36.6064 23.1665 36.6064Z" fill="#8A8A8A"/>
<path d="M25.0415 45.9814C25.0415 44.9459 24.202 44.1064 23.1665 44.1064C22.131 44.1064 21.2915 44.9459 21.2915 45.9814V46.0064C21.2915 47.042 22.131 47.8814 23.1665 47.8814C24.202 47.8814 25.0415 47.042 25.0415 46.0064V45.9814Z" fill="#8A8A8A"/>
<path fill-rule="evenodd" clip-rule="evenodd" d="M34.1523 6.88648C34.705 7.22811 35.0415 7.83161 35.0415 8.48145V17.478L44.7538 23.9529C48.0574 26.1553 50.0417 29.863 50.0417 33.8335V51.6064H53.1665C54.202 51.6064 55.0415 52.4459 55.0415 53.4814C55.0415 54.517 54.202 55.3564 53.1665 55.3564H48.1944L48.1667 55.3566L48.139 55.3564H8.1665C7.13097 55.3564 6.2915 54.517 6.2915 53.4814C6.2915 52.4459 7.13097 51.6064 8.1665 51.6064H11.2915V24.6618C11.2915 20.1639 13.8328 16.052 17.8558 14.0405L32.328 6.8044C32.9092 6.51378 33.5995 6.54484 34.1523 6.88648ZM46.2917 51.6064V33.8335C46.2917 31.1169 44.934 28.58 42.6736 27.0731L35.0415 21.985V51.6064H46.2917ZM31.2915 11.5153V51.6064H15.0415V24.6618C15.0415 21.5843 16.7803 18.7709 19.5329 17.3946L31.2915 11.5153Z" fill="#8A8A8A"/>
</svg>
