<svg width="61" height="61" viewBox="0 0 61 61" fill="none" xmlns="http://www.w3.org/2000/svg">
<path d="M33.4174 20.0228V53.3969H48.3954C48.5322 48.9606 48.7238 39.009 48.3954 34.6926C48.067 30.3762 44.0751 26.0129 42.1202 24.3708L33.4174 20.0228Z" fill="#B3D3EC"/>
<path d="M23.1665 21.6067C24.202 21.6067 25.0415 22.4462 25.0415 23.4817V23.5067C25.0415 24.5422 24.202 25.3817 23.1665 25.3817C22.131 25.3817 21.2915 24.5422 21.2915 23.5067V23.4817C21.2915 22.4462 22.131 21.6067 23.1665 21.6067Z" fill="#016BBF"/>
<path d="M25.0415 30.9817C25.0415 29.9462 24.202 29.1067 23.1665 29.1067C22.131 29.1067 21.2915 29.9462 21.2915 30.9817V31.0067C21.2915 32.0422 22.131 32.8817 23.1665 32.8817C24.202 32.8817 25.0415 32.0422 25.0415 31.0067V30.9817Z" fill="#016BBF"/>
<path d="M23.1665 36.6067C24.202 36.6067 25.0415 37.4462 25.0415 38.4817V38.5067C25.0415 39.5422 24.202 40.3817 23.1665 40.3817C22.131 40.3817 21.2915 39.5422 21.2915 38.5067V38.4817C21.2915 37.4462 22.131 36.6067 23.1665 36.6067Z" fill="#016BBF"/>
<path d="M25.0415 45.9817C25.0415 44.9462 24.202 44.1067 23.1665 44.1067C22.131 44.1067 21.2915 44.9462 21.2915 45.9817V46.0067C21.2915 47.0422 22.131 47.8817 23.1665 47.8817C24.202 47.8817 25.0415 47.0422 25.0415 46.0067V45.9817Z" fill="#016BBF"/>
<path fill-rule="evenodd" clip-rule="evenodd" d="M34.1523 6.88672C34.705 7.22836 35.0415 7.83186 35.0415 8.48169V17.4783L44.7538 23.9531C48.0574 26.1555 50.0417 29.8633 50.0417 33.8337V51.6067H53.1665C54.202 51.6067 55.0415 52.4462 55.0415 53.4817C55.0415 54.5172 54.202 55.3567 53.1665 55.3567H48.1944L48.1667 55.3569L48.139 55.3567H8.1665C7.13097 55.3567 6.2915 54.5172 6.2915 53.4817C6.2915 52.4462 7.13097 51.6067 8.1665 51.6067H11.2915V24.662C11.2915 20.1641 13.8328 16.0522 17.8558 14.0407L32.328 6.80464C32.9092 6.51403 33.5995 6.54508 34.1523 6.88672ZM46.2917 51.6067V33.8337C46.2917 31.1171 44.934 28.5802 42.6736 27.0733L35.0415 21.9852V51.6067H46.2917ZM31.2915 11.5155V51.6067H15.0415V24.662C15.0415 21.5845 16.7803 18.7711 19.5329 17.3948L31.2915 11.5155Z" fill="#016BBF"/>
</svg>
