<svg width="61" height="61" viewBox="0 0 61 61" fill="none" xmlns="http://www.w3.org/2000/svg">
<path fill-rule="evenodd" clip-rule="evenodd" d="M12.625 12.625C11.8583 12.625 11.1688 13.0918 10.8841 13.8036L5.88411 26.3036C5.79552 26.5251 5.75 26.7615 5.75 27V42C5.75 43.0355 6.58947 43.875 7.625 43.875H11.0106C11.3278 44.9939 11.9267 46.0244 12.7636 46.8614C14.053 48.1507 15.8016 48.875 17.625 48.875C19.4484 48.875 21.197 48.1507 22.4864 46.8614C23.3233 46.0244 23.9222 44.9939 24.2394 43.875H36.0106C36.3278 44.9939 36.9267 46.0244 37.7636 46.8614C39.053 48.1507 40.8016 48.875 42.625 48.875C44.4484 48.875 46.197 48.1507 47.4864 46.8614C48.3233 46.0244 48.9222 44.9939 49.2394 43.875H52.625C53.6605 43.875 54.5 43.0355 54.5 42V32C54.5 30.1766 53.7757 28.428 52.4864 27.1386C51.197 25.8493 49.4484 25.125 47.625 25.125H46.0262L36.5891 13.3287C36.2333 12.8839 35.6946 12.625 35.125 12.625H12.625ZM49.2394 40.125H50.75V32C50.75 31.1712 50.4208 30.3763 49.8347 29.7903C49.2487 29.2042 48.4538 28.875 47.625 28.875H9.5V40.125H11.0106C11.3278 39.0061 11.9267 37.9756 12.7636 37.1386C14.053 35.8493 15.8016 35.125 17.625 35.125C19.4484 35.125 21.197 35.8493 22.4864 37.1386C23.3233 37.9756 23.9222 39.0061 24.2394 40.125H36.0106C36.3278 39.0061 36.9267 37.9756 37.7636 37.1386C39.053 35.8493 40.8016 35.125 42.625 35.125C44.4484 35.125 46.197 35.8493 47.4864 37.1386C48.3233 37.9756 48.9222 39.0061 49.2394 40.125ZM39.5 42C39.5 42.8288 39.8292 43.6237 40.4153 44.2097C41.0013 44.7958 41.7962 45.125 42.625 45.125C43.4538 45.125 44.2487 44.7958 44.8347 44.2097C45.4208 43.6237 45.75 42.8288 45.75 42C45.75 41.1712 45.4208 40.3763 44.8347 39.7903C44.2487 39.2042 43.4538 38.875 42.625 38.875C41.7962 38.875 41.0013 39.2042 40.4153 39.7903C39.8292 40.3763 39.5 41.1712 39.5 42ZM20.75 42C20.75 41.1712 20.4208 40.3763 19.8347 39.7903C19.2487 39.2042 18.4538 38.875 17.625 38.875C16.7962 38.875 16.0013 39.2042 15.4153 39.7903C14.8292 40.3763 14.5 41.1712 14.5 42C14.5 42.8288 14.8292 43.6237 15.4153 44.2097C16.0013 44.7958 16.7962 45.125 17.625 45.125C18.4538 45.125 19.2487 44.7958 19.8347 44.2097C20.4208 43.6237 20.75 42.8288 20.75 42ZM28.25 25.125H10.3944L13.8944 16.375H28.25V25.125ZM32 25.125V16.375H34.2238L41.2238 25.125H32Z" fill="#8A8A8A"/>
</svg>
