<svg width="61" height="61" viewBox="0 0 61 61" fill="none" xmlns="http://www.w3.org/2000/svg">
<path d="M47.124 27.1584H7.91443V41.7605L11.5201 42.3914L17.1086 36.9833L23.4181 41.7605L37.93 42.3914L44.0592 36.9833L47.6647 42.3914L53.7038 41.7605L52.6221 29.6822L47.124 27.1584Z" fill="#B3D3EC"/>
<path fill-rule="evenodd" clip-rule="evenodd" d="M13.1665 12.8567C12.3998 12.8567 11.7104 13.3235 11.4256 14.0353L6.42561 26.5353C6.33702 26.7568 6.2915 26.9932 6.2915 27.2317V42.2317C6.2915 43.2672 7.13097 44.1067 8.1665 44.1067H11.5521C11.8693 45.2256 12.4682 46.2561 13.3051 47.093C14.5945 48.3824 16.3431 49.1067 18.1665 49.1067C19.9899 49.1067 21.7386 48.3824 23.0279 47.093C23.8648 46.2561 24.4637 45.2256 24.7809 44.1067H36.5521C36.8693 45.2256 37.4682 46.2561 38.3051 47.093C39.5945 48.3824 41.3431 49.1067 43.1665 49.1067C44.9899 49.1067 46.7385 48.3824 48.0279 47.093C48.8648 46.2561 49.4637 45.2256 49.7809 44.1067H53.1665C54.202 44.1067 55.0415 43.2672 55.0415 42.2317V32.2317C55.0415 30.4083 54.3172 28.6596 53.0279 27.3703C51.7385 26.081 49.9899 25.3567 48.1665 25.3567H46.5677L37.1306 13.5604C36.7748 13.1156 36.2361 12.8567 35.6665 12.8567H13.1665ZM49.7809 40.3567H51.2915V32.2317C51.2915 31.4029 50.9623 30.608 50.3762 30.022C49.7902 29.4359 48.9953 29.1067 48.1665 29.1067H10.0415V40.3567H11.5521C11.8693 39.2378 12.4682 38.2073 13.3051 37.3703C14.5945 36.081 16.3431 35.3567 18.1665 35.3567C19.9899 35.3567 21.7386 36.081 23.0279 37.3703C23.8648 38.2073 24.4637 39.2378 24.7809 40.3567H36.5521C36.8693 39.2378 37.4682 38.2073 38.3051 37.3703C39.5945 36.081 41.3431 35.3567 43.1665 35.3567C44.9899 35.3567 46.7385 36.081 48.0279 37.3703C48.8648 38.2073 49.4637 39.2378 49.7809 40.3567ZM40.0415 42.2317C40.0415 43.0605 40.3707 43.8553 40.9568 44.4414C41.5428 45.0275 42.3377 45.3567 43.1665 45.3567C43.9953 45.3567 44.7902 45.0275 45.3762 44.4414C45.9623 43.8553 46.2915 43.0605 46.2915 42.2317C46.2915 41.4029 45.9623 40.608 45.3762 40.022C44.7902 39.4359 43.9953 39.1067 43.1665 39.1067C42.3377 39.1067 41.5428 39.4359 40.9568 40.022C40.3707 40.608 40.0415 41.4029 40.0415 42.2317ZM21.2915 42.2317C21.2915 41.4029 20.9623 40.608 20.3762 40.022C19.7902 39.4359 18.9953 39.1067 18.1665 39.1067C17.3377 39.1067 16.5428 39.4359 15.9568 40.022C15.3707 40.608 15.0415 41.4029 15.0415 42.2317C15.0415 43.0605 15.3707 43.8553 15.9568 44.4414C16.5428 45.0274 17.3377 45.3567 18.1665 45.3567C18.9953 45.3567 19.7902 45.0275 20.3762 44.4414C20.9623 43.8553 21.2915 43.0605 21.2915 42.2317ZM28.7915 25.3567H10.9359L14.4359 16.6067H28.7915V25.3567ZM32.5415 25.3567V16.6067H34.7653L41.7653 25.3567H32.5415Z" fill="#016BBF"/>
</svg>
