<svg width="60" height="60" viewBox="0 0 60 60" fill="none" xmlns="http://www.w3.org/2000/svg">
<g id="toggle icons">
<path id="icon" fill-rule="evenodd" clip-rule="evenodd" d="M32.8812 6.21802C31.6997 5.62982 30.3158 5.60644 29.1151 6.15438L23.1642 8.87007C22.6175 9.11958 22.2234 9.61608 22.1046 10.2052C21.9858 10.7944 22.1567 11.4048 22.564 11.8467L27.9681 17.7092L24.4661 23.5806C24.3263 23.8149 24.2394 24.0769 24.2113 24.3483L23.9922 26.469L22.4816 25.3921L23.9278 20.5952C24.1619 19.8188 23.8703 18.9799 23.2052 18.516L15.7057 13.2862C15.1618 12.9069 14.458 12.8431 13.8548 13.1184L8.18366 15.7064C6.62503 16.4177 5.625 17.9733 5.625 19.6866V49.8652C5.625 52.2814 7.58376 54.2402 10 54.2402H50C52.4162 54.2402 54.375 52.2814 54.375 49.8652V19.6275C54.375 17.9677 53.4357 16.4507 51.9498 15.711L32.8812 6.21802ZM30.672 9.56593C30.8435 9.48765 31.0412 9.49099 31.21 9.57502L50.2785 19.068C50.4908 19.1737 50.625 19.3904 50.625 19.6275V49.8652C50.625 50.2103 50.3452 50.4902 50 50.4902H39.375V39.8647C39.375 35.7798 36.7635 32.3097 33.1248 31.0236L31.357 30.3988L30.1073 33.9345L31.8752 34.5593C34.0624 35.3324 35.625 37.4185 35.625 39.8647V50.4902H24.375V39.8647C24.375 39.0666 24.5401 38.312 24.8362 37.6293L25.5822 35.9091L22.1418 34.4171L21.3958 36.1373C20.8993 37.2821 20.625 38.5438 20.625 39.8647V50.4902H10C9.65482 50.4902 9.375 50.2103 9.375 49.8652V19.6866C9.375 19.4418 9.51786 19.2196 9.74052 19.118L14.4383 16.9742L19.945 20.8143L18.503 25.597C18.271 26.3666 18.5553 27.1985 19.2098 27.665L27.0601 33.2613L27.8989 25.1458L31.9057 18.4281C32.331 17.715 32.2368 16.8072 31.674 16.1968L27.0749 11.2074L30.672 9.56593Z" fill="#8A8A8A"/>
</g>
</svg>
