<svg width="61" height="60" viewBox="0 0 61 60" fill="none" xmlns="http://www.w3.org/2000/svg">
<ellipse cx="30.6665" cy="37.2896" rx="10.3387" ry="10.3387" fill="#B3D3EC"/>
<path d="M31.9923 7.42417C31.2601 6.69194 30.0729 6.69194 29.3407 7.42417L6.84068 29.9242C6.10845 30.6564 6.10845 31.8436 6.84068 32.5758C7.57291 33.3081 8.7601 33.3081 9.49233 32.5758L30.6665 11.4016L51.8407 32.5758C52.5729 33.3081 53.7601 33.3081 54.4923 32.5758C55.2246 31.8436 55.2246 30.6564 54.4923 29.9242L31.9923 7.42417Z" fill="#016BBF"/>
<path d="M28.7915 31.9025V31.9275C28.7915 32.963 29.631 33.8025 30.6665 33.8025C31.702 33.8025 32.5415 32.963 32.5415 31.9275V31.9025C32.5415 30.867 31.702 30.0275 30.6665 30.0275C29.631 30.0275 28.7915 30.867 28.7915 31.9025Z" fill="#016BBF"/>
<path d="M28.7915 37.5916V43.0981C28.7915 44.1337 29.631 44.9731 30.6665 44.9731C31.702 44.9731 32.5415 44.1337 32.5415 43.0981V37.5916C32.5415 36.556 31.702 35.7166 30.6665 35.7166C29.631 35.7166 28.7915 36.556 28.7915 37.5916Z" fill="#016BBF"/>
<path fill-rule="evenodd" clip-rule="evenodd" d="M16.9165 37.5C16.9165 29.9061 23.0726 23.75 30.6665 23.75C38.2604 23.75 44.4165 29.9061 44.4165 37.5C44.4165 45.0939 38.2604 51.25 30.6665 51.25C23.0726 51.25 16.9165 45.0939 16.9165 37.5ZM30.6665 27.5C25.1437 27.5 20.6665 31.9772 20.6665 37.5C20.6665 43.0228 25.1437 47.5 30.6665 47.5C36.1894 47.5 40.6665 43.0228 40.6665 37.5C40.6665 31.9772 36.1894 27.5 30.6665 27.5Z" fill="#016BBF"/>
<path d="M6.2915 41.25C6.2915 40.2145 7.13097 39.375 8.1665 39.375H11.0675C12.103 39.375 12.9425 40.2145 12.9425 41.25C12.9425 42.2855 12.103 43.125 11.0675 43.125H8.1665C7.13097 43.125 6.2915 42.2855 6.2915 41.25Z" fill="#016BBF"/>
<path d="M8.1665 49.375C7.13097 49.375 6.2915 50.2145 6.2915 51.25C6.2915 52.2855 7.13097 53.125 8.1665 53.125H16.7627C17.7982 53.125 18.6377 52.2855 18.6377 51.25C18.6377 50.2145 17.7982 49.375 16.7627 49.375H8.1665Z" fill="#016BBF"/>
<path d="M42.6953 51.25C42.6953 50.2145 43.5348 49.375 44.5703 49.375H53.1665C54.202 49.375 55.0415 50.2145 55.0415 51.25C55.0415 52.2855 54.202 53.125 53.1665 53.125H44.5703C43.5348 53.125 42.6953 52.2855 42.6953 51.25Z" fill="#016BBF"/>
<path d="M50.2655 39.375C49.23 39.375 48.3905 40.2145 48.3905 41.25C48.3905 42.2855 49.23 43.125 50.2655 43.125H53.1665C54.202 43.125 55.0415 42.2855 55.0415 41.25C55.0415 40.2145 54.202 39.375 53.1665 39.375H50.2655Z" fill="#016BBF"/>
</svg>
