<svg width="60" height="60" viewBox="0 0 60 60" fill="none" xmlns="http://www.w3.org/2000/svg">
<g id="toggle icons">
<path id="Vector" d="M52.5 19.493V49.7306C52.5 51.1113 51.3807 52.2306 50 52.2306H10C8.61929 52.2306 7.5 51.1113 7.5 49.7306V19.5521C7.5 18.5731 8.07145 17.6841 8.96209 17.2777L14.6332 14.6897L22.1326 19.9195L20.2982 26.0038L25.5261 29.7306L26.0764 24.4065L30.2954 17.3331L23.9427 10.4413L29.8936 7.72563C30.5797 7.41252 31.3705 7.42589 32.0456 7.762L51.1142 17.255C51.9632 17.6777 52.5 18.5445 52.5 19.493Z" fill="url(#paint0_linear_1560_13680)"/>
<path id="icon" fill-rule="evenodd" clip-rule="evenodd" d="M32.8812 6.21808C31.6997 5.62988 30.3158 5.6065 29.1151 6.15444L23.1642 8.87013C22.6175 9.11964 22.2234 9.61614 22.1046 10.2053C21.9858 10.7944 22.1567 11.4048 22.564 11.8467L27.9681 17.7093L24.4661 23.5806C24.3263 23.8149 24.2394 24.0769 24.2113 24.3483L23.9922 26.469L22.4816 25.3921L23.9278 20.5953C24.1619 19.8189 23.8703 18.9799 23.2052 18.5161L15.7057 13.2863C15.1618 12.907 14.458 12.8432 13.8548 13.1185L8.18366 15.7065C6.62503 16.4178 5.625 17.9734 5.625 19.6866V49.8652C5.625 52.2815 7.58376 54.2402 10 54.2402H50C52.4162 54.2402 54.375 52.2815 54.375 49.8652V19.6276C54.375 17.9677 53.4357 16.4508 51.9498 15.7111L32.8812 6.21808ZM30.672 9.56599C30.8435 9.48771 31.0412 9.49105 31.21 9.57508L50.2785 19.0681C50.4908 19.1738 50.625 19.3905 50.625 19.6276V49.8652C50.625 50.2104 50.3452 50.4902 50 50.4902H39.375V39.8648C39.375 35.7799 36.7635 32.3098 33.1248 31.0237L31.357 30.3989L30.1073 33.9345L31.8752 34.5593C34.0624 35.3324 35.625 37.4185 35.625 39.8648V50.4902H24.375V39.8648C24.375 39.0667 24.5401 38.3121 24.8362 37.6294L25.5822 35.9092L22.1418 34.4171L21.3958 36.1373C20.8993 37.2822 20.625 38.5439 20.625 39.8648V50.4902H10C9.65482 50.4902 9.375 50.2104 9.375 49.8652V19.6866C9.375 19.4419 9.51786 19.2197 9.74052 19.118L14.4383 16.9742L19.945 20.8144L18.503 25.5971C18.271 26.3667 18.5553 27.1985 19.2098 27.6651L27.0601 33.2614L27.8989 25.1459L31.9057 18.4281C32.331 17.7151 32.2368 16.8073 31.674 16.1968L27.0749 11.2075L30.672 9.56599Z" fill="#016BBF"/>
</g>
<defs>
<linearGradient id="paint0_linear_1560_13680" x1="26.25" y1="30" x2="30" y2="52.2306" gradientUnits="userSpaceOnUse">
<stop stop-color="#B3D3EC"/>
<stop offset="1" stop-color="#B3D3EC" stop-opacity="0"/>
</linearGradient>
</defs>
</svg>
