<svg width="60" height="60" viewBox="0 0 60 60" fill="none" xmlns="http://www.w3.org/2000/svg">
<path d="M17.7124 7.33887L8.20312 27.5153L7.459 7.33887H17.7124Z" fill="#B3D3EC"/>
<path fill-rule="evenodd" clip-rule="evenodd" d="M17.5536 5.62378H27.5003C28.5358 5.62378 29.3753 6.46325 29.3753 7.49878C29.3753 8.53431 28.5358 9.37378 27.5003 9.37378L18.7188 9.37378L9.37531 30.3966L9.3753 49.9988C9.3753 51.0343 8.53584 51.8738 7.5003 51.8738C6.46477 51.8738 5.62531 51.0343 5.62531 49.9988V30.036C5.62477 30.0104 5.62477 29.9847 5.62531 29.9589V7.49878C5.62531 6.46325 6.46477 5.62378 7.50031 5.62378H17.4493C17.4839 5.62281 17.5187 5.62281 17.5536 5.62378ZM9.37531 21.1633L14.6151 9.37378L9.37531 9.37378L9.37531 21.1633Z" fill="#016BBF"/>
<path d="M22.4612 29.3747C21.7917 29.3607 21.1289 29.5098 20.53 29.8093C19.9311 30.1087 19.4141 30.5495 19.0237 31.0934C18.2783 32.1319 17.2913 32.9733 16.1479 33.545C15.0163 34.1109 13.7651 34.3956 12.5004 34.3754C11.2358 34.3956 9.98463 34.1109 8.85298 33.545C7.70962 32.9733 6.72262 32.1319 5.97722 31.0934C5.37338 30.2522 5.56585 29.0807 6.40711 28.4769C7.24837 27.873 8.41984 28.0655 9.02368 28.9068C9.41413 29.4507 9.93113 29.8915 10.53 30.1909C11.1289 30.4904 11.7917 30.6395 12.4612 30.6255C12.4874 30.625 12.5135 30.625 12.5397 30.6255C13.2092 30.6395 13.872 30.4904 14.4709 30.1909C15.0698 29.8915 15.5868 29.4507 15.9772 28.9068C16.7226 27.8683 17.7096 27.0268 18.853 26.4552C19.9846 25.8893 21.2358 25.6046 22.5004 25.6248C23.7651 25.6046 25.0163 25.8893 26.1479 26.4552C27.2913 27.0268 28.2783 27.8683 29.0237 28.9068C29.4141 29.4507 29.9311 29.8915 30.53 30.1909C31.1289 30.4904 31.7917 30.6395 32.4612 30.6255C32.4874 30.625 32.5135 30.625 32.5397 30.6255C33.2092 30.6395 33.872 30.4904 34.4709 30.1909C35.0698 29.8915 35.5868 29.4507 35.9772 28.9068C36.7226 27.8683 37.7096 27.0268 38.853 26.4552C39.9846 25.8893 41.2358 25.6046 42.5004 25.6248C43.7651 25.6046 45.0163 25.8893 46.1479 26.4552C47.2913 27.0268 48.2783 27.8683 49.0237 28.9068C49.4141 29.4507 49.9311 29.8915 50.53 30.1909C51.1289 30.4904 51.7917 30.6395 52.4612 30.6255C53.4965 30.6038 54.3533 31.4255 54.375 32.4608C54.3967 33.4961 53.575 34.353 52.5397 34.3747C51.2617 34.4015 49.9963 34.1167 48.853 33.545C47.7096 32.9733 46.7226 32.1319 45.9772 31.0934C45.5868 30.5495 45.0698 30.1087 44.4709 29.8093C43.872 29.5098 43.2092 29.3607 42.5397 29.3747C42.5135 29.3752 42.4874 29.3752 42.4612 29.3747C41.7917 29.3607 41.1289 29.5098 40.53 29.8093C39.9311 30.1087 39.4141 30.5495 39.0237 31.0934C38.2783 32.1319 37.2913 32.9733 36.1479 33.545C35.0163 34.1109 33.7651 34.3956 32.5004 34.3754C31.2358 34.3956 29.9846 34.1109 28.853 33.545C27.7096 32.9733 26.7226 32.1319 25.9772 31.0934C25.5868 30.5495 25.0698 30.1087 24.4709 29.8093C23.872 29.5098 23.2092 29.3607 22.5397 29.3747C22.5135 29.3752 22.4874 29.3752 22.4612 29.3747Z" fill="#016BBF"/>
<path d="M22.4612 39.3747C21.7917 39.3607 21.1289 39.5098 20.53 39.8093C19.9311 40.1087 19.4141 40.5495 19.0237 41.0934C18.2783 42.1319 17.2913 42.9733 16.1479 43.545C15.0163 44.1109 13.7651 44.3956 12.5004 44.3754C11.2358 44.3956 9.98463 44.1109 8.85298 43.545C7.70962 42.9733 6.72262 42.1319 5.97722 41.0934C5.37338 40.2522 5.56585 39.0807 6.40711 38.4769C7.24837 37.873 8.41984 38.0655 9.02368 38.9068C9.41413 39.4507 9.93113 39.8915 10.53 40.1909C11.1289 40.4904 11.7917 40.6395 12.4612 40.6255C12.4874 40.625 12.5135 40.625 12.5397 40.6255C13.2092 40.6395 13.872 40.4904 14.4709 40.1909C15.0698 39.8915 15.5868 39.4507 15.9772 38.9068C16.7226 37.8683 17.7096 37.0268 18.853 36.4552C19.9846 35.8893 21.2358 35.6046 22.5004 35.6248C23.7651 35.6046 25.0163 35.8893 26.1479 36.4552C27.2913 37.0268 28.2783 37.8683 29.0237 38.9068C29.4141 39.4507 29.9311 39.8915 30.53 40.1909C31.1289 40.4904 31.7917 40.6395 32.4612 40.6255C32.4874 40.625 32.5135 40.625 32.5397 40.6255C33.2092 40.6395 33.872 40.4904 34.4709 40.1909C35.0698 39.8915 35.5868 39.4507 35.9772 38.9068C36.7226 37.8683 37.7096 37.0268 38.853 36.4552C39.9846 35.8893 41.2358 35.6046 42.5004 35.6248C43.7651 35.6046 45.0163 35.8893 46.1479 36.4552C47.2913 37.0268 48.2783 37.8683 49.0237 38.9068C49.4141 39.4507 49.9311 39.8915 50.53 40.1909C51.1289 40.4904 51.7917 40.6395 52.4612 40.6255C53.4965 40.6038 54.3533 41.4255 54.375 42.4608C54.3967 43.4961 53.575 44.353 52.5397 44.3747C51.2617 44.4015 49.9963 44.1167 48.853 43.545C47.7096 42.9733 46.7226 42.1319 45.9772 41.0934C45.5868 40.5495 45.0698 40.1087 44.4709 39.8093C43.872 39.5098 43.2092 39.3607 42.5397 39.3747C42.5135 39.3752 42.4874 39.3752 42.4612 39.3747C41.7917 39.3607 41.1289 39.5098 40.53 39.8093C39.9311 40.1087 39.4141 40.5495 39.0237 41.0934C38.2783 42.1319 37.2913 42.9733 36.1479 43.545C35.0163 44.1109 33.7651 44.3956 32.5004 44.3754C31.2358 44.3956 29.9846 44.1109 28.853 43.545C27.7096 42.9733 26.7226 42.1319 25.9772 41.0934C25.5868 40.5495 25.0698 40.1087 24.4709 39.8093C23.872 39.5098 23.2092 39.3607 22.5397 39.3747C22.5135 39.3752 22.4874 39.3752 22.4612 39.3747Z" fill="#016BBF"/>
<path d="M20.53 49.8093C21.1289 49.5098 21.7917 49.3607 22.4612 49.3747C22.4874 49.3752 22.5135 49.3752 22.5397 49.3747C23.2092 49.3607 23.872 49.5098 24.4709 49.8093C25.0698 50.1087 25.5868 50.5495 25.9772 51.0934C26.7226 52.1319 27.7096 52.9733 28.853 53.545C29.9846 54.1109 31.2358 54.3956 32.5004 54.3754C33.7651 54.3956 35.0163 54.1109 36.1479 53.545C37.2913 52.9733 38.2783 52.1319 39.0237 51.0934C39.4141 50.5495 39.9311 50.1087 40.53 49.8093C41.1289 49.5098 41.7917 49.3607 42.4612 49.3747C42.4874 49.3752 42.5135 49.3752 42.5397 49.3747C43.2092 49.3607 43.872 49.5098 44.4709 49.8093C45.0698 50.1087 45.5868 50.5495 45.9772 51.0934C46.7226 52.1319 47.7096 52.9733 48.853 53.545C49.9963 54.1167 51.2617 54.4015 52.5397 54.3747C53.575 54.353 54.3967 53.4961 54.375 52.4608C54.3533 51.4255 53.4965 50.6038 52.4612 50.6255C51.7917 50.6395 51.1289 50.4904 50.53 50.1909C49.9311 49.8915 49.4141 49.4507 49.0237 48.9068C48.2783 47.8683 47.2913 47.0268 46.1479 46.4552C45.0163 45.8893 43.7651 45.6046 42.5004 45.6248C41.2358 45.6046 39.9846 45.8893 38.853 46.4552C37.7096 47.0268 36.7226 47.8683 35.9772 48.9068C35.5868 49.4507 35.0698 49.8915 34.4709 50.1909C33.872 50.4904 33.2092 50.6395 32.5397 50.6255C32.5135 50.625 32.4874 50.625 32.4612 50.6255C31.7917 50.6395 31.1289 50.4904 30.53 50.1909C29.9311 49.8915 29.4141 49.4507 29.0237 48.9068C28.2783 47.8683 27.2913 47.0268 26.1479 46.4552C25.0163 45.8893 23.7651 45.6046 22.5004 45.6248C21.2358 45.6046 19.9846 45.8893 18.853 46.4552C17.7096 47.0268 16.7226 47.8683 15.9772 48.9068C15.5868 49.4507 15.0698 49.8915 14.4709 50.1909C13.872 50.4904 13.2092 50.6395 12.5397 50.6255C12.5135 50.625 12.4874 50.625 12.4612 50.6255C11.7917 50.6395 11.1289 50.4904 10.53 50.1909C9.93113 49.8915 9.41413 49.4507 9.02368 48.9068C8.41984 48.0655 7.24837 47.873 6.40711 48.4769C5.56585 49.0807 5.37338 50.2522 5.97722 51.0934C6.72262 52.1319 7.70962 52.9733 8.85298 53.545C9.98463 54.1109 11.2358 54.3956 12.5004 54.3754C13.7651 54.3956 15.0163 54.1109 16.1479 53.545C17.2913 52.9733 18.2783 52.1319 19.0237 51.0934C19.4141 50.5495 19.9311 50.1087 20.53 49.8093Z" fill="#016BBF"/>
</svg>
