<svg width="61" height="60" viewBox="0 0 61 60" fill="none" xmlns="http://www.w3.org/2000/svg">
<g id="toggle icons">
<g id="Vector">
<path fill-rule="evenodd" clip-rule="evenodd" d="M17.7411 5.62378H27.6879C28.7234 5.62378 29.5629 6.46324 29.5629 7.49878C29.5629 8.53431 28.7234 9.37378 27.6879 9.37378L18.9064 9.37378L9.5629 30.3966L9.5629 49.9988C9.5629 51.0343 8.72343 51.8738 7.6879 51.8738C6.65236 51.8738 5.8129 51.0343 5.8129 49.9988V30.036C5.81237 30.0104 5.81237 29.9847 5.8129 29.9589V7.49878C5.8129 6.46324 6.65237 5.62378 7.6879 5.62378H17.6368C17.6715 5.62281 17.7063 5.6228 17.7411 5.62378ZM9.5629 21.1633L14.8027 9.37378L9.5629 9.37378L9.5629 21.1633Z" fill="#8A8A8A"/>
<path d="M22.6488 29.3747C21.9793 29.3607 21.3165 29.5098 20.7176 29.8093C20.1187 30.1087 19.6017 30.5495 19.2113 31.0934C18.4659 32.1319 17.4789 32.9733 16.3355 33.545C15.2039 34.1108 13.9527 34.3956 12.688 34.3754C11.4234 34.3956 10.1722 34.1108 9.04058 33.545C7.89721 32.9733 6.91021 32.1319 6.16481 31.0934C5.56097 30.2522 5.75344 29.0807 6.5947 28.4769C7.43596 27.873 8.60744 28.0655 9.21127 28.9068C9.60172 29.4507 10.1187 29.8915 10.7176 30.1909C11.3165 30.4904 11.9793 30.6395 12.6488 30.6255C12.6749 30.625 12.7011 30.625 12.7273 30.6255C13.3968 30.6395 14.0596 30.4904 14.6585 30.1909C15.2574 29.8915 15.7744 29.4507 16.1648 28.9068C16.9102 27.8683 17.8972 27.0268 19.0406 26.4552C20.1722 25.8893 21.4234 25.6046 22.688 25.6248C23.9527 25.6046 25.2039 25.8893 26.3355 26.4552C27.4789 27.0268 28.4659 27.8683 29.2113 28.9068C29.6017 29.4507 30.1187 29.8915 30.7176 30.1909C31.3165 30.4904 31.9793 30.6395 32.6488 30.6255C32.6749 30.625 32.7011 30.625 32.7273 30.6255C33.3968 30.6395 34.0596 30.4904 34.6585 30.1909C35.2574 29.8915 35.7744 29.4507 36.1648 28.9068C36.9102 27.8683 37.8972 27.0268 39.0406 26.4552C40.1722 25.8893 41.4234 25.6046 42.688 25.6248C43.9527 25.6046 45.2039 25.8893 46.3355 26.4552C47.4789 27.0268 48.4659 27.8683 49.2113 28.9068C49.6017 29.4507 50.1187 29.8915 50.7176 30.1909C51.3165 30.4904 51.9793 30.6395 52.6488 30.6255C53.6841 30.6038 54.5409 31.4255 54.5626 32.4608C54.5843 33.4961 53.7626 34.353 52.7273 34.3747C51.4493 34.4015 50.1839 34.1167 49.0406 33.545C47.8972 32.9733 46.9102 32.1319 46.1648 31.0934C45.7744 30.5495 45.2574 30.1087 44.6585 29.8093C44.0596 29.5098 43.3968 29.3607 42.7273 29.3747C42.7011 29.3752 42.6749 29.3752 42.6488 29.3747C41.9793 29.3607 41.3165 29.5098 40.7176 29.8093C40.1187 30.1087 39.6017 30.5495 39.2113 31.0934C38.4659 32.1319 37.4789 32.9733 36.3355 33.545C35.2039 34.1108 33.9527 34.3956 32.688 34.3754C31.4234 34.3956 30.1722 34.1108 29.0406 33.545C27.8972 32.9733 26.9102 32.1319 26.1648 31.0934C25.7744 30.5495 25.2574 30.1087 24.6585 29.8093C24.0596 29.5098 23.3968 29.3607 22.7273 29.3747C22.7011 29.3752 22.6749 29.3752 22.6488 29.3747Z" fill="#8A8A8A"/>
<path d="M22.6488 39.3747C21.9793 39.3607 21.3165 39.5098 20.7176 39.8093C20.1187 40.1087 19.6017 40.5495 19.2113 41.0934C18.4659 42.1319 17.4789 42.9733 16.3355 43.545C15.2039 44.1108 13.9527 44.3956 12.688 44.3754C11.4234 44.3956 10.1722 44.1108 9.04058 43.545C7.89721 42.9733 6.91021 42.1319 6.16481 41.0934C5.56097 40.2522 5.75344 39.0807 6.5947 38.4769C7.43596 37.873 8.60744 38.0655 9.21127 38.9068C9.60172 39.4507 10.1187 39.8915 10.7176 40.1909C11.3165 40.4904 11.9793 40.6395 12.6488 40.6255C12.6749 40.625 12.7011 40.625 12.7273 40.6255C13.3968 40.6395 14.0596 40.4904 14.6585 40.1909C15.2574 39.8915 15.7744 39.4507 16.1648 38.9068C16.9102 37.8683 17.8972 37.0268 19.0406 36.4552C20.1722 35.8893 21.4234 35.6046 22.688 35.6248C23.9527 35.6046 25.2039 35.8893 26.3355 36.4552C27.4789 37.0268 28.4659 37.8683 29.2113 38.9068C29.6017 39.4507 30.1187 39.8915 30.7176 40.1909C31.3165 40.4904 31.9793 40.6395 32.6488 40.6255C32.6749 40.625 32.7011 40.625 32.7273 40.6255C33.3968 40.6395 34.0596 40.4904 34.6585 40.1909C35.2574 39.8915 35.7744 39.4507 36.1648 38.9068C36.9102 37.8683 37.8972 37.0268 39.0406 36.4552C40.1722 35.8893 41.4234 35.6046 42.688 35.6248C43.9527 35.6046 45.2039 35.8893 46.3355 36.4552C47.4789 37.0268 48.4659 37.8683 49.2113 38.9068C49.6017 39.4507 50.1187 39.8915 50.7176 40.1909C51.3165 40.4904 51.9793 40.6395 52.6488 40.6255C53.6841 40.6038 54.5409 41.4255 54.5626 42.4608C54.5843 43.4961 53.7626 44.353 52.7273 44.3747C51.4493 44.4015 50.1839 44.1167 49.0406 43.545C47.8972 42.9733 46.9102 42.1319 46.1648 41.0934C45.7744 40.5495 45.2574 40.1087 44.6585 39.8093C44.0596 39.5098 43.3968 39.3607 42.7273 39.3747C42.7011 39.3752 42.6749 39.3752 42.6488 39.3747C41.9793 39.3607 41.3165 39.5098 40.7176 39.8093C40.1187 40.1087 39.6017 40.5495 39.2113 41.0934C38.4659 42.1319 37.4789 42.9733 36.3355 43.545C35.2039 44.1108 33.9527 44.3956 32.688 44.3754C31.4234 44.3956 30.1722 44.1108 29.0406 43.545C27.8972 42.9733 26.9102 42.1319 26.1648 41.0934C25.7744 40.5495 25.2574 40.1087 24.6585 39.8093C24.0596 39.5098 23.3968 39.3607 22.7273 39.3747C22.7011 39.3752 22.6749 39.3752 22.6488 39.3747Z" fill="#8A8A8A"/>
<path d="M20.7176 49.8093C21.3165 49.5098 21.9793 49.3607 22.6488 49.3747C22.6749 49.3752 22.7011 49.3752 22.7273 49.3747C23.3968 49.3607 24.0596 49.5098 24.6585 49.8093C25.2574 50.1087 25.7744 50.5495 26.1648 51.0934C26.9102 52.1319 27.8972 52.9733 29.0406 53.545C30.1722 54.1108 31.4234 54.3956 32.688 54.3754C33.9527 54.3956 35.2039 54.1108 36.3355 53.545C37.4789 52.9733 38.4659 52.1319 39.2113 51.0934C39.6017 50.5495 40.1187 50.1087 40.7176 49.8093C41.3165 49.5098 41.9793 49.3607 42.6488 49.3747C42.6749 49.3752 42.7011 49.3752 42.7273 49.3747C43.3968 49.3607 44.0596 49.5098 44.6585 49.8093C45.2574 50.1087 45.7744 50.5495 46.1648 51.0934C46.9102 52.1319 47.8972 52.9733 49.0406 53.545C50.1839 54.1167 51.4493 54.4015 52.7273 54.3747C53.7626 54.353 54.5843 53.4961 54.5626 52.4608C54.5409 51.4255 53.6841 50.6038 52.6488 50.6255C51.9793 50.6395 51.3165 50.4904 50.7176 50.1909C50.1187 49.8915 49.6017 49.4507 49.2113 48.9068C48.4659 47.8683 47.4789 47.0268 46.3355 46.4552C45.2039 45.8893 43.9527 45.6046 42.688 45.6248C41.4234 45.6046 40.1722 45.8893 39.0406 46.4552C37.8972 47.0268 36.9102 47.8683 36.1648 48.9068C35.7744 49.4507 35.2574 49.8915 34.6585 50.1909C34.0596 50.4904 33.3968 50.6395 32.7273 50.6255C32.7011 50.625 32.6749 50.625 32.6488 50.6255C31.9793 50.6395 31.3165 50.4904 30.7176 50.1909C30.1187 49.8915 29.6017 49.4507 29.2113 48.9068C28.4659 47.8683 27.4789 47.0268 26.3355 46.4552C25.2039 45.8893 23.9527 45.6046 22.688 45.6248C21.4234 45.6046 20.1722 45.8893 19.0406 46.4552C17.8972 47.0268 16.9102 47.8683 16.1648 48.9068C15.7744 49.4507 15.2574 49.8915 14.6585 50.1909C14.0596 50.4904 13.3968 50.6395 12.7273 50.6255C12.7011 50.625 12.6749 50.625 12.6488 50.6255C11.9793 50.6395 11.3165 50.4904 10.7176 50.1909C10.1187 49.8915 9.60172 49.4507 9.21127 48.9068C8.60744 48.0655 7.43596 47.873 6.5947 48.4769C5.75344 49.0807 5.56097 50.2522 6.16481 51.0934C6.91021 52.1319 7.89721 52.9733 9.04058 53.545C10.1722 54.1108 11.4234 54.3956 12.688 54.3754C13.9527 54.3956 15.2039 54.1108 16.3355 53.545C17.4789 52.9733 18.4659 52.1319 19.2113 51.0934C19.6017 50.5495 20.1187 50.1087 20.7176 49.8093Z" fill="#8A8A8A"/>
</g>
</g>
</svg>
