<svg width="60" height="60" viewBox="0 0 60 60" fill="none" xmlns="http://www.w3.org/2000/svg">
<path d="M30 17.5C32.6522 17.5 35.1957 18.5536 37.0711 20.4289C38.9464 22.3043 40 24.8478 40 27.5V50C40 50.663 39.7366 51.2989 39.2678 51.7678C38.7989 52.2366 38.163 52.5 37.5 52.5H22.5C21.837 52.5 21.2011 52.2366 20.7322 51.7678C20.2634 51.2989 20 50.663 20 50V27.5C20 24.8478 21.0536 22.3043 22.9289 20.4289C24.8043 18.5536 27.3478 17.5 30 17.5Z" fill="#B3D3EC"/>
<path fill-rule="evenodd" clip-rule="evenodd" d="M40.4548 9.31902L37.7308 10L40.4548 10.681C41.4594 10.9321 42.0702 11.9501 41.819 12.9548C41.5679 13.9594 40.5499 14.5702 39.5452 14.319L31.875 12.4015V15.7739C34.3297 16.1664 36.6168 17.323 38.3969 19.1031C40.6239 21.3301 41.875 24.3506 41.875 27.5V50C41.875 51.1603 41.4141 52.2731 40.5936 53.0936C39.7731 53.9141 38.6603 54.375 37.5 54.375H22.5C21.3397 54.375 20.2269 53.9141 19.4064 53.0936C18.5859 52.2731 18.125 51.1603 18.125 50V27.5C18.125 24.3506 19.3761 21.3301 21.6031 19.1031C23.3832 17.323 25.6703 16.1664 28.125 15.7739V11.875H22.5C21.0082 11.875 19.5774 12.4676 18.5225 13.5225C17.4676 14.5774 16.875 16.0082 16.875 17.5C16.875 18.5355 16.0355 19.375 15 19.375C13.9645 19.375 13.125 18.5355 13.125 17.5C13.125 15.0136 14.1127 12.629 15.8709 10.8709C17.629 9.11272 20.0136 8.125 22.5 8.125H29.7692L39.5452 5.68098C40.5499 5.42983 41.5679 6.04063 41.819 7.04525C42.0702 8.04986 41.4594 9.06786 40.4548 9.31902ZM30 19.375C27.8451 19.375 25.7785 20.231 24.2548 21.7548C22.731 23.2785 21.875 25.3451 21.875 27.5V38.2317C22.0705 38.1626 22.2809 38.125 22.5 38.125H37.5C37.7191 38.125 37.9295 38.1626 38.125 38.2317V27.5C38.125 25.3451 37.269 23.2785 35.7452 21.7548C34.2215 20.231 32.1549 19.375 30 19.375ZM21.875 50V41.7683C22.0705 41.8374 22.2809 41.875 22.5 41.875H37.5C37.7191 41.875 37.9295 41.8374 38.125 41.7683V50C38.125 50.1658 38.0592 50.3247 37.9419 50.4419C37.8247 50.5592 37.6658 50.625 37.5 50.625H22.5C22.3342 50.625 22.1753 50.5592 22.0581 50.4419C21.9408 50.3247 21.875 50.1658 21.875 50Z" fill="#016BBF"/>
</svg>
