<svg width="61" height="60" viewBox="0 0 61 60" fill="none" xmlns="http://www.w3.org/2000/svg">
<g id="toggle icons">
<path id="Union" fill-rule="evenodd" clip-rule="evenodd" d="M41.2048 9.31897L38.4808 9.99996L41.2048 10.6809C42.2094 10.9321 42.8202 11.9501 42.569 12.9547C42.3179 13.9593 41.2999 14.5701 40.2952 14.319L32.625 12.4014V15.7739C35.0797 16.1664 37.3668 17.3229 39.1469 19.1031C41.3739 21.3301 42.625 24.3505 42.625 27.5V50C42.625 51.1603 42.1641 52.2731 41.3436 53.0935C40.5231 53.914 39.4103 54.375 38.25 54.375H23.25C22.0897 54.375 20.9769 53.914 20.1564 53.0935C19.3359 52.2731 18.875 51.1603 18.875 50V27.5C18.875 24.3505 20.1261 21.3301 22.3531 19.1031C24.1332 17.3229 26.4203 16.1664 28.875 15.7739V11.875H23.25C21.7582 11.875 20.3274 12.4676 19.2725 13.5225C18.2176 14.5774 17.625 16.0081 17.625 17.5C17.625 18.5355 16.7855 19.375 15.75 19.375C14.7145 19.375 13.875 18.5355 13.875 17.5C13.875 15.0136 14.8627 12.629 16.6209 10.8708C18.379 9.11268 20.7636 8.12496 23.25 8.12496H30.5192L40.2952 5.68094C41.2999 5.42978 42.3179 6.04059 42.569 7.0452C42.8202 8.04982 42.2094 9.06782 41.2048 9.31897ZM30.75 19.375C28.5951 19.375 26.5285 20.231 25.0048 21.7547C23.481 23.2784 22.625 25.3451 22.625 27.5V38.2316C22.8205 38.1626 23.0309 38.125 23.25 38.125H38.25C38.4691 38.125 38.6795 38.1626 38.875 38.2316V27.5C38.875 25.3451 38.019 23.2784 36.4952 21.7547C34.9715 20.231 32.9049 19.375 30.75 19.375ZM22.625 50V41.7683C22.8205 41.8374 23.0309 41.875 23.25 41.875H38.25C38.4691 41.875 38.6795 41.8374 38.875 41.7683V50C38.875 50.1657 38.8092 50.3247 38.6919 50.4419C38.5747 50.5591 38.4158 50.625 38.25 50.625H23.25C23.0842 50.625 22.9253 50.5591 22.8081 50.4419C22.6908 50.3247 22.625 50.1657 22.625 50Z" fill="#8A8A8A"/>
</g>
</svg>
