<svg width="60" height="60" viewBox="0 0 60 60" fill="none" xmlns="http://www.w3.org/2000/svg">
<path d="M11.6534 15.462C11.6534 14.5061 12.4283 13.7312 13.3842 13.7312H29.9995C30.9554 13.7312 31.7303 14.5061 31.7303 15.462C31.7303 16.4179 30.9554 17.1928 29.9995 17.1928H13.3842C12.4283 17.1928 11.6534 16.4179 11.6534 15.462Z" fill="#8A8A8A"/>
<path d="M13.3842 19.9619C12.4283 19.9619 11.6534 20.7368 11.6534 21.6926C11.6534 22.6485 12.4283 23.4234 13.3842 23.4234H25.8457C26.8016 23.4234 27.5765 22.6485 27.5765 21.6926C27.5765 20.7368 26.8016 19.9619 25.8457 19.9619H13.3842Z" fill="#8A8A8A"/>
<path fill-rule="evenodd" clip-rule="evenodd" d="M9.23077 7.5C8.27489 7.5 7.5 8.27489 7.5 9.23077V42.4615C7.5 43.4174 8.27489 44.1923 9.23077 44.1923H15.8079V46.8462C15.8079 47.802 16.5828 48.5769 17.5387 48.5769C18.4946 48.5769 19.2695 47.802 19.2695 46.8462V31.7308H38.6541V32.0491L38.6538 32.0773V36.8801L38.6541 36.9083V40.007C38.6541 40.9629 39.429 41.7378 40.3848 41.7378C41.3407 41.7378 42.1156 40.9629 42.1156 40.007V33.808H46.1538C47.7081 33.808 48.9753 35.0373 49.0362 36.5766H45.7843C44.8284 36.5766 44.0535 37.3515 44.0535 38.3074C44.0535 39.2632 44.8284 40.0381 45.7843 40.0381H49.0385V45.9234H46.782C46.0855 44.1013 44.3207 42.8072 42.2538 42.8072C40.1868 42.8072 38.4221 44.1013 37.7255 45.9234H30.1662C29.4696 44.1013 27.7049 42.8072 25.6379 42.8072C22.9615 42.8072 20.7918 44.9769 20.7918 47.6534C20.7918 50.3299 22.9615 52.4995 25.6379 52.4995C27.7043 52.4995 29.4686 51.2063 30.1656 49.385H37.7261C38.4231 51.2063 40.1874 52.4995 42.2538 52.4995C44.3201 52.4995 46.0844 51.2063 46.7814 49.385H50.7692C51.7251 49.385 52.5 48.6101 52.5 47.6542V36.6926C52.5 33.1878 49.6587 30.3465 46.1538 30.3465H42.1156V30C42.1156 29.0441 41.3407 28.2692 40.3848 28.2692H35.8846V9.23077C35.8846 8.27489 35.1097 7.5 34.1538 7.5H9.23077ZM32.4231 28.2692V10.9615H10.9615V40.7308H15.8079V30C15.8079 29.0441 16.5828 28.2692 17.5387 28.2692H32.4231ZM24.2533 47.6534C24.2533 46.8887 24.8732 46.2688 25.6379 46.2688C26.4026 46.2688 27.0225 46.8887 27.0225 47.6534C27.0225 48.4181 26.4026 49.038 25.6379 49.038C24.8732 49.038 24.2533 48.4181 24.2533 47.6534ZM42.2538 46.2688C41.4891 46.2688 40.8691 46.8887 40.8691 47.6534C40.8691 48.4181 41.4891 49.038 42.2538 49.038C43.0185 49.038 43.6384 48.4181 43.6384 47.6534C43.6384 46.8887 43.0185 46.2688 42.2538 46.2688Z" fill="#8A8A8A"/>
</svg>
