<svg width="61" height="60" viewBox="0 0 61 60" fill="none" xmlns="http://www.w3.org/2000/svg">
<g id="toggle icons">
<path id="Union" fill-rule="evenodd" clip-rule="evenodd" d="M18.8617 8.67417C19.5939 7.94194 20.7811 7.94194 21.5133 8.67417L26.5133 13.6742C26.865 14.0258 27.0625 14.5027 27.0625 15V28.125H33.3125V15C33.3125 14.5027 33.51 14.0258 33.8617 13.6742L38.8617 8.67417C39.5939 7.94194 40.7811 7.94194 41.5133 8.67417L46.5133 13.6742C46.865 14.0258 47.0625 14.5027 47.0625 15V28.3838C49.9481 29.2 52.0625 31.8531 52.0625 35C52.0625 38.1469 49.9481 40.8 47.0625 41.6162V50C47.0625 51.0355 46.223 51.875 45.1875 51.875H35.1875C34.152 51.875 33.3125 51.0355 33.3125 50V41.875H27.0625V50C27.0625 51.0355 26.223 51.875 25.1875 51.875H15.1875C14.152 51.875 13.3125 51.0355 13.3125 50V41.6162C10.4269 40.8 8.3125 38.1469 8.3125 35C8.3125 31.8531 10.4269 29.2 13.3125 28.3838V15C13.3125 14.5027 13.51 14.0258 13.8617 13.6742L18.8617 8.67417ZM37.0625 41.875V48.125H43.3125V41.875H37.0625ZM45.1875 38.125C46.9134 38.125 48.3125 36.7259 48.3125 35C48.3125 33.2741 46.9134 31.875 45.1875 31.875H15.1875C13.4616 31.875 12.0625 33.2741 12.0625 35C12.0625 36.7259 13.4616 38.125 15.1875 38.125H45.1875ZM37.0625 28.125H43.3125V15.7767L40.1875 12.6517L37.0625 15.7767V28.125ZM23.3125 15.7767V28.125H17.0625V15.7767L20.1875 12.6517L23.3125 15.7767ZM23.3125 48.125V41.875H17.0625V48.125H23.3125Z" fill="#8A8A8A"/>
</g>
</svg>
