<svg width="61" height="60" viewBox="0 0 61 60" fill="none" xmlns="http://www.w3.org/2000/svg">
<path fill-rule="evenodd" clip-rule="evenodd" d="M44.4718 19.8254C44.8682 19.1316 45.2321 18.3156 45.5312 17.5C45.5579 17.5617 45.5842 17.6239 45.61 17.6865C46.1692 19.0433 46.4428 20.4442 46.1684 21.6367C46.0182 22.2894 46.4276 22.9412 47.1209 23.1534C47.8142 23.3656 48.572 23.0711 48.8842 22.468C49.0324 22.1817 49.2361 21.8388 49.4644 21.5126C49.4927 21.6417 49.5218 21.7676 49.5505 21.8892C49.6556 22.3331 49.7585 22.7266 49.853 23.0879C49.9674 23.5253 50.0696 23.9157 50.1481 24.2913C50.3709 25.3567 50.2611 26.8193 49.4886 27.963C48.7794 29.0129 47.3753 30 44.4805 30C42.756 30 40.1593 28.9189 38.7444 26.9826C38.0642 26.0519 37.6692 24.9395 37.7639 23.6508C37.8436 22.5671 38.2752 21.2893 39.2876 19.8335C39.438 20.3847 39.6561 20.912 40.007 21.3182C40.2179 21.5624 40.5147 21.8065 40.9177 21.9503C41.3365 22.0997 41.762 22.1019 42.1404 22.0109C42.8144 21.8487 43.2947 21.406 43.5883 21.0825C43.9171 20.7203 44.2127 20.2789 44.4718 19.8254Z" fill="#B3D3EC"/>
<path fill-rule="evenodd" clip-rule="evenodd" d="M46.7117 5.69314C46.2599 5.0949 45.4764 4.85228 44.7656 5.09054C44.0547 5.32879 43.5757 5.99462 43.5757 6.7443C43.5757 7.34833 43.3887 8.42219 43.0215 9.68981C42.6682 10.9095 42.1928 12.1553 41.7018 13.1075C41.4806 12.1614 41.2786 11.4426 41.0771 10.9315C40.9636 10.6435 40.788 10.2537 40.4998 9.92693C40.1679 9.55059 39.4414 9.02865 38.4761 9.30571C37.7985 9.50021 37.4282 10.0063 37.3246 10.1478C37.1705 10.3584 37.0428 10.5913 36.9608 10.7434L36.8543 10.9419C36.7129 11.2066 36.6249 11.3713 36.5182 11.5141C34.4004 14.3478 33.351 17.0663 33.1811 19.6014C33.0105 22.1479 33.737 24.3761 34.9444 26.1881C37.293 29.713 41.5152 31.7443 44.7844 31.7443C49.3154 31.7443 52.2291 29.9522 53.8112 27.3835C55.3166 24.9392 55.4516 22.0578 55.0652 20.0309C54.9658 19.5098 54.8024 18.8172 54.6411 18.1337C54.5272 17.6512 54.4142 17.1725 54.3258 16.7627C54.071 15.5816 53.9629 14.7477 54.0131 14.3225C54.088 13.6875 53.8094 13.0623 53.2871 12.6934C52.3489 12.0309 51.3203 12.1155 50.5444 12.4608C50.3704 12.5382 50.2047 12.6296 50.0477 12.7304C49.8742 12.018 49.6554 11.3347 49.4157 10.6969C48.6204 8.58047 47.5183 6.76118 46.7117 5.69314ZM44.7738 14.7609C45.2533 13.8407 45.6933 12.7583 46.0551 11.6766C46.0873 11.7585 46.1191 11.8409 46.1503 11.9239C46.8266 13.7236 47.1574 15.5816 46.8256 17.1633C46.644 18.029 47.1391 18.8935 47.9776 19.1749C48.816 19.4564 49.7324 19.0658 50.11 18.266C50.2893 17.8861 50.5355 17.4314 50.8117 16.9988C50.846 17.1699 50.8811 17.337 50.9159 17.4982C51.0429 18.087 51.1673 18.6089 51.2817 19.0881C51.42 19.6683 51.5435 20.186 51.6385 20.6842C51.908 22.0974 51.7752 24.0372 50.8409 25.5542C49.9833 26.9467 48.2853 28.2559 44.7844 28.2559C42.6989 28.2559 39.5586 26.822 37.8474 24.2538C37.0248 23.0193 36.5471 21.544 36.6617 19.8347C36.758 18.3973 37.28 16.7026 38.5044 14.7717C38.6863 15.5027 38.95 16.2021 39.3743 16.7409C39.6294 17.0648 39.9883 17.3885 40.4757 17.5792C40.9822 17.7774 41.4968 17.7803 41.9543 17.6596C42.7694 17.4444 43.3504 16.8574 43.7054 16.4283C44.103 15.9478 44.4605 15.3624 44.7738 14.7609Z" fill="#016BBF"/>
<path fill-rule="evenodd" clip-rule="evenodd" d="M10.1941 29.0325C10.5176 28.5473 11.0622 28.2558 11.6453 28.2558H27.9244C28.3018 28.2558 28.669 28.3782 28.9709 28.6047L37.8081 35.2326H48.8547C50.5508 35.2326 52.1775 35.9064 53.3768 37.1057C54.5762 38.3051 55.25 39.9318 55.25 41.6279V48.6047C55.25 49.5679 54.4691 50.3488 53.5058 50.3488H45.7053C45.4102 51.3897 44.8531 52.3483 44.0745 53.1268C42.8752 54.3262 41.2485 55 39.5523 55C37.8562 55 36.2295 54.3262 35.0301 53.1268C34.2516 52.3483 33.6945 51.3897 33.3994 50.3488H22.4494C22.1544 51.3897 21.5973 52.3483 20.8187 53.1268C19.6193 54.3262 17.9927 55 16.2965 55C14.6004 55 12.9737 54.3262 11.7743 53.1268C10.9958 52.3483 10.4387 51.3897 10.1436 50.3488H6.99419C6.0309 50.3488 5.25 49.5679 5.25 48.6047V36.9767C5.25 36.6324 5.35193 36.2958 5.54294 36.0092L10.1941 29.0325ZM51.7616 46.8605H45.7053C45.4102 45.8197 44.8531 44.861 44.0745 44.0825C42.8752 42.8831 41.2485 42.2093 39.5523 42.2093C37.8562 42.2093 36.2295 42.8831 35.0301 44.0825C34.2516 44.861 33.6945 45.8197 33.3994 46.8605H22.4494C22.1544 45.8197 21.5973 44.861 20.8187 44.0825C19.6193 42.8831 17.9927 42.2093 16.2965 42.2093C14.6004 42.2093 12.9737 42.8831 11.7743 44.0825C10.9958 44.861 10.4387 45.8197 10.1436 46.8605H8.73837V38.7209H48.8547C49.6256 38.7209 50.365 39.0272 50.9102 39.5724C51.4554 40.1175 51.7616 40.8569 51.7616 41.6279V46.8605ZM37.4968 50.6602C36.9516 50.115 36.6453 49.3756 36.6453 48.6047C36.6453 47.8337 36.9516 47.0943 37.4968 46.5491C38.0419 46.0039 38.7814 45.6977 39.5523 45.6977C40.3233 45.6977 41.0627 46.0039 41.6079 46.5491C42.153 47.0943 42.4593 47.8337 42.4593 48.6047C42.4593 49.3756 42.153 50.115 41.6079 50.6602C41.0627 51.2054 40.3233 51.5116 39.5523 51.5116C38.7814 51.5116 38.0419 51.2054 37.4968 50.6602ZM18.3521 46.5491C18.8972 47.0943 19.2035 47.8337 19.2035 48.6047C19.2035 49.3756 18.8972 50.115 18.3521 50.6602C17.8069 51.2054 17.0675 51.5116 16.2965 51.5116C15.5255 51.5116 14.7861 51.2054 14.241 50.6602C13.6958 50.115 13.3895 49.3756 13.3895 48.6047C13.3895 47.8337 13.6958 47.0943 14.241 46.5491C14.7861 46.0039 15.5255 45.6977 16.2965 45.6977C17.0675 45.6977 17.8069 46.0039 18.3521 46.5491ZM10.2532 35.2326H21.5291V31.7442H12.5788L10.2532 35.2326ZM25.0174 31.7442V35.2326H31.9942L27.343 31.7442H25.0174Z" fill="#016BBF"/>
</svg>
