<svg width="60" height="60" viewBox="0 0 60 60" fill="none" xmlns="http://www.w3.org/2000/svg">
<g id="toggle icons">
<path id="Union" fill-rule="evenodd" clip-rule="evenodd" d="M17.5 10.2716C13.703 10.2716 10.625 13.3496 10.625 17.1466V17.7716H7.5C6.46447 17.7716 5.625 18.6111 5.625 19.6466C5.625 20.6821 6.46447 21.5216 7.5 21.5216H10.625V22.1466C10.625 25.9436 13.703 29.0216 17.5 29.0216H23.8785L25.5915 35.4147C26.1071 37.339 27.8576 38.672 29.8497 38.6573L38.1185 38.5964L39.7355 44.6311C40.7183 48.2987 44.4881 50.4752 48.1556 49.4925C51.8232 48.5098 53.9997 44.7399 53.017 41.0724L49.6924 28.6646C52.4143 27.7495 54.375 25.177 54.375 22.1466V17.1466C54.375 13.3496 51.297 10.2716 47.5 10.2716H17.5ZM29.2137 34.4442L27.7608 29.0216H35.553L37.1157 34.8536L29.822 34.9074C29.5374 34.9095 29.2874 34.7191 29.2137 34.4442ZM45.9057 29.0216H39.4353L43.3577 43.6605C43.8044 45.3276 45.518 46.317 47.1851 45.8703C48.8522 45.4236 49.8415 43.71 49.3948 42.0429L45.9057 29.0216ZM14.375 17.1466C14.375 15.4207 15.7741 14.0216 17.5 14.0216H47.5C49.2259 14.0216 50.625 15.4207 50.625 17.1466V22.1466C50.625 23.8725 49.2259 25.2716 47.5 25.2716H17.5C15.7741 25.2716 14.375 23.8725 14.375 22.1466V17.1466Z" fill="#8A8A8A"/>
</g>
</svg>
