<svg width="61" height="60" viewBox="0 0 61 60" fill="none" xmlns="http://www.w3.org/2000/svg">
<g id="toggle icons">
<rect id="Rectangle 1280" x="13.1665" y="12.5" width="40" height="15" rx="2" fill="#B3D3EC"/>
<path id="Union" fill-rule="evenodd" clip-rule="evenodd" d="M18.1665 10.2716C14.3695 10.2716 11.2915 13.3496 11.2915 17.1466V17.7716H8.1665C7.13097 17.7716 6.2915 18.6111 6.2915 19.6466C6.2915 20.6821 7.13097 21.5216 8.1665 21.5216H11.2915V22.1466C11.2915 25.9436 14.3695 29.0216 18.1665 29.0216H24.545L26.258 35.4147C26.7736 37.339 28.5241 38.672 30.5162 38.6573L38.785 38.5964L40.402 44.6311C41.3848 48.2987 45.1546 50.4752 48.8222 49.4925C52.4897 48.5098 54.6662 44.7399 53.6835 41.0724L50.3589 28.6646C53.0808 27.7495 55.0415 25.177 55.0415 22.1466V17.1466C55.0415 13.3496 51.9635 10.2716 48.1665 10.2716H18.1665ZM29.8802 34.4442L28.4273 29.0216H36.2195L37.7822 34.8536L30.4885 34.9074C30.2039 34.9095 29.9539 34.7191 29.8802 34.4442ZM46.5722 29.0216H40.1018L44.0243 43.6605C44.4709 45.3276 46.1845 46.317 47.8516 45.8703C49.5187 45.4236 50.508 43.71 50.0613 42.0429L46.5722 29.0216ZM15.0415 17.1466C15.0415 15.4207 16.4406 14.0216 18.1665 14.0216H48.1665C49.8924 14.0216 51.2915 15.4207 51.2915 17.1466V22.1466C51.2915 23.8725 49.8924 25.2716 48.1665 25.2716H18.1665C16.4406 25.2716 15.0415 23.8725 15.0415 22.1466V17.1466Z" fill="#016BBF"/>
</g>
</svg>
