<svg width="61" height="60" viewBox="0 0 61 60" fill="none" xmlns="http://www.w3.org/2000/svg">
<path fill-rule="evenodd" clip-rule="evenodd" d="M46.6343 24.7988L13.8691 24.7988L18.0716 14.9949C18.2629 14.5479 18.5812 14.1669 18.987 13.8991C19.3927 13.6314 19.8685 13.4885 20.3545 13.4883H40.1468C40.6328 13.4884 41.1081 13.631 41.5138 13.8986C41.9196 14.1662 42.2381 14.5471 42.4296 14.9939L46.6343 24.7988Z" fill="#B3D3EC"/>
<path d="M13.7069 32.8856C13.7069 31.9223 14.4878 31.1414 15.4511 31.1414H18.4109C19.3742 31.1414 20.1551 31.9223 20.1551 32.8856C20.1551 33.8489 19.3742 34.6298 18.4109 34.6298H15.4511C14.4878 34.6298 13.7069 33.8489 13.7069 32.8856Z" fill="#016BBF"/>
<path d="M40.3455 32.8856C40.3455 31.9223 41.1264 31.1414 42.0897 31.1414H45.0495C46.0128 31.1414 46.7937 31.9223 46.7937 32.8856C46.7937 33.8489 46.0128 34.6298 45.0495 34.6298H42.0897C41.1264 34.6298 40.3455 33.8489 40.3455 32.8856Z" fill="#016BBF"/>
<path d="M26.0218 31.1414C26.9851 31.1414 27.766 31.9223 27.766 32.8856V37.114C27.766 38.0772 26.9851 38.8581 26.0218 38.8581C25.0585 38.8581 24.2776 38.0772 24.2776 37.114V32.8856C24.2776 31.9223 25.0585 31.1414 26.0218 31.1414Z" fill="#016BBF"/>
<path d="M36.2224 32.8856C36.2224 31.9223 35.4415 31.1414 34.4782 31.1414C33.5149 31.1414 32.734 31.9223 32.734 32.8856V37.114C32.734 38.0772 33.5149 38.8581 34.4782 38.8581C35.4415 38.8581 36.2224 38.0772 36.2224 37.114V32.8856Z" fill="#016BBF"/>
<path fill-rule="evenodd" clip-rule="evenodd" d="M40.1463 10H20.3534C19.1845 10.0004 18.0407 10.3438 17.0651 10.9877C16.0896 11.6314 15.3242 12.548 14.8641 13.6223L10.0733 24.7989H6.99419C6.0309 24.7989 5.25 25.5798 5.25 26.5431C5.25 27.5064 6.0309 28.2873 6.99419 28.2873H9.47818V46.4165C9.47818 47.2155 9.79558 47.9818 10.3606 48.5468C10.9256 49.1118 11.6918 49.4292 12.4909 49.4292H18.4105C19.2095 49.4292 19.9758 49.1118 20.5408 48.5468C21.1058 47.9818 21.4232 47.2155 21.4232 46.4165V43.7209H39.0765V46.4165C39.0765 46.8121 39.1544 47.2039 39.3058 47.5694C39.4572 47.9349 39.6791 48.267 39.9589 48.5468C40.2386 48.8265 40.5707 49.0484 40.9363 49.1998C41.3018 49.3513 41.6936 49.4292 42.0892 49.4292H48.0088C48.8078 49.4292 49.5741 49.1118 50.1391 48.5468C50.7041 47.9818 51.0215 47.2155 51.0215 46.4165V28.2873H53.5058C54.4691 28.2873 55.25 27.5064 55.25 26.5431C55.25 25.5798 54.4691 24.7989 53.5058 24.7989H50.4294L45.6351 13.6191C45.1746 12.5451 44.4092 11.6298 43.4337 10.9865C42.458 10.3431 41.3149 10.0001 40.1463 10ZM42.5649 43.7209V45.9408H42.0892C42.1516 45.9408 42.2135 45.9531 42.2712 45.977C42.3289 46.0009 42.3814 46.036 42.4255 46.0801C42.4697 46.1243 42.5047 46.1767 42.5286 46.2344C42.5526 46.2922 42.5649 46.354 42.5649 46.4165V45.9408H47.5331V46.4165C47.5331 46.2903 47.5833 46.1693 47.6725 46.0801C47.7617 45.9909 47.8827 45.9408 48.0088 45.9408H47.5331V43.7209H42.5649ZM47.5331 40.2326L47.5331 28.2873L12.9665 28.2873V40.2326L47.5331 40.2326ZM12.9665 43.7209V45.9408H17.9348V43.7209H12.9665ZM46.6338 24.7989L13.8686 24.7989L18.0711 14.995C18.2624 14.548 18.5807 14.167 18.9865 13.8992C19.3922 13.6315 19.868 13.4886 20.354 13.4884H40.1463C40.6323 13.4885 41.1076 13.6311 41.5133 13.8987C41.9191 14.1662 42.2376 14.5472 42.4291 14.994L46.6338 24.7989Z" fill="#016BBF"/>
</svg>
