<svg width="24" height="24" viewBox="0 0 24 24" fill="none" xmlns="http://www.w3.org/2000/svg">
<path d="M5.38277 13.1543C5.38277 12.7689 5.69513 12.4566 6.08044 12.4566H7.26437C7.64969 12.4566 7.96205 12.7689 7.96205 13.1543C7.96205 13.5396 7.64969 13.8519 7.26437 13.8519H6.08044C5.69513 13.8519 5.38277 13.5396 5.38277 13.1543Z" fill="#8A8A8A"/>
<path d="M16.0382 13.1543C16.0382 12.7689 16.3506 12.4566 16.7359 12.4566H17.9198C18.3051 12.4566 18.6175 12.7689 18.6175 13.1543C18.6175 13.5396 18.3051 13.8519 17.9198 13.8519H16.7359C16.3506 13.8519 16.0382 13.5396 16.0382 13.1543Z" fill="#8A8A8A"/>
<path d="M10.3087 12.4566C10.694 12.4566 11.0064 12.7689 11.0064 13.1543V14.8456C11.0064 15.2309 10.694 15.5433 10.3087 15.5433C9.92342 15.5433 9.61106 15.2309 9.61106 14.8456V13.1543C9.61106 12.7689 9.92342 12.4566 10.3087 12.4566Z" fill="#8A8A8A"/>
<path d="M14.3889 13.1543C14.3889 12.7689 14.0766 12.4566 13.6913 12.4566C13.306 12.4566 12.9936 12.7689 12.9936 13.1543V14.8456C12.9936 15.2309 13.306 15.5433 13.6913 15.5433C14.0766 15.5433 14.3889 15.2309 14.3889 14.8456V13.1543Z" fill="#8A8A8A"/>
<path fill-rule="evenodd" clip-rule="evenodd" d="M15.9585 4H8.04138C7.57378 4.00015 7.11629 4.13752 6.72602 4.39508C6.33586 4.65257 6.02967 5.01921 5.84565 5.44893L3.92932 9.91956H2.69767C2.31236 9.91956 2 10.2319 2 10.6172C2 11.0025 2.31236 11.3149 2.69767 11.3149H3.69127V18.5666C3.69127 18.8862 3.81823 19.1927 4.04423 19.4187C4.27022 19.6447 4.57674 19.7717 4.89634 19.7717H7.26421C7.58381 19.7717 7.89033 19.6447 8.11633 19.4187C8.34232 19.1927 8.46928 18.8862 8.46928 18.5666V17.4884H15.5306V18.5666C15.5306 18.7248 15.5618 18.8815 15.6223 19.0278C15.6829 19.174 15.7717 19.3068 15.8836 19.4187C15.9955 19.5306 16.1283 19.6194 16.2745 19.6799C16.4207 19.7405 16.5774 19.7717 16.7357 19.7717H19.1035C19.4231 19.7717 19.7297 19.6447 19.9557 19.4187C20.1816 19.1927 20.3086 18.8862 20.3086 18.5666V11.3149H21.3023C21.6876 11.3149 22 11.0025 22 10.6172C22 10.2319 21.6876 9.91956 21.3023 9.91956H20.0718L18.154 5.44765C17.9699 5.01804 17.6637 4.6519 17.2735 4.39458C16.8832 4.13724 16.426 4.00005 15.9585 4ZM16.9259 17.4884V18.3763H16.7357C16.7606 18.3763 16.7854 18.3812 16.8085 18.3908C16.8316 18.4004 16.8525 18.4144 16.8702 18.4321C16.8879 18.4497 16.9019 18.4707 16.9115 18.4938C16.921 18.5169 16.9259 18.5416 16.9259 18.5666V18.3763H18.9133V18.5666C18.9133 18.5161 18.9333 18.4677 18.969 18.4321C19.0047 18.3964 19.0531 18.3763 19.1035 18.3763H18.9133V17.4884H16.9259ZM18.9133 16.093L18.9133 11.3149L5.08662 11.3149V16.093L18.9133 16.093ZM5.08662 17.4884V18.3763H7.07393V17.4884H5.08662ZM18.5535 9.91956L5.44745 9.91956L7.12843 5.998C7.20496 5.81921 7.33228 5.6668 7.4946 5.55967C7.65686 5.45259 7.8472 5.39546 8.0416 5.39535H15.9585C16.1529 5.39539 16.343 5.45245 16.5053 5.55947C16.6676 5.6665 16.795 5.81889 16.8716 5.99759L18.5535 9.91956Z" fill="#8A8A8A"/>
</svg>
