<svg width="61" height="60" viewBox="0 0 61 60" fill="none" xmlns="http://www.w3.org/2000/svg">
<g id="toggle icons">
<g id="Union">
<path d="M27.833 18.125C26.7975 18.125 25.958 18.9645 25.958 20C25.958 21.0355 26.7975 21.875 27.833 21.875H30.333C31.3685 21.875 32.208 21.0355 32.208 20C32.208 18.9645 31.3685 18.125 30.333 18.125H27.833Z" fill="#8A8A8A"/>
<path d="M30.958 40C30.958 38.9645 31.7975 38.125 32.833 38.125H35.333C36.3685 38.125 37.208 38.9645 37.208 40C37.208 41.0355 36.3685 41.875 35.333 41.875H32.833C31.7975 41.875 30.958 41.0355 30.958 40Z" fill="#8A8A8A"/>
<path fill-rule="evenodd" clip-rule="evenodd" d="M24.1381 6.76418C24.4329 6.07329 25.1115 5.625 25.8627 5.625H34.8038C35.555 5.625 36.2336 6.07329 36.5284 6.76418C37.1288 8.17138 40.5128 12.2426 48.9215 12.2426C49.8063 12.2426 50.5706 12.8611 50.7552 13.7265L52.167 20.3441C52.3607 21.252 51.8608 22.165 50.9916 22.4909C48.1817 23.5446 46.2627 26.0828 45.8778 29.3585C45.493 32.633 46.6546 36.735 50.2922 40.6324C50.839 41.2183 50.953 42.087 50.5759 42.7941L47.7524 48.0882C47.3839 48.779 46.625 49.1682 45.8491 49.0643C44.4229 48.8733 41.8453 48.8645 39.1151 49.5247C36.389 50.1839 33.6792 51.4674 31.7595 53.7171C31.4033 54.1346 30.882 54.375 30.3332 54.375C29.7844 54.375 29.2632 54.1346 28.907 53.7171C26.9872 51.4674 24.2775 50.1839 21.5514 49.5247C18.8212 48.8645 16.2436 48.8733 14.8174 49.0643C14.0414 49.1682 13.2826 48.779 12.9141 48.0882L10.0906 42.7941C9.71345 42.087 9.82745 41.2183 10.3743 40.6324C14.0119 36.735 15.1735 32.633 14.7887 29.3585C14.4038 26.0828 12.4847 23.5446 9.67489 22.4909C8.80566 22.165 8.30582 21.252 8.49951 20.3441L9.91127 13.7265C10.0959 12.8611 10.8602 12.2426 11.745 12.2426C20.1537 12.2426 23.5377 8.17138 24.1381 6.76418ZM33.6946 9.375H26.9719C25.1853 12.1268 20.8343 15.5428 13.2709 15.952L12.4798 19.6602C14.894 20.9788 16.6877 23.0905 17.6914 25.6303C17.7381 25.6268 17.7854 25.625 17.833 25.625L27.833 25.625C28.8685 25.625 29.708 26.4645 29.708 27.5C29.708 28.5355 28.8685 29.375 27.833 29.375L18.5589 29.375C18.7946 32.1651 18.2089 35.1738 16.7084 38.125H25.333C26.3685 38.125 27.208 38.9645 27.208 40C27.208 41.0355 26.3685 41.875 25.333 41.875H15.333C15.0099 41.875 14.7058 41.7932 14.4404 41.6493C14.3011 41.826 14.1582 42.0021 14.0117 42.1774L15.6392 45.229C17.4705 45.1346 19.9037 45.2682 22.4328 45.8797C25.0814 46.5202 27.9505 47.7142 30.3332 49.8296C32.716 47.7142 35.585 46.5202 38.2337 45.8797C40.7628 45.2682 43.196 45.1346 45.0273 45.229L46.6548 42.1774C44.5499 39.6588 43.1998 36.9936 42.5392 34.375H32.833C31.7975 34.375 30.958 33.5355 30.958 32.5C30.958 31.4645 31.7975 30.625 32.833 30.625H42.0572C42.0554 30.0489 42.0877 29.4801 42.1534 28.9209C42.4723 26.2074 43.582 23.7513 45.3328 21.875H37.833C36.7975 21.875 35.958 21.0355 35.958 20C35.958 18.9645 36.7975 18.125 37.833 18.125H47.833C47.8418 18.125 47.8505 18.1251 47.8592 18.1252L47.3956 15.952C39.8322 15.5428 35.4812 12.1268 33.6946 9.375Z" fill="#8A8A8A"/>
</g>
</g>
</svg>
