<svg width="61" height="61" viewBox="0 0 61 61" fill="none" xmlns="http://www.w3.org/2000/svg">
<path d="M23.202 37.471L30.4231 43.6001L36.6364 39.5703L37.7279 32.1814L30.4231 29.0745L22.6144 32.1814L23.202 37.471Z" fill="#B3D3EC"/>
<path fill-rule="evenodd" clip-rule="evenodd" d="M18 6.60669C14.203 6.60669 11.125 9.68473 11.125 13.4817V51.6067H8C6.96447 51.6067 6.125 52.4462 6.125 53.4817C6.125 54.5172 6.96447 55.3567 8 55.3567H18C19.0355 55.3567 19.875 54.5172 19.875 53.4817C19.875 52.4462 19.0355 51.6067 18 51.6067H14.875V20.9817H46.125V51.6067H43C41.9645 51.6067 41.125 52.4462 41.125 53.4817C41.125 54.5172 41.9645 55.3567 43 55.3567H53C54.0355 55.3567 54.875 54.5172 54.875 53.4817C54.875 52.4462 54.0355 51.6067 53 51.6067H49.875V13.4817C49.875 9.68473 46.797 6.60669 43 6.60669H18ZM46.125 17.2317H14.875V13.4817C14.875 11.7558 16.2741 10.3567 18 10.3567H43C44.7259 10.3567 46.125 11.7558 46.125 13.4817V17.2317Z" fill="#016BBF"/>
<path fill-rule="evenodd" clip-rule="evenodd" d="M31.7427 27.2184C31.0333 26.5908 29.9672 26.5908 29.2579 27.2184C27.6763 28.6176 25.6121 29.3462 23.5026 29.2496C22.6398 29.2102 21.8617 29.7652 21.6181 30.5939C21.1692 32.1208 21.0318 33.7224 21.2142 35.3035C21.3965 36.8845 21.8948 38.4128 22.6795 39.7975C23.4641 41.1822 24.5191 42.395 25.7818 43.3639C27.0444 44.3328 28.4889 45.038 30.0295 45.4376C30.3382 45.5177 30.6623 45.5177 30.971 45.4376C32.5116 45.038 33.9561 44.3328 35.2188 43.3639C36.4814 42.395 37.5364 41.1822 38.3211 39.7975C39.1057 38.4128 39.604 36.8845 39.7864 35.3035C39.9687 33.7224 39.8314 32.1208 39.3825 30.5939C39.1389 29.7652 38.3607 29.2102 37.4979 29.2496C35.3884 29.3462 33.3242 28.6176 31.7427 27.2184ZM24.9395 34.8739C24.866 34.2362 24.8684 33.5938 24.9457 32.9597C26.933 32.7797 28.844 32.1013 30.5003 30.9876C32.1565 32.1013 34.0676 32.7797 36.0548 32.9597C36.1321 33.5938 36.1346 34.2362 36.0611 34.8739C35.9363 35.9556 35.5953 37.0013 35.0585 37.9487C34.5216 38.8961 33.7998 39.726 32.9359 40.3889C32.2018 40.9522 31.378 41.3852 30.5003 41.6703C29.6226 41.3852 28.7987 40.9522 28.0647 40.3889C27.2008 39.726 26.4789 38.8961 25.9421 37.9487C25.4052 37.0013 25.0642 35.9556 24.9395 34.8739Z" fill="#016BBF"/>
</svg>
