<svg width="25" height="25" viewBox="0 0 25 25" fill="none" xmlns="http://www.w3.org/2000/svg">
<circle cx="12.5606" cy="12.4331" r="1.33789" fill="#B3D3EC"/>
<path fill-rule="evenodd" clip-rule="evenodd" d="M7.5 3.23169C5.98122 3.23169 4.75 4.46291 4.75 5.98169V21.2317H3.5C3.08579 21.2317 2.75 21.5675 2.75 21.9817C2.75 22.3959 3.08579 22.7317 3.5 22.7317H7.5C7.91421 22.7317 8.25 22.3959 8.25 21.9817C8.25 21.5675 7.91421 21.2317 7.5 21.2317H6.25V8.98169H18.75V21.2317H17.5C17.0858 21.2317 16.75 21.5675 16.75 21.9817C16.75 22.3959 17.0858 22.7317 17.5 22.7317H21.5C21.9142 22.7317 22.25 22.3959 22.25 21.9817C22.25 21.5675 21.9142 21.2317 21.5 21.2317H20.25V5.98169C20.25 4.46291 19.0188 3.23169 17.5 3.23169H7.5ZM18.75 7.48169V5.98169C18.75 5.29133 18.1904 4.73169 17.5 4.73169H7.5C6.80964 4.73169 6.25 5.29133 6.25 5.98169V7.48169H18.75Z" fill="#016BBF"/>
<path fill-rule="evenodd" clip-rule="evenodd" d="M12.5 14.9817C13.8807 14.9817 15 13.8624 15 12.4817C15 11.101 13.8807 9.98169 12.5 9.98169C11.1193 9.98169 10 11.101 10 12.4817C10 13.8624 11.1193 14.9817 12.5 14.9817ZM12.5 13.4817C13.0523 13.4817 13.5 13.034 13.5 12.4817C13.5 11.9294 13.0523 11.4817 12.5 11.4817C11.9477 11.4817 11.5 11.9294 11.5 12.4817C11.5 13.034 11.9477 13.4817 12.5 13.4817Z" fill="#016BBF"/>
<path d="M11.2143 15.7317C10.5201 15.7317 9.88269 16.0543 9.43266 16.5794C8.98569 17.1008 8.75 17.7865 8.75 18.4817V19.4817C8.75 19.8959 9.08579 20.2317 9.5 20.2317C9.91421 20.2317 10.25 19.8959 10.25 19.4817V18.4817C10.25 18.116 10.3755 17.7843 10.5715 17.5556C10.7645 17.3305 10.9991 17.2317 11.2143 17.2317H13.7857C14.0009 17.2317 14.2355 17.3305 14.4285 17.5556C14.6245 17.7843 14.75 18.116 14.75 18.4817V19.4817C14.75 19.8959 15.0858 20.2317 15.5 20.2317C15.9142 20.2317 16.25 19.8959 16.25 19.4817V18.4817C16.25 17.7865 16.0143 17.1008 15.5673 16.5794C15.1173 16.0543 14.4799 15.7317 13.7857 15.7317H11.2143Z" fill="#016BBF"/>
</svg>
