<svg width="61" height="60" viewBox="0 0 61 60" fill="none" xmlns="http://www.w3.org/2000/svg">
<g id="toggle icons">
<g id="Union">
<path fill-rule="evenodd" clip-rule="evenodd" d="M17.75 5.625C13.953 5.625 10.875 8.70304 10.875 12.5V50.625H7.75C6.71447 50.625 5.875 51.4645 5.875 52.5C5.875 53.5355 6.71447 54.375 7.75 54.375H17.75C18.7855 54.375 19.625 53.5355 19.625 52.5C19.625 51.4645 18.7855 50.625 17.75 50.625H14.625V20H45.875V50.625H42.75C41.7145 50.625 40.875 51.4645 40.875 52.5C40.875 53.5355 41.7145 54.375 42.75 54.375H52.75C53.7855 54.375 54.625 53.5355 54.625 52.5C54.625 51.4645 53.7855 50.625 52.75 50.625H49.625V12.5C49.625 8.70304 46.547 5.625 42.75 5.625H17.75ZM45.875 16.25H14.625V12.5C14.625 10.7741 16.0241 9.375 17.75 9.375H42.75C44.4759 9.375 45.875 10.7741 45.875 12.5V16.25Z" fill="#8A8A8A"/>
<path fill-rule="evenodd" clip-rule="evenodd" d="M31.4927 26.2367C30.7833 25.6091 29.7172 25.6091 29.0079 26.2367C27.4263 27.6359 25.3621 28.3645 23.2526 28.268C22.3898 28.2285 21.6117 28.7835 21.3681 29.6122C20.9192 31.1391 20.7818 32.7407 20.9642 34.3218C21.1465 35.9029 21.6448 37.4311 22.4295 38.8158C23.2141 40.2005 24.2691 41.4133 25.5318 42.3822C26.7944 43.3511 28.2389 44.0563 29.7795 44.4559C30.0882 44.536 30.4123 44.536 30.721 44.4559C32.2616 44.0563 33.7061 43.3511 34.9688 42.3822C36.2314 41.4133 37.2864 40.2005 38.0711 38.8158C38.8557 37.4311 39.354 35.9029 39.5364 34.3218C39.7187 32.7407 39.5814 31.1391 39.1325 29.6122C38.8889 28.7835 38.1107 28.2285 37.2479 28.268C35.1384 28.3645 33.0742 27.6359 31.4927 26.2367ZM24.6895 33.8922C24.616 33.2546 24.6184 32.6121 24.6957 31.978C26.683 31.798 28.594 31.1196 30.2503 30.0059C31.9065 31.1196 33.8176 31.798 35.8048 31.978C35.8821 32.6121 35.8846 33.2546 35.8111 33.8922C35.6863 34.9739 35.3453 36.0196 34.8085 36.967C34.2716 37.9145 33.5498 38.7443 32.6859 39.4072C31.9518 39.9705 31.128 40.4035 30.2503 40.6887C29.3726 40.4035 28.5487 39.9705 27.8147 39.4072C26.9508 38.7443 26.2289 37.9145 25.6921 36.967C25.1552 36.0196 24.8142 34.9739 24.6895 33.8922Z" fill="#8A8A8A"/>
</g>
</g>
</svg>
