<svg width="61" height="60" viewBox="0 0 61 60" fill="none" xmlns="http://www.w3.org/2000/svg">
<g id="toggle icons">
<g id="Union">
<path fill-rule="evenodd" clip-rule="evenodd" d="M18.25 5.625C14.453 5.625 11.375 8.70304 11.375 12.5V50.625H8.25C7.21447 50.625 6.375 51.4645 6.375 52.5C6.375 53.5355 7.21447 54.375 8.25 54.375H18.25C19.2855 54.375 20.125 53.5355 20.125 52.5C20.125 51.4645 19.2855 50.625 18.25 50.625H15.125V20H46.375V50.625H43.25C42.2145 50.625 41.375 51.4645 41.375 52.5C41.375 53.5355 42.2145 54.375 43.25 54.375H53.25C54.2855 54.375 55.125 53.5355 55.125 52.5C55.125 51.4645 54.2855 50.625 53.25 50.625H50.125V12.5C50.125 8.70304 47.047 5.625 43.25 5.625H18.25ZM46.375 16.25V12.5C46.375 10.7741 44.9759 9.375 43.25 9.375H18.25C16.5241 9.375 15.125 10.7741 15.125 12.5V16.25H46.375Z" fill="#8A8A8A"/>
<path fill-rule="evenodd" clip-rule="evenodd" d="M30.75 35C34.2018 35 37 32.2018 37 28.75C37 25.2982 34.2018 22.5 30.75 22.5C27.2982 22.5 24.5 25.2982 24.5 28.75C24.5 32.2018 27.2982 35 30.75 35ZM30.75 31.25C32.1307 31.25 33.25 30.1307 33.25 28.75C33.25 27.3693 32.1307 26.25 30.75 26.25C29.3693 26.25 28.25 27.3693 28.25 28.75C28.25 30.1307 29.3693 31.25 30.75 31.25Z" fill="#8A8A8A"/>
<path d="M27.5357 36.875C25.8003 36.875 24.2067 37.6816 23.0816 38.9942C21.9642 40.2979 21.375 42.012 21.375 43.75V46.25C21.375 47.2855 22.2145 48.125 23.25 48.125C24.2855 48.125 25.125 47.2855 25.125 46.25V43.75C25.125 42.8358 25.4388 42.0064 25.9289 41.4347C26.4112 40.8719 26.9978 40.625 27.5357 40.625H33.9643C34.5022 40.625 35.0888 40.8719 35.5711 41.4347C36.0612 42.0064 36.375 42.8358 36.375 43.75V46.25C36.375 47.2855 37.2145 48.125 38.25 48.125C39.2855 48.125 40.125 47.2855 40.125 46.25V43.75C40.125 42.012 39.5358 40.2979 38.4184 38.9942C37.2933 37.6816 35.6997 36.875 33.9643 36.875H27.5357Z" fill="#8A8A8A"/>
</g>
</g>
</svg>
