<svg width="61" height="61" viewBox="0 0 61 61" fill="none" xmlns="http://www.w3.org/2000/svg">
<path d="M30.484 44.3392L29.5697 49.5651L39.8901 55.3134L48.251 50.741L49.0349 40.4205L39.1063 33.7577L29.5697 39.3752L30.484 44.3392Z" fill="#B3D3EC"/>
<path fill-rule="evenodd" clip-rule="evenodd" d="M27.2443 5.12415C24.0948 5.12415 21.0744 6.37526 18.8474 8.60225C16.6204 10.8292 15.3693 13.8497 15.3693 16.9991C15.3693 20.1486 16.6204 23.169 18.8474 25.396C21.0744 27.623 24.0948 28.8741 27.2443 28.8741C30.3937 28.8741 33.4142 27.623 35.6412 25.396C37.8682 23.169 39.1193 20.1486 39.1193 16.9991C39.1193 13.8497 37.8682 10.8292 35.6412 8.60225C33.4142 6.37526 30.3937 5.12415 27.2443 5.12415ZM21.499 11.2539C23.0228 9.73017 25.0894 8.87415 27.2443 8.87415C29.3991 8.87415 31.4658 9.73017 32.9895 11.2539C34.5132 12.7776 35.3693 14.8443 35.3693 16.9991C35.3693 19.154 34.5132 21.2207 32.9895 22.7444C31.4658 24.2681 29.3991 25.1241 27.2443 25.1241C25.0894 25.1241 23.0228 24.2681 21.499 22.7444C19.9753 21.2207 19.1193 19.154 19.1193 16.9991C19.1193 14.8443 19.9753 12.7776 21.499 11.2539Z" fill="#016BBF"/>
<path d="M16.499 38.7539C18.0228 37.2302 20.0894 36.3741 22.2443 36.3741H27.2443C28.2798 36.3741 29.1193 35.5347 29.1193 34.4991C29.1193 33.4636 28.2798 32.6241 27.2443 32.6241H22.2443C19.0948 32.6241 16.0744 33.8753 13.8474 36.1023C11.6204 38.3292 10.3693 41.3497 10.3693 44.4991V49.4991C10.3693 50.5347 11.2087 51.3741 12.2443 51.3741C13.2798 51.3741 14.1193 50.5347 14.1193 49.4991V44.4991C14.1193 42.3443 14.9753 40.2776 16.499 38.7539Z" fill="#016BBF"/>
<path d="M43.7974 41.1488C44.5297 41.881 44.5297 43.0682 43.7974 43.8004L39.7563 47.8416C39.4047 48.1932 38.9278 48.3907 38.4305 48.3907C37.9332 48.3907 37.4563 48.1932 37.1046 47.8416L35.0841 45.821C34.3519 45.0888 34.3519 43.9016 35.0841 43.1693C35.8163 42.4371 37.0035 42.4371 37.7357 43.1693L38.4305 43.8641L41.1458 41.1488C41.878 40.4166 43.0652 40.4166 43.7974 41.1488Z" fill="#016BBF"/>
<path fill-rule="evenodd" clip-rule="evenodd" d="M45.7736 35.2892L44.8409 35.1282L44.2352 34.401C41.7364 31.4012 37.1295 31.4012 34.6308 34.401L34.025 35.1282L33.0923 35.2892C29.2451 35.9533 26.9416 39.9429 28.2901 43.6068L28.617 44.495L28.2901 45.3832C26.9416 49.0471 29.2451 53.0368 33.0923 53.7009L34.025 53.8619L34.6308 54.5891C37.1295 57.5889 41.7364 57.5889 44.2352 54.5891L44.8409 53.8619L45.7736 53.7009C49.6209 53.0368 51.9243 49.0471 50.5758 45.3832L50.2489 44.495L50.5758 43.6068C51.9243 39.9429 49.6209 35.9533 45.7736 35.2892ZM37.5121 36.8011C38.5116 35.6011 40.3543 35.6011 41.3538 36.8011L42.2541 37.8818C42.6342 38.3381 43.1644 38.6442 43.7497 38.7453L45.1357 38.9845C46.6746 39.2502 47.596 40.846 47.0566 42.3116L46.5708 43.6315C46.3656 44.1889 46.3656 44.8011 46.5708 45.3585L47.0566 46.6785C47.596 48.1441 46.6746 49.7399 45.1357 50.0056L43.7497 50.2448C43.1644 50.3458 42.6342 50.652 42.2541 51.1083L41.3538 52.189C40.3543 53.3889 38.5116 53.3889 37.5121 52.189L36.6119 51.1083C36.2317 50.652 35.7015 50.3458 35.1163 50.2448L33.7302 50.0056C32.1913 49.7399 31.2699 48.1441 31.8093 46.6785L32.2952 45.3585C32.5003 44.8011 32.5003 44.1889 32.2952 43.6315L31.8093 42.3116C31.2699 40.846 32.1913 39.2502 33.7302 38.9845L35.1162 38.7453C35.7015 38.6442 36.2317 38.3381 36.6119 37.8818L37.5121 36.8011Z" fill="#016BBF"/>
</svg>
