<svg width="61" height="60" viewBox="0 0 61 60" fill="none" xmlns="http://www.w3.org/2000/svg">
<g id="toggle icons">
<g id="Union">
<path d="M16.3805 12.5C15.8931 12.5 15.4122 12.5317 14.9399 12.5933C13.9847 12.7179 13.3114 13.5932 13.436 14.5484C13.5606 15.5036 14.4359 16.1769 15.3911 16.0523C15.7142 16.0102 16.0443 15.9884 16.3805 15.9884C16.7166 15.9884 17.0468 16.0102 17.3699 16.0523C18.3251 16.1769 19.2004 15.5036 19.325 14.5484C19.4496 13.5932 18.7763 12.7179 17.8211 12.5933C17.3488 12.5317 16.8679 12.5 16.3805 12.5Z" fill="#8A8A8A"/>
<path d="M23.1064 14.7831C22.3426 14.1961 21.2476 14.3395 20.6606 15.1033C20.0736 15.8671 20.217 16.9621 20.9808 17.549C21.505 17.9519 21.9751 18.422 22.378 18.9462C22.9649 19.71 24.0599 19.8534 24.8237 19.2664C25.5875 18.6794 25.7309 17.5844 25.144 16.8206C24.5564 16.056 23.871 15.3706 23.1064 14.7831Z" fill="#8A8A8A"/>
<path d="M11.7802 17.5491C12.544 16.9621 12.6873 15.8671 12.1004 15.1033C11.5134 14.3395 10.4184 14.1961 9.65461 14.7831C8.88998 15.3706 8.20462 16.056 7.61704 16.8206C7.03008 17.5844 7.17345 18.6794 7.93726 19.2664C8.70107 19.8534 9.79608 19.71 10.383 18.9462C10.7859 18.422 11.2559 17.9519 11.7802 17.5491Z" fill="#8A8A8A"/>
<path d="M8.88633 22.5571C9.01093 21.6019 8.33759 20.7266 7.3824 20.602C6.4272 20.4774 5.55186 21.1507 5.42726 22.1059C5.36566 22.5782 5.33398 23.0591 5.33398 23.5465C5.33398 24.0339 5.36566 24.5148 5.42726 24.9871C5.55186 25.9423 6.4272 26.6156 7.3824 26.491C8.33759 26.3664 9.01093 25.4911 8.88633 24.5359C8.84419 24.2128 8.82236 23.8827 8.82236 23.5465C8.82236 23.2104 8.84419 22.8802 8.88633 22.5571Z" fill="#8A8A8A"/>
<path d="M27.3337 22.1059C27.2091 21.1507 26.3338 20.4774 25.3786 20.602C24.4234 20.7266 23.7501 21.6019 23.8747 22.5571C23.9168 22.8802 23.9386 23.2104 23.9386 23.5465C23.9386 23.8827 23.9168 24.2128 23.8747 24.5359C23.7501 25.4911 24.4234 26.3664 25.3786 26.491C26.3338 26.6156 27.2091 25.9423 27.3337 24.9871C27.3953 24.5148 27.427 24.0339 27.427 23.5465C27.427 23.0591 27.3953 22.5782 27.3337 22.1059Z" fill="#8A8A8A"/>
<path d="M10.383 28.1468C9.79608 27.383 8.70107 27.2397 7.93726 27.8266C7.17345 28.4136 7.03008 29.5086 7.61704 30.2724C8.20462 31.037 8.88998 31.7224 9.65461 32.31C10.4184 32.8969 11.5134 32.7536 12.1004 31.9897C12.6873 31.2259 12.544 30.1309 11.7802 29.544C11.2559 29.1411 10.7859 28.6711 10.383 28.1468Z" fill="#8A8A8A"/>
<path d="M25.144 30.2724C25.7309 29.5086 25.5875 28.4136 24.8237 27.8266C24.0599 27.2397 22.9649 27.383 22.378 28.1468C21.9751 28.6711 21.505 29.1411 20.9808 29.544C20.217 30.1309 20.0736 31.2259 20.6606 31.9897C21.2476 32.7536 22.3426 32.8969 23.1064 32.31C23.871 31.7224 24.5564 31.037 25.144 30.2724Z" fill="#8A8A8A"/>
<path d="M15.3911 31.0407C14.4359 30.9161 13.5606 31.5894 13.436 32.5446C13.3114 33.4998 13.9847 34.3751 14.9399 34.4997C15.4122 34.5613 15.8931 34.593 16.3805 34.593C16.8679 34.593 17.3488 34.5613 17.8211 34.4997C18.7763 34.3751 19.4496 33.4998 19.325 32.5446C19.2004 31.5894 18.3251 30.9161 17.3699 31.0407C17.0468 31.0828 16.7166 31.1047 16.3805 31.1047C16.0443 31.1047 15.7142 31.0828 15.3911 31.0407Z" fill="#8A8A8A"/>
<path fill-rule="evenodd" clip-rule="evenodd" d="M26.2642 16.5698C26.2642 15.6065 27.0451 14.8256 28.0084 14.8256H34.9851C35.9484 14.8256 36.7293 15.6065 36.7293 16.5698V20.6395H46.6131C47.162 20.6395 47.679 20.898 48.0084 21.3372L54.9851 30.6395C55.2116 30.9414 55.334 31.3087 55.334 31.686V42.1512C55.334 43.1144 54.5531 43.8953 53.5898 43.8953H50.4404C50.1453 44.9362 49.5882 45.8948 48.8097 46.6734C47.6103 47.8727 45.9836 48.5465 44.2875 48.5465C42.5913 48.5465 40.9646 47.8727 39.7653 46.6734C38.9867 45.8948 38.4296 44.9362 38.1345 43.8953H27.1846C26.8895 44.9362 26.3324 45.8948 25.5539 46.6734C24.3545 47.8727 22.7278 48.5465 21.0317 48.5465C19.3355 48.5465 17.7088 47.8727 16.5095 46.6734C15.7309 45.8948 15.1738 44.9362 14.8787 43.8953H11.7293C10.766 43.8953 9.98515 43.1144 9.98515 42.1512V35.1744C9.98515 34.2111 10.766 33.4302 11.7293 33.4302C12.6926 33.4302 13.4735 34.2111 13.4735 35.1744V40.407H14.8787C15.1738 39.3662 15.7309 38.4075 16.5095 37.629C17.7088 36.4296 19.3355 35.7558 21.0317 35.7558C22.7278 35.7558 24.3545 36.4296 25.5539 37.629C26.3324 38.4075 26.8895 39.3662 27.1846 40.407H33.241V18.314H28.0084C27.0451 18.314 26.2642 17.5331 26.2642 16.5698ZM51.8456 40.407H50.4404C50.1453 39.3662 49.5882 38.4075 48.8097 37.629C47.6103 36.4296 45.9836 35.7558 44.2875 35.7558C42.5913 35.7558 40.9646 36.4296 39.7653 37.629C38.9867 38.4075 38.4296 39.3662 38.1345 40.407H36.7293V33.4302H51.8456V40.407ZM42.2319 44.2067C41.6875 43.6623 41.3813 42.9241 41.3805 42.1543L41.3805 42.1512C41.3805 41.3802 41.6868 40.6408 42.2319 40.0956C42.7771 39.5505 43.5165 39.2442 44.2875 39.2442C45.0584 39.2442 45.7978 39.5505 46.343 40.0956C46.8882 40.6408 47.1944 41.3802 47.1944 42.1512C47.1944 42.9221 46.8882 43.6615 46.343 44.2067C45.7978 44.7519 45.0584 45.0581 44.2875 45.0581C43.5165 45.0581 42.7771 44.7519 42.2319 44.2067ZM18.9761 44.2067C18.4309 43.6615 18.1247 42.9221 18.1247 42.1512C18.1247 41.3802 18.4309 40.6408 18.9761 40.0956C19.5213 39.5505 20.2607 39.2442 21.0317 39.2442C21.8026 39.2442 22.542 39.5505 23.0872 40.0956C23.6324 40.6408 23.9386 41.3802 23.9386 42.1512C23.9386 42.9221 23.6324 43.6615 23.0872 44.2067C22.542 44.7519 21.8026 45.0581 21.0317 45.0581C20.2607 45.0581 19.5213 44.7519 18.9761 44.2067ZM45.741 24.1279H36.7293V29.9419H50.1014L45.741 24.1279Z" fill="#8A8A8A"/>
<path fill-rule="evenodd" clip-rule="evenodd" d="M14.0549 17.7326C14.6971 17.7326 15.2177 18.2532 15.2177 18.8953V20.0581L17.5433 20.0581V18.8953C17.5433 18.2532 18.0639 17.7326 18.7061 17.7326C19.3483 17.7326 19.8689 18.2532 19.8689 18.8953V20.0581H21.0317C21.6738 20.0581 22.1944 20.5787 22.1944 21.2209C22.1944 21.8631 21.6738 22.3837 21.0317 22.3837H19.8689V24.7093H21.0317C21.6738 24.7093 22.1944 25.2299 22.1944 25.8721C22.1944 26.5143 21.6738 27.0349 21.0317 27.0349H19.8689V28.1977C19.8689 28.8399 19.3483 29.3605 18.7061 29.3605C18.0639 29.3605 17.5433 28.8399 17.5433 28.1977V27.0349H15.2177V28.1977C15.2177 28.8399 14.6971 29.3605 14.0549 29.3605C13.4127 29.3605 12.8921 28.8399 12.8921 28.1977V27.0349H11.7293C11.0871 27.0349 10.5665 26.5143 10.5665 25.8721C10.5665 25.2299 11.0871 24.7093 11.7293 24.7093H12.8921V22.3837H11.7293C11.0871 22.3837 10.5665 21.8631 10.5665 21.2209C10.5665 20.5787 11.0871 20.0581 11.7293 20.0581H12.8921V18.8953C12.8921 18.2532 13.4127 17.7326 14.0549 17.7326ZM15.2177 24.7093H17.5433V22.3837H15.2177V24.7093Z" fill="#8A8A8A"/>
</g>
</g>
</svg>
