<svg width="61" height="60" viewBox="0 0 61 60" fill="none" xmlns="http://www.w3.org/2000/svg">
<path fill-rule="evenodd" clip-rule="evenodd" d="M51.678 40.4069H50.2728C49.9778 39.3661 49.4207 38.4074 48.6421 37.6289C47.4427 36.4295 45.8161 35.7557 44.1199 35.7557C42.4238 35.7557 40.7971 36.4295 39.5977 37.6289C38.8192 38.4074 38.2621 39.3661 37.967 40.4069H36.5618V33.4301H51.678V40.4069ZM45.5734 24.1278H36.5618V29.9418H49.9339L45.5734 24.1278Z" fill="#B3D3EC"/>
<path d="M16.213 12.5C15.7256 12.5 15.2447 12.5317 14.7724 12.5933C13.8172 12.7179 13.1439 13.5932 13.2685 14.5484C13.3931 15.5036 14.2685 16.1769 15.2236 16.0523C15.5467 16.0102 15.8769 15.9884 16.213 15.9884C16.5492 15.9884 16.8793 16.0102 17.2024 16.0523C18.1576 16.1769 19.0329 15.5036 19.1575 14.5484C19.2821 13.5932 18.6088 12.7179 17.6536 12.5933C17.1813 12.5317 16.7004 12.5 16.213 12.5Z" fill="#016BBF"/>
<path d="M22.9389 14.7831C22.1751 14.1961 21.0801 14.3395 20.4931 15.1033C19.9062 15.8671 20.0495 16.9621 20.8133 17.549C21.3376 17.9519 21.8076 18.422 22.2105 18.9462C22.7974 19.71 23.8924 19.8534 24.6563 19.2664C25.4201 18.6794 25.5634 17.5844 24.9765 16.8206C24.3889 16.056 23.7035 15.3706 22.9389 14.7831Z" fill="#016BBF"/>
<path d="M11.6127 17.5491C12.3765 16.9621 12.5199 15.8671 11.9329 15.1033C11.3459 14.3395 10.2509 14.1961 9.48713 14.7831C8.7225 15.3706 8.03714 16.056 7.44956 16.8206C6.8626 17.5844 7.00597 18.6794 7.76978 19.2664C8.53358 19.8534 9.6286 19.71 10.2156 18.9462C10.6184 18.422 11.0885 17.9519 11.6127 17.5491Z" fill="#016BBF"/>
<path d="M8.71885 22.5571C8.84345 21.6019 8.17011 20.7266 7.21492 20.602C6.25972 20.4774 5.38438 21.1507 5.25978 22.1059C5.19818 22.5782 5.1665 23.0591 5.1665 23.5465C5.1665 24.0339 5.19818 24.5148 5.25978 24.9871C5.38438 25.9423 6.25972 26.6156 7.21492 26.491C8.17011 26.3664 8.84345 25.4911 8.71885 24.5359C8.67671 24.2128 8.65488 23.8827 8.65488 23.5465C8.65488 23.2104 8.67671 22.8802 8.71885 22.5571Z" fill="#016BBF"/>
<path d="M27.1662 22.1059C27.0417 21.1507 26.1663 20.4774 25.2111 20.602C24.2559 20.7266 23.5826 21.6019 23.7072 22.5571C23.7493 22.8802 23.7712 23.2104 23.7712 23.5465C23.7712 23.8827 23.7493 24.2128 23.7072 24.5359C23.5826 25.4911 24.2559 26.3664 25.2111 26.491C26.1663 26.6156 27.0417 25.9423 27.1662 24.9871C27.2278 24.5148 27.2595 24.0339 27.2595 23.5465C27.2595 23.0591 27.2278 22.5782 27.1662 22.1059Z" fill="#016BBF"/>
<path d="M10.2156 28.1468C9.6286 27.383 8.53359 27.2397 7.76978 27.8266C7.00597 28.4136 6.8626 29.5086 7.44956 30.2724C8.03714 31.037 8.7225 31.7224 9.48713 32.31C10.2509 32.8969 11.3459 32.7536 11.9329 31.9897C12.5199 31.2259 12.3765 30.1309 11.6127 29.544C11.0885 29.1411 10.6184 28.6711 10.2156 28.1468Z" fill="#016BBF"/>
<path d="M24.9765 30.2724C25.5634 29.5086 25.4201 28.4136 24.6563 27.8266C23.8924 27.2397 22.7974 27.383 22.2105 28.1468C21.8076 28.6711 21.3376 29.1411 20.8133 29.544C20.0495 30.1309 19.9062 31.2259 20.4931 31.9897C21.0801 32.7536 22.1751 32.8969 22.9389 32.31C23.7035 31.7224 24.3889 31.037 24.9765 30.2724Z" fill="#016BBF"/>
<path d="M15.2236 31.0407C14.2685 30.9161 13.3931 31.5894 13.2685 32.5446C13.1439 33.4998 13.8172 34.3751 14.7724 34.4997C15.2447 34.5613 15.7256 34.593 16.213 34.593C16.7004 34.593 17.1813 34.5613 17.6536 34.4997C18.6088 34.3751 19.2821 33.4998 19.1575 32.5446C19.0329 31.5894 18.1576 30.9161 17.2024 31.0407C16.8793 31.0828 16.5492 31.1046 16.213 31.1046C15.8769 31.1046 15.5467 31.0828 15.2236 31.0407Z" fill="#016BBF"/>
<path fill-rule="evenodd" clip-rule="evenodd" d="M26.0967 16.5698C26.0967 15.6065 26.8776 14.8256 27.8409 14.8256H34.8177C35.781 14.8256 36.5619 15.6065 36.5619 16.5698V20.6395H46.4456C46.9946 20.6395 47.5115 20.898 47.8409 21.3372L54.8177 30.6395C55.0441 30.9414 55.1665 31.3087 55.1665 31.686V42.1512C55.1665 43.1144 54.3856 43.8953 53.4223 43.8953H50.2729C49.9778 44.9362 49.4207 45.8948 48.6422 46.6734C47.4428 47.8727 45.8161 48.5465 44.12 48.5465C42.4238 48.5465 40.7972 47.8727 39.5978 46.6734C38.8192 45.8948 38.2621 44.9362 37.9671 43.8953H27.0171C26.722 44.9362 26.1649 45.8948 25.3864 46.6734C24.187 47.8727 22.5603 48.5465 20.8642 48.5465C19.168 48.5465 17.5413 47.8727 16.342 46.6734C15.5634 45.8948 15.0063 44.9362 14.7113 43.8953H11.5619C10.5986 43.8953 9.81767 43.1144 9.81767 42.1512V35.1744C9.81767 34.2111 10.5986 33.4302 11.5619 33.4302C12.5251 33.4302 13.306 34.2111 13.306 35.1744V40.407H14.7113C15.0063 39.3662 15.5634 38.4075 16.342 37.629C17.5413 36.4296 19.168 35.7558 20.8642 35.7558C22.5603 35.7558 24.187 36.4296 25.3864 37.629C26.1649 38.4075 26.722 39.3662 27.0171 40.407H33.0735V18.314H27.8409C26.8776 18.314 26.0967 17.5331 26.0967 16.5698ZM51.6781 40.407H50.2729C49.9778 39.3662 49.4207 38.4075 48.6422 37.629C47.4428 36.4296 45.8161 35.7558 44.12 35.7558C42.4238 35.7558 40.7972 36.4296 39.5978 37.629C38.8192 38.4075 38.2621 39.3662 37.9671 40.407H36.5619V33.4302H51.6781V40.407ZM42.0644 44.2067C41.52 43.6623 41.2138 42.9241 41.213 42.1543L41.213 42.1512C41.213 41.3802 41.5193 40.6408 42.0644 40.0956C42.6096 39.5505 43.349 39.2442 44.12 39.2442C44.891 39.2442 45.6304 39.5505 46.1755 40.0956C46.7207 40.6408 47.027 41.3802 47.027 42.1512C47.027 42.9221 46.7207 43.6615 46.1755 44.2067C45.6304 44.7519 44.891 45.0581 44.12 45.0581C43.349 45.0581 42.6096 44.7519 42.0644 44.2067ZM18.8086 44.2067C18.2635 43.6615 17.9572 42.9221 17.9572 42.1512C17.9572 41.3802 18.2635 40.6408 18.8086 40.0956C19.3538 39.5505 20.0932 39.2442 20.8642 39.2442C21.6352 39.2442 22.3746 39.5505 22.9197 40.0956C23.4649 40.6408 23.7712 41.3802 23.7712 42.1512C23.7712 42.9221 23.4649 43.6615 22.9197 44.2067C22.3746 44.7519 21.6352 45.0581 20.8642 45.0581C20.0932 45.0581 19.3538 44.7519 18.8086 44.2067ZM45.5735 24.1279H36.5619V29.9419H49.9339L45.5735 24.1279Z" fill="#016BBF"/>
<path fill-rule="evenodd" clip-rule="evenodd" d="M13.8874 17.7326C14.5296 17.7326 15.0502 18.2532 15.0502 18.8953V20.0581L17.3758 20.0581V18.8953C17.3758 18.2532 17.8964 17.7326 18.5386 17.7326C19.1808 17.7326 19.7014 18.2532 19.7014 18.8953V20.0581H20.8642C21.5064 20.0581 22.027 20.5787 22.027 21.2209C22.027 21.8631 21.5064 22.3837 20.8642 22.3837H19.7014V24.7093H20.8642C21.5064 24.7093 22.027 25.2299 22.027 25.8721C22.027 26.5143 21.5064 27.0349 20.8642 27.0349H19.7014V28.1977C19.7014 28.8399 19.1808 29.3605 18.5386 29.3605C17.8964 29.3605 17.3758 28.8399 17.3758 28.1977V27.0349H15.0502V28.1977C15.0502 28.8399 14.5296 29.3605 13.8874 29.3605C13.2452 29.3605 12.7246 28.8399 12.7246 28.1977V27.0349H11.5619C10.9197 27.0349 10.3991 26.5143 10.3991 25.8721C10.3991 25.2299 10.9197 24.7093 11.5619 24.7093H12.7246V22.3837H11.5619C10.9197 22.3837 10.3991 21.8631 10.3991 21.2209C10.3991 20.5787 10.9197 20.0581 11.5619 20.0581H12.7246V18.8953C12.7246 18.2532 13.2452 17.7326 13.8874 17.7326ZM15.0502 24.7093H17.3758V22.3837H15.0502V24.7093Z" fill="#016BBF"/>
</svg>
