<svg width="61" height="60" viewBox="0 0 61 60" fill="none" xmlns="http://www.w3.org/2000/svg">
<path fill-rule="evenodd" clip-rule="evenodd" d="M12.833 16.875H18.458V13.75C18.458 11.9266 19.1823 10.178 20.4716 8.88864C21.761 7.59933 23.5096 6.875 25.333 6.875H35.333C37.1564 6.875 38.9051 7.59933 40.1944 8.88864C41.4837 10.178 42.208 11.9266 42.208 13.75V16.875H47.833C49.6564 16.875 51.4051 17.5993 52.6944 18.8886C53.9837 20.178 54.708 21.9266 54.708 23.75V46.25C54.708 48.0734 53.9837 49.822 52.6944 51.1114C51.4051 52.4007 49.6564 53.125 47.833 53.125C46.7975 53.125 45.958 52.2855 45.958 51.25C45.958 50.2145 46.7975 49.375 47.833 49.375C48.6618 49.375 49.4567 49.0458 50.0427 48.4597C50.6288 47.8737 50.958 47.0788 50.958 46.25V23.75C50.958 22.9212 50.6288 22.1263 50.0427 21.5403C49.4567 20.9542 48.6618 20.625 47.833 20.625H12.833C12.0042 20.625 11.2093 20.9542 10.6233 21.5403C10.0372 22.1263 9.70801 22.9212 9.70801 23.75V46.25C9.70801 47.0788 10.0372 47.8737 10.6233 48.4597C11.2094 49.0458 12.0042 49.375 12.833 49.375C13.8685 49.375 14.708 50.2145 14.708 51.25C14.708 52.2855 13.8685 53.125 12.833 53.125C11.0096 53.125 9.26096 52.4007 7.97165 51.1114C6.68234 49.822 5.95801 48.0734 5.95801 46.25V23.75C5.95801 21.9266 6.68234 20.178 7.97165 18.8886C9.26096 17.5993 11.0096 16.875 12.833 16.875ZM25.333 10.625C24.5042 10.625 23.7094 10.9542 23.1233 11.5403C22.5372 12.1263 22.208 12.9212 22.208 13.75V16.875H38.458V13.75C38.458 12.9212 38.1288 12.1263 37.5427 11.5403C36.9567 10.9542 36.1618 10.625 35.333 10.625H25.333Z" fill="#8A8A8A"/>
<path fill-rule="evenodd" clip-rule="evenodd" d="M29.083 33.75C29.083 33.0596 28.5234 32.5 27.833 32.5C27.1427 32.5 26.583 33.0596 26.583 33.75V35H25.333C24.6427 35 24.083 35.5596 24.083 36.25C24.083 36.9404 24.6427 37.5 25.333 37.5H26.583V40H25.333C24.6427 40 24.083 40.5596 24.083 41.25C24.083 41.9404 24.6427 42.5 25.333 42.5H26.583V43.75C26.583 44.4404 27.1427 45 27.833 45C28.5234 45 29.083 44.4404 29.083 43.75V42.5H31.583V43.75C31.583 44.4404 32.1427 45 32.833 45C33.5234 45 34.083 44.4404 34.083 43.75V42.5H35.333C36.0234 42.5 36.583 41.9404 36.583 41.25C36.583 40.5596 36.0234 40 35.333 40H34.083V37.5H35.333C36.0234 37.5 36.583 36.9404 36.583 36.25C36.583 35.5596 36.0234 35 35.333 35H34.083V33.75C34.083 33.0596 33.5234 32.5 32.833 32.5C32.1427 32.5 31.583 33.0596 31.583 33.75V35H29.083V33.75ZM31.583 40H29.083V37.5H31.583V40Z" fill="#8A8A8A"/>
<path d="M30.333 24.375C29.5697 24.375 28.8191 24.4347 28.0858 24.5499C27.0629 24.7107 26.3639 25.6703 26.5247 26.6932C26.6854 27.7162 27.645 28.4152 28.668 28.2544C29.2094 28.1693 29.7654 28.125 30.333 28.125C30.9006 28.125 31.4566 28.1693 31.998 28.2544C33.021 28.4152 33.9806 27.7162 34.1414 26.6932C34.3021 25.6703 33.6032 24.7107 32.5802 24.5499C31.8469 24.4347 31.0963 24.375 30.333 24.375Z" fill="#8A8A8A"/>
<path d="M24.0886 30.1525C24.9259 29.5432 25.1106 28.3704 24.5013 27.5332C23.8919 26.6959 22.7192 26.5111 21.882 27.1205C20.6636 28.0072 19.5902 29.0806 18.7035 30.2989C18.0941 31.1362 18.2789 32.3089 19.1162 32.9183C19.9535 33.5276 21.1262 33.3429 21.7355 32.5056C22.3919 31.6037 23.1868 30.8089 24.0886 30.1525Z" fill="#8A8A8A"/>
<path d="M38.7841 27.1205C37.9468 26.5111 36.7741 26.6959 36.1647 27.5332C35.5554 28.3704 35.7401 29.5432 36.5774 30.1525C37.4793 30.8089 38.2742 31.6037 38.9305 32.5056C39.5398 33.3429 40.7126 33.5276 41.5498 32.9183C42.3871 32.3089 42.5719 31.1362 41.9625 30.2989C41.0758 29.0806 40.0024 28.0072 38.7841 27.1205Z" fill="#8A8A8A"/>
<path d="M19.8374 37.085C19.9982 36.062 19.2992 35.1024 18.2763 34.9417C17.2533 34.7809 16.2937 35.4799 16.1329 36.5028C16.0177 37.2361 15.958 37.9867 15.958 38.75C15.958 39.5133 16.0177 40.2639 16.1329 40.9972C16.2937 42.0201 17.2533 42.7191 18.2763 42.5583C19.2992 42.3976 19.9982 41.438 19.8374 40.415C19.7524 39.8736 19.708 39.3176 19.708 38.75C19.708 38.1824 19.7524 37.6264 19.8374 37.085Z" fill="#8A8A8A"/>
<path d="M44.5331 36.5028C44.3724 35.4799 43.4127 34.7809 42.3898 34.9417C41.3668 35.1024 40.6678 36.062 40.8286 37.085C40.9137 37.6264 40.958 38.1824 40.958 38.75C40.958 39.3176 40.9137 39.8736 40.8286 40.415C40.6678 41.438 41.3668 42.3976 42.3898 42.5583C43.4127 42.7191 44.3724 42.0201 44.5331 40.9972C44.6484 40.2639 44.708 39.5133 44.708 38.75C44.708 37.9867 44.6484 37.2361 44.5331 36.5028Z" fill="#8A8A8A"/>
<path d="M21.7355 44.9944C21.1262 44.1571 19.9535 43.9724 19.1162 44.5817C18.2789 45.1911 18.0941 46.3638 18.7035 47.2011C19.5902 48.4194 20.6636 49.4928 21.882 50.3795C22.7192 50.9889 23.8919 50.8041 24.5013 49.9668C25.1106 49.1296 24.9259 47.9568 24.0886 47.3475C23.1868 46.6911 22.3919 45.8962 21.7355 44.9944Z" fill="#8A8A8A"/>
<path d="M41.9625 47.2011C42.5719 46.3638 42.3871 45.1911 41.5498 44.5817C40.7126 43.9724 39.5398 44.1571 38.9305 44.9944C38.2742 45.8962 37.4793 46.6911 36.5774 47.3475C35.7401 47.9568 35.5554 49.1296 36.1647 49.9668C36.7741 50.8041 37.9468 50.9889 38.7841 50.3795C40.0024 49.4928 41.0758 48.4194 41.9625 47.2011Z" fill="#8A8A8A"/>
<path d="M28.668 49.2456C27.645 49.0848 26.6854 49.7838 26.5247 50.8068C26.3639 51.8297 27.0629 52.7893 28.0858 52.9501C28.8191 53.0653 29.5697 53.125 30.333 53.125C31.0963 53.125 31.8469 53.0653 32.5802 52.9501C33.6032 52.7893 34.3021 51.8297 34.1414 50.8068C33.9806 49.7838 33.021 49.0848 31.998 49.2456C31.4566 49.3307 30.9006 49.375 30.333 49.375C29.7654 49.375 29.2094 49.3307 28.668 49.2456Z" fill="#8A8A8A"/>
</svg>
