<svg width="51" height="41" viewBox="0 0 51 41" fill="none" xmlns="http://www.w3.org/2000/svg">
<path fill-rule="evenodd" clip-rule="evenodd" d="M42.4079 1.11201C42.1472 0.441597 41.5016 0 40.7823 0C40.063 0 39.4174 0.441597 39.1567 1.11201L36.649 7.56035L32.9758 9.92169C30.3567 10.0698 27.6825 10.1781 25.666 10.1781C21.0853 10.1781 13.1792 9.62138 10.2987 9.32257L10.2927 9.32197C9.36025 9.22848 8.42379 9.47066 7.65384 10.0065C6.88358 10.5426 6.33035 11.3377 6.09851 12.2489L0.830826 33.1051C0.655789 33.7675 0.619674 34.4588 0.724881 35.136C0.830757 35.8174 1.07736 36.4691 1.44862 37.0501C1.81985 37.6312 2.30752 38.1287 2.88036 38.5122C3.45317 38.8956 4.09897 39.1568 4.77709 39.28C4.79766 39.2837 4.8183 39.2871 4.839 39.2901C11.7348 40.2878 18.6977 40.7564 25.666 40.6918C32.6343 40.7564 39.5972 40.2878 46.493 39.2901L46.5114 39.2873L46.5549 39.28C47.2331 39.1568 47.8789 38.8956 48.4517 38.5122C49.0245 38.1287 49.5122 37.6311 49.8834 37.0501C50.2547 36.4691 50.5013 35.8174 50.6072 35.136C50.7123 34.4589 50.6763 33.7677 50.5013 33.1053L46.2904 16.4333C46.2574 16.3026 46.2104 16.179 46.1514 16.0638L49.865 13.6765C50.3642 13.3555 50.666 12.8028 50.666 12.2093C50.666 11.6158 50.3642 11.0631 49.865 10.7421L44.9156 7.56035L42.4079 1.11201ZM43.6329 20.1567L42.4079 23.3066C42.1472 23.977 41.5016 24.4186 40.7823 24.4186C40.063 24.4186 39.4174 23.977 39.1567 23.3066L36.649 16.8583L31.6996 13.6765C31.6152 13.6223 31.5365 13.5614 31.464 13.4949C29.3752 13.5973 27.3232 13.6665 25.666 13.6665C20.9293 13.6665 12.9015 13.0994 9.94297 12.7928L10.1188 11.0575L9.93878 12.7923L9.94297 12.7928C9.83674 12.7825 9.73149 12.8106 9.64651 12.8697C9.56161 12.9288 9.50355 13.0141 9.47939 13.1082L4.2046 33.9926C4.15162 34.191 4.14042 34.3978 4.1719 34.6004C4.20338 34.803 4.27682 34.9976 4.38818 35.1719C4.49957 35.3463 4.64666 35.4967 4.82083 35.6133C4.988 35.7252 5.17645 35.8034 5.37528 35.8429C12.0882 36.8123 18.8663 37.2671 25.6496 37.2034L25.6824 37.2031C32.4657 37.2668 39.2439 36.8123 45.9568 35.8429C46.1556 35.8034 46.344 35.7252 46.5112 35.6133C46.6854 35.4967 46.8325 35.3463 46.9439 35.1719C47.0552 34.9976 47.1287 34.803 47.1601 34.6004C47.1916 34.3978 47.1806 34.1909 47.1276 33.9925L47.1215 33.9696L43.6329 20.1567ZM35.9912 12.2884L39.0123 14.2305C39.3223 14.4298 39.5611 14.7221 39.6947 15.0655L40.7823 17.8622L41.8699 15.0655C42.0034 14.7221 42.2423 14.4298 42.5523 14.2305L45.6964 12.2093L42.5523 10.1881C42.2423 9.98884 42.0034 9.69653 41.8699 9.3531L40.7823 6.55645L39.6947 9.3531C39.5611 9.69653 39.3223 9.98884 39.0123 10.1881L36.0674 12.0813C36.0463 12.1522 36.0208 12.2214 35.9912 12.2884Z" fill="#8A8A8A"/>
</svg>
