<svg width="25" height="24" viewBox="0 0 25 24" fill="none" xmlns="http://www.w3.org/2000/svg">
<path fill-rule="evenodd" clip-rule="evenodd" d="M5.87791 7.39616C5.83542 7.39208 5.7926 7.40322 5.75861 7.42687C5.72465 7.45051 5.70143 7.48462 5.69176 7.52226L3.58183 15.8761C3.56064 15.9554 3.55616 16.0381 3.56875 16.1192C3.58134 16.2002 3.61072 16.2781 3.65527 16.3478C3.69982 16.4175 3.75866 16.4777 3.82833 16.5244C3.89519 16.5691 3.97057 16.6004 4.0501 16.6162C6.38796 16.9538 8.7456 17.1354 11.1072 17.1599L8.73447 11.6236C8.62209 11.3614 8.68067 11.0572 8.8824 10.8554L10.4789 9.25899L10.1654 7.6919C8.51112 7.61742 6.70677 7.48207 5.87791 7.39616ZM14.5737 7.67257C16.1078 7.59577 17.6933 7.47511 18.4556 7.39609C18.4981 7.39201 18.5402 7.40322 18.5742 7.42687C18.6081 7.4505 18.6314 7.48462 18.641 7.52226L20.7486 15.8669L20.751 15.876C20.7722 15.9554 20.7766 16.0381 20.764 16.1192C20.7514 16.2002 20.7221 16.2781 20.6775 16.3478C20.633 16.4175 20.5741 16.4777 20.5045 16.5244C20.4376 16.5691 20.3622 16.6004 20.2827 16.6162C17.941 16.9544 15.5795 17.136 13.214 17.16L15.1359 12.5473C15.2257 12.332 15.2018 12.0861 15.0724 11.892C14.943 11.6979 14.7252 11.5813 14.4919 11.5813H13.5381L14.5737 7.67257Z" fill="#B3D3EC"/>
<path fill-rule="evenodd" clip-rule="evenodd" d="M6.01722 6.00786C5.64422 5.97046 5.26963 6.06734 4.96165 6.28168C4.65354 6.4961 4.43225 6.81416 4.33951 7.17863L2.23243 15.5212C2.16241 15.7861 2.14797 16.0627 2.19005 16.3335C2.2324 16.6061 2.33104 16.8668 2.47955 17.0992C2.62804 17.3316 2.82311 17.5306 3.05225 17.684C3.28137 17.8374 3.53969 17.9419 3.81094 17.9911C3.81917 17.9926 3.82743 17.994 3.8357 17.9952C6.59402 18.3942 9.3792 18.5817 12.1665 18.5559C14.9538 18.5817 17.739 18.3942 20.4973 17.9952C20.5056 17.994 20.5138 17.9926 20.5221 17.9911C20.7933 17.9419 21.0516 17.8374 21.2808 17.684C21.5099 17.5306 21.705 17.3316 21.8535 17.0992C22.002 16.8668 22.1006 16.6061 22.143 16.3335C22.185 16.0627 22.1706 15.7861 22.1006 15.5212L19.9938 7.17982L19.9935 7.17863C19.9008 6.81416 19.6795 6.4961 19.3714 6.28168C19.0634 6.06734 18.6888 5.97046 18.3158 6.00786L18.3134 6.0081C17.4998 6.09251 15.6609 6.23031 14 6.3027C13.695 6.31599 13.4341 6.52597 13.356 6.82102L11.9572 12.1004C11.9017 12.3098 11.9466 12.533 12.0787 12.7046C12.2107 12.8762 12.415 12.9768 12.6316 12.9768H13.4455L12.1575 16.0682L10.2032 11.5082L11.7297 9.98173C11.8946 9.81678 11.9662 9.58031 11.9204 9.35157L11.4263 6.88063C11.3629 6.56399 11.0906 6.33218 10.7679 6.32025C9.00701 6.25516 6.90638 6.10009 6.01961 6.0081L6.01722 6.00786ZM5.87802 7.39626C5.83554 7.39217 5.79271 7.40332 5.75872 7.42697C5.72476 7.4506 5.70154 7.48472 5.69187 7.52236L3.58194 15.8762C3.56075 15.9555 3.55627 16.0382 3.56886 16.1193C3.58146 16.2003 3.61083 16.2782 3.65538 16.3479C3.69993 16.4176 3.75877 16.4778 3.82844 16.5245C3.89531 16.5692 3.97068 16.6005 4.05022 16.6163C6.38807 16.9539 8.74571 17.1355 11.1073 17.16L8.73458 11.6237C8.6222 11.3615 8.68078 11.0573 8.88251 10.8555L10.479 9.25908L10.1655 7.692C8.51124 7.61752 6.70688 7.48217 5.87802 7.39626ZM14.5738 7.67266C16.1079 7.59586 17.6934 7.4752 18.4557 7.39618C18.4982 7.3921 18.5403 7.40332 18.5743 7.42697C18.6082 7.4506 18.6315 7.48472 18.6411 7.52235L20.7487 15.867L20.7511 15.8761C20.7723 15.9555 20.7767 16.0382 20.7641 16.1193C20.7516 16.2003 20.7222 16.2782 20.6776 16.3479C20.6331 16.4176 20.5742 16.4778 20.5046 16.5245C20.4377 16.5692 20.3623 16.6005 20.2828 16.6163C17.9411 16.9544 15.5796 17.1361 13.2141 17.1601L15.1361 12.5474C15.2258 12.3321 15.2019 12.0862 15.0725 11.8921C14.9432 11.698 14.7253 11.5814 14.492 11.5814H13.5382L14.5738 7.67266Z" fill="#016BBF"/>
</svg>
