<svg width="61" height="60" viewBox="0 0 61 60" fill="none" xmlns="http://www.w3.org/2000/svg">
<path fill-rule="evenodd" clip-rule="evenodd" d="M40.6602 22.2886L43.6812 24.2307C43.9912 24.43 44.2301 24.7223 44.3636 25.0657L45.4512 27.8624L46.5388 25.0657C46.6724 24.7223 46.9113 24.43 47.2212 24.2307L50.3653 22.2095L47.2212 20.1883C46.9113 19.989 46.6724 19.6967 46.5388 19.3533L45.4512 16.5566L44.3636 19.3533C44.2301 19.6967 43.9912 19.989 43.6812 20.1883L40.7363 22.0815C40.7152 22.1524 40.6898 22.2216 40.6602 22.2886Z" fill="#B3D3EC"/>
<path fill-rule="evenodd" clip-rule="evenodd" d="M47.0759 11.112C46.8151 10.4416 46.1696 10 45.4503 10C44.7309 10 44.0854 10.4416 43.8247 11.112L41.317 17.5603L37.6438 19.9217C35.0246 20.0698 32.3504 20.1781 30.334 20.1781C25.7533 20.1781 17.8472 19.6214 14.9667 19.3226L14.9607 19.322C14.0282 19.2285 13.0918 19.4707 12.3218 20.0065C11.5516 20.5426 10.9983 21.3377 10.7665 22.2489L5.4988 43.1051C5.32376 43.7675 5.28764 44.4588 5.39285 45.136C5.49873 45.8174 5.74533 46.4691 6.11659 47.0501C6.48782 47.6311 6.97549 48.1287 7.54833 48.5122C8.12114 48.8956 8.76693 49.1568 9.44506 49.28C9.46563 49.2837 9.48627 49.2871 9.50696 49.2901C16.4028 50.2878 23.3657 50.7564 30.334 50.6918C37.3023 50.7564 44.2652 50.2878 51.161 49.2901L51.1794 49.2873L51.2229 49.28C51.901 49.1568 52.5468 48.8956 53.1196 48.5122C53.6925 48.1287 54.1801 47.6311 54.5514 47.0501C54.9226 46.4691 55.1692 45.8174 55.2751 45.136C55.3803 44.4589 55.3442 43.7677 55.1692 43.1053L50.9584 26.4333C50.9253 26.3026 50.8783 26.179 50.8193 26.0638L54.533 23.6765C55.0322 23.3555 55.334 22.8028 55.334 22.2093C55.334 21.6158 55.0322 21.0631 54.533 20.7421L49.5835 17.5603L47.0759 11.112ZM48.3008 30.1567L47.0759 33.3066C46.8151 33.977 46.1696 34.4186 45.4503 34.4186C44.7309 34.4186 44.0854 33.977 43.8247 33.3066L41.317 26.8583L36.3675 23.6765C36.2832 23.6223 36.2045 23.5614 36.1319 23.4949C34.0431 23.5973 31.9912 23.6664 30.334 23.6664C25.5973 23.6664 17.5695 23.0994 14.6109 22.7928C14.6115 22.7928 14.6103 22.7927 14.6109 22.7928L14.7867 21.0575L14.6068 22.7923C14.6081 22.7925 14.6095 22.7926 14.6109 22.7928C14.5047 22.7825 14.3995 22.8106 14.3145 22.8697C14.2296 22.9288 14.1715 23.0141 14.1474 23.1082L8.87257 43.9926C8.81959 44.191 8.80838 44.3978 8.83986 44.6004C8.87135 44.803 8.94478 44.9976 9.05615 45.1719C9.16754 45.3462 9.31463 45.4967 9.48879 45.6133C9.65597 45.7252 9.84441 45.8034 10.0433 45.8429C16.7562 46.8123 23.5343 47.2671 30.3176 47.2034L30.3504 47.2031C37.1337 47.2668 43.9118 46.8123 50.6247 45.8429C50.8236 45.8034 51.012 45.7252 51.1792 45.6133C51.3533 45.4967 51.5004 45.3462 51.6118 45.1719C51.7232 44.9976 51.7966 44.803 51.8281 44.6004C51.8596 44.3978 51.8485 44.1909 51.7956 43.9925L51.7894 43.9696L48.3008 30.1567ZM40.6592 22.2884L43.6803 24.2305C43.9902 24.4298 44.2291 24.7221 44.3627 25.0655L45.4503 27.8622L46.5378 25.0655C46.6714 24.7221 46.9103 24.4298 47.2203 24.2305L50.3643 22.2093L47.2203 20.1881C46.9103 19.9888 46.6714 19.6965 46.5378 19.3531L45.4503 16.5564L44.3627 19.3531C44.2291 19.6965 43.9902 19.9888 43.6803 20.1881L40.7353 22.0813C40.7143 22.1522 40.6888 22.2214 40.6592 22.2884Z" fill="#016BBF"/>
</svg>
