<svg width="61" height="60" viewBox="0 0 61 60" fill="none" xmlns="http://www.w3.org/2000/svg">
<path fill-rule="evenodd" clip-rule="evenodd" d="M14.8768 15.0196C13.9443 14.9262 13.0078 15.1683 12.2379 15.7042C11.4676 16.2403 10.9144 17.0354 10.6825 17.9466L5.41481 38.8029C5.23977 39.4653 5.20366 40.1567 5.30887 40.8338C5.41474 41.5152 5.66135 42.1669 6.03261 42.748C6.40384 43.329 6.89152 43.8265 7.46436 44.21C8.03716 44.5934 8.68297 44.8546 9.3611 44.9778C9.38167 44.9815 9.40231 44.9849 9.423 44.9879C16.3188 45.9856 23.2817 46.4543 30.25 46.3896C37.2183 46.4543 44.1812 45.9856 51.077 44.9879C51.0977 44.9849 51.1183 44.9815 51.1389 44.9778C51.817 44.8546 52.4628 44.5934 53.0356 44.21C53.6085 43.8265 54.0962 43.329 54.4674 42.748C54.8386 42.1669 55.0853 41.5152 55.1911 40.8338C55.2963 40.1567 55.2602 39.4654 55.0852 38.803L49.8182 17.9495L49.8175 17.9466C49.5856 17.0354 49.0324 16.2403 48.2621 15.7042C47.4922 15.1683 46.5557 14.9262 45.6232 15.0196L45.6172 15.0203C43.5832 15.2313 38.9859 15.5758 34.8337 15.7567C34.0714 15.79 33.4191 16.3149 33.2237 17.0526L29.7266 30.251C29.588 30.7744 29.7002 31.3324 30.0304 31.7615C30.3606 32.1906 30.8713 32.442 31.4127 32.442H33.4476L30.2274 40.1705L25.3417 28.7705L29.1579 24.9543C29.5702 24.5419 29.7492 23.9508 29.6349 23.3789L28.3994 17.2016C28.2411 16.41 27.5602 15.8305 26.7535 15.8006C22.3513 15.6379 17.0997 15.2502 14.8828 15.0202L14.8768 15.0196ZM14.5288 18.4906C14.4226 18.4804 14.3155 18.5083 14.2305 18.5674C14.1456 18.6265 14.0876 18.7118 14.0634 18.8059L8.7886 39.6904C8.73562 39.8888 8.72442 40.0956 8.7559 40.2982C8.78738 40.5008 8.86082 40.6954 8.97218 40.8697C9.08357 41.0441 9.23066 41.1945 9.40483 41.3111C9.572 41.423 9.76045 41.5012 9.95928 41.5408C15.8039 42.3847 21.698 42.8387 27.6019 42.9L21.6702 29.0592C21.3892 28.4037 21.5357 27.6432 22.04 27.1388L26.0311 23.1477L25.2476 19.23C21.1118 19.0438 16.6009 18.7054 14.5288 18.4906ZM36.2683 19.1817C40.1035 18.9897 44.0672 18.688 45.973 18.4905C46.0793 18.4803 46.1845 18.5083 46.2694 18.5674C46.3543 18.6265 46.4124 18.7118 46.4366 18.8059L51.7056 39.6674L51.7116 39.6903C51.7645 39.8887 51.7756 40.0956 51.7441 40.2982C51.7126 40.5008 51.6392 40.6954 51.5278 40.8697C51.4164 41.0441 51.2693 41.1945 51.0952 41.3111C50.928 41.423 50.7396 41.5012 50.5407 41.5408C44.6865 42.3861 38.7827 42.8402 32.8691 42.9003L37.6739 31.3686C37.8982 30.8303 37.8386 30.2155 37.5151 29.7303C37.1916 29.245 36.647 28.9536 36.0639 28.9536H33.6792L36.2683 19.1817Z" fill="#8A8A8A"/>
</svg>
