<svg width="60" height="60" viewBox="0 0 60 60" fill="none" xmlns="http://www.w3.org/2000/svg">
<circle cx="29.9998" cy="38.9062" r="12.4255" fill="#B3D3EC"/>
<path fill-rule="evenodd" clip-rule="evenodd" d="M12.5 16.875H18.125V13.75C18.125 11.9266 18.8493 10.178 20.1386 8.88864C21.428 7.59933 23.1766 6.875 25 6.875H35C36.8234 6.875 38.572 7.59933 39.8614 8.88864C41.1507 10.178 41.875 11.9266 41.875 13.75V16.875H47.5C49.3234 16.875 51.072 17.5993 52.3614 18.8886C53.6507 20.178 54.375 21.9266 54.375 23.75V46.25C54.375 48.0734 53.6507 49.822 52.3614 51.1114C51.072 52.4007 49.3234 53.125 47.5 53.125C46.4645 53.125 45.625 52.2855 45.625 51.25C45.625 50.2145 46.4645 49.375 47.5 49.375C48.3288 49.375 49.1237 49.0458 49.7097 48.4597C50.2958 47.8737 50.625 47.0788 50.625 46.25V23.75C50.625 22.9212 50.2958 22.1263 49.7097 21.5403C49.1237 20.9542 48.3288 20.625 47.5 20.625H12.5C11.6712 20.625 10.8763 20.9542 10.2903 21.5403C9.70424 22.1263 9.375 22.9212 9.375 23.75V46.25C9.375 47.0788 9.70424 47.8737 10.2903 48.4597C10.8763 49.0458 11.6712 49.375 12.5 49.375C13.5355 49.375 14.375 50.2145 14.375 51.25C14.375 52.2855 13.5355 53.125 12.5 53.125C10.6766 53.125 8.92795 52.4007 7.63864 51.1114C6.34933 49.822 5.625 48.0734 5.625 46.25V23.75C5.625 21.9266 6.34933 20.178 7.63864 18.8886C8.92795 17.5993 10.6766 16.875 12.5 16.875ZM25 10.625C24.1712 10.625 23.3763 10.9542 22.7903 11.5403C22.2042 12.1263 21.875 12.9212 21.875 13.75V16.875H38.125V13.75C38.125 12.9212 37.7958 12.1263 37.2097 11.5403C36.6237 10.9542 35.8288 10.625 35 10.625H25Z" fill="#016BBF"/>
<path fill-rule="evenodd" clip-rule="evenodd" d="M28.75 33.75C28.75 33.0596 28.1904 32.5 27.5 32.5C26.8096 32.5 26.25 33.0596 26.25 33.75V35H25C24.3096 35 23.75 35.5596 23.75 36.25C23.75 36.9404 24.3096 37.5 25 37.5H26.25V40H25C24.3096 40 23.75 40.5596 23.75 41.25C23.75 41.9404 24.3096 42.5 25 42.5H26.25V43.75C26.25 44.4404 26.8096 45 27.5 45C28.1904 45 28.75 44.4404 28.75 43.75V42.5H31.25V43.75C31.25 44.4404 31.8096 45 32.5 45C33.1904 45 33.75 44.4404 33.75 43.75V42.5H35C35.6904 42.5 36.25 41.9404 36.25 41.25C36.25 40.5596 35.6904 40 35 40H33.75V37.5H35C35.6904 37.5 36.25 36.9404 36.25 36.25C36.25 35.5596 35.6904 35 35 35H33.75V33.75C33.75 33.0596 33.1904 32.5 32.5 32.5C31.8096 32.5 31.25 33.0596 31.25 33.75V35H28.75V33.75ZM31.25 40H28.75V37.5H31.25V40Z" fill="#016BBF"/>
<path fill-rule="evenodd" clip-rule="evenodd" d="M30 24.375C22.0609 24.375 15.625 30.8109 15.625 38.75C15.625 46.6891 22.0609 53.125 30 53.125C37.9391 53.125 44.375 46.6891 44.375 38.75C44.375 30.8109 37.9391 24.375 30 24.375ZM19.375 38.75C19.375 32.882 24.132 28.125 30 28.125C35.868 28.125 40.625 32.882 40.625 38.75C40.625 44.618 35.868 49.375 30 49.375C24.132 49.375 19.375 44.618 19.375 38.75Z" fill="#016BBF"/>
</svg>
