<svg width="60" height="60" viewBox="0 0 60 60" fill="none" xmlns="http://www.w3.org/2000/svg">
<path d="M52.2267 10.5774C52.8711 11.2934 52.8131 12.3962 52.097 13.0406L44.3451 20.0174C43.6818 20.6144 42.6748 20.6144 42.0115 20.0174L38.1355 16.529C37.4195 15.8846 37.3615 14.7818 38.0059 14.0658C38.6503 13.3498 39.7531 13.2917 40.4691 13.9361L43.1783 16.3744L49.7634 10.4478C50.4795 9.80335 51.5823 9.8614 52.2267 10.5774Z" fill="#8A8A8A"/>
<path fill-rule="evenodd" clip-rule="evenodd" d="M13.7209 19.8837C14.3631 19.8837 14.8837 20.4043 14.8837 21.0465V22.2093H17.2093V21.0465C17.2093 20.4043 17.7299 19.8837 18.3721 19.8837C19.0143 19.8837 19.5349 20.4043 19.5349 21.0465V22.2093H20.6977C21.3399 22.2093 21.8605 22.7299 21.8605 23.3721C21.8605 24.0143 21.3399 24.5349 20.6977 24.5349H19.5349V26.8605H20.6977C21.3399 26.8605 21.8605 27.3811 21.8605 28.0233C21.8605 28.6654 21.3399 29.186 20.6977 29.186H19.5349V30.3488C19.5349 30.991 19.0143 31.5116 18.3721 31.5116C17.7299 31.5116 17.2093 30.991 17.2093 30.3488V29.186H14.8837V30.3488C14.8837 30.991 14.3631 31.5116 13.7209 31.5116C13.0787 31.5116 12.5581 30.991 12.5581 30.3488V29.186H11.3953C10.7532 29.186 10.2326 28.6654 10.2326 28.0233C10.2326 27.3811 10.7532 26.8605 11.3953 26.8605H12.5581V24.5349H11.3953C10.7532 24.5349 10.2326 24.0143 10.2326 23.3721C10.2326 22.7299 10.7532 22.2093 11.3953 22.2093H12.5581V21.0465C12.5581 20.4043 13.0787 19.8837 13.7209 19.8837ZM14.8837 26.8605H17.2093V24.5349H14.8837V26.8605Z" fill="#8A8A8A"/>
<path fill-rule="evenodd" clip-rule="evenodd" d="M9.6733 34.7214C6.84586 32.7208 5 29.4248 5 25.6977C5 19.5969 9.94569 14.6512 16.0465 14.6512C18.6081 14.6512 20.966 15.5231 22.8397 16.9863C22.9001 16.98 22.9613 16.9767 23.0233 16.9767H34.6512C35.6145 16.9767 36.3953 17.7576 36.3953 18.7209V22.7907H46.2791C46.8281 22.7907 47.345 23.0492 47.6744 23.4884L54.6512 32.7907C54.8776 33.0926 55 33.4598 55 33.8372V44.3023C55 45.2656 54.2191 46.0465 53.2558 46.0465H50.1064C49.8113 47.0873 49.2542 48.046 48.4757 48.8245C47.2763 50.0239 45.6496 50.6977 43.9535 50.6977C42.2573 50.6977 40.6307 50.0239 39.4313 48.8245C38.6527 48.046 38.0956 47.0873 37.8006 46.0465H26.8506C26.5555 47.0873 25.9984 48.046 25.2199 48.8245C24.0205 50.0239 22.3938 50.6977 20.6977 50.6977C19.0015 50.6977 17.3748 50.0239 16.1755 48.8245C15.3969 48.046 14.8398 47.0873 14.5448 46.0465H11.3953C10.4321 46.0465 9.65116 45.2656 9.65116 44.3023V35C9.65116 34.9052 9.65873 34.8121 9.6733 34.7214ZM25.7776 20.4651C26.6168 22.0226 27.093 23.8045 27.093 25.6977C27.093 31.7985 22.1473 36.7442 16.0465 36.7442C15.0404 36.7442 14.0658 36.6097 13.1395 36.3577V42.5581H14.5448C14.8398 41.5173 15.3969 40.5587 16.1755 39.7801C17.3748 38.5808 19.0015 37.907 20.6977 37.907C22.3938 37.907 24.0205 38.5808 25.2199 39.7801C25.9984 40.5587 26.5555 41.5173 26.8506 42.5581H32.907V20.4651H25.7776ZM50.1064 42.5581H51.5116V35.5814H36.3953V42.5581H37.8006C38.0956 41.5173 38.6527 40.5587 39.4313 39.7801C40.6307 38.5808 42.2573 37.907 43.9535 37.907C45.6496 37.907 47.2763 38.5808 48.4757 39.7801C49.2542 40.5587 49.8113 41.5173 50.1064 42.5581ZM41.0465 44.3056C41.0474 45.0754 41.3535 45.8135 41.8979 46.3579C42.4431 46.903 43.1825 47.2093 43.9535 47.2093C44.7245 47.2093 45.4639 46.903 46.009 46.3579C46.5542 45.8127 46.8605 45.0733 46.8605 44.3023C46.8605 43.5313 46.5542 42.792 46.009 42.2468C45.4639 41.7016 44.7245 41.3953 43.9535 41.3953C43.1825 41.3953 42.4431 41.7016 41.8979 42.2468C41.3528 42.792 41.0465 43.5313 41.0465 44.3023L41.0465 44.3056ZM17.7907 44.3023C17.7907 45.0733 18.097 45.8127 18.6421 46.3579C19.1873 46.903 19.9267 47.2093 20.6977 47.2093C21.4687 47.2093 22.2081 46.903 22.7532 46.3579C23.2984 45.8127 23.6047 45.0733 23.6047 44.3023C23.6047 43.5313 23.2984 42.792 22.7532 42.2468C22.2081 41.7016 21.4687 41.3953 20.6977 41.3953C19.9267 41.3953 19.1873 41.7016 18.6421 42.2468C18.097 42.7919 17.7907 43.5313 17.7907 44.3023ZM49.7674 32.093H36.3953V26.2791H45.407L49.7674 32.093ZM8.48837 25.6977C8.48837 21.5234 11.8723 18.1395 16.0465 18.1395C20.2208 18.1395 23.6047 21.5234 23.6047 25.6977C23.6047 29.8719 20.2208 33.2558 16.0465 33.2558C11.8723 33.2558 8.48837 29.8719 8.48837 25.6977Z" fill="#8A8A8A"/>
</svg>
