<svg width="61" height="60" viewBox="0 0 61 60" fill="none" xmlns="http://www.w3.org/2000/svg">
<path fill-rule="evenodd" clip-rule="evenodd" d="M13.7054 20.8844V24.3962C14.7596 24.7082 15.73 25.2796 16.5215 26.071C17.7689 27.3185 18.4697 29.0103 18.4697 30.7744C18.4697 32.5385 17.7689 34.2304 16.5215 35.4778C15.2741 36.7252 13.5822 37.426 11.8181 37.426C10.054 37.426 8.36213 36.7252 7.11471 35.4778C5.8673 34.2304 5.1665 32.5385 5.1665 30.7744C5.1665 29.0103 5.8673 27.3185 7.11471 26.071C7.9427 25.2431 8.96649 24.6559 10.0773 24.3547V11.8141C10.0773 10.8122 10.8894 10 11.8913 10H17.0708C18.0726 10 18.8848 10.8122 18.8848 11.8141C18.8848 12.816 18.0726 13.6281 17.0708 13.6281H13.7054V17.2563H15.8614C16.8633 17.2563 17.6755 18.0685 17.6755 19.0704C17.6755 20.0722 16.8633 20.8844 15.8614 20.8844H13.7054ZM9.6802 32.9123C10.2472 33.4793 11.0162 33.7979 11.8181 33.7979C12.62 33.7979 13.389 33.4793 13.956 32.9123C14.523 32.3453 14.8416 31.5763 14.8416 30.7744C14.8416 29.9726 14.523 29.2035 13.956 28.6365C13.389 28.0695 12.62 27.751 11.8181 27.751C11.0162 27.751 10.2472 28.0695 9.6802 28.6365C9.11319 29.2035 8.79465 29.9726 8.79465 30.7744C8.79465 31.5763 9.11319 32.3453 9.6802 32.9123Z" fill="#8A8A8A"/>
<path fill-rule="evenodd" clip-rule="evenodd" d="M20.0942 19.0704C20.0942 18.0685 20.9064 17.2563 21.9083 17.2563H40.2909C41.2928 17.2563 42.105 18.0685 42.105 19.0704V21.6096H46.0961C51.1056 21.6096 55.1665 25.6705 55.1665 30.6799V42.7738C55.1665 45.1115 53.2714 47.0066 50.9337 47.0066H48.3651C47.5906 49.5279 45.2435 51.3608 42.4682 51.3608C39.693 51.3608 37.3459 49.5279 36.5713 47.0066H26.5963C25.8218 49.5279 23.4746 51.3608 20.6994 51.3608C17.293 51.3608 14.5315 48.5994 14.5315 45.193C14.5315 41.7866 17.293 39.0251 20.6994 39.0251C23.4743 39.0251 25.8212 40.8576 26.596 43.3784H36.5716C37.3464 40.8576 39.6933 39.0251 42.4682 39.0251C45.2431 39.0251 47.59 40.8576 48.3648 43.3784H50.9337C51.2676 43.3784 51.5384 43.1077 51.5384 42.7738V33.9461H46.8211C45.8192 33.9461 45.007 33.1339 45.007 32.132C45.007 31.1301 45.8192 30.318 46.8211 30.318H51.5265C51.3402 27.4811 48.9802 25.2377 46.0961 25.2377H42.105V34.3086C42.105 35.3104 41.2928 36.1226 40.2909 36.1226C39.289 36.1226 38.4768 35.3104 38.4768 34.3086V20.8844H21.9083C20.9064 20.8844 20.0942 20.0722 20.0942 19.0704ZM45.0077 45.1925L45.0078 45.1702C44.9956 43.778 43.8633 42.6533 42.4682 42.6533C41.0656 42.6533 39.9285 43.7904 39.9285 45.193C39.9285 46.5956 41.0656 47.7327 42.4682 47.7327C43.8634 47.7327 44.9959 46.6076 45.0078 45.2153L45.0077 45.1925ZM23.2387 45.1476L23.2381 45.1925L23.2387 45.2379C23.2147 46.6198 22.087 47.7327 20.6994 47.7327C19.2967 47.7327 18.1597 46.5956 18.1597 45.193C18.1597 43.7904 19.2967 42.6533 20.6994 42.6533C22.0868 42.6533 23.2144 43.7659 23.2387 45.1476Z" fill="#8A8A8A"/>
<path d="M9.81447 40.2345C10.8164 40.2345 11.6285 41.0467 11.6285 42.0486V45.4349C11.6285 46.4368 10.8164 47.2489 9.81447 47.2489C8.81259 47.2489 8.0004 46.4368 8.0004 45.4349V42.0486C8.0004 41.0467 8.81259 40.2345 9.81447 40.2345Z" fill="#8A8A8A"/>
</svg>
