<svg width="24" height="24" viewBox="0 0 24 24" fill="none" xmlns="http://www.w3.org/2000/svg">
<path fill-rule="evenodd" clip-rule="evenodd" d="M2 7.70175C2 7.31419 2.31419 7 2.70175 7H5.34365C5.55683 7 5.75845 7.0969 5.89163 7.26337L8.32283 10.3024H8.64602C9.18247 10.3024 9.69696 10.5155 10.0763 10.8948C10.4556 11.2741 10.6687 11.7886 10.6687 12.3251V14.967C10.6687 15.3545 10.3545 15.6687 9.96697 15.6687H8.72681C8.62653 15.9399 8.46833 16.189 8.25998 16.3973C7.88065 16.7766 7.36617 16.9897 6.82972 16.9897C6.29326 16.9897 5.77878 16.7766 5.39945 16.3973C5.19111 16.189 5.03291 15.9399 4.93262 15.6687H2.70175C2.31419 15.6687 2 15.3545 2 14.967C2 14.5794 2.31419 14.2652 2.70175 14.2652H4.93268C5.03297 13.9941 5.19115 13.7451 5.39945 13.5368C5.77878 13.1575 6.29326 12.9443 6.82972 12.9443C7.36617 12.9443 7.88065 13.1575 8.25998 13.5368C8.46828 13.7451 8.62646 13.9941 8.72675 14.2652H9.26521V12.3251C9.26521 12.1609 9.19998 12.0034 9.08386 11.8872C8.96774 11.7711 8.81024 11.7059 8.64602 11.7059H2.70175C2.31419 11.7059 2 11.3917 2 11.0041C2 10.6166 2.31419 10.3024 2.70175 10.3024H3.32095V8.40351H2.70175C2.31419 8.40351 2 8.08932 2 7.70175ZM4.72446 8.40351V10.3024H6.52546L5.00637 8.40351H4.72446ZM6.82972 14.3479C6.6655 14.3479 6.508 14.4131 6.39188 14.5292C6.27576 14.6453 6.21052 14.8028 6.21052 14.967C6.21052 15.1313 6.27576 15.2888 6.39188 15.4049C6.508 15.521 6.6655 15.5862 6.82972 15.5862C6.99394 15.5862 7.15143 15.521 7.26755 15.4049C7.38367 15.2888 7.44891 15.1313 7.44891 14.967C7.44891 14.8028 7.38367 14.6453 7.26755 14.5292C7.15143 14.4131 6.99394 14.3479 6.82972 14.3479Z" fill="#8A8A8A"/>
<path d="M12.0585 11.2384C11.6709 11.2384 11.3567 11.5526 11.3567 11.9401C11.3567 12.3277 11.6709 12.6419 12.0585 12.6419H12.9941C13.3817 12.6419 13.6959 12.3277 13.6959 11.9401C13.6959 11.5526 13.3817 11.2384 12.9941 11.2384H12.0585Z" fill="#8A8A8A"/>
<path d="M12.5547 13.7557L13.0225 14.2235C13.2966 14.4976 13.2966 14.9419 13.0225 15.216C12.7485 15.49 12.3041 15.49 12.0301 15.216L11.5623 14.7481C11.2882 14.4741 11.2882 14.0297 11.5623 13.7557C11.8363 13.4816 12.2806 13.4816 12.5547 13.7557Z" fill="#8A8A8A"/>
<path d="M12.0868 10.0693C12.3609 9.79526 12.3609 9.35093 12.0868 9.07688C11.8128 8.80283 11.3685 8.80283 11.0944 9.07688L10.6266 9.54472C10.3525 9.81877 10.3525 10.2631 10.6266 10.5371C10.9006 10.8112 11.345 10.8112 11.619 10.5371L12.0868 10.0693Z" fill="#8A8A8A"/>
<path d="M19.6456 8.66068C19.874 8.88906 19.874 9.25933 19.6456 9.48771L18.3357 10.7976C18.226 10.9073 18.0772 10.9689 17.9222 10.9689H17.3452L17.9533 11.7798C17.9857 11.8229 18.0118 11.8702 18.0311 11.9202C18.1156 11.7012 18.3281 11.5459 18.5769 11.5459H19.6685C19.7593 11.5459 19.8488 11.567 19.93 11.6076L21.6766 12.4809C21.9655 12.6253 22.0826 12.9766 21.9381 13.2655C21.7937 13.5544 21.4424 13.6714 21.1535 13.527L19.5304 12.7155H18.5769C18.4333 12.7155 18.3019 12.6637 18.2001 12.5779L18.4895 13.7355C18.5105 13.8195 18.5126 13.9071 18.4956 13.992L18.0589 16.1752C17.9956 16.4919 17.6875 16.6973 17.3708 16.634C17.0541 16.5706 16.8487 16.2626 16.9121 15.9459L17.3229 13.8916L16.9468 12.3871L16.1755 11.3587L15.5003 12.2589L15.8695 13.7354C15.9478 14.0487 15.7573 14.3663 15.444 14.4446C15.1306 14.5229 14.8131 14.3324 14.7348 14.0191L14.2982 12.2725C14.2554 12.1017 14.292 11.9207 14.3977 11.7798L15.7076 10.0332C15.8247 9.87704 16.0049 9.79614 16.1862 9.79934H17.6799L18.8186 8.66068C19.047 8.4323 19.4172 8.4323 19.6456 8.66068Z" fill="#8A8A8A"/>
<path fill-rule="evenodd" clip-rule="evenodd" d="M13.7904 7.56229C14.0755 7.27715 14.4622 7.11696 14.8655 7.11696C15.2687 7.11696 15.6555 7.27715 15.9406 7.56229C16.2258 7.84744 16.3859 8.23417 16.3859 8.63743C16.3859 9.04068 16.2258 9.42741 15.9406 9.71256C15.6555 9.9977 15.2687 10.1579 14.8655 10.1579C14.4622 10.1579 14.0755 9.9977 13.7904 9.71256C13.5052 9.42741 13.345 9.04068 13.345 8.63743C13.345 8.23417 13.5052 7.84744 13.7904 7.56229ZM14.8655 8.28655C14.7724 8.28655 14.6832 8.32352 14.6174 8.38932C14.5516 8.45512 14.5146 8.54437 14.5146 8.63743C14.5146 8.73048 14.5516 8.81973 14.6174 8.88553C14.6832 8.95133 14.7724 8.9883 14.8655 8.9883C14.9585 8.9883 15.0478 8.95133 15.1136 8.88553C15.1794 8.81973 15.2164 8.73048 15.2164 8.63743C15.2164 8.54437 15.1794 8.45512 15.1136 8.38932C15.0478 8.32352 14.9585 8.28655 14.8655 8.28655Z" fill="#8A8A8A"/>
</svg>
