<svg width="60" height="60" viewBox="0 0 60 60" fill="none" xmlns="http://www.w3.org/2000/svg">
<g id="toggle icons">
<circle id="Ellipse 41" cx="26.0381" cy="30.1606" r="4.55566" fill="#B3D3EC"/>
<g id="Union">
<path d="M28.8489 7.26996C29.5259 6.74335 30.4741 6.74335 31.1511 7.26996L53.6511 24.77C54.1079 25.1252 54.375 25.6714 54.375 26.25V48.75C54.375 51.1662 52.4162 53.125 50 53.125C48.9645 53.125 48.125 52.2855 48.125 51.25C48.125 50.2145 48.9645 49.375 50 49.375C50.3452 49.375 50.625 49.0952 50.625 48.75V27.167L30 11.1254L9.375 27.167V48.75C9.375 49.0952 9.65482 49.375 10 49.375C11.0355 49.375 11.875 50.2145 11.875 51.25C11.875 52.2855 11.0355 53.125 10 53.125C7.58375 53.125 5.625 51.1662 5.625 48.75V26.25C5.625 25.6714 5.89214 25.1252 6.34886 24.77L28.8489 7.26996Z" fill="#016BBF"/>
<path fill-rule="evenodd" clip-rule="evenodd" d="M20.5791 24.9431C21.9726 23.5496 23.8626 22.7667 25.8333 22.7667C27.804 22.7667 29.694 23.5496 31.0875 24.9431C32.481 26.3366 33.2638 28.2266 33.2638 30.1973C33.2638 32.168 32.481 34.058 31.0875 35.4515C29.694 36.845 27.804 37.6278 25.8333 37.6278C23.8626 37.6278 21.9726 36.845 20.5791 35.4515C19.1856 34.058 18.4027 32.168 18.4027 30.1973C18.4027 28.2266 19.1856 26.3366 20.5791 24.9431ZM25.8333 26.5167C24.8571 26.5167 23.921 26.9045 23.2307 27.5947C22.5405 28.285 22.1527 29.2211 22.1527 30.1973C22.1527 31.1734 22.5405 32.1096 23.2307 32.7998C23.921 33.4901 24.8571 33.8778 25.8333 33.8778C26.8094 33.8778 27.7456 33.4901 28.4358 32.7998C29.1261 32.1096 29.5138 31.1734 29.5138 30.1973C29.5138 29.2211 29.1261 28.285 28.4358 27.5947C27.7456 26.9045 26.8094 26.5167 25.8333 26.5167Z" fill="#016BBF"/>
<path d="M20.453 44.2616C21.1432 43.5714 22.0794 43.1836 23.0556 43.1836H28.6111C29.5873 43.1836 30.5234 43.5714 31.2137 44.2616C31.9039 44.9518 32.2917 45.888 32.2917 46.8642V51.25C32.2917 52.2855 33.1311 53.125 34.1667 53.125C35.2022 53.125 36.0417 52.2855 36.0417 51.25V46.8642C36.0417 44.8934 35.2588 43.0035 33.8653 41.61C32.4718 40.2165 30.5818 39.4336 28.6111 39.4336H23.0556C21.0849 39.4336 19.1949 40.2165 17.8014 41.61C16.4079 43.0035 15.625 44.8934 15.625 46.8642V51.25C15.625 52.2855 16.4645 53.125 17.5 53.125C18.5355 53.125 19.375 52.2855 19.375 51.25V46.8642C19.375 45.888 19.7628 44.9518 20.453 44.2616Z" fill="#016BBF"/>
<path d="M33.7389 24.3578C33.9957 23.3546 35.0172 22.7496 36.0203 23.0064C37.6187 23.4157 39.0354 24.3452 40.047 25.6486C41.0587 26.9519 41.6078 28.5549 41.6078 30.2048C41.6078 31.8547 41.0587 33.4577 40.047 34.761C39.0354 36.0643 37.6187 36.9939 36.0203 37.4031C35.0172 37.66 33.9957 37.055 33.7389 36.0518C33.482 35.0486 34.087 34.0272 35.0902 33.7703C35.8819 33.5676 36.5836 33.1072 37.0847 32.4616C37.5858 31.816 37.8578 31.022 37.8578 30.2048C37.8578 29.3875 37.5858 28.5935 37.0847 27.948C36.5836 27.3024 35.8819 26.842 35.0902 26.6392C34.087 26.3824 33.482 25.3609 33.7389 24.3578Z" fill="#016BBF"/>
<path d="M38.8017 39.7011C37.799 39.4422 36.7764 40.0452 36.5175 41.0478C36.2586 42.0505 36.8616 43.0732 37.8643 43.332C38.6508 43.5351 39.3481 43.9927 39.8474 44.6335C40.3457 45.273 40.6189 46.0591 40.6246 46.8697V51.2498C40.6246 52.2854 41.4641 53.1248 42.4996 53.1248C43.5352 53.1248 44.3746 52.2854 44.3746 51.2498L44.3747 46.8638L44.3746 46.853C44.3652 45.213 43.8134 43.6222 42.8054 42.3285C41.7974 41.0349 40.3896 40.1111 38.8017 39.7011Z" fill="#016BBF"/>
</g>
</g>
</svg>
