<svg width="80" height="80" viewBox="0 0 80 80" fill="none" xmlns="http://www.w3.org/2000/svg">
<path d="M40.1127 16.6721C40.3623 16.6932 40.6042 16.7943 40.795 16.9563L66.2638 38.7867C66.7451 39.2033 66.8035 40.0206 66.3868 40.5015C65.9702 40.9828 65.1529 41.0412 64.6716 40.6246L39.9988 19.4764L15.3259 40.6246C14.8445 41.0412 14.0278 40.9824 13.6107 40.5015C13.194 40.0201 13.2528 39.2034 13.7337 38.7867L23.6262 30.3155V16.7094H28.4775V26.1463L39.2033 16.9556C39.4516 16.7436 39.7883 16.6391 40.1127 16.6721ZM39.9989 21.5234L59.4037 37.8961V65.3969C59.4037 65.9492 58.956 66.3969 58.4037 66.3969H21.5942C21.0419 66.3969 20.5942 65.9492 20.5942 65.3969V37.8961L39.9989 21.5234Z" fill="#016BBF"/>
<path d="M49.1002 42.5342C49.1002 41.982 48.6525 41.5342 48.1002 41.5342H42.8235C42.2712 41.5342 41.8235 41.982 41.8235 42.5342V47.8109C41.8235 48.3632 42.2712 48.8109 42.8235 48.8109H48.1002C48.6525 48.8109 49.1002 48.3632 49.1002 47.8109V42.5342ZM38.185 42.5342C38.185 41.982 37.7373 41.5342 37.185 41.5342H31.9083C31.356 41.5342 30.9083 41.982 30.9083 42.5342V47.8109C30.9083 48.3632 31.356 48.8109 31.9083 48.8109H37.185C37.7373 48.8109 38.185 48.3632 38.185 47.8109V42.5342ZM49.1002 53.4494C49.1002 52.8971 48.6525 52.4494 48.1002 52.4494H42.8235C42.2712 52.4494 41.8235 52.8971 41.8235 53.4494V58.7261C41.8235 59.2784 42.2712 59.7261 42.8235 59.7261H48.1002C48.6525 59.7261 49.1002 59.2784 49.1002 58.7261V53.4494ZM38.185 53.4494C38.185 52.8971 37.7373 52.4494 37.185 52.4494H31.9083C31.356 52.4494 30.9083 52.8971 30.9083 53.4494V58.7261C30.9083 59.2784 31.356 59.7261 31.9083 59.7261H37.185C37.7373 59.7261 38.185 59.2784 38.185 58.7261V53.4494Z" fill="#CEE6F9"/>
</svg>
