<svg width="61" height="60" viewBox="0 0 61 60" fill="none" xmlns="http://www.w3.org/2000/svg">
<path fill-rule="evenodd" clip-rule="evenodd" d="M34.5498 5.74723C32.6456 4.78863 30.4151 4.75051 28.4799 5.64351L9.62386 14.3446C7.11178 15.5038 5.5 18.039 5.5 20.8312V47.8699C5.5 51.8078 8.65697 55 12.5513 55H48.4487C52.343 55 55.5 51.8078 55.5 47.8699V20.7087C55.5 18.0035 53.9861 15.5314 51.5912 14.3258L34.5498 5.74723ZM30.0767 9.18164C30.9563 8.77573 31.9702 8.79305 32.8358 9.22878L49.8771 17.8074C50.9657 18.3554 51.6538 19.4791 51.6538 20.7087V47.8699C51.6538 49.6598 50.2189 51.1109 48.4487 51.1109H40.1148V40.4155C40.1148 35.0458 35.8098 30.6927 30.4994 30.6927C25.1889 30.6927 20.884 35.0458 20.884 40.4155V51.1109H12.5513C10.7811 51.1109 9.34615 49.6598 9.34615 47.8699V20.8312C9.34615 19.562 10.0788 18.4097 11.2206 17.8827L30.0767 9.18164ZM24.7301 51.1109H36.2686V40.4155C36.2686 37.1937 33.6856 34.5818 30.4994 34.5818C27.3131 34.5818 24.7301 37.1937 24.7301 40.4155V51.1109Z" fill="#8A8A8A"/>
</svg>
