<svg width="61" height="60" viewBox="0 0 61 60" fill="none" xmlns="http://www.w3.org/2000/svg">
<g id="toggle icons">
<g id="Union">
<path d="M32.8989 6.4068C33.5028 7.24806 33.3103 8.41954 32.469 9.02337C31.9251 9.41382 31.4843 9.93083 31.1849 10.5297C30.8854 11.1286 30.7363 11.7914 30.7503 12.4609C30.7508 12.487 30.7508 12.5132 30.7503 12.5394C30.7363 13.2089 30.8854 13.8717 31.1849 14.4706C31.1944 14.4897 31.2295 14.5372 31.2841 14.6112C31.6998 15.1746 33.2431 17.2659 33.2505 19.9804C33.274 21.2518 32.9892 22.5101 32.4204 23.6476C31.8488 24.791 31.0073 25.778 29.9689 26.5234C29.1276 27.1272 27.9561 26.9347 27.3523 26.0935C26.7484 25.2522 26.9409 24.0807 27.7822 23.4769C28.3261 23.0865 28.7669 22.5695 29.0663 21.9706C29.3658 21.3717 29.5149 20.7089 29.5009 20.0394L29.5005 20.0001C29.5006 18.7021 29.097 18.1189 28.5917 17.3887C28.3503 17.0399 28.0857 16.6575 27.8308 16.1476C27.265 15.016 26.9802 13.7648 27.0004 12.5001C26.9802 11.2355 27.265 9.98433 27.8308 8.85268C28.4025 7.70932 29.2439 6.72231 30.2824 5.97691C31.1236 5.37308 32.2951 5.56555 32.8989 6.4068Z" fill="#8A8A8A"/>
<path d="M20.3451 8.01415C21.2713 8.47726 21.6468 9.60352 21.1837 10.5297C20.8842 11.1286 20.7351 11.7914 20.7491 12.4609C20.7496 12.487 20.7496 12.5132 20.7491 12.5394C20.7351 13.2089 20.8842 13.8717 21.1837 14.4706C21.1932 14.4897 21.2284 14.5373 21.2831 14.6115C21.6988 15.1748 23.2419 17.2659 23.2493 19.9804C23.2727 21.2518 22.988 22.5101 22.4192 23.6476C21.8475 24.791 21.0061 25.778 19.9676 26.5234C19.1264 27.1272 17.9549 26.9347 17.3511 26.0935C16.7472 25.2522 16.9397 24.0807 17.781 23.4769C18.3249 23.0865 18.7657 22.5695 19.0651 21.9706C19.3646 21.3717 19.5137 20.7089 19.4997 20.0394L19.4993 20.0001C19.4993 18.7021 19.0958 18.1189 18.5905 17.3887C18.3491 17.0399 18.0845 16.6575 17.8296 16.1476C17.2637 15.016 16.979 13.7648 16.9992 12.5001C16.979 11.2355 17.2637 9.98433 17.8296 8.85268C18.2927 7.92647 19.4189 7.55105 20.3451 8.01415Z" fill="#8A8A8A"/>
<path d="M41.1849 10.5297C41.648 9.60352 41.2726 8.47726 40.3464 8.01415C39.4201 7.55105 38.2939 7.92647 37.8308 8.85268C37.265 9.98433 36.9802 11.2355 37.0004 12.5001C36.9802 13.7648 37.265 15.016 37.8308 16.1476C38.0857 16.6575 38.3503 17.0399 38.5917 17.3887C39.097 18.1189 39.5006 18.7021 39.5005 20.0001L39.5009 20.0394C39.5149 20.7089 39.3658 21.3717 39.0663 21.9706C38.7669 22.5695 38.3261 23.0865 37.7822 23.4769C36.9409 24.0807 36.7484 25.2522 37.3523 26.0935C37.9561 26.9347 39.1276 27.1272 39.9689 26.5234C41.0073 25.778 41.8488 24.791 42.4204 23.6476C42.9892 22.5101 43.274 21.2518 43.2505 19.9804C43.2431 17.2659 41.7001 15.1749 41.2844 14.6116C41.2297 14.5375 41.1944 14.4897 41.1849 14.4706C40.8854 13.8717 40.7363 13.2089 40.7503 12.5394C40.7508 12.5132 40.7508 12.487 40.7503 12.4609C40.7363 11.7914 40.8854 11.1286 41.1849 10.5297Z" fill="#8A8A8A"/>
<path fill-rule="evenodd" clip-rule="evenodd" d="M7.02531 25.7234C8.00647 25.3922 9.07031 25.9192 9.40145 26.9003L11.6436 33.5436L15.9323 31.3993C18.5716 30.0796 21.6782 30.0796 24.3175 31.3993L27.6093 33.0452C29.1929 33.837 31.0569 33.837 32.6405 33.0452L35.9323 31.3993C38.5716 30.0796 41.6782 30.0796 44.3175 31.3993L48.6062 33.5436L50.8484 26.9003C51.1795 25.9192 52.2433 25.3922 53.2245 25.7234C54.2056 26.0545 54.7326 27.1183 54.4014 28.0995L45.9639 53.0995C45.7067 53.8617 44.9919 54.3749 44.1874 54.3749H16.0624C15.2579 54.3749 14.5431 53.8617 14.2859 53.0995L5.84835 28.0995C5.51721 27.1183 6.04415 26.0545 7.02531 25.7234ZM47.3955 37.1309L42.6405 34.7534C41.0569 33.9616 39.1929 33.9616 37.6093 34.7534L34.3175 36.3993C31.6782 37.719 28.5716 37.719 25.9323 36.3993L22.6405 34.7534C21.0569 33.9616 19.1929 33.9616 17.6093 34.7534L12.8543 37.1309L17.4085 50.6249H42.8413L47.3955 37.1309Z" fill="#8A8A8A"/>
</g>
</g>
</svg>
