<svg width="24" height="24" viewBox="0 0 24 24" fill="none" xmlns="http://www.w3.org/2000/svg">
<path d="M4.80005 2.25C4.38584 2.25 4.05005 2.58579 4.05005 3C4.05005 3.41421 4.38584 3.75 4.80005 3.75V2.25ZM19.2 3.75C19.6143 3.75 19.95 3.41421 19.95 3C19.95 2.58579 19.6143 2.25 19.2 2.25V3.75ZM19.2 21.75C19.6143 21.75 19.95 21.4142 19.95 21C19.95 20.5858 19.6143 20.25 19.2 20.25V21.75ZM4.80005 20.25C4.38584 20.25 4.05005 20.5858 4.05005 21C4.05005 21.4142 4.38584 21.75 4.80005 21.75V20.25ZM17.55 3V5.7H19.05V3H17.55ZM17.55 5.7C17.55 8.76518 15.0652 11.25 12 11.25V12.75C15.8937 12.75 19.05 9.5936 19.05 5.7H17.55ZM4.95005 3V5.7H6.45005V3H4.95005ZM4.95005 5.7C4.95005 9.5936 8.10644 12.75 12 12.75V11.25C8.93487 11.25 6.45005 8.76518 6.45005 5.7H4.95005ZM12 12.75C15.0652 12.75 17.55 15.2348 17.55 18.3H19.05C19.05 14.4064 15.8937 11.25 12 11.25V12.75ZM17.55 18.3V21H19.05V18.3H17.55ZM12 11.25C8.10644 11.25 4.95005 14.4064 4.95005 18.3H6.45005C6.45005 15.2348 8.93487 12.75 12 12.75V11.25ZM4.95005 18.3V21H6.45005V18.3H4.95005ZM4.80005 3.75H19.2V2.25H4.80005V3.75ZM19.2 20.25H4.80005V21.75H19.2V20.25Z" fill="#2B2B2B"/>
</svg>
