<svg width="61" height="60" viewBox="0 0 61 60" fill="none" xmlns="http://www.w3.org/2000/svg">
<rect x="22.8115" y="11.9152" width="14.3152" height="16.3385" fill="#B3D3EC"/>
<path fill-rule="evenodd" clip-rule="evenodd" d="M35.6455 10.6244V8.74939C35.6455 7.25755 36.2381 5.82681 37.293 4.77191C38.3479 3.71702 39.7787 3.12439 41.2705 3.12439C42.7624 3.12439 44.1931 3.71702 45.248 4.77191C46.3029 5.8268 46.8955 7.25754 46.8955 8.74939V10.6244L55.0205 10.6244C56.056 10.6244 56.8955 11.4639 56.8955 12.4994C56.8955 13.5349 56.056 14.3744 55.0205 14.3744L39.3955 14.3744V32.4994C39.3955 33.5349 38.556 34.3744 37.5205 34.3744C36.485 34.3744 35.6455 33.5349 35.6455 32.4994V29.3744H24.3955V32.4994C24.3955 33.5349 23.556 34.3744 22.5205 34.3744C21.485 34.3744 20.6455 33.5349 20.6455 32.4994V14.3744L5.02051 14.3744C3.98497 14.3744 3.14551 13.5349 3.14551 12.4994C3.14551 11.4639 3.98497 10.6244 5.02051 10.6244L20.6455 10.6244V8.74939C20.6455 7.25755 21.2381 5.82681 22.293 4.77191C23.3479 3.71702 24.7787 3.12439 26.2705 3.12439C27.7624 3.12439 29.1931 3.71702 30.248 4.77191C31.3029 5.82681 31.8955 7.25755 31.8955 8.74939V10.6244L35.6455 10.6244ZM39.9447 7.42356C40.2963 7.07193 40.7732 6.87439 41.2705 6.87439C41.7678 6.87439 42.2447 7.07193 42.5963 7.42356C42.948 7.7752 43.1455 8.25211 43.1455 8.74939V10.6244L39.3955 10.6244V8.74939C39.3955 8.25211 39.5931 7.7752 39.9447 7.42356ZM28.1455 10.6244V8.74939C28.1455 8.25211 27.948 7.7752 27.5963 7.42356C27.2447 7.07193 26.7678 6.87439 26.2705 6.87439C25.7732 6.87439 25.2963 7.07193 24.9447 7.42356C24.5931 7.7752 24.3955 8.25211 24.3955 8.74939V10.6244L28.1455 10.6244ZM24.3955 14.3744H35.6455V18.1244H24.3955V14.3744ZM35.6455 21.8744V25.6244H24.3955V21.8744H35.6455Z" fill="#016BBF"/>
<path d="M19.9814 41.8741C19.3119 41.8601 18.6491 42.0092 18.0502 42.3087C17.4513 42.6081 16.9343 43.0489 16.5439 43.5928C15.7985 44.6313 14.8115 45.4727 13.6681 46.0444C12.5365 46.6102 11.2853 46.895 10.0206 46.8748C8.75598 46.895 7.50483 46.6102 6.37318 46.0444C5.22982 45.4727 4.24282 44.6313 3.49742 43.5928C2.89358 42.7516 3.08605 41.5801 3.92731 40.9763C4.76857 40.3724 5.94005 40.5649 6.54388 41.4061C6.93433 41.9501 7.45133 42.3909 8.05024 42.6903C8.64914 42.9898 9.31193 43.1389 9.98138 43.1249C10.0076 43.1243 10.0337 43.1243 10.0599 43.1249C10.7294 43.1389 11.3922 42.9898 11.9911 42.6903C12.59 42.3909 13.107 41.9501 13.4974 41.4061C14.2428 40.3677 15.2298 39.5262 16.3732 38.9546C17.5048 38.3887 18.756 38.104 20.0206 38.1242C21.2853 38.104 22.5365 38.3887 23.6681 38.9546C24.8115 39.5262 25.7985 40.3677 26.5439 41.4061C26.9343 41.9501 27.4513 42.3909 28.0502 42.6903C28.6491 42.9898 29.3119 43.1389 29.9814 43.1249C30.0076 43.1243 30.0337 43.1243 30.0599 43.1249C30.7294 43.1389 31.3922 42.9898 31.9911 42.6903C32.59 42.3909 33.107 41.9501 33.4974 41.4061C34.2428 40.3677 35.2298 39.5262 36.3732 38.9546C37.5048 38.3887 38.756 38.104 40.0207 38.1242C41.2853 38.104 42.5365 38.3887 43.6681 38.9546C44.8115 39.5262 45.7985 40.3677 46.5439 41.4061C46.9343 41.9501 47.4513 42.3909 48.0502 42.6903C48.6491 42.9898 49.3119 43.1389 49.9814 43.1249C50.0076 43.1243 50.0337 43.1243 50.0599 43.1249C50.7294 43.1389 51.3922 42.9898 51.9911 42.6903C52.59 42.3909 53.107 41.9501 53.4974 41.4061C54.1012 40.5649 55.2727 40.3724 56.114 40.9763C56.9552 41.5801 57.1477 42.7516 56.5439 43.5928C55.7985 44.6313 54.8115 45.4727 53.6681 46.0444C52.5365 46.6102 51.2853 46.895 50.0207 46.8748C48.756 46.895 47.5048 46.6102 46.3732 46.0444C45.2298 45.4727 44.2428 44.6313 43.4974 43.5928C43.107 43.0489 42.59 42.6081 41.9911 42.3087C41.3922 42.0092 40.7294 41.8601 40.0599 41.8741C40.0337 41.8746 40.0076 41.8746 39.9814 41.8741C39.3119 41.8601 38.6491 42.0092 38.0502 42.3087C37.4513 42.6081 36.9343 43.0489 36.5439 43.5928C35.7985 44.6313 34.8115 45.4727 33.6681 46.0444C32.5365 46.6102 31.2853 46.895 30.0207 46.8748C28.756 46.895 27.5048 46.6102 26.3732 46.0444C25.2298 45.4727 24.2428 44.6313 23.4974 43.5928C23.107 43.0489 22.59 42.6081 21.9911 42.3087C21.3922 42.0092 20.7294 41.8601 20.0599 41.8741C20.0337 41.8746 20.0076 41.8746 19.9814 41.8741Z" fill="#016BBF"/>
<path d="M19.9814 51.8741C19.3119 51.8601 18.6491 52.0092 18.0502 52.3087C17.4513 52.6081 16.9343 53.0489 16.5439 53.5928C15.7985 54.6313 14.8115 55.4727 13.6681 56.0444C12.5365 56.6102 11.2853 56.895 10.0206 56.8748C8.75598 56.895 7.50483 56.6102 6.37318 56.0444C5.22982 55.4727 4.24282 54.6313 3.49742 53.5928C2.89358 52.7516 3.08605 51.5801 3.92731 50.9763C4.76857 50.3724 5.94005 50.5649 6.54388 51.4061C6.93433 51.9501 7.45133 52.3909 8.05024 52.6903C8.64914 52.9898 9.31193 53.1389 9.98138 53.1249C10.0076 53.1243 10.0337 53.1243 10.0599 53.1249C10.7294 53.1389 11.3922 52.9898 11.9911 52.6903C12.59 52.3909 13.107 51.9501 13.4974 51.4061C14.2428 50.3677 15.2298 49.5262 16.3732 48.9546C17.5048 48.3887 18.756 48.104 20.0206 48.1242C21.2853 48.104 22.5365 48.3887 23.6681 48.9546C24.8115 49.5262 25.7985 50.3677 26.5439 51.4061C26.9343 51.9501 27.4513 52.3909 28.0502 52.6903C28.6491 52.9898 29.3119 53.1389 29.9814 53.1249C30.0076 53.1243 30.0337 53.1243 30.0599 53.1249C30.7294 53.1389 31.3922 52.9898 31.9911 52.6903C32.59 52.3909 33.107 51.9501 33.4974 51.4061C34.2428 50.3677 35.2298 49.5262 36.3732 48.9546C37.5048 48.3887 38.756 48.104 40.0207 48.1242C41.2853 48.104 42.5365 48.3887 43.6681 48.9546C44.8115 49.5262 45.7985 50.3677 46.5439 51.4061C46.9343 51.9501 47.4513 52.3909 48.0502 52.6903C48.6491 52.9898 49.3119 53.1389 49.9814 53.1249L50.0261 53.1245L50.0599 53.1249C50.7294 53.1389 51.3922 52.9898 51.9911 52.6903C52.59 52.3909 53.107 51.9501 53.4974 51.4061C54.1012 50.5649 55.2727 50.3724 56.114 50.9763C56.9552 51.5801 57.1477 52.7516 56.5439 53.5928C55.7985 54.6313 54.8115 55.4727 53.6681 56.0444C52.5365 56.6102 51.2853 56.895 50.0207 56.8748C48.756 56.895 47.5048 56.6102 46.3732 56.0444C45.2298 55.4727 44.2428 54.6313 43.4974 53.5928C43.107 53.0489 42.59 52.6081 41.9911 52.3087C41.3922 52.0092 40.7294 51.8601 40.0599 51.8741L40.0225 51.8745L39.9814 51.8741C39.3119 51.8601 38.6491 52.0092 38.0502 52.3087C37.4513 52.6081 36.9343 53.0489 36.5439 53.5928C35.7985 54.6313 34.8115 55.4727 33.6681 56.0444C32.5365 56.6102 31.2853 56.895 30.0207 56.8748C28.756 56.895 27.5048 56.6102 26.3732 56.0444C25.2298 55.4727 24.2428 54.6313 23.4974 53.5928C23.107 53.0489 22.59 52.6081 21.9911 52.3087C21.3922 52.0092 20.7294 51.8601 20.0599 51.8741C20.0337 51.8746 20.0076 51.8746 19.9814 51.8741Z" fill="#016BBF"/>
</svg>
