<svg width="61" height="60" viewBox="0 0 61 60" fill="none" xmlns="http://www.w3.org/2000/svg">
<path d="M36.409 35.6268C37.3753 34.4667 39.157 34.4667 40.1233 35.6268L40.9937 36.6716C41.3612 37.1128 41.8738 37.4088 42.4397 37.5065L43.7797 37.7378C45.2676 37.9946 46.1584 39.5376 45.6369 40.9545L45.1672 42.2307C44.9689 42.7696 44.9689 43.3615 45.1672 43.9004L45.6369 45.1766C46.1584 46.5935 45.2676 48.1364 43.7797 48.3933L42.4397 48.6246C41.8738 48.7223 41.3612 49.0182 40.9937 49.4594L40.1233 50.5043C39.157 51.6644 37.3753 51.6644 36.409 50.5043L35.5386 49.4595C35.1711 49.0182 34.6585 48.7223 34.0926 48.6246L32.7526 48.3933C31.2647 48.1364 30.3739 46.5935 30.8954 45.1766L31.3651 43.9004C31.5635 43.3615 31.5635 42.7696 31.3651 42.2307L30.8954 40.9545C30.3739 39.5376 31.2647 37.9946 32.7526 37.7378L34.0926 37.5065C34.6585 37.4088 35.1711 37.1128 35.5386 36.6716L36.409 35.6268Z" fill="#B3D3EC"/>
<path fill-rule="evenodd" clip-rule="evenodd" d="M18.3634 8.36274C20.5165 6.20961 23.4368 5 26.4818 5C29.5267 5 32.447 6.20961 34.6001 8.36274C36.7533 10.5159 37.9629 13.4361 37.9629 16.4811C37.9629 19.5261 36.7533 22.4463 34.6001 24.5995C32.447 26.7526 29.5267 27.9622 26.4818 27.9622C23.4368 27.9622 20.5165 26.7526 18.3634 24.5995C16.2103 22.4463 15.0007 19.5261 15.0007 16.4811C15.0007 13.4361 16.2103 10.5159 18.3634 8.36274ZM26.4818 8.62561C24.3984 8.62561 22.4003 9.45324 20.9271 10.9264C19.4539 12.3996 18.6263 14.3977 18.6263 16.4811C18.6263 18.5645 19.4539 20.5626 20.9271 22.0358C22.4003 23.509 24.3984 24.3366 26.4818 24.3366C28.5652 24.3366 30.5632 23.509 32.0364 22.0358C33.5096 20.5626 34.3373 18.5645 34.3373 16.4811C34.3373 14.3977 33.5096 12.3996 32.0364 10.9264C30.5632 9.45324 28.5652 8.62561 26.4818 8.62561Z" fill="#016BBF"/>
<path d="M21.6476 35.2134C19.5642 35.2134 17.5661 36.0411 16.0929 37.5143C14.6197 38.9874 13.7921 40.9855 13.7921 43.0689V47.9031C13.7921 48.9043 12.9805 49.7159 11.9793 49.7159C10.9781 49.7159 10.1665 48.9043 10.1665 47.9031V43.0689C10.1665 40.0239 11.3761 37.1037 13.5292 34.9506C15.6824 32.7974 18.6026 31.5878 21.6476 31.5878H26.4818C27.4829 31.5878 28.2946 32.3994 28.2946 33.4006C28.2946 34.4018 27.4829 35.2134 26.4818 35.2134H21.6476Z" fill="#016BBF"/>
<path d="M38.468 37.6801C39.4692 37.6801 40.2808 38.4917 40.2808 39.4929V41.3057H42.0936C43.0948 41.3057 43.9064 42.1173 43.9064 43.1185C43.9064 44.1197 43.0948 44.9313 42.0936 44.9313H40.2808V46.7441C40.2808 47.7453 39.4692 48.5569 38.468 48.5569C37.4668 48.5569 36.6552 47.7453 36.6552 46.7441V44.9313H34.8424C33.8412 44.9313 33.0296 44.1197 33.0296 43.1185C33.0296 42.1173 33.8412 41.3057 34.8424 41.3057H36.6552V39.4929C36.6552 38.4917 37.4668 37.6801 38.468 37.6801Z" fill="#016BBF"/>
<path fill-rule="evenodd" clip-rule="evenodd" d="M44.3965 34.165L43.4947 34.0094L42.9091 33.3063C40.4932 30.406 36.0391 30.406 33.6232 33.3063L33.0376 34.0094L32.1359 34.165C28.4162 34.8071 26.1892 38.6644 27.4929 42.2068L27.809 43.0655L27.4929 43.9243C26.1892 47.4666 28.4162 51.324 32.1359 51.966L33.0376 52.1217L33.6232 52.8248C36.0391 55.7251 40.4932 55.7251 42.9091 52.8248L43.4947 52.1217L44.3965 51.966C48.1161 51.324 50.3432 47.4666 49.0394 43.9243L48.7233 43.0655L49.0394 42.2068C50.3432 38.6644 48.1161 34.8071 44.3965 34.165ZM36.409 35.6268C37.3753 34.4667 39.157 34.4667 40.1233 35.6268L40.9937 36.6716C41.3612 37.1128 41.8738 37.4088 42.4397 37.5065L43.7797 37.7378C45.2676 37.9946 46.1584 39.5376 45.6369 40.9545L45.1672 42.2307C44.9689 42.7696 44.9689 43.3615 45.1672 43.9004L45.6369 45.1766C46.1584 46.5935 45.2676 48.1364 43.7797 48.3933L42.4397 48.6246C41.8738 48.7223 41.3612 49.0182 40.9937 49.4594L40.1233 50.5043C39.157 51.6644 37.3753 51.6644 36.409 50.5043L35.5386 49.4595C35.1711 49.0182 34.6585 48.7223 34.0926 48.6246L32.7526 48.3933C31.2647 48.1364 30.3739 46.5935 30.8954 45.1766L31.3651 43.9004C31.5635 43.3615 31.5635 42.7696 31.3651 42.2307L30.8954 40.9545C30.3739 39.5376 31.2647 37.9946 32.7526 37.7378L34.0926 37.5065C34.6585 37.4088 35.1711 37.1128 35.5386 36.6716L36.409 35.6268Z" fill="#016BBF"/>
</svg>
