<svg width="60" height="60" viewBox="0 0 60 60" fill="none" xmlns="http://www.w3.org/2000/svg">
<g id="toggle icons">
<path id="Vector" d="M36 6.25L40 12.9143L30 21.25L26 17.9157L20 12.9143L24 6.25H36Z" fill="#B3D3EC"/>
<g id="Union">
<path fill-rule="evenodd" clip-rule="evenodd" d="M24.0001 4.375C23.3416 4.375 22.7313 4.72045 22.3924 5.28507L18.3924 11.9494C17.9168 12.7418 18.0896 13.7627 18.7995 14.3545L28.7995 22.6902C29.495 23.2699 30.5052 23.2699 31.2006 22.6902L41.2006 14.3545C41.9106 13.7627 42.0834 12.7418 41.6077 11.9494L37.6077 5.28507C37.2689 4.72045 36.6586 4.375 36.0001 4.375H24.0001ZM22.4342 12.5023L25.0615 8.125H34.9387L37.566 12.5023L30.0001 18.809L22.4342 12.5023Z" fill="#016BBF"/>
<path d="M19.8279 25.1903C20.6234 24.5273 20.7307 23.345 20.0677 22.5495C19.4046 21.7541 18.2223 21.6467 17.4269 22.3098C13.2752 25.7704 10.625 30.9309 10.625 36.7053C10.625 47.2007 19.3464 55.625 30 55.625C40.6536 55.625 49.375 47.2007 49.375 36.7053C49.375 30.9309 46.7248 25.7704 42.5731 22.3098C41.7777 21.6467 40.5954 21.7541 39.9323 22.5495C39.2693 23.345 39.3766 24.5273 40.1721 25.1903C43.5213 27.982 45.625 32.1099 45.625 36.7053C45.625 45.037 38.6763 51.875 30 51.875C21.3237 51.875 14.375 45.037 14.375 36.7053C14.375 32.1099 16.4787 27.982 19.8279 25.1903Z" fill="#016BBF"/>
</g>
</g>
</svg>
