<svg width="80" height="80" viewBox="0 0 80 80" fill="none" xmlns="http://www.w3.org/2000/svg">
<path d="M30.0857 59.0249C32.5196 57.8156 37.6552 55.9786 45.9465 56.4965C56.6407 57.1564 67.8215 47.0584 72.1406 42.693C72.9418 41.8918 73.3342 40.8245 73.3342 39.7564C73.3342 38.9401 73.0989 38.1232 72.6119 37.4167C71.9678 36.459 70.9786 35.8149 69.8323 35.6262C68.686 35.4218 67.5549 35.7045 66.6289 36.3959L59.0594 42.0646C58.6828 45.7393 56.0912 47.7333 54.3798 48.3617C54.3325 48.3933 54.3016 48.4091 54.2543 48.4091C54.207 48.4248 54.1761 48.4406 54.1288 48.4406C54.0505 48.4722 53.9875 48.4722 53.8935 48.4879H53.8304L38.3778 49.0374H38.3304C37.6239 49.0374 37.0271 48.4721 37.0113 47.7498C36.9798 46.996 37.5608 46.3834 38.2989 46.3677L53.5471 45.834C54.1281 45.5987 56.1229 44.578 56.4054 41.8924C56.5467 40.6049 55.62 39.364 54.3167 39.2069H54.2851C51.6469 38.8927 47.5949 38.453 43.3085 38.2644C39.5548 38.0757 38.1102 37.0708 36.6972 36.0974C35.4721 35.2495 34.2003 34.3544 31.8763 34.3544C25.5002 34.3544 19.8632 39.3797 17.2557 42.1277L18.465 43.6354L30.0857 59.0249Z" fill="#CEE6F9"/>
<path d="M22.8476 67.1274C23.0678 67.41 23.3971 67.5986 23.7586 67.6302H23.8999C24.2141 67.6302 24.4967 67.5204 24.732 67.3318L28.9719 64.0811C29.5213 63.6256 29.616 62.7935 29.1763 62.2434L16.3777 45.2832L13.3471 41.4988C13.1269 41.2162 12.7818 41.0275 12.4204 41.0118C12.0746 40.9645 11.698 41.09 11.4312 41.3259L7.12823 44.8593C6.59454 45.3306 6.51567 46.1311 6.93959 46.6812L22.8476 67.1274Z" fill="#016BBF"/>
<path d="M58.5625 13.3339C56.5183 13.3339 54.6886 14.3259 53.5479 15.8476C52.4072 14.3259 50.5776 13.3339 48.5333 13.3339C45.066 13.3339 42.2538 16.152 42.2538 19.6351C42.2538 20.9765 42.4683 22.2164 42.8411 23.3662C44.6255 29.0023 50.1258 32.3727 52.8477 33.297C53.2317 33.4323 53.8642 33.4323 54.2482 33.297C56.9701 32.3727 62.4703 29.0023 64.2548 23.3662C64.6275 22.2164 64.8421 20.9765 64.8421 19.6351C64.8421 16.152 62.0299 13.3339 58.5625 13.3339Z" fill="#016BBF"/>
</svg>
