<svg width="60" height="60" viewBox="0 0 60 60" fill="none" xmlns="http://www.w3.org/2000/svg">
<g id="toggle icons">
<path id="Vector 3" d="M45 12.2879V30H15V12.3315C15 11.5012 15.513 10.7573 16.2891 10.4622L29.9091 5.28257C30.3863 5.10109 30.9149 5.10898 31.3864 5.30462L43.7664 10.4406C44.5132 10.7504 45 11.4794 45 12.2879Z" fill="#B3D3EC"/>
<path id="icon" fill-rule="evenodd" clip-rule="evenodd" d="M28.1281 3.7638C29.7685 3.13999 31.5853 3.1671 33.2063 3.83961L42.6345 7.75099C45.2016 8.816 46.875 11.3219 46.875 14.1012V27.9352H52.5C53.5355 27.9352 54.375 28.7746 54.375 29.8102C54.375 30.8457 53.5355 31.6852 52.5 31.6852H51.875V52.9352H52.5C53.5355 52.9352 54.375 53.7746 54.375 54.8102C54.375 55.8457 53.5355 56.6852 52.5 56.6852H7.5C6.46447 56.6852 5.625 55.8457 5.625 54.8102C5.625 53.7746 6.46447 52.9352 7.5 52.9352H8.125V31.6852H7.5C6.46447 31.6852 5.625 30.8457 5.625 29.8102C5.625 28.7746 6.46447 27.9352 7.5 27.9352H13.125V14.2102C13.125 11.356 14.8885 8.79872 17.5562 7.78419L28.1281 3.7638ZM31.7694 7.30336C31.0325 6.99768 30.2067 6.98535 29.4611 7.2689L18.8892 11.2893C17.6766 11.7504 16.875 12.9129 16.875 14.2102V27.9349H23.125V19.8099C23.125 17.3937 25.0838 15.4349 27.5 15.4349H32.5C34.9162 15.4349 36.875 17.3937 36.875 19.8099V27.9349H43.125V14.1012C43.125 12.8379 42.3644 11.6988 41.1975 11.2147L31.7694 7.30336ZM33.125 27.9349V19.8099C33.125 19.4648 32.8452 19.1849 32.5 19.1849H27.5C27.1548 19.1849 26.875 19.4648 26.875 19.8099V27.9349H33.125ZM41.875 52.9352H48.125V31.6852H11.875V52.9352H18.125L18.125 37.3102C18.125 36.8129 18.3225 36.336 18.6742 35.9844C19.0258 35.6327 19.5027 35.4352 20 35.4352H40C41.0355 35.4352 41.875 36.2746 41.875 37.3102V52.9352ZM21.875 52.9352L21.875 39.1852H38.125V52.9352H21.875Z" fill="#016BBF"/>
</g>
</svg>
