<svg width="61" height="60" viewBox="0 0 61 60" fill="none" xmlns="http://www.w3.org/2000/svg">
<g id="toggle icons">
<path id="Vector 153" d="M15.5842 17.7246V52.76L44.8168 51.8844V17.7246H15.5842Z" fill="#B3D3EC"/>
<path id="Union" fill-rule="evenodd" clip-rule="evenodd" d="M13.3979 16.9388C13.4324 16.8286 13.4768 16.7229 13.5301 16.6225C15.1439 13.4709 17.1861 10.7069 19.9269 8.73173C22.7019 6.73195 26.0772 5.625 30.1873 5.625C34.2974 5.625 37.6727 6.73195 40.4477 8.73173C43.1835 10.7033 45.2233 13.4609 46.8357 16.6054C46.9326 16.7836 47.0015 16.9792 47.0364 17.1864C47.0555 17.2991 47.0641 17.4123 47.0625 17.5248V21.8423L47.4734 21.3287C47.8292 20.8839 48.3679 20.625 48.9375 20.625C49.5071 20.625 50.0458 20.8839 50.4016 21.3287L54.1516 26.0162C54.4176 26.3487 54.5625 26.7617 54.5625 27.1875V50.625H55.1875C56.223 50.625 57.0625 51.4645 57.0625 52.5C57.0625 53.5355 56.223 54.375 55.1875 54.375L5.1875 54.375C4.15197 54.375 3.3125 53.5355 3.3125 52.5C3.3125 51.4645 4.15197 50.625 5.1875 50.625H5.8125V27.1875C5.8125 26.7617 5.9574 26.3487 6.22337 26.0162L9.97337 21.3287C10.3292 20.8839 10.8679 20.625 11.4375 20.625C12.0071 20.625 12.5458 20.8839 12.9016 21.3287L13.3125 21.8423V17.5462C13.3073 17.3439 13.335 17.1387 13.3979 16.9388ZM50.8125 27.8452V50.625H47.0625V27.8452L48.9375 25.5015L50.8125 27.8452ZM43.3125 50.625L17.0625 50.625V39.375H22.6875C23.723 39.375 24.5625 38.5355 24.5625 37.5V35C24.5625 33.9645 23.723 33.125 22.6875 33.125C21.652 33.125 20.8125 33.9645 20.8125 35V35.625H17.0625V19.375L43.3125 19.375V50.625ZM13.3125 50.625H9.5625V27.8452L11.4375 25.5015L13.3125 27.8452V50.625ZM41.9098 15.625C40.8373 14.0599 39.6329 12.7669 38.2552 11.7741C36.1708 10.2719 33.5772 9.375 30.1873 9.375C26.7974 9.375 24.2038 10.2719 22.1193 11.7741C20.7416 12.7669 19.5373 14.0599 18.4648 15.625L41.9098 15.625Z" fill="#016BBF"/>
</g>
</svg>
