<svg width="61" height="60" viewBox="0 0 61 60" fill="none" xmlns="http://www.w3.org/2000/svg">
<path d="M11.8199 15.462C11.8199 14.5061 12.5948 13.7312 13.5507 13.7312H30.1661C31.1219 13.7312 31.8968 14.5061 31.8968 15.462C31.8968 16.4179 31.1219 17.1928 30.1661 17.1928H13.5507C12.5948 17.1928 11.8199 16.4179 11.8199 15.462Z" fill="#8A8A8A"/>
<path d="M13.5507 19.9619C12.5948 19.9619 11.8199 20.7368 11.8199 21.6926C11.8199 22.6485 12.5948 23.4234 13.5507 23.4234H26.0122C26.9681 23.4234 27.743 22.6485 27.743 21.6926C27.743 20.7368 26.9681 19.9619 26.0122 19.9619H13.5507Z" fill="#8A8A8A"/>
<path fill-rule="evenodd" clip-rule="evenodd" d="M9.39727 7.5C8.4414 7.5 7.6665 8.27489 7.6665 9.23077V42.4615C7.6665 43.4174 8.4414 44.1923 9.39727 44.1923H15.9744V46.8462C15.9744 47.802 16.7493 48.5769 17.7052 48.5769C18.6611 48.5769 19.436 47.802 19.436 46.8462V31.7308H38.8206V32.0491L38.8203 32.0773V36.8801L38.8206 36.9083V40.007C38.8206 40.9629 39.5955 41.7378 40.5513 41.7378C41.5072 41.7378 42.2821 40.9629 42.2821 40.007V33.808H46.3203C47.8746 33.808 49.1418 35.0373 49.2027 36.5766H45.9508C44.9949 36.5766 44.22 37.3515 44.22 38.3074C44.22 39.2632 44.9949 40.0381 45.9508 40.0381H49.205V45.9234H46.9485C46.252 44.1013 44.4872 42.8072 42.4203 42.8072C40.3533 42.8072 38.5886 44.1013 37.892 45.9234H30.3327C29.6361 44.1013 27.8714 42.8072 25.8044 42.8072C23.128 42.8072 20.9583 44.9769 20.9583 47.6534C20.9583 50.3299 23.128 52.4996 25.8044 52.4996C27.8708 52.4996 29.6351 51.2063 30.3321 49.385H37.8926C38.5896 51.2063 40.3539 52.4996 42.4203 52.4996C44.4866 52.4996 46.2509 51.2063 46.9479 49.385H50.9357C51.8916 49.385 52.6665 48.6101 52.6665 47.6542V36.6926C52.6665 33.1878 49.8252 30.3465 46.3203 30.3465H42.2821V30C42.2821 29.0441 41.5072 28.2692 40.5513 28.2692H36.0511V9.23077C36.0511 8.27489 35.2762 7.5 34.3203 7.5H9.39727ZM32.5896 28.2692V10.9615H11.128V40.7308H15.9744V30C15.9744 29.0441 16.7493 28.2692 17.7052 28.2692H32.5896ZM24.4198 47.6534C24.4198 46.8887 25.0397 46.2688 25.8044 46.2688C26.5691 46.2688 27.189 46.8887 27.189 47.6534C27.189 48.4181 26.5691 49.038 25.8044 49.038C25.0397 49.038 24.4198 48.4181 24.4198 47.6534ZM42.4203 46.2688C41.6556 46.2688 41.0356 46.8887 41.0356 47.6534C41.0356 48.4181 41.6556 49.038 42.4203 49.038C43.185 49.038 43.8049 48.4181 43.8049 47.6534C43.8049 46.8887 43.185 46.2688 42.4203 46.2688Z" fill="#8A8A8A"/>
</svg>
