<svg width="61" height="60" viewBox="0 0 61 60" fill="none" xmlns="http://www.w3.org/2000/svg">
<path fill-rule="evenodd" clip-rule="evenodd" d="M15.1496 32.5495C16.4929 32.1953 19.2509 30.8684 22.0301 26.8879C22.1198 19.8948 28.1404 14.4328 35.1294 15.0472L48.8907 16.257C52.7725 16.5982 55.75 19.849 55.75 23.7457C55.75 30.5957 50.197 36.1486 43.3471 36.1486H28.9858C28.3398 36.1486 27.7145 36.0606 27.121 35.8959C22.2683 41.5158 16.941 43.1256 14.4709 43.1256C14.1707 43.1256 13.8882 43.0497 13.6415 42.9161C12.0648 44.483 9.89258 45.4511 7.49419 45.4511C6.5309 45.4511 5.75 44.6703 5.75 43.707V29.7535C5.75 28.7902 6.5309 28.0093 7.49419 28.0093C10.7958 28.0093 13.6689 29.844 15.1496 32.5495ZM16.1749 35.8874C17.9368 35.3954 20.2232 34.1596 22.5249 31.7761C22.8755 32.652 23.3991 33.44 24.0534 34.0978C20.8681 37.5931 17.6723 38.9882 15.7838 39.4464C16.0637 38.5916 16.2151 37.6786 16.2151 36.7302C16.2151 36.4459 16.2015 36.1647 16.1749 35.8874ZM25.5174 29.1919V27.0464C25.5174 22.0247 29.8215 18.0824 34.8239 18.5222L48.5852 19.732C50.6657 19.9149 52.2616 21.6572 52.2616 23.7457C52.2616 28.6691 48.2705 32.6602 43.3471 32.6602H28.9858C27.0703 32.6602 25.5174 31.1074 25.5174 29.1919ZM12.7267 36.7302C12.7267 39.0085 11.2707 40.9467 9.23837 41.665V31.7954C11.2707 32.5137 12.7267 34.4519 12.7267 36.7302Z" fill="#016BBF"/>
<path fill-rule="evenodd" clip-rule="evenodd" d="M52.2618 23.7454C52.2618 21.6568 50.6659 19.9145 48.5854 19.7316L34.824 18.5218C29.8216 18.082 25.5176 22.0243 25.5176 27.046V29.1916C25.5176 31.1071 27.0704 32.6599 28.9859 32.6599H43.3473C48.2706 32.6599 52.2618 28.6687 52.2618 23.7454Z" fill="#B3D3EC"/>
</svg>
