<svg width="61" height="60" viewBox="0 0 61 60" fill="none" xmlns="http://www.w3.org/2000/svg">
<g id="toggle icons">
<rect id="Rectangle 1234" x="17.2441" y="32.2046" width="8.79211" height="12.464" fill="#B3D3EC"/>
<rect id="Rectangle 1235" x="34.8945" y="32.2046" width="8.79211" height="12.464" fill="#B3D3EC"/>
<g id="Union">
<path d="M18.7837 20.9914C18.7837 14.6591 23.917 9.52586 30.2492 9.52586C36.5815 9.52586 41.7148 14.6591 41.7148 20.9914H44.9906C44.9906 12.8499 38.3907 6.25 30.2492 6.25C22.1078 6.25 15.5079 12.8499 15.5079 20.9914H18.7837Z" fill="#016BBF"/>
<path d="M30.2492 16.0776C27.5354 16.0776 25.3354 18.2776 25.3354 20.9914H22.0596C22.0596 16.4684 25.7262 12.8017 30.2492 12.8017C34.7723 12.8017 38.4389 16.4684 38.4389 20.9914H35.163C35.163 18.2776 32.963 16.0776 30.2492 16.0776Z" fill="#016BBF"/>
<path fill-rule="evenodd" clip-rule="evenodd" d="M14.9619 34.0948C14.9619 31.6825 16.9174 29.727 19.3297 29.727H23.6975C26.1098 29.727 28.0653 31.6825 28.0653 34.0948V42.8305C28.0653 45.2427 26.1098 47.1983 23.6975 47.1983H19.3297C16.9174 47.1983 14.9619 45.2427 14.9619 42.8305V34.0948ZM19.3297 33.0029H23.6975C24.3006 33.0029 24.7895 33.4918 24.7895 34.0948V42.8305C24.7895 43.4335 24.3006 43.9224 23.6975 43.9224H19.3297C18.7266 43.9224 18.2377 43.4335 18.2377 42.8305V34.0948C18.2377 33.4918 18.7266 33.0029 19.3297 33.0029Z" fill="#016BBF"/>
<path fill-rule="evenodd" clip-rule="evenodd" d="M32.4331 34.0948C32.4331 31.6825 34.3887 29.727 36.801 29.727H41.1688C43.5811 29.727 45.5366 31.6825 45.5366 34.0948V42.8305C45.5366 45.2427 43.5811 47.1983 41.1688 47.1983H36.801C34.3887 47.1983 32.4331 45.2427 32.4331 42.8305V34.0948ZM36.801 33.0029H41.1688C41.7718 33.0029 42.2607 33.4918 42.2607 34.0948V42.8305C42.2607 43.4335 41.7718 43.9224 41.1688 43.9224H36.801C36.1979 43.9224 35.709 43.4335 35.709 42.8305V34.0948C35.709 33.4918 36.1979 33.0029 36.801 33.0029Z" fill="#016BBF"/>
<path d="M33.5251 23.1753C33.5251 24.9845 32.0584 26.4511 30.2492 26.4511C28.44 26.4511 26.9734 24.9845 26.9734 23.1753C26.9734 21.3661 28.44 19.8994 30.2492 19.8994C32.0584 19.8994 33.5251 21.3661 33.5251 23.1753Z" fill="#016BBF"/>
<path d="M36.801 23.1753C36.801 24.3686 36.4819 25.4875 35.9245 26.4511H43.3527C46.368 26.4511 48.8125 28.8956 48.8125 31.9109V45.0144C48.8125 48.0297 46.368 50.4741 43.3527 50.4741H17.1458C14.1304 50.4741 11.686 48.0297 11.686 45.0144V31.9109C11.686 28.8956 14.1304 26.4511 17.1458 26.4511H24.574C24.0166 25.4875 23.6975 24.3686 23.6975 23.1753H17.1458C12.3212 23.1753 8.41016 27.0864 8.41016 31.9109V45.0144C8.41016 49.8389 12.3212 53.75 17.1458 53.75H43.3527C48.1772 53.75 52.0883 49.8389 52.0883 45.0144V31.9109C52.0883 27.0864 48.1772 23.1753 43.3527 23.1753H36.801Z" fill="#016BBF"/>
</g>
</g>
</svg>
