<svg width="61" height="61" viewBox="0 0 61 61" fill="none" xmlns="http://www.w3.org/2000/svg">
<path d="M19.0346 21.9728C19.0346 15.6406 24.1679 10.5073 30.5001 10.5073C36.8323 10.5073 41.9656 15.6406 41.9656 21.9728H45.2415C45.2415 13.8314 38.6415 7.23145 30.5001 7.23145C22.3587 7.23145 15.7587 13.8314 15.7587 21.9728H19.0346Z" fill="#8A8A8A"/>
<path d="M30.5001 17.059C27.7863 17.059 25.5863 19.259 25.5863 21.9728H22.3104C22.3104 17.4498 25.9771 13.7832 30.5001 13.7832C35.0231 13.7832 38.6897 17.4498 38.6897 21.9728H35.4139C35.4139 19.259 33.2139 17.059 30.5001 17.059Z" fill="#8A8A8A"/>
<path fill-rule="evenodd" clip-rule="evenodd" d="M15.2127 35.0763C15.2127 32.664 17.1683 30.7085 19.5806 30.7085H23.9484C26.3606 30.7085 28.3162 32.664 28.3162 35.0763V43.8119C28.3162 46.2242 26.3606 48.1797 23.9484 48.1797H19.5806C17.1683 48.1797 15.2127 46.2242 15.2127 43.8119V35.0763ZM19.5806 33.9843H23.9484C24.5514 33.9843 25.0403 34.4732 25.0403 35.0763V43.8119C25.0403 44.415 24.5514 44.9039 23.9484 44.9039H19.5806C18.9775 44.9039 18.4886 44.415 18.4886 43.8119V35.0763C18.4886 34.4732 18.9775 33.9843 19.5806 33.9843Z" fill="#8A8A8A"/>
<path fill-rule="evenodd" clip-rule="evenodd" d="M32.684 35.0763C32.684 32.664 34.6395 30.7085 37.0518 30.7085H41.4196C43.8319 30.7085 45.7874 32.664 45.7874 35.0763V43.8119C45.7874 46.2242 43.8319 48.1797 41.4196 48.1797H37.0518C34.6395 48.1797 32.684 46.2242 32.684 43.8119V35.0763ZM37.0518 33.9843H41.4196C42.0227 33.9843 42.5116 34.4732 42.5116 35.0763V43.8119C42.5116 44.415 42.0227 44.9039 41.4196 44.9039H37.0518C36.4487 44.9039 35.9599 44.415 35.9599 43.8119V35.0763C35.9599 34.4732 36.4487 33.9843 37.0518 33.9843Z" fill="#8A8A8A"/>
<path d="M33.776 24.1567C33.776 25.9659 32.3093 27.4326 30.5001 27.4326C28.6909 27.4326 27.2242 25.9659 27.2242 24.1567C27.2242 22.3475 28.6909 20.8809 30.5001 20.8809C32.3093 20.8809 33.776 22.3475 33.776 24.1567Z" fill="#8A8A8A"/>
<path d="M37.0518 24.1567C37.0518 25.3501 36.7328 26.4689 36.1753 27.4326H43.6035C46.6189 27.4326 49.0633 29.877 49.0633 32.8924V45.9958C49.0633 49.0112 46.6189 51.4556 43.6035 51.4556H17.3966C14.3813 51.4556 11.9369 49.0112 11.9369 45.9958V32.8924C11.9369 29.877 14.3813 27.4326 17.3966 27.4326H24.8249C24.2674 26.4689 23.9484 25.3501 23.9484 24.1567H17.3966C12.5721 24.1567 8.66101 28.0678 8.66101 32.8924V45.9958C8.66101 50.8204 12.5721 54.7314 17.3966 54.7314H43.6035C48.4281 54.7314 52.3392 50.8204 52.3392 45.9958V32.8924C52.3392 28.0678 48.4281 24.1567 43.6035 24.1567H37.0518Z" fill="#8A8A8A"/>
</svg>
