<svg width="61" height="61" viewBox="0 0 61 61" fill="none" xmlns="http://www.w3.org/2000/svg">
<path fill-rule="evenodd" clip-rule="evenodd" d="M34.6167 20.9814C34.6167 25.1236 31.214 28.4814 27.0167 28.4814C22.8193 28.4814 19.4167 25.1236 19.4167 20.9814C19.4167 16.8393 22.8193 13.4814 27.0167 13.4814C31.214 13.4814 34.6167 16.8393 34.6167 20.9814ZM30.8167 20.9814C30.8167 23.0525 29.1153 24.7314 27.0167 24.7314C24.918 24.7314 23.2167 23.0525 23.2167 20.9814C23.2167 18.9104 24.918 17.2314 27.0167 17.2314C29.1153 17.2314 30.8167 18.9104 30.8167 20.9814Z" fill="#8A8A8A"/>
<path fill-rule="evenodd" clip-rule="evenodd" d="M42.2167 20.9814C42.2167 29.2657 35.4114 35.9814 27.0167 35.9814C18.6219 35.9814 11.8167 29.2657 11.8167 20.9814C11.8167 12.6972 18.6219 5.98145 27.0167 5.98145C35.4114 5.98145 42.2167 12.6972 42.2167 20.9814ZM38.4167 20.9814C38.4167 27.1946 33.3127 32.2314 27.0167 32.2314C20.7206 32.2314 15.6167 27.1946 15.6167 20.9814C15.6167 14.7682 20.7206 9.73145 27.0167 9.73145C33.3127 9.73145 38.4167 14.7682 38.4167 20.9814Z" fill="#8A8A8A"/>
<path fill-rule="evenodd" clip-rule="evenodd" d="M47.2833 44.1064V40.9814C47.2833 38.22 45.0149 35.9814 42.2167 35.9814H27.0167H11.8167C9.01842 35.9814 6.75 38.22 6.75 40.9814V50.9814C6.75 53.7429 9.01842 55.9814 11.8167 55.9814H42.2167C45.0149 55.9814 47.2833 53.7429 47.2833 50.9814V47.8564C51.1309 47.8564 54.25 44.7784 54.25 40.9814V33.4814C54.25 31.0652 52.2651 29.1064 49.8167 29.1064C48.7673 29.1064 47.9167 29.9459 47.9167 30.9814C47.9167 32.017 48.7673 32.8564 49.8167 32.8564C50.1664 32.8564 50.45 33.1363 50.45 33.4814V40.9814C50.45 42.7073 49.0322 44.1064 47.2833 44.1064ZM43.4833 40.9814C43.4833 40.2911 42.9162 39.7314 42.2167 39.7314H11.8167C11.1171 39.7314 10.55 40.2911 10.55 40.9814V50.9814C10.55 51.6718 11.1171 52.2314 11.8167 52.2314H42.2167C42.9162 52.2314 43.4833 51.6718 43.4833 50.9814V40.9814Z" fill="#8A8A8A"/>
</svg>
