<svg width="61" height="60" viewBox="0 0 61 60" fill="none" xmlns="http://www.w3.org/2000/svg">
<g id="toggle icons">
<ellipse id="Ellipse 20" cx="27.574" cy="20.0168" rx="4.49005" ry="4.49005" fill="#B3D3EC"/>
<g id="Union">
<path fill-rule="evenodd" clip-rule="evenodd" d="M34.8667 20C34.8667 24.1421 31.464 27.5 27.2667 27.5C23.0693 27.5 19.6667 24.1421 19.6667 20C19.6667 15.8579 23.0693 12.5 27.2667 12.5C31.464 12.5 34.8667 15.8579 34.8667 20ZM31.0667 20C31.0667 22.0711 29.3653 23.75 27.2667 23.75C25.168 23.75 23.4667 22.0711 23.4667 20C23.4667 17.9289 25.168 16.25 27.2667 16.25C29.3653 16.25 31.0667 17.9289 31.0667 20Z" fill="#016BBF"/>
<path fill-rule="evenodd" clip-rule="evenodd" d="M42.4667 20C42.4667 28.2843 35.6614 35 27.2667 35C18.8719 35 12.0667 28.2843 12.0667 20C12.0667 11.7157 18.8719 5 27.2667 5C35.6614 5 42.4667 11.7157 42.4667 20ZM38.6667 20C38.6667 26.2132 33.5627 31.25 27.2667 31.25C20.9706 31.25 15.8667 26.2132 15.8667 20C15.8667 13.7868 20.9706 8.75 27.2667 8.75C33.5627 8.75 38.6667 13.7868 38.6667 20Z" fill="#016BBF"/>
<path fill-rule="evenodd" clip-rule="evenodd" d="M47.5333 43.125V40C47.5333 37.2386 45.2649 35 42.4667 35H27.2667H12.0667C9.26842 35 7 37.2386 7 40V50C7 52.7614 9.26842 55 12.0667 55H42.4667C45.2649 55 47.5333 52.7614 47.5333 50V46.875C51.3809 46.875 54.5 43.797 54.5 40V32.5C54.5 30.0838 52.5151 28.125 50.0667 28.125C49.0173 28.125 48.1667 28.9645 48.1667 30C48.1667 31.0355 49.0173 31.875 50.0667 31.875C50.4164 31.875 50.7 32.1548 50.7 32.5V40C50.7 41.7259 49.2822 43.125 47.5333 43.125ZM43.7333 40C43.7333 39.3096 43.1662 38.75 42.4667 38.75H12.0667C11.3671 38.75 10.8 39.3096 10.8 40V50C10.8 50.6904 11.3671 51.25 12.0667 51.25H42.4667C43.1662 51.25 43.7333 50.6904 43.7333 50V40Z" fill="#016BBF"/>
</g>
</g>
</svg>
