<svg width="80" height="80" viewBox="0 0 80 80" fill="none" xmlns="http://www.w3.org/2000/svg">
<path d="M35.3298 42.3203C32.4069 41.7795 29.673 43.3472 28.7257 46.1532C28.5877 46.5647 28.3726 46.7276 27.9934 46.8196C27.3283 46.9812 26.6606 47.1441 26.0117 47.3604C25.5591 47.5108 25.3241 47.4437 25.0631 46.9937C23.0428 43.5126 19.3317 41.772 15.2414 42.3265C11.549 42.8313 8.26189 45.7989 7.2934 49.4926C7.19767 49.8543 7.23 50.2522 7 50.5767V53.1552C7.18276 53.236 7.11562 53.4125 7.14298 53.548C8.04433 58.0722 11.9568 61.4252 16.4586 61.5271C21.6019 61.644 25.7133 58.0535 26.4281 52.8543C26.5027 52.306 26.1596 51.5974 26.6246 51.2468C27.0895 50.8962 27.7597 50.9086 28.3241 50.7097C28.7916 50.5468 29.0427 50.6065 29.3324 51.0827C29.9736 52.1351 30.9406 52.9496 32.0867 53.4026C33.2328 53.8556 34.4954 53.9224 35.6828 53.5928C38.1469 52.9202 39.8937 50.7582 39.9857 48.2692C40.0876 45.3824 38.0935 42.8325 35.3298 42.3203ZM22.4697 52.9015C22.0532 55.572 19.5729 57.6632 16.7992 57.6644C14.1089 57.6644 11.6709 55.7859 11.0269 53.2123C10.4052 50.7122 11.5988 48.0865 13.9497 46.7997C15.0822 46.1672 16.3942 45.9329 17.6757 46.1344C18.9571 46.3359 20.1339 46.9615 21.0176 47.9112C21.6106 48.5415 21.6093 48.5502 20.8062 48.7702C19.3831 49.1598 17.9588 49.5473 16.5332 49.9327C15.3123 50.2659 14.6434 51.2406 14.9058 52.2948C15.1905 53.4436 16.2398 54.0006 17.5265 53.6624C19.0184 53.2695 20.5103 52.8804 21.9823 52.4391C22.5269 52.2799 22.5368 52.4627 22.4697 52.9015Z" fill="#016BBF"/>
<path d="M68.3566 43.6877C66.1436 42.3313 63.7566 41.8639 61.1955 42.4444C60.9792 42.4942 60.7368 42.6732 60.5553 42.2915C59.9336 40.9998 59.2822 39.728 58.5835 38.3343C60.1338 38.3343 61.5673 38.3343 63.0032 38.3343C64.2464 38.3343 65.1167 37.5312 65.1167 36.4011C65.1167 35.2709 64.2464 34.474 63.0032 34.4703C61.0911 34.4703 59.1802 34.4492 57.2681 34.484C56.7833 34.4927 56.5657 34.3261 56.3581 33.9083C54.4402 30.0294 52.5073 26.1613 50.5596 22.3039C49.4618 20.132 47.6591 19.0379 45.2273 19.0106C43.5315 18.9919 41.8345 19.0019 40.1375 19.0106C38.934 19.0106 38.0725 19.8125 38.0588 20.9152C38.0439 22.0428 38.9179 22.8684 40.1499 22.8733C41.7388 22.8795 43.3301 22.9081 44.9178 22.8634C46.0441 22.8323 46.7503 23.2935 47.2513 24.3031C50.468 30.7853 53.7062 37.2564 56.966 43.7163C57.1823 44.1464 57.1711 44.3715 56.7845 44.7109C53.5521 47.589 52.6246 52.046 54.4136 55.91C55.2816 57.7957 56.7345 59.3511 58.5568 60.3453C60.379 61.3395 62.4733 61.7195 64.5287 61.4288C66.5404 61.1538 68.4172 60.2615 69.9005 58.8749C71.3837 57.4883 72.4002 55.6758 72.8099 53.6871C73.6056 49.8691 71.8128 45.8012 68.3566 43.6877ZM64.4541 57.53C61.8669 58.0496 59.3568 56.9083 58.1135 54.663C57.5134 53.5844 57.2783 52.3405 57.4435 51.1173C57.6086 49.894 58.1651 48.757 59.0298 47.8762C59.8404 49.4998 60.6249 51.0937 61.4292 52.6763C61.8383 53.4782 62.6228 53.8922 63.4334 53.7853C63.8293 53.7305 64.1989 53.5555 64.4924 53.2841C64.7858 53.0127 64.989 52.6578 65.0744 52.2673C65.1926 51.7588 65.0645 51.2901 64.8382 50.8388C64.1383 49.4414 63.452 48.0378 62.7322 46.6516C62.5096 46.2227 62.5295 46.0834 63.0591 46.0648C66.0268 45.9566 68.7395 48.2952 69.0913 51.2951C69.4221 54.1048 67.2998 56.9568 64.4541 57.5275V57.53Z" fill="#016BBF"/>
<path d="M22.1907 30.6C25.2176 30.6 28.2457 30.6 31.2751 30.6C31.6162 30.6063 31.9536 30.5281 32.2572 30.3725C34.454 29.2622 36.6633 28.1756 38.8613 27.0654C39.2975 26.8352 39.7842 26.7177 40.2774 26.7235C41.3963 26.7409 42.5152 26.7434 43.6341 26.7235C43.9996 26.7161 44.2023 26.8143 44.3739 27.1624C46.2628 30.975 48.1649 34.7855 50.0804 38.594C50.2581 38.9483 50.2295 39.0826 49.8665 39.2902C47.2806 40.7709 45.9031 43.0026 45.7961 46.0037C45.7613 46.9735 45.2454 47.6498 44.3764 47.9245C44.0108 48.0414 43.8679 48.0327 43.843 47.5665C43.5944 43.051 40.4974 39.4058 36.0653 38.5306C32.7321 37.8729 29.8242 38.8302 27.4074 41.2073C27.053 41.5567 26.9038 41.5368 26.5744 41.2073C24.4609 39.0664 22.3262 36.9517 20.209 34.817C20.1035 34.7005 19.9736 34.6088 19.8285 34.5484C19.6834 34.488 19.5268 34.4604 19.3698 34.4677C17.3085 34.4826 15.246 34.4776 13.1847 34.4751C11.8805 34.4751 11.0015 33.6932 10.999 32.5456C10.9965 31.3981 11.8768 30.6112 13.1759 30.6099C16.1788 30.6016 19.1837 30.5983 22.1907 30.6Z" fill="#CEE6F9"/>
<path d="M64.9314 28.7614C64.9324 30.0926 64.7264 31.4159 64.321 32.6838C64.3011 32.7472 64.2799 32.8082 64.26 32.8716H64.035C61.3415 32.8449 58.7252 31.9681 56.5594 30.3664C56.2308 30.1226 55.9637 29.8054 55.7794 29.4401C55.5951 29.0748 55.4988 28.6714 55.4981 28.2623C55.4973 27.8531 55.5923 27.4494 55.7752 27.0834C55.9582 26.7174 56.2242 26.3993 56.5519 26.1543C58.6743 24.5832 61.231 23.7076 63.8709 23.6479C64.5724 25.2613 64.9334 27.0021 64.9314 28.7614Z" fill="#016BBF"/>
</svg>
