<svg width="61" height="60" viewBox="0 0 61 60" fill="none" xmlns="http://www.w3.org/2000/svg">
<path fill-rule="evenodd" clip-rule="evenodd" d="M6.99419 12.5C6.0309 12.5 5.25 13.2809 5.25 14.2442V39.8256C5.25 40.7889 6.0309 41.5698 6.99419 41.5698C7.95747 41.5698 8.73837 40.7889 8.73837 39.8256V15.9884H37.8081V30.5233C37.8081 31.4865 38.589 32.2674 39.5523 32.2674C40.5156 32.2674 41.2965 31.4865 41.2965 30.5233V20.6395H46.5291C49.4189 20.6395 51.7616 22.9822 51.7616 25.8721V26.4535H46.5291C45.5658 26.4535 44.7849 27.2344 44.7849 28.1977C44.7849 29.161 45.5658 29.9419 46.5291 29.9419H51.7616V39.8256C51.7616 40.1467 51.5013 40.407 51.1802 40.407H48.0325C47.2733 37.7227 44.8053 35.7558 41.8779 35.7558C38.9505 35.7558 36.4825 37.7227 35.7233 40.407H24.7767C24.0175 37.7227 21.5495 35.7558 18.6221 35.7558C15.09 35.7558 12.2267 38.6191 12.2267 42.1512C12.2267 45.6832 15.09 48.5465 18.6221 48.5465C21.5495 48.5465 24.0175 46.5797 24.7767 43.8954H35.7233C36.4825 46.5797 38.9505 48.5465 41.8779 48.5465C44.8053 48.5465 47.2733 46.5797 48.0325 43.8954H51.1802C53.4279 43.8954 55.25 42.0733 55.25 39.8256V25.8721C55.25 21.0557 51.3455 17.1512 46.5291 17.1512H41.2965V14.2442C41.2965 13.2809 40.5156 12.5 39.5523 12.5H6.99419ZM38.9709 42.1512C38.9709 43.7566 40.2724 45.0581 41.8779 45.0581C43.4834 45.0581 44.7849 43.7566 44.7849 42.1512C44.7849 40.5457 43.4834 39.2442 41.8779 39.2442C40.2724 39.2442 38.9709 40.5457 38.9709 42.1512ZM18.6221 45.0581C20.2276 45.0581 21.5291 43.7566 21.5291 42.1512C21.5291 40.5457 20.2276 39.2442 18.6221 39.2442C17.0166 39.2442 15.7151 40.5457 15.7151 42.1512C15.7151 43.7566 17.0166 45.0581 18.6221 45.0581Z" fill="#8A8A8A"/>
</svg>
