<svg width="61" height="60" viewBox="0 0 61 60" fill="none" xmlns="http://www.w3.org/2000/svg">
<path fill-rule="evenodd" clip-rule="evenodd" d="M22.2817 13.8052C23.849 12.2379 25.9747 11.3574 28.1911 11.3574C30.4076 11.3574 32.5333 12.2379 34.1005 13.8052C35.6678 15.3724 36.5483 17.4981 36.5483 19.7146C36.5483 21.931 35.6678 24.0567 34.1005 25.624C32.5333 27.1912 30.4076 28.0717 28.1911 28.0717C25.9747 28.0717 23.849 27.1912 22.2817 25.624C20.7145 24.0567 19.834 21.931 19.834 19.7146C19.834 17.4981 20.7145 15.3724 22.2817 13.8052Z" fill="#B3D3EC"/>
<path fill-rule="evenodd" clip-rule="evenodd" d="M28.1911 7.5C24.9517 7.5 21.8449 8.78686 19.5543 11.0775C17.2637 13.3681 15.9768 16.4749 15.9768 19.7143C15.9768 22.9537 17.2637 26.0605 19.5543 28.3511C21.8449 30.6417 24.9517 31.9286 28.1911 31.9286C31.4306 31.9286 34.5373 30.6417 36.8279 28.3511C39.1186 26.0605 40.4054 22.9537 40.4054 19.7143C40.4054 16.4749 39.1186 13.3681 36.8279 11.0775C34.5373 8.78686 31.4306 7.5 28.1911 7.5ZM22.2817 13.8049C23.849 12.2376 25.9747 11.3571 28.1911 11.3571C30.4076 11.3571 32.5333 12.2376 34.1005 13.8049C35.6678 15.3722 36.5483 17.4978 36.5483 19.7143C36.5483 21.9307 35.6678 24.0564 34.1005 25.6237C32.5333 27.1909 30.4076 28.0714 28.1911 28.0714C25.9747 28.0714 23.849 27.1909 22.2817 25.6237C20.7145 24.0564 19.834 21.9307 19.834 19.7143C19.834 17.4978 20.7145 15.3722 22.2817 13.8049Z" fill="#016BBF"/>
<path d="M50.6911 30C50.6911 28.9349 49.8277 28.0714 48.7626 28.0714C47.6974 28.0714 46.834 28.9349 46.834 30V37.9794C46.834 38.8466 46.4794 39.5716 46.0321 39.9812C45.6289 40.3503 45.1607 40.478 44.599 40.2835C43.6366 39.9503 42.6824 39.4631 41.8617 38.7601L41.8417 38.7432C39.5353 36.8212 36.4712 35.7857 33.334 35.7857H23.0483C19.911 35.7857 16.8469 36.8212 14.5405 38.7432C12.2239 40.6738 10.834 43.3757 10.834 46.2857V50.5714C10.834 51.6365 11.6974 52.5 12.7626 52.5C13.8277 52.5 14.6911 51.6365 14.6911 50.5714V46.2857C14.6911 44.6492 15.4686 42.9907 17.0098 41.7064C18.5613 40.4135 20.7296 39.6429 23.0483 39.6429H33.334C35.6481 39.6429 37.8126 40.4105 39.3634 41.6989C40.6311 42.7818 42.0369 43.4783 43.3372 43.9284C45.3596 44.6286 47.2887 44.0603 48.6367 42.8261C49.9405 41.6324 50.6911 39.8468 50.6911 37.9794V30Z" fill="#016BBF"/>
<path d="M45.5483 48C45.5483 46.9349 44.6848 46.0714 43.6197 46.0714C42.5546 46.0714 41.6911 46.9349 41.6911 48V50.5714C41.6911 51.6365 42.5546 52.5 43.6197 52.5C44.6848 52.5 45.5483 51.6365 45.5483 50.5714V48Z" fill="#016BBF"/>
</svg>
