<svg width="61" height="60" viewBox="0 0 61 60" fill="none" xmlns="http://www.w3.org/2000/svg">
<path fill-rule="evenodd" clip-rule="evenodd" d="M11.0264 24.6878L23.9486 25.7333L24.4343 19.7301L13.9133 18.8789L11.0264 24.6878ZM28.2037 20.0351L27.718 26.0383L33.639 26.5173L29.3222 20.1256L28.2037 20.0351Z" fill="#B3D3EC"/>
<path fill-rule="evenodd" clip-rule="evenodd" d="M11.0962 16.0494C11.4403 15.357 12.1713 14.9438 12.942 15.0062L30.5327 16.4294C31.1052 16.4757 31.6257 16.7798 31.9472 17.2558L38.4659 26.9078L39.5146 26.9927C41.0512 27.117 42.4755 27.8466 43.4741 29.0211C44.4728 30.1955 44.964 31.7186 44.8396 33.2552L44.2071 41.0733C44.1229 42.1142 43.2108 42.8897 42.1699 42.8055L39.8303 42.6162C39.4797 43.418 38.9492 44.138 38.2699 44.7156C37.0954 45.7142 35.5724 46.2054 34.0358 46.0811C32.4992 45.9568 31.0749 45.2271 30.0763 44.0527C29.4987 43.3734 29.0908 42.5775 28.8736 41.7297L20.2853 41.0349C19.9347 41.8369 19.4041 42.5572 18.7247 43.1349C17.5502 44.1336 16.0272 44.6247 14.4906 44.5004C12.9539 44.3761 11.5297 43.6465 10.531 42.472C9.95327 41.7925 9.54537 40.9964 9.32824 40.1484L6.98849 39.9591C5.94759 39.8749 5.17204 38.9628 5.25626 37.9219L6.20505 26.1948C6.22445 25.955 6.28942 25.7211 6.39649 25.5057L11.0962 16.0494ZM36.5286 40.452L36.5301 40.435C36.5688 39.9036 36.3972 39.3779 36.0517 38.9717C35.7028 38.5614 35.2052 38.3064 34.6683 38.263C34.1314 38.2195 33.5993 38.3912 33.1889 38.7401C32.7786 39.089 32.5236 39.5866 32.4802 40.1235C32.4368 40.6604 32.6084 41.1926 32.9573 41.6029C33.3062 42.0133 33.8039 42.2682 34.3407 42.3116C34.8776 42.3551 35.4098 42.1835 35.8201 41.8345C36.2261 41.4893 36.48 40.9985 36.5274 40.4682L36.5286 40.452ZM40.5902 38.8836L40.1359 38.8468C39.9189 37.9984 39.5108 37.2018 38.9328 36.522C37.9342 35.3475 36.5099 34.6179 34.9733 34.4935C33.4367 34.3692 31.9136 34.8604 30.7392 35.859C30.0594 36.4371 29.5286 37.1578 29.178 37.9603L20.5905 37.2655C20.3734 36.4173 19.9655 35.6209 19.3876 34.9413C18.3889 33.7669 16.9647 33.0372 15.428 32.9129C13.8914 32.7886 12.3684 33.2798 11.1939 34.2784C10.5143 34.8563 9.98363 35.5767 9.63301 36.379L9.17818 36.3422L9.82201 28.3845L39.2097 30.7621C39.7465 30.8055 40.2442 31.0605 40.5931 31.4708C40.942 31.8812 41.1136 32.4133 41.0702 32.9502L40.5902 38.8836ZM16.5065 37.3911C16.8511 37.7963 17.0228 38.3203 16.9852 38.8504L16.9834 38.8707L16.9819 38.8908C16.9337 39.4199 16.6801 39.9094 16.2749 40.2539C15.8646 40.6028 15.3324 40.7744 14.7955 40.731C14.2586 40.6875 13.761 40.4326 13.4121 40.0223C13.0632 39.6119 12.8915 39.0798 12.935 38.5429C12.9784 38.006 13.2333 37.5084 13.6437 37.1594C14.054 36.8105 14.5862 36.6389 15.1231 36.6823C15.66 36.7258 16.1576 36.9807 16.5065 37.3911ZM11.026 24.6878L23.9482 25.7332L24.4339 19.7301L13.913 18.8789L11.026 24.6878ZM28.2034 20.035L27.7177 26.0382L33.6387 26.5173L29.3219 20.1255L28.2034 20.035Z" fill="#016BBF"/>
<path d="M49.4502 24.8669C48.4363 25.1168 47.817 26.1415 48.067 27.1554C48.317 28.1693 49.3416 28.7886 50.3555 28.5387L53.8113 27.6866C54.8253 27.4366 55.4446 26.412 55.1946 25.3981C54.9446 24.3841 53.92 23.7648 52.906 24.0148L49.4502 24.8669Z" fill="#016BBF"/>
<path d="M47.6156 32.3046C48.1557 31.4108 49.3182 31.1242 50.2119 31.6644L53.4428 33.6172C54.3365 34.1574 54.6231 35.3199 54.0829 36.2136C53.5427 37.1073 52.3803 37.3939 51.4866 36.8537L48.2557 34.9009C47.362 34.3607 47.0754 33.1983 47.6156 32.3046Z" fill="#016BBF"/>
<path d="M49.8228 18.9342C50.363 18.0405 50.0764 16.878 49.1827 16.3378C48.2889 15.7977 47.1265 16.0843 46.5863 16.978L44.6335 20.2089C44.0933 21.1026 44.3799 22.265 45.2736 22.8052C46.1674 23.3454 47.3298 23.0588 47.87 22.1651L49.8228 18.9342Z" fill="#016BBF"/>
</svg>
