<svg width="61" height="60" viewBox="0 0 61 60" fill="none" xmlns="http://www.w3.org/2000/svg">
<path d="M50.1018 14.2678C51.0781 13.2915 51.0781 11.7085 50.1018 10.7322C49.1254 9.75592 47.5425 9.75592 46.5662 10.7322L30.834 26.4645L15.1018 10.7322C14.1254 9.75592 12.5425 9.75592 11.5662 10.7322C10.5899 11.7085 10.5899 13.2915 11.5662 14.2678L27.2984 30L11.5662 45.7322C10.5899 46.7085 10.5899 48.2915 11.5662 49.2678C12.5425 50.2441 14.1254 50.2441 15.1018 49.2678L30.834 33.5355L46.5662 49.2678C47.5425 50.2441 49.1254 50.2441 50.1018 49.2678C51.0781 48.2915 51.0781 46.7085 50.1018 45.7322L34.3695 30L50.1018 14.2678Z" fill="#BF0101"/>
</svg>
