<svg width="61" height="60" viewBox="0 0 61 60" fill="none" xmlns="http://www.w3.org/2000/svg">
<path d="M45.5295 46.1597L14.1099 14.1858C7.82607 19.4224 3.94474 33.9617 14.1099 45.0509C27.1854 59.315 41.3401 50.8418 45.5295 46.1597Z" fill="#B3D3EC"/>
<path fill-rule="evenodd" clip-rule="evenodd" d="M30.354 5.625C27.153 5.625 23.9834 6.25548 21.0261 7.48044C18.0688 8.7054 15.3817 10.5008 13.1183 12.7643C10.8548 15.0277 9.0594 17.7148 7.83444 20.6721C6.60948 23.6294 5.979 26.799 5.979 30C5.979 33.201 6.60948 36.3706 7.83444 39.3279C9.0594 42.2852 10.8548 44.9723 13.1183 47.2357C15.3817 49.4992 18.0688 51.2946 21.0261 52.5196C23.9834 53.7445 27.153 54.375 30.354 54.375C33.555 54.375 36.7246 53.7445 39.6819 52.5196C42.6392 51.2946 45.3263 49.4992 47.5897 47.2357C49.8532 44.9723 51.6486 42.2852 52.8736 39.3279C54.0985 36.3706 54.729 33.201 54.729 30C54.729 26.799 54.0985 23.6294 52.8736 20.6721C51.6486 17.7148 49.8532 15.0277 47.5897 12.7643C45.3263 10.5008 42.6392 8.7054 39.6819 7.48044C36.7246 6.25548 33.555 5.625 30.354 5.625ZM22.4612 10.945C24.9635 9.90848 27.6455 9.375 30.354 9.375C33.0625 9.375 35.7445 9.90848 38.2468 10.945C40.7492 11.9815 43.0229 13.5007 44.9381 15.4159C46.8533 17.3311 48.3725 19.6048 49.409 22.1072C50.4455 24.6095 50.979 27.2915 50.979 30C50.979 32.7085 50.4455 35.3905 49.409 37.8928C48.6125 39.8159 47.5309 41.6038 46.2035 43.1979L17.1561 14.1505C18.7502 12.8231 20.5381 11.7415 22.4612 10.945ZM14.5045 16.8021C13.1772 18.3962 12.0955 20.1841 11.299 22.1072C10.2625 24.6095 9.729 27.2915 9.729 30C9.729 32.7085 10.2625 35.3905 11.299 37.8928C12.3355 40.3952 13.8547 42.6689 15.7699 44.5841C17.6851 46.4993 19.9588 48.0185 22.4612 49.055C24.9635 50.0915 27.6455 50.625 30.354 50.625C33.0625 50.625 35.7445 50.0915 38.2468 49.055C40.1699 48.2585 41.9578 47.1768 43.5519 45.8495L14.5045 16.8021Z" fill="#016BBF"/>
</svg>
