<svg width="25" height="24" viewBox="0 0 25 24" fill="none" xmlns="http://www.w3.org/2000/svg">
<path fill-rule="evenodd" clip-rule="evenodd" d="M12.5 2.25C11.2196 2.25 9.95176 2.50219 8.76884 2.99217C7.58591 3.48216 6.51108 4.20034 5.60571 5.10571C4.70034 6.01108 3.98216 7.08591 3.49217 8.26884C3.00219 9.45176 2.75 10.7196 2.75 12C2.75 13.2804 3.00219 14.5482 3.49217 15.7312C3.98216 16.9141 4.70034 17.9889 5.60571 18.8943C6.51108 19.7997 7.58591 20.5178 8.76884 21.0078C9.95176 21.4978 11.2196 21.75 12.5 21.75C13.7804 21.75 15.0482 21.4978 16.2312 21.0078C17.4141 20.5178 18.4889 19.7997 19.3943 18.8943C20.2997 17.9889 21.0178 16.9141 21.5078 15.7312C21.9978 14.5482 22.25 13.2804 22.25 12C22.25 10.7196 21.9978 9.45176 21.5078 8.26884C21.0178 7.08591 20.2997 6.01108 19.3943 5.10571C18.4889 4.20034 17.4141 3.48216 16.2312 2.99217C15.0482 2.50219 13.7804 2.25 12.5 2.25ZM9.34286 4.37799C10.3438 3.96339 11.4166 3.75 12.5 3.75C13.5834 3.75 14.6562 3.96339 15.6571 4.37799C16.6581 4.7926 17.5675 5.40029 18.3336 6.16637C19.0997 6.93245 19.7074 7.84193 20.122 8.84286C20.5366 9.8438 20.75 10.9166 20.75 12C20.75 13.0834 20.5366 14.1562 20.122 15.1571C19.8034 15.9263 19.3707 16.6415 18.8398 17.2791L7.22085 5.66019C7.85846 5.12926 8.57366 4.69661 9.34286 4.37799ZM6.16019 6.72085C5.62926 7.35846 5.19661 8.07365 4.87799 8.84286C4.46339 9.8438 4.25 10.9166 4.25 12C4.25 13.0834 4.46339 14.1562 4.87799 15.1571C5.29259 16.1581 5.90029 17.0675 6.66637 17.8336C7.43245 18.5997 8.34193 19.2074 9.34286 19.622C10.3438 20.0366 11.4166 20.25 12.5 20.25C13.5834 20.25 14.6562 20.0366 15.6571 19.622C16.4263 19.3034 17.1415 18.8707 17.7791 18.3398L6.16019 6.72085Z" fill="#8A8A8A"/>
</svg>
