<svg width="61" height="60" viewBox="0 0 61 60" fill="none" xmlns="http://www.w3.org/2000/svg">
<path fill-rule="evenodd" clip-rule="evenodd" d="M30.8341 8.125C27.6846 8.125 24.6642 9.37611 22.4372 11.6031C20.2102 13.8301 18.9591 16.8506 18.9591 20C18.9591 23.1494 20.2102 26.1699 22.4372 28.3969C24.6642 30.6239 27.6846 31.875 30.8341 31.875C33.9835 31.875 37.004 30.6239 39.231 28.3969C41.458 26.1699 42.7091 23.1494 42.7091 20C42.7091 16.8506 41.458 13.8301 39.231 11.6031C37.004 9.37611 33.9835 8.125 30.8341 8.125ZM25.0889 14.2548C26.6126 12.731 28.6792 11.875 30.8341 11.875C32.989 11.875 35.0556 12.731 36.5793 14.2548C38.1031 15.7785 38.9591 17.8451 38.9591 20C38.9591 22.1549 38.1031 24.2215 36.5793 25.7452C35.0556 27.269 32.989 28.125 30.8341 28.125C28.6792 28.125 26.6126 27.269 25.0889 25.7452C23.5651 24.2215 22.7091 22.1549 22.7091 20C22.7091 17.8451 23.5651 15.7785 25.0889 14.2548Z" fill="#8A8A8A"/>
<path d="M19.9634 41.3812C21.4718 40.1242 23.5799 39.375 25.8341 39.375H35.8341C38.0883 39.375 40.1964 40.1242 41.7048 41.3812C43.2032 42.6299 43.9591 44.2423 43.9591 45.8333V50C43.9591 51.0355 44.7986 51.875 45.8341 51.875C46.8696 51.875 47.7091 51.0355 47.7091 50V37.8103C49.7372 37.1934 52.4189 35.5954 54.8341 32.3751C55.4554 31.5467 55.2875 30.3714 54.4591 29.7501C53.6307 29.1288 52.4554 29.2967 51.8341 30.1251C49.1086 33.7591 46.3728 34.3751 45.8341 34.3751C44.7986 34.3751 43.9591 35.2146 43.9591 36.2501V38.3804C41.7344 36.5887 38.8183 35.625 35.8341 35.625H25.8341C22.8499 35.625 19.9338 36.5887 17.7091 38.3804V36.2501C17.7091 35.2146 16.8696 34.3751 15.8341 34.3751C15.2954 34.3751 12.5596 33.7591 9.83409 30.1251C9.21277 29.2967 8.03752 29.1288 7.20909 29.7501C6.38067 30.3714 6.21277 31.5467 6.83409 32.3751C9.24933 35.5954 11.931 37.1934 13.9591 37.8103V48.7501C13.9591 48.7496 13.9591 48.7506 13.9591 48.7501L13.9591 50C13.9591 51.0355 14.7986 51.875 15.8341 51.875C16.8696 51.875 17.7091 51.0355 17.7091 50V45.8333C17.7091 44.2423 18.4649 42.6299 19.9634 41.3812Z" fill="#8A8A8A"/>
</svg>
