<svg width="60" height="60" viewBox="0 0 60 60" fill="none" xmlns="http://www.w3.org/2000/svg">
<g id="toggle icons">
<path id="Vector" d="M25 30C25 31.3261 25.5268 32.5979 26.4645 33.5355C27.4021 34.4732 28.6739 35 30 35C31.3261 35 32.5979 34.4732 33.5355 33.5355C34.4732 32.5979 35 31.3261 35 30C35 28.6739 34.4732 27.4021 33.5355 26.4645C32.5979 25.5268 31.3261 25 30 25C28.6739 25 27.4021 25.5268 26.4645 26.4645C25.5268 27.4021 25 28.6739 25 30Z" fill="#B3D3EC"/>
<g id="Union">
<path fill-rule="evenodd" clip-rule="evenodd" d="M18.125 15.625H12.5C10.6766 15.625 8.92795 16.3493 7.63864 17.6386C6.34933 18.928 5.625 20.6766 5.625 22.5V45C5.625 46.8234 6.34933 48.572 7.63864 49.8614C8.92795 51.1507 10.6766 51.875 12.5 51.875H15C16.0355 51.875 16.875 51.0355 16.875 50C16.875 48.9645 16.0355 48.125 15 48.125H12.5C11.6712 48.125 10.8763 47.7958 10.2903 47.2097C9.70424 46.6237 9.375 45.8288 9.375 45V22.5C9.375 21.6712 9.70424 20.8763 10.2903 20.2903C10.8763 19.7042 11.6712 19.375 12.5 19.375H47.5C48.3288 19.375 49.1237 19.7042 49.7097 20.2903C50.2958 20.8763 50.625 21.6712 50.625 22.5V45C50.625 45.8288 50.2958 46.6237 49.7097 47.2097C49.1237 47.7958 48.3288 48.125 47.5 48.125H45C43.9645 48.125 43.125 48.9645 43.125 50C43.125 51.0355 43.9645 51.875 45 51.875H47.5C49.3234 51.875 51.072 51.1507 52.3614 49.8614C53.6507 48.572 54.375 46.8234 54.375 45V22.5C54.375 20.6766 53.6507 18.928 52.3614 17.6386C51.072 16.3493 49.3234 15.625 47.5 15.625H41.875V12.5C41.875 10.6766 41.1507 8.92795 39.8614 7.63864C38.572 6.34933 36.8234 5.625 35 5.625H25C23.1766 5.625 21.428 6.34933 20.1386 7.63864C18.8493 8.92795 18.125 10.6766 18.125 12.5V15.625ZM22.7903 10.2903C23.3763 9.70424 24.1712 9.375 25 9.375H35C35.8288 9.375 36.6237 9.70424 37.2097 10.2903C37.7958 10.8763 38.125 11.6712 38.125 12.5V15.625H21.875V12.5C21.875 11.6712 22.2042 10.8763 22.7903 10.2903Z" fill="#016BBF"/>
<path fill-rule="evenodd" clip-rule="evenodd" d="M25.1386 25.1386C26.428 23.8493 28.1766 23.125 30 23.125C31.8234 23.125 33.572 23.8493 34.8614 25.1386C36.1507 26.428 36.875 28.1766 36.875 30C36.875 31.8234 36.1507 33.572 34.8614 34.8614C33.572 36.1507 31.8234 36.875 30 36.875C28.1766 36.875 26.428 36.1507 25.1386 34.8614C23.8493 33.572 23.125 31.8234 23.125 30C23.125 28.1766 23.8493 26.428 25.1386 25.1386ZM30 26.875C29.1712 26.875 28.3763 27.2042 27.7903 27.7903C27.2042 28.3763 26.875 29.1712 26.875 30C26.875 30.8288 27.2042 31.6237 27.7903 32.2097C28.3763 32.7958 29.1712 33.125 30 33.125C30.8288 33.125 31.6237 32.7958 32.2097 32.2097C32.7958 31.6237 33.125 30.8288 33.125 30C33.125 29.1712 32.7958 28.3763 32.2097 27.7903C31.6237 27.2042 30.8288 26.875 30 26.875Z" fill="#016BBF"/>
<path d="M27.5 38.125C23.703 38.125 20.625 41.203 20.625 45V52.5C20.625 53.5355 21.4645 54.375 22.5 54.375C23.5355 54.375 24.375 53.5355 24.375 52.5V45C24.375 43.2741 25.7741 41.875 27.5 41.875H32.5C34.2259 41.875 35.625 43.2741 35.625 45V52.5C35.625 53.5355 36.4645 54.375 37.5 54.375C38.5355 54.375 39.375 53.5355 39.375 52.5V45C39.375 41.203 36.297 38.125 32.5 38.125H27.5Z" fill="#016BBF"/>
</g>
</g>
</svg>
