<svg width="61" height="60" viewBox="0 0 61 60" fill="none" xmlns="http://www.w3.org/2000/svg">
<path fill-rule="evenodd" clip-rule="evenodd" d="M13.8709 20.8844V24.3962C14.9252 24.7082 15.8955 25.2796 16.687 26.071C17.9344 27.3185 18.6352 29.0103 18.6352 30.7744C18.6352 32.5385 17.9344 34.2304 16.687 35.4778C15.4396 36.7252 13.7477 37.426 11.9836 37.426C10.2195 37.426 8.52766 36.7252 7.28024 35.4778C6.03282 34.2304 5.33203 32.5385 5.33203 30.7744C5.33203 29.0103 6.03282 27.3185 7.28024 26.071C8.10822 25.2431 9.13202 24.6559 10.2428 24.3547V11.8141C10.2428 10.8122 11.055 10 12.0569 10H17.2363C18.2382 10 19.0504 10.8122 19.0504 11.8141C19.0504 12.816 18.2382 13.6281 17.2363 13.6281H13.8709V17.2563H16.0269C17.0288 17.2563 17.841 18.0685 17.841 19.0704C17.841 20.0722 17.0288 20.8844 16.0269 20.8844H13.8709ZM9.84572 32.9123C10.4127 33.4793 11.1818 33.7979 11.9836 33.7979C12.7855 33.7979 13.5545 33.4793 14.1215 32.9123C14.6885 32.3453 15.0071 31.5763 15.0071 30.7744C15.0071 29.9726 14.6885 29.2035 14.1215 28.6365C13.5545 28.0695 12.7855 27.751 11.9836 27.751C11.1818 27.751 10.4127 28.0695 9.84572 28.6365C9.27872 29.2035 8.96018 29.9726 8.96018 30.7744C8.96018 31.5763 9.27872 32.3453 9.84572 32.9123Z" fill="#8A8A8A"/>
<path fill-rule="evenodd" clip-rule="evenodd" d="M20.2597 19.0704C20.2597 18.0685 21.0719 17.2563 22.0738 17.2563H40.4564C41.4583 17.2563 42.2705 18.0685 42.2705 19.0704V21.6096H46.2617C51.2711 21.6096 55.332 25.6705 55.332 30.6799V42.7738C55.332 45.1115 53.4369 47.0066 51.0992 47.0066H48.5307C47.7562 49.5279 45.409 51.3608 42.6338 51.3608C39.8585 51.3608 37.5114 49.5279 36.7369 47.0066H26.7618C25.9873 49.5279 23.6401 51.3608 20.8649 51.3608C17.4585 51.3608 14.6971 48.5994 14.6971 45.193C14.6971 41.7866 17.4585 39.0252 20.8649 39.0252C23.6398 39.0252 25.9867 40.8576 26.7615 43.3784H36.7372C37.512 40.8576 39.8589 39.0252 42.6338 39.0252C45.4087 39.0252 47.7556 40.8576 48.5304 43.3784H51.0992C51.4332 43.3784 51.7039 43.1077 51.7039 42.7738V33.9461H46.9866C45.9847 33.9461 45.1725 33.1339 45.1725 32.132C45.1725 31.1301 45.9847 30.318 46.9866 30.318H51.692C51.5057 27.4811 49.1457 25.2377 46.2617 25.2377H42.2705V34.3086C42.2705 35.3104 41.4583 36.1226 40.4564 36.1226C39.4545 36.1226 38.6423 35.3104 38.6423 34.3086V20.8844H22.0738C21.0719 20.8844 20.2597 20.0722 20.2597 19.0704ZM45.1732 45.1925L45.1734 45.1702C45.1611 43.778 44.0288 42.6533 42.6338 42.6533C41.2311 42.6533 40.0941 43.7904 40.0941 45.193C40.0941 46.5956 41.2311 47.7327 42.6338 47.7327C44.029 47.7327 45.1614 46.6076 45.1734 45.2153L45.1732 45.1925ZM23.4042 45.1476L23.4037 45.1925L23.4042 45.2379C23.3803 46.6198 22.2525 47.7327 20.8649 47.7327C19.4623 47.7327 18.3252 46.5956 18.3252 45.193C18.3252 43.7904 19.4623 42.6533 20.8649 42.6533C22.2524 42.6533 23.38 43.7659 23.4042 45.1476Z" fill="#8A8A8A"/>
<path d="M9.98 40.2345C10.9819 40.2345 11.7941 41.0467 11.7941 42.0486V45.4349C11.7941 46.4368 10.9819 47.2489 9.98 47.2489C8.97812 47.2489 8.16593 46.4368 8.16593 45.4349V42.0486C8.16593 41.0467 8.97812 40.2345 9.98 40.2345Z" fill="#8A8A8A"/>
</svg>
