<svg width="24" height="24" viewBox="0 0 24 24" fill="none" xmlns="http://www.w3.org/2000/svg">
<path fill-rule="evenodd" clip-rule="evenodd" d="M17.5816 4.78257C17.3247 4.78257 17.1165 4.99081 17.1165 5.24768V7.7283C17.1165 7.98518 17.3247 8.19342 17.5816 8.19342C17.8385 8.19342 18.0467 7.98518 18.0467 7.7283V6.95311H18.8219C19.1098 6.95311 19.3858 6.83877 19.5893 6.63524C19.7929 6.43171 19.9072 6.15567 19.9072 5.86784C19.9072 5.58001 19.7929 5.30396 19.5893 5.10044C19.3858 4.89691 19.1098 4.78257 18.8219 4.78257H17.5816ZM18.8219 6.02288H18.0467V5.7128H18.8219C18.8631 5.7128 18.9025 5.72913 18.9316 5.75821C18.9606 5.78729 18.977 5.82672 18.977 5.86784C18.977 5.90896 18.9606 5.94839 18.9316 5.97747C18.9025 6.00654 18.8631 6.02288 18.8219 6.02288Z" fill="#8A8A8A"/>
<path fill-rule="evenodd" clip-rule="evenodd" d="M17.1864 9.97674H16.3411C15.9916 9.97674 15.6564 9.8379 15.4092 9.59076C15.1621 9.34362 15.0233 9.00842 15.0233 8.65891V4.31783C15.0233 3.96832 15.1621 3.63312 15.4092 3.38598C15.6564 3.13884 15.9916 3 16.3411 3H20.6822C21.0317 3 21.3669 3.13884 21.614 3.38598C21.8612 3.63312 22 3.96832 22 4.31783V8.65891C22 9.00843 21.8612 9.34362 21.614 9.59076C21.4606 9.74414 21.2733 9.8558 21.0698 9.91846V13.9125C21.07 13.924 21.07 13.9354 21.0698 13.9468V19.5116C21.0698 19.8969 20.7574 20.2093 20.3721 20.2093C19.9868 20.2093 19.6744 19.8969 19.6744 19.5116V14.1234L17.1864 9.97674ZM16.4186 4.39535V8.5814H20.6047V4.39535H16.4186ZM19.6744 11.4113L18.8137 9.97674H19.6744V11.4113Z" fill="#8A8A8A"/>
<path fill-rule="evenodd" clip-rule="evenodd" d="M4.35142 8.5814C4.06614 8.5814 3.8096 8.75508 3.70365 9.01996L2.0499 13.1543C2.01694 13.2367 2 13.3247 2 13.4134V18.3747C2 18.76 2.31236 19.0723 2.69767 19.0723H3.75968C3.87182 19.4333 4.07037 19.7652 4.34251 20.0374C4.78349 20.4784 5.38158 20.7261 6.00522 20.7261C6.62885 20.7261 7.22695 20.4784 7.66792 20.0374C7.94007 19.7652 8.13862 19.4333 8.25076 19.0723H12.0282C12.1404 19.4333 12.3389 19.7652 12.611 20.0374C13.052 20.4784 13.6501 20.7261 14.2738 20.7261C14.8974 20.7261 15.4955 20.4784 15.9365 20.0374C16.2086 19.7652 16.4072 19.4333 16.5193 19.0723H17.5814C17.9667 19.0723 18.2791 18.76 18.2791 18.3747V15.0672C18.2791 14.4435 18.0313 13.8455 17.5904 13.4045C17.1494 12.9635 16.5513 12.7158 15.9276 12.7158H15.4361L12.3381 8.84324C12.2057 8.67774 12.0052 8.5814 11.7933 8.5814H4.35142ZM16.5193 17.677H16.8837V15.0672C16.8837 14.8136 16.783 14.5704 16.6037 14.3911C16.4244 14.2118 16.1812 14.1111 15.9276 14.1111H3.39535V17.677H3.75968C3.87182 17.3161 4.07037 16.9841 4.34251 16.712C4.78349 16.271 5.38158 16.0233 6.00522 16.0233C6.62885 16.0233 7.22695 16.271 7.66792 16.712C7.94007 16.9841 8.13862 17.3161 8.25076 17.677H12.0282C12.1404 17.3161 12.3389 16.9841 12.611 16.712C13.052 16.271 13.6501 16.0233 14.2738 16.0233C14.8974 16.0233 15.4955 16.271 15.9365 16.712C16.2086 16.9841 16.4071 17.3161 16.5193 17.677ZM13.3177 18.3858L13.3178 18.3747L13.3177 18.3635C13.3206 18.114 13.421 17.8753 13.5977 17.6986C13.777 17.5193 14.0202 17.4186 14.2738 17.4186C14.5273 17.4186 14.7705 17.5193 14.9498 17.6986C15.1291 17.8779 15.2298 18.1211 15.2298 18.3747C15.2298 18.6282 15.1291 18.8714 14.9498 19.0507C14.7705 19.23 14.5273 19.3307 14.2738 19.3307C14.0202 19.3307 13.777 19.23 13.5977 19.0507C13.421 18.874 13.3206 18.6353 13.3177 18.3858ZM6.96127 18.3683C6.95959 18.117 6.85905 17.8764 6.68126 17.6986C6.50196 17.5193 6.25878 17.4186 6.00522 17.4186C5.75165 17.4186 5.50847 17.5193 5.32917 17.6986C5.14987 17.8779 5.04915 18.1211 5.04915 18.3747C5.04915 18.6282 5.14987 18.8714 5.32917 19.0507C5.50847 19.23 5.75165 19.3307 6.00522 19.3307C6.25878 19.3307 6.50196 19.23 6.68126 19.0507C6.85905 18.8729 6.95959 18.6323 6.96127 18.3811L6.96124 18.3747L6.96127 18.3683ZM9.44186 12.7158H3.72816L4.82377 9.97674H9.44186V12.7158ZM10.8372 12.7158V9.97674H11.458L13.6492 12.7158H10.8372Z" fill="#8A8A8A"/>
</svg>
