<svg width="25" height="24" viewBox="0 0 25 24" fill="none" xmlns="http://www.w3.org/2000/svg">
<rect x="3.1665" y="3" width="18" height="18" rx="4" fill="#B3D3EC"/>
<path fill-rule="evenodd" clip-rule="evenodd" d="M11.1101 2.25H13.2229C15.0607 2.24998 16.5163 2.24997 17.6555 2.40314C18.8279 2.56076 19.7769 2.89288 20.5253 3.64124C21.2736 4.38961 21.6057 5.33856 21.7634 6.51098C21.9165 7.65019 21.9165 9.10583 21.9165 10.9436V13.0564C21.9165 14.8942 21.9165 16.3498 21.7634 17.489C21.6057 18.6614 21.2736 19.6104 20.5253 20.3588C19.7769 21.1071 18.8279 21.4392 17.6555 21.5969C16.5163 21.75 15.0607 21.75 13.2229 21.75H11.1101C9.27233 21.75 7.8167 21.75 6.67748 21.5969C5.50506 21.4392 4.55611 21.1071 3.80775 20.3588C3.05938 19.6104 2.72727 18.6614 2.56964 17.489C2.41648 16.3498 2.41649 14.8942 2.4165 13.0564V10.9436C2.41649 9.10582 2.41648 7.65019 2.56964 6.51098C2.72727 5.33856 3.05938 4.38961 3.80775 3.64124C4.55611 2.89288 5.50506 2.56076 6.67748 2.40314C7.8167 2.24997 9.27233 2.24998 11.1101 2.25ZM6.87735 3.88976C5.87126 4.02502 5.29162 4.27869 4.86841 4.7019C4.4452 5.12511 4.19153 5.70476 4.05626 6.71085C3.9181 7.73851 3.9165 9.09318 3.9165 11V13C3.9165 14.9068 3.9181 16.2615 4.05626 17.2892C4.19153 18.2952 4.4452 18.8749 4.86841 19.2981C5.29162 19.7213 5.87126 19.975 6.87735 20.1102C7.90502 20.2484 9.25968 20.25 11.1665 20.25H13.1665C15.0733 20.25 16.428 20.2484 17.4557 20.1102C18.4617 19.975 19.0414 19.7213 19.4646 19.2981C19.8878 18.8749 20.1415 18.2952 20.2767 17.2892C20.4149 16.2615 20.4165 14.9068 20.4165 13V11C20.4165 9.09318 20.4149 7.73851 20.2767 6.71085C20.1415 5.70476 19.8878 5.12511 19.4646 4.7019C19.0414 4.27869 18.4617 4.02502 17.4557 3.88976C16.428 3.75159 15.0733 3.75 13.1665 3.75H11.1665C9.25968 3.75 7.90502 3.75159 6.87735 3.88976ZM9.4165 8C9.4165 7.58579 9.75229 7.25 10.1665 7.25H12.8335C13.5303 7.25 14.0694 7.67363 14.4 8.1696C14.7342 8.67083 14.9165 9.32012 14.9165 10C14.9165 10.6799 14.7342 11.3292 14.4 11.8304C14.0694 12.3264 13.5303 12.75 12.8335 12.75H10.9165V16C10.9165 16.4142 10.5807 16.75 10.1665 16.75C9.75229 16.75 9.4165 16.4142 9.4165 16V8ZM10.9165 11.25H12.8335C12.8727 11.25 13.0001 11.2261 13.152 10.9984C13.3003 10.7758 13.4165 10.4251 13.4165 10C13.4165 9.57489 13.3003 9.22417 13.152 9.00165C13.0001 8.77388 12.8727 8.75 12.8335 8.75H10.9165V11.25Z" fill="#016BBF"/>
</svg>
