<svg width="61" height="60" viewBox="0 0 61 60" fill="none" xmlns="http://www.w3.org/2000/svg">
<g id="toggle icons">
<path id="Union" fill-rule="evenodd" clip-rule="evenodd" d="M8.125 8.125C7.08947 8.125 6.25 8.96447 6.25 10C6.25 11.0355 7.08947 11.875 8.125 11.875H16.25V18.125H13.125C9.32804 18.125 6.25 21.203 6.25 25C6.25 28.797 9.32804 31.875 13.125 31.875H16.25L16.25 38.125H13.125C9.32804 38.125 6.25 41.203 6.25 45C6.25 48.797 9.32804 51.875 13.125 51.875H18.125H30.625H43.125H53.125C54.1605 51.875 55 51.0355 55 50C55 48.9645 54.1605 48.125 53.125 48.125H45V41.875H48.125C51.922 41.875 55 38.797 55 35C55 31.203 51.922 28.125 48.125 28.125H45V21.875H48.125C51.922 21.875 55 18.797 55 15C55 11.203 51.922 8.125 48.125 8.125H43.125H30.625H18.125H8.125ZM28.75 11.875H20V18.125H28.75V11.875ZM32.5 18.125V11.875H41.25V18.125H32.5ZM28.75 21.875H20V28.125H28.75V21.875ZM32.5 28.125V21.875H41.25V28.125H32.5ZM28.75 31.875H20V38.125H28.75L28.75 31.875ZM32.5 38.125V31.875H41.25V38.125H32.5ZM28.75 41.875H20V48.125H28.75V41.875ZM32.5 48.125V41.875H41.25V48.125H32.5ZM48.125 38.125H45V31.875H48.125C49.8509 31.875 51.25 33.2741 51.25 35C51.25 36.7259 49.8509 38.125 48.125 38.125ZM48.125 18.125H45V11.875H48.125C49.8509 11.875 51.25 13.2741 51.25 15C51.25 16.7259 49.8509 18.125 48.125 18.125ZM16.25 21.875H13.125C11.3991 21.875 10 23.2741 10 25C10 26.7259 11.3991 28.125 13.125 28.125H16.25L16.25 21.875ZM16.25 41.875H13.125C11.3991 41.875 10 43.2741 10 45C10 46.7259 11.3991 48.125 13.125 48.125H16.25V41.875Z" fill="#8A8A8A"/>
</g>
</svg>
