<svg width="61" height="60" viewBox="0 0 61 60" fill="none" xmlns="http://www.w3.org/2000/svg">
<path d="M21.4477 31.1414C20.4844 31.1414 19.7035 31.9223 19.7035 32.8856C19.7035 33.8489 20.4844 34.6298 21.4477 34.6298H39.2067C40.1699 34.6298 40.9508 33.8489 40.9508 32.8856C40.9508 31.9223 40.1699 31.1414 39.2067 31.1414H21.4477Z" fill="#8A8A8A"/>
<path fill-rule="evenodd" clip-rule="evenodd" d="M41.0692 10H21.2764C20.1074 10.0004 18.9637 10.3438 17.988 10.9877C17.0126 11.6314 16.2472 12.548 15.7871 13.6223L10.9963 24.7989H7.49419C6.5309 24.7989 5.75 25.5798 5.75 26.5431C5.75 27.5064 6.5309 28.2873 7.49419 28.2873H10.4012V46.4165C10.4012 47.2155 10.7186 47.9818 11.2836 48.5468C11.8485 49.1118 12.6148 49.4292 13.4138 49.4292H19.3335C20.1325 49.4292 20.8988 49.1118 21.4638 48.5468C22.0288 47.9818 22.3462 47.2155 22.3462 46.4165V43.7209H39.9995V46.4165C39.9995 46.8121 40.0774 47.2039 40.2288 47.5694C40.3802 47.9349 40.6021 48.267 40.8819 48.5468C41.1616 48.8265 41.4937 49.0484 41.8593 49.1998C42.2248 49.3513 42.6165 49.4292 43.0122 49.4292H48.9318C49.7308 49.4292 50.4971 49.1118 51.0621 48.5468C51.6271 47.9818 51.9445 47.2155 51.9445 46.4165V28.2873H54.0058C54.9691 28.2873 55.75 27.5064 55.75 26.5431C55.75 25.5798 54.9691 24.7989 54.0058 24.7989H51.3524L46.5581 13.6191C46.0976 12.5451 45.3322 11.6298 44.3566 10.9865C43.381 10.3431 42.2379 10.0001 41.0692 10ZM13.8895 45.9408V43.7209H18.8578V45.9408H13.8895ZM13.8895 28.2873V40.2326L48.4561 40.2326L48.4561 28.2873L13.8895 28.2873ZM43.4878 43.7209H48.4561V45.9408H43.4878V43.7209ZM43.4878 45.9408V46.4165C43.4878 46.354 43.4755 46.2922 43.4516 46.2344C43.4277 46.1767 43.3927 46.1243 43.3485 46.0801C43.3043 46.036 43.2519 46.0009 43.1942 45.977C43.1365 45.9531 43.0746 45.9408 43.0122 45.9408H43.4878ZM48.4561 45.9408H48.9318C48.8057 45.9408 48.6847 45.9909 48.5955 46.0801C48.5062 46.1693 48.4561 46.2903 48.4561 46.4165V45.9408ZM47.5568 24.7989L43.3521 14.994C43.1605 14.5472 42.8421 14.1662 42.4363 13.8987C42.0306 13.6311 41.5553 13.4885 41.0692 13.4884H21.277C20.791 13.4886 20.3151 13.6315 19.9095 13.8992C19.5037 14.167 19.1854 14.548 18.9941 14.995L14.7916 24.7989L47.5568 24.7989Z" fill="#8A8A8A"/>
</svg>
