<svg width="24" height="24" viewBox="0 0 24 24" fill="none" xmlns="http://www.w3.org/2000/svg">
<path fill-rule="evenodd" clip-rule="evenodd" d="M18.7228 9.91947L17.0409 5.99751C16.9643 5.8188 16.8369 5.66641 16.6746 5.55938C16.5123 5.45236 16.3222 5.3953 16.1277 5.39526H8.21085C8.01644 5.39537 7.82611 5.4525 7.66385 5.55959C7.50153 5.66672 7.37421 5.81912 7.29768 5.99792L5.6167 9.91947L18.7228 9.91947Z" fill="#B3D3EC"/>
<path d="M8.27907 12.4566C7.89375 12.4566 7.5814 12.7689 7.5814 13.1543C7.5814 13.5396 7.89375 13.8519 8.27907 13.8519H15.3827C15.768 13.8519 16.0803 13.5396 16.0803 13.1543C16.0803 12.7689 15.768 12.4566 15.3827 12.4566H8.27907Z" fill="#016BBF"/>
<path fill-rule="evenodd" clip-rule="evenodd" d="M16.1277 4H8.21057C7.74298 4.00015 7.28548 4.13752 6.89522 4.39508C6.50505 4.65257 6.19886 5.01921 6.01485 5.44893L4.09851 9.91956H2.69767C2.31236 9.91956 2 10.2319 2 10.6172C2 11.0025 2.31236 11.3149 2.69767 11.3149H3.86047V18.5666C3.86047 18.8862 3.98743 19.1927 4.21342 19.4187C4.43942 19.6447 4.74593 19.7717 5.06554 19.7717H7.4334C7.75301 19.7717 8.05952 19.6447 8.28552 19.4187C8.51152 19.1927 8.63848 18.8862 8.63848 18.5666V17.4884H15.6998V18.5666C15.6998 18.7248 15.731 18.8815 15.7915 19.0278C15.8521 19.174 15.9408 19.3068 16.0527 19.4187C16.1646 19.5306 16.2975 19.6194 16.4437 19.6799C16.5899 19.7405 16.7466 19.7717 16.9049 19.7717H19.2727C19.5923 19.7717 19.8988 19.6447 20.1248 19.4187C20.3508 19.1927 20.4778 18.8862 20.4778 18.5666V11.3149H21.3023C21.6876 11.3149 22 11.0025 22 10.6172C22 10.2319 21.6876 9.91956 21.3023 9.91956H20.2409L18.3232 5.44765C18.139 5.01804 17.8329 4.6519 17.4427 4.39458C17.0524 4.13724 16.5952 4.00005 16.1277 4ZM5.25581 18.3763V17.4884H7.24313V18.3763H5.25581ZM5.25581 11.3149V16.093L19.0825 16.093L19.0825 11.3149L5.25581 11.3149ZM17.0951 17.4884H19.0825V18.3763H17.0951V17.4884ZM17.0951 18.3763V18.5666C17.0951 18.5416 17.0902 18.5169 17.0807 18.4938C17.0711 18.4707 17.0571 18.4497 17.0394 18.4321C17.0217 18.4144 17.0008 18.4004 16.9777 18.3908C16.9546 18.3812 16.9298 18.3763 16.9049 18.3763H17.0951ZM19.0825 18.3763H19.2727C19.2223 18.3763 19.1739 18.3964 19.1382 18.4321C19.1025 18.4677 19.0825 18.5161 19.0825 18.5666V18.3763ZM18.7227 9.91956L17.0408 5.99759C16.9642 5.81889 16.8368 5.6665 16.6745 5.55947C16.5122 5.45245 16.3221 5.39539 16.1277 5.39535H8.2108C8.01639 5.39546 7.82606 5.45259 7.6638 5.55967C7.50147 5.6668 7.37416 5.81921 7.29763 5.998L5.61665 9.91956L18.7227 9.91956Z" fill="#016BBF"/>
</svg>
