<svg width="61" height="61" viewBox="0 0 61 61" fill="none" xmlns="http://www.w3.org/2000/svg">
<path d="M23.5191 52.9729C15.8165 48.3208 19.102 40.6118 21.7076 37.3387L36.6746 52.9729C35.4989 54.9113 31.2218 57.625 23.5191 52.9729Z" fill="#B3D3EC"/>
<path d="M10.5403 11.6653C11.1263 11.0792 11.9212 10.75 12.75 10.75H47.75C48.5788 10.75 49.3737 11.0792 49.9597 11.6653C50.5458 12.2513 50.875 13.0462 50.875 13.875V43.875C50.875 44.7038 50.5458 45.4987 49.9597 46.0847C49.3737 46.6708 48.5788 47 47.75 47C46.7145 47 45.875 47.8395 45.875 48.875C45.875 49.9105 46.7145 50.75 47.75 50.75C49.5734 50.75 51.322 50.0257 52.6114 48.7364C53.9007 47.447 54.625 45.6984 54.625 43.875V13.875C54.625 12.0516 53.9007 10.303 52.6114 9.01364C51.322 7.72433 49.5734 7 47.75 7H12.75C10.9266 7 9.17795 7.72433 7.88864 9.01364C6.59933 10.303 5.875 12.0516 5.875 13.875V43.875C5.875 45.6984 6.59933 47.447 7.88864 48.7364C9.17795 50.0257 10.9266 50.75 12.75 50.75C13.7855 50.75 14.625 49.9105 14.625 48.875C14.625 47.8395 13.7855 47 12.75 47C11.9212 47 11.1263 46.6708 10.5403 46.0847C9.95424 45.4987 9.625 44.7038 9.625 43.875V13.875C9.625 13.0462 9.95424 12.2513 10.5403 11.6653Z" fill="#016BBF"/>
<path d="M15.25 14.5C14.2145 14.5 13.375 15.3395 13.375 16.375C13.375 17.4105 14.2145 18.25 15.25 18.25H45.25C46.2855 18.25 47.125 17.4105 47.125 16.375C47.125 15.3395 46.2855 14.5 45.25 14.5H15.25Z" fill="#016BBF"/>
<path d="M17.9807 23.875C17.9807 22.8395 18.8202 22 19.8557 22H40.6443C41.6798 22 42.5193 22.8395 42.5193 23.875C42.5193 24.9105 41.6798 25.75 40.6443 25.75H19.8557C18.8202 25.75 17.9807 24.9105 17.9807 23.875Z" fill="#016BBF"/>
<path d="M33.8155 31.6838C32.8188 31.403 31.7831 31.9833 31.5023 32.9801C31.2215 33.9768 31.8019 35.0125 32.7987 35.2933C36.7393 36.4034 39.625 40.0262 39.625 44.3182C39.625 45.099 39.5299 45.8551 39.3517 46.5765L38.9247 47.9395C38.6151 48.9277 39.1653 49.9797 40.1535 50.2893C41.1416 50.5988 42.1937 50.0487 42.5032 49.0605L42.9623 47.5951L42.9751 47.5443C43.2366 46.5102 43.375 45.429 43.375 44.3182C43.375 38.303 39.3301 33.2373 33.8155 31.6838Z" fill="#016BBF"/>
<path fill-rule="evenodd" clip-rule="evenodd" d="M18.5299 36.8939L19.0721 37.4362C19.0396 37.4888 19.0075 37.5417 18.9758 37.5949C17.8001 39.5627 17.125 41.8645 17.125 44.3182C17.125 51.5669 23.0013 57.4432 30.25 57.4432C32.7114 57.4432 35.0198 56.7638 36.9917 55.5814C37.0387 55.5532 37.0854 55.5248 37.132 55.4961L38.5299 56.8939C39.2621 57.6262 40.4493 57.6262 41.1815 56.8939C41.9138 56.1617 41.9138 54.9745 41.1815 54.2423L21.1815 34.2423C20.4493 33.5101 19.2621 33.5101 18.5299 34.2423C17.7977 34.9745 17.7977 36.1617 18.5299 36.8939ZM30.25 53.6932C31.7331 53.6932 33.132 53.3501 34.3755 52.7395L21.8287 40.1927C21.2181 41.4362 20.875 42.8351 20.875 44.3182C20.875 49.4958 25.0723 53.6932 30.25 53.6932Z" fill="#016BBF"/>
<path d="M28.0288 37.1292C28.7634 37.8591 29.9506 37.8553 30.6805 37.1207C31.4104 36.3862 31.4066 35.199 30.672 34.4691L29.3419 33.1475L30.6635 31.8175C31.3934 31.0829 31.3896 29.8957 30.655 29.1658C29.9205 28.4359 28.7333 28.4397 28.0034 29.1743L25.3602 31.8344C24.6303 32.569 24.6341 33.7562 25.3687 34.4861L28.0288 37.1292Z" fill="#016BBF"/>
</svg>
