<svg width="61" height="60" viewBox="0 0 61 60" fill="none" xmlns="http://www.w3.org/2000/svg">
<path fill-rule="evenodd" clip-rule="evenodd" d="M14.7296 17.2073V21.0922C15.8484 21.4094 16.879 22.0083 17.7159 22.8452C19.0052 24.1345 19.7296 25.8832 19.7296 27.7066C19.7296 29.5299 19.0052 31.2786 17.7159 32.5679C16.4266 33.8572 14.6779 34.5816 12.8546 34.5816C11.0312 34.5816 9.28251 33.8572 7.9932 32.5679C6.70388 31.2786 5.97956 29.5299 5.97956 27.7066C5.97956 25.8832 6.70388 24.1345 7.9932 22.8452C8.83015 22.0083 9.86068 21.4094 10.9796 21.0922V8.26123C10.9796 7.2257 11.819 6.38623 12.8546 6.38623H18.1579C19.1934 6.38623 20.0329 7.2257 20.0329 8.26123C20.0329 9.29676 19.1934 10.1362 18.1579 10.1362L14.7296 10.1362V13.4573H18.1583C19.1939 13.4573 20.0333 14.2968 20.0333 15.3323C20.0333 16.3678 19.1939 17.2073 18.1583 17.2073L14.7296 17.2073ZM9.72956 27.7066C9.72956 28.5354 10.0588 29.3302 10.6448 29.9163C11.2309 30.5023 12.0258 30.8316 12.8546 30.8316C13.6834 30.8316 14.4782 30.5023 15.0643 29.9163C15.6503 29.3302 15.9796 28.5354 15.9796 27.7066C15.9796 26.8778 15.6503 26.0829 15.0643 25.4969C14.4782 24.9108 13.6834 24.5816 12.8546 24.5816C12.0258 24.5816 11.2309 24.9108 10.6448 25.4969C10.0588 26.0829 9.72956 26.8778 9.72956 27.7066Z" fill="#8A8A8A"/>
<path fill-rule="evenodd" clip-rule="evenodd" d="M20.959 19.2385C20.959 18.203 21.7985 17.3635 22.834 17.3635H35.334C35.9036 17.3635 36.4423 17.6225 36.7981 18.0672L46.2352 29.8635H47.834C49.6573 29.8635 51.406 30.5879 52.6953 31.8772C53.9847 33.1665 54.709 34.9152 54.709 36.7385V46.7385C54.709 47.7741 53.8695 48.6135 52.834 48.6135H49.4484C49.1312 49.7324 48.5323 50.763 47.6953 51.5999C46.406 52.8892 44.6573 53.6135 42.834 53.6135C41.0106 53.6135 39.2619 52.8892 37.9726 51.5999C37.1357 50.763 36.5368 49.7324 36.2196 48.6135H24.4484C24.1312 49.7324 23.5323 50.763 22.6953 51.5999C21.406 52.8892 19.6573 53.6135 17.834 53.6135C16.0106 53.6135 14.2619 52.8892 12.9726 51.5999C12.1357 50.763 11.5368 49.7324 11.2196 48.6135H7.83398C6.79845 48.6135 5.95898 47.7741 5.95898 46.7385V39.2385C5.95898 38.203 6.79845 37.3635 7.83398 37.3635C8.86952 37.3635 9.70898 38.203 9.70898 39.2385V44.8635H11.2196C11.5368 43.7447 12.1357 42.7141 12.9726 41.8772C14.2619 40.5879 16.0106 39.8635 17.834 39.8635C19.6573 39.8635 21.406 40.5879 22.6953 41.8772C23.5323 42.7141 24.1312 43.7447 24.4484 44.8635H36.2196C36.5368 43.7447 37.1357 42.7141 37.9726 41.8772C39.2619 40.5879 41.0106 39.8635 42.834 39.8635C44.6573 39.8635 46.406 40.5879 47.6953 41.8772C48.5323 42.7141 49.1312 43.7447 49.4484 44.8635H50.959V36.7385C50.959 35.9097 50.6297 35.1149 50.0437 34.5288C49.4576 33.9428 48.6628 33.6135 47.834 33.6135H22.834C21.7985 33.6135 20.959 32.7741 20.959 31.7385C20.959 30.703 21.7985 29.8635 22.834 29.8635H28.459V21.1135H22.834C21.7985 21.1135 20.959 20.2741 20.959 19.2385ZM40.6243 48.9483C40.0382 48.3622 39.709 47.5673 39.709 46.7385C39.709 45.9097 40.0382 45.1149 40.6243 44.5288C41.2103 43.9428 42.0052 43.6135 42.834 43.6135C43.6628 43.6135 44.4576 43.9428 45.0437 44.5288C45.6297 45.1149 45.959 45.9097 45.959 46.7385C45.959 47.5673 45.6297 48.3622 45.0437 48.9483C44.4576 49.5343 43.6628 49.8635 42.834 49.8635C42.0052 49.8635 41.2103 49.5343 40.6243 48.9483ZM20.0437 44.5288C20.6297 45.1149 20.959 45.9097 20.959 46.7385C20.959 47.5673 20.6297 48.3622 20.0437 48.9483C19.4576 49.5343 18.6628 49.8635 17.834 49.8635C17.0052 49.8635 16.2103 49.5343 15.6243 48.9483C15.0382 48.3622 14.709 47.5674 14.709 46.7385C14.709 45.9097 15.0382 45.1149 15.6243 44.5288C16.2103 43.9428 17.0052 43.6135 17.834 43.6135C18.6628 43.6135 19.4576 43.9428 20.0437 44.5288ZM32.209 21.1135V29.8635H41.4328L34.4328 21.1135H32.209Z" fill="#8A8A8A"/>
</svg>
