<svg width="61" height="61" viewBox="0 0 61 61" fill="none" xmlns="http://www.w3.org/2000/svg">
<path fill-rule="evenodd" clip-rule="evenodd" d="M5.5 25.1676C5.5 16.498 12.5281 9.46991 21.1977 9.46991H39.8023C48.4719 9.46991 55.5 16.498 55.5 25.1676V39.1211C55.5 42.0668 53.5084 44.5474 50.7983 45.2898C50.8316 45.5544 50.8488 45.8241 50.8488 46.0978C50.8488 49.6299 47.9855 52.4932 44.4535 52.4932C40.9214 52.4932 38.0581 49.6299 38.0581 46.0978C38.0581 45.9018 38.067 45.7079 38.0842 45.5164H22.9158C22.933 45.7079 22.9419 45.9018 22.9419 46.0978C22.9419 49.6299 20.0786 52.4932 16.5465 52.4932C13.0145 52.4932 10.1512 49.6299 10.1512 46.0978C10.1512 45.8241 10.1684 45.5544 10.2017 45.2898C7.49159 44.5474 5.5 42.0668 5.5 39.1211V25.1676ZM11.6234 42.0155C12.7965 40.6024 14.5664 39.7025 16.5465 39.7025C18.5325 39.7025 20.307 40.6077 21.48 42.0281H24.1047V32.1446C24.1047 28.6125 26.968 25.7492 30.5001 25.7492C34.0321 25.7492 36.8954 28.6125 36.8954 32.1446V42.0281H39.52C40.693 40.6077 42.4675 39.7025 44.4535 39.7025C46.4336 39.7025 48.2035 40.6024 49.3766 42.0155C50.8546 41.8784 52.0116 40.6348 52.0116 39.1211V25.1676C52.0116 18.4246 46.5453 12.9583 39.8023 12.9583H21.1977C14.4547 12.9583 8.98837 18.4246 8.98837 25.1676V39.1211C8.98837 40.6348 10.1454 41.8784 11.6234 42.0155ZM33.4071 32.1446V42.0281H27.5931V32.1446C27.5931 30.5391 28.8946 29.2376 30.5001 29.2376C32.1056 29.2376 33.4071 30.5391 33.4071 32.1446ZM41.5465 46.0978C41.5465 44.4923 42.848 43.1908 44.4535 43.1908C46.059 43.1908 47.3605 44.4923 47.3605 46.0978C47.3605 47.7033 46.059 49.0048 44.4535 49.0048C42.848 49.0048 41.5465 47.7033 41.5465 46.0978ZM13.6395 46.0978C13.6395 44.4923 14.941 43.1908 16.5465 43.1908C18.152 43.1908 19.4535 44.4923 19.4535 46.0978C19.4535 47.7033 18.152 49.0048 16.5465 49.0048C14.941 49.0048 13.6395 47.7033 13.6395 46.0978Z" fill="#8A8A8A"/>
</svg>
