<svg width="61" height="61" viewBox="0 0 61 61" fill="none" xmlns="http://www.w3.org/2000/svg">
<path fill-rule="evenodd" clip-rule="evenodd" d="M28.5684 6.5217C30.2685 5.77175 32.2074 5.80391 33.8821 6.60986L45.0171 11.9685C47.2427 13.0395 48.66 15.3065 48.66 17.795V34.319C48.66 37.884 45.7967 40.7739 42.2647 40.7739H18.7353C15.2032 40.7739 12.3399 37.884 12.3399 34.319V17.904C12.3399 15.3387 13.845 13.0168 16.174 11.9894L28.5684 6.5217ZM32.3808 9.78796C31.6195 9.42163 30.7382 9.407 29.9655 9.74789L17.5711 15.2156C16.5124 15.6826 15.8283 16.738 15.8283 17.904V34.319C15.8283 35.9394 17.1298 37.2531 18.7353 37.2531H23.2837V29.823C23.2837 26.258 26.147 23.3681 29.679 23.3681H31.3206C34.8526 23.3681 37.7159 26.258 37.7159 29.823V37.2531H42.2647C43.8701 37.2531 45.1716 35.9394 45.1716 34.319V17.795C45.1716 16.6639 44.5274 15.6334 43.5158 15.1466L32.3808 9.78796ZM34.2276 37.2531H26.772V29.823C26.772 28.2026 28.0735 26.8889 29.679 26.8889H31.3206C32.9261 26.8889 34.2276 28.2026 34.2276 29.823V37.2531Z" fill="#8A8A8A"/>
<path d="M7.24419 45.1873C6.2809 45.1873 5.5 45.9755 5.5 46.9477C5.5 47.92 6.2809 48.7082 7.24419 48.7082H34.604C35.5673 48.7082 36.3482 47.92 36.3482 46.9477C36.3482 45.9755 35.5673 45.1873 34.604 45.1873H7.24419Z" fill="#8A8A8A"/>
<path d="M55.5 46.9477C55.5 47.92 54.7191 48.7082 53.7558 48.7082H42.8119C41.8486 48.7082 41.0677 47.92 41.0677 46.9477C41.0677 45.9755 41.8486 45.1873 42.8119 45.1873H53.7558C54.7191 45.1873 55.5 45.9755 55.5 46.9477Z" fill="#8A8A8A"/>
<path d="M7.24419 52.4606C6.2809 52.4606 5.5 53.2487 5.5 54.221C5.5 55.1933 6.2809 55.9814 7.24419 55.9814H18.1881C19.1514 55.9814 19.9323 55.1933 19.9323 54.221C19.9323 53.2487 19.1514 52.4606 18.1881 52.4606H7.24419Z" fill="#8A8A8A"/>
<path d="M24.652 54.221C24.652 53.2487 25.4329 52.4606 26.3962 52.4606H42.812C43.7753 52.4606 44.5562 53.2487 44.5562 54.221C44.5562 55.1933 43.7753 55.9814 42.812 55.9814H26.3962C25.4329 55.9814 24.652 55.1933 24.652 54.221Z" fill="#8A8A8A"/>
<path d="M51.0197 52.4606C50.0564 52.4606 49.2755 53.2487 49.2755 54.221C49.2755 55.1933 50.0564 55.9814 51.0197 55.9814H53.7557C54.719 55.9814 55.4999 55.1933 55.4999 54.221C55.4999 53.2487 54.719 52.4606 53.7557 52.4606H51.0197Z" fill="#8A8A8A"/>
</svg>
