<svg width="61" height="60" viewBox="0 0 61 60" fill="none" xmlns="http://www.w3.org/2000/svg">
<g id="toggle icons">
<circle id="Ellipse 40" cx="30.667" cy="37.7734" r="12.9639" fill="#B3D3EC"/>
<g id="Union">
<path d="M31.8191 6.95746C31.142 6.43085 30.1939 6.43085 29.5168 6.95746L7.01683 24.4575C6.56011 24.8127 6.29297 25.3589 6.29297 25.9375V48.4375C6.29297 50.8537 8.25172 52.8125 10.668 52.8125H13.168C14.2035 52.8125 15.043 51.973 15.043 50.9375C15.043 49.902 14.2035 49.0625 13.168 49.0625H10.668C10.3228 49.0625 10.043 48.7827 10.043 48.4375V26.8545L30.668 10.8129L51.293 26.8545V48.4375C51.293 48.7827 51.0131 49.0625 50.668 49.0625H48.168C47.1324 49.0625 46.293 49.902 46.293 50.9375C46.293 51.973 47.1324 52.8125 48.168 52.8125H50.668C53.0842 52.8125 55.043 50.8537 55.043 48.4375V25.9375C55.043 25.3589 54.7758 24.8127 54.3191 24.4575L31.8191 6.95746Z" fill="#016BBF"/>
<path d="M32.543 30.9375C32.543 29.902 31.7035 29.0625 30.668 29.0625C29.6324 29.0625 28.793 29.902 28.793 30.9375V31.0322C27.8991 31.2147 27.0706 31.6557 26.4159 32.3104C25.5368 33.1895 25.043 34.3818 25.043 35.625C25.043 36.8682 25.5368 38.0605 26.4159 38.9396C27.295 39.8186 28.4873 40.3125 29.7305 40.3125H31.6055C31.8541 40.3125 32.0926 40.4113 32.2684 40.5871C32.4442 40.7629 32.543 41.0014 32.543 41.25C32.543 41.4986 32.4442 41.7371 32.2684 41.9129C32.0926 42.0887 31.8541 42.1875 31.6055 42.1875H26.918C25.8824 42.1875 25.043 43.027 25.043 44.0625C25.043 45.098 25.8824 45.9375 26.918 45.9375H28.793C28.793 46.973 29.6324 47.8125 30.668 47.8125C31.7035 47.8125 32.543 46.973 32.543 45.9375V45.8428C33.4368 45.6603 34.2653 45.2193 34.92 44.5646C35.7991 43.6855 36.293 42.4932 36.293 41.25C36.293 40.0068 35.7991 38.8145 34.92 37.9354C34.041 37.0564 32.8487 36.5625 31.6055 36.5625H29.7305C29.4818 36.5625 29.2434 36.4637 29.0676 36.2879C28.8917 36.1121 28.793 35.8736 28.793 35.625C28.793 35.3764 28.8917 35.1379 29.0676 34.9621C29.2434 34.7863 29.4818 34.6875 29.7305 34.6875H34.418C35.4535 34.6875 36.293 33.848 36.293 32.8125C36.293 31.777 35.4535 30.9375 34.418 30.9375H32.543Z" fill="#016BBF"/>
<path fill-rule="evenodd" clip-rule="evenodd" d="M30.668 22.1875C22.0385 22.1875 15.043 29.1831 15.043 37.8125C15.043 46.442 22.0385 53.4375 30.668 53.4375C39.2974 53.4375 46.293 46.442 46.293 37.8125C46.293 29.1831 39.2974 22.1875 30.668 22.1875ZM18.793 37.8125C18.793 31.2541 24.1096 25.9375 30.668 25.9375C37.2263 25.9375 42.543 31.2541 42.543 37.8125C42.543 44.3709 37.2263 49.6875 30.668 49.6875C24.1096 49.6875 18.793 44.3709 18.793 37.8125Z" fill="#016BBF"/>
</g>
</g>
</svg>
