<svg width="61" height="60" viewBox="0 0 61 60" fill="none" xmlns="http://www.w3.org/2000/svg">
<path fill-rule="evenodd" clip-rule="evenodd" d="M22.4481 15.0512C24.5224 12.2747 27.7851 10.6396 31.2509 10.6396H46.9943C48.4392 10.6396 49.6105 11.811 49.6105 13.2559V28.5197C49.4469 28.4618 49.2707 28.4303 49.0873 28.4303H12.4521L22.4481 15.0512Z" fill="#B3D3EC"/>
<path d="M15.0756 42.5581C15.0756 41.6912 14.3728 40.9884 13.5058 40.9884C12.6389 40.9884 11.936 41.6912 11.936 42.5581V46.7442C11.936 47.6111 12.6389 48.314 13.5058 48.314H17.6919C18.5588 48.314 19.2616 47.6111 19.2616 46.7442C19.2616 45.8772 18.5588 45.1744 17.6919 45.1744H15.0756V42.5581Z" fill="#016BBF"/>
<path d="M40.7151 34.7093C39.8482 34.7093 39.1453 35.4121 39.1453 36.2791C39.1453 37.146 39.8482 37.8488 40.7151 37.8488H44.9012C45.7681 37.8488 46.4709 37.146 46.4709 36.2791C46.4709 35.4121 45.7681 34.7093 44.9012 34.7093H40.7151Z" fill="#016BBF"/>
<path fill-rule="evenodd" clip-rule="evenodd" d="M31.2508 7.5C26.7948 7.5 22.6 9.60225 19.9329 13.172L9.7274 26.8317C8.44365 28.5499 7.75 30.6373 7.75 32.7821V46.7442C7.75 49.923 10.327 52.5 13.5058 52.5H46.9942C50.173 52.5 52.75 49.923 52.75 46.7442V13.2558C52.75 10.077 50.173 7.5 46.9942 7.5H31.2508ZM22.448 15.0511C24.5224 12.2746 27.785 10.6395 31.2508 10.6395H46.9942C48.4391 10.6395 49.6105 11.8109 49.6105 13.2558V28.5196C49.4468 28.4617 49.2707 28.4302 49.0872 28.4302H12.4521L22.448 15.0511ZM49.0872 31.5698C49.2707 31.5698 49.4468 31.5383 49.6105 31.4804V46.7442C49.6105 48.1891 48.4391 49.3605 46.9942 49.3605H13.5058C12.0609 49.3605 10.8895 48.1891 10.8895 46.7442V32.7821C10.8895 32.3554 10.9297 31.932 11.0082 31.5171C11.1373 31.5515 11.2729 31.5698 11.4128 31.5698H49.0872Z" fill="#016BBF"/>
</svg>
