<svg width="60" height="60" viewBox="0 0 60 60" fill="none" xmlns="http://www.w3.org/2000/svg">
<g id="toggle icons">
<g id="Vector">
<path fill-rule="evenodd" clip-rule="evenodd" d="M11.7585 14.051C12.5274 13.451 13.4748 13.125 14.4501 13.125H45.5501C46.5254 13.125 47.4728 13.451 48.2417 14.051C49.0106 14.651 49.5569 15.4908 49.7939 16.4369L53.5439 31.4369C53.7053 32.0817 53.7179 32.7557 53.5802 33.406C53.4425 34.0566 53.1583 34.6673 52.7491 35.1916C52.34 35.7159 51.8167 36.14 51.2191 36.4317C50.6215 36.7234 49.9652 36.875 49.3001 36.875H10.7001C10.0351 36.875 9.37879 36.7234 8.78115 36.4317C8.18352 36.14 7.66025 35.7159 7.25112 35.1916C6.84199 34.6673 6.55776 34.0566 6.42004 33.406C6.28238 32.7557 6.29472 32.0826 6.45611 31.4378L10.2061 16.4378C10.4431 15.4917 10.9897 14.6511 11.7585 14.051ZM14.4501 16.875C14.3108 16.875 14.1755 16.9216 14.0657 17.0073C13.956 17.0929 13.878 17.2127 13.8441 17.3476L10.0941 32.3473C10.0711 32.4394 10.0691 32.5365 10.0887 32.6294C10.1084 32.7224 10.149 32.8096 10.2075 32.8845C10.2659 32.9594 10.3407 33.02 10.426 33.0617C10.5114 33.1033 10.6051 33.125 10.7001 33.125H49.3001C49.3951 33.125 49.4888 33.1034 49.5742 33.0617C49.6596 33.02 49.7343 32.9594 49.7928 32.8845C49.8512 32.8096 49.8918 32.7224 49.9115 32.6294C49.9312 32.5365 49.9294 32.4403 49.9063 32.3481L46.1563 17.3481C46.1225 17.213 46.0444 17.093 45.9346 17.0073C45.8248 16.9216 45.6894 16.875 45.5501 16.875M45.5501 16.875H14.4501H45.5501Z" fill="#8A8A8A"/>
<path fill-rule="evenodd" clip-rule="evenodd" d="M8.12513 25C8.12513 23.9645 8.9646 23.125 10.0001 23.125H50.0001C51.0357 23.125 51.8751 23.9645 51.8751 25C51.8751 26.0355 51.0357 26.875 50.0001 26.875H10.0001C8.9646 26.875 8.12513 26.0355 8.12513 25Z" fill="#8A8A8A"/>
<path fill-rule="evenodd" clip-rule="evenodd" d="M25.2327 13.1395C26.2602 13.2679 26.9891 14.205 26.8606 15.2326L24.3606 35.2326C24.2322 36.2601 23.2951 36.989 22.2676 36.8605C21.24 36.7321 20.5112 35.795 20.6396 34.7674L23.1396 14.7674C23.2681 13.7399 24.2052 13.0111 25.2327 13.1395Z" fill="#8A8A8A"/>
<path fill-rule="evenodd" clip-rule="evenodd" d="M34.7676 13.1395C35.7951 13.0111 36.7322 13.7399 36.8606 14.7674L39.3606 34.7674C39.4891 35.795 38.7602 36.7321 37.7327 36.8605C36.7052 36.989 35.7681 36.2601 35.6396 35.2326L33.1396 15.2326C33.0112 14.205 33.74 13.2679 34.7676 13.1395Z" fill="#8A8A8A"/>
<path fill-rule="evenodd" clip-rule="evenodd" d="M30.0001 33.125C31.0357 33.125 31.8751 33.9645 31.8751 35V45C31.8751 46.0355 31.0357 46.875 30.0001 46.875C28.9646 46.875 28.1251 46.0355 28.1251 45V35C28.1251 33.9645 28.9646 33.125 30.0001 33.125Z" fill="#8A8A8A"/>
<path fill-rule="evenodd" clip-rule="evenodd" d="M15.6251 45C15.6251 43.9645 16.4646 43.125 17.5001 43.125H42.5001C43.5357 43.125 44.3751 43.9645 44.3751 45C44.3751 46.0355 43.5357 46.875 42.5001 46.875H17.5001C16.4646 46.875 15.6251 46.0355 15.6251 45Z" fill="#8A8A8A"/>
</g>
</g>
</svg>
