<svg width="60" height="60" viewBox="0 0 60 60" fill="none" xmlns="http://www.w3.org/2000/svg">
<g id="toggle icons">
<path id="Vector" d="M10.7001 35H49.3001C49.6801 35 50.0552 34.9133 50.3967 34.7467C50.7382 34.58 51.0372 34.3376 51.271 34.038C51.5048 33.7384 51.6672 33.3895 51.7459 33.0177C51.8246 32.646 51.8175 32.2611 51.7251 31.8925L47.9751 16.8925C47.8397 16.3519 47.5275 15.872 47.0881 15.5291C46.6488 15.1863 46.1074 15 45.5501 15H14.4501C13.8928 15 13.3515 15.1863 12.9121 15.5291C12.4727 15.872 12.1606 16.3519 12.0251 16.8925L8.27513 31.8925C8.18279 32.2611 8.17569 32.646 8.25439 33.0177C8.33309 33.3895 8.4955 33.7384 8.72929 34.038C8.96308 34.3376 9.26209 34.58 9.6036 34.7467C9.9451 34.9133 10.3201 35 10.7001 35Z" fill="#B3D3EC"/>
<g id="Vector_2">
<path fill-rule="evenodd" clip-rule="evenodd" d="M11.7585 14.0509C12.5274 13.4509 13.4748 13.125 14.4501 13.125H45.5501C46.5254 13.125 47.4728 13.4509 48.2417 14.0509C49.0106 14.651 49.5569 15.4907 49.7939 16.4368L53.5439 31.4368C53.7053 32.0817 53.7179 32.7557 53.5802 33.406C53.4425 34.0566 53.1583 34.6672 52.7491 35.1915C52.34 35.7158 51.8167 36.1399 51.2191 36.4316C50.6215 36.7233 49.9652 36.8749 49.3001 36.875H10.7001C10.0351 36.8749 9.37879 36.7233 8.78115 36.4316C8.18352 36.1399 7.66025 35.7158 7.25112 35.1915C6.84199 34.6672 6.55776 34.0566 6.42004 33.406C6.28238 32.7557 6.29472 32.0825 6.45611 31.4377L10.2061 16.4377C10.4431 15.4916 10.9897 14.651 11.7585 14.0509ZM14.4501 16.875C14.3108 16.875 14.1755 16.9215 14.0657 17.0072C13.956 17.0929 13.878 17.2126 13.8441 17.3476L10.0941 32.3472C10.0711 32.4394 10.0691 32.5364 10.0887 32.6294C10.1084 32.7223 10.149 32.8096 10.2075 32.8845C10.2659 32.9594 10.3407 33.0199 10.426 33.0616C10.5114 33.1033 10.6051 33.1249 10.7001 33.125H49.3001C49.3951 33.125 49.4888 33.1033 49.5742 33.0616C49.6596 33.0199 49.7343 32.9594 49.7928 32.8845C49.8512 32.8096 49.8918 32.7223 49.9115 32.6294C49.9312 32.5364 49.9294 32.4402 49.9063 32.3481L46.1563 17.3481C46.1225 17.2129 46.0444 17.093 45.9346 17.0072C45.8248 16.9215 45.6894 16.875 45.5501 16.875M45.5501 16.875H14.4501H45.5501Z" fill="#016BBF"/>
<path fill-rule="evenodd" clip-rule="evenodd" d="M8.12513 25C8.12513 23.9644 8.9646 23.125 10.0001 23.125H50.0001C51.0357 23.125 51.8751 23.9644 51.8751 25C51.8751 26.0355 51.0357 26.875 50.0001 26.875H10.0001C8.9646 26.875 8.12513 26.0355 8.12513 25Z" fill="#016BBF"/>
<path fill-rule="evenodd" clip-rule="evenodd" d="M25.2327 13.1394C26.2602 13.2679 26.9891 14.205 26.8606 15.2325L24.3606 35.2325C24.2322 36.2601 23.2951 36.9889 22.2676 36.8605C21.24 36.732 20.5112 35.7949 20.6396 34.7674L23.1396 14.7674C23.2681 13.7399 24.2052 13.011 25.2327 13.1394Z" fill="#016BBF"/>
<path fill-rule="evenodd" clip-rule="evenodd" d="M34.7676 13.1394C35.7951 13.011 36.7322 13.7399 36.8606 14.7674L39.3606 34.7674C39.4891 35.7949 38.7602 36.732 37.7327 36.8605C36.7052 36.9889 35.7681 36.2601 35.6396 35.2325L33.1396 15.2325C33.0112 14.205 33.74 13.2679 34.7676 13.1394Z" fill="#016BBF"/>
<path fill-rule="evenodd" clip-rule="evenodd" d="M30.0001 33.125C31.0357 33.125 31.8751 33.9644 31.8751 35V45C31.8751 46.0355 31.0357 46.875 30.0001 46.875C28.9646 46.875 28.1251 46.0355 28.1251 45V35C28.1251 33.9644 28.9646 33.125 30.0001 33.125Z" fill="#016BBF"/>
<path fill-rule="evenodd" clip-rule="evenodd" d="M15.6251 45C15.6251 43.9644 16.4646 43.125 17.5001 43.125H42.5001C43.5357 43.125 44.3751 43.9644 44.3751 45C44.3751 46.0355 43.5357 46.875 42.5001 46.875H17.5001C16.4646 46.875 15.6251 46.0355 15.6251 45Z" fill="#016BBF"/>
</g>
</g>
</svg>
