<svg width="61" height="60" viewBox="0 0 61 60" fill="none" xmlns="http://www.w3.org/2000/svg">
<path fill-rule="evenodd" clip-rule="evenodd" d="M29.4327 5C30.3924 5 31.1705 5.7809 31.1705 6.74419V11.9767H46.811C47.2719 11.9767 47.7139 12.1605 48.0398 12.4876L54.991 19.4643C55.3169 19.7914 55.5 20.2351 55.5 20.6977C55.5 21.1603 55.3169 21.6039 54.991 21.931L48.0398 28.9077C47.7139 29.2348 47.2719 29.4186 46.811 29.4186H31.1705V51.5116H35.2254C36.1851 51.5116 36.9632 52.2925 36.9632 53.2558C36.9632 54.2191 36.1851 55 35.2254 55H23.64C22.6802 55 21.9022 54.2191 21.9022 53.2558C21.9022 52.2925 22.6802 51.5116 23.64 51.5116H27.6949V29.4186H9.7378C8.77804 29.4186 8 28.6377 8 27.6744V13.7209C8 12.7576 8.77804 11.9767 9.7378 11.9767H27.6949V6.74419C27.6949 5.7809 28.4729 5 29.4327 5ZM11.4756 15.4651V25.9302H46.0912L51.3046 20.6977L46.0912 15.4651H11.4756Z" fill="#8A8A8A"/>
</svg>
