<svg width="61" height="61" viewBox="0 0 61 61" fill="none" xmlns="http://www.w3.org/2000/svg">
<path d="M40.4511 23.8299H20.9699L25.5706 39.0838H35.4193L40.4511 23.8299Z" fill="#B3D3EC"/>
<path d="M29.25 14.4192C28.2145 14.4192 27.375 15.2587 27.375 16.2942C27.375 17.3297 28.2145 18.1692 29.25 18.1692H31.75C32.7855 18.1692 33.625 17.3297 33.625 16.2942C33.625 15.2587 32.7855 14.4192 31.75 14.4192H29.25Z" fill="#016BBF"/>
<path d="M29.25 21.9192C28.2145 21.9192 27.375 22.7587 27.375 23.7942C27.375 24.8297 28.2145 25.6692 29.25 25.6692H31.75C32.7855 25.6692 33.625 24.8297 33.625 23.7942C33.625 22.7587 32.7855 21.9192 31.75 21.9192H29.25Z" fill="#016BBF"/>
<path fill-rule="evenodd" clip-rule="evenodd" d="M8 5.04419C6.96447 5.04419 6.125 5.88366 6.125 6.91919C6.125 7.95472 6.96447 8.79419 8 8.79419H18.625V14.4192H16.75C13.6434 14.4192 11.125 16.9376 11.125 20.0442C11.125 23.1508 13.6434 25.6692 16.75 25.6692H18.7321L22.5818 37.2183C23.5176 40.0256 26.1448 41.9192 29.104 41.9192H31.8964C34.8556 41.9192 37.4828 40.0256 38.4186 37.2183L42.2683 25.6692H44.25C47.3566 25.6692 49.875 23.1508 49.875 20.0442C49.875 16.9376 47.3566 14.4192 44.25 14.4192H42.375V8.79419H53C54.0355 8.79419 54.875 7.95472 54.875 6.91919C54.875 5.88366 54.0355 5.04419 53 5.04419H8ZM38.625 14.4192V8.79419H22.375V14.4192H23C24.0355 14.4192 24.875 15.2587 24.875 16.2942C24.875 17.3297 24.0355 18.1692 23 18.1692H16.75C15.7145 18.1692 14.875 19.0087 14.875 20.0442C14.875 21.0797 15.7145 21.9192 16.75 21.9192H23C24.0355 21.9192 24.875 22.7587 24.875 23.7942C24.875 24.8297 24.0355 25.6692 23 25.6692H22.685L26.1394 36.0324C26.5647 37.3085 27.7589 38.1692 29.104 38.1692H31.8964C33.2415 38.1692 34.4357 37.3085 34.8611 36.0324L38.3155 25.6692H38C36.9645 25.6692 36.125 24.8297 36.125 23.7942C36.125 22.7587 36.9645 21.9192 38 21.9192H44.25C45.2855 21.9192 46.125 21.0797 46.125 20.0442C46.125 19.0087 45.2855 18.1692 44.25 18.1692H38C36.9645 18.1692 36.125 17.3297 36.125 16.2942C36.125 15.2587 36.9645 14.4192 38 14.4192H38.625Z" fill="#016BBF"/>
<path d="M32.375 47.5442C32.375 46.5087 31.5355 45.6692 30.5 45.6692C29.4645 45.6692 28.625 46.5087 28.625 47.5442V55.0442C28.625 56.0797 29.4645 56.9192 30.5 56.9192C31.5355 56.9192 32.375 56.0797 32.375 55.0442V47.5442Z" fill="#016BBF"/>
<path d="M22.8722 44.107C23.3899 45.0038 23.0827 46.1505 22.1859 46.6682L15.6907 50.4182C14.7939 50.936 13.6472 50.6287 13.1294 49.732C12.6116 48.8352 12.9189 47.6884 13.8157 47.1707L20.3109 43.4207C21.2077 42.9029 22.3544 43.2102 22.8722 44.107Z" fill="#016BBF"/>
<path d="M38.8155 46.6682C37.9187 46.1505 37.6115 45.0038 38.1292 44.107C38.647 43.2102 39.7937 42.9029 40.6905 43.4207L47.1857 47.1707C48.0825 47.6884 48.3898 48.8352 47.872 49.732C47.3542 50.6287 46.2075 50.936 45.3107 50.4182L38.8155 46.6682Z" fill="#016BBF"/>
</svg>
