<svg width="61" height="61" viewBox="0 0 61 61" fill="none" xmlns="http://www.w3.org/2000/svg">
<path d="M40.4512 25.7125H20.97L25.5706 39.0838H35.4193L40.4512 25.7125Z" fill="#B3D3EC"/>
<path fill-rule="evenodd" clip-rule="evenodd" d="M6.125 6.91919C6.125 5.88366 6.96447 5.04419 8 5.04419H53C54.0355 5.04419 54.875 5.88366 54.875 6.91919C54.875 7.95472 54.0355 8.79419 53 8.79419H42.375V15.0442H45.5C48.2614 15.0442 50.5 17.2828 50.5 20.0442V22.5442C50.5 25.3056 48.2614 27.5442 45.5 27.5442H41.6433L38.4186 37.2183C37.4828 40.0256 34.8556 41.9192 31.8964 41.9192H29.104C26.1448 41.9192 23.5176 40.0256 22.5818 37.2183L19.3571 27.5442H15.5C12.7386 27.5442 10.5 25.3056 10.5 22.5442V20.0442C10.5 17.2828 12.7386 15.0442 15.5 15.0442H18.625V8.79419H8C6.96447 8.79419 6.125 7.95472 6.125 6.91919ZM22.375 15.0442H38.625V8.79419H22.375V15.0442ZM23.31 27.5442L26.1394 36.0324C26.5647 37.3085 27.7589 38.1692 29.104 38.1692H31.8964C33.2415 38.1692 34.4357 37.3085 34.8611 36.0324L37.6905 27.5442H23.31ZM15.5 18.7942H45.5C46.1904 18.7942 46.75 19.3538 46.75 20.0442V22.5442C46.75 23.2345 46.1904 23.7942 45.5 23.7942H15.5C14.8096 23.7942 14.25 23.2345 14.25 22.5442V20.0442C14.25 19.3538 14.8096 18.7942 15.5 18.7942Z" fill="#016BBF"/>
<path d="M30.5 45.6692C31.5355 45.6692 32.375 46.5087 32.375 47.5442V55.0442C32.375 56.0797 31.5355 56.9192 30.5 56.9192C29.4645 56.9192 28.625 56.0797 28.625 55.0442V47.5442C28.625 46.5087 29.4645 45.6692 30.5 45.6692Z" fill="#016BBF"/>
<path d="M22.1859 46.6682C23.0827 46.1505 23.3899 45.0038 22.8722 44.107C22.3544 43.2102 21.2077 42.9029 20.3109 43.4207L13.8157 47.1707C12.9189 47.6884 12.6116 48.8352 13.1294 49.732C13.6472 50.6287 14.7939 50.936 15.6907 50.4182L22.1859 46.6682Z" fill="#016BBF"/>
<path d="M38.1292 44.107C37.6115 45.0038 37.9187 46.1505 38.8155 46.6682L45.3107 50.4182C46.2075 50.936 47.3542 50.6287 47.872 49.732C48.3898 48.8352 48.0825 47.6884 47.1857 47.1707L40.6905 43.4207C39.7937 42.9029 38.647 43.2102 38.1292 44.107Z" fill="#016BBF"/>
</svg>
