<svg width="61" height="60" viewBox="0 0 61 60" fill="none" xmlns="http://www.w3.org/2000/svg">
<g id="toggle icons">
<g id="Union">
<path d="M29 13.4375C27.9645 13.4375 27.125 14.277 27.125 15.3125C27.125 16.348 27.9645 17.1875 29 17.1875H31.5C32.5355 17.1875 33.375 16.348 33.375 15.3125C33.375 14.277 32.5355 13.4375 31.5 13.4375H29Z" fill="#8A8A8A"/>
<path d="M29 20.9375C27.9645 20.9375 27.125 21.777 27.125 22.8125C27.125 23.848 27.9645 24.6875 29 24.6875H31.5C32.5355 24.6875 33.375 23.848 33.375 22.8125C33.375 21.777 32.5355 20.9375 31.5 20.9375H29Z" fill="#8A8A8A"/>
<path fill-rule="evenodd" clip-rule="evenodd" d="M7.75 4.0625C6.71447 4.0625 5.875 4.90197 5.875 5.9375C5.875 6.97303 6.71447 7.8125 7.75 7.8125H18.375V13.4375H16.5C13.3934 13.4375 10.875 15.9559 10.875 19.0625C10.875 22.1691 13.3934 24.6875 16.5 24.6875H18.4821L22.3318 36.2366C23.2676 39.0439 25.8948 40.9375 28.854 40.9375H31.6464C34.6056 40.9375 37.2328 39.0439 38.1686 36.2366L42.0183 24.6875H44C47.1066 24.6875 49.625 22.1691 49.625 19.0625C49.625 15.9559 47.1066 13.4375 44 13.4375H42.125V7.8125H52.75C53.7855 7.8125 54.625 6.97303 54.625 5.9375C54.625 4.90197 53.7855 4.0625 52.75 4.0625H7.75ZM38.375 13.4375V7.8125H22.125V13.4375H22.75C23.7855 13.4375 24.625 14.277 24.625 15.3125C24.625 16.348 23.7855 17.1875 22.75 17.1875H16.5C15.4645 17.1875 14.625 18.027 14.625 19.0625C14.625 20.098 15.4645 20.9375 16.5 20.9375H22.75C23.7855 20.9375 24.625 21.777 24.625 22.8125C24.625 23.848 23.7855 24.6875 22.75 24.6875H22.435L25.8894 35.0507C26.3147 36.3268 27.5089 37.1875 28.854 37.1875H31.6464C32.9915 37.1875 34.1857 36.3268 34.6111 35.0507L38.0655 24.6875H37.75C36.7145 24.6875 35.875 23.848 35.875 22.8125C35.875 21.777 36.7145 20.9375 37.75 20.9375H44C45.0355 20.9375 45.875 20.098 45.875 19.0625C45.875 18.027 45.0355 17.1875 44 17.1875H37.75C36.7145 17.1875 35.875 16.348 35.875 15.3125C35.875 14.277 36.7145 13.4375 37.75 13.4375H38.375Z" fill="#8A8A8A"/>
<path d="M32.125 46.5625C32.125 45.527 31.2855 44.6875 30.25 44.6875C29.2145 44.6875 28.375 45.527 28.375 46.5625V54.0625C28.375 55.098 29.2145 55.9375 30.25 55.9375C31.2855 55.9375 32.125 55.098 32.125 54.0625V46.5625Z" fill="#8A8A8A"/>
<path d="M22.6222 43.1253C23.1399 44.0221 22.8327 45.1688 21.9359 45.6866L15.4407 49.4366C14.5439 49.9543 13.3972 49.6471 12.8794 48.7503C12.3616 47.8535 12.6689 46.7067 13.5657 46.189L20.0609 42.439C20.9577 41.9212 22.1044 42.2285 22.6222 43.1253Z" fill="#8A8A8A"/>
<path d="M38.5655 45.6866C37.6687 45.1688 37.3615 44.0221 37.8792 43.1253C38.397 42.2285 39.5437 41.9212 40.4405 42.439L46.9357 46.189C47.8325 46.7067 48.1398 47.8535 47.622 48.7503C47.1042 49.6471 45.9575 49.9543 45.0607 49.4366L38.5655 45.6866Z" fill="#8A8A8A"/>
</g>
</g>
</svg>
