<svg width="61" height="60" viewBox="0 0 61 60" fill="none" xmlns="http://www.w3.org/2000/svg">
<g id="toggle icons">
<g id="Union">
<path fill-rule="evenodd" clip-rule="evenodd" d="M6.375 5.9375C6.375 4.90197 7.21447 4.0625 8.25 4.0625H53.25C54.2855 4.0625 55.125 4.90197 55.125 5.9375C55.125 6.97303 54.2855 7.8125 53.25 7.8125H42.625V14.0625H45.75C48.5114 14.0625 50.75 16.3011 50.75 19.0625V21.5625C50.75 24.3239 48.5114 26.5625 45.75 26.5625H41.8933L38.6686 36.2366C37.7328 39.0439 35.1056 40.9375 32.1464 40.9375H29.354C26.3948 40.9375 23.7676 39.0439 22.8318 36.2366L19.6071 26.5625H15.75C12.9886 26.5625 10.75 24.3239 10.75 21.5625V19.0625C10.75 16.3011 12.9886 14.0625 15.75 14.0625H18.875V7.8125H8.25C7.21447 7.8125 6.375 6.97303 6.375 5.9375ZM22.625 14.0625H38.875V7.8125H22.625V14.0625ZM23.56 26.5625L26.3894 35.0507C26.8147 36.3268 28.0089 37.1875 29.354 37.1875H32.1464C33.4915 37.1875 34.6857 36.3268 35.1111 35.0507L37.9405 26.5625H23.56ZM15.75 17.8125H45.75C46.4404 17.8125 47 18.3721 47 19.0625V21.5625C47 22.2529 46.4404 22.8125 45.75 22.8125H15.75C15.0596 22.8125 14.5 22.2529 14.5 21.5625V19.0625C14.5 18.3721 15.0596 17.8125 15.75 17.8125Z" fill="#8A8A8A"/>
<path d="M30.75 44.6875C31.7855 44.6875 32.625 45.527 32.625 46.5625V54.0625C32.625 55.098 31.7855 55.9375 30.75 55.9375C29.7145 55.9375 28.875 55.098 28.875 54.0625V46.5625C28.875 45.527 29.7145 44.6875 30.75 44.6875Z" fill="#8A8A8A"/>
<path d="M22.4359 45.6866C23.3327 45.1688 23.6399 44.0221 23.1222 43.1253C22.6044 42.2285 21.4577 41.9212 20.5609 42.439L14.0657 46.189C13.1689 46.7067 12.8616 47.8535 13.3794 48.7503C13.8972 49.6471 15.0439 49.9543 15.9407 49.4366L22.4359 45.6866Z" fill="#8A8A8A"/>
<path d="M38.3792 43.1253C37.8615 44.0221 38.1687 45.1688 39.0655 45.6866L45.5607 49.4366C46.4575 49.9543 47.6042 49.6471 48.122 48.7503C48.6398 47.8535 48.3325 46.7067 47.4357 46.189L40.9405 42.439C40.0437 41.9212 38.897 42.2285 38.3792 43.1253Z" fill="#8A8A8A"/>
</g>
</g>
</svg>
