<svg width="25" height="24" viewBox="0 0 25 24" fill="none" xmlns="http://www.w3.org/2000/svg">
<path fill-rule="evenodd" clip-rule="evenodd" d="M7.16651 3.25C7.58072 3.25 7.91651 3.58579 7.91651 4V5.25003C7.98168 5.24999 8.04768 5.25 8.1145 5.25H16.2185C16.2853 5.25 16.3513 5.24999 16.4165 5.25003V4C16.4165 3.58579 16.7523 3.25 17.1665 3.25C17.5807 3.25 17.9165 3.58579 17.9165 4V5.27927C18.1104 5.29092 18.2919 5.30718 18.461 5.32991C19.0888 5.41432 19.6556 5.59999 20.111 6.05546C20.5665 6.51093 20.7522 7.07773 20.8366 7.70552C20.902 8.19236 20.9139 8.78266 20.916 9.47359C20.9166 9.4898 20.9167 9.50603 20.9162 9.52224C20.9165 9.66021 20.9165 9.80214 20.9165 9.94801V12.052C20.9165 12.9505 20.9166 13.6997 20.8366 14.2945C20.7522 14.9223 20.5665 15.4891 20.111 15.9445C19.6556 16.4 19.0888 16.5857 18.461 16.6701C18.2919 16.6928 18.1104 16.7091 17.9165 16.7207V19.25H19.1665C19.5807 19.25 19.9165 19.5858 19.9165 20C19.9165 20.4142 19.5807 20.75 19.1665 20.75H15.1665C14.7523 20.75 14.4165 20.4142 14.4165 20C14.4165 19.5858 14.7523 19.25 15.1665 19.25H16.4165V16.75C16.3513 16.75 16.2853 16.75 16.2185 16.75H8.11451C8.04768 16.75 7.98168 16.75 7.91651 16.75V19.25H9.16651C9.58072 19.25 9.91651 19.5858 9.91651 20C9.91651 20.4142 9.58072 20.75 9.16651 20.75H5.16651C4.75229 20.75 4.41651 20.4142 4.41651 20C4.41651 19.5858 4.75229 19.25 5.16651 19.25H6.41651V16.7207C6.22262 16.7091 6.04108 16.6928 5.87203 16.6701C5.24423 16.5857 4.67743 16.4 4.22196 15.9445C3.76649 15.4891 3.58082 14.9223 3.49642 14.2945C3.47164 14.1102 3.45455 13.9111 3.44275 13.6973C3.41334 13.589 3.40863 13.4752 3.42871 13.3651C3.41647 12.9706 3.41649 12.5327 3.41651 12.052V9.948C3.41648 9.04952 3.41645 8.3003 3.49642 7.70552C3.58082 7.07773 3.76649 6.51093 4.22196 6.05546C4.67743 5.59999 5.24423 5.41432 5.87203 5.32991C6.04108 5.30718 6.22262 5.29092 6.41651 5.27927V4C6.41651 3.58579 6.75229 3.25 7.16651 3.25ZM4.95033 13.7724C4.95889 13.8877 4.96961 13.9947 4.98304 14.0946C5.04508 14.5561 5.15231 14.7536 5.28262 14.8839C5.41294 15.0142 5.61044 15.1214 6.0719 15.1835C6.40502 15.2283 6.81638 15.2429 7.35582 15.2477L15.7675 6.75H11.8449L4.95033 13.7724ZM9.74277 6.75L4.91651 11.6658V10C4.91651 9.03599 4.9181 8.38843 4.98304 7.90539C5.04508 7.44393 5.15231 7.24643 5.28262 7.11612C5.41294 6.9858 5.61044 6.87858 6.0719 6.81654C6.55493 6.75159 7.20249 6.75 8.16651 6.75H9.74277ZM17.8506 6.77779L9.46415 15.25H13.3558L19.4142 9.19163C19.4095 8.65105 19.3948 8.23899 19.35 7.90539C19.2879 7.44393 19.1807 7.24643 19.0504 7.11612C18.9201 6.9858 18.7226 6.87858 18.2611 6.81654C18.1362 6.79974 18.0002 6.78718 17.8506 6.77779ZM19.4165 11.3107L15.4772 15.25H16.1665C17.1305 15.25 17.7781 15.2484 18.2611 15.1835C18.7226 15.1214 18.9201 15.0142 19.0504 14.8839C19.1807 14.7536 19.2879 14.5561 19.35 14.0946C19.4149 13.6116 19.4165 12.964 19.4165 12V11.3107Z" fill="#8A8A8A"/>
</svg>
