<svg width="61" height="60" viewBox="0 0 61 60" fill="none" xmlns="http://www.w3.org/2000/svg">
<g id="toggle icons">
<g id="Union">
<path fill-rule="evenodd" clip-rule="evenodd" d="M37.9223 13.6967C37.8498 14.3017 37.9594 15.1406 38.1368 16.0397C38.2049 16.385 38.283 16.7391 38.3646 17.0923L38.4094 17.2845C38.4698 17.5422 38.5315 17.7984 38.5919 18.0493C38.7392 18.6609 38.8788 19.2408 38.9741 19.7333C39.6184 23.0615 38.4481 29.0625 30.5592 29.0625C25.9885 29.0625 19.1649 24.3089 22.5214 16.3886C22.7518 15.8449 23.0302 15.2862 23.3606 14.7132C23.5425 14.3977 23.7402 14.0778 23.9543 13.7537C24.2047 13.3746 24.4775 12.9896 24.7739 12.599C24.8506 12.4979 24.9212 12.403 24.9864 12.3154L25.0558 12.2223C25.445 11.7009 25.6194 11.4977 25.7122 11.9433C25.7649 12.1963 25.7914 12.6582 25.816 13.3896L25.8258 13.6965C25.8533 14.5946 25.9923 15.1339 26.2086 15.3909C26.55 15.7965 27.0838 15.4994 27.6752 14.8002C27.6974 14.7739 27.7197 14.747 27.7421 14.7196C27.9926 14.4129 28.2524 14.0371 28.5114 13.6145C28.6608 13.3708 28.81 13.1115 28.957 12.841C29.1357 12.512 29.3112 12.1663 29.4801 11.8117C29.535 11.6964 29.5891 11.5802 29.6425 11.4634C30.461 9.66999 31.0852 7.71695 31.0852 6.5625C31.8354 7.54107 32.9268 9.32582 33.6509 11.3791L33.6934 11.5012C33.8959 12.0903 34.0672 12.7005 34.1911 13.3192C34.3851 14.2889 34.4624 15.2795 34.3592 16.2428C34.3323 16.4938 34.2932 16.7429 34.2407 16.9894C34.2968 16.8724 34.3594 16.7474 34.4277 16.617C35.0238 15.4787 36.0576 13.9229 37.0289 13.5897C37.3384 13.4835 37.6416 13.5015 37.9223 13.6967ZM34.7869 23.6579C35.3319 22.7864 35.4722 21.5554 35.3165 20.5819C34.5912 20.7994 33.7956 20.7994 33.0315 20.5391C31.5775 20.0437 30.6087 18.7326 30.5004 17.2665C30.4538 17.3209 30.4068 17.3745 30.3593 17.4274C29.9673 17.8637 29.0568 18.8158 27.6838 19.1792C27.0665 19.3427 26.3122 19.395 25.5264 19.1923C25.1502 20.8443 25.5573 21.9696 25.9931 22.6767C27.0177 24.3391 29.1407 25.3125 30.5592 25.3125C33.4216 25.3125 34.3789 24.3106 34.7869 23.6579ZM29.6035 13.9576C29.6035 13.9576 29.6027 13.9541 29.6015 13.9466L29.6035 13.9576Z" fill="#8A8A8A"/>
<path fill-rule="evenodd" clip-rule="evenodd" d="M9.89066 34.7507C10.0613 34.7049 10.2398 34.6828 10.4215 34.6875H11.5235L13.5961 28.4696C13.8514 27.7039 14.5679 27.1875 15.3749 27.1875H20.3749C21.4105 27.1875 22.2499 28.027 22.2499 29.0625C22.2499 30.098 21.4105 30.9375 20.3749 30.9375H16.7264L15.4764 34.6875H45.2735L44.0235 30.9375H40.3749C39.3394 30.9375 38.4999 30.098 38.4999 29.0625C38.4999 28.027 39.3394 27.1875 40.3749 27.1875H45.3749C46.182 27.1875 46.8985 27.7039 47.1537 28.4696L49.2264 34.6875H50.3289C50.5301 34.6823 50.7275 34.7099 50.9146 34.7663C51.439 34.9243 51.8827 35.3088 52.1033 35.8342C52.1441 35.9307 52.1769 36.0313 52.2011 36.1353L54.6867 46.0774C54.7022 46.1355 54.715 46.1947 54.7249 46.2548C54.7703 46.5258 54.7545 46.7949 54.6869 47.0469C54.6231 47.286 54.5133 47.5063 54.3675 47.6977C54.2057 47.9105 53.998 48.0899 53.7543 48.219C53.5394 48.3333 53.2997 48.407 53.0454 48.4299C52.9771 48.4362 52.9091 48.4387 52.8417 48.4375H49.75V51.5625C49.75 52.598 48.9106 53.4375 47.875 53.4375C46.8395 53.4375 46 52.598 46 51.5625V48.4375H14.75L14.75 51.5625C14.75 52.598 13.9106 53.4375 12.875 53.4375C11.8395 53.4375 11 52.598 11 51.5625L11 48.4375H7.90875C7.84512 48.4386 7.78101 48.4364 7.71665 48.4309C7.41954 48.4061 7.14213 48.3119 6.90061 48.1647C6.44291 47.8858 6.11413 47.4162 6.02453 46.8663C5.99922 46.7128 5.99289 46.5544 6.00745 46.3945C6.01759 46.2804 6.03794 46.1692 6.06761 46.0619L8.54535 36.1509C8.58235 35.9857 8.64114 35.8288 8.71855 35.6833C8.84757 35.4396 9.02687 35.2319 9.23964 35.0702C9.4311 34.9243 9.65147 34.8144 9.89066 34.7507ZM50.4738 44.6875L48.9113 38.4375H47.9182C47.8891 38.4382 47.8601 38.4382 47.8311 38.4375H12.9187C12.8898 38.4382 12.8608 38.4382 12.8317 38.4375H11.8391L10.2766 44.6875H50.4738Z" fill="#8A8A8A"/>
</g>
</g>
</svg>
