<svg width="61" height="60" viewBox="0 0 61 60" fill="none" xmlns="http://www.w3.org/2000/svg">
<path fill-rule="evenodd" clip-rule="evenodd" d="M41.213 22.4419V23.0233C41.213 24.6287 42.5145 25.9302 44.12 25.9302H44.7014V22.4419H41.213Z" fill="#B3D3EC"/>
<path fill-rule="evenodd" clip-rule="evenodd" d="M27.2883 29.5884L30.5781 32.8782C30.4437 32.8972 30.3063 32.907 30.1665 32.907C28.561 32.907 27.2595 31.6055 27.2595 30C27.2595 29.8602 27.2693 29.7228 27.2883 29.5884ZM19.12 22.4419H15.6316V25.9302H16.213C17.8185 25.9302 19.12 24.6287 19.12 23.0233V22.4419ZM15.6316 34.0698V37.5581H19.12V36.9767C19.12 35.3713 17.8185 34.0698 16.213 34.0698H15.6316Z" fill="#B3D3EC"/>
<path fill-rule="evenodd" clip-rule="evenodd" d="M37.7246 22.4419H27.8409C26.8776 22.4419 26.0967 21.661 26.0967 20.6977C26.0967 19.7344 26.8776 18.9535 27.8409 18.9535H46.4456C47.4089 18.9535 48.1898 19.7344 48.1898 20.6977V36.9767C48.1898 37.94 47.4089 38.7209 46.4456 38.7209C45.4823 38.7209 44.7014 37.94 44.7014 36.9767V34.138C44.5536 34.1618 44.4362 34.1935 44.3315 34.2354C44.1485 34.3086 43.8299 34.4797 43.3543 35.431C42.9236 36.2927 41.876 36.642 41.0144 36.2113C40.1527 35.7806 39.8034 34.7329 40.2341 33.8713C40.9213 32.4965 41.7656 31.5046 43.036 30.9965C43.5696 30.783 44.1381 30.6789 44.7014 30.6282V29.4186H44.12C40.5879 29.4186 37.7246 26.5553 37.7246 23.0233V22.4419ZM41.213 22.4419V23.0233C41.213 24.6287 42.5145 25.9302 44.12 25.9302H44.7014V22.4419H41.213Z" fill="#016BBF"/>
<path fill-rule="evenodd" clip-rule="evenodd" d="M5.1665 30C5.1665 16.1929 16.3594 5 30.1665 5C43.9736 5 55.1665 16.1929 55.1665 30C55.1665 43.8071 43.9736 55 30.1665 55C16.3594 55 5.1665 43.8071 5.1665 30ZM13.7719 16.0721C10.5805 19.825 8.65488 24.6876 8.65488 30C8.65488 41.8805 18.286 51.5116 30.1665 51.5116C35.4789 51.5116 40.3415 49.586 44.0944 46.3946L38.7464 41.0465H13.8874C12.9241 41.0465 12.1432 40.2656 12.1432 39.3023V20.6977C12.1432 19.7344 12.9241 18.9535 13.8874 18.9535H16.6533L13.7719 16.0721ZM16.2386 13.6054L34.6018 31.9687C34.6321 31.995 34.6617 32.0226 34.6906 32.0514C34.7202 32.081 34.7485 32.1113 34.7756 32.1424L46.5611 43.9279C49.7525 40.175 51.6781 35.3124 51.6781 30C51.6781 18.1195 42.047 8.48837 30.1665 8.48837C24.8541 8.48837 19.9915 10.414 16.2386 13.6054ZM27.2883 29.5884L30.5781 32.8782C30.4437 32.8972 30.3063 32.907 30.1665 32.907C28.561 32.907 27.2595 31.6055 27.2595 30C27.2595 29.8602 27.2693 29.7228 27.2883 29.5884ZM22.3892 24.6893L24.5818 26.882C24.0659 27.8046 23.7712 28.8687 23.7712 30C23.7712 33.5321 26.6344 36.3953 30.1665 36.3953C31.298 36.3953 32.3621 36.1005 33.2845 35.5847L35.258 37.5581H22.6084V36.9767C22.6084 33.4447 19.7451 30.5814 16.213 30.5814H15.6316V29.4186H16.213C19.1687 29.4186 21.6561 27.4135 22.3892 24.6893ZM19.12 22.4419H15.6316V25.9302H16.213C17.8185 25.9302 19.12 24.6287 19.12 23.0233V22.4419ZM15.6316 34.0698V37.5581H19.12V36.9767C19.12 35.3713 17.8185 34.0698 16.213 34.0698H15.6316Z" fill="#016BBF"/>
</svg>
