<svg width="61" height="60" viewBox="0 0 61 60" fill="none" xmlns="http://www.w3.org/2000/svg">
<g id="toggle icons">
<g id="Union">
<path fill-rule="evenodd" clip-rule="evenodd" d="M12.8359 15.625H18.4609V12.5C18.4609 10.6766 19.1853 8.92795 20.4746 7.63864C21.7639 6.34933 23.5126 5.625 25.3359 5.625H35.3359C37.1593 5.625 38.908 6.34933 40.1973 7.63864C41.4866 8.92795 42.2109 10.6766 42.2109 12.5V15.625H47.8359C49.6593 15.625 51.408 16.3493 52.6973 17.6386C53.9866 18.928 54.7109 20.6766 54.7109 22.5V45C54.7109 46.8234 53.9866 48.572 52.6973 49.8614C51.408 51.1507 49.6593 51.875 47.8359 51.875H42.8359C41.8004 51.875 40.9609 51.0355 40.9609 50C40.9609 48.9645 41.8004 48.125 42.8359 48.125H47.8359C48.6647 48.125 49.4596 47.7958 50.0456 47.2097C50.6317 46.6237 50.9609 45.8288 50.9609 45V22.5C50.9609 21.6712 50.6317 20.8763 50.0456 20.2903C49.4596 19.7042 48.6647 19.375 47.8359 19.375H12.8359C12.0071 19.375 11.2123 19.7042 10.6262 20.2903C10.0402 20.8763 9.71094 21.6712 9.71094 22.5V45C9.71094 45.8288 10.0402 46.6237 10.6262 47.2097C11.2123 47.7958 12.0071 48.125 12.8359 48.125H17.8359C18.8715 48.125 19.7109 48.9645 19.7109 50C19.7109 51.0355 18.8715 51.875 17.8359 51.875H12.8359C11.0126 51.875 9.26389 51.1507 7.97458 49.8614C6.68527 48.572 5.96094 46.8234 5.96094 45V22.5C5.96094 20.6766 6.68527 18.928 7.97458 17.6386C9.26389 16.3493 11.0126 15.625 12.8359 15.625ZM25.3359 9.375C24.5071 9.375 23.7123 9.70424 23.1262 10.2903C22.5402 10.8763 22.2109 11.6712 22.2109 12.5V15.625H38.4609V12.5C38.4609 11.6712 38.1317 10.8763 37.5456 10.2903C36.9596 9.70424 36.1647 9.375 35.3359 9.375H25.3359Z" fill="#8A8A8A"/>
<path fill-rule="evenodd" clip-rule="evenodd" d="M31.7823 36.5979L31.7823 40.8857C32.901 41.203 33.9314 41.8018 34.7682 42.6386C36.0575 43.928 36.7819 45.6766 36.7819 47.5C36.7819 49.3234 36.0575 51.072 34.7682 52.3614C33.4789 53.6507 31.7302 54.375 29.9069 54.375C28.0835 54.375 26.3348 53.6507 25.0455 52.3614C23.7562 51.072 23.0319 49.3234 23.0319 47.5C23.0319 45.6766 23.7562 43.928 25.0455 42.6386C25.8826 41.8016 26.9133 41.2026 28.0323 40.8855L28.0324 27.6524C28.0324 26.6168 28.8718 25.7774 29.9074 25.7774L35.2107 25.7774C36.2462 25.7774 37.0857 26.6168 37.0857 27.6524C37.0857 28.6879 36.2462 29.5274 35.2107 29.5274L31.7824 29.5274L31.7824 32.8479H35.2111C36.2466 32.8479 37.0861 33.6874 37.0861 34.7229C37.0861 35.7584 36.2466 36.5979 35.2111 36.5979H31.7823ZM27.6971 45.2903C28.2832 44.7042 29.0781 44.375 29.9069 44.375C30.7357 44.375 31.5305 44.7042 32.1166 45.2903C32.7026 45.8763 33.0319 46.6712 33.0319 47.5C33.0319 48.3288 32.7026 49.1237 32.1166 49.7097C31.5305 50.2958 30.7357 50.625 29.9069 50.625C29.0781 50.625 28.2832 50.2958 27.6971 49.7097C27.1111 49.1237 26.7819 48.3288 26.7819 47.5C26.7819 46.6712 27.1111 45.8763 27.6971 45.2903Z" fill="#8A8A8A"/>
</g>
</g>
</svg>
