<svg width="61" height="60" viewBox="0 0 61 60" fill="none" xmlns="http://www.w3.org/2000/svg">
<path d="M40.1368 14.3582C40.1368 15.202 38.852 15.8861 37.2672 15.8861C35.6823 15.8861 34.3975 15.202 34.3975 14.3582C34.3975 13.5144 35.6823 12.8304 37.2672 12.8304C38.852 12.8304 40.1368 13.5144 40.1368 14.3582Z" fill="#8A8A8A"/>
<path d="M49.7019 14.3582C49.7019 15.202 48.4171 15.8861 46.8323 15.8861C45.2474 15.8861 43.9626 15.202 43.9626 14.3582C43.9626 13.5144 45.2474 12.8304 46.8323 12.8304C48.4171 12.8304 49.7019 13.5144 49.7019 14.3582Z" fill="#8A8A8A"/>
<path fill-rule="evenodd" clip-rule="evenodd" d="M28.8498 15.8859C28.8498 9.53568 35.1382 5 42.0501 5C48.9621 5 55.2505 9.53568 55.2505 15.8859C55.2505 22.2361 48.9621 26.7717 42.0501 26.7717C35.1382 26.7717 28.8498 22.2361 28.8498 15.8859ZM32.2934 15.8859C32.2934 13.4323 33.9784 11.0222 36.741 9.63521C38.2636 10.3599 39.669 11.0077 42.0767 11.0077C44.4747 11.0077 45.8682 10.3652 47.3767 9.64402C50.129 11.0324 51.8069 13.4375 51.8069 15.8859C51.8069 17.233 51.299 18.567 50.3836 19.7258C48.1364 19.4021 46.6907 18.8156 45.4552 18.3143C44.2445 17.8232 43.2356 17.4139 41.8722 17.4139C40.5088 17.4139 39.5659 17.8232 38.4344 18.3143C37.277 18.8167 35.9223 19.4048 33.7185 19.7281C32.802 18.5687 32.2934 17.2338 32.2934 15.8859Z" fill="#8A8A8A"/>
<path fill-rule="evenodd" clip-rule="evenodd" d="M12.1619 41.7153C13.4711 40.6733 15.1413 40.1931 16.8051 40.3805C18.469 40.5678 19.9901 41.4073 21.0339 42.7143C21.7114 43.5626 22.1518 44.5627 22.3261 45.6144L28.5046 46.3101C28.9092 45.3234 29.5617 44.4462 30.4116 43.7698C31.7208 42.7278 33.391 42.2477 35.0548 42.435C36.7187 42.6224 38.2398 43.4618 39.2836 44.7688C39.9612 45.6172 40.4016 46.6175 40.5758 47.6693L46.5169 48.3383L47.0959 43.2143C47.1812 42.4593 46.9626 41.7014 46.4881 41.1074C45.8953 40.3651 46.0175 39.2837 46.761 38.6919C47.5046 38.1001 48.5879 38.2221 49.1807 38.9644C50.2245 40.2713 50.7054 41.9387 50.5178 43.5996L49.7458 50.4316C49.6392 51.3749 48.7868 52.0533 47.8419 51.9469L40.1898 51.0853C39.7852 52.0719 39.1327 52.9491 38.2829 53.6255C36.9737 54.6675 35.3034 55.1476 33.6396 54.9603C31.9758 54.7729 30.4547 53.9334 29.4109 52.6265C28.7333 51.7781 28.2929 50.7778 28.1186 49.726L21.9403 49.0304C21.5357 50.0171 20.8831 50.8945 20.0332 51.5709C18.724 52.6129 17.0537 53.0931 15.3899 52.9057C13.7261 52.7184 12.205 51.8789 11.1612 50.572C10.4835 49.7235 10.0431 48.7231 9.86886 47.6711L6.77944 47.3232C5.83452 47.2168 5.15491 46.3659 5.26149 45.4226L6.54806 34.036C6.58616 33.6988 6.72339 33.3804 6.94246 33.1209L12.2769 26.8027C12.6479 26.3633 13.2144 26.138 13.7864 26.2024L29.7551 28.0005C30.1253 28.0422 30.472 28.2026 30.7431 28.4577L38.2097 35.4831L44.4851 32.2559C45.3304 31.8212 46.3688 32.1529 46.8042 32.9968C47.2397 33.8407 46.9074 34.8772 46.0621 35.3119L38.7037 39.096C38.4015 39.2514 38.06 39.314 37.7222 39.276L9.77695 36.1293L8.87635 44.0999L10.255 44.2552C10.6597 43.2687 11.3121 42.3916 12.1619 41.7153ZM18.3413 44.8573C18.8119 45.4465 19.0308 46.1969 18.9511 46.9458L18.949 46.9638L18.9468 46.9839C18.8571 47.7312 18.4764 48.4135 17.8865 48.883C17.2914 49.3567 16.5322 49.5749 15.7759 49.4898C15.0196 49.4046 14.3282 49.023 13.8537 48.4289C13.3793 47.8349 13.1607 47.077 13.246 46.322C13.3313 45.567 13.7135 44.8768 14.3086 44.4032C14.9037 43.9295 15.6629 43.7113 16.4192 43.7965C17.1755 43.8816 17.8669 44.2632 18.3413 44.8573ZM31.4958 48.3766L31.4935 48.3964C31.4142 49.1448 31.6331 49.8946 32.1034 50.4835C32.5779 51.0775 33.2693 51.4591 34.0256 51.5443C34.7819 51.6294 35.5411 51.4112 36.1361 50.9376C36.7312 50.4639 37.1135 49.7737 37.1988 49.0187C37.2841 48.2637 37.0655 47.5059 36.591 46.9118C36.1166 46.3177 35.4251 45.9361 34.6689 45.851C33.9126 45.7658 33.1534 45.9841 32.5583 46.4577C31.9684 46.9272 31.5877 47.6095 31.498 48.3568L31.4958 48.3766ZM11.6489 32.8806L22.7098 34.1261L23.0957 30.7101L14.3161 29.7215L11.6489 32.8806ZM26.5176 31.0954L26.1316 34.5114L32.9754 35.282L28.7989 31.3523L26.5176 31.0954Z" fill="#8A8A8A"/>
</svg>
