<svg width="61" height="60" viewBox="0 0 61 60" fill="none" xmlns="http://www.w3.org/2000/svg">
<path fill-rule="evenodd" clip-rule="evenodd" d="M46.2188 16.3457C45.3687 16.3457 44.5535 16.6834 43.9524 17.2845C43.3514 17.8855 43.0137 18.7008 43.0137 19.5508C43.0137 20.4009 43.3514 21.2161 43.9524 21.8172C44.5535 22.4183 45.3687 22.756 46.2188 22.756C47.0689 22.756 47.8841 22.4183 48.4852 21.8172C49.0862 21.2161 49.4239 20.4009 49.4239 19.5508C49.4239 18.7008 49.0862 17.8855 48.4852 17.2845C47.8841 16.6834 47.0689 16.3457 46.2188 16.3457Z" fill="#B3D3EC"/>
<path fill-rule="evenodd" clip-rule="evenodd" d="M13.0275 14.5653C14.3498 13.2429 16.1434 12.5 18.0135 12.5C19.8836 12.5 21.6771 13.2429 22.9995 14.5653C24.3219 15.8876 25.0648 17.6812 25.0648 19.5513C25.0648 21.4214 24.3219 23.2149 22.9995 24.5373C21.6771 25.8597 19.8836 26.6026 18.0135 26.6026C16.1434 26.6026 14.3498 25.8597 13.0275 24.5373C11.7051 23.2149 10.9622 21.4214 10.9622 19.5513C10.9622 17.6812 11.7051 15.8876 13.0275 14.5653ZM18.0135 16.3462C17.1634 16.3462 16.3482 16.6838 15.7471 17.2849C15.146 17.886 14.8083 18.7012 14.8083 19.5513C14.8083 20.4013 15.146 21.2166 15.7471 21.8177C16.3482 22.4187 17.1634 22.7564 18.0135 22.7564C18.8635 22.7564 19.6788 22.4187 20.2798 21.8177C20.8809 21.2166 21.2186 20.4013 21.2186 19.5513C21.2186 18.7012 20.8809 17.886 20.2798 17.2849C19.6788 16.6838 18.8635 16.3462 18.0135 16.3462Z" fill="#016BBF"/>
<path d="M15.2784 31.7308C13.8503 31.7308 12.443 32.3481 11.3776 33.5104C10.3071 34.6782 9.68014 36.2953 9.68014 38.0128V45.1923C9.68014 46.2544 8.81915 47.1154 7.75706 47.1154C6.69498 47.1154 5.83398 46.2544 5.83398 45.1923V38.0128C5.83398 35.378 6.79188 32.8211 8.54241 30.9114C10.2981 28.9962 12.7169 27.8846 15.2784 27.8846H20.7485C23.3644 27.8846 25.323 29.1928 26.8729 30.8054L30.4541 32.596L34.6022 28.4479C35.3532 27.6969 36.5708 27.6969 37.3218 28.4479C38.0728 29.1989 38.0728 30.4165 37.3218 31.1675L32.1936 36.2957C31.6083 36.881 30.7141 37.0261 29.9738 36.656L24.8815 34.1098C24.7809 34.0621 24.6836 34.0053 24.591 33.9393C24.4661 33.8507 24.3542 33.7488 24.2564 33.6367C23.0369 32.3163 21.9687 31.7308 20.7485 31.7308H15.2784Z" fill="#016BBF"/>
<path d="M25.7058 36.0897C26.7679 36.0897 27.6289 36.9507 27.6289 38.0128V45.1923C27.6289 46.2544 26.7679 47.1154 25.7058 47.1154C24.6437 47.1154 23.7827 46.2544 23.7827 45.1923V38.0128C23.7827 36.9507 24.6437 36.0897 25.7058 36.0897Z" fill="#016BBF"/>
<path fill-rule="evenodd" clip-rule="evenodd" d="M41.2326 14.5653C42.555 13.2429 44.3485 12.5 46.2186 12.5C48.0887 12.5 49.8822 13.2429 51.2046 14.5653C52.527 15.8876 53.2699 17.6812 53.2699 19.5513C53.2699 21.4214 52.527 23.2149 51.2046 24.5373C49.8822 25.8597 48.0887 26.6026 46.2186 26.6026C44.3485 26.6026 42.555 25.8597 41.2326 24.5373C39.9102 23.2149 39.1673 21.4214 39.1673 19.5513C39.1673 17.6812 39.9102 15.8876 41.2326 14.5653ZM46.2186 16.3462C45.3685 16.3462 44.5533 16.6838 43.9522 17.2849C43.3512 17.886 43.0135 18.7012 43.0135 19.5513C43.0135 20.4013 43.3512 21.2166 43.9522 21.8177C44.5533 22.4187 45.3685 22.7564 46.2186 22.7564C47.0687 22.7564 47.8839 22.4187 48.485 21.8177C49.086 21.2166 49.4237 20.4013 49.4237 19.5513C49.4237 18.7012 49.086 17.886 48.485 17.2849C47.8839 16.6838 47.0687 16.3462 46.2186 16.3462Z" fill="#016BBF"/>
<path d="M42.1469 33.5104C43.2122 32.3481 44.6196 31.7308 46.0477 31.7308H46.3895C47.8176 31.7308 49.225 32.3481 50.2903 33.5104C51.3609 34.6782 51.9878 36.2953 51.9878 38.0128V45.1923C51.9878 46.2544 52.8488 47.1154 53.9109 47.1154C54.973 47.1154 55.834 46.2544 55.834 45.1923V38.0128C55.834 35.378 54.8761 32.8211 53.1256 30.9114C51.3699 28.9962 48.951 27.8846 46.3895 27.8846H46.0477C43.4862 27.8846 41.0673 28.9962 39.3116 30.9114C37.5611 32.8211 36.6032 35.378 36.6032 38.0128V45.1923C36.6032 46.2544 37.4642 47.1154 38.5263 47.1154C39.5884 47.1154 40.4494 46.2544 40.4494 45.1923V38.0128C40.4494 36.2953 41.0763 34.6782 42.1469 33.5104Z" fill="#016BBF"/>
</svg>
