<svg width="61" height="60" viewBox="0 0 61 60" fill="none" xmlns="http://www.w3.org/2000/svg">
<path fill-rule="evenodd" clip-rule="evenodd" d="M43.9592 10C41.7115 10 39.8895 11.8221 39.8895 14.0697C39.8895 15.008 40.207 15.8722 40.7405 16.5606L36.6986 25.4153C36.6311 25.5631 36.5846 25.7196 36.5605 25.8802L35.6303 32.0662L35.6283 32.08C35.6168 32.1606 35.5886 32.2377 35.5455 32.3066C35.5024 32.3754 35.4453 32.4346 35.3778 32.4801C35.3106 32.5255 35.2344 32.5563 35.1542 32.5706C35.0746 32.5847 34.993 32.5821 34.9146 32.5629C35.0812 32.1691 35.0978 31.7263 34.9587 31.3194L33.075 25.8077L33.0705 25.7947C32.6028 24.4608 31.6302 23.3638 30.3623 22.7396C29.7311 22.4242 29.0435 22.2374 28.3394 22.1901C27.6329 22.1426 26.9239 22.2364 26.2539 22.4663L26.2497 22.4677L22.5966 23.7315L14.2014 20.01C13.7973 19.8308 13.3404 19.8118 12.9228 19.9567L9.9242 20.997C9.82397 21.0127 9.72372 21.0374 9.62444 21.0716C9.52384 21.1063 9.42845 21.1492 9.33876 21.1994L6.92971 22.0241C6.01836 22.3361 5.5325 23.3278 5.8445 24.2392C6.1565 25.1505 7.14822 25.6364 8.05956 25.3244L9.11921 24.9616L10.1714 28.0175L6.92381 29.1423C6.01358 29.4576 5.53127 30.451 5.84653 31.3612C6.16179 32.2715 7.15524 32.7538 8.06547 32.4385L27.3878 25.7652C27.6183 25.6864 27.8622 25.6542 28.1054 25.6705C28.3491 25.6869 28.5872 25.7518 28.8056 25.8613L28.8191 25.868C29.2667 26.0876 29.6104 26.4737 29.7767 26.9434L30.6989 29.6417C30.627 29.8327 30.5877 30.0397 30.5877 30.2558V30.9627L27.101 32.1572C26.3972 31.2584 25.4172 30.6129 24.3095 30.3223C23.1376 30.0148 21.8954 30.1236 20.7948 30.6298C19.6964 31.1351 18.8069 32.0051 18.2775 33.092C17.9734 33.7074 17.7952 34.3773 17.7531 35.0624C17.7467 35.1659 17.7435 35.2695 17.7434 35.3729L11.0299 37.6757C10.5492 37.0638 9.93535 36.5596 9.22641 36.2061C9.20923 36.1975 9.19191 36.1892 9.17445 36.1812C8.7186 35.9724 8.23468 35.8307 7.73779 35.7607C6.78393 35.6264 5.90178 36.2907 5.76745 37.2446C5.63313 38.1985 6.2975 39.0806 7.25136 39.2149C7.40435 39.2365 7.55383 39.2789 7.69559 39.3409C8.10425 39.553 8.41734 39.9126 8.57076 40.3473L8.57399 40.3564C8.64968 40.5671 8.68171 40.7912 8.66809 41.0149C8.65448 41.2384 8.59554 41.4569 8.49481 41.6569L8.47915 41.6889C8.3823 41.8914 8.24562 42.0725 8.0773 42.2213C7.92297 42.3576 7.74494 42.4643 7.55222 42.5359L7.07155 42.6561C6.13704 42.8897 5.56886 43.8367 5.80249 44.7712C6.03612 45.7057 6.98308 46.2739 7.9176 46.0403L8.47571 45.9008C8.51955 45.8898 8.56296 45.8771 8.60583 45.8628C9.26255 45.6432 9.86838 45.2937 10.3873 44.8352C10.9017 44.3806 11.3203 43.8279 11.6185 43.2096C11.9272 42.5912 12.108 41.9168 12.15 41.2268C12.1551 41.1433 12.1581 41.0597 12.1591 40.9762L18.904 38.6626C19.2735 39.1221 19.7207 39.5192 20.2296 39.8339C21.2601 40.471 22.4797 40.7309 23.6804 40.5691C24.881 40.4073 25.9883 39.8339 26.8134 38.9466C27.6384 38.0594 28.1299 36.9134 28.2042 35.7041C28.2091 35.6238 28.2122 35.5436 28.2134 35.4634L31.3605 34.3853C31.3788 34.4105 31.3974 34.4356 31.4163 34.4605C31.9791 35.201 32.7785 35.7263 33.6814 35.9491C33.8182 35.9829 33.9585 35.9999 34.0993 35.9999H34.3121C34.7912 36.0886 35.2829 36.0906 35.7638 36.0052C36.324 35.9058 36.8572 35.69 37.3291 35.3717C37.8007 35.0534 38.2005 34.6397 38.5024 34.1573C38.803 33.6771 38.9999 33.1395 39.0807 32.579L39.9736 26.6411L43.855 18.1381C43.8896 18.139 43.9243 18.1394 43.9592 18.1394C44.0162 18.1394 44.0729 18.1383 44.1294 18.1359L50.3168 28.5113H42.378C41.4147 28.5113 40.6338 29.2922 40.6338 30.2554V41.8832C40.6338 42.8465 41.4147 43.6274 42.378 43.6274H47.8529C48.1479 44.6682 48.705 45.6268 49.4836 46.4053C50.6829 47.6047 52.3096 48.2785 54.0057 48.2785C54.969 48.2785 55.7499 47.4976 55.7499 46.5343C55.7499 45.571 54.969 44.7901 54.0057 44.7901C53.2347 44.7901 52.4953 44.4839 51.9502 43.9387C51.4054 43.3939 51.0991 42.655 51.0988 41.8845C51.0988 41.1135 51.405 40.3728 51.9502 39.8277C52.4953 39.2825 53.2347 38.9763 54.0057 38.9763C54.969 38.9763 55.7499 38.1954 55.7499 37.2321C55.7499 36.2688 54.969 35.4879 54.0057 35.4879C52.3096 35.4879 50.6829 36.1617 49.4836 37.3611C48.705 38.1396 48.1479 39.0982 47.8529 40.139H44.1221V31.9996H54.0057C54.969 31.9996 55.7499 31.2187 55.7499 30.2554C55.7499 29.4187 55.1607 28.7196 54.3745 28.5503C54.34 28.4625 54.2979 28.3764 54.248 28.2927L49.9923 21.1565L52.998 23.2841C53.7843 23.8406 54.8728 23.6544 55.4293 22.8681C55.9858 22.0819 55.7996 20.9934 55.0134 20.4368L47.8241 15.348C47.957 14.946 48.0289 14.5163 48.0289 14.0697C48.0289 11.8221 46.2068 10 43.9592 10ZM43.3778 14.0697C43.3778 13.7486 43.6381 13.4883 43.9592 13.4883C44.2803 13.4883 44.5406 13.7486 44.5406 14.0697C44.5406 14.3908 44.2803 14.6511 43.9592 14.6511C43.6381 14.6511 43.3778 14.3908 43.3778 14.0697ZM23.4242 33.6964C23.0336 33.5939 22.6196 33.6301 22.2526 33.7989C21.8857 33.9677 21.5888 34.2586 21.4124 34.6218L21.406 34.635C21.3068 34.8352 21.2486 35.0531 21.2349 35.2762C21.2212 35.4993 21.2522 35.7228 21.3262 35.9335L21.3311 35.9474C21.4617 36.3295 21.7207 36.6545 22.0642 36.8669C22.4077 37.0793 22.8142 37.1659 23.2145 37.112C23.6148 37.058 23.9839 36.8669 24.2588 36.5712C24.5338 36.2755 24.6977 35.8934 24.7224 35.4904C24.7472 35.0872 24.6313 34.6881 24.3946 34.3609C24.1578 34.0338 23.8148 33.7989 23.4242 33.6964ZM13.4686 26.8785L12.417 23.8245L13.4164 23.4777L17.7551 25.4011L13.4686 26.8785Z" fill="#8A8A8A"/>
</svg>
