<svg width="60" height="60" viewBox="0 0 60 60" fill="none" xmlns="http://www.w3.org/2000/svg">
<path fill-rule="evenodd" clip-rule="evenodd" d="M55.587 7.31935C56.0075 7.67561 56.25 8.19885 56.25 8.75001V13.75C56.25 14.7855 55.4105 15.625 54.375 15.625C53.3395 15.625 52.5 14.7855 52.5 13.75V10.9634L15.3709 17.1516L20.2133 19.5727C20.8485 19.8904 21.2498 20.5396 21.2498 21.2498V31.875H31.25V21.25C31.25 20.2145 32.0895 19.375 33.125 19.375H45.625C46.2836 19.375 46.8939 19.7206 47.2328 20.2853L54.7328 32.7853C54.9076 33.0767 55 33.4102 55 33.75V46.25C55 47.2855 54.1605 48.125 53.125 48.125H49.7394C49.4222 49.2439 48.8233 50.2744 47.9864 51.1114C46.697 52.4007 44.9484 53.125 43.125 53.125C41.3016 53.125 39.553 52.4007 38.2636 51.1114C37.4267 50.2744 36.8278 49.2439 36.5106 48.125H24.7394C24.4222 49.2439 23.8233 50.2744 22.9864 51.1114C21.697 52.4007 19.9484 53.125 18.125 53.125C16.3016 53.125 14.553 52.4007 13.2636 51.1114C12.4267 50.2744 11.8278 49.2439 11.5106 48.125H8.125C5.70875 48.125 3.75 46.1662 3.75 43.75V33.75C3.75 32.7145 4.58947 31.875 5.625 31.875H7.5V16.2961C7.49241 15.999 7.55554 15.6957 7.69775 15.4113C7.98278 14.8412 8.51902 14.4798 9.10522 14.3941L54.0668 6.90053C54.6104 6.80992 55.1664 6.9631 55.587 7.31935ZM11.25 19.2837V31.875H17.4998V22.4086L11.25 19.2837ZM9.375 35.625L9.3676 35.625H7.5V43.75C7.5 44.0952 7.77982 44.375 8.125 44.375H11.5106C11.8278 43.2561 12.4267 42.2256 13.2636 41.3886C14.553 40.0993 16.3016 39.375 18.125 39.375C19.9484 39.375 21.697 40.0993 22.9864 41.3886C23.8233 42.2256 24.4222 43.2561 24.7394 44.375H31.25V35.625H9.3824L9.375 35.625ZM49.7394 44.375H51.25V35.625H35V44.375H36.5106C36.8278 43.2561 37.4267 42.2256 38.2636 41.3886C39.553 40.0993 41.3016 39.375 43.125 39.375C44.9484 39.375 46.697 40.0993 47.9864 41.3886C48.8233 42.2256 49.4222 43.2561 49.7394 44.375ZM40 46.25C40 47.0788 40.3292 47.8737 40.9153 48.4597C41.5013 49.0458 42.2962 49.375 43.125 49.375C43.9538 49.375 44.7487 49.0458 45.3347 48.4597C45.9208 47.8737 46.25 47.0788 46.25 46.25C46.25 45.4212 45.9208 44.6263 45.3347 44.0403C44.7487 43.4542 43.9538 43.125 43.125 43.125C42.2962 43.125 41.5013 43.4542 40.9153 44.0403C40.3292 44.6263 40 45.4212 40 46.25ZM15 46.25C15 47.0788 15.3292 47.8737 15.9153 48.4597C16.5013 49.0458 17.2962 49.375 18.125 49.375C18.9538 49.375 19.7487 49.0458 20.3347 48.4597C20.9208 47.8737 21.25 47.0788 21.25 46.25C21.25 45.4212 20.9208 44.6263 20.3347 44.0403C19.7487 43.4542 18.9538 43.125 18.125 43.125C17.2962 43.125 16.5013 43.4542 15.9153 44.0403C15.3292 44.6263 15 45.4212 15 46.25ZM49.8134 31.875H35V23.125H44.5634L49.8134 31.875Z" fill="#8A8A8A"/>
</svg>
