<svg width="60" height="60" viewBox="0 0 60 60" fill="none" xmlns="http://www.w3.org/2000/svg">
<g id="toggle icons">
<path id="Vector 148" d="M17.5 12.5L15 17.5L21.25 23.75L27.5 20L30 12.5L26.25 8.75L21.25 7.5L17.5 12.5Z" fill="#B3D3EC"/>
<path id="icon" fill-rule="evenodd" clip-rule="evenodd" d="M26.6989 6.59778C25.7174 5.79478 24.4827 5.36634 23.2147 5.38878C21.9468 5.41122 20.728 5.88309 19.7755 6.72032C19.2216 7.20714 18.7787 7.79912 18.4687 8.45601C18.1638 8.51921 17.8641 8.60909 17.573 8.72513C16.791 9.03686 16.0936 9.52861 15.5374 10.1604C14.9812 10.7923 14.5818 11.5464 14.3717 12.3615C14.2536 12.8199 14.1972 13.2903 14.2027 13.7604C13.9418 14.0783 13.7176 14.4262 13.5353 14.7976C13.1907 15.4996 13.0041 16.2686 12.9886 17.0504C12.9732 17.8323 13.1292 18.6081 13.4458 19.3231C13.7623 20.0382 14.2317 20.6753 14.8209 21.1894C14.8351 21.2018 14.8494 21.214 14.864 21.2259L15.0217 21.3554C15.0354 21.3667 15.0493 21.3777 15.0634 21.3886L15.1696 21.4709L11.4026 25.2501L9.21525 19.566C8.84334 18.5996 7.75839 18.1176 6.79194 18.4895C5.8255 18.8614 5.34354 19.9464 5.71545 20.9128L8.64269 28.5195C8.62691 28.6175 8.61884 28.7172 8.61884 28.8177L8.61884 50.8621H7.53666C6.50112 50.8621 5.66166 51.7016 5.66166 52.7371C5.66166 53.7726 6.50113 54.6121 7.53666 54.6121L52.5367 54.6121C53.5722 54.6121 54.4117 53.7726 54.4117 52.7371C54.4117 51.7016 53.5722 50.8621 52.5367 50.8621H51.9117V33.867C51.9117 32.2631 51.0341 30.7878 49.6247 30.0224L38.9223 24.21C37.6686 23.5292 36.1617 23.5023 34.8846 24.1381L23.0869 30.0114C21.601 30.7512 20.6617 32.2681 20.6617 33.9279V50.8621H12.3688L12.3688 38.9968L17.1764 34.3174C17.9184 33.5951 17.9345 32.4081 17.2122 31.666C16.4899 30.9239 15.3028 30.9079 14.5608 31.6302L12.3688 33.7637V29.5925L18.1576 23.7852L18.7295 24.2282C19.3685 24.7233 20.1114 25.0672 20.9023 25.2341C21.6934 25.4011 22.512 25.3867 23.2967 25.1921C24.0814 24.9974 24.8119 24.6275 25.4332 24.1101C25.7715 23.8284 26.0726 23.507 26.3306 23.1537C26.7873 23.0414 27.2287 22.8691 27.643 22.6399C28.3796 22.2325 29.0098 21.6571 29.4823 20.9605C29.9549 20.2638 30.2564 19.4655 30.3625 18.6304C30.4021 18.3194 30.414 18.0064 30.3989 17.6953C30.9567 17.2308 31.4185 16.6541 31.751 15.9965C32.3227 14.8654 32.4746 13.5681 32.1796 12.3355C31.8845 11.1029 31.1617 10.015 30.1397 9.26538C29.5268 8.81578 28.8301 8.50537 28.0978 8.34808C27.7626 7.67746 27.2878 7.07958 26.6989 6.59778ZM23.2811 9.13819C23.6607 9.13147 24.0305 9.25977 24.3244 9.50022C24.6183 9.74067 24.8173 10.0777 24.8859 10.4511C25.0585 11.3902 25.909 12.0496 26.8614 11.9827C27.24 11.9561 27.6158 12.0647 27.9218 12.2892C28.2278 12.5136 28.4443 12.8394 28.5326 13.2085C28.621 13.5776 28.5755 13.9661 28.4043 14.3048C28.233 14.6435 27.9472 14.9104 27.5976 15.0581C26.6816 15.4452 26.2271 16.4799 26.5617 17.4163C26.6466 17.6537 26.6742 17.9077 26.6424 18.1577C26.6107 18.4078 26.5204 18.6469 26.3789 18.8555C26.2374 19.0641 26.0487 19.2364 25.8281 19.3584C25.6075 19.4804 25.3612 19.5486 25.1093 19.5576C24.3977 19.5829 23.7618 20.0092 23.468 20.6579C23.3681 20.8784 23.2196 21.0735 23.0335 21.2284C22.8475 21.3833 22.6288 21.4941 22.3938 21.5524C22.1588 21.6107 21.9137 21.615 21.6768 21.565C21.4399 21.515 21.2171 21.4117 21.0258 21.2635L17.3807 18.4402L17.2695 18.3489C17.1011 18.1976 16.9665 18.0123 16.8748 17.8052C16.78 17.591 16.7333 17.3587 16.7379 17.1246C16.7425 16.8905 16.7984 16.6602 16.9016 16.45C17.0048 16.2398 17.1528 16.0548 17.3352 15.9079C17.8899 15.4612 18.1437 14.7387 17.9901 14.0431C17.9357 13.797 17.9402 13.5415 18.0031 13.2974C18.066 13.0533 18.1856 12.8275 18.3521 12.6383C18.5187 12.4491 18.7275 12.3019 18.9617 12.2085C19.1958 12.1152 19.4487 12.0784 19.6997 12.1011C20.6904 12.1907 21.5786 11.4912 21.7237 10.5071C21.779 10.1314 21.966 9.78761 22.2512 9.53691C22.5364 9.28621 22.9014 9.14491 23.2811 9.13819ZM48.1617 33.867V50.8621H43.1617V45.237C43.1617 41.44 40.0836 38.362 36.2867 38.362C32.4897 38.362 29.4117 41.44 29.4117 45.237V50.8621H24.4117V33.9279C24.4117 33.6908 24.5459 33.4741 24.7581 33.3684L36.5558 27.4951C36.7382 27.4043 36.9535 27.4081 37.1326 27.5054L47.835 33.3178C48.0363 33.4271 48.1617 33.6379 48.1617 33.867ZM33.1617 50.8621V45.237C33.1617 43.5111 34.5608 42.112 36.2867 42.112C38.0126 42.112 39.4117 43.5111 39.4117 45.237V50.8621L33.1617 50.8621Z" fill="#016BBF"/>
</g>
</svg>
