<svg width="61" height="60" viewBox="0 0 61 60" fill="none" xmlns="http://www.w3.org/2000/svg">
<g id="toggle icons">
<path id="Union" fill-rule="evenodd" clip-rule="evenodd" d="M8.375 11.25C8.375 8.1434 10.8934 5.625 14 5.625H46.5C49.6066 5.625 52.125 8.1434 52.125 11.25C52.125 14.3566 49.6066 16.875 46.5 16.875H32.125V20.625H32.75C36.547 20.625 39.625 23.703 39.625 27.5V28.125H55.25C56.2855 28.125 57.125 28.9645 57.125 30C57.125 31.0355 56.2855 31.875 55.25 31.875H39.625V43.125H55.25C56.2855 43.125 57.125 43.9645 57.125 45C57.125 46.0355 56.2855 46.875 55.25 46.875H39.625V47.5C39.625 51.297 36.547 54.375 32.75 54.375H27.75C23.953 54.375 20.875 51.297 20.875 47.5V46.875H5.25C4.21447 46.875 3.375 46.0355 3.375 45C3.375 43.9645 4.21447 43.125 5.25 43.125H20.875V31.875H5.25C4.21447 31.875 3.375 31.0355 3.375 30C3.375 28.9645 4.21447 28.125 5.25 28.125H20.875V27.5C20.875 23.703 23.953 20.625 27.75 20.625H28.375V16.875H14C10.8934 16.875 8.375 14.3566 8.375 11.25ZM46.5 13.125C47.5355 13.125 48.375 12.2855 48.375 11.25C48.375 10.2145 47.5355 9.375 46.5 9.375H14C12.9645 9.375 12.125 10.2145 12.125 11.25C12.125 12.2855 12.9645 13.125 14 13.125H46.5ZM27.75 24.375C26.0241 24.375 24.625 25.7741 24.625 27.5V47.5C24.625 49.2259 26.0241 50.625 27.75 50.625H32.75C34.4759 50.625 35.875 49.2259 35.875 47.5V27.5C35.875 25.7741 34.4759 24.375 32.75 24.375H27.75Z" fill="#8A8A8A"/>
</g>
</svg>
