<svg width="61" height="61" viewBox="0 0 61 61" fill="none" xmlns="http://www.w3.org/2000/svg">
<rect x="23.3014" y="24.7391" width="14.538" height="27.6227" fill="#B3D3EC"/>
<path fill-rule="evenodd" clip-rule="evenodd" d="M8.625 12.2317C8.625 9.12509 11.1434 6.60669 14.25 6.60669H46.75C49.8566 6.60669 52.375 9.12509 52.375 12.2317C52.375 15.3383 49.8566 17.8567 46.75 17.8567H32.375V21.6067H33C36.797 21.6067 39.875 24.6847 39.875 28.4817V29.1067H55.5C56.5355 29.1067 57.375 29.9462 57.375 30.9817C57.375 32.0172 56.5355 32.8567 55.5 32.8567H39.875V44.1067H55.5C56.5355 44.1067 57.375 44.9462 57.375 45.9817C57.375 47.0172 56.5355 47.8567 55.5 47.8567H39.875V48.4817C39.875 52.2786 36.797 55.3567 33 55.3567H28C24.203 55.3567 21.125 52.2786 21.125 48.4817V47.8567H5.5C4.46447 47.8567 3.625 47.0172 3.625 45.9817C3.625 44.9462 4.46447 44.1067 5.5 44.1067H21.125V32.8567H5.5C4.46447 32.8567 3.625 32.0172 3.625 30.9817C3.625 29.9462 4.46447 29.1067 5.5 29.1067H21.125V28.4817C21.125 24.6847 24.203 21.6067 28 21.6067H28.625V17.8567H14.25C11.1434 17.8567 8.625 15.3383 8.625 12.2317ZM46.75 14.1067C47.7855 14.1067 48.625 13.2672 48.625 12.2317C48.625 11.1962 47.7855 10.3567 46.75 10.3567H14.25C13.2145 10.3567 12.375 11.1962 12.375 12.2317C12.375 13.2672 13.2145 14.1067 14.25 14.1067H46.75ZM28 25.3567C26.2741 25.3567 24.875 26.7558 24.875 28.4817V48.4817C24.875 50.2076 26.2741 51.6067 28 51.6067H33C34.7259 51.6067 36.125 50.2076 36.125 48.4817V28.4817C36.125 26.7558 34.7259 25.3567 33 25.3567H28Z" fill="#016BBF"/>
</svg>
