<svg width="61" height="60" viewBox="0 0 61 60" fill="none" xmlns="http://www.w3.org/2000/svg">
<path d="M41.4457 8.59007C40.6324 8.45653 39.7929 8.45447 38.9785 8.58409C38.1639 8.71374 37.402 8.97067 36.7354 9.33039C35.3822 10.0606 34.5596 11.1307 34.2896 12.217C34.0963 12.9946 33.3981 13.5405 32.5969 13.5405C31.2603 13.5405 30.0208 14.0014 29.1423 14.7603C28.2718 15.5124 27.843 16.4728 27.843 17.4098C27.843 18.3468 28.2718 19.3072 29.1423 20.0592C30.0208 20.8181 31.2603 21.2791 32.5969 21.2791C33.5601 21.2791 34.341 22.06 34.341 23.0233C34.341 23.9865 33.5601 24.7674 32.5969 24.7674C30.4866 24.7674 28.4206 24.0455 26.8619 22.699C25.2951 21.3455 24.3547 19.4504 24.3547 17.4098C24.3547 15.3692 25.2951 13.474 26.8619 12.1206C28.1078 11.0443 29.6778 10.367 31.3355 10.1386C32.0769 8.50645 33.4118 7.16 35.0788 6.26045C36.108 5.70507 37.2471 5.32737 38.4302 5.13908C39.6134 4.95076 40.8289 4.9537 42.0109 5.14779C43.1927 5.34186 44.3295 5.7252 45.3552 6.28588C46.3809 6.84656 47.2849 7.57905 48.0014 8.45625C48.7188 9.33466 49.2341 10.3418 49.495 11.4247C49.5858 11.8015 49.6445 12.1825 49.6712 12.5646C51.1848 12.6716 52.6377 13.2629 53.7589 14.2755C55.009 15.4045 55.75 16.976 55.75 18.6572C55.75 20.3384 55.009 21.9099 53.7589 23.0389C52.5148 24.1625 50.8621 24.7674 49.1715 24.7674H47.7903C46.827 24.7674 46.0461 23.9865 46.0461 23.0233C46.0461 22.06 46.827 21.2791 47.7903 21.2791H49.1715C50.0452 21.2791 50.8518 20.964 51.4208 20.4501C51.984 19.9414 52.2616 19.2919 52.2616 18.6572C52.2616 18.0225 51.984 17.373 51.4208 16.8644C50.8518 16.3504 50.0452 16.0354 49.1715 16.0354H47.7903C47.2536 16.0354 46.7468 15.7883 46.4163 15.3655C46.0857 14.9427 45.9682 14.3913 46.0976 13.8705C46.2316 13.3316 46.2335 12.7808 46.1037 12.2417C45.9734 11.701 45.708 11.1629 45.2996 10.6629C44.8902 10.1616 44.3454 9.70943 43.682 9.34679C43.0186 8.98415 42.259 8.72363 41.4457 8.59007Z" fill="#8A8A8A"/>
<path fill-rule="evenodd" clip-rule="evenodd" d="M12.1453 28.2558C11.5622 28.2558 11.0176 28.5473 10.6941 29.0325L6.04294 36.0092C5.85193 36.2958 5.75 36.6324 5.75 36.9767V48.6046C5.75 49.5679 6.5309 50.3488 7.49419 50.3488H10.6436C10.9387 51.3896 11.4958 52.3483 12.2743 53.1268C13.4737 54.3262 15.1004 55 16.7965 55C18.4927 55 20.1193 54.3262 21.3187 53.1268C22.0973 52.3483 22.6544 51.3896 22.9494 50.3488H33.8994C34.1945 51.3896 34.7516 52.3483 35.5301 53.1268C36.7295 54.3262 38.3562 55 40.0523 55C41.7485 55 43.3752 54.3262 44.5745 53.1268C45.3531 52.3483 45.9102 51.3896 46.2052 50.3488H54.0058C54.9691 50.3488 55.75 49.5679 55.75 48.6046V41.6279C55.75 39.9317 55.0762 38.3051 53.8768 37.1057C52.6775 35.9063 51.0508 35.2326 49.3546 35.2326H38.3081L29.4709 28.6046C29.169 28.3782 28.8018 28.2558 28.4244 28.2558H12.1453ZM46.2052 46.8605H52.2616V41.6279C52.2616 40.8569 51.9554 40.1175 51.4102 39.5724C50.865 39.0272 50.1256 38.7209 49.3546 38.7209H9.23837V46.8605H10.6436C10.9387 45.8197 11.4958 44.861 12.2743 44.0825C13.4737 42.8831 15.1004 42.2093 16.7965 42.2093C18.4927 42.2093 20.1193 42.8831 21.3187 44.0825C22.0973 44.861 22.6544 45.8197 22.9494 46.8605H33.8994C34.1945 45.8197 34.7516 44.861 35.5301 44.0825C36.7295 42.8831 38.3562 42.2093 40.0523 42.2093C41.7485 42.2093 43.3752 42.8831 44.5745 44.0825C45.3531 44.861 45.9102 45.8197 46.2052 46.8605ZM37.1453 48.6046C37.1453 49.3756 37.4516 50.115 37.9968 50.6602C38.5419 51.2054 39.2813 51.5116 40.0523 51.5116C40.8233 51.5116 41.5627 51.2054 42.1079 50.6602C42.653 50.115 42.9593 49.3756 42.9593 48.6046C42.9593 47.8337 42.653 47.0943 42.1079 46.5491C41.5627 46.0039 40.8233 45.6977 40.0523 45.6977C39.2813 45.6977 38.5419 46.0039 37.9968 46.5491C37.4516 47.0943 37.1453 47.8337 37.1453 48.6046ZM19.7035 48.6046C19.7035 47.8337 19.3972 47.0943 18.8521 46.5491C18.3069 46.0039 17.5675 45.6977 16.7965 45.6977C16.0255 45.6977 15.2861 46.0039 14.741 46.5491C14.1958 47.0943 13.8895 47.8337 13.8895 48.6046C13.8895 49.3756 14.1958 50.115 14.741 50.6602C15.2861 51.2054 16.0255 51.5116 16.7965 51.5116C17.5675 51.5116 18.3069 51.2054 18.8521 50.6602C19.3972 50.115 19.7035 49.3756 19.7035 48.6046ZM22.0291 35.2326H10.7532L13.0788 31.7442H22.0291V35.2326ZM25.5174 35.2326V31.7442H27.843L32.4942 35.2326H25.5174Z" fill="#8A8A8A"/>
<path d="M42.6118 19.9086C43.0651 19.0587 42.7435 18.0021 41.8936 17.5488C41.0436 17.0955 39.9871 17.4171 39.5338 18.267L36.433 24.081C36.1447 24.6216 36.1612 25.2738 36.4764 25.7992C36.7916 26.3245 37.3594 26.646 37.972 26.646H39.7162L37.9834 29.8949C37.5301 30.7449 37.8517 31.8014 38.7016 32.2547C39.5516 32.708 40.6081 32.3865 41.0614 31.5365L44.1622 25.7226C44.4505 25.182 44.434 24.5298 44.1188 24.0044C43.8036 23.479 43.2358 23.1576 42.6232 23.1576H40.879L42.6118 19.9086Z" fill="#8A8A8A"/>
</svg>
