<svg width="61" height="61" viewBox="0 0 61 61" fill="none" xmlns="http://www.w3.org/2000/svg">
<path fill-rule="evenodd" clip-rule="evenodd" d="M30.6665 5.85229C22.7274 5.85229 16.2915 12.2882 16.2915 20.2273V22.1023H18.7925C18.7918 22.1226 18.7915 22.1429 18.7915 22.1633C18.7915 25.3128 20.0426 28.3332 22.2696 30.5602C24.4966 32.7872 27.5171 34.0383 30.6665 34.0383C33.8159 34.0383 36.8364 32.7872 39.0634 30.5602C41.2904 28.3332 42.5415 25.3128 42.5415 22.1633C42.5415 22.1429 42.5412 22.1226 42.5405 22.1023H45.0415V20.2273C45.0415 12.2882 38.6056 5.85229 30.6665 5.85229ZM36.2915 11.2117C38.789 12.7732 40.5909 15.3437 41.1266 18.3523H20.2064C20.7421 15.3437 22.544 12.7732 25.0415 11.2117V14.3118C25.0415 15.3473 25.881 16.1868 26.9165 16.1868C27.952 16.1868 28.7915 15.3473 28.7915 14.3118V9.76721C29.4001 9.65884 30.0267 9.60229 30.6665 9.60229C31.3063 9.60229 31.9329 9.65884 32.5415 9.76721V14.3118C32.5415 15.3473 33.381 16.1868 34.4165 16.1868C35.452 16.1868 36.2915 15.3473 36.2915 14.3118V11.2117ZM22.5405 22.1023C22.5412 22.1226 22.5415 22.1429 22.5415 22.1633C22.5415 24.3182 23.3975 26.3848 24.9213 27.9086C26.445 29.4323 28.5116 30.2883 30.6665 30.2883C32.8214 30.2883 34.888 29.4323 36.4117 27.9086C37.9355 26.3848 38.7915 24.3182 38.7915 22.1633L38.7916 22.1433L38.7925 22.1023H22.5405Z" fill="#8A8A8A"/>
<path d="M19.9213 43.4908C21.445 41.9671 23.5116 41.1111 25.6665 41.1111H35.6665C37.8214 41.1111 39.888 41.9671 41.4117 43.4908C42.9355 45.0146 43.7915 47.0812 43.7915 49.2361V54.2361C43.7915 55.2716 44.631 56.1111 45.6665 56.1111C46.702 56.1111 47.5415 55.2716 47.5415 54.2361V49.2361C47.5415 46.0866 46.2904 43.0662 44.0634 40.8392C41.8364 38.6122 38.816 37.3611 35.6665 37.3611H25.6665C22.5171 37.3611 19.4966 38.6122 17.2696 40.8392C15.0426 43.0662 13.7915 46.0866 13.7915 49.2361V54.2361C13.7915 55.2716 14.631 56.1111 15.6665 56.1111C16.702 56.1111 17.5415 55.2716 17.5415 54.2361V49.2361C17.5415 47.0812 18.3975 45.0146 19.9213 43.4908Z" fill="#8A8A8A"/>
</svg>
